<svg width="295" height="100" viewBox="0 0 295 100" fill="none" xmlns="http://www.w3.org/2000/svg">
<path d="M70.4844 59.1562H74.3516V64.6172H70.4844V72H63.7109V64.6172H49.7188L49.4141 60.3516L63.6406 37.875H70.4844V59.1562ZM56.1641 59.1562H63.7109V47.1094L63.2656 47.8828L56.1641 59.1562ZM100.977 57.8906C100.977 62.6094 100 66.2188 98.0469 68.7188C96.0938 71.2188 93.2344 72.4688 89.4688 72.4688C85.75 72.4688 82.9062 71.2422 80.9375 68.7891C78.9688 66.3359 77.9609 62.8203 77.9141 58.2422V51.9609C77.9141 47.1953 78.8984 43.5781 80.8672 41.1094C82.8516 38.6406 85.7031 37.4062 89.4219 37.4062C93.1406 37.4062 95.9844 38.6328 97.9531 41.0859C99.9219 43.5234 100.93 47.0312 100.977 51.6094V57.8906ZM94.2031 51C94.2031 48.1719 93.8125 46.1172 93.0312 44.8359C92.2656 43.5391 91.0625 42.8906 89.4219 42.8906C87.8281 42.8906 86.6484 43.5078 85.8828 44.7422C85.1328 45.9609 84.7344 47.875 84.6875 50.4844V58.7812C84.6875 61.5625 85.0625 63.6328 85.8125 64.9922C86.5781 66.3359 87.7969 67.0078 89.4688 67.0078C91.125 67.0078 92.3203 66.3594 93.0547 65.0625C93.7891 63.7656 94.1719 61.7812 94.2031 59.1094V51ZM125.609 59.1562H129.477V64.6172H125.609V72H118.836V64.6172H104.844L104.539 60.3516L118.766 37.875H125.609V59.1562ZM111.289 59.1562H118.836V47.1094L118.391 47.8828L111.289 59.1562ZM166.344 57.2109H152.844V66.3516H168.688V72H145.812V37.875H168.641V43.5703H152.844V51.7031H166.344V57.2109ZM185.445 59.5078H179.844V72H172.812V37.875H185.492C189.523 37.875 192.633 38.7734 194.82 40.5703C197.008 42.3672 198.102 44.9062 198.102 48.1875C198.102 50.5156 197.594 52.4609 196.578 54.0234C195.578 55.5703 194.055 56.8047 192.008 57.7266L199.391 71.6719V72H191.844L185.445 59.5078ZM179.844 53.8125H185.516C187.281 53.8125 188.648 53.3672 189.617 52.4766C190.586 51.5703 191.07 50.3281 191.07 48.75C191.07 47.1406 190.609 45.875 189.688 44.9531C188.781 44.0312 187.383 43.5703 185.492 43.5703H179.844V53.8125ZM216.102 59.5078H210.5V72H203.469V37.875H216.148C220.18 37.875 223.289 38.7734 225.477 40.5703C227.664 42.3672 228.758 44.9062 228.758 48.1875C228.758 50.5156 228.25 52.4609 227.234 54.0234C226.234 55.5703 224.711 56.8047 222.664 57.7266L230.047 71.6719V72H222.5L216.102 59.5078ZM210.5 53.8125H216.172C217.938 53.8125 219.305 53.3672 220.273 52.4766C221.242 51.5703 221.727 50.3281 221.727 48.75C221.727 47.1406 221.266 45.875 220.344 44.9531C219.438 44.0312 218.039 43.5703 216.148 43.5703H210.5V53.8125ZM262.156 55.7109C262.156 59.0703 261.562 62.0156 260.375 64.5469C259.188 67.0781 257.484 69.0312 255.266 70.4062C253.062 71.7812 250.531 72.4688 247.672 72.4688C244.844 72.4688 242.32 71.7891 240.102 70.4297C237.883 69.0703 236.164 67.1328 234.945 64.6172C233.727 62.0859 233.109 59.1797 233.094 55.8984V54.2109C233.094 50.8516 233.695 47.8984 234.898 45.3516C236.117 42.7891 237.828 40.8281 240.031 39.4688C242.25 38.0938 244.781 37.4062 247.625 37.4062C250.469 37.4062 252.992 38.0938 255.195 39.4688C257.414 40.8281 259.125 42.7891 260.328 45.3516C261.547 47.8984 262.156 50.8438 262.156 54.1875V55.7109ZM255.031 54.1641C255.031 50.5859 254.391 47.8672 253.109 46.0078C251.828 44.1484 250 43.2188 247.625 43.2188C245.266 43.2188 243.445 44.1406 242.164 45.9844C240.883 47.8125 240.234 50.5 240.219 54.0469V55.7109C240.219 59.1953 240.859 61.8984 242.141 63.8203C243.422 65.7422 245.266 66.7031 247.672 66.7031C250.031 66.7031 251.844 65.7812 253.109 63.9375C254.375 62.0781 255.016 59.375 255.031 55.8281V54.1641ZM279.898 59.5078H274.297V72H267.266V37.875H279.945C283.977 37.875 287.086 38.7734 289.273 40.5703C291.461 42.3672 292.555 44.9062 292.555 48.1875C292.555 50.5156 292.047 52.4609 291.031 54.0234C290.031 55.5703 288.508 56.8047 286.461 57.7266L293.844 71.6719V72H286.297L279.898 59.5078ZM274.297 53.8125H279.969C281.734 53.8125 283.102 53.3672 284.07 52.4766C285.039 51.5703 285.523 50.3281 285.523 48.75C285.523 47.1406 285.062 45.875 284.141 44.9531C283.234 44.0312 281.836 43.5703 279.945 43.5703H274.297V53.8125Z" fill="#BE1E2D"/>
<path d="M66.7008 0.0660103L63.838 1.36908C63.6546 1.4537 63.4854 1.56934 63.3416 1.71319L58.6764 6.38112L42.6108 4.45472C42.3203 4.42087 42.027 4.51959 41.8211 4.72831L40.927 5.62241C40.4531 6.09625 40.5998 6.89728 41.2119 7.17087L52.7252 12.3324L49.4195 15.638H43.646C43.3921 15.638 43.1495 15.7396 42.969 15.9172L42.4867 16.4024C42.0072 16.8818 42.1652 17.6913 42.7857 17.9565L47.6567 20.0437L49.7439 24.9146C50.009 25.5352 50.8213 25.6931 51.298 25.2136L51.7831 24.7285C51.9636 24.548 52.0623 24.3054 52.0623 24.0516V18.278L55.368 14.9724L60.5295 26.4885C60.8031 27.1006 61.6041 27.2472 62.0779 26.7734L62.972 25.8793C63.1808 25.6706 63.2795 25.3801 63.2456 25.0896L61.3164 9.02397L65.9843 4.35603C66.1282 4.21218 66.2438 4.04577 66.3284 3.85962L67.6315 0.996806C67.9052 0.407292 67.2959 -0.204758 66.7008 0.0660103Z" fill="#E1E1E1"/>
<path d="M4.12326 90.6312C-11.7485 72.7755 22.009 36.5982 40.8717 20.7415L42.9008 22.996C30.9519 31.3376 -8.29929 71.4517 5.47596 89.2785C13.1413 99.1983 29.1483 92.3825 43.8026 81.8386C35.3858 90.1052 15.6663 103.437 4.12326 90.6312Z" fill="#E1E1E1"/>
<path d="M8.24652 94.6893C-7.62522 76.8336 26.1323 40.6563 44.995 24.7996L47.0241 27.0541C35.0752 35.3957 -4.17603 75.5098 9.59922 93.3366C17.2645 103.256 33.2716 96.4406 47.9259 85.8967C39.509 94.1633 19.7896 107.495 8.24652 94.6893Z" fill="#E1E1E1"/>
</svg>
