<svg width="408" height="222" viewBox="0 0 408 222" fill="none" xmlns="http://www.w3.org/2000/svg">
<path d="M108.812 134.875H113.969V142.156H108.812V152H99.7812V142.156H81.1249L80.7187 136.469L99.6874 106.5H108.812V134.875ZM89.7187 134.875H99.7812V118.812L99.1874 119.844L89.7187 134.875ZM149.469 133.188C149.469 139.479 148.167 144.292 145.562 147.625C142.958 150.958 139.146 152.625 134.125 152.625C129.167 152.625 125.375 150.99 122.75 147.719C120.125 144.448 118.781 139.76 118.719 133.656V125.281C118.719 118.927 120.031 114.104 122.656 110.812C125.302 107.521 129.104 105.875 134.062 105.875C139.021 105.875 142.812 107.51 145.437 110.781C148.062 114.031 149.406 118.708 149.469 124.812V133.188ZM140.437 124C140.437 120.229 139.917 117.49 138.875 115.781C137.854 114.052 136.25 113.188 134.062 113.188C131.937 113.188 130.365 114.01 129.344 115.656C128.344 117.281 127.812 119.833 127.75 123.312V134.375C127.75 138.083 128.25 140.844 129.25 142.656C130.271 144.448 131.896 145.344 134.125 145.344C136.333 145.344 137.927 144.479 138.906 142.75C139.885 141.021 140.396 138.375 140.437 134.812V124ZM182.312 134.875H187.469V142.156H182.312V152H173.281V142.156H154.625L154.219 136.469L173.187 106.5H182.312V134.875ZM163.219 134.875H173.281V118.812L172.687 119.844L163.219 134.875ZM236.625 132.281H218.625V144.469H239.75V152H209.25V106.5H239.687V114.094H218.625V124.938H236.625V132.281ZM262.094 135.344H254.625V152H245.25V106.5H262.156C267.531 106.5 271.677 107.698 274.594 110.094C277.51 112.49 278.969 115.875 278.969 120.25C278.969 123.354 278.292 125.948 276.937 128.031C275.604 130.094 273.573 131.74 270.844 132.969L280.687 151.562V152H270.625L262.094 135.344ZM254.625 127.75H262.187C264.542 127.75 266.365 127.156 267.656 125.969C268.948 124.76 269.594 123.104 269.594 121C269.594 118.854 268.979 117.167 267.75 115.938C266.542 114.708 264.677 114.094 262.156 114.094H254.625V127.75ZM302.969 135.344H295.5V152H286.125V106.5H303.031C308.406 106.5 312.552 107.698 315.469 110.094C318.385 112.49 319.844 115.875 319.844 120.25C319.844 123.354 319.167 125.948 317.812 128.031C316.479 130.094 314.448 131.74 311.719 132.969L321.562 151.562V152H311.5L302.969 135.344ZM295.5 127.75H303.062C305.417 127.75 307.24 127.156 308.531 125.969C309.823 124.76 310.469 123.104 310.469 121C310.469 118.854 309.854 117.167 308.625 115.938C307.417 114.708 305.552 114.094 303.031 114.094H295.5V127.75ZM364.375 130.281C364.375 134.76 363.583 138.688 362 142.062C360.417 145.438 358.146 148.042 355.187 149.875C352.25 151.708 348.875 152.625 345.062 152.625C341.292 152.625 337.927 151.719 334.969 149.906C332.01 148.094 329.719 145.51 328.094 142.156C326.469 138.781 325.646 134.906 325.625 130.531V128.281C325.625 123.802 326.427 119.865 328.031 116.469C329.656 113.052 331.937 110.438 334.875 108.625C337.833 106.792 341.208 105.875 345 105.875C348.792 105.875 352.156 106.792 355.094 108.625C358.052 110.438 360.333 113.052 361.937 116.469C363.562 119.865 364.375 123.792 364.375 128.25V130.281ZM354.875 128.219C354.875 123.448 354.021 119.823 352.312 117.344C350.604 114.865 348.167 113.625 345 113.625C341.854 113.625 339.427 114.854 337.719 117.312C336.01 119.75 335.146 123.333 335.125 128.062V130.281C335.125 134.927 335.979 138.531 337.687 141.094C339.396 143.656 341.854 144.938 345.062 144.938C348.208 144.938 350.625 143.708 352.312 141.25C354 138.771 354.854 135.167 354.875 130.438V128.219ZM388.031 135.344H380.562V152H371.187V106.5H388.094C393.469 106.5 397.615 107.698 400.531 110.094C403.448 112.49 404.906 115.875 404.906 120.25C404.906 123.354 404.229 125.948 402.875 128.031C401.542 130.094 399.51 131.74 396.781 132.969L406.625 151.562V152H396.562L388.031 135.344ZM380.562 127.75H388.125C390.479 127.75 392.302 127.156 393.594 125.969C394.885 124.76 395.531 123.104 395.531 121C395.531 118.854 394.917 117.167 393.687 115.938C392.479 114.708 390.615 114.094 388.094 114.094H380.562V127.75Z" fill="#BE1E2D"/>
<path d="M148.783 0.146396L142.434 3.03633C142.027 3.22398 141.652 3.48045 141.333 3.79947L130.987 14.1519L95.3569 9.87958C94.7126 9.80452 94.062 10.0234 93.6054 10.4863L91.6225 12.4693C90.5716 13.5201 90.8969 15.2966 92.2543 15.9034L117.788 27.3505L110.457 34.6817H97.6525C97.0896 34.6817 96.5516 34.9069 96.1513 35.3009L95.0816 36.3768C94.0182 37.4402 94.3685 39.2354 95.7447 39.8235L106.548 44.4524L111.176 55.2552C111.764 56.6313 113.566 56.9817 114.623 55.9183L115.699 54.8424C116.099 54.442 116.318 53.9041 116.318 53.3411V40.5366L123.649 33.2054L135.097 58.7457C135.703 60.1031 137.48 60.4283 138.531 59.3775L140.514 57.3946C140.976 56.9317 141.195 56.2874 141.12 55.6431L136.842 20.0132L147.194 9.66071C147.513 9.34169 147.77 8.97263 147.957 8.55978L150.847 2.21069C151.454 0.903283 150.103 -0.454109 148.783 0.146396Z" fill="#E1E1E1"/>
<path d="M9.99995 201C-25.2001 161.4 49.6666 81.1667 91.4999 46L95.9999 51C69.4999 69.5 -17.5505 158.464 12.9999 198C29.9999 220 65.4999 204.884 97.9999 181.5C79.3333 199.833 35.6 229.4 9.99995 201Z" fill="#E1E1E1"/>
<path d="M19.1444 210C-16.0556 170.4 58.8111 90.1667 100.644 55L105.144 60C78.6444 78.5 -8.40605 167.464 22.1444 207C39.1444 229 74.6444 213.884 107.144 190.5C88.4777 208.833 44.7444 238.4 19.1444 210Z" fill="#E1E1E1"/>
</svg>
