<svg width="60" height="28" viewBox="0 0 60 28" fill="none" xmlns="http://www.w3.org/2000/svg">
<rect width="60" height="28" rx="4" fill="#179BD7"/>
<path d="M12.072 9.92942L11.2312 7.84308L10.3904 9.92942H12.072ZM30.6787 9.10753C30.5074 9.21817 30.305 9.21817 30.0714 9.21817H28.5767V8.04855H30.1026C30.3206 8.04855 30.5385 8.06436 30.6942 8.14339C30.85 8.22241 30.9589 8.38047 30.9589 8.60175C30.9278 8.83883 30.8344 9.01269 30.6787 9.10753ZM41.3756 9.92942L40.5192 7.84308L39.6628 9.92942H41.3756ZM21.4454 12.2054H20.1842V8.09597L18.3936 12.2054H17.3037L15.5131 8.09597V12.2054H12.9906L12.5235 11.0358H9.9544L9.47171 12.2054H8.13265L10.3437 6.95797H12.181L14.2674 11.9209V6.95797H16.276L17.8953 10.5142L19.3745 6.95797H21.4298L21.4454 12.2054ZM26.4747 12.2054H22.3641V6.95797H26.4902V8.04855H23.5941V8.99689H26.4124V10.0717H23.5941V11.1148H26.4747V12.2054ZM32.298 8.36467C32.298 9.20236 31.753 9.62911 31.4261 9.75556C31.6908 9.8662 31.9243 10.0401 32.0333 10.1981C32.2046 10.451 32.2357 10.6881 32.2357 11.1623V12.1896H30.9901V11.5258C30.9901 11.2097 31.0212 10.7513 30.7877 10.4984C30.6008 10.3088 30.3361 10.2771 29.8846 10.2771H28.5611V12.1896H27.331V6.94216H30.1649C30.7877 6.94216 31.2548 6.95797 31.6596 7.19505C32.0644 7.44794 32.298 7.77986 32.298 8.36467ZM34.2754 12.2054H33.0142V6.95797H34.2754V12.2054ZM48.8805 12.2054H47.1366L44.8011 8.26983V12.2054H42.2942L41.8116 11.0358H39.2424L38.7753 12.2054H37.3273C36.72 12.2054 35.9726 12.0632 35.5367 11.6206C35.1007 11.1781 34.8827 10.5775 34.8827 9.61331C34.8827 8.83883 35.0228 8.12758 35.5522 7.55858C35.9571 7.14763 36.5799 6.94216 37.4207 6.94216H38.6196V8.06436H37.4518C37.0003 8.06436 36.7512 8.12758 36.502 8.38047C36.284 8.60175 36.1439 9.0127 36.1439 9.56589C36.1439 10.1349 36.2529 10.53 36.4865 10.7987C36.6733 11.0042 37.0159 11.0674 37.3428 11.0674H37.9034L39.6473 6.94216H41.5001L43.5866 11.9051V6.94216H45.4706L47.6349 10.5933V6.94216H48.8961V12.2054H48.8805ZM8.11708 13.2328H10.2191L10.7018 12.0632H11.7606L12.2277 13.2328H16.3694V12.3477L16.7431 13.2486H18.8918L19.2655 12.3477V13.2486H29.5732V11.3361H29.7756C29.9157 11.3361 29.9624 11.3519 29.9624 11.589V13.2486H35.2875V12.806C35.7235 13.0431 36.393 13.2486 37.265 13.2486H39.5071L39.9898 12.079H41.0486L41.5157 13.2486H45.8443V12.1422L46.4983 13.2486H49.9549V5.91479H46.5294V6.7841L46.0467 5.91479H42.5278V6.7841L42.0918 5.91479H37.3428C36.5487 5.91479 35.8481 6.02543 35.2875 6.34155V5.91479H32.0022V6.34155C31.644 6.02543 31.1458 5.91479 30.6008 5.91479H18.6427L17.8486 7.81147L17.0234 5.91479H13.2398V6.7841L12.8349 5.91479H9.61185L8.11708 9.39203V13.2328Z" fill="white"/>
<path d="M52.0103 17.0894H49.7681C49.5502 17.0894 49.3945 17.1052 49.2699 17.1843C49.1453 17.2633 49.083 17.3897 49.083 17.5636C49.083 17.7691 49.192 17.8955 49.3477 17.9587C49.4723 18.0062 49.6124 18.022 49.8304 18.022L50.5 18.0378C51.1695 18.0536 51.621 18.18 51.9013 18.4645C51.948 18.5119 51.9791 18.5436 52.0103 18.591V17.0894ZM52.0103 20.5509C51.7144 20.9934 51.1228 21.2147 50.3287 21.2147H47.9464V20.0925H50.3131C50.5467 20.0925 50.7179 20.0609 50.8114 19.9661C50.9048 19.887 50.9515 19.7606 50.9515 19.6183C50.9515 19.4603 50.8892 19.3496 50.7958 19.2706C50.7024 19.1916 50.5778 19.16 50.3598 19.16C49.2076 19.1126 47.7596 19.1916 47.7596 17.532C47.7596 16.7733 48.2422 15.9672 49.5346 15.9672H51.9947V14.9241H49.7059C49.0208 14.9241 48.5225 15.0979 48.1644 15.3508V14.9241H44.7856C44.2406 14.9241 43.6178 15.0663 43.3064 15.3508V14.9241H37.2806V15.3508C36.798 15.0031 35.9883 14.9241 35.6146 14.9241H31.6286V15.3508C31.2549 14.9715 30.3985 14.9241 29.8847 14.9241H25.4315L24.4194 16.0463L23.4696 14.9241H16.8522V22.2421H23.3762L24.4194 21.1041L25.4159 22.2421H29.4331V20.5193H29.8224C30.3518 20.5351 30.9902 20.5035 31.5351 20.2664V22.2421H34.8516V20.3296H35.0074C35.2098 20.3296 35.2253 20.3454 35.2253 20.5509V22.2421H45.3306C45.969 22.2421 46.6385 22.0682 47.0122 21.7679V22.2421H50.2041C50.8736 22.2421 51.512 22.1472 52.0103 21.9102V20.5509ZM47.09 18.4487C47.3236 18.7016 47.4637 19.0177 47.4637 19.5551C47.4637 20.6773 46.763 21.2147 45.533 21.2147H43.1351V20.0925H45.533C45.7665 20.0925 45.9378 20.0609 46.0312 19.9661C46.1091 19.887 46.1714 19.7606 46.1714 19.6183C46.1714 19.4603 46.1091 19.3496 46.0157 19.2706C45.9222 19.1916 45.7977 19.16 45.5797 19.16C44.4275 19.1126 42.9794 19.1916 42.9794 17.532C42.9794 16.7733 43.4465 15.9672 44.7389 15.9672H47.2146V17.0894H44.9569C44.7389 17.0894 44.5832 17.1052 44.4586 17.1843C44.3185 17.2633 44.2718 17.3897 44.2718 17.5636C44.2718 17.7691 44.3808 17.8955 44.5365 17.9587C44.661 18.0062 44.8012 18.022 45.0192 18.022L45.6887 18.0378C46.3582 18.0536 46.8098 18.1642 47.09 18.4487ZM35.9571 18.1326C35.7859 18.2274 35.5835 18.2433 35.3499 18.2433H33.8551V17.0736H35.381C35.599 17.0736 35.817 17.0736 35.9727 17.1685C36.1284 17.2475 36.2218 17.4214 36.2218 17.6426C36.2218 17.8481 36.1284 18.0378 35.9571 18.1326ZM36.7045 18.7806C36.9848 18.8913 37.2028 19.0651 37.3118 19.2232C37.4831 19.4761 37.5142 19.7132 37.5142 20.1873V21.2305H36.2686V20.5825C36.2686 20.2664 36.2997 19.808 36.0661 19.5551C35.8793 19.3654 35.6146 19.318 35.1631 19.318H33.8396V21.2305H32.5939V15.983H35.4433C36.0661 15.983 36.5177 16.0147 36.9225 16.2359C37.3118 16.473 37.5609 16.8049 37.5609 17.4056C37.5765 18.2274 37.0315 18.6542 36.7045 18.7806ZM38.2616 15.983H42.3722V17.0736H39.4761V18.022H42.2943V19.0968H39.4761V20.1399H42.3722V21.2305H38.2616V15.983ZM29.947 18.4013H28.3588V17.0736H29.9625C30.4141 17.0736 30.7099 17.2633 30.7099 17.7217C30.7099 18.1642 30.4141 18.4013 29.947 18.4013ZM27.1131 20.7405L25.2135 18.6068L27.1131 16.5362V20.7405ZM22.224 20.1241H19.1878V19.0809H21.897V18.0062H19.1878V17.0578H22.2863L23.6409 18.591L22.224 20.1241ZM32.0334 17.7059C32.0334 19.16 30.959 19.4603 29.8847 19.4603H28.3432V21.2147H25.9453L24.4194 19.4761L22.8468 21.2147H17.9577V15.9672H22.9247L24.4506 17.6901L26.0232 15.9672H29.9625C30.9279 15.983 32.0334 16.2517 32.0334 17.7059Z" fill="white"/>
</svg>
