<?xml version="1.0" encoding="utf-8"?>
<!-- Generator: Adobe Illustrator 16.0.0, SVG Export Plug-In . SVG Version: 6.00 Build 0)  -->
<!DOCTYPE svg PUBLIC "-//W3C//DTD SVG 1.1//EN" "http://www.w3.org/Graphics/SVG/1.1/DTD/svg11.dtd">
<svg version="1.1" id="Layer_1" xmlns="http://www.w3.org/2000/svg" xmlns:xlink="http://www.w3.org/1999/xlink" x="0px" y="0px"
	 width="48px" height="48px" viewBox="0 0 48 48" enable-background="new 0 0 48 48" xml:space="preserve">
<path fill="#C8CACD" d="M46.034,0l-7.069,47.999h1.969L48,0H46.034z"/>
<path fill="#838383" d="M38.965,47.999L46.034,0H38.17l-7.068,47.999H38.965z"/>
<path fill="#838383" d="M13.7,15.988c0.02-0.383,0.113-0.702,0.219-0.702c0.094,0,0.182,0.275,0.213,0.601l2.248,32.104h3.683
	l1.876-41.722h-1.621l-1.443,32.126c-0.019,0.406-0.105,0.723-0.214,0.723c-0.1,0-0.185-0.279-0.21-0.639l-2.252-32.21h-3.681
	L10.64,47.991h1.619L13.7,15.988z M7.413,33.845L7.098,15.153c-0.003-0.415-0.074-0.81-0.179-0.921
	c-0.117-0.114-0.237,0.127-0.283,0.534L1.834,47.991H0L6.031,6.267h3.545l0.709,41.724H7.654l-0.077-4.545
	c-0.013-0.973-0.198-1.742-0.445-1.742H3.152l0.897-6.227h2.984C7.252,35.478,7.429,34.726,7.413,33.845z M27.42,33.937
	l-0.418-18.522c-0.012-0.482-0.113-0.853-0.24-0.853c-0.085,0-0.161,0.173-0.205,0.436l-4.322,32.994h-1.793l5.461-41.722h3.545
	l0.943,41.722h-2.652l-0.104-4.549c-0.02-0.98-0.2-1.738-0.445-1.738h-3.73l0.814-6.227h2.766
	C27.265,35.478,27.442,34.718,27.42,33.937z"/>
</svg>
