<svg width="9" height="14" viewBox="0 0 9 14" fill="none" xmlns="http://www.w3.org/2000/svg">
<path d="M2.00006 7.07695L1.34568 6.32078L0.471884 7.07695L1.34568 7.83312L2.00006 7.07695ZM8.65444 2.64081C9.07206 2.27941 9.11763 1.64789 8.75623 1.23027C8.39483 0.812647 7.76331 0.767072 7.34568 1.12847L8.65444 2.64081ZM7.34568 13.0254C7.7633 13.3868 8.39482 13.3413 8.75623 12.9236C9.11763 12.506 9.07206 11.8745 8.65444 11.5131L7.34568 13.0254ZM2.65443 7.83312L8.65444 2.64081L7.34568 1.12847L1.34568 6.32078L2.65443 7.83312ZM8.65444 11.5131L2.65443 6.32078L1.34568 7.83312L7.34568 13.0254L8.65444 11.5131Z" fill="#005AEB"/>
</svg>
