<svg width="12" height="8" viewBox="0 0 12 8" fill="none" xmlns="http://www.w3.org/2000/svg">
<path d="M6 6.5L6.53033 7.03033L6 7.56066L5.46967 7.03033L6 6.5ZM10.4697 0.96967C10.7626 0.676777 11.2374 0.676777 11.5303 0.96967C11.8232 1.26256 11.8232 1.73744 11.5303 2.03033L10.4697 0.96967ZM0.469669 2.03033C0.176776 1.73744 0.176776 1.26256 0.469668 0.969671C0.762562 0.676778 1.23744 0.676778 1.53033 0.969671L0.469669 2.03033ZM5.46967 5.96967L10.4697 0.96967L11.5303 2.03033L6.53033 7.03033L5.46967 5.96967ZM1.53033 0.969671L6.53033 5.96967L5.46967 7.03033L0.469669 2.03033L1.53033 0.969671Z" fill="#2E2E2E"/>
</svg>
