<svg width="24" height="21" viewBox="0 0 24 21" fill="none" xmlns="http://www.w3.org/2000/svg">
<path d="M15 10.1923L15.6544 9.43614L16.5282 10.1923L15.6544 10.9485L15 10.1923ZM8.34562 5.75617C7.928 5.39477 7.88243 4.76324 8.24383 4.34562C8.60523 3.928 9.23676 3.88243 9.65438 4.24383L8.34562 5.75617ZM9.65438 16.1408C9.23676 16.5022 8.60524 16.4566 8.24383 16.039C7.88243 15.6214 7.92801 14.9899 8.34563 14.6284L9.65438 16.1408ZM14.3456 10.9485L8.34562 5.75617L9.65438 4.24383L15.6544 9.43614L14.3456 10.9485ZM8.34563 14.6284L14.3456 9.43614L15.6544 10.9485L9.65438 16.1408L8.34563 14.6284Z" fill="#005AEB"/>
</svg>
