<svg width="10" height="14" viewBox="0 0 10 14" fill="none" xmlns="http://www.w3.org/2000/svg">
<path d="M7.89966 7.07695L8.55403 6.32078L9.42783 7.07695L8.55403 7.83312L7.89966 7.07695ZM1.24528 2.64081C0.827661 2.27941 0.782087 1.64789 1.14349 1.23027C1.50489 0.812646 2.13641 0.767073 2.55403 1.12847L1.24528 2.64081ZM2.55404 13.0254C2.13642 13.3868 1.50489 13.3413 1.14349 12.9236C0.78209 12.506 0.827664 11.8745 1.24528 11.5131L2.55404 13.0254ZM7.24528 7.83312L1.24528 2.64081L2.55403 1.12847L8.55403 6.32078L7.24528 7.83312ZM1.24528 11.5131L7.24528 6.32078L8.55403 7.83312L2.55404 13.0254L1.24528 11.5131Z" fill="#005AEB"/>
</svg>
