<svg width="24" height="21" viewBox="0 0 24 21" fill="none" xmlns="http://www.w3.org/2000/svg">
<path d="M9.1 10.1923L8.44563 9.43614L7.57183 10.1923L8.44563 10.9485L9.1 10.1923ZM15.7544 5.75617C16.172 5.39477 16.2176 4.76324 15.8562 4.34562C15.4948 3.928 14.8632 3.88243 14.4456 4.24383L15.7544 5.75617ZM14.4456 16.1408C14.8632 16.5022 15.4948 16.4566 15.8562 16.039C16.2176 15.6214 16.172 14.9899 15.7544 14.6284L14.4456 16.1408ZM9.75438 10.9485L15.7544 5.75617L14.4456 4.24383L8.44563 9.43614L9.75438 10.9485ZM15.7544 14.6284L9.75438 9.43614L8.44563 10.9485L14.4456 16.1408L15.7544 14.6284Z" fill="#005AEB"/>
</svg>
