<svg xmlns="http://www.w3.org/2000/svg" width="60" height="50" fill="#ebebec"  fill-rule="evenodd" xmlns:v="https://vecta.io/nano"><path d="M2 50a2 2 0 0 1-2-2V13a2 2 0 1 1 4 0v35a2 2 0 0 1-2 2zm8 0a2 2 0 0 1-2-2V2a2 2 0 1 1 4 0v46a2 2 0 0 1-2 2zm8 0a2 2 0 0 1-2-2V8a2 2 0 1 1 4 0v40a2 2 0 0 1-2 2zm8 0a2 2 0 0 1-2-2V19a2 2 0 1 1 4 0v29a2 2 0 0 1-2 2zm8 0a2 2 0 0 1-2-2V27a2 2 0 1 1 4 0v21a2 2 0 0 1-2 2zm8 0a2 2 0 0 1-2-2V36a2 2 0 1 1 4 0v12a2 2 0 0 1-2 2zm8 0a2 2 0 0 1-2-2v-6a2 2 0 1 1 4 0v6a2 2 0 0 1-2 2zm8 0a2 2 0 0 1-2-2V36a2 2 0 1 1 4 0v12a2 2 0 0 1-2 2z"/></svg>