<svg width="61" height="60" viewBox="0 0 61 60" fill="none" xmlns="http://www.w3.org/2000/svg">
<circle cx="31" cy="29" r="21" fill="#DEF1FF"/>
<path fill-rule="evenodd" clip-rule="evenodd" d="M29.5701 0.0346151C30.0418 0.0116256 30.5164 0 30.9937 0C31.471 0 31.9457 0.0116258 32.4174 0.0346156L32.3695 1.03342C31.9137 1.01121 31.4551 0.999969 30.9937 0.999969C30.5324 0.999969 30.0738 1.01121 29.618 1.03342L29.5701 0.0346151ZM23.9427 0.870082C24.8575 0.639775 25.7894 0.453254 26.7361 0.312848L26.8804 1.30217C25.9661 1.43777 25.0663 1.61789 24.183 1.84026L23.9427 0.870082ZM35.2514 0.312849C36.1981 0.453256 37.13 0.639778 38.0448 0.870085L37.8045 1.84026C36.9212 1.61789 36.0213 1.43777 35.107 1.30217L35.2514 0.312849ZM18.5873 2.80223C19.4419 2.39398 20.3195 2.02658 21.2175 1.70255L21.5517 2.64405C20.6846 2.95692 19.8372 3.31167 19.0119 3.7059L18.5873 2.80223ZM13.7114 5.75454C14.4722 5.1847 15.2617 4.65153 16.0773 4.15762L16.588 5.01484C15.8003 5.49186 15.0378 6.00684 14.3028 6.55726L13.7114 5.75454ZM9.49851 9.60648C10.1364 8.89733 10.8083 8.21989 11.5116 7.57677L12.1779 8.3175C11.4985 8.93876 10.8494 9.59319 10.2332 10.2782L9.49851 9.60648ZM6.1073 14.2098C6.59718 13.3875 7.12599 12.5915 7.69117 11.8244L8.48733 12.4207C7.94141 13.1616 7.43064 13.9305 6.95752 14.7247L6.1073 14.2098ZM59.1409 22.14C59.3693 23.0623 59.5543 24.0019 59.6935 24.9564L58.7123 25.1019C58.5778 24.1801 58.3992 23.2728 58.1786 22.3823L59.1409 22.14ZM59.9695 27.8137C59.9923 28.2893 60.0038 28.7679 60.0038 29.2491C60.0038 29.7303 59.9923 30.2089 59.9695 30.6845L58.9789 30.6362C59.0009 30.1767 59.012 29.7142 59.012 29.2491C59.012 28.784 59.0009 28.3215 58.9789 27.862L59.9695 27.8137ZM59.6935 33.5418C59.5543 34.4963 59.3693 35.4359 59.1409 36.3582L58.1786 36.1159C58.3992 35.2254 58.5778 34.3181 58.7123 33.3963L59.6935 33.5418ZM58.3152 39.1059C57.9938 40.0113 57.6294 40.8962 57.2245 41.7578L56.3282 41.3297C56.7192 40.4976 57.0711 39.6432 57.3814 38.7689L58.3152 39.1059ZM55.8802 44.2884C55.3903 45.1107 54.8615 45.9067 54.2963 46.6738L53.5002 46.0775C54.0461 45.3366 54.5568 44.5677 55.03 43.7736L55.8802 44.2884ZM52.489 48.8917C51.8511 49.6009 51.1792 50.2783 50.4758 50.9214L49.8096 50.1807C50.489 49.5595 51.1381 48.905 51.7543 48.22L52.489 48.8917ZM48.2761 52.7437C47.5152 53.3135 46.7258 53.8467 45.9102 54.3406L45.3995 53.4834C46.1872 53.0063 46.9497 52.4914 47.6846 51.941L48.2761 52.7437ZM43.4002 55.696C42.5456 56.1042 41.668 56.4716 40.77 56.7957L40.4358 55.8542C41.3029 55.5413 42.1503 55.1865 42.9756 54.7923L43.4002 55.696ZM38.0447 57.6281C37.13 57.8584 36.1981 58.045 35.2514 58.1854L35.107 57.196C36.0213 57.0604 36.9212 56.8803 37.8045 56.658L38.0447 57.6281Z" fill="#005AEB"/>
<path d="M31.875 58.125C33.2557 58.125 34.375 57.0057 34.375 55.625C34.375 54.2443 33.2557 53.125 31.875 53.125C30.4943 53.125 29.375 54.2443 29.375 55.625C29.375 57.0057 30.4943 58.125 31.875 58.125Z" fill="#78B9EB"/>
<path d="M8.12506 58.125C9.50577 58.125 10.6251 57.0057 10.6251 55.625C10.6251 54.2443 9.50577 53.125 8.12506 53.125C6.74435 53.125 5.62506 54.2443 5.62506 55.625C5.62506 57.0057 6.74435 58.125 8.12506 58.125Z" fill="#78B9EB"/>
<path d="M1.87503 50.625H38.125V53.125H1.87503V50.625Z" fill="#78B9EB"/>
<path d="M25 21.875H15C14.6549 21.875 14.375 22.1548 14.375 22.5V25C14.375 25.3452 14.6549 25.625 15 25.625H25C25.3452 25.625 25.625 25.3452 25.625 25V22.5C25.625 22.1548 25.3452 21.875 25 21.875Z" fill="#78B9EB"/>
<path d="M27.5 35.625H12.5C12.5 36.4538 12.1708 37.2487 11.5847 37.8347C10.9987 38.4208 10.2038 38.75 9.37503 38.75V47.5C10.2038 47.5 10.9987 47.8292 11.5847 48.4153C12.1708 49.0013 12.5 49.7962 12.5 50.625H27.5C27.5 49.7962 27.8293 49.0013 28.4153 48.4153C29.0014 47.8292 29.7962 47.5 30.625 47.5V38.75C29.7962 38.75 29.0014 38.4208 28.4153 37.8347C27.8293 37.2487 27.5 36.4538 27.5 35.625ZM16.25 41.875H13.75V40H16.25V41.875ZM26.25 41.875H23.75V40H26.25V41.875Z" fill="#78B9EB"/>
<path d="M8.12503 56.875C8.81539 56.875 9.37503 56.3154 9.37503 55.625C9.37503 54.9346 8.81539 54.375 8.12503 54.375C7.43467 54.375 6.87503 54.9346 6.87503 55.625C6.87503 56.3154 7.43467 56.875 8.12503 56.875Z" fill="#006DF0"/>
<path d="M31.875 56.875C32.5654 56.875 33.125 56.3154 33.125 55.625C33.125 54.9346 32.5654 54.375 31.875 54.375C31.1847 54.375 30.625 54.9346 30.625 55.625C30.625 56.3154 31.1847 56.875 31.875 56.875Z" fill="#006DF0"/>
<path d="M38.125 50H35.625V27.5C35.6237 26.3401 35.1623 25.2281 34.3422 24.4079C33.522 23.5877 32.4099 23.1263 31.25 23.125H26.25V22.5C26.249 22.1688 26.117 21.8514 25.8828 21.6172C25.6486 21.383 25.3312 21.251 25 21.25H15C14.6688 21.251 14.3514 21.383 14.1172 21.6172C13.883 21.8514 13.751 22.1688 13.75 22.5V23.125H8.75003C7.59011 23.1263 6.47809 23.5877 5.6579 24.4079C4.83772 25.2281 4.37635 26.3401 4.37503 27.5V50H1.87503C1.70927 50 1.5503 50.0658 1.43309 50.1831C1.31588 50.3003 1.25003 50.4592 1.25003 50.625V53.125C1.25003 53.2908 1.31588 53.4497 1.43309 53.5669C1.5503 53.6842 1.70927 53.75 1.87503 53.75H5.64378C5.22826 54.2869 5.00193 54.9461 5.00003 55.625C5.00003 56.4538 5.32927 57.2487 5.91532 57.8347C6.50137 58.4208 7.29623 58.75 8.12503 58.75C8.95383 58.75 9.74869 58.4208 10.3347 57.8347C10.9208 57.2487 11.25 56.4538 11.25 55.625C11.2481 54.9461 11.0218 54.2869 10.6063 53.75H29.3938C28.9783 54.2869 28.7519 54.9461 28.75 55.625C28.75 56.4538 29.0793 57.2487 29.6653 57.8347C30.2514 58.4208 31.0462 58.75 31.875 58.75C32.7038 58.75 33.4987 58.4208 34.0847 57.8347C34.6708 57.2487 35 56.4538 35 55.625C34.9981 54.9461 34.7718 54.2869 34.3563 53.75H38.125C38.2908 53.75 38.4498 53.6842 38.567 53.5669C38.6842 53.4497 38.75 53.2908 38.75 53.125V50.625C38.75 50.4592 38.6842 50.3003 38.567 50.1831C38.4498 50.0658 38.2908 50 38.125 50ZM15 22.5H25V25H15V22.5ZM5.62503 27.5C5.62503 26.6712 5.95427 25.8763 6.54032 25.2903C7.12637 24.7042 7.92123 24.375 8.75003 24.375H13.75V25C13.751 25.3312 13.883 25.6486 14.1172 25.8828C14.3514 26.117 14.6688 26.249 15 26.25H25C25.3312 26.249 25.6486 26.117 25.8828 25.8828C26.117 25.6486 26.249 25.3312 26.25 25V24.375H31.25C32.0788 24.375 32.8737 24.7042 33.4597 25.2903C34.0458 25.8763 34.375 26.6712 34.375 27.5V50H31.25V35.625C31.25 35.4592 31.1842 35.3003 31.067 35.1831C30.9498 35.0658 30.7908 35 30.625 35H24.375V33.125C24.3735 32.6282 24.1755 32.1521 23.8242 31.8008C23.4729 31.4495 22.9969 31.2515 22.5 31.25H17.5C17.0032 31.2515 16.5272 31.4495 16.1758 31.8008C15.8245 32.1521 15.6265 32.6282 15.625 33.125V35H9.37503C9.20927 35 9.0503 35.0658 8.93309 35.1831C8.81588 35.3003 8.75003 35.4592 8.75003 35.625V50H5.62503V27.5ZM26.9313 50H13.0688C12.9392 49.2332 12.5741 48.5257 12.0242 47.9758C11.4743 47.4259 10.7669 47.0608 10 46.9312V39.3188C10.7669 39.1892 11.4743 38.8241 12.0242 38.2742C12.5741 37.7243 12.9392 37.0168 13.0688 36.25H14.35L14.3688 39.375H13.75C13.5843 39.375 13.4253 39.4408 13.3081 39.5581C13.1909 39.6753 13.125 39.8342 13.125 40V41.875C13.125 42.0408 13.1909 42.1997 13.3081 42.3169C13.4253 42.4342 13.5843 42.5 13.75 42.5H14.375V43.125H15.625V42.5H16.25C16.4158 42.5 16.5748 42.4342 16.692 42.3169C16.8092 42.1997 16.875 42.0408 16.875 41.875V40C16.875 39.8342 16.8092 39.6753 16.692 39.5581C16.5748 39.4408 16.4158 39.375 16.25 39.375H15.6188L15.6 36.25H24.35L24.3688 39.375H23.75C23.5843 39.375 23.4253 39.4408 23.3081 39.5581C23.1909 39.6753 23.125 39.8342 23.125 40V41.875C23.125 42.0408 23.1909 42.1997 23.3081 42.3169C23.4253 42.4342 23.5843 42.5 23.75 42.5H24.375V43.125H25.625V42.5H26.25C26.4158 42.5 26.5748 42.4342 26.692 42.3169C26.8092 42.1997 26.875 42.0408 26.875 41.875V40C26.875 39.8342 26.8092 39.6753 26.692 39.5581C26.5748 39.4408 26.4158 39.375 26.25 39.375H25.6188L25.6 36.25H26.9313C27.0608 37.0168 27.4259 37.7243 27.9758 38.2742C28.5257 38.8241 29.2332 39.1892 30 39.3188V46.9312C29.2332 47.0608 28.5257 47.4259 27.9758 47.9758C27.4259 48.5257 27.0608 49.2332 26.9313 50ZM30 48.2125V50H28.2125C28.3258 49.5706 28.5509 49.1789 28.8649 48.8649C29.1789 48.5508 29.5706 48.3257 30 48.2125ZM11.7875 50H10V48.2125C10.4294 48.3257 10.8211 48.5508 11.1352 48.8649C11.4492 49.1789 11.6743 49.5706 11.7875 50ZM10 38.0375V36.25H11.7875C11.6743 36.6794 11.4492 37.0711 11.1352 37.3851C10.8211 37.6992 10.4294 37.9243 10 38.0375ZM14.375 41.25V40.625H15.625V41.25H14.375ZM16.875 35V33.125C16.875 32.9592 16.9409 32.8003 17.0581 32.6831C17.1753 32.5658 17.3343 32.5 17.5 32.5H22.5C22.6658 32.5 22.8248 32.5658 22.942 32.6831C23.0592 32.8003 23.125 32.9592 23.125 33.125V35H16.875ZM24.375 41.25V40.625H25.625V41.25H24.375ZM28.2125 36.25H30V38.0375C29.5706 37.9243 29.1789 37.6992 28.8649 37.3851C28.5509 37.0711 28.3258 36.6794 28.2125 36.25ZM8.12503 57.5C7.75419 57.5 7.39168 57.39 7.08334 57.184C6.77499 56.978 6.53467 56.6851 6.39276 56.3425C6.25084 55.9999 6.21371 55.6229 6.28606 55.2592C6.35841 54.8955 6.53698 54.5614 6.7992 54.2992C7.06143 54.037 7.39552 53.8584 7.75924 53.786C8.12295 53.7137 8.49995 53.7508 8.84256 53.8927C9.18517 54.0346 9.47801 54.275 9.68404 54.5833C9.89006 54.8916 10 55.2542 10 55.625C9.99855 56.1218 9.80053 56.5979 9.44922 56.9492C9.09791 57.3005 8.62186 57.4985 8.12503 57.5ZM31.875 57.5C31.5042 57.5 31.1417 57.39 30.8333 57.184C30.525 56.978 30.2847 56.6851 30.1428 56.3425C30.0008 55.9999 29.9637 55.6229 30.0361 55.2592C30.1084 54.8955 30.287 54.5614 30.5492 54.2992C30.8114 54.037 31.1455 53.8584 31.5092 53.786C31.873 53.7137 32.2499 53.7508 32.5926 53.8927C32.9352 54.0346 33.228 54.275 33.434 54.5833C33.6401 54.8916 33.75 55.2542 33.75 55.625C33.7485 56.1218 33.5505 56.5979 33.1992 56.9492C32.8479 57.3005 32.3719 57.4985 31.875 57.5ZM37.5 52.5H2.50003V51.25H37.5V52.5Z" fill="#006DF0"/>
<g clip-path="url(#clip0)">
<path d="M44.0162 9.38727H54.7521C54.9717 9.38727 55.1498 9.20923 55.1498 8.98964V7.79676C55.1498 7.35758 54.7937 7.00151 54.3545 7.00151H51.5711L49.6513 3.02524H48.3901L49.1854 7.00151H44.8115L44.4139 4.61575H43.221V8.59201C43.221 9.03119 43.5769 9.38727 44.0162 9.38727Z" fill="#BDDBFF"/>
<path d="M36.3976 14.1627L40.3739 21.0497L43.8174 19.0616L39.8412 12.1746L36.3976 14.1627Z" fill="#BDDBFF"/>
<path d="M44.0162 9.78493H54.7521C55.1913 9.78493 55.5474 9.42885 55.5474 8.98968V7.7968C55.5474 7.13804 55.0133 6.60392 54.3545 6.60392H51.8204L50.0092 2.85229C49.9428 2.71502 49.8037 2.62766 49.6513 2.62766H48.3901C48.2707 2.62766 48.1575 2.68124 48.082 2.77366C48.0065 2.86627 47.9766 2.98781 48.0004 3.10469L48.7002 6.60392H45.1481L44.8058 4.55055C44.774 4.35873 44.6082 4.21816 44.4138 4.21816H43.221C43.0014 4.21816 42.8233 4.3962 42.8233 4.61579V8.59205C42.8233 9.25081 43.3573 9.78493 44.0162 9.78493ZM43.6186 5.01341H44.077L44.4193 7.06678C44.4511 7.25841 44.6171 7.39898 44.8115 7.39917H49.1854C49.3048 7.39917 49.4178 7.34559 49.4933 7.25297C49.5688 7.16056 49.5989 7.03902 49.575 6.92194L48.8751 3.42291H49.4017L51.2131 7.17454C51.2795 7.3118 51.4185 7.39898 51.5711 7.39917H54.3545C54.5741 7.39917 54.7521 7.57721 54.7521 7.7968V8.98968H44.0162C43.7966 8.98968 43.6186 8.81164 43.6186 8.59205V5.01341Z" fill="#0048BC"/>
<path d="M59.532 9.77926C59.2349 9.47794 58.8294 9.30883 58.4063 9.3096C57.9838 9.30863 57.5788 9.47735 57.2821 9.7781L52.618 14.437L52.6089 14.4457C52.8438 13.953 52.8098 13.3742 52.5184 12.9125C52.2272 12.4506 51.7194 12.1707 51.1735 12.1707H42.8233C42.7177 12.1707 42.6168 12.2126 42.5422 12.2871L41.162 13.6668L40.1854 11.9757C40.0757 11.7856 39.8324 11.7204 39.6423 11.8303L36.1988 13.8184C36.0085 13.9281 35.9435 14.1714 36.0532 14.3615L40.0295 21.2485C40.1394 21.4386 40.3824 21.5038 40.5727 21.3939L44.0162 19.4058C44.2063 19.2961 44.2715 19.0528 44.1616 18.8627L43.512 17.7374H52.9985C53.5257 17.7363 54.031 17.5272 54.405 17.1557L59.5302 12.0262C59.8308 11.7297 60.0001 11.3249 60.0001 10.9028C60.0001 10.4805 59.8308 10.0759 59.5302 9.77926H59.532ZM40.5195 20.5065L36.9409 14.3083L39.6955 12.7178L43.2742 18.9159L40.5195 20.5065ZM58.9668 11.4639L53.8415 16.5935C53.6173 16.816 53.3144 16.9412 52.9985 16.9422H43.053L41.5743 14.3793L42.9878 12.9659H51.1735C51.6127 12.9659 51.9687 13.322 51.9687 13.7612C51.9687 14.2003 51.6127 14.5564 51.1735 14.5564H46.7996V15.3517H52.3345C52.652 15.3523 52.9566 15.2259 53.1803 15.0004L57.8456 10.3415C57.9933 10.1913 58.1954 10.1068 58.4063 10.107C58.7284 10.1058 59.019 10.2996 59.1421 10.5972C59.265 10.8951 59.1959 11.2376 58.9668 11.4639Z" fill="#0048BC"/>
</g>
<defs>
<clipPath id="clip0">
<rect width="24" height="24" fill="white" transform="translate(36)"/>
</clipPath>
</defs>
</svg>
