<svg width="61" height="60" viewBox="0 0 61 60" fill="none" xmlns="http://www.w3.org/2000/svg">
<circle cx="31" cy="29" r="21" fill="#DEF1FF"/>
<path fill-rule="evenodd" clip-rule="evenodd" d="M29.5701 0.0346151C30.0418 0.0116256 30.5164 0 30.9937 0C31.471 0 31.9456 0.0116258 32.4174 0.0346156L32.3695 1.03342C31.9137 1.01121 31.455 0.999969 30.9937 0.999969C30.5324 0.999969 30.0737 1.01121 29.6179 1.03342L29.5701 0.0346151ZM23.9427 0.870082C24.8575 0.639775 25.7894 0.453254 26.7361 0.312848L26.8804 1.30217C25.9661 1.43777 25.0662 1.61789 24.183 1.84026L23.9427 0.870082ZM35.2514 0.312849C36.1981 0.453256 37.13 0.639778 38.0447 0.870085L37.8044 1.84026C36.9212 1.61789 36.0213 1.43777 35.107 1.30217L35.2514 0.312849ZM18.5872 2.80223C19.4418 2.39398 20.3194 2.02658 21.2175 1.70255L21.5517 2.64405C20.6845 2.95692 19.8371 3.31167 19.0119 3.7059L18.5872 2.80223ZM13.7114 5.75454C14.4722 5.1847 15.2617 4.65153 16.0773 4.15762L16.588 5.01484C15.8003 5.49186 15.0377 6.00684 14.3028 6.55726L13.7114 5.75454ZM9.49848 9.60648C10.1363 8.89733 10.8083 8.21989 11.5116 7.57677L12.1779 8.3175C11.4984 8.93876 10.8493 9.59319 10.2332 10.2782L9.49848 9.60648ZM6.10727 14.2098C6.59715 13.3875 7.12596 12.5915 7.69114 11.8244L8.4873 12.4207C7.94138 13.1616 7.43061 13.9305 6.95749 14.7247L6.10727 14.2098ZM59.1408 22.14C59.3693 23.0623 59.5543 24.0019 59.6935 24.9564L58.7123 25.1019C58.5778 24.1801 58.3991 23.2728 58.1786 22.3823L59.1408 22.14ZM59.9695 27.8137C59.9923 28.2893 60.0038 28.7679 60.0038 29.2491C60.0038 29.7303 59.9923 30.2089 59.9695 30.6845L58.9788 30.6362C59.0009 30.1767 59.012 29.7142 59.012 29.2491C59.012 28.784 59.0009 28.3215 58.9788 27.862L59.9695 27.8137ZM59.6935 33.5418C59.5542 34.4963 59.3693 35.4359 59.1408 36.3582L58.1786 36.1159C58.3991 35.2254 58.5778 34.3181 58.7123 33.3963L59.6935 33.5418ZM58.3152 39.1059C57.9938 40.0113 57.6294 40.8962 57.2245 41.7578L56.3282 41.3297C56.7192 40.4976 57.071 39.6432 57.3814 38.7689L58.3152 39.1059ZM55.8802 44.2884C55.3903 45.1107 54.8615 45.9067 54.2963 46.6738L53.5001 46.0775C54.046 45.3366 54.5568 44.5677 55.0299 43.7736L55.8802 44.2884ZM52.4889 48.8917C51.8511 49.6009 51.1792 50.2783 50.4758 50.9214L49.8095 50.1807C50.489 49.5595 51.1381 48.905 51.7543 48.22L52.4889 48.8917ZM48.276 52.7437C47.5152 53.3135 46.7257 53.8467 45.9101 54.3406L45.3995 53.4834C46.1872 53.0063 46.9497 52.4914 47.6846 51.941L48.276 52.7437ZM43.4002 55.696C42.5456 56.1042 41.668 56.4716 40.7699 56.7957L40.4357 55.8542C41.3029 55.5413 42.1503 55.1865 42.9755 54.7923L43.4002 55.696ZM38.0447 57.6281C37.13 57.8584 36.1981 58.045 35.2513 58.1854L35.107 57.196C36.0213 57.0604 36.9212 56.8803 37.8044 56.658L38.0447 57.6281Z" fill="#005AEB"/>
<g clip-path="url(#clip0)">
<path d="M53.07 10.1437C52.5884 9.62301 51.9099 9.32819 51.2 9.33123C49.7824 9.33123 48.6333 10.478 48.6333 11.8928C48.6333 13.3075 49.7824 14.4543 51.2 14.4543C52.6176 14.4543 53.7667 13.3075 53.7667 11.8928C53.7694 11.2418 53.5198 10.615 53.07 10.1437Z" fill="#9BC9FF"/>
<path d="M50.1 6.7697V7.50156H46.4333V6.7697C46.4333 5.96136 47.09 5.30597 47.9 5.30597H48.6333C49.4433 5.30597 50.1 5.96136 50.1 6.7697Z" fill="#9BC9FF"/>
<path d="M49.3666 4.20821C49.3666 4.81446 48.8741 5.30601 48.2666 5.30601C47.6592 5.30601 47.1666 4.81446 47.1666 4.20821C47.1666 3.60196 47.6592 3.11041 48.2666 3.11041C48.8741 3.11041 49.3666 3.60196 49.3666 4.20821Z" fill="#9BC9FF"/>
<path d="M53.7667 2.0126L53.0333 1.28073V3.84226H55.6V21.407H41.6667V22.5048H57.0667V2.0126H53.7667Z" fill="#9BC9FF"/>
<path d="M55.9667 3.69073L53.1852 0.914795H40.5667V21.7729H55.9667V3.69073ZM53.4 2.16411L54.7148 3.47632H53.4V2.16411ZM41.3 21.0411V1.64666H52.6667V4.20818H55.2333V21.0411H41.3Z" fill="#006DF0"/>
<path d="M55.2333 1.64667V2.37853H56.7V22.1389H41.6667V22.8707H57.4333V1.64667H55.2333Z" fill="#006DF0"/>
<path d="M42.4 10.0631H44.6V10.7949H42.4V10.0631Z" fill="#006DF0"/>
<path d="M45.3333 10.0631H47.1667V10.7949H45.3333V10.0631Z" fill="#006DF0"/>
<path d="M42.4 11.5268H47.1666V12.2587H42.4V11.5268Z" fill="#006DF0"/>
<path d="M42.4 12.9905H43.5V13.7224H42.4V12.9905Z" fill="#006DF0"/>
<path d="M44.2333 12.9905H47.1667V13.7224H44.2333V12.9905Z" fill="#006DF0"/>
<path d="M49 17.3817H53.0333V18.1136H49V17.3817Z" fill="#006DF0"/>
<path d="M43.5 8.59937H46.0667V9.33123H43.5V8.59937Z" fill="#006DF0"/>
<path d="M50.4667 6.7697C50.4649 6.06035 50.0516 5.41604 49.4069 5.11711C49.6166 4.86035 49.7319 4.53944 49.7333 4.20817C49.7333 3.39984 49.0766 2.74445 48.2667 2.74445C47.4567 2.74445 46.8 3.39984 46.8 4.20817C46.8014 4.53944 46.9167 4.86035 47.1264 5.11711C46.4817 5.41604 46.0684 6.06035 46.0667 6.7697V7.8675H50.4667V6.7697ZM48.2667 3.47631C48.6716 3.47631 49 3.80401 49 4.20817C49 4.61234 48.6716 4.94004 48.2667 4.94004C47.8617 4.94004 47.5333 4.61234 47.5333 4.20817C47.5333 3.80401 47.8617 3.47631 48.2667 3.47631ZM49.7333 7.13563H46.8V6.7697C46.8 6.16345 47.2925 5.6719 47.9 5.6719H48.6333C49.2408 5.6719 49.7333 6.16345 49.7333 6.7697V7.13563Z" fill="#006DF0"/>
<path d="M53.8609 8.72052L53.048 9.62391C51.8365 8.63225 50.061 8.75197 48.9941 9.89729C47.9271 11.0424 47.9366 12.8183 49.0156 13.9522C50.0948 15.0861 51.8714 15.187 53.0724 14.1825C54.2732 13.178 54.4845 11.4146 53.5544 10.156L54.4059 9.21188L53.8609 8.72052ZM53.4 11.8928C53.4031 12.9194 52.6948 13.8121 51.6927 14.0446C50.6907 14.277 49.6605 13.7876 49.2095 12.8648C48.7585 11.9421 49.0061 10.8307 49.8066 10.1857C50.6069 9.54047 51.7477 9.53297 52.5568 10.1675L50.8201 12.0929L49.9933 11.2681L49.4748 11.7856L50.848 13.1564L53.0523 10.7119C53.2795 11.0641 53.4002 11.4739 53.4 11.8928Z" fill="#006DF0"/>
</g>
<g clip-path="url(#clip1)">
<path d="M4.27777 49.1506H32.3889C34.4138 49.1506 36.0555 47.5314 36.0555 45.5342H0.611099C0.611099 47.5314 2.25286 49.1506 4.27777 49.1506Z" fill="#BDDBFF"/>
<path d="M18.3333 35.8904V34.6849L13.4444 33.4794V31.0685C13.4444 30.4027 12.8972 29.863 12.2222 29.863C11.5472 29.863 11 30.4027 11 31.0685V33.4794L6.11108 34.6849V35.8904H11V40.1096L7.94442 40.7123V41.9178H16.5V40.7123L13.4444 40.1096V35.8904H18.3333Z" fill="#BDDBFF"/>
<path d="M13.4444 55.178H23.2222L22 49.1506H14.6667L13.4444 55.178Z" fill="#BDDBFF"/>
<path d="M11 55.178V57.589H25.6666V55.178H11Z" fill="#BDDBFF"/>
<path d="M6.1111 36.4931H10.3889V39.6154L7.82209 40.1216C7.53772 40.179 7.33332 40.4259 7.33332 40.7123V41.9178C7.33332 42.2506 7.60695 42.5205 7.94443 42.5205H16.5C16.8375 42.5205 17.1111 42.2506 17.1111 41.9178V40.7123C17.1111 40.4259 16.9067 40.179 16.6223 40.1216L14.0555 39.6154V36.4931H18.3333C18.6708 36.4931 18.9444 36.2232 18.9444 35.8904V34.6849C18.9444 34.4085 18.7538 34.1675 18.4819 34.1001L14.0555 33.0088V31.0684C14.0555 30.0699 13.2347 29.2602 12.2222 29.2602C11.2098 29.2602 10.3889 30.0699 10.3889 31.0684V33.0088L5.9625 34.1001C5.69066 34.1675 5.49998 34.4085 5.49998 34.6849V35.8904C5.49998 36.2232 5.77361 36.4931 6.1111 36.4931ZM8.55554 41.2064L10.5906 40.805L10.7628 41.315H8.55554V41.2064ZM15.8889 41.315H13.6817L13.8538 40.805L15.8889 41.2064V41.315ZM17.7222 35.1555V35.2876H14.0555V34.2514L17.7222 35.1555ZM11.6111 31.0684C11.6111 30.7356 11.8847 30.4657 12.2222 30.4657C12.5597 30.4657 12.8333 30.7356 12.8333 31.0684V40.0112L12.3926 41.315H12.0518L11.6111 40.0112V31.0684ZM6.72221 35.1555L10.3889 34.2514V35.2876H6.72221V35.1555Z" fill="#0048BC"/>
<path d="M32.3889 25.6438H4.27778C1.91629 25.6464 0.00268554 27.5338 0 29.863V45.5342C0.00268554 47.8633 1.91629 49.7507 4.27778 49.7534H13.921L12.9434 54.5753H11C10.6625 54.5753 10.3889 54.8452 10.3889 55.178V57.589C10.3889 57.9219 10.6625 58.1917 11 58.1917H25.6667C26.0041 58.1917 26.2778 57.9219 26.2778 57.589V55.178C26.2778 54.8452 26.0041 54.5753 25.6667 54.5753H23.7232L22.7457 49.7534H32.3889C34.7504 49.7507 36.664 47.8633 36.6667 45.5342V29.863C36.664 27.5338 34.7504 25.6464 32.3889 25.6438ZM4.27778 26.8493H32.3889C34.0757 26.8513 35.4424 28.1993 35.4444 29.863V44.9315H1.22222V29.863C1.22431 28.1993 2.59096 26.8513 4.27778 26.8493ZM25.0556 56.9863H11.6111V55.7808H25.0556V56.9863ZM22.4765 54.5753H14.1901L15.1677 49.7534H21.499L22.4765 54.5753ZM32.3889 48.5479H4.27778C2.82639 48.5461 1.57582 47.5393 1.28339 46.1369H35.3833C35.0908 47.5393 33.8403 48.5461 32.3889 48.5479Z" fill="#0048BC"/>
<path d="M32.3399 47.1135C32.3265 47.0749 32.308 47.0384 32.285 47.0049L32.2116 46.9145C32.1531 46.8601 32.0848 46.8171 32.0099 46.788C31.7825 46.6935 31.5197 46.7436 31.3439 46.9145C31.1676 47.087 31.1147 47.3475 31.2099 47.5735C31.3051 47.7998 31.5295 47.9467 31.7778 47.9452C31.8577 47.9443 31.9365 47.9278 32.0099 47.8969C32.0848 47.8678 32.1531 47.8248 32.2116 47.7704C32.3232 47.6547 32.3865 47.502 32.3889 47.3425C32.3877 47.3039 32.3838 47.2657 32.3766 47.228C32.371 47.188 32.3587 47.1494 32.3399 47.1135Z" fill="#0048BC"/>
<path d="M22.6111 30.4657H25.0556V31.6712H22.6111V30.4657Z" fill="#0048BC"/>
<path d="M26.2778 30.4657H31.1667V31.6712H26.2778V30.4657Z" fill="#0048BC"/>
<path d="M22.6111 32.8767H27.5V34.0822H22.6111V32.8767Z" fill="#0048BC"/>
<path d="M28.7222 32.8767H31.1666V34.0822H28.7222V32.8767Z" fill="#0048BC"/>
<path d="M22.6111 35.2876H31.1667V36.4931H22.6111V35.2876Z" fill="#0048BC"/>
<path d="M22.6111 37.6986H23.8333V38.9041H22.6111V37.6986Z" fill="#0048BC"/>
<path d="M25.0555 37.6986H31.1666V38.9041H25.0555V37.6986Z" fill="#0048BC"/>
<path d="M22.6111 40.1096H31.1667V41.315H22.6111V40.1096Z" fill="#0048BC"/>
</g>
<defs>
<clipPath id="clip0">
<rect width="22" height="21.9559" fill="white" transform="translate(38 0.914795)"/>
</clipPath>
<clipPath id="clip1">
<rect width="36.6667" height="36.1644" fill="white" transform="translate(0 23.8356)"/>
</clipPath>
</defs>
</svg>
