<svg width="61" height="60" viewBox="0 0 61 60" fill="none" xmlns="http://www.w3.org/2000/svg">
<circle cx="31" cy="29" r="21" fill="#DEF1FF"/>
<path fill-rule="evenodd" clip-rule="evenodd" d="M29.5701 0.0346151C30.0418 0.0116256 30.5164 0 30.9937 0C31.471 0 31.9457 0.0116258 32.4174 0.0346156L32.3695 1.03342C31.9137 1.01121 31.4551 0.999969 30.9937 0.999969C30.5324 0.999969 30.0738 1.01121 29.618 1.03342L29.5701 0.0346151ZM23.9427 0.870082C24.8575 0.639775 25.7894 0.453254 26.7361 0.312848L26.8804 1.30217C25.9661 1.43777 25.0663 1.61789 24.183 1.84026L23.9427 0.870082ZM35.2514 0.312849C36.1981 0.453256 37.13 0.639778 38.0448 0.870085L37.8045 1.84026C36.9212 1.61789 36.0213 1.43777 35.107 1.30217L35.2514 0.312849ZM18.5873 2.80223C19.4419 2.39398 20.3195 2.02658 21.2175 1.70255L21.5517 2.64405C20.6846 2.95692 19.8372 3.31167 19.0119 3.7059L18.5873 2.80223ZM13.7114 5.75454C14.4722 5.1847 15.2617 4.65153 16.0773 4.15762L16.588 5.01484C15.8003 5.49186 15.0378 6.00684 14.3028 6.55726L13.7114 5.75454ZM9.49851 9.60648C10.1364 8.89733 10.8083 8.21989 11.5116 7.57677L12.1779 8.3175C11.4985 8.93876 10.8494 9.59319 10.2332 10.2782L9.49851 9.60648ZM6.1073 14.2098C6.59718 13.3875 7.12599 12.5915 7.69117 11.8244L8.48733 12.4207C7.94141 13.1616 7.43064 13.9305 6.95752 14.7247L6.1073 14.2098ZM59.1409 22.14C59.3693 23.0623 59.5543 24.0019 59.6935 24.9564L58.7123 25.1019C58.5778 24.1801 58.3992 23.2728 58.1786 22.3823L59.1409 22.14ZM59.9695 27.8137C59.9923 28.2893 60.0038 28.7679 60.0038 29.2491C60.0038 29.7303 59.9923 30.2089 59.9695 30.6845L58.9789 30.6362C59.0009 30.1767 59.012 29.7142 59.012 29.2491C59.012 28.784 59.0009 28.3215 58.9789 27.862L59.9695 27.8137ZM59.6935 33.5418C59.5543 34.4963 59.3693 35.4359 59.1409 36.3582L58.1786 36.1159C58.3992 35.2254 58.5778 34.3181 58.7123 33.3963L59.6935 33.5418ZM58.3152 39.1059C57.9938 40.0113 57.6294 40.8962 57.2245 41.7578L56.3282 41.3297C56.7192 40.4976 57.0711 39.6432 57.3814 38.7689L58.3152 39.1059ZM55.8802 44.2884C55.3903 45.1107 54.8615 45.9067 54.2963 46.6738L53.5002 46.0775C54.0461 45.3366 54.5568 44.5677 55.03 43.7736L55.8802 44.2884ZM52.489 48.8917C51.8511 49.6009 51.1792 50.2783 50.4758 50.9214L49.8096 50.1807C50.489 49.5595 51.1381 48.905 51.7543 48.22L52.489 48.8917ZM48.2761 52.7437C47.5152 53.3135 46.7258 53.8467 45.9102 54.3406L45.3995 53.4834C46.1872 53.0063 46.9497 52.4914 47.6846 51.941L48.2761 52.7437ZM43.4002 55.696C42.5456 56.1042 41.668 56.4716 40.77 56.7957L40.4358 55.8542C41.3029 55.5413 42.1503 55.1865 42.9756 54.7923L43.4002 55.696ZM38.0447 57.6281C37.13 57.8584 36.1981 58.045 35.2514 58.1854L35.107 57.196C36.0213 57.0604 36.9212 56.8803 37.8045 56.658L38.0447 57.6281Z" fill="#005AEB"/>
<path d="M31.875 23.75V25H8.12502V23.75C8.12502 23.087 8.38841 22.4511 8.85725 21.9822C9.32609 21.5134 9.96197 21.25 10.625 21.25H29.375C30.0381 21.25 30.6739 21.5134 31.1428 21.9822C31.6116 22.4511 31.875 23.087 31.875 23.75Z" fill="#78B9EB"/>
<path d="M16.4062 40.85C16.7717 41.4378 16.9317 42.1304 16.861 42.819C16.7904 43.5075 16.4931 44.1532 16.0159 44.6545C15.5387 45.1559 14.9085 45.4846 14.2242 45.5892C13.54 45.6937 12.8404 45.5681 12.2352 45.232C11.6301 44.896 11.1536 44.3686 10.8806 43.7325C10.6077 43.0964 10.5536 42.3877 10.7269 41.7176C10.9002 41.0474 11.2911 40.4538 11.8382 40.0298C12.3854 39.6058 13.0578 39.3755 13.75 39.375C14.2811 39.3774 14.803 39.5139 15.2673 39.7717C15.7317 40.0295 16.1234 40.4004 16.4062 40.85Z" fill="#78B9EB"/>
<path d="M8.12502 51.25V55C8.12502 55.663 8.38841 56.2989 8.85725 56.7678C9.32609 57.2366 9.96197 57.5 10.625 57.5H29.375C30.0381 57.5 30.6739 57.2366 31.1428 56.7678C31.6116 56.2989 31.875 55.663 31.875 55V51.25H8.12502ZM20 55.625C19.7528 55.625 19.5111 55.5517 19.3056 55.4143C19.1 55.277 18.9398 55.0818 18.8452 54.8534C18.7506 54.6249 18.7258 54.3736 18.774 54.1311C18.8223 53.8887 18.9413 53.6659 19.1161 53.4911C19.2909 53.3163 19.5137 53.1972 19.7562 53.149C19.9986 53.1008 20.25 53.1255 20.4784 53.2202C20.7068 53.3148 20.902 53.475 21.0394 53.6805C21.1767 53.8861 21.25 54.1278 21.25 54.375C21.249 54.7062 21.117 55.0236 20.8828 55.2578C20.6486 55.492 20.3312 55.624 20 55.625Z" fill="#78B9EB"/>
<path d="M28.125 30.3125C28.125 31.2242 27.7629 32.0985 27.1182 32.7432C26.4736 33.3878 25.5992 33.75 24.6875 33.75H15.3125C14.4008 33.75 13.5265 33.3878 12.8819 32.7432C12.2372 32.0985 11.875 31.2242 11.875 30.3125C11.875 29.4008 12.2372 28.5265 12.8819 27.8818C13.5265 27.2372 14.4008 26.875 15.3125 26.875H24.6875C25.5992 26.875 26.4736 27.2372 27.1182 27.8818C27.7629 28.5265 28.125 29.4008 28.125 30.3125Z" fill="#78B9EB"/>
<path d="M36.25 37.5V38.75H20V36.25H35C35.3312 36.251 35.6486 36.383 35.8828 36.6172C36.117 36.8514 36.249 37.1688 36.25 37.5Z" fill="#78B9EB"/>
<path d="M20 41.25V48.75H35C35.3312 48.749 35.6486 48.617 35.8828 48.3828C36.117 48.1486 36.249 47.8312 36.25 47.5V41.25H20ZM32.5 46.25C32.322 46.2494 32.1462 46.2105 31.9844 46.1361C31.8227 46.0617 31.6788 45.9535 31.5625 45.8187C31.3956 46.0113 31.1738 46.1482 30.9269 46.2112C30.68 46.2742 30.4198 46.2602 30.181 46.1711C29.9423 46.0821 29.7365 45.9222 29.5912 45.7129C29.4458 45.5035 29.368 45.2548 29.368 45C29.368 44.7452 29.4458 44.4965 29.5912 44.2871C29.7365 44.0778 29.9423 43.9179 30.181 43.8289C30.4198 43.7398 30.68 43.7258 30.9269 43.7888C31.1738 43.8518 31.3956 43.9887 31.5625 44.1812C31.6998 44.0229 31.8747 43.9015 32.0712 43.8284C32.2677 43.7554 32.4794 43.7329 32.6868 43.763C32.8943 43.7932 33.0908 43.875 33.2584 44.001C33.4259 44.127 33.559 44.2931 33.6456 44.4841C33.7321 44.675 33.7692 44.8846 33.7535 45.0937C33.7378 45.3027 33.6698 45.5044 33.5557 45.6803C33.4416 45.8562 33.2851 46.0005 33.1007 46.1001C32.9162 46.1996 32.7096 46.2512 32.5 46.25Z" fill="#78B9EB"/>
<path d="M35 35.625H32.5V23.75C32.499 22.9215 32.1694 22.1272 31.5836 21.5414C30.9978 20.9555 30.2035 20.626 29.375 20.625H10.625C9.79649 20.626 9.00221 20.9555 8.41637 21.5414C7.83054 22.1272 7.50098 22.9215 7.49998 23.75V55C7.50098 55.8285 7.83054 56.6227 8.41637 57.2086C9.00221 57.7944 9.79649 58.124 10.625 58.125H29.375C30.2035 58.124 30.9978 57.7944 31.5836 57.2086C32.1694 56.6227 32.499 55.8285 32.5 55V49.375H35C35.4973 49.375 35.9742 49.1774 36.3258 48.8258C36.6774 48.4742 36.875 47.9972 36.875 47.5V37.5C36.875 37.0027 36.6774 36.5258 36.3258 36.1741C35.9742 35.8225 35.4973 35.625 35 35.625ZM35.625 37.5V38.125H20.625V36.875H35C35.1657 36.875 35.3247 36.9408 35.4419 37.058C35.5591 37.1752 35.625 37.3342 35.625 37.5ZM20.625 39.375H35.625V40.625H20.625V39.375ZM10.625 21.875H29.375C29.8723 21.875 30.3492 22.0725 30.7008 22.4241C31.0524 22.7758 31.25 23.2527 31.25 23.75V24.375H8.74998V23.75C8.74998 23.2527 8.94753 22.7758 9.29916 22.4241C9.65079 22.0725 10.1277 21.875 10.625 21.875ZM29.375 56.875H10.625C10.1277 56.875 9.65079 56.6774 9.29916 56.3258C8.94753 55.9742 8.74998 55.4972 8.74998 55V51.875H31.25V55C31.25 55.4972 31.0524 55.9742 30.7008 56.3258C30.3492 56.6774 29.8723 56.875 29.375 56.875ZM31.25 50.625H8.74998V25.625H31.25V35.625H20.625V35H19.375V50H20.625V49.375H31.25V50.625ZM35 48.125H20.625V41.875H35.625V47.5C35.625 47.6657 35.5591 47.8247 35.4419 47.9419C35.3247 48.0591 35.1657 48.125 35 48.125Z" fill="#006DF0"/>
<path d="M32.5 43.125C32.1704 43.1255 31.8469 43.2135 31.5625 43.38C31.2775 43.2139 30.9539 43.126 30.6241 43.125C30.2943 43.124 29.9701 43.21 29.6842 43.3743C29.3983 43.5386 29.1607 43.7754 28.9956 44.0608C28.8304 44.3462 28.7434 44.6702 28.7434 45C28.7434 45.3297 28.8304 45.6537 28.9956 45.9391C29.1607 46.2245 29.3983 46.4613 29.6842 46.6256C29.9701 46.7899 30.2943 46.8759 30.6241 46.8749C30.9539 46.8739 31.2775 46.786 31.5625 46.62C31.8115 46.7651 32.0906 46.8508 32.3781 46.8705C32.6656 46.8903 32.9538 46.8435 33.2203 46.7338C33.4868 46.624 33.7244 46.4544 33.9147 46.2379C34.105 46.0215 34.2428 45.7641 34.3175 45.4857C34.3921 45.2074 34.4016 44.9155 34.3452 44.6329C34.2888 44.3503 34.168 44.0845 33.9922 43.8561C33.8164 43.6278 33.5903 43.443 33.3315 43.3162C33.0727 43.1894 32.7881 43.1239 32.5 43.125ZM32.5 45.625C32.411 45.6243 32.3232 45.6045 32.2426 45.567C32.1619 45.5295 32.0903 45.4751 32.0325 45.4075C31.9738 45.3409 31.9017 45.2877 31.8209 45.2512C31.74 45.2147 31.6524 45.1958 31.5637 45.1958C31.475 45.1958 31.3874 45.2147 31.3066 45.2512C31.2257 45.2877 31.1536 45.3409 31.095 45.4075C31.0119 45.5045 30.9011 45.5738 30.7775 45.606C30.6538 45.6382 30.5233 45.6318 30.4035 45.5875C30.2836 45.5432 30.1802 45.4633 30.1072 45.3585C30.0341 45.2536 29.995 45.129 29.995 45.0012C29.995 44.8734 30.0341 44.7488 30.1072 44.6439C30.1802 44.5391 30.2836 44.4592 30.4035 44.4149C30.5233 44.3706 30.6538 44.3642 30.7775 44.3964C30.9011 44.4286 31.0119 44.4979 31.095 44.595C31.1551 44.6589 31.2278 44.7098 31.3084 44.7447C31.389 44.7795 31.4759 44.7975 31.5637 44.7975C31.6515 44.7975 31.7384 44.7795 31.819 44.7447C31.8996 44.7098 31.9723 44.6589 32.0325 44.595C32.1007 44.5148 32.188 44.4531 32.2864 44.4158C32.3848 44.3784 32.4911 44.3664 32.5953 44.3811C32.6996 44.3957 32.7984 44.4364 32.8827 44.4995C32.967 44.5625 33.034 44.6458 33.0775 44.7417C33.1211 44.8375 33.1396 44.9428 33.1316 45.0478C33.1235 45.1528 33.0891 45.254 33.0315 45.3421C32.9739 45.4302 32.895 45.5023 32.802 45.5517C32.7091 45.6012 32.6052 45.6264 32.5 45.625Z" fill="#006DF0"/>
<path d="M20 52.5C19.6291 52.5 19.2666 52.6099 18.9583 52.816C18.6499 53.022 18.4096 53.3148 18.2677 53.6574C18.1258 54.0001 18.0886 54.3771 18.161 54.7408C18.2333 55.1045 18.4119 55.4386 18.6741 55.7008C18.9364 55.963 19.2704 56.1416 19.6342 56.214C19.9979 56.2863 20.3749 56.2492 20.7175 56.1073C21.0601 55.9653 21.3529 55.725 21.559 55.4167C21.765 55.1083 21.875 54.7458 21.875 54.375C21.875 53.8777 21.6774 53.4008 21.3258 53.0491C20.9742 52.6975 20.4972 52.5 20 52.5ZM20 55C19.8763 55 19.7555 54.9633 19.6527 54.8946C19.5499 54.826 19.4698 54.7284 19.4225 54.6142C19.3752 54.4999 19.3629 54.3743 19.387 54.253C19.4111 54.1318 19.4706 54.0204 19.558 53.933C19.6454 53.8456 19.7568 53.7861 19.878 53.762C19.9993 53.7379 20.1249 53.7502 20.2391 53.7975C20.3533 53.8449 20.451 53.925 20.5196 54.0277C20.5883 54.1305 20.625 54.2514 20.625 54.375C20.625 54.5407 20.5591 54.6997 20.4419 54.8169C20.3247 54.9341 20.1657 55 20 55Z" fill="#006DF0"/>
<path d="M18.75 22.5H21.25V23.75H18.75V22.5Z" fill="#006DF0"/>
<path d="M15 31.25H15.9375C16.3519 31.25 16.7493 31.0854 17.0423 30.7924C17.3354 30.4993 17.5 30.1019 17.5 29.6875C17.5 29.2731 17.3354 28.8757 17.0423 28.5826C16.7493 28.2896 16.3519 28.125 15.9375 28.125H14.375C14.2092 28.125 14.0502 28.1908 13.933 28.3081C13.8158 28.4253 13.75 28.5842 13.75 28.75V32.5H15V31.25ZM16.25 29.6875C16.25 29.7704 16.217 29.8499 16.1584 29.9085C16.0998 29.9671 16.0204 30 15.9375 30H15V29.375H15.9375C16.0204 29.375 16.0998 29.4079 16.1584 29.4665C16.217 29.5251 16.25 29.6046 16.25 29.6875Z" fill="#006DF0"/>
<path d="M19.375 31.25H20.625V32.5H21.875V30C21.875 29.5027 21.6774 29.0258 21.3258 28.6742C20.9742 28.3225 20.4972 28.125 20 28.125C19.5027 28.125 19.0258 28.3225 18.6741 28.6742C18.3225 29.0258 18.125 29.5027 18.125 30V32.5H19.375V31.25ZM20 29.375C20.1657 29.375 20.3247 29.4408 20.4419 29.5581C20.5591 29.6753 20.625 29.8342 20.625 30H19.375C19.375 29.8342 19.4408 29.6753 19.558 29.5581C19.6752 29.4408 19.8342 29.375 20 29.375Z" fill="#006DF0"/>
<path d="M23.75 30.8125V32.5H25V30.8125L26.145 29.095C26.1905 29.0267 26.2222 28.9501 26.2381 28.8696C26.2541 28.7891 26.254 28.7062 26.2379 28.6257C26.2219 28.5452 26.1901 28.4687 26.1444 28.4005C26.0988 28.3322 26.0401 28.2737 25.9718 28.2281C25.9035 28.1826 25.827 28.1509 25.7464 28.135C25.6659 28.119 25.583 28.1191 25.5025 28.1352C25.422 28.1512 25.3455 28.183 25.2773 28.2287C25.2091 28.2743 25.1505 28.333 25.105 28.4013L24.375 29.5L23.645 28.405C23.5994 28.3367 23.5408 28.2781 23.4726 28.2324C23.4044 28.1868 23.3279 28.155 23.2474 28.1389C23.1669 28.1228 23.084 28.1228 23.0035 28.1387C22.923 28.1547 22.8464 28.1863 22.7781 28.2319C22.7098 28.2774 22.6511 28.336 22.6055 28.4042C22.5598 28.4724 22.5281 28.549 22.512 28.6295C22.4959 28.71 22.4958 28.7928 22.5118 28.8734C22.5277 28.9539 22.5594 29.0305 22.605 29.0987L23.75 30.8125Z" fill="#006DF0"/>
<path d="M15.3125 34.375H24.6875C25.7649 34.375 26.7982 33.947 27.5601 33.1851C28.3219 32.4232 28.75 31.3899 28.75 30.3125C28.75 29.235 28.3219 28.2017 27.5601 27.4398C26.7982 26.678 25.7649 26.25 24.6875 26.25H15.3125C14.235 26.25 13.2017 26.678 12.4398 27.4398C11.678 28.2017 11.25 29.235 11.25 30.3125C11.25 31.3899 11.678 32.4232 12.4398 33.1851C13.2017 33.947 14.235 34.375 15.3125 34.375ZM15.3125 27.5H24.6875C25.4334 27.5 26.1487 27.7963 26.6762 28.3237C27.2036 28.8512 27.5 29.5665 27.5 30.3125C27.5 31.0584 27.2036 31.7738 26.6762 32.3012C26.1487 32.8287 25.4334 33.125 24.6875 33.125H15.3125C14.5665 33.125 13.8512 32.8287 13.3237 32.3012C12.7963 31.7738 12.5 31.0584 12.5 30.3125C12.5 29.5665 12.7963 28.8512 13.3237 28.3237C13.8512 27.7963 14.5665 27.5 15.3125 27.5Z" fill="#006DF0"/>
<path d="M17.7181 38.9006L16.4925 39.9512C15.853 39.2716 14.9818 38.8568 14.0511 38.7889C13.1205 38.721 12.1983 39.0049 11.4669 39.5844C10.7356 40.1639 10.2484 40.9969 10.1019 41.9184C9.95531 42.84 10.16 43.7829 10.6755 44.5608C11.1909 45.3386 11.9796 45.8946 12.8854 46.1187C13.7912 46.3429 14.7481 46.2188 15.5668 45.7712C16.3856 45.3235 17.0064 44.5848 17.3065 43.7012C17.6066 42.8177 17.5641 41.8537 17.1875 41L18.5331 39.8468L17.7181 38.9006ZM16.25 42.5C16.2527 43.0834 16.0523 43.6496 15.6832 44.1013C15.314 44.5531 14.7991 44.8622 14.2268 44.9757C13.6546 45.0892 13.0606 45 12.547 44.7234C12.0334 44.4467 11.632 43.9999 11.4119 43.4596C11.1918 42.9193 11.1666 42.3193 11.3406 41.7624C11.5147 41.2056 11.8772 40.7267 12.3658 40.408C12.8545 40.0892 13.4388 39.9505 14.0186 40.0157C14.5984 40.0808 15.1374 40.3458 15.5431 40.765L13.7825 42.2737L12.9418 41.4331L12.0581 42.3169L13.3081 43.5669C13.4194 43.6782 13.5687 43.7434 13.7261 43.7494C13.8835 43.7555 14.0373 43.7019 14.1568 43.5994L16.1625 41.88C16.218 42.0821 16.2474 42.2904 16.25 42.5Z" fill="#006DF0"/>
<path d="M54 0.399994C50.9072 0.399994 48.4 2.90722 48.4 5.99999C48.4 9.09276 50.9072 11.6 54 11.6C57.0928 11.6 59.6 9.09276 59.6 5.99999C59.6 2.90722 57.0928 0.399994 54 0.399994ZM57 4.99999L53.7641 8.23593C53.6144 8.38573 53.4115 8.46991 53.2 8.46991C52.9885 8.46991 52.7855 8.38573 52.6359 8.23593L51 6.59999C50.6685 6.26855 50.6685 5.73144 51 5.39999C51.3314 5.06855 51.8685 5.06855 52.2 5.39999L53.2 6.39999L55.8 3.79999C56.1314 3.46855 56.6685 3.46855 57 3.79999C57.3314 4.13144 57.3314 4.66855 57 4.99999Z" fill="#78B9EB"/>
<path d="M36.4 23.6H40.4V12.4H36.4V23.6Z" fill="#78B9EB"/>
<path d="M51.2 12.8H46.8V9.99999C46.8 9.33729 46.2627 8.79999 45.6 8.79999H44.8C44.1578 8.7994 43.6289 9.30448 43.6 9.94608L43.24 11.3955L41.8344 12.8H40.8V12.4C40.8 12.1791 40.6209 12 40.4 12H36.4C36.1791 12 36 12.1791 36 12.4V23.6C36 23.8209 36.1791 24 36.4 24H40.4C40.6209 24 40.8 23.8209 40.8 23.6V22.5553L42.6736 23.1797C42.7145 23.1931 42.757 23.2 42.8 23.2H50.4C51.0627 23.2 51.6 22.6627 51.6 22V21.2C51.5988 20.9933 51.5438 20.7904 51.44 20.6115C51.7879 20.3928 51.9992 20.0109 52 19.6V18.8C51.999 18.5039 51.8877 18.2187 51.6881 18C51.8877 17.7812 51.999 17.4961 52 17.2V16.4C51.9988 16.1933 51.9438 15.9904 51.84 15.8115C52.1879 15.5928 52.3992 15.2109 52.4 14.8V14C52.4 13.3373 51.8627 12.8 51.2 12.8ZM40 23.2H36.8V12.8H40V23.2ZM50.8 22C50.8 22.2209 50.6209 22.4 50.4 22.4H42.8648L40.8 21.7115V13.6H42C42.1061 13.6 42.2078 13.5578 42.2828 13.4828L43.8828 11.8828C43.934 11.8316 43.9703 11.7674 43.9881 11.6973L44.3881 10.0973C44.3959 10.0654 44.4 10.0328 44.4 9.99999C44.4 9.77909 44.5791 9.59999 44.8 9.59999H45.6C45.8209 9.59999 46 9.77909 46 9.99999V12.8H45.2V13.6H51.2C51.4209 13.6 51.6 13.7791 51.6 14V14.8C51.6 15.0209 51.4209 15.2 51.2 15.2H49.2V16H50.8C51.0209 16 51.2 16.1791 51.2 16.4V17.2C51.2 17.4209 51.0209 17.6 50.8 17.6H49.6V18.4H50.8C51.0209 18.4 51.2 18.5791 51.2 18.8V19.6C51.2 19.8209 51.0209 20 50.8 20H49.6V20.8H50.4C50.6209 20.8 50.8 20.9791 50.8 21.2V22Z" fill="#006DF0"/>
<path d="M54 0C50.6863 0 48 2.68633 48 6C48 9.31367 50.6863 12 54 12C57.3137 12 60 9.31367 60 6C59.9963 2.68789 57.3121 0.00371094 54 0ZM54 11.2C51.1281 11.2 48.8 8.87187 48.8 6C48.8 3.12812 51.1281 0.8 54 0.8C56.8719 0.8 59.2 3.12812 59.2 6C59.1967 8.87051 56.8705 11.1967 54 11.2Z" fill="#006DF0"/>
<path d="M55.5172 3.51721L53.2 5.83439L52.4828 5.1172C51.9953 4.62971 51.2047 4.62971 50.7172 5.1172C50.2297 5.6047 50.2297 6.39533 50.7172 6.88283L52.3515 8.5172C52.8201 8.98576 53.5799 8.98576 54.0484 8.5172L57.2828 5.28283C57.7703 4.79533 57.7703 4.00471 57.2828 3.51721C56.7953 3.02971 56.0047 3.02971 55.5172 3.51721ZM56.7172 4.71721L53.4828 7.95158C53.3265 8.10783 53.0734 8.10783 52.9172 7.95158L51.2828 6.3172C51.1076 6.14201 51.1076 5.85802 51.2828 5.68283C51.458 5.50763 51.742 5.50763 51.9172 5.68283L52.9172 6.68283C53.0734 6.83888 53.3265 6.83888 53.4828 6.68283L56.0828 4.08283C56.258 3.90764 56.542 3.90764 56.7172 4.08283C56.8924 4.25803 56.8924 4.54201 56.7172 4.71721Z" fill="#006DF0"/>
</svg>
