<svg width="61" height="60" viewBox="0 0 61 60" fill="none" xmlns="http://www.w3.org/2000/svg">
<circle cx="31" cy="29" r="21" fill="#DEF1FF"/>
<g clip-path="url(#clip0)">
<path d="M53.9289 19.1244L53.7244 20.7743C52.6858 21.5832 51.499 22.177 50.232 22.5218L49.0939 21.3743L47.2343 20.6243L47.9781 19.1244L47.2343 16.4994L45.3747 14.9995L43.1431 15.7495L42.0273 17.6244L41.6554 19.1244L40.1343 19.5068C39.721 19.0472 39.3524 18.5487 39.0334 18.0181L40.9116 16.1245L43.1431 13.4995L43.515 10.4996L41.6554 9.37466L40.9116 7.12473L40.0971 6.03351C41.0365 4.9599 42.1922 4.10056 43.4871 3.51279C44.7819 2.92502 46.1862 2.62231 47.6062 2.62486C47.9566 2.6246 48.3067 2.64338 48.655 2.68111L47.9781 4.49981L46.4904 6.37475L44.6308 7.12473V8.62468L45.3747 9.74965L47.2343 11.2496L49.8378 10.8746L50.5816 12.3746V15.3745L51.6974 17.9994L53.9289 19.1244Z" fill="#78B9EB"/>
<path d="M55.7885 4.12485C55.7122 4.79952 55.472 5.4448 55.0893 6.00354C54.5932 6.81175 54.0362 7.58024 53.4231 8.30222C53.066 8.72971 52.8131 8.9997 52.8131 8.9997C52.8131 8.9997 52.5602 8.72971 52.2031 8.30222C51.3366 7.2635 49.8377 5.30231 49.8377 4.12485C49.8377 3.32922 50.1512 2.56618 50.7092 2.00359C51.2672 1.441 52.024 1.12494 52.8131 1.12494C53.6022 1.12494 54.359 1.441 54.917 2.00359C55.475 2.56618 55.7885 3.32922 55.7885 4.12485ZM53.9289 4.12485C53.9289 3.90235 53.8634 3.68485 53.7408 3.49985C53.6182 3.31485 53.444 3.17066 53.2401 3.08551C53.0362 3.00037 52.8119 2.97809 52.5954 3.0215C52.379 3.0649 52.1802 3.17205 52.0241 3.32938C51.8681 3.48671 51.7618 3.68716 51.7188 3.90538C51.6757 4.1236 51.6978 4.34979 51.7823 4.55535C51.8667 4.76091 52.0097 4.93661 52.1932 5.06022C52.3767 5.18383 52.5924 5.24981 52.8131 5.24981C53.109 5.24981 53.3928 5.13129 53.6021 4.92032C53.8113 4.70935 53.9289 4.42321 53.9289 4.12485Z" fill="#78B9EB"/>
<path d="M54.3008 4.12486C54.3008 3.8282 54.2135 3.5382 54.0501 3.29153C53.8866 3.04487 53.6542 2.85261 53.3824 2.73909C53.1106 2.62556 52.8114 2.59585 52.5228 2.65373C52.2343 2.71161 51.9692 2.85446 51.7611 3.06424C51.5531 3.27401 51.4114 3.54127 51.354 3.83224C51.2966 4.1232 51.326 4.42479 51.4386 4.69887C51.5512 4.97295 51.7419 5.20721 51.9866 5.37203C52.2312 5.53685 52.5188 5.62482 52.8131 5.62482C53.2076 5.62482 53.586 5.46679 53.865 5.18549C54.144 4.9042 54.3008 4.52268 54.3008 4.12486ZM52.0692 4.12486C52.0692 3.97653 52.1129 3.83153 52.1946 3.7082C52.2763 3.58487 52.3925 3.48874 52.5284 3.43197C52.6643 3.37521 52.8139 3.36036 52.9582 3.3893C53.1025 3.41823 53.235 3.48966 53.3391 3.59455C53.4431 3.69944 53.5139 3.83307 53.5426 3.97855C53.5713 4.12403 53.5566 4.27483 53.5003 4.41187C53.444 4.54891 53.3487 4.66604 53.2263 4.74845C53.104 4.83086 52.9602 4.87484 52.8131 4.87484C52.6158 4.87484 52.4266 4.79583 52.2871 4.65518C52.1476 4.51453 52.0692 4.32377 52.0692 4.12486Z" fill="#005AEB"/>
<path d="M55.543 5.96229C55.8903 5.40775 56.1019 4.77798 56.1604 4.12484C56.1603 3.37503 55.9125 2.64661 55.4562 2.05455C54.9998 1.46249 54.3609 1.04052 53.6403 0.855224C52.9197 0.669929 52.1584 0.731869 51.4765 1.03127C50.7947 1.33067 50.2312 1.85047 49.8749 2.50864C47.4613 1.96375 44.9341 2.30207 42.7451 3.46313C40.5561 4.62419 38.8481 6.5323 37.9262 8.84639C37.0043 11.1605 36.9287 13.7297 37.7129 16.0948C38.4971 18.4599 40.0901 20.4668 42.2069 21.7566C44.3238 23.0464 46.8266 23.5352 49.2681 23.1355C51.7095 22.7358 53.9304 21.4737 55.5337 19.5748C57.137 17.676 58.0183 15.2641 58.02 12.7703C58.0217 10.2765 57.1438 7.86339 55.543 5.96229ZM52.8131 1.49992C53.5033 1.50072 54.1651 1.77753 54.6532 2.26962C55.1412 2.76172 55.4158 3.42892 55.4166 4.12484C55.4166 5.23856 53.7318 7.39099 52.8131 8.44096C51.8944 7.39099 50.2096 5.23856 50.2096 4.12484C50.2104 3.42892 50.485 2.76172 50.973 2.26962C51.4611 1.77753 52.1229 1.50072 52.8131 1.49992ZM53.5644 8.7147C54.0442 8.83845 54.3008 9.05594 54.3008 9.18719C54.3008 9.38593 53.7355 9.74967 52.8131 9.74967C51.8907 9.74967 51.3254 9.38593 51.3254 9.18719C51.3254 9.05594 51.582 8.83845 52.0618 8.7147C52.2961 8.98845 52.4747 9.18344 52.5416 9.25469C52.5762 9.2925 52.6182 9.32268 52.6649 9.34332C52.7116 9.36397 52.7621 9.37462 52.8131 9.37462C52.8641 9.37462 52.9146 9.36397 52.9613 9.34332C53.008 9.32268 53.05 9.2925 53.0846 9.25469C53.1516 9.18344 53.3301 8.98845 53.5644 8.7147ZM37.9361 12.7496C37.9334 10.524 38.6913 8.36545 40.0821 6.63727L40.5768 7.301L41.302 9.49468C41.3323 9.57891 41.39 9.6503 41.4657 9.69717L43.117 10.6946L42.786 13.3421L40.6475 15.8582L39.1114 17.4069C38.3387 15.9783 37.9345 14.3768 37.9361 12.7496ZM47.6062 22.4993C45.0782 22.5006 42.6511 21.4999 40.8483 19.7131L41.7446 19.4881C41.8103 19.4717 41.8703 19.4375 41.9181 19.3893C41.966 19.3411 41.9999 19.2806 42.0161 19.2144L42.3732 17.7707L43.3923 16.0607L45.3002 15.4195L46.9107 16.717L47.5801 19.0869L46.9032 20.4556C46.8797 20.5023 46.8662 20.5535 46.8636 20.6059C46.8611 20.6582 46.8695 20.7105 46.8883 20.7593C46.9069 20.8074 46.9349 20.8511 46.9707 20.8878C47.0065 20.9246 47.0493 20.9536 47.0966 20.9731L48.8856 21.6931L49.4955 22.3118C48.8735 22.4372 48.2406 22.5001 47.6062 22.4993ZM53.3747 20.5681C52.4604 21.2553 51.433 21.7745 50.3398 22.1018L49.3579 21.1081C49.3212 21.073 49.2783 21.045 49.2315 21.0256L47.7475 20.4293L48.3091 19.2931C48.3526 19.2101 48.362 19.1131 48.3351 19.0231L47.5913 16.3982C47.5704 16.3225 47.5261 16.2555 47.4648 16.207L45.6052 14.707C45.5565 14.6685 45.4992 14.6426 45.4382 14.6315C45.3773 14.6204 45.3146 14.6244 45.2556 14.6433L43.0241 15.3932C42.9405 15.4237 42.8697 15.4819 42.8232 15.5582L41.7074 17.4332C41.6878 17.4642 41.674 17.4985 41.6665 17.5344L41.3504 18.8131L40.2681 19.0869C39.9932 18.7654 39.7397 18.4259 39.5094 18.0707L41.1942 16.3682L43.4257 13.7433C43.4741 13.6877 43.5041 13.6182 43.5113 13.5446L43.8832 10.5446C43.8919 10.4725 43.8797 10.3994 43.848 10.3342C43.8163 10.2689 43.7665 10.2144 43.7047 10.1772L41.9641 9.12344L41.2649 7.00476C41.2508 6.9675 41.232 6.93222 41.2091 6.89976L40.5805 6.05978C41.4827 5.09362 42.5714 4.32375 43.7796 3.79753C44.9878 3.27131 46.29 2.99986 47.6062 2.99988C47.781 2.99988 47.9558 3.00738 48.1343 3.01488L47.6508 4.31234L46.2598 6.06353L44.4932 6.77601C44.424 6.8038 44.3646 6.8519 44.3228 6.91408C44.2811 6.97626 44.2588 7.04965 44.2588 7.12475V8.62471C44.2587 8.69833 44.2807 8.77027 44.3221 8.83095L45.0659 9.95592C45.0847 9.99054 45.1115 10.0201 45.144 10.0422L47.0036 11.5421C47.0429 11.5741 47.0882 11.5975 47.1369 11.6111C47.1855 11.6246 47.2364 11.628 47.2863 11.6209L49.6257 11.2834L50.2096 12.4646V15.3745C50.2098 15.4248 50.2199 15.4745 50.2394 15.5207L51.3552 18.1457C51.3884 18.2278 51.4507 18.2946 51.53 18.3332L53.5272 19.3419L53.3747 20.5681ZM54.2115 19.8594L54.2971 19.1694C54.3068 19.093 54.2926 19.0156 54.2566 18.9477C54.2206 18.8798 54.1646 18.8249 54.0962 18.7906L51.9837 17.7257L50.9535 15.2958V12.3746C50.9531 12.3159 50.9391 12.2581 50.9126 12.2058L50.1687 10.7059C50.134 10.6359 50.0784 10.5786 50.0096 10.5423C49.9409 10.5059 49.8625 10.4923 49.7856 10.5034L47.3421 10.8559L45.6536 9.49468L45.0027 8.51221V7.37974L46.628 6.72351C46.6877 6.69824 46.7401 6.65827 46.7805 6.60727L48.2682 4.73233C48.2936 4.70227 48.3138 4.66802 48.3277 4.63108L48.9005 3.08988C49.1311 3.11987 49.3654 3.16487 49.5922 3.21362C49.5102 3.51036 49.4677 3.81679 49.4658 4.12484C49.4658 5.27231 50.6448 6.96351 51.5523 8.09597C50.9498 8.33221 50.5816 8.72595 50.5816 9.18719C50.5816 9.93717 51.5411 10.4996 52.8131 10.4996C54.0851 10.4996 55.0446 9.93717 55.0446 9.18719C55.0446 8.72595 54.6764 8.33221 54.0739 8.09597C54.4161 7.67224 54.788 7.16975 55.1302 6.64477C56.6643 8.55565 57.4227 10.982 57.2522 13.4345C57.0817 15.8869 55.9951 18.1829 54.2115 19.8594Z" fill="#005AEB"/>
</g>
<g clip-path="url(#clip1)">
<path d="M14.6659 39.9992C17.9801 39.9992 20.6667 37.313 20.6667 33.9991C20.6667 30.6855 17.9801 27.9989 14.6659 27.9989C11.3517 27.9989 8.66517 30.6855 8.66517 33.9991C8.66517 37.313 11.3517 39.9992 14.6659 39.9992ZM27.7877 31.6191C24.9973 32.3567 22.7571 34.4353 21.813 37.1622C20.8685 39.8895 21.3438 42.9079 23.0804 45.213L22.7737 45.4529C20.2887 48.9191 17.5803 52.2194 14.6659 55.3331C14.6659 55.3331 1.33093 41.3661 1.33093 33.9991C1.32865 27.0965 6.59558 21.3333 13.4711 20.7148C20.3466 20.0959 26.5577 24.8269 27.7877 31.6191Z" fill="#78B9EB"/>
<path d="M39.3357 39.9993C39.3448 37.2222 38.1122 34.586 35.9752 32.8116C33.8383 31.0374 31.0202 30.3105 28.2917 30.8297C26.6828 23.9011 20.1315 19.2818 13.0642 20.0924C5.99694 20.9033 0.662293 26.8862 0.664246 33.9991C0.664246 40.386 9.95022 51.1559 13.1391 54.6664H9.33198V55.9998H20V54.6664H16.187C18.629 51.9749 20.9216 49.1516 23.0544 46.2088C24.3576 47.6717 26.0883 48.6874 28.001 49.1116V49.9996C27.6327 49.9996 27.3342 50.2981 27.3342 50.6663V57.3332C27.3342 58.8062 28.5284 59.9999 30.0012 59.9999C31.474 59.9999 32.6682 58.8062 32.6682 57.3332V50.6663C32.6682 50.2981 32.3697 49.9996 32.0014 49.9996V49.1116C36.28 48.1685 39.3292 44.3803 39.3357 39.9993ZM14.666 54.3559C12.2943 51.7812 1.99774 40.2408 1.99774 33.9991C1.99709 27.5575 6.83363 22.1423 13.2351 21.4176C19.6366 20.693 25.5615 24.8901 27.0008 31.1693C24.2661 32.0921 22.1142 34.2312 21.1743 36.9601C20.2347 39.6891 20.6136 42.6992 22.2004 45.1101C19.8782 48.3417 17.3623 51.429 14.666 54.3559ZM22.0002 39.9993C22.0002 35.5809 25.5824 31.999 30.0012 31.999C34.42 31.999 38.0022 35.5809 38.0022 39.9993C38.0022 44.4177 34.42 47.9995 30.0012 47.9995C25.5843 47.995 22.0051 44.4158 22.0002 39.9993ZM31.3347 57.3332C31.3347 58.0695 30.7376 58.6665 30.0012 58.6665C29.2648 58.6665 28.6677 58.0695 28.6677 57.3332V51.333H31.3347V57.3332ZM30.6679 49.9996H29.3345V49.2991C29.5558 49.315 29.7759 49.3329 30.0012 49.3329C30.2265 49.3329 30.4466 49.315 30.6679 49.2991V49.9996Z" fill="#005AEB"/>
<path d="M30.0011 45.3328C27.0554 45.3328 24.6671 42.945 24.6671 39.9993C24.6671 37.0538 27.0554 34.6657 30.0011 34.6657V33.3324C26.3187 33.3324 23.3336 36.3175 23.3336 39.9993C23.3336 43.6813 26.3187 46.6661 30.0011 46.6661V45.3328Z" fill="#005AEB"/>
<path d="M14.6659 27.3322C10.9835 27.3322 7.99841 30.3173 7.99841 33.9991C7.99841 37.6811 10.9835 40.6659 14.6659 40.6659C18.3483 40.6659 21.3334 37.6811 21.3334 33.9991C21.3295 30.3189 18.3467 27.3364 14.6659 27.3322ZM14.6659 39.3326C11.7202 39.3326 9.33191 36.9448 9.33191 33.9991C9.33191 31.0537 11.7202 28.6656 14.6659 28.6656C17.6119 28.6656 19.9999 31.0537 19.9999 33.9991C19.9966 36.9435 17.6106 39.3293 14.6659 39.3326Z" fill="#005AEB"/>
</g>
<path fill-rule="evenodd" clip-rule="evenodd" d="M29.5701 0.0346151C30.0418 0.0116256 30.5164 0 30.9937 0C31.471 0 31.9456 0.0116258 32.4174 0.0346156L32.3695 1.03342C31.9137 1.01121 31.455 0.999969 30.9937 0.999969C30.5324 0.999969 30.0737 1.01121 29.6179 1.03342L29.5701 0.0346151ZM23.9427 0.870082C24.8575 0.639775 25.7894 0.453254 26.7361 0.312848L26.8804 1.30217C25.9661 1.43777 25.0662 1.61789 24.183 1.84026L23.9427 0.870082ZM35.2514 0.312849C36.1981 0.453256 37.13 0.639778 38.0447 0.870085L37.8044 1.84026C36.9212 1.61789 36.0213 1.43777 35.107 1.30217L35.2514 0.312849ZM18.5872 2.80223C19.4418 2.39398 20.3194 2.02658 21.2175 1.70255L21.5517 2.64405C20.6845 2.95692 19.8371 3.31167 19.0119 3.7059L18.5872 2.80223ZM13.7114 5.75454C14.4722 5.1847 15.2617 4.65153 16.0773 4.15762L16.588 5.01484C15.8003 5.49186 15.0377 6.00684 14.3028 6.55726L13.7114 5.75454ZM9.49848 9.60648C10.1363 8.89733 10.8083 8.21989 11.5116 7.57677L12.1779 8.3175C11.4984 8.93876 10.8493 9.59319 10.2332 10.2782L9.49848 9.60648ZM6.10727 14.2098C6.59715 13.3875 7.12596 12.5915 7.69114 11.8244L8.4873 12.4207C7.94138 13.1616 7.43061 13.9305 6.95749 14.7247L6.10727 14.2098ZM59.1408 22.14C59.3693 23.0623 59.5543 24.0019 59.6935 24.9564L58.7123 25.1019C58.5778 24.1801 58.3991 23.2728 58.1786 22.3823L59.1408 22.14ZM59.9695 27.8137C59.9923 28.2893 60.0038 28.7679 60.0038 29.2491C60.0038 29.7303 59.9923 30.2089 59.9695 30.6845L58.9788 30.6362C59.0009 30.1767 59.012 29.7142 59.012 29.2491C59.012 28.784 59.0009 28.3215 58.9788 27.862L59.9695 27.8137ZM59.6935 33.5418C59.5542 34.4963 59.3693 35.4359 59.1408 36.3582L58.1786 36.1159C58.3991 35.2254 58.5778 34.3181 58.7123 33.3963L59.6935 33.5418ZM58.3152 39.1059C57.9938 40.0113 57.6294 40.8962 57.2245 41.7578L56.3282 41.3297C56.7192 40.4976 57.071 39.6432 57.3814 38.7689L58.3152 39.1059ZM55.8802 44.2884C55.3903 45.1107 54.8615 45.9067 54.2963 46.6738L53.5001 46.0775C54.046 45.3366 54.5568 44.5677 55.0299 43.7736L55.8802 44.2884ZM52.4889 48.8917C51.8511 49.6009 51.1792 50.2783 50.4758 50.9214L49.8095 50.1807C50.489 49.5595 51.1381 48.905 51.7543 48.22L52.4889 48.8917ZM48.276 52.7437C47.5152 53.3135 46.7257 53.8467 45.9101 54.3406L45.3995 53.4834C46.1872 53.0063 46.9497 52.4914 47.6846 51.941L48.276 52.7437ZM43.4002 55.696C42.5456 56.1042 41.668 56.4716 40.7699 56.7957L40.4357 55.8542C41.3029 55.5413 42.1503 55.1865 42.9755 54.7923L43.4002 55.696ZM38.0447 57.6281C37.13 57.8584 36.1981 58.045 35.2513 58.1854L35.107 57.196C36.0213 57.0604 36.9212 56.8803 37.8044 56.658L38.0447 57.6281Z" fill="#005AEB"/>
<defs>
<clipPath id="clip0">
<rect width="23.8032" height="23.9993" fill="white" transform="translate(35.7046)"/>
</clipPath>
<clipPath id="clip1">
<rect width="40.0024" height="39.9988" fill="white" transform="translate(0 20.0012)"/>
</clipPath>
</defs>
</svg>
