<?xml version="1.0" encoding="utf-8"?>
<!-- Generator: Adobe Illustrator 16.0.0, SVG Export Plug-In . SVG Version: 6.00 Build 0)  -->
<!DOCTYPE svg PUBLIC "-//W3C//DTD SVG 1.1//EN" "http://www.w3.org/Graphics/SVG/1.1/DTD/svg11.dtd">
<svg version="1.1" id="Layer_1" xmlns="http://www.w3.org/2000/svg" xmlns:xlink="http://www.w3.org/1999/xlink" x="0px" y="0px"
	 width="48px" height="48px" viewBox="0 0 48 48" enable-background="new 0 0 48 48" xml:space="preserve">
<path fill="#C8CACD" d="M45.7,0.09H48L35.861,48h-2.495C37.205,31.342,41.063,16.366,45.7,0.09z"/>
<path fill="#C8CACD" d="M23.165,12.8l0.983,5.909l2.143-1.796l0.148,0.153l-0.835,3.159l3.515,0.993l-0.02,0.624l-3.479,1.045
	l1.188,3.616l-0.344,0.307l-2.346-1.631l-0.956,6.738h-0.213l-0.983-6.738l-2.235,1.705l-0.278-0.381l1.178-3.578l-3.821-1.083
	l-0.067-0.599l3.867-0.968l-0.909-3.095l0.148-0.178l2.226,1.707l0.872-5.909H23.165z"/>
<path fill="#C8CACD" d="M26.986,20.492l-0.334-0.102c-0.047-1.566-0.158-2.993-0.334-4.56h-2.671l-0.103-0.585l2.754,0.013
	l-0.148-1.197c-0.157-1.198-0.353-2.28-0.621-3.438l-0.066-0.268l-0.008-0.051h-2.318v2.471l-0.021-0.102h-0.204l-0.007,0.051
	v-2.509l-0.77,0.013l-2.254,3.871c-0.04,0.37-0.083,0.701-0.12,1.083h2.782l-0.102,0.624h-2.754
	c-0.157,1.579-0.241,3.031-0.287,4.635l-0.325,0.064c0.047-1.643,0.149-3.133,0.325-4.763H19.03l-3.58,6.203l2.078-0.013
	l1.836,0.509c0,1.273,0.034,2.42,0.13,3.694l-0.083,0.242l0.121,0.152c0.047,0.713,0.111,1.363,0.194,2.063h2.717l0.093,0.598
	l-2.791-0.012l0.139,1.197c0.167,1.197,0.361,2.279,0.63,3.438l0.054,0.268l0.02,0.051h2.318v-2.383l0.007,0.039h0.204l0.02-0.127
	v2.547h2.3c0.398-1.668,0.658-3.223,0.844-4.953H23.48l0.083-0.625h2.782c0.074-0.699,0.13-1.338,0.176-2.037l0.242-0.217
	l-0.195-0.611c0.055-1.108,0.084-2.114,0.074-3.222h-0.371l1.809-0.535h0.816l2.086-0.063c-0.047-2.14-0.269-4.087-0.723-6.164
	l-3.598,0.051C26.838,17.422,26.931,18.887,26.986,20.492L26.986,20.492z M31.966,28.668h1.873c0.251-0.779,0.437-1.516,0.603-2.346
	c0.26-1.283,0.381-2.495,0.408-3.833h-3.617c-0.02,2.165-0.25,4.116-0.704,6.178H31.966z M31.771,15.155l1.846,0.013
	c-0.131-0.382-0.26-0.713-0.408-1.069c-0.547-1.273-1.15-2.356-1.93-3.4l-0.25-0.331l-0.12-0.166h-2.458
	c0.844,1.554,1.457,3.12,1.901,4.967L31.771,15.155z M32.402,15.754l-1.92-0.026c0.463,2.063,0.686,4.024,0.723,6.188l3.607-0.013
	c-0.04-2.19-0.361-4.177-1.011-6.176L32.402,15.754z M29.545,34.195h1.392l0.26-0.32l0.12-0.178c0.77-1.045,1.383-2.127,1.92-3.398
	c0.157-0.357,0.287-0.689,0.427-1.07H30.39c-0.437,1.846-1.048,3.424-1.901,4.967H29.545z M29.295,9.705h1.159
	c-0.528-0.598-1.038-1.095-1.642-1.554c-0.854-0.751-1.715-1.286-2.689-1.668c-0.51-0.216-0.992-0.395-1.512-0.573l-0.053,0.089
	l1.789,1.299c0.25,0.166,0.455,0.344,0.668,0.573c0.24,0.254,0.445,0.509,0.649,0.802c0.223,0.344,0.417,0.663,0.603,1.032H29.295z
	 M28.313,28.693l1.975-0.051c0.445-2.064,0.658-4,0.687-6.139h-3.979c-0.007,2.14-0.12,4.075-0.353,6.19H28.313z M28.506,29.215
	l-1.928,0.037c-0.186,1.746-0.482,3.313-0.938,4.953h1.206l1.419-0.063c0.854-1.527,1.455-3.094,1.883-4.928H28.506z M27.301,10.329
	l-1.641-0.026c0.223,0.803,0.389,1.541,0.537,2.369c0.166,0.878,0.287,1.694,0.398,2.585l3.552-0.051
	c-0.353-1.286-0.733-2.419-1.252-3.591c-0.194-0.484-0.399-0.904-0.64-1.35L27.301,10.329z M25.178,38.32
	c1.326-0.395,2.494-1.02,3.662-1.988c0.641-0.496,1.197-1.029,1.763-1.68l-2.31,0.113c-0.371,0.701-0.76,1.275-1.252,1.797
	c-0.213,0.242-0.426,0.434-0.668,0.613l-1.854,1.348C24.742,38.473,24.945,38.408,25.178,38.32L25.178,38.32z M24.426,7.005
	c0.427,0.891,0.77,1.757,1.076,2.738l2.531-0.051c-0.287-0.497-0.584-0.904-0.937-1.324c-0.306-0.37-0.621-0.675-0.983-0.943
	l-1.66-1.223l-0.26,0.446L24.426,7.005z M23.396,38.639l0.529-0.025l0.26-0.141l1.975-1.49c0.492-0.357,0.909-0.766,1.299-1.285
	c0.223-0.293,0.408-0.574,0.603-0.906l-2.578-0.012c-0.177,0.572-0.361,1.082-0.593,1.629c-0.205,0.484-0.418,0.904-0.687,1.338
	l-0.529,0.662L23.396,38.639z M23.156,38.588l0.547-0.498l0.51-0.725c0.473-0.803,0.816-1.631,1.076-2.6h-2.152L23.156,38.588z
	 M23.135,9.743h2.169c-0.166-0.624-0.361-1.184-0.584-1.77c-0.12-0.305-0.25-0.573-0.407-0.866l-0.194-0.306l-0.983,1.732
	L23.135,9.743z M22.236,38.244c-0.232-0.307-0.427-0.611-0.621-0.955c-0.213-0.396-0.398-0.777-0.575-1.197
	c-0.194-0.471-0.343-0.918-0.501-1.4l-2.531,0.051c0.287,0.482,0.584,0.904,0.937,1.324c0.315,0.369,0.621,0.674,0.992,0.941
	l2.161,1.605l0.575,0.051L22.236,38.244z M22.903,34.691h-2.17c0.167,0.623,0.353,1.17,0.584,1.756
	c0.25,0.561,0.52,1.02,0.862,1.479l0.474,0.533l0.241,0.18L22.903,34.691z M18.739,34.094l1.632,0.023
	c-0.213-0.789-0.38-1.527-0.529-2.355c-0.167-0.879-0.288-1.693-0.399-2.598l-3.561,0.064c0.353,1.287,0.742,2.418,1.261,3.59
	c0.204,0.473,0.399,0.904,0.64,1.338L18.739,34.094z M16.746,34.715h-1.168c0.529,0.611,1.048,1.109,1.651,1.566
	c0.853,0.752,1.715,1.275,2.689,1.67c0.64,0.268,1.224,0.496,1.882,0.713l-2.105-1.527c-0.241-0.18-0.464-0.346-0.677-0.586
	c-0.241-0.242-0.445-0.496-0.64-0.803c-0.223-0.332-0.408-0.648-0.603-1.033H16.746z M17.145,22.427l-2.087,0.063
	c0.041,2.152,0.269,4.087,0.724,6.152l3.589-0.039c-0.223-2.113-0.334-4.049-0.343-6.189L17.145,22.427z M13.63,28.68l1.92,0.025
	c-0.427-1.934-0.649-3.782-0.705-5.806l-2.865,4.966c0.083,0.293,0.157,0.547,0.25,0.84L13.63,28.68z M14.261,29.279l-1.836-0.014
	c0.13,0.369,0.25,0.713,0.408,1.07c0.547,1.285,1.15,2.354,1.92,3.4l0.26,0.33l0.121,0.166h2.458
	c-0.844-1.555-1.447-3.133-1.901-4.967L14.261,29.279z M10.968,28.629L25.046,4.28l2.226,1.388c0.779,0.343,1.465,0.751,2.18,1.299
	c2.003,1.592,3.551,3.706,4.72,6.457c0.278,0.65,0.501,1.261,0.714,1.961c0.232,0.764,0.408,1.49,0.566,2.28
	c1.53,7.666-0.965,15.892-6,19.816c-0.695,0.533-1.363,0.955-2.105,1.324c-2.847,1.451-5.805,1.451-8.652,0
	c-0.742-0.369-1.409-0.791-2.114-1.324c-2.003-1.58-3.542-3.693-4.711-6.445C11.525,30.234,11.238,29.482,10.968,28.629"/>
<path fill="#C8CACD" d="M11.23,29.037l14.086-24.35l2.041,0.943c0.77,0.344,1.465,0.764,2.179,1.312
	c2.003,1.592,3.552,3.706,4.72,6.444c0.278,0.649,0.502,1.273,0.715,1.974c0.223,0.765,0.408,1.478,0.566,2.28
	c1.521,7.654-0.975,15.88-6,19.814c-0.696,0.523-1.363,0.943-2.115,1.326c-2.847,1.438-5.796,1.438-8.643,0
	c-0.751-0.383-1.41-0.803-2.114-1.326c-2.003-1.59-3.552-3.705-4.711-6.455C11.667,30.35,11.443,29.738,11.23,29.037L11.23,29.037z
	 M28.434,0l15.848,0.013l-11.889,47.12c-0.139,0.535-0.491,0.879-0.899,0.867H0L26.912,0.994C27.283,0.357,27.83-0.012,28.434,0"/>
</svg>
