<?xml version="1.0" encoding="utf-8"?>
<!-- Generator: Adobe Illustrator 16.0.0, SVG Export Plug-In . SVG Version: 6.00 Build 0)  -->
<!DOCTYPE svg PUBLIC "-//W3C//DTD SVG 1.1//EN" "http://www.w3.org/Graphics/SVG/1.1/DTD/svg11.dtd">
<svg version="1.1" id="Layer_1" xmlns="http://www.w3.org/2000/svg" xmlns:xlink="http://www.w3.org/1999/xlink" x="0px" y="0px"
	 width="48px" height="48px" viewBox="0 0 48 48" enable-background="new 0 0 48 48" xml:space="preserve">
<path fill="#838383" d="M28.963,28.52v-4.878H19.02v4.878h-2.841V12.927h2.841v3.81c0.145-0.157,0.313-0.291,0.485-0.424
	c1.106-0.868,2.669-1.426,4.372-1.426s3.266,0.558,4.377,1.426c0.255,0.2,0.484,0.424,0.708,0.667v-4.053h2.842v15.589h-2.842V28.52
	z M28.963,21.481H19.02v0.668h9.943V21.481z M26.238,17.896c-0.625-0.491-1.419-0.778-2.357-0.778c-0.938,0-1.759,0.291-2.384,0.778
	c-0.453,0.357-0.766,0.825-0.91,1.359h6.589C27.031,18.72,26.719,18.272,26.238,17.896z"/>
<path fill="#838383" d="M16.695,30.814l-0.469,0.031c-0.012,0.066-0.04,0.303-0.04,0.498v1.748c0,0.197,0.032,0.433,0.04,0.499
	l0.541,0.032l-0.04,0.278c0,0-0.397-0.023-0.877-0.023c-0.12,0-0.709,0.023-0.709,0.023l-0.028-0.235l0.473-0.075
	c0.012-0.063,0.056-0.278,0.056-0.357v-0.896h-1.988v0.754c0,0.197,0.028,0.433,0.04,0.499l0.541,0.032l-0.044,0.278
	c0,0-0.397-0.023-0.878-0.023c-0.12,0-0.709,0.023-0.709,0.023l-0.032-0.235l0.477-0.075c0.012-0.063,0.052-0.278,0.052-0.357v-2.03
	c0-0.078-0.04-0.299-0.052-0.357l-0.461-0.055l0.028-0.256c0,0,0.577,0.023,0.697,0.023c0.481,0,0.822-0.023,0.822-0.023
	l0.024,0.279l-0.469,0.031c-0.012,0.066-0.04,0.303-0.04,0.498v0.755l1.988-0.024v-0.871c0-0.078-0.041-0.299-0.056-0.357
	l-0.461-0.055l0.032-0.256c0,0,0.578,0.023,0.698,0.023c0.48,0,0.821-0.023,0.821-0.023L16.695,30.814z"/>
<path fill="#838383" d="M19.34,33.948c-1.302,0-1.972-0.706-1.972-1.728c0-1.025,0.669-1.732,1.972-1.732s1.972,0.707,1.972,1.732
	S20.643,33.948,19.34,33.948z M19.34,33.701c0.894,0,1.327-0.66,1.327-1.48c0-0.825-0.433-1.485-1.327-1.485
	c-0.894,0-1.326,0.66-1.326,1.485C18.01,33.041,18.442,33.701,19.34,33.701z"/>
<path fill="#838383" d="M24.703,31.297c-0.012-0.074-0.04-0.22-0.068-0.291c-0.008-0.031-0.061-0.098-0.121-0.16
	c-0.131-0.008-0.32-0.023-0.488-0.023h-0.389c-0.012,0.094-0.04,0.346-0.04,0.521v1.748c0,0.197,0.028,0.433,0.04,0.5l0.541,0.031
	l-0.04,0.278c0,0-0.397-0.023-0.877-0.023c-0.12,0-0.709,0.023-0.709,0.023l-0.028-0.235L23,33.592
	c0.012-0.063,0.052-0.279,0.052-0.358v-2.03c0-0.07-0.04-0.291-0.052-0.381h-0.38c-0.168,0-0.353,0.016-0.485,0.023
	c-0.06,0.063-0.116,0.125-0.12,0.16c-0.024,0.071-0.056,0.217-0.068,0.291l-0.349-0.023l0.041-0.68l0.116-0.086
	c0,0,0.565,0.047,0.686,0.047h1.771c0.12,0,0.685-0.047,0.685-0.047l0.113,0.086l0.039,0.68L24.703,31.297z"/>
<path fill="#838383" d="M25.557,30.535c0,0,0.578,0.023,0.697,0.023h1.347c0.12,0,0.685-0.047,0.685-0.047l0.113,0.086l0.04,0.641
	l-0.35,0.023c-0.012-0.074-0.043-0.185-0.067-0.256c-0.008-0.031-0.06-0.098-0.12-0.16c-0.133-0.008-0.316-0.023-0.485-0.023h-0.785
	c-0.013,0.098-0.04,0.338-0.04,0.521v0.668c0.1,0.004,0.208,0.008,0.256,0.008h0.438c0.119,0,0.36-0.043,0.36-0.043l0.056-0.311
	l0.277,0.023c0,0-0.008,0.303-0.008,0.397c0,0.235,0.016,0.515,0.016,0.515l-0.289,0.027l-0.056-0.314c0,0-0.36-0.027-0.481-0.027
	h-0.316c-0.056,0-0.156,0.004-0.256,0.016v0.789c0,0.189,0.027,0.429,0.04,0.52h0.865c0.188,0,0.393-0.024,0.525-0.044
	c0.06-0.067,0.115-0.134,0.123-0.177c0.017-0.07,0.077-0.24,0.093-0.314l0.328,0.023l-0.088,0.711l-0.111,0.087
	c0,0-0.566-0.02-0.686-0.02h-1.423c-0.119,0-0.709,0.023-0.709,0.023l-0.032-0.235l0.477-0.075c0.012-0.063,0.052-0.278,0.052-0.357
	v-2.03c0-0.078-0.04-0.299-0.052-0.357l-0.461-0.055L25.557,30.535z"/>
<path fill="#838383" d="M30.786,30.814l-0.469,0.031c-0.012,0.066-0.044,0.303-0.044,0.498v1.748c0,0.193,0.028,0.448,0.044,0.52
	h0.709c0.186,0,0.389-0.024,0.521-0.044c0.061-0.067,0.12-0.142,0.124-0.177c0.024-0.07,0.08-0.24,0.092-0.314l0.329,0.023
	l-0.088,0.711l-0.116,0.083c0,0-0.565-0.02-0.685-0.02h-1.268c-0.119,0-0.709,0.023-0.709,0.023l-0.032-0.235l0.474-0.075
	c0.012-0.063,0.052-0.278,0.052-0.357v-2.03c0-0.078-0.044-0.299-0.052-0.357l-0.462-0.055l0.028-0.256c0,0,0.578,0.023,0.697,0.023
	c0.481,0,0.822-0.023,0.822-0.023L30.786,30.814z"/>
<path fill="#838383" d="M33.096,33.002v0.224c0,0.056,0.035,0.208,0.067,0.311c0.208,0.067,0.484,0.126,0.781,0.126
	c0.481,0,0.794-0.209,0.794-0.59c0-0.773-2.052-0.703-2.052-1.721c0-0.564,0.557-0.871,1.302-0.871c0.394,0,0.83,0.074,1.216,0.148
	l-0.085,0.711l-0.353-0.027v-0.207c0-0.044-0.045-0.154-0.081-0.264c-0.252-0.082-0.444-0.103-0.718-0.103
	c-0.372,0-0.686,0.177-0.686,0.522c0,0.738,2.081,0.684,2.081,1.752c0,0.629-0.646,0.928-1.435,0.928
	c-0.806,0-1.322-0.248-1.322-0.248l0.088-0.727L33.096,33.002z"/>
<path fill="#838383" d="M21.979,35.096l0.373,1.119h1.202l-0.974,0.695l0.373,1.115l-0.973-0.691l-0.97,0.691l0.373-1.115
	l-0.974-0.695h1.203L21.979,35.096z"/>
<path fill="#838383" d="M26.006,35.096l0.373,1.119h1.202l-0.975,0.695l0.373,1.115l-0.974-0.691l-0.97,0.691l0.373-1.115
	l-0.975-0.695h1.202L26.006,35.096z"/>
<path fill="#838383" d="M30.033,35.096l0.374,1.119h1.201l-0.975,0.695l0.373,1.115l-0.974-0.691l-0.97,0.691l0.373-1.115
	l-0.975-0.695h1.203L30.033,35.096z"/>
<path fill="#838383" d="M17.95,35.096l0.373,1.119h1.202l-0.973,0.695l0.373,1.115l-0.974-0.691l-0.97,0.691l0.369-1.115
	l-0.97-0.695h1.202L17.95,35.096z"/>
<path fill="#838383" d="M41.267,25.248c0-9.466-7.879-17.184-17.533-17.184C14.079,8.064,6.2,15.782,6.2,25.248
	c0,9.467,7.879,17.185,17.534,17.185C33.388,42.433,41.267,34.715,41.267,25.248z M23.733,41.549
	c-9.162,0-16.632-7.321-16.632-16.301c0-8.979,7.47-16.3,16.632-16.3c9.161,0,16.632,7.321,16.632,16.3
	C40.365,34.228,32.895,41.549,23.733,41.549z M23.653,0.413c0-0.228,0.188-0.413,0.42-0.413c0.233,0,0.421,0.185,0.421,0.413
	c0,0.228-0.188,0.412-0.421,0.412C23.842,0.825,23.653,0.64,23.653,0.413z M23.2,3.146c0-1.001,0.389-1.811,0.874-1.811
	c0.481,0,0.874,0.813,0.874,1.811c0,1.002-0.389,1.811-0.874,1.811S23.2,4.148,23.2,3.146z M44.501,35.59
	c1.103-1.943,3.687-5.518,1.655-7.561c-0.212,0.311-0.577,0.519-0.986,0.519c-0.657,0-1.194-0.526-1.194-1.167
	c0.017-0.746,0.833-1.284,1.471-1.131C49.928,27.334,46.709,33.654,44.501,35.59z M37.628,9.419c3.619-2.667,6.532,3.653,6.669,6.5
	c-0.825-2.031-2-6.174-4.842-5.923c0.108,0.354,0.045,0.75-0.212,1.057c-0.408,0.491-1.146,0.562-1.647,0.165
	C37.023,10.743,37.114,9.8,37.628,9.419z M46.176,20.563c-0.364-0.197-0.612-0.574-0.612-1.01c0-0.632,0.525-1.151,1.17-1.151
	c0.646,0,1.054,0.526,1.175,1.151c0.5,2.667-4.178,3.834-5.171,0.369C44.129,21.87,45.246,21.882,46.176,20.563z M33.071,6.359
	c1.796-0.597,2.989,0.416,3.066,1.638c0.027,0.444-0.37,0.809-0.822,0.809s-0.989-0.393-0.821-0.809
	C34.946,6.862,34.374,6.43,33.071,6.359z M15.63,41.619c1.451,0.798,3.35,1.348,5.554,1.725c-2.588,0.797-5.626,3.406-8.708,0.75
	C14.279,44.243,15.545,43.58,15.63,41.619z M48,22.428v4.199c-1.303-1.143-2.688-1.575-3.904-0.824
	c-2.296,1.418-1.062,4.398,1.415,4.049c-0.028,1.599-0.437,2.828-1.218,3.685c-0.963-1.025-2.901-0.884-3.556,0.911
	c-0.657,1.811,1.399,3.17,2.458,2.902c-0.113,0.264-0.153,0.578-0.254,0.955c-0.356,1.3-1.233,1.508-2.283,0.538
	c-0.626-0.577-1.134-1.085-1.948-0.911c-1.508,0.322-1.764,2.372,0.212,3.028l-0.889,0.997c-0.717-0.75-0.794-1.9-2.979-1.736
	c4.789-3.33,7.923-8.802,7.923-14.973c0-10.102-8.407-18.347-18.715-18.347c-0.176,0-0.345,0-0.521,0
	c-10.312,0-18.72,8.241-18.72,18.347c0,6.171,3.134,11.643,7.923,14.973c-2.185-0.164-2.26,0.986-2.978,1.736l-0.89-0.997
	c1.976-0.656,1.719-2.706,0.212-3.028c-0.813-0.174-1.319,0.338-1.947,0.911c-1.054,0.97-1.928,0.762-2.285-0.538
	c-0.104-0.377-0.14-0.691-0.252-0.955c1.058,0.268,3.114-1.096,2.457-2.902c-0.653-1.795-2.597-1.937-3.555-0.911
	c-0.785-0.856-1.19-2.086-1.218-3.685c2.477,0.354,3.715-2.631,1.415-4.049C2.689,25.052,1.302,25.484,0,26.627v-4.199
	c2.128,0.746,4.088,0.609,5.122-1.139c0.886-1.497,0.77-2.832-0.361-3.739c-0.365-1.583,1.102-4.085,3.046-6.352
	c0.766,1.398,2.333,1.732,3.358,0.122c0.646-1.018-0.136-1.937-1.407-3.304c-0.749-0.809,1.684-1.85,1.395-0.825
	c-0.629,2.243,2.994,3.472,3.086,0.381c1.647,1.414,3.458,0.028,2.725-1.669c-0.589-1.363-0.357-2.27,0.81-2.777
	C16.957,4.847,17.437,6.033,18.5,6.52c1.182,0.542,1.875-0.946,0.725-1.92c-1.527-1.296,0.465-3.653,2.12-1.866
	c-1.815,1.049-0.361,4.281,1.563,3.88c0.345-1.174,1.868-1.167,2.209,0c1.923,0.405,3.378-2.828,1.563-3.88
	c1.655-1.783,3.646,0.573,2.12,1.866c-1.15,0.974-0.456,2.463,0.726,1.92c1.058-0.487,1.542-1.673,0.725-3.394
	c1.166,0.507,1.399,1.414,0.811,2.777c-0.734,1.697,1.073,3.087,2.726,1.669c0.091,3.091,3.714,1.862,3.086-0.381
	c-0.285-1.025,2.143,0.016,1.394,0.825c-1.27,1.371-2.052,2.286-1.406,3.304c1.021,1.614,2.593,1.276,3.358-0.122
	c1.943,2.267,3.41,4.769,3.046,6.352c-1.13,0.903-1.247,2.239-0.36,3.739C43.912,23.037,45.871,23.17,48,22.428z M26.803,43.344
	c2.205-0.377,4.104-0.927,5.551-1.725c0.084,1.957,1.352,2.624,3.159,2.475C32.426,46.75,29.393,44.141,26.803,43.344z
	 M37.729,43.147c-0.081,2.475-2.204,4.12-5.402,3.437c-2.325-0.494-4.686-2.223-6.288-1.857c-2.277,0.519,0.188,2.49,0.364,1.658
	c0.188-0.904,0.966-1.01,1.33,0.078c0.718,2.148-3.479,2.09-3.479-0.511v-2.36c2.557-0.476,4.461,1.308,6.341,1.869
	c4.26,1.272,7.162-1.241,5.767-2.71c-0.657-0.688-2.24-0.915-1.815,0.554c-1.808,0.004-1.712-1.41-0.766-1.976
	C35.897,40.061,37.792,41.234,37.729,43.147z M23.733,43.592v2.364c0,2.601-4.192,2.663-3.479,0.511
	c0.365-1.088,1.143-0.982,1.331-0.078c0.176,0.828,2.641-1.14,0.364-1.658c-1.607-0.365-3.963,1.359-6.288,1.857
	c-3.199,0.684-5.322-0.962-5.402-3.437c-0.064-1.909,1.831-3.083,3.952-1.818c0.945,0.565,1.042,1.979-0.766,1.976
	c0.425-1.469-1.158-1.241-1.815-0.554c-1.398,1.469,1.507,3.983,5.768,2.71C19.272,44.899,21.172,43.12,23.733,43.592z M3.482,35.59
	c-2.208-1.936-5.422-8.256-0.941-9.34c0.637-0.153,1.455,0.381,1.471,1.131c0,0.645-0.537,1.167-1.194,1.167
	c-0.413,0-0.774-0.204-0.99-0.519C-0.201,30.072,2.38,33.646,3.482,35.59z M3.691,15.919c0.132-2.848,3.046-9.167,6.669-6.5
	c0.517,0.381,0.605,1.324,0.036,1.799c-0.5,0.401-1.238,0.326-1.647-0.165c-0.252-0.307-0.32-0.703-0.212-1.057
	C5.69,9.745,4.516,13.889,3.691,15.919z M11.85,7.997c0.077-1.222,1.271-2.235,3.066-1.638c-1.302,0.07-1.879,0.502-1.418,1.638
	c0.167,0.413-0.374,0.809-0.822,0.809C12.219,8.802,11.822,8.441,11.85,7.997z M0.08,19.553c0.117-0.621,0.529-1.151,1.17-1.151
	c0.645,0,1.174,0.515,1.174,1.151c0,0.436-0.249,0.813-0.613,1.01c0.93,1.316,2.048,1.308,3.438-0.641
	C4.256,23.387-0.421,22.22,0.08,19.553z"/>
</svg>
