<?xml version="1.0" encoding="utf-8"?>
<!-- Generator: Adobe Illustrator 16.0.0, SVG Export Plug-In . SVG Version: 6.00 Build 0)  -->
<!DOCTYPE svg PUBLIC "-//W3C//DTD SVG 1.1//EN" "http://www.w3.org/Graphics/SVG/1.1/DTD/svg11.dtd">
<svg version="1.1" id="Layer_1" xmlns="http://www.w3.org/2000/svg" xmlns:xlink="http://www.w3.org/1999/xlink" x="0px" y="0px"
	 width="48px" height="48px" viewBox="0 0 48 48" enable-background="new 0 0 48 48" xml:space="preserve">
<path fill="#C8CACD" d="M15.049,44.248l-0.935,3.717h0.446l0.552-2.336l0.063-0.32l0.064,0.32l0.232,1.025h-0.615l0.127,0.531h0.616
	l0.19,0.779h0.468l-0.913-3.717H15.049z"/>
<path fill="#C8CACD" d="M18,47.221c-0.064,0.107-0.17,0.143-0.34,0.143h-0.318v-1.063h0.318c0.17,0,0.275,0.035,0.34,0.143
	c0.063,0.07,0.084,0.211,0.084,0.389S18.063,47.15,18,47.221z M17.32,44.85h0.318c0.148,0,0.233,0.037,0.297,0.105
	c0.064,0.07,0.085,0.178,0.085,0.354c0,0.178-0.021,0.283-0.085,0.391c-0.063,0.07-0.17,0.107-0.297,0.107H17.32V44.85z
	 M18.021,46.018c0.149-0.07,0.255-0.143,0.34-0.283c0.085-0.143,0.128-0.318,0.128-0.564c0-0.604-0.298-0.922-0.871-0.922h-0.742
	v3.717h0.764c0.297,0,0.531-0.105,0.68-0.283s0.212-0.461,0.212-0.779c0-0.283-0.042-0.496-0.128-0.635
	C18.318,46.123,18.19,46.053,18.021,46.018z"/>
<path fill="#C8CACD" d="M20.781,46.336c0,0.391-0.043,0.674-0.128,0.85c-0.085,0.178-0.212,0.283-0.403,0.283
	s-0.318-0.105-0.403-0.283c-0.085-0.176-0.128-0.459-0.128-0.85v-2.088h-0.445v2.088c0,0.602,0.085,1.027,0.254,1.311
	c0.17,0.283,0.404,0.424,0.723,0.424c0.297,0,0.552-0.141,0.722-0.424c0.19-0.283,0.276-0.709,0.276-1.311v-2.088h-0.446v2.088
	H20.781z"/>
<path fill="#C8CACD" d="M24.496,47.08c-0.106,0.176-0.318,0.283-0.615,0.283h-0.213v-2.477h0.213c0.297,0,0.487,0.105,0.594,0.316
	c0.105,0.213,0.17,0.531,0.17,0.955C24.666,46.551,24.623,46.867,24.496,47.08z M24.814,44.672c-0.213-0.283-0.51-0.424-0.913-0.424
	h-0.658v3.717h0.658c0.17,0,0.34-0.035,0.488-0.105c0.148-0.072,0.276-0.178,0.382-0.32c0.106-0.141,0.213-0.354,0.275-0.566
	c0.064-0.246,0.107-0.529,0.107-0.85C25.133,45.453,25.025,44.992,24.814,44.672z"/>
<path fill="#C8CACD" d="M26.322,44.248h-0.447v3.717h0.447V44.248z"/>
<path fill="#C8CACD" d="M27.299,45.734h-0.955l0.232,0.637h0.723v1.594h0.445v-3.717h-0.445V45.734z"/>
<path fill="#C8CACD" d="M29.293,44.248l-0.934,3.717h0.445l0.531-2.336l0.064-0.32l0.084,0.32l0.234,1.025h-0.615l0.127,0.531h0.615
	l0.17,0.779h0.488l-0.912-3.717H29.293z"/>
<path fill="#C8CACD" d="M32.244,47.221c-0.063,0.107-0.17,0.143-0.34,0.143h-0.318v-1.063h0.318c0.17,0,0.277,0.035,0.34,0.143
	c0.064,0.07,0.107,0.211,0.107,0.389C32.33,47.01,32.309,47.15,32.244,47.221z M31.566,44.85h0.318c0.148,0,0.232,0.037,0.297,0.105
	c0.063,0.07,0.084,0.178,0.084,0.354c0,0.178-0.021,0.283-0.084,0.391c-0.064,0.07-0.148,0.107-0.297,0.107h-0.318V44.85z
	 M32.266,46.018c0.148-0.07,0.256-0.143,0.34-0.283c0.086-0.143,0.127-0.318,0.127-0.564c0-0.604-0.297-0.922-0.869-0.922h-0.744
	v3.717h0.766c0.297,0,0.529-0.105,0.678-0.283s0.213-0.461,0.213-0.779c0-0.283-0.043-0.496-0.127-0.635
	C32.563,46.123,32.436,46.053,32.266,46.018z"/>
<path fill="#C8CACD" d="M33.986,44.248h-0.447v3.717h0.447V44.248z"/>
<path fill="#C8CACD" d="M26.959,2.583l-0.064-0.071l-0.572-0.991l-0.658,1.062l0.658,1.063L26.959,2.583z"/>
<path fill="#C8CACD" d="M28.232,2.583l-0.043-0.105l-0.594-0.956l-0.637,1.062l0.637,1.063L28.232,2.583z"/>
<path fill="#C8CACD" d="M19.507,2.371c0.021,0.248,0.128,0.318,0.212,0.389c0.106,0.107,0.255,0.212,0.255,0.532v8.177h5.435v0.177
	c0,0.036,0,0.106,0,0.212c0,0.637,0.129,1.097,0.383,1.274c0,0,0.127,0.107,0.297,0.107c0.127,0,0.275-0.071,0.383-0.212
	l0.084-0.106l-0.084-0.107c-0.148-0.212-0.213-0.778-0.213-1.239v-0.106h2.039V3.964c0,0-0.277,0.991-1.254,2.194
	c0,0,0.043,0.319,0.213,0.496c0.254,0.248,0.234,0.46,0.234,0.46v3.009h-1.211c0-0.036,0-0.106,0-0.177V9.805
	c0-0.743-0.148-2.513-1.359-2.513c-0.021,0-0.043,0-0.064,0c-0.381,0-0.7,0.035-0.997,0.035h-0.064
	c-0.722,0-1.104-0.142-1.188-0.425L22.564,6.76L22.5,6.831c-0.127,0.142-0.212,0.425-0.212,0.744c0,0.496,0.169,1.026,0.446,1.063
	c0.19,0,0.445,0.035,0.7,0.035c0.467,0,0.935,0,0.935,0c1.02,0,1.02,0.708,1.039,1.063v0.389h-4.606V0.141
	c0,0-0.552,1.203-1.295,2.124V2.3C19.507,2.3,19.507,2.336,19.507,2.371z"/>
<path fill="#C8CACD" d="M16.365,12.601c0,0-0.086,1.204,1.4,1.204c1.211,0,1.253-1.274,1.253-1.274s0-4.637,0-4.672
	c0-0.283-0.042-1.133-0.552-1.133h-4.246V6.229c0-0.106,0.063-0.177,0.105-0.212c0.256-0.248,0.298-0.495,0.213-0.566
	c-0.51-0.496-0.998-1.522-0.998-1.522v4.106h4.246c0,0,0.021,0,0.043,0c0.127,0,0.318,0.071,0.318,0.531v3.257
	c0,0.035,0,0.708-0.425,0.708c-0.68,0-0.638-0.566-0.638-0.566v-1.84h-3.502v1.416h2.781V12.601z"/>
<path fill="#C8CACD" d="M34.07,3.256c0.021-0.354,0.127-0.46,0.234-0.531c0.105-0.071,0.191-0.176,0.211-0.425V2.194
	c0-0.142-0.063-0.177-0.127-0.212c-0.063-0.071-0.213-0.212-0.467-0.566c-0.445-0.637-0.553-0.92-0.553-0.92L33.221,0.07v11.398
	h0.85C34.07,11.469,34.07,3.503,34.07,3.256z"/>
<path fill="#C8CACD" d="M31.205,12.955l-0.574,0.956l-0.572-0.956L30.631,12L31.205,12.955z M29.23,12.955l1.4,2.337l1.381-2.337
	l-0.871-1.452l1.041-1.84V0.07c0,0-0.383,1.452-1.063,2.195v0.071c0.021,0.213,0.086,0.318,0.17,0.389
	c0.086,0.106,0.191,0.213,0.191,0.566c0,0.284,0,5.77,0,5.77l-0.85,1.488l-0.869-1.488c0-0.106-0.021-5.521,0-5.77
	c0-0.353,0.105-0.46,0.189-0.566c0.086-0.071,0.15-0.176,0.17-0.389V2.229c-0.615-0.708-1.061-2.159-1.061-2.159v9.734l1.041,1.699
	L29.23,12.955z"/>
<path fill="#C8CACD" d="M26.789,18.017l0.213,0.212c0.063,0.071,0.063,0.106,0.063,0.142v2.974h-3.928l-0.891,1.876v-4.85v-0.106
	c0,0,0.021-0.036,0.042-0.036l0.19-0.177H22.5V17.77h-1.953v0.283l0.191,0.212C20.76,18.3,20.781,18.3,20.781,18.3v8.92v0.107
	c0,0.033-0.021,0.033-0.043,0.07l-0.191,0.213v0.283H22.5v-0.283l-0.212-0.213c-0.042-0.037-0.042-0.037-0.042-0.037v-4.14
	l0.211,0.106l0.277-0.248c0.042-0.036,0.084-0.071,0.127-0.107c0.021,0,0.042-0.035,0.105-0.035h4.098v3.15l1.443-2.654v-5.168
	c0-0.036,0.021-0.071,0.021-0.071l0.213-0.177v-0.283h-1.975v0.283H26.789z"/>
<path fill="#C8CACD" d="M47.934,21.664c-0.234-1.204-0.764-2.195-1.57-2.974c-0.723-0.672-1.764-1.027-3.164-1.027h-5.35v0.284
	l0.232,0.248v1.062h5.096c1.041,0,1.783,0.212,2.25,0.672c0.723,0.708,1.084,1.628,1.084,2.832c0,0.602-0.107,1.133-0.277,1.628
	c-0.189,0.459-0.467,0.885-0.848,1.203c-0.488,0.424-1.254,0.637-2.23,0.637h-2.652v-6.193h-1.465v7.15v0.107
	c0,0.035-0.021,0.035-0.043,0.068l-0.17,0.18l-0.021,0.033v0.283h4.352c0.85,0,1.508-0.068,1.953-0.246
	c0.637-0.213,1.189-0.602,1.678-1.133c0.488-0.533,0.828-1.17,1.041-1.877c0.148-0.496,0.232-1.062,0.232-1.664
	C48.039,22.477,48.018,22.053,47.934,21.664z"/>
<path fill="#C8CACD" d="M31.48,19.575l-4.734,8.25h2.188v-0.355h-0.086c-0.043,0-0.063,0-0.105,0s-0.064-0.035-0.086-0.035
	l3.674-6.372L31.48,19.575z"/>
<path fill="#C8CACD" d="M36.32,27.506v0.354h2.188l-5.775-10.161l-0.848,1.487l0.934,1.664l0.977,1.628H32.16l-0.893,1.557
	l0.191,0.213l0.213-0.178c0.021,0,0.043-0.035,0.063-0.035c0.021,0,0.064,0,0.15,0h2.801l1.932,3.434c0,0-0.02,0.072-0.189,0.072
	H36.32V27.506z"/>
<path fill="#C8CACD" d="M19.635,18.194l0.17-0.212v-0.283h-1.953v0.283l0.19,0.212c0.042,0.036,0.063,0.107,0.063,0.142v8.814v0.107
	c-0.021,0.035-0.043,0.07-0.043,0.07l-0.19,0.213v0.283h1.933v-0.283l-0.17-0.213c-0.043,0-0.043-0.035-0.064-0.035v-8.921v-0.107
	L19.635,18.194z"/>
<path fill="#C8CACD" d="M9.975,25.875H9.89H9.678l-0.255,0.248c-0.063,0.072-0.106,0.107-0.106,0.107l-4.352,0.035
	c-0.998,0-1.762-0.215-2.25-0.637c-0.743-0.639-1.125-1.594-1.125-2.833c0-0.565,0.106-1.097,0.297-1.592
	c0.382-0.921,0.913-1.558,1.698-1.806c0.212-0.07,0.403-0.07,0.531-0.07h2.25c0.127,0,0.106,0.035,0.127,0.07l-0.021,0.248h0.191
	l0.955-1.947H4.901c-0.616,0-1.104,0.036-1.444,0.106c-0.169,0.035-0.339,0.071-0.509,0.142c-0.446,0.177-0.871,0.46-1.274,0.814
	c-0.658,0.637-1.125,1.416-1.401,2.336c-0.127,0.566-0.212,1.168-0.212,1.806c0,1.628,0.531,2.937,1.571,3.892
	c0.467,0.426,0.998,0.746,1.571,0.887c0.424,0.107,1.019,0.178,1.762,0.178H9.02L9.975,25.875z"/>
<path fill="#C8CACD" d="M7.746,23.469l0.956-1.982H2.332L1.695,23.08h5.732c0.106,0.036,0.148,0.071,0.148,0.106l-0.021,0.283H7.746
	z"/>
<path fill="#C8CACD" d="M8.256,17.699L7.363,19.54l0.191,0.106h0.021l0.276-0.248c0.085-0.07,0.149-0.141,0.234-0.141h3.523v7.858
	l-0.021,0.105c-0.021,0.107-0.042,0.107-0.063,0.107l-0.19,0.213v0.283h1.953v-0.283l-0.213-0.213l-0.043-0.07
	c0-0.037,0-0.037,0-0.072v-7.858h3.121c0.127,0.035,0.127,0.07,0.127,0.07v0.283h0.17l0.977-1.947h-9.17V17.699z"/>
<path fill="#C8CACD" d="M10.42,32.813L8.935,39.01h0.7l0.893-3.895l0.084-0.531l0.106,0.531l0.403,1.734h-0.998l0.213,0.885h0.977
	l0.297,1.275h0.764l-1.465-6.197H10.42z"/>
<path fill="#C8CACD" d="M14.922,32.813h-0.723v6.23h0.723V32.813z"/>
<path fill="#C8CACD" d="M18.34,36.143h-0.468v-2.371h0.468c0.232,0,0.381,0.105,0.467,0.283c0.084,0.211,0.148,0.494,0.148,0.85
	C18.955,35.719,18.764,36.143,18.34,36.143z M18.934,36.816c0.233-0.145,0.425-0.428,0.552-0.781
	c0.128-0.354,0.191-0.777,0.191-1.273c0-0.672-0.106-1.168-0.34-1.486s-0.573-0.496-0.997-0.496H17.15v6.23h0.722v-2.055h0.403
	l0.85,2.055h0.807L18.934,36.816z"/>
<path fill="#C8CACD" d="M25.621,32.813l-0.679,4.426H24.92l-0.871-4.426h-0.722l0.191,0.959l-0.658,3.467H22.84l-0.68-4.426h-0.764
	L22.5,39.01h0.595l0.743-3.824l0.764,3.824h0.615l1.127-6.197H25.621z"/>
<path fill="#C8CACD" d="M29.018,32.813l-1.486,6.197h0.701l0.893-3.895l0.105-0.531l0.084,0.531l0.404,1.734h-0.977l0.191,0.885
	h0.977l0.297,1.275h0.764l-1.465-6.197H29.018z"/>
<path fill="#C8CACD" d="M33.625,35.398l-0.807-2.586h-0.807l1.209,3.648v2.549h0.744v-2.549l1.209-3.648h-0.721L33.625,35.398z"/>
<path fill="#C8CACD" d="M38.189,35.328l-0.127-0.072c-0.234-0.105-0.383-0.211-0.469-0.318c-0.084-0.105-0.127-0.283-0.127-0.531
	s0.043-0.459,0.148-0.566c0.086-0.105,0.256-0.176,0.467-0.176c0.191,0,0.383,0.07,0.574,0.176c0.17,0.143,0.318,0.285,0.424,0.426
	V32.99c-0.232-0.283-0.551-0.389-0.955-0.389c-0.424,0-0.764,0.176-0.977,0.494c-0.232,0.355-0.34,0.814-0.34,1.418
	c0,0.92,0.318,1.52,0.936,1.77l0.127,0.07c0.232,0.072,0.381,0.178,0.467,0.318c0.084,0.143,0.127,0.283,0.127,0.531
	c0,0.566-0.232,0.887-0.68,0.887c-0.361,0-0.68-0.215-0.977-0.639v1.275c0.234,0.283,0.553,0.424,0.955,0.424
	c0.469,0,0.807-0.178,1.041-0.566s0.361-0.885,0.361-1.521c0-0.496-0.086-0.885-0.234-1.133
	C38.762,35.682,38.529,35.469,38.189,35.328z"/>
</svg>
