<?xml version="1.0" encoding="utf-8"?>
<!-- Generator: Adobe Illustrator 16.0.0, SVG Export Plug-In . SVG Version: 6.00 Build 0)  -->
<!DOCTYPE svg PUBLIC "-//W3C//DTD SVG 1.1//EN" "http://www.w3.org/Graphics/SVG/1.1/DTD/svg11.dtd">
<svg version="1.1" id="Layer_1" xmlns="http://www.w3.org/2000/svg" xmlns:xlink="http://www.w3.org/1999/xlink" x="0px" y="0px"
	 width="48px" height="48px" viewBox="0 0 48 48" enable-background="new 0 0 48 48" xml:space="preserve">
<g>
	<path fill="#838383" d="M42.633,30.736c-1.164,0.625-2.027,1.638-2.59,3.016c-0.66-2.245,0.219-3.933,2.627-5.008
		c1.969-0.876,3.141-1.576,3.922-2.329c0.443-0.426,1.465-1.563,1.406-2.94c-0.037-0.823-0.455-1.559-1.232-2.196
		c-0.926-0.748-2.178-1.479-3.75-2.307c0.914-0.438,2.764-1.527,3.328-3.333c0.395-1.284,0.072-2.657-0.969-4.083l-0.191-0.261
		l-0.307,0.097c-0.111,0.031-2.553,0.819-3.461,2.962c-0.477,1.133-0.424,2.417,0.145,3.825c-1.801-1.089-2.076-1.926-1.895-3.427
		c0.082-0.682,0.586-1.599,1.072-2.484l0.254-0.469c1.01-1.882,1.646-3.569-0.777-5.229c-1.764-1.208-4.055-0.833-7.777,0.089
		c0.189-0.855,0.363-2.449-0.502-3.856c-0.803-1.302-2.291-2.112-4.422-2.409L27.172,0.35l-0.137,0.306
		c-0.031,0.075-0.84,1.921,0.092,3.799c0.568,1.146,1.65,2.032,3.215,2.652c-1.264,0.142-2.318-0.084-3.137-0.678
		c-1.766-1.279-2.228-3.967-2.306-6L24.877,0h-1.71l-0.018,0.42c-0.077,2.032-0.536,4.72-2.3,6
		c-0.823,0.598-1.878,0.824-3.142,0.682c1.564-0.615,2.646-1.5,3.219-2.652c0.932-1.873,0.123-3.719,0.091-3.799l-0.141-0.306
		L20.54,0.39c-2.132,0.297-3.627,1.107-4.428,2.413c-0.864,1.403-0.691,3.001-0.496,3.852c-4.142-1.032-6.492-1.386-8.342,0.354
		c-1.746,1.651-1.205,3.046-0.318,4.693l0.354,0.651c0.478,0.854,0.969,1.744,1.068,2.413c0.223,1.412-0.013,2.271-1.9,3.418
		c0.573-1.408,0.627-2.688,0.146-3.83c-0.904-2.144-3.351-2.931-3.455-2.962l-0.318-0.097l-0.187,0.261
		c-1.032,1.426-1.354,2.802-0.955,4.083c0.568,1.806,2.405,2.891,3.318,3.333c-1.358,0.704-2.745,1.426-3.677,2.25
		c-0.832,0.735-1.264,1.536-1.287,2.382c-0.027,0.925,0.441,1.873,1.387,2.811c0.823,0.815,2.069,1.555,3.928,2.333
		c2.469,1.031,3.328,2.67,2.628,4.99c-0.563-1.368-1.432-2.387-2.586-3.006c-2.246-1.199-4.737-0.51-4.842-0.479L0.205,30.36
		l0.05,0.372c0.223,1.615,0.923,2.83,2.086,3.612c1.75,1.169,4.033,1.023,5.074,0.877l-0.041,0.093
		c-0.664,1.479-1.414,3.152-0.978,4.648c0.346,1.188,1.287,2.091,2.655,2.537c1.918,0.629,4.214,0.511,7.21-0.376
		c1.754-0.518,3.255-0.491,4.387,0.059c-0.023-0.005-0.046-0.005-0.068-0.01c0.082,0.036,0.155,0.071,0.232,0.11
		c-2.078-0.133-3.764,0.288-5.019,1.263c-1.769,1.372-2,3.33-2.009,3.408l-0.041,0.408l0.409,0.092
		c2.042,0.479,3.778,0.275,5.151-0.605c1.778-1.142,2.396-3.056,2.563-3.725c0.105,0.133,0.187,0.258,0.241,0.355
		c0-0.005,0.005-0.014,0.009-0.022c0.659,0.983,1.009,2.373,1.009,4.104V48h1.805v-0.438c0-1.594,0.295-2.896,0.854-3.861
		c0,0,0.119-0.354,0.496-0.756c0.086,0.415,0.631,2.635,2.605,3.899c1.377,0.881,3.109,1.085,5.156,0.607l0.408-0.094l-0.045-0.407
		c-0.01-0.084-0.236-2.037-2.01-3.409c-1.301-1.01-3.068-1.421-5.252-1.244c0.119-0.063,0.25-0.124,0.393-0.177
		c1.113-0.487,2.559-0.496,4.246,0c3.072,0.907,5.344,1.031,7.168,0.395c1.801-0.63,2.459-1.736,2.695-2.556
		c0.434-1.496-0.316-3.174-0.977-4.649l-0.041-0.092c1.037,0.146,3.328,0.296,5.088-0.878c1.164-0.777,1.869-1.997,2.092-3.611
		l0.049-0.373l-0.373-0.106C47.375,30.223,44.877,29.528,42.633,30.736z M2.851,33.619c-0.705-0.475-1.191-1.174-1.463-2.054
		l5.096,2.863C5.442,34.478,3.983,34.38,2.851,33.619z M2.046,30.918c0.813-0.044,1.918,0.035,2.941,0.589
		c0.854,0.46,1.509,1.2,1.982,2.179L2.046,30.918z M45.102,12.818c0.328,0.602,0.502,1.186,0.502,1.744
		c0,0.279-0.041,0.553-0.123,0.814c-0.369,1.191-1.486,2.028-2.318,2.51L45.102,12.818z M42.244,14.695
		c0.418-1.001,1.281-1.652,1.949-2.028l-1.891,4.941c-0.209-0.567-0.32-1.107-0.32-1.612C41.982,15.532,42.07,15.103,42.244,14.695z
		 M31.154,3.246c0.404,0.66,0.529,1.39,0.529,2.027c0,0.284-0.025,0.541-0.057,0.766l-3.168-4.538
		C29.719,1.837,30.637,2.413,31.154,3.246z M27.939,4.078c-0.271-0.54-0.357-1.094-0.357-1.571c0-0.235,0.021-0.443,0.049-0.629
		l3.07,4.397C29.35,5.743,28.408,5.017,27.939,4.078z M20.467,2.506c0,0.478-0.086,1.031-0.359,1.571
		c-0.469,0.939-1.41,1.665-2.76,2.192l3.069-4.396C20.448,2.063,20.467,2.271,20.467,2.506z M16.889,3.25
		c0.519-0.841,1.437-1.412,2.7-1.753l-3.173,4.542c-0.032-0.23-0.059-0.487-0.059-0.77C16.357,4.631,16.484,3.905,16.889,3.25z
		 M2.573,15.377c-0.082-0.266-0.123-0.54-0.123-0.823c0-0.554,0.173-1.134,0.495-1.735l1.941,5.065
		C4.051,17.405,2.942,16.568,2.573,15.377z M3.841,12.663c0.678,0.38,1.532,1.031,1.955,2.028c0.168,0.408,0.255,0.837,0.255,1.302
		c0,0.504-0.104,1.041-0.314,1.611L3.841,12.663z M16.398,44.268c0.868-0.669,2.018-1.011,3.41-1.05l-4.747,2.776
		C15.298,45.454,15.703,44.803,16.398,44.268z M18.767,46.074c-0.855,0.544-1.905,0.762-3.114,0.664l4.946-2.896
		C20.285,44.559,19.722,45.463,18.767,46.074z M31.783,44.268c0.695,0.535,1.1,1.187,1.336,1.722l-4.75-2.771
		C29.76,43.257,30.914,43.599,31.783,44.268z M32.533,46.738c-1.211,0.093-2.26-0.12-3.115-0.664
		c-0.953-0.611-1.518-1.516-1.832-2.227L32.533,46.738z M40.775,39.725c-0.26,0.898-0.979,1.56-2.133,1.966
		c-1.627,0.57-3.729,0.442-6.602-0.406c-2.34-0.688-4.322-0.506-5.736,0.517c-1.411,1.019-2.178,2.865-2.26,5.331
		c-0.018,0-0.018,0-0.037,0c-0.086-2.466-0.854-4.308-2.264-5.326c-1.418-1.022-3.401-1.205-5.747-0.519
		c-2.81,0.833-4.928,0.952-6.665,0.386c-0.759-0.253-1.741-0.787-2.073-1.943c-0.345-1.192,0.337-2.715,0.937-4.057l0.459-1.067
		c1.187-3.06,0.173-5.362-2.923-6.663c-1.746-0.73-2.905-1.407-3.642-2.143c-0.768-0.761-1.146-1.488-1.132-2.165
		c0.018-0.598,0.354-1.191,0.996-1.758c0.868-0.775,2.255-1.488,3.587-2.178l0.523-0.271c2.769-1.448,3.546-2.607,3.205-4.791
		c-0.127-0.823-0.632-1.736-1.168-2.701l-0.346-0.638C6.878,9.683,6.633,8.851,7.897,7.646c1.519-1.43,3.446-1.156,8.028,0v0.005
		h0.009c0.127,0.031,0.25,0.062,0.382,0.092c2.073,0.527,3.778,0.319,5.069-0.615c1.909-1.381,2.496-4.029,2.637-6.185
		c0.141,2.156,0.732,4.808,2.638,6.189c1.289,0.935,2.994,1.143,5.059,0.616c0.133-0.036,0.26-0.066,0.383-0.093h0.018V7.651
		C36,6.672,38.152,6.238,39.684,7.297c1.678,1.146,1.592,2.077,0.5,4.104c0-0.005-0.25,0.465-0.25,0.465
		c-0.527,0.956-1.072,1.943-1.176,2.793c-0.27,2.231,0.48,3.348,3.213,4.777c1.574,0.819,3.164,1.687,4.205,2.528
		c0.578,0.469,0.887,0.992,0.908,1.559c0.047,1.058-0.854,2.015-1.137,2.281c-0.699,0.677-1.799,1.318-3.664,2.156
		c-3.867,1.722-3.723,4.569-2.912,6.654l0.457,1.067C40.438,37.011,41.117,38.533,40.775,39.725z M43.057,31.511
		c1.027-0.553,2.137-0.633,2.951-0.588L41.07,33.69C41.553,32.711,42.203,31.967,43.057,31.511z M45.197,33.619
		c-1.133,0.761-2.59,0.858-3.629,0.807l5.102-2.865C46.385,32.445,45.902,33.145,45.197,33.619z M34.27,5.278
		c0.74,0,1.336-0.584,1.336-1.302c0-0.718-0.6-1.302-1.336-1.302s-1.338,0.584-1.338,1.302C32.928,4.693,33.529,5.278,34.27,5.278z
		 M34.27,3.551c0.236,0,0.436,0.19,0.436,0.425c0,0.234-0.199,0.425-0.436,0.425c-0.242,0-0.436-0.19-0.436-0.425
		C33.834,3.741,34.027,3.551,34.27,3.551z M13.72,5.278c0.737,0,1.337-0.584,1.337-1.302c0-0.718-0.596-1.302-1.337-1.302
		c-0.741,0-1.336,0.584-1.336,1.302C12.379,4.693,12.979,5.278,13.72,5.278z M13.72,3.551c0.241,0,0.437,0.19,0.437,0.425
		c0,0.234-0.195,0.425-0.437,0.425c-0.241,0-0.436-0.19-0.436-0.425C13.28,3.741,13.479,3.551,13.72,3.551z M1.341,20.035
		c0.737,0,1.336-0.584,1.336-1.301c0-0.717-0.596-1.302-1.336-1.302C0.601,17.427,0,18.011,0,18.729
		C0,19.446,0.601,20.035,1.341,20.035z M1.341,18.308c0.241,0,0.432,0.187,0.432,0.425c0,0.235-0.19,0.42-0.432,0.42
		s-0.437-0.186-0.437-0.42C0.905,18.495,1.1,18.308,1.341,18.308z M4.401,35.683c-0.736,0-1.332,0.584-1.332,1.302
		c0,0.716,0.601,1.302,1.332,1.302c0.741,0,1.341-0.586,1.341-1.302C5.742,36.267,5.138,35.683,4.401,35.683z M4.401,37.404
		c-0.241,0-0.432-0.19-0.432-0.425s0.191-0.425,0.432-0.425c0.246,0,0.441,0.19,0.441,0.425C4.842,37.219,4.646,37.404,4.401,37.404
		z M43.314,35.683c-0.734,0-1.334,0.584-1.334,1.302c0,0.716,0.604,1.302,1.334,1.302c0.738,0,1.338-0.586,1.338-1.302
		C44.652,36.267,44.053,35.683,43.314,35.683z M43.314,37.404c-0.24,0-0.436-0.19-0.436-0.425s0.195-0.425,0.436-0.425
		c0.242,0,0.438,0.19,0.438,0.425C43.748,37.219,43.553,37.404,43.314,37.404z M45.045,18.729c0,0.718,0.598,1.302,1.334,1.302
		c0.738,0,1.342-0.584,1.342-1.302c0-0.717-0.604-1.301-1.342-1.301C45.639,17.427,45.045,18.011,45.045,18.729z M46.816,18.729
		c0,0.235-0.195,0.421-0.438,0.421c-0.238,0-0.436-0.186-0.436-0.421c0-0.234,0.197-0.425,0.436-0.425
		C46.621,18.308,46.816,18.495,46.816,18.729z M14.193,44.556c0-0.718-0.6-1.303-1.341-1.303c-0.737,0-1.337,0.585-1.337,1.303
		c0,0.717,0.6,1.301,1.337,1.301C13.589,45.853,14.193,45.272,14.193,44.556z M12.853,44.977c-0.241,0-0.433-0.191-0.433-0.426
		c0-0.23,0.196-0.426,0.433-0.426c0.24,0,0.437,0.19,0.437,0.426C13.289,44.789,13.093,44.977,12.853,44.977z M35.324,43.249
		c-0.736,0-1.338,0.584-1.338,1.302c0,0.717,0.602,1.302,1.338,1.302s1.336-0.585,1.336-1.302
		C36.666,43.833,36.064,43.249,35.324,43.249z M35.324,44.977c-0.242,0-0.438-0.191-0.438-0.426c0-0.23,0.195-0.426,0.438-0.426
		c0.24,0,0.436,0.19,0.436,0.426C35.76,44.789,35.564,44.977,35.324,44.977z"/>
	<path fill="#838383" d="M24.467,24.804c0.014,0.014,0.023,0.031,0.032,0.058c0.005,0.018,0.009,0.035,0.009,0.048
		c0,0.071-0.059,0.107-0.182,0.107c-0.068,0.003-0.263,0-0.591-0.022c-0.328-0.021-0.56-0.036-0.682-0.036
		c-0.213,0-0.532,0.02-0.959,0.05c-0.159,0.012-0.273,0.017-0.341,0.009c-0.114,0-0.168-0.039-0.168-0.115
		c0-0.031,0.009-0.059,0.032-0.075c0.019-0.027,0.164-0.138,0.427-0.341c0.205-0.155,0.31-0.297,0.31-0.416v-8.479
		c-0.374,0.155-0.801,0.271-1.282,0.341c-0.482,0.071-0.959,0.106-1.433,0.106c-0.531,0-1.15-0.076-1.854-0.222
		c-0.705-0.151-1.323-0.341-1.855-0.571v8.829c0,0.124,0.101,0.262,0.305,0.408c0.268,0.199,0.409,0.305,0.422,0.323
		c0.014,0.014,0.023,0.031,0.032,0.058c0.004,0.018,0.009,0.035,0.009,0.048c0,0.071-0.06,0.107-0.182,0.107
		c-0.068,0.003-0.264,0-0.596-0.022c-0.332-0.021-0.559-0.036-0.687-0.036c-0.213,0-0.532,0.02-0.959,0.05
		c-0.159,0.012-0.272,0.017-0.341,0.009c-0.114,0-0.168-0.039-0.168-0.115c0-0.031,0.009-0.059,0.032-0.075
		c0.018-0.027,0.164-0.138,0.427-0.341c0.205-0.155,0.309-0.297,0.309-0.416v-8.9c-0.095-0.013-0.173-0.018-0.241-0.018
		c-0.437,0-0.836,0.102-1.196,0.301c-0.427,0.239-0.641,0.553-0.641,0.943c0,0.186,0.041,0.341,0.132,0.456
		c0.054,0.071,0.136,0.137,0.25,0.204c0.114,0.062,0.264,0.098,0.459,0.098c0.086,0,0.146-0.005,0.182-0.018
		c0.082-0.018,0.119,0.004,0.119,0.066c0,0.04-0.027,0.08-0.078,0.124c-0.113,0.097-0.236,0.173-0.368,0.235
		c-0.2,0.088-0.405,0.137-0.609,0.137c-0.332,0-0.613-0.088-0.845-0.261c-0.287-0.213-0.428-0.514-0.428-0.903
		c0-0.434,0.118-0.806,0.359-1.116c0.205-0.261,0.504-0.492,0.896-0.691c0.205-0.11,0.459-0.199,0.759-0.261
		c0.373-0.084,0.791-0.129,1.254-0.129v-1.961c0-0.124-0.1-0.262-0.3-0.417c-0.146-0.111-0.29-0.222-0.44-0.341
		c-0.019-0.027-0.022-0.066-0.014-0.115c0.009-0.053,0.059-0.075,0.155-0.075c0.068-0.009,0.268,0,0.6,0.022
		c0.332,0.022,0.569,0.036,0.7,0.036c0.269,0,0.541-0.009,0.819-0.031c0.277-0.018,0.432-0.031,0.463-0.031
		c0.118,0,0.182,0.035,0.182,0.106c0,0.04-0.013,0.075-0.041,0.106c-0.014,0.018-0.15,0.128-0.414,0.319
		c-0.209,0.155-0.313,0.297-0.313,0.416v2.081c0.523,0.239,1.164,0.456,1.914,0.647c0.75,0.19,1.422,0.287,2.014,0.287
		c0.473,0,0.836-0.021,1.096-0.066c0.405-0.07,0.873-0.221,1.396-0.456v-2.488c0-0.124-0.101-0.262-0.3-0.417
		c-0.146-0.111-0.291-0.222-0.437-0.341c-0.018-0.027-0.027-0.066-0.014-0.115c0.009-0.053,0.06-0.075,0.155-0.075
		c0.068-0.009,0.269,0,0.6,0.022c0.332,0.022,0.564,0.036,0.7,0.036c0.264,0,0.537-0.009,0.814-0.031
		c0.277-0.018,0.432-0.031,0.464-0.031c0.118,0,0.181,0.035,0.181,0.106c0,0.04-0.013,0.075-0.041,0.106
		c-0.013,0.018-0.15,0.128-0.409,0.319c-0.205,0.155-0.309,0.297-0.309,0.416v11.707c0,0.124,0.1,0.261,0.3,0.407
		C24.313,24.675,24.454,24.785,24.467,24.804z"/>
	<path fill="#838383" d="M36.738,20.659c0,1.359-0.588,2.488-1.756,3.392c-1.104,0.851-2.412,1.271-3.928,1.271
		c-1.381,0-2.549-0.323-3.5-0.969c-1.059-0.726-1.586-1.709-1.586-2.954c0-0.872,0.367-1.625,1.1-2.249
		c0.736-0.624,1.617-0.938,2.65-0.938c1.006,0,1.818,0.186,2.445,0.562c0.699,0.421,1.045,1.019,1.045,1.789
		c0,0.562-0.234,1.031-0.703,1.403s-1.016,0.558-1.633,0.558c-0.563,0-1.041-0.101-1.428-0.31c-0.459-0.248-0.688-0.598-0.688-1.049
		c0-0.274,0.119-0.5,0.352-0.682c0.178-0.142,0.34-0.222,0.477-0.244c0.143-0.018,0.215-0.031,0.229-0.031
		c0.055,0,0.076,0.018,0.076,0.058c-0.014,0.04-0.027,0.079-0.041,0.115c-0.008,0.013-0.018,0.053-0.041,0.115
		c-0.039,0.128-0.059,0.27-0.059,0.429c0,0.199,0.104,0.372,0.314,0.518c0.209,0.146,0.436,0.217,0.682,0.217
		c0.414,0,0.754-0.124,1.027-0.367c0.271-0.248,0.408-0.549,0.408-0.912c0-0.545-0.277-0.97-0.828-1.271
		c-0.477-0.266-1.053-0.398-1.721-0.398c-0.859,0-1.602,0.248-2.223,0.739c-0.66,0.518-0.988,1.165-0.988,1.943
		c0,1.01,0.496,1.82,1.486,2.426c0.887,0.545,1.938,0.814,3.164,0.814c1.242,0,2.311-0.375,3.201-1.124
		c0.924-0.775,1.387-1.74,1.387-2.896c0-0.629-0.154-1.178-0.459-1.652c-0.264-0.416-0.672-0.814-1.227-1.195
		c-0.377-0.266-0.955-0.593-1.729-0.979c-0.982-0.451-1.963-0.912-2.941-1.368c-0.992-0.563-1.486-1.227-1.486-1.993
		c0-0.757,0.395-1.346,1.186-1.766c0.688-0.363,1.52-0.545,2.506-0.545c0.75,0,1.346,0.08,1.787,0.244
		c0.605,0.221,0.908,0.584,0.908,1.098c0,0.208-0.086,0.394-0.256,0.558c-0.168,0.164-0.316,0.252-0.449,0.266
		c-0.131,0.013-0.223,0.018-0.285,0.018c-0.146,0-0.268-0.022-0.367-0.066c-0.074-0.053-0.109-0.084-0.109-0.098
		c0-0.031,0.021-0.071,0.066-0.115c0.096-0.088,0.16-0.186,0.201-0.288s0.059-0.204,0.059-0.314c0-0.319-0.178-0.558-0.537-0.718
		c-0.285-0.128-0.645-0.19-1.076-0.19c-0.701,0-1.283,0.106-1.746,0.318c-0.564,0.257-0.846,0.633-0.846,1.116
		c0,0.354,0.203,0.682,0.609,0.983c0.285,0.208,0.787,0.461,1.496,0.766c1.059,0.447,1.672,0.712,1.846,0.797
		c0.891,0.421,1.568,0.806,2.035,1.156c0.629,0.465,1.086,0.996,1.387,1.584C36.564,18.902,36.738,19.708,36.738,20.659z"/>
	<path fill="#838383" d="M31.887,38.428c0,0.278-0.154,0.5-0.459,0.66c-0.268,0.141-0.578,0.211-0.938,0.211
		c-0.822,0-1.572-0.203-2.24-0.609c-0.604-0.368-1.127-0.892-1.564-1.564c-0.227-0.354-0.418-0.805-0.576-1.351
		c-0.047-0.163-0.16-0.642-0.342-1.446c-0.127-0.571-0.26-1.023-0.4-1.36c-0.203,0.059-0.414,0.105-0.622,0.142
		c-0.21,0.035-0.415,0.055-0.615,0.055c-0.454,0-0.813-0.071-1.091-0.214c-0.327-0.168-0.491-0.42-0.491-0.757
		c0-0.296,0.159-0.536,0.477-0.709c0.273-0.15,0.601-0.225,0.977-0.225c0.355,0,0.696,0.07,1.024,0.207
		c0.332,0.138,0.596,0.35,0.795,0.63c0.654-0.324,1.213-0.833,1.672-1.528C28,29.812,28.25,29.005,28.25,28.15
		c0-1.257-0.441-2.307-1.328-3.147c-0.885-0.842-2.018-1.262-3.4-1.262c-0.736,0-1.305,0.031-1.696,0.088
		c-0.604,0.089-1.205,0.284-1.795,0.572c-0.419,0.208-0.787,0.46-1.096,0.766c-0.373,0.367-0.56,0.721-0.56,1.058
		c-0.004,0.08-0.009,0.128-0.009,0.155c0,0.182,0.041,0.34,0.123,0.478c0.082,0.138,0.205,0.204,0.364,0.204
		c0.141,0,0.25-0.035,0.327-0.106c0.082-0.071,0.141-0.204,0.191-0.398c0.018-0.076,0.05-0.115,0.091-0.115
		c0.041,0,0.068,0.027,0.09,0.079c0.105,0.125,0.16,0.297,0.16,0.527c0,0.262-0.101,0.479-0.3,0.66
		c-0.2,0.182-0.441,0.273-0.718,0.273c-0.327,0-0.591-0.123-0.791-0.367c-0.205-0.247-0.305-0.543-0.305-0.895
		c0-0.562,0.209-1.088,0.628-1.57c0.327-0.381,0.772-0.731,1.345-1.05c0.736-0.407,1.496-0.691,2.273-0.846
		c0.619-0.124,1.391-0.186,2.314-0.186c1.568,0,2.906,0.434,4.002,1.301c1.135,0.899,1.703,2.019,1.703,3.361
		c0,1.119-0.371,2.151-1.117,3.09c-0.664,0.842-1.496,1.466-2.492,1.864c0.242,0.297,0.465,0.654,0.678,1.067
		c0.213,0.416,0.422,0.894,0.637,1.439c0.326,0.823,0.555,1.367,0.686,1.641c0.305,0.63,0.615,1.107,0.928,1.439
		c0.387,0.408,0.805,0.612,1.254,0.612c0.168,0,0.324-0.035,0.469-0.106c0.146-0.071,0.229-0.178,0.25-0.319
		c0-0.115-0.008-0.203-0.021-0.257c-0.02-0.053-0.047-0.105-0.092-0.154c-0.041-0.049-0.064-0.084-0.064-0.111
		c0-0.031,0.029-0.058,0.084-0.08c0.145-0.025,0.316,0.018,0.518,0.13C31.787,38.077,31.887,38.231,31.887,38.428z M22.604,36.775
		c0.014,0.015,0.023,0.036,0.032,0.066c0.004,0.022,0.009,0.04,0.009,0.054c0,0.074-0.059,0.11-0.182,0.11
		c-0.068,0.009-0.264,0-0.596-0.021c-0.332-0.022-0.559-0.054-0.686-0.093c-0.213,0-0.536,0.017-0.959,0.048
		c-0.159,0.014-0.272,0.019-0.341,0.009c-0.114,0-0.168-0.04-0.168-0.116c0-0.03,0.009-0.057,0.032-0.078
		c0.018-0.027,0.164-0.138,0.427-0.341c0.205-0.154,0.309-0.297,0.309-0.417v-9.054c0-0.199-0.059-0.346-0.182-0.438
		c-0.014-0.014-0.118-0.063-0.318-0.146c-0.068-0.026-0.1-0.057-0.1-0.098c0-0.03,0.041-0.084,0.123-0.154
		c0.19-0.102,0.368-0.199,0.518-0.284c0.114-0.057,0.282-0.154,0.5-0.292c0.218-0.137,0.519-0.35,0.9-0.642
		c0.186-0.142,0.3-0.221,0.341-0.244c0.068-0.018,0.114-0.013,0.141,0.018c0.027,0.031,0.027,0.076,0,0.137
		c-0.168,0.297-0.3,0.553-0.392,0.775c-0.09,0.216-0.136,0.425-0.136,0.629v9.798c0,0.125,0.101,0.258,0.305,0.407
		C22.449,36.633,22.59,36.758,22.604,36.775z M25.113,32.401c-0.082-0.194-0.228-0.354-0.451-0.479
		c-0.218-0.124-0.45-0.186-0.686-0.186c-0.187,0-0.35,0.039-0.5,0.115c-0.146,0.075-0.218,0.186-0.218,0.332
		c0,0.173,0.1,0.301,0.3,0.38c0.155,0.059,0.35,0.089,0.595,0.089c0.15,0,0.318-0.022,0.499-0.066
		C24.84,32.542,24.996,32.48,25.113,32.401z"/>
</g>
</svg>
