<svg width="48" height="13" viewBox="0 0 48 13" fill="none" xmlns="http://www.w3.org/2000/svg">
<path d="M46.0341 0L38.9643 12.2401H40.9329L48 0H46.0341Z" fill="#C8CACD"/>
<path d="M38.9644 12.2403L46.0342 0.000213623H38.1694L31.1012 12.2403H38.9644Z" fill="#828282"/>
<path d="M13.7 4.07728C13.7196 3.97944 13.8132 3.89808 13.919 3.89808C14.0126 3.89808 14.1004 3.96827 14.1318 4.05122L16.3795 12.2388H20.062L21.938 1.59874H20.3167L18.8735 9.7916C18.8543 9.89476 18.7687 9.97559 18.6592 9.97559C18.5597 9.97559 18.4746 9.9038 18.4486 9.81181L16.1961 1.59874H12.5152L10.6397 12.2388H12.2589L13.7 4.07728ZM7.41277 8.63129L7.09798 3.86404C7.09532 3.75822 7.02457 3.65772 6.91875 3.62954C6.80176 3.60029 6.68213 3.66144 6.63586 3.76567L1.83459 12.2388H0L6.03127 1.5982H9.57597L10.2854 12.2388H7.65418L7.57709 11.079C7.56433 10.8312 7.37873 10.6344 7.13199 10.6344H3.15231L4.04992 9.04713H7.03417C7.25219 9.04713 7.42925 8.8557 7.41277 8.63129ZM27.4203 8.65389L27.0013 3.93078C26.9901 3.80741 26.889 3.71329 26.762 3.71329C26.6769 3.71329 26.6008 3.75743 26.5567 3.82443L22.2345 12.2385H20.4414L25.9021 1.59847H29.4468L30.3902 12.2385H27.7388L27.6351 11.0782C27.6154 10.8288 27.4346 10.6352 27.19 10.6352H23.4587L24.2733 9.0474H27.0385C27.2645 9.0474 27.4426 8.8533 27.4203 8.65389Z" fill="#828282"/>
</svg>
