<?xml version="1.0" encoding="utf-8"?>
<!-- Generator: Adobe Illustrator 16.0.0, SVG Export Plug-In . SVG Version: 6.00 Build 0)  -->
<!DOCTYPE svg PUBLIC "-//W3C//DTD SVG 1.1//EN" "http://www.w3.org/Graphics/SVG/1.1/DTD/svg11.dtd">
<svg version="1.1" id="Layer_1" xmlns="http://www.w3.org/2000/svg" xmlns:xlink="http://www.w3.org/1999/xlink" x="0px" y="0px"
	 width="48px" height="48px" viewBox="0 0 48 48" enable-background="new 0 0 48 48" xml:space="preserve">
<path fill="#838383" d="M26.936,2.835c-0.391,0.735-0.608,1.638-0.608,2.562c0,0.315,0,7.769,0,8.042
	c-0.028,0.609-0.188,1.176-0.448,1.659c-0.144,0.209-0.998,1.322-1.069,1.448l0.478,0.021c0.159-0.21,1.808-2.331,1.967-2.624
	c0.477-0.756,0.751-1.743,0.751-2.772c0-0.335,0-7.412,0-7.727c-0.015-0.777,0.188-1.553,0.563-2.121
	c0.203-0.314,0.838-1.092,0.954-1.281l-0.506-0.021C28.915,0.21,27.108,2.583,26.936,2.835z"/>
<path fill="#838383" d="M22.873,32.084l2.009,2.541h1.345c1.287,0,2.529-0.734,3.441-2.059c0.823-1.197,1.128-2.813,1.128-4.324
	v-4.179c-0.015-0.944-0.29-1.848-0.782-2.477c-0.086-0.127-0.679-0.946-0.679-0.946v3.213c0,0,0.65,0.967,0.767,1.155
	c0.592,0.924,0.592,2.604-1.301,5.27c-0.333,0.463-1.273,1.766-2.574,1.766L22.873,32.084z"/>
<path fill="#838383" d="M28.467,14.929c-0.217,0.336-0.433,1.175-0.433,1.932v1.575h1.099c0.433,0,0.998-0.567,1.112-0.861
	c0-0.021,0-1.575,0-1.575c0.159,0.336,0.362,0.651,0.593,0.903c0.116-0.21,1.128-1.974,1.967-1.995
	c1.402-0.021,1.084,2.562,0.521,3.38c-0.188,0.273-1.013,1.365-1.272,1.723c-0.664,0.923-1.808,0.482-1.808-1.891
	c0,0-1.213,1.68-1.401,1.91c-0.188,0.231-0.81,1.198-0.81,1.198v4.179c0,1.994-0.448,2.666-0.825,3.273
	c-0.144,0.23-1.69,2.291-1.908,2.52l-0.506,0.023c0,0,0.911-1.197,1.084-1.473c0.203-0.313,0.448-0.943,0.448-1.994
	c0-0.271-0.028-6.55-0.028-6.55h-7.056c-2.458,0-2.978-3.947-2.993-5.018c0-0.315,0-3.465,0-3.969c0-0.651-0.289-1.743-0.737-2.079
	h0.694c0.087,0.042,0.521,0.294,0.521,2.729c0,0-0.029,2.814-0.029,2.982c0,1.238,0.68,2.646,1.648,2.646l7.98-0.021
	c0-0.315,0.218-1.491,0.608-2.121c0.216-0.357,1.938-2.625,2.124-2.855h0.506c-0.071,0.105-0.91,1.176-1.083,1.469L28.467,14.929z
	 M31.084,17.302c0.202,0.398,0.435,0.798,0.679,1.154c0.868,1.008,1.274-0.084,0.695-1.218
	C32.227,16.777,31.344,16.903,31.084,17.302z"/>
<path fill="#838383" d="M22.525,24.778c0,0.566-1.229,2.056-1.301,2.14c-0.086-0.607-0.405-1.258-1.315-2.603l1.344-1.952
	C22.164,23.685,22.525,23.979,22.525,24.778z"/>
<path fill="#838383" d="M24.868,2.331c0.274,0.399,0.852,1.449,0.505,1.974c-0.304,0.441-0.78,1.155-0.78,1.155
	c-0.029-0.252-0.477-0.882-0.477-0.882s0,1.89,0,2.121c-0.015,0.861-0.232,1.092-0.232,1.092s1.084,1.554,1.084,3.57
	c0,0.966,0,1.869,0,2.058c0.015,0.378-0.088,0.777-0.274,1.05c-0.102,0.168-1.099,1.637-1.258,1.827
	c-0.231,0.293-0.521,0.461-0.824,0.44h-3.745c-0.592,0-1.2-0.672-1.2-1.344c0-0.167,0.015-2.016,0.015-2.016
	c0.188,0.315,0.39,0.692,0.853,0.692c0.376,0,0.752-0.419,0.853-0.587s2.833-4.284,2.833-4.284s-1.272-1.722-2.11-2.541
	c-0.405-0.399-0.954,0.105-1.041,0.629c-0.26,1.638,0,4.116,0,4.116l-1.027-1.491c-0.419-0.608-0.404-1.974,0.101-2.688
	c0.072-0.125,0.839-1.343,1.793-1.343h1.489c0.998,0,2.096,1.449,2.096,1.449c0.087-0.148,0.145-0.315,0.159-0.504
	c0-0.756-0.015-2.751-0.015-2.751c-0.751-1.092-0.853-2.226-0.492-2.75C23.855,0.336,24.102,0,24.102,0S24.072,1.197,24.868,2.331z
	 M20.169,13.249c-0.376,0.567-0.434,0.693-0.781,1.008h4.222c1.141,0,0.911-1.029,0.708-1.554c-0.419-1.071-1.75-3.045-1.75-3.045
	S20.241,13.144,20.169,13.249z"/>
<path fill="#838383" d="M15.354,18.835h-0.694c0,0,0.737,0.587,0.737,2.12v4.892c0,3.172,1.807,6.111,4.004,6.111h1.836
	c1.099,0,1.489-0.379,2.154-1.238c0.246-0.316,0.563-0.842,0.679-1.029c0.376-0.631,0.796-1.133,0.796-2.773v-1.594
	c0-1.387-0.55-1.954-0.825-2.353c-0.173-0.252-0.636-0.902-0.636-0.902v3.275c0,0,0.463,0.715,0.665,0.945
	c0.955,1.092,0.202,2.982-0.694,2.982c-0.174,0-3.773,0-4.034,0c-1.475,0.041-3.484-1.869-3.484-5.103v-2.646
	C15.875,18.835,15.354,18.835,15.354,18.835z"/>
<path fill="#838383" d="M19.778,24.797c0,0.568-1.229,2.058-1.301,2.144c-0.087-0.611-0.405-1.262-1.316-2.605l1.345-1.953
	C19.402,23.685,19.778,23.979,19.778,24.797z"/>
<path fill="#838383" d="M5.683,46.529H3.514c-0.679,0-0.622-0.818-0.694-1.51v-4.494c0,0,0.477-0.021,1.012-0.021
	c0.593,0,1.345-0.127,2.067,0.461c-0.375-1.154-1.185-1.869-2.067-1.826H2.834v-1.447c0,0,0-1.262-0.217-1.617h1.431
	c1.229,0,2.184-0.021,3.181,0.924c0,0-0.188-2.373-2.573-2.373H0c0,0,0.81,1.008,0.781,3.045l0.029,8.189
	c0,2.057,0.564,2.119,0.564,2.119h4.583c1.041,0,1.402-1.07,1.402-1.658l0.015-0.777C7.374,45.543,7.042,46.529,5.683,46.529z"/>
<path fill="#838383" d="M17.884,45.838v-5.732c0-2.227-1.243-2.813-2.183-2.813c-1.229,0-1.605,1.49-1.764,2.014
	c-0.275-1.385-1.244-2.014-2.024-2.014c-1.489,0-1.865,2.055-1.865,2.055s-0.028-1.994-1.229-1.994H7.648c0,0,0.68,0.4,0.68,2.121
	v6.363c0,2.1,0.579,2.141,0.579,2.141h1.937c-0.463-0.504-0.737-1.301-0.737-2.162v-5.648c0.029-0.252,0.318-1.092,1.142-1.092
	c0.477,0,0.998,0.715,0.983,1.512v5.25c0,2.121,0.579,2.141,0.579,2.141h1.938c-0.463-0.523-0.737-1.301-0.737-2.162v-5.648
	c0.188-0.82,0.795-1.281,1.374-1.008c0.433,0.211,0.737,0.777,0.751,1.449c0,0,0,4.787,0,5.229c0.014,2.141,0.578,2.121,0.578,2.121
	c1.012,0,1.938,0,1.938,0C18.174,47.455,17.899,46.678,17.884,45.838z"/>
<path fill="#838383" d="M21.268,45.838c0,0.84,0.275,1.637,0.737,2.141c0,0-0.925,0-1.938,0c0,0-0.592,0.021-0.592-2.119v-6.404
	c0-1.68-0.666-2.121-0.666-2.121h1.171c0.419,0,1.272,0,1.272,2.373v6.088L21.268,45.838z"/>
<path fill="#838383" d="M27.225,38.152c0,0-0.188-0.758-0.984-0.758c-1.213,0-1.503,2.102-1.503,2.102
	c-0.101-1.658-0.405-2.143-1.257-2.143h-1.172c0,0,0.68,0.4,0.68,2.121v6.363c0,2.1,0.578,2.141,0.578,2.141h1.938
	c-0.463-0.504-0.737-1.301-0.737-2.141v-5.229c0.043-0.441,0.217-0.84,0.477-1.07c0.65-0.631,1.504-0.443,2.011,0.42L27.225,38.152z
	"/>
<path fill="#838383" d="M36.231,38.529c0.404,0,0.795,0.148,1.142,0.422v-1.598h-1.618V34.92c-0.348,0.797-0.796,1.51-1.302,2.121
	c-0.55,0.65-1.706,1.469-1.706,1.469l1.229,0.02v7.393c0,2.057,0.592,2.057,0.592,2.057c1.056,0,1.924,0,1.924,0
	c-0.464-0.482-0.737-1.258-0.752-2.078v-7.371C36.26,38.529,35.914,38.529,36.231,38.529z"/>
<path fill="#838383" d="M42.101,41.742c-1.083,1.637-1.938,1.385-2.617,2.604c0,0,0.117,1.639,0.969,2.205
	c0.289,0.189,1.489,0.818,2.256-1.111v1.721c0,0-0.491,0.84-2.067,0.84c-1.894,0-3.195-2.162-3.195-5.102
	c0-2.898,1.056-5.564,3.065-5.586C42.463,37.27,43.532,39.58,42.101,41.742z M40.915,41.072c0.317-0.863,0.579-3.045-0.52-2.92
	c-1.273,0.146-1.026,5.039-1.026,5.039C39.787,42.52,40.423,42.373,40.915,41.072z"/>
<path fill="#838383" d="M20.371,36.494c0.492-0.021,0.868-0.609,0.868-1.303c-0.015-0.713-0.419-1.26-0.896-1.26
	c-0.478,0.021-0.868,0.588-0.868,1.281C19.475,35.926,19.88,36.494,20.371,36.494z"/>
<path fill="#838383" d="M29.233,46.762c-0.433,0-0.751-0.672-0.751-1.346c0-2.643,1.489-3.023,1.894-3.715v4.473
	C30.188,46.383,30.014,46.762,29.233,46.762z M30.376,40.672c-0.448,1.135-3.947,1.387-3.412,5.313
	C27.181,47.539,27.89,48,28.785,48c0.868,0,1.402-0.65,1.619-1.279c0.13,1.174,0.55,1.258,0.55,1.258c1.012,0,1.937,0,1.937,0
	c-0.462-0.504-0.751-1.281-0.751-2.119v-5.984c0-1.43-1.084-2.541-2.24-2.541c-0.651-0.021-1.273,0.252-1.808,0.775v1.85
	c0,0,0.404-1.471,1.402-1.471c0.983,0,1.056,0.715,1.056,1.07C30.563,39.938,30.521,40.336,30.376,40.672z"/>
<path fill="#838383" d="M46.381,45.08c0.014,0.758-0.448,1.744-1.433,1.744c-1.012,0-1.416-1.49-1.416-1.49v1.891
	c0.55,0.502,1.186,0.754,1.835,0.754c1.316,0,2.662-1.449,2.633-3.486c-0.016-0.67-0.174-1.322-0.448-1.846
	c-0.448-0.861-1.258-1.471-1.895-2.037c-0.361-0.316-0.55-0.902-0.55-1.094c-0.014-0.355,0.116-1.07,1.085-1.07
	c0.953,0,1.373,1.471,1.373,1.471v-1.785c-0.534-0.545-1.185-0.838-1.851-0.838c-1.156,0-2.212,1.111-2.183,2.539
	c0.015,1.26,0.376,2.059,1.084,2.834c0.318,0.336,0.65,0.629,0.998,0.904C46.163,44.01,46.365,44.557,46.381,45.08z"/>
</svg>
