<svg width="66" height="48" viewBox="0 0 66 48" fill="none" xmlns="http://www.w3.org/2000/svg">
<path d="M28.0648 32.6121C28.0648 32.6121 28.5023 33.8204 28.983 34.089C28.983 34.089 28.1558 34.3965 27.4931 33.5433C26.8305 32.6901 27.06 31.9668 26.562 31.5294C26.562 31.5294 28.2684 31.2262 28.905 32.5601C29.2991 33.3873 29.1519 33.7035 29.1519 33.7035C29.1519 33.7035 28.6105 32.7983 28.0648 32.6121ZM28.5109 35.2756C27.8483 35.5355 26.3714 34.9335 26.3714 34.9335C27.0167 34.5394 28.3117 34.7689 28.3117 34.7689C28.3117 34.7689 28.1558 34.3445 27.06 34.0327C25.2973 33.5259 24.0847 35.5355 24.0847 35.5355C24.9119 35.4056 25.371 36.2674 26.7222 36.3324C28.0692 36.3887 28.5109 35.2756 28.5109 35.2756ZM25.0072 30.451C25.0072 30.451 25.1501 30.1348 24.743 29.3119C24.089 27.991 22.3869 28.3115 22.3869 28.3115C22.8893 28.7402 22.6685 29.4678 23.3441 30.3124C24.0197 31.1569 24.8426 30.8364 24.8426 30.8364C24.3575 30.5722 23.9028 29.3726 23.9028 29.3726C24.4528 29.5545 25.0072 30.451 25.0072 30.451ZM22.2397 31.7199C22.8763 31.3172 24.1756 31.5294 24.1756 31.5294C24.1756 31.5294 24.011 31.1049 22.911 30.8061C21.144 30.3254 19.9573 32.3479 19.9573 32.3479C20.7845 32.2093 21.2522 33.0625 22.6035 33.1058C23.9547 33.1491 24.3835 32.0274 24.3835 32.0274C23.7252 32.3003 22.2397 31.7199 22.2397 31.7199ZM21.2912 28.2985C21.2912 28.2985 21.5294 28.0516 21.4125 27.1334C21.2219 25.6523 19.5198 25.3404 19.5198 25.3404C19.8533 25.9251 19.4116 26.5314 19.7754 27.5665C20.1392 28.6016 21.014 28.6016 21.014 28.6016C20.6416 28.1772 20.6026 26.8866 20.6026 26.8866C21.0573 27.2504 21.2912 28.2985 21.2912 28.2985ZM20.1911 29.5588C19.4852 29.5718 18.2769 28.4847 18.2769 28.4847C19.0045 28.3375 20.1565 29.0088 20.1565 29.0088C20.1565 29.0088 20.1392 28.554 19.2037 27.8697C17.6965 26.7783 15.9338 28.2508 15.9338 28.2508C16.7567 28.4197 16.9213 29.3942 18.1772 29.9269C19.4332 30.451 20.1911 29.5588 20.1911 29.5588ZM18.9785 23.8679C19.2773 22.4084 17.7788 21.4945 17.7788 21.4945C17.9044 22.1658 17.2937 22.5729 17.3024 23.6773C17.3067 24.7817 18.1296 25.1022 18.1296 25.1022C17.9174 24.5695 18.2985 23.3395 18.2985 23.3395C18.606 23.8506 18.4891 24.916 18.4891 24.916C18.4891 24.916 18.7922 24.7774 18.9785 23.8679ZM17.0512 25.7086C16.3842 25.4617 15.596 24.0022 15.596 24.0022C16.3279 24.1278 17.1941 25.1759 17.1941 25.1759C17.1941 25.1759 17.3241 24.7384 16.6657 23.7596C15.6003 22.1832 13.4695 22.9281 13.4695 22.9281C14.1884 23.3828 14.0282 24.3573 15.0373 25.3144C16.0464 26.2716 17.0512 25.7086 17.0512 25.7086ZM17.7442 19.9224C18.4934 18.6578 17.3804 17.2589 17.3804 17.2589C17.2807 17.9345 16.5791 18.0991 16.2283 19.1385C15.8775 20.1779 16.5488 20.7799 16.5488 20.7799C16.5228 20.1996 17.2764 19.1818 17.2764 19.1818C17.402 19.7752 16.9473 20.7366 16.9473 20.7366C16.9473 20.7366 17.2764 20.7063 17.7442 19.9224ZM15.3448 20.9488C14.7948 20.4768 14.5263 18.818 14.5263 18.818C15.1759 19.2035 15.6523 20.5028 15.6523 20.5028C15.6523 20.5028 15.9165 20.1433 15.609 18.9826C15.1153 17.1159 12.8718 17.038 12.8718 17.038C13.4002 17.7266 12.9368 18.5885 13.5778 19.8531C14.2144 21.1177 15.3448 20.9488 15.3448 20.9488ZM17.8568 15.7604C18.9698 14.8465 18.3721 13.1228 18.3721 13.1228C18.0603 13.7248 17.35 13.6209 16.6831 14.4697C16.0161 15.3229 16.4535 16.1285 16.4535 16.1285C16.6138 15.5741 17.6489 14.8942 17.6489 14.8942C17.5796 15.4962 16.839 16.2368 16.839 16.2368C16.839 16.2368 17.1638 16.332 17.8568 15.7604ZM13.9589 14.1839C14.1538 15.6044 15.2668 15.8556 15.2668 15.8556C14.903 15.2103 15.1846 13.5602 15.1846 13.5602C15.6696 14.1579 15.6999 15.5525 15.6999 15.5525C15.6999 15.5525 16.0637 15.3099 16.1504 14.1059C16.289 12.1743 14.2058 11.2865 14.2058 11.2865C14.4786 12.1267 13.7683 12.7633 13.9589 14.1839ZM17.8654 11.7326C18.1946 11.2692 19.3899 11.005 19.3899 11.005C19.1257 11.5463 18.1989 11.9708 18.1989 11.9708C18.1989 11.9708 18.4674 12.1743 19.299 11.8928C20.6416 11.4381 20.6329 9.60173 20.6329 9.60173C20.1478 10.0522 19.5112 9.69701 18.6147 10.2557C17.7138 10.8187 17.8654 11.7326 17.8654 11.7326ZM16.839 11.0439C16.7047 10.3077 17.5016 8.85681 17.5016 8.85681C17.7658 9.59307 17.3414 10.914 17.3414 10.914C17.3414 10.914 17.7615 10.8144 18.2292 9.71867C18.9828 7.95164 17.3111 6.36218 17.3111 6.36218C17.2981 7.25002 16.4232 7.59217 16.146 8.9954C15.8732 10.403 16.839 11.0439 16.839 11.0439ZM21.7763 6.21492C20.7498 6.41415 20.5983 7.32798 20.5983 7.32798C21.053 7.01182 22.2613 7.19805 22.2613 7.19805C21.8412 7.60949 20.8321 7.67446 20.8321 7.67446C20.8321 7.67446 21.0184 7.96463 21.8932 8.00361C23.3008 8.06424 23.8855 6.33619 23.8855 6.33619C23.2878 6.58306 22.8027 6.0157 21.7763 6.21492ZM21.1829 4.49553C21.1916 5.28377 20.3687 6.37084 20.3687 6.37084C20.3687 6.37084 20.7931 6.43147 21.5857 5.56961C22.8633 4.1837 21.8023 2.08319 21.8023 2.08319C21.5034 2.91473 20.5723 2.91473 19.862 4.13606C19.1517 5.35739 19.849 6.3102 19.849 6.3102C19.9659 5.56961 21.1829 4.49553 21.1829 4.49553ZM24.2059 4.4912C24.7387 4.36127 25.8127 4.97627 25.8127 4.97627C25.2844 5.21014 24.3142 4.90264 24.3142 4.90264C24.3142 4.90264 24.3965 5.24479 25.2064 5.5956C26.51 6.16295 27.6144 4.75106 27.6144 4.75106C26.9691 4.76405 26.6962 4.05811 25.6698 3.87188C24.6434 3.68564 24.2059 4.4912 24.2059 4.4912ZM25.6698 2.03988C25.4229 2.78481 24.3012 3.50808 24.3012 3.50808C24.3012 3.50808 24.6823 3.72029 25.7045 3.19625C27.3502 2.35604 27.0341 0 27.0341 0C26.484 0.671298 25.6092 0.333484 24.5481 1.22566C23.487 2.11351 23.8378 3.26554 23.8378 3.26554C24.18 2.60724 25.6698 2.03988 25.6698 2.03988ZM29.9748 2.00956C29.4204 2.53361 28.1081 2.58991 28.1081 2.58991C28.1081 2.58991 28.3463 2.97104 29.4767 3.04033C31.3001 3.15294 32.0969 0.926825 32.0969 0.926825C31.3087 1.23432 30.698 0.489398 29.3598 0.718939C28.0258 0.952811 27.8093 2.13949 27.8093 2.13949C28.4113 1.74104 29.9748 2.00956 29.9748 2.00956ZM37.1598 34.089C37.1598 34.089 37.987 34.3965 38.6497 33.5433C39.3123 32.6901 39.0871 31.9668 39.5808 31.5294C39.5808 31.5294 37.8744 31.2262 37.2378 32.5601C36.8393 33.3873 36.9909 33.7035 36.9909 33.7035C36.9909 33.7035 37.5366 32.7983 38.078 32.6121C38.078 32.6121 37.6406 33.8161 37.1598 34.089ZM39.0914 34.0283C37.9957 34.3402 37.8398 34.7646 37.8398 34.7646C37.8398 34.7646 39.1348 34.5351 39.7801 34.9292C39.7801 34.9292 38.3032 35.5312 37.6406 35.2713C37.6406 35.2713 38.0823 36.3844 39.4293 36.3237C40.7805 36.2631 41.2396 35.3969 42.0668 35.5268C42.0625 35.5312 40.8541 33.5259 39.0914 34.0283ZM41.3002 30.8407C41.3002 30.8407 42.1231 31.1569 42.7987 30.3167C43.4744 29.4722 43.2535 28.7446 43.7559 28.3158C43.7559 28.3158 42.0538 27.991 41.3998 29.3162C40.9927 30.1391 41.1357 30.4553 41.1357 30.4553C41.1357 30.4553 41.69 29.5588 42.24 29.3769C42.24 29.3726 41.7853 30.5766 41.3002 30.8407ZM43.2318 30.8061C42.1318 31.1049 41.9672 31.5294 41.9672 31.5294C41.9672 31.5294 43.2665 31.3172 43.9031 31.7199C43.9031 31.7199 42.4176 32.3003 41.7593 32.0318C41.7593 32.0318 42.1881 33.1535 43.5393 33.1102C44.8906 33.0669 45.3583 32.2093 46.1856 32.3522C46.1856 32.3522 45.0032 30.3254 43.2318 30.8061ZM44.7347 27.1291C44.6177 28.0473 44.8559 28.2941 44.8559 28.2941C44.8559 28.2941 45.0898 27.2504 45.5446 26.8823C45.5446 26.8823 45.5056 28.1772 45.1331 28.5973C45.1331 28.5973 46.008 28.5973 46.3718 27.5622C46.7313 26.5271 46.2938 25.9208 46.6273 25.3361C46.6273 25.3361 44.9252 25.6523 44.7347 27.1291ZM46.9391 27.8697C45.9993 28.5497 45.9863 29.0088 45.9863 29.0088C45.9863 29.0088 47.1384 28.3418 47.866 28.4847C47.866 28.4847 46.6576 29.5718 45.9517 29.5588C45.9517 29.5588 46.7139 30.4553 47.9699 29.9226C49.2259 29.3899 49.3905 28.4154 50.2133 28.2465C50.2133 28.2465 48.4463 26.774 46.9391 27.8697ZM48.8448 23.6817C48.8491 22.5773 48.2428 22.1702 48.364 21.4989C48.364 21.4989 46.8655 22.4127 47.1644 23.8722C47.3506 24.7817 47.6537 24.9247 47.6537 24.9247C47.6537 24.9247 47.5368 23.8592 47.8443 23.3482C47.8443 23.3482 48.2254 24.5782 48.0132 25.1109C48.0175 25.1066 48.8404 24.7861 48.8448 23.6817ZM49.4771 23.764C48.8144 24.7428 48.9487 25.1802 48.9487 25.1802C48.9487 25.1802 49.8149 24.1321 50.5468 24.0065C50.5468 24.0065 49.7629 25.466 49.0916 25.7129C49.0916 25.7129 50.0964 26.2759 51.1055 25.3231C52.1146 24.366 51.9544 23.3915 52.6733 22.9367C52.6733 22.9324 50.5425 22.1875 49.4771 23.764ZM49.5983 20.7756C49.5983 20.7756 50.2696 20.1779 49.9188 19.1342C49.568 18.0904 48.8621 17.9302 48.7668 17.2545C48.7668 17.2545 47.6494 18.6578 48.403 19.9181C48.8707 20.702 49.1999 20.728 49.1999 20.728C49.1999 20.728 48.7451 19.7708 48.8707 19.1731C48.8751 19.1775 49.6287 20.1953 49.5983 20.7756ZM52.5694 19.8531C53.2104 18.5885 52.7426 17.7309 53.2753 17.038C53.2753 17.038 51.0319 17.1159 50.5382 18.9826C50.2307 20.1433 50.4949 20.5028 50.4949 20.5028C50.4949 20.5028 50.9713 19.2035 51.6209 18.818C51.6209 18.818 51.3524 20.4724 50.8067 20.9488C50.8023 20.9488 51.9284 21.1177 52.5694 19.8531ZM49.6893 16.1285C49.6893 16.1285 50.1267 15.3229 49.4641 14.4697C48.7971 13.6209 48.0868 13.7205 47.775 13.1228C47.775 13.1228 47.1773 14.8465 48.2904 15.7604C48.9833 16.3277 49.2995 16.2368 49.2995 16.2368C49.2995 16.2368 48.5632 15.5005 48.4896 14.8942C48.494 14.8942 49.5334 15.5785 49.6893 16.1285ZM49.9968 14.1059C50.0834 15.3099 50.4472 15.5525 50.4472 15.5525C50.4472 15.5525 50.4775 14.1579 50.9626 13.5602C50.9626 13.5602 51.2441 15.2147 50.8803 15.8556C50.8803 15.8556 51.9934 15.6044 52.1883 14.1839C52.3832 12.7633 51.6685 12.1267 51.9457 11.2865C51.9414 11.2865 49.8582 12.17 49.9968 14.1059ZM46.8482 11.8971C47.6797 12.1787 47.9483 11.9751 47.9483 11.9751C47.9483 11.9751 47.0214 11.5507 46.7572 11.0093C46.7572 11.0093 47.9526 11.2735 48.2817 11.7369C48.2817 11.7369 48.4333 10.8187 47.5368 10.26C46.636 9.70134 46.0037 10.0608 45.5143 9.60606C45.5143 9.60606 45.5056 11.4424 46.8482 11.8971ZM48.8015 10.914C48.8015 10.914 48.3813 9.59307 48.6412 8.85681C48.6412 8.85681 49.4381 10.3077 49.3082 11.0439C49.3082 11.0439 50.2696 10.403 49.9968 8.9954C49.7196 7.58784 48.8448 7.25002 48.8318 6.36218C48.8318 6.36218 47.16 7.95164 47.9136 9.71867C48.3813 10.8187 48.8015 10.914 48.8015 10.914ZM44.2496 8.00361C45.1245 7.96896 45.3107 7.67446 45.3107 7.67446C45.3107 7.67446 44.3016 7.61382 43.8815 7.19805C43.8815 7.19805 45.0898 7.01182 45.5446 7.32798C45.5446 7.32798 45.393 6.40982 44.3666 6.21492C43.3401 6.0157 42.8594 6.58306 42.2574 6.33619C42.2617 6.33619 42.8464 8.05991 44.2496 8.00361ZM45.7741 6.37084C45.7741 6.37084 44.9556 5.28377 44.9642 4.49553C44.9642 4.49553 46.1812 5.56961 46.2938 6.3102C46.2938 6.3102 46.9954 5.35739 46.2808 4.13606C45.5706 2.91473 44.6394 2.91473 44.3406 2.08319C44.3406 2.08319 43.2795 4.1837 44.5571 5.56961C45.3453 6.43147 45.7741 6.37084 45.7741 6.37084ZM40.9408 5.59127C41.7507 5.24046 41.8329 4.89831 41.8329 4.89831C41.8329 4.89831 40.8671 5.20581 40.3344 4.97194C40.3344 4.97194 41.4085 4.35694 41.9412 4.48687C41.9412 4.48687 41.5038 3.68131 40.4774 3.86754C39.4509 4.05378 39.1781 4.75972 38.5328 4.74673C38.5328 4.75106 39.6371 6.16295 40.9408 5.59127ZM40.4384 3.19625C41.4605 3.72029 41.8416 3.50374 41.8416 3.50374C41.8416 3.50374 40.7199 2.78047 40.473 2.03555C40.473 2.03555 41.9629 2.60291 42.305 3.25688C42.305 3.25688 42.6558 2.10918 41.5947 1.217C40.538 0.333484 39.6588 0.671298 39.1131 0C39.1131 0 38.7926 2.35604 40.4384 3.19625ZM37.0689 3.04033C38.2036 2.97104 38.4375 2.58991 38.4375 2.58991C38.4375 2.58991 37.1252 2.53361 36.5708 2.00956C36.5708 2.00956 38.1343 1.74104 38.732 2.13949C38.732 2.13949 38.5154 0.952811 37.1815 0.718939C35.8476 0.485067 35.2326 1.23432 34.4443 0.926825C34.4487 0.926825 35.2456 3.15294 37.0689 3.04033ZM31.1658 36.445C31.1658 36.445 29.6673 36.2891 28.8314 37.2939C28.8314 37.2939 28.6885 37.4151 28.5023 37.3372C28.316 37.2549 28.0692 37.3069 28.0821 37.5624C28.0995 37.8136 28.4416 37.9998 28.7578 37.7183C29.0739 37.4411 29.9921 36.6009 31.0142 36.6875C31.7418 36.7438 31.391 36.4623 31.1658 36.445ZM37.6449 37.3329C37.4543 37.4151 37.3158 37.2895 37.3158 37.2895C36.4799 36.2848 34.9814 36.4407 34.9814 36.4407C34.7562 36.458 34.4097 36.7395 35.1329 36.6789C36.1594 36.5923 37.0775 37.4281 37.3894 37.7096C37.7012 37.9868 38.0477 37.8049 38.065 37.5537C38.078 37.3069 37.8311 37.2549 37.6449 37.3329ZM29.3338 35.4316C29.3338 35.83 29.6586 36.1548 30.0571 36.1548C30.4598 36.1548 30.7803 35.83 30.7803 35.4316C30.7803 35.0288 30.4555 34.7083 30.0571 34.7083C29.6586 34.704 29.3338 35.0288 29.3338 35.4316ZM33.2187 35.1024C32.4867 35.1024 31.8934 35.7001 31.8934 36.432C31.8934 37.1683 32.4867 37.7616 33.2187 37.7616C33.9506 37.7616 34.5483 37.1683 34.5483 36.432C34.5483 35.6958 33.9506 35.1024 33.2187 35.1024ZM35.3625 35.4316C35.3625 35.83 35.6873 36.1548 36.0858 36.1548C36.4885 36.1548 36.809 35.83 36.809 35.4316C36.809 35.0288 36.4842 34.7083 36.0858 34.7083C35.6873 34.704 35.3625 35.0288 35.3625 35.4316Z" fill="#828282"/>
<path d="M33.6994 26.0593C34.5353 26.0593 35.068 25.9077 35.2975 25.6002C35.5271 25.2927 35.644 24.773 35.644 24.0411V19.0821H34.0069V18.5191H41.3652V19.0821H40.3691V26.2889H39.9879C39.6804 25.8644 39.2474 25.6522 38.6843 25.6522C38.4461 25.6522 37.7358 25.8038 36.5492 26.1113C35.3668 26.4188 34.3534 26.5704 33.5218 26.5704C30.7457 26.5704 28.5932 25.8211 27.0687 24.3226C25.5442 22.8241 24.782 20.572 24.782 17.562C24.782 14.5563 25.5788 12.2349 27.1726 10.5978C28.7664 8.9607 30.9059 8.14648 33.5998 8.14648C34.6392 8.14648 35.683 8.28074 36.7311 8.54493C37.7792 8.80912 38.3855 8.93905 38.5587 8.93905C38.7276 8.93905 38.8576 8.90007 38.9399 8.82211C39.0265 8.74416 39.1174 8.61423 39.2214 8.428H39.5029L39.7064 13.9716H39.2474C38.4115 12.3215 37.5713 11.0222 36.7311 10.0738C35.8865 9.12961 34.9467 8.65754 33.9073 8.65754C31.3 8.65754 29.9964 11.2041 29.9964 16.2973V18.3156C29.9964 20.8708 30.3169 22.8024 30.9536 24.1017C31.5902 25.4053 32.5041 26.0593 33.6994 26.0593Z" fill="#828282"/>
<path d="M5.34029 39.4983L5.24501 40.8106L4.72962 40.7586V40.3602C4.72962 40.2909 4.67765 40.1046 4.62135 39.9271C4.23156 39.8101 3.74216 39.7148 3.36104 39.7148C1.98813 39.7148 1.32116 40.9232 1.32116 42.4563C1.32116 43.9895 1.98813 45.2065 3.36104 45.2065C3.71618 45.2065 4.20558 45.1372 4.60402 45.0289C4.65599 44.7994 4.7123 44.5482 4.7123 44.4529V43.8509C4.7123 43.6733 4.62135 43.2186 4.62135 43.2186L3.68153 43.1493L3.72484 42.6339H4.70797C4.88554 42.6339 5.33596 42.6079 5.33596 42.6079L5.4962 42.7595C5.4962 42.7595 5.41391 43.6733 5.41391 44.1151V45.4187C4.82057 45.5616 4.14494 45.7219 3.38269 45.7219C1.42077 45.7219 0.420319 44.4009 0.420319 42.465C0.420319 40.5334 1.42077 39.1995 3.38269 39.1995C4.16227 39.1995 4.74694 39.3597 5.34029 39.4983Z" fill="#828282"/>
<path d="M10.8666 41.0791C10.8666 41.9496 10.3253 42.5343 9.57168 42.7812C10.0048 43.6127 10.4595 44.349 10.5115 44.4226C10.5895 44.5569 10.806 44.8471 10.9446 45.0419L11.5812 45.1026L11.5206 45.6266C11.5206 45.6266 10.8277 45.5833 10.1174 45.5833C10.1174 45.5833 9.74492 44.7691 9.62798 44.5525L8.75746 42.9111H8.70116C8.44563 42.9111 8.15979 42.9111 7.92158 42.9025V44.1021C7.92158 44.4746 7.96489 44.9163 7.98222 45.0419L8.77911 45.1026L8.71848 45.6266C8.71848 45.6266 8.1338 45.5833 7.42352 45.5833C7.24595 45.5833 6.37543 45.6266 6.37543 45.6266L6.33212 45.1849L7.03374 45.0419C7.05106 44.925 7.1117 44.5179 7.1117 44.3663V40.5464C7.1117 40.4035 7.05106 39.9964 7.03374 39.8708L6.34945 39.7625L6.39276 39.2818C6.39276 39.2818 6.9861 39.3078 7.2806 39.3251C7.76134 39.3078 8.4976 39.2341 8.90471 39.2341C10.1217 39.2428 10.8666 39.8535 10.8666 41.0791ZM7.99088 39.7409C7.95623 39.9617 7.92158 40.4251 7.92158 40.8149V42.439C8.14246 42.4564 8.36767 42.4737 8.52359 42.4737C9.43742 42.4737 10.0308 42.0233 10.0308 41.0878C10.0308 40.1523 9.44608 39.6889 8.53225 39.6889C8.42397 39.6889 8.21176 39.7149 7.99088 39.7409Z" fill="#828282"/>
<path d="M17.4971 45.5833H16.6006C16.3278 45.5833 15.3317 45.6266 15.3317 45.6266L15.297 45.1935L15.9467 45.016L15.7085 44.0588L15.5222 43.5261H13.5733L13.2874 44.4573L13.2008 45.016L13.8202 45.1069L13.7768 45.5876H13.0146C12.6854 45.5876 11.8193 45.631 11.8193 45.631L11.7846 45.1979L12.3433 45.0463L12.7244 44.1671L14.3139 39.3337L14.8293 39.2428L16.6569 44.2624L17.0034 45.016L17.5534 45.1069L17.4971 45.5833ZM13.7292 43.0844L15.3447 43.0497L14.5088 40.646L13.7292 43.0844Z" fill="#828282"/>
<path d="M24.1928 39.7581L23.4912 39.9011C23.4566 40.07 23.357 40.5507 23.357 40.9015V42.9501C23.357 43.3052 23.3483 45.6439 23.3483 45.6439H22.8156L19.3205 40.6503V44.1021C19.3205 44.4746 19.3638 44.9163 19.3811 45.0419L20.1001 45.1025L20.0394 45.6266C20.0394 45.6266 19.6583 45.5833 18.948 45.5833C18.7705 45.5833 17.9909 45.6266 17.9909 45.6266L17.9476 45.1848L18.6492 45.0419C18.6665 44.925 18.7272 44.5179 18.7272 44.3663V40.5464C18.7272 40.4035 18.6665 40.005 18.6492 39.8707L17.9389 39.7625L17.9822 39.2817C17.9822 39.2817 18.8311 39.3251 19.013 39.3251L19.4028 39.3164L19.5804 39.5026C19.5804 39.5026 20.308 40.6806 20.4422 40.8755L22.768 44.1324V40.6287C22.768 40.4857 22.716 40.0527 22.6857 39.8924L21.984 39.8448L22.036 39.3121L22.7636 39.3294C23.4652 39.3294 24.1452 39.2861 24.1452 39.2861L24.1928 39.7581Z" fill="#828282"/>
<path d="M30.343 42.4607C30.343 44.349 29.1996 45.6353 27.2853 45.6353C26.9302 45.6353 26.3195 45.5833 25.7868 45.5833C25.6006 45.5833 24.7387 45.6266 24.7387 45.6266L24.6954 45.1849L25.3971 45.0419C25.4144 44.925 25.475 44.5179 25.475 44.3663V40.5464C25.475 40.3948 25.4144 39.9877 25.3971 39.8708L24.7128 39.7625L24.7561 39.2818C24.7561 39.2818 25.3234 39.3078 25.6266 39.3251C26.1939 39.3078 26.7007 39.2341 27.2853 39.2341C29.2603 39.2428 30.343 40.4858 30.343 42.4607ZM26.3455 39.8188C26.3282 39.9877 26.2849 40.4555 26.2849 40.8106V44.1021C26.2849 44.5266 26.3369 45.042 26.3455 45.0766C26.5751 45.0939 26.9042 45.1112 27.294 45.1112C28.7752 45.1112 29.4682 43.9246 29.4682 42.4607C29.4682 40.9795 28.7752 39.7712 27.294 39.7712C26.8826 39.7755 26.5664 39.7928 26.3455 39.8188Z" fill="#828282"/>
<path d="M39.1565 39.8102L38.4635 39.8708C38.4462 39.9964 38.4029 40.4382 38.4029 40.8106V44.1021C38.4029 44.4746 38.4462 44.9164 38.4635 45.042L39.2604 45.1026L39.1998 45.6266C39.1998 45.6266 38.6151 45.5833 37.9048 45.5833C37.7273 45.5833 36.8567 45.6266 36.8567 45.6266L36.8134 45.1849L37.515 45.042C37.5324 44.925 37.593 44.5179 37.593 44.3663V42.6816H34.6566V44.1021C34.6566 44.4746 34.6999 44.9164 34.7172 45.042L35.5141 45.1026L35.4535 45.6266C35.4535 45.6266 34.8688 45.5833 34.1585 45.5833C33.981 45.5833 33.1104 45.6266 33.1104 45.6266L33.0671 45.1849L33.7688 45.042C33.7861 44.925 33.851 44.5179 33.851 44.3663V40.5464C33.851 40.3949 33.7904 39.9877 33.7688 39.8708L33.0845 39.7625L33.1278 39.2818C33.1278 39.2818 33.981 39.3251 34.1585 39.3251C34.8688 39.3251 35.3712 39.2818 35.3712 39.2818L35.4059 39.8058L34.7129 39.8665C34.6956 39.9921 34.6523 40.4338 34.6523 40.8063V42.2268L37.5887 42.1835V40.5421C37.5887 40.3905 37.528 39.9834 37.5107 39.8665L36.8264 39.7582L36.8697 39.2775C36.8697 39.2775 37.7186 39.3208 37.9005 39.3208C38.6108 39.3208 39.1132 39.2775 39.1132 39.2775L39.1565 39.8102Z" fill="#828282"/>
<path d="M42.8334 45.7176C40.9104 45.7176 39.923 44.388 39.923 42.4607C39.923 40.5291 40.9061 39.1952 42.8334 39.1952C44.7563 39.1952 45.7438 40.5248 45.7438 42.4607C45.7438 44.388 44.7607 45.7176 42.8334 45.7176ZM42.8334 45.2455C44.1543 45.2455 44.7953 44.0026 44.7953 42.4607C44.7953 40.9103 44.1587 39.6673 42.8334 39.6673C41.5124 39.6673 40.8715 40.9103 40.8715 42.4607C40.8758 44.0069 41.5124 45.2455 42.8334 45.2455Z" fill="#828282"/>
<path d="M50.5208 40.724C50.5034 40.5811 50.4601 40.3082 50.4211 40.174C50.4125 40.1133 50.3302 39.9877 50.2436 39.8708C50.0487 39.8535 49.7758 39.8275 49.5246 39.8275H48.9486C48.9313 40.005 48.888 40.4771 48.888 40.8106V44.1021C48.888 44.4746 48.9313 44.9163 48.9486 45.0419L49.7455 45.1026L49.6849 45.6266C49.6849 45.6266 49.1002 45.5833 48.3899 45.5833C48.2123 45.5833 47.3418 45.6266 47.3418 45.6266L47.2985 45.1849L48.0001 45.0419C48.0175 44.925 48.0781 44.5179 48.0781 44.3663V40.5464C48.0781 40.4122 48.0175 39.9964 48.0001 39.8275H47.4414C47.1946 39.8275 46.9174 39.8535 46.7225 39.8708C46.6315 39.9877 46.5536 40.109 46.5449 40.174C46.5103 40.3082 46.4626 40.5811 46.4453 40.724L45.9299 40.6807L45.9906 39.403L46.1595 39.2428C46.1595 39.2428 46.991 39.3337 47.1686 39.3337H49.7845C49.9621 39.3337 50.7936 39.2428 50.7936 39.2428L50.9625 39.403L51.0231 40.6807L50.5208 40.724Z" fill="#828282"/>
<path d="M51.5558 39.2862C51.5558 39.2862 52.4047 39.3295 52.5866 39.3295H54.5745C54.7521 39.3295 55.5836 39.2385 55.5836 39.2385L55.7525 39.3988L55.8131 40.6071L55.2978 40.6504C55.2804 40.5075 55.2371 40.3039 55.2025 40.1697C55.1938 40.109 55.1115 39.9835 55.0249 39.8665C54.83 39.8492 54.5572 39.8232 54.306 39.8232H53.1453C53.1279 40.0094 53.0846 40.4599 53.0846 40.8063V42.0666C53.2362 42.0753 53.3965 42.084 53.4658 42.084H54.1111C54.2886 42.084 54.6438 42.006 54.6438 42.006L54.7217 41.4213L55.1288 41.4646C55.1288 41.4646 55.1202 42.032 55.1202 42.2096C55.1202 42.6513 55.1462 43.1754 55.1462 43.1754L54.7217 43.2273L54.6438 42.634C54.6438 42.634 54.1111 42.582 53.9335 42.582H53.4614C53.3835 42.582 53.2319 42.5907 53.0803 42.608V44.0979C53.0803 44.453 53.1236 44.9034 53.1409 45.0723H54.4186C54.6914 45.0723 54.9946 45.029 55.1895 44.9944C55.2761 44.8688 55.3584 44.7475 55.3757 44.6652C55.4017 44.531 55.4926 44.2105 55.51 44.0719L55.9994 44.1152L55.8651 45.4534L55.6962 45.6137C55.6962 45.6137 54.8647 45.579 54.6871 45.579H52.5866C52.409 45.579 51.5385 45.6224 51.5385 45.6224L51.4952 45.1806L52.1968 45.0377C52.2141 44.9207 52.2747 44.5136 52.2747 44.362V40.5421C52.2747 40.3906 52.2141 39.9835 52.1968 39.8665L51.5125 39.7582L51.5558 39.2862Z" fill="#828282"/>
<path d="M59.0485 39.8101L58.3555 39.8707C58.3382 39.9963 58.2949 40.4381 58.2949 40.8106V44.1021C58.2949 44.4659 58.3382 44.9466 58.3555 45.0766H59.4036C59.6765 45.0766 59.9796 45.0333 60.1745 44.9986C60.2655 44.873 60.3521 44.7301 60.3608 44.6694C60.3954 44.5352 60.4777 44.2147 60.495 44.0761L60.9844 44.1194L60.8502 45.4577L60.6813 45.6179C60.6813 45.6179 59.8454 45.5833 59.6678 45.5833H57.7968C57.6193 45.5833 56.7487 45.6266 56.7487 45.6266L56.7054 45.1848L57.4071 45.0419C57.4244 44.925 57.485 44.5179 57.485 44.3663V40.5464C57.485 40.3948 57.4244 39.9877 57.4071 39.8707L56.7228 39.7625L56.7661 39.2817C56.7661 39.2817 57.6149 39.3251 57.7968 39.3251C58.5071 39.3251 59.0138 39.2817 59.0138 39.2817L59.0485 39.8101Z" fill="#828282"/>
<path d="M62.2319 43.9333V44.3577C62.2319 44.466 62.2838 44.7475 62.3315 44.9424C62.639 45.068 63.0504 45.1806 63.4835 45.1806C64.1938 45.1806 64.6529 44.7908 64.6529 44.0719C64.6529 42.6166 61.6299 42.7509 61.6299 40.8366C61.6299 39.7712 62.4528 39.1952 63.5528 39.1952C64.1288 39.1952 64.7785 39.3381 65.3458 39.4767L65.2202 40.815L64.6962 40.763V40.3732C64.6962 40.2953 64.6356 40.0787 64.5793 39.8752C64.2068 39.7149 63.921 39.6803 63.5225 39.6803C62.9725 39.6803 62.5134 40.0094 62.5134 40.6634C62.5134 42.0536 65.5797 41.9497 65.5797 43.9636C65.5797 45.1416 64.6312 45.709 63.4619 45.709C62.2752 45.709 61.5086 45.2369 61.5086 45.2369L61.6429 43.8726L62.2319 43.9333Z" fill="#828282"/>
<path d="M22.7636 37.2506H0.775378C0.680097 37.2506 0.597809 37.3286 0.597809 37.4282C0.597809 37.5278 0.675766 37.6057 0.775378 37.6057H22.7636C22.8633 37.6057 22.9412 37.5278 22.9412 37.4282C22.9412 37.3286 22.8633 37.2506 22.7636 37.2506Z" fill="#828282"/>
<path d="M64.5921 37.2506H42.6082C42.5086 37.2506 42.4306 37.3286 42.4306 37.4282C42.4306 37.5278 42.5086 37.6057 42.6082 37.6057H64.5964C64.696 37.6057 64.774 37.5278 64.774 37.4282C64.7697 37.3286 64.6917 37.2506 64.5921 37.2506Z" fill="#828282"/>
<path d="M64.6181 47.6449H1.46409C1.18257 47.6449 0.953033 47.7229 0.953033 47.8225C0.953033 47.9221 1.18257 48 1.46409 48H64.6138C64.8953 48 65.1248 47.9221 65.1248 47.8225C65.1248 47.7229 64.8996 47.6449 64.6181 47.6449Z" fill="#828282"/>
</svg>
