<svg width="48" height="48" viewBox="0 0 48 48" fill="none" xmlns="http://www.w3.org/2000/svg">
<path d="M17.6633 24.5262C19.6739 16.9727 17.3808 9.05737 11.8961 4.86278C4.42479 9.59253 0.116601 18.4855 1.67275 27.7506C2.18549 30.8136 3.29617 33.6284 4.8598 36.0949C10.7017 34.4685 15.8381 31.3891 17.6633 24.5262ZM27.7476 46.3243C40.0787 44.2539 48.3931 32.579 46.3213 20.2524C44.5977 9.99165 36.2325 2.51436 26.3679 1.48141C24.3767 1.27213 22.3198 1.32893 20.2449 1.67574C17.7859 2.08832 15.4927 2.88807 13.4044 3.99576C24.2721 7.68209 30.1155 13.2848 30.5206 19.0266C30.7194 22.5709 29.0721 25.1346 26.9075 27.2244L42.2747 26.1511C42.7097 26.1212 42.8457 26.628 42.3195 26.7789L5.66553 37.2878C9.3967 42.4272 15.1908 45.8459 21.6262 46.5186C23.6173 46.7279 25.6742 46.6741 27.7476 46.3243ZM26.5099 0.131548C38.5809 1.38873 47.9955 11.5897 48 23.9925C48.0045 37.246 37.2624 47.9955 24.0075 48C10.7525 48.0045 0.00448608 37.2639 1.40391e-06 24.009C-0.00448328 10.754 10.7361 0.00448468 23.991 0C24.8401 0 25.6817 0.0463408 26.5099 0.131548Z" fill="white"/>
<path d="M1.67277 27.7521C2.18551 30.8136 3.29619 33.6284 4.85981 36.0949C10.7017 34.4685 15.8381 31.3891 17.6648 24.5262C19.6739 16.9727 17.3808 9.05737 11.8946 4.86279C4.42481 9.59253 0.116619 18.487 1.67277 27.7521ZM46.3213 20.2509C48.3932 32.579 40.0788 44.2539 27.7476 46.3243C25.6743 46.6741 23.6173 46.7279 21.6247 46.5186C15.1923 45.8459 9.39522 42.4272 5.66554 37.2878L42.3195 26.779C42.8457 26.6265 42.7097 26.1212 42.2747 26.1511L26.9075 27.2244C29.0721 25.1346 30.7194 22.5709 30.5206 19.0266C30.1155 13.2848 24.2721 7.6821 13.4044 3.99577C15.4928 2.88807 17.7859 2.08832 20.2449 1.67574C22.3198 1.32893 24.3767 1.27213 26.3679 1.48141C36.2325 2.51436 44.5977 9.99165 46.3213 20.2509Z" fill="#828282"/>
</svg>
