<svg width="16" height="16" viewBox="0 0 16 16" fill="none" xmlns="http://www.w3.org/2000/svg">
<path d="M1.14286 4C0.514286 4 0 4.51429 0 5.14286V14.2857C0 14.9143 0.514286 15.4286 1.14286 15.4286H2.28571V4H1.14286Z" fill="#828282"/>
<path d="M12.5717 4H3.42882V15.4286H12.5717V4Z" fill="#828282"/>
<path d="M14.8569 4H13.7141V15.4286H14.8569C15.4855 15.4286 15.9998 14.9143 15.9998 14.2857V5.14286C15.9998 4.51429 15.4855 4 14.8569 4Z" fill="#828282"/>
<path d="M10.2858 0.571442H5.71433C5.37147 0.571442 5.1429 0.857156 5.1429 1.14287V2.85716H6.28576V1.7143H9.71433V2.85716H10.8572V1.14287C10.8572 0.800013 10.5715 0.571442 10.2858 0.571442Z" fill="#828282"/>
</svg>
