<svg width="23" height="23" viewBox="0 0 23 23" fill="none" xmlns="http://www.w3.org/2000/svg">
<path d="M4.98335 15.3334C4.68008 15.3334 4.38363 15.4233 4.13147 15.5918C3.87932 15.7603 3.68279 15.9997 3.56673 16.2799C3.45068 16.5601 3.42031 16.8684 3.47948 17.1658C3.53864 17.4633 3.68468 17.7365 3.89912 17.9509C4.11356 18.1654 4.38677 18.3114 4.68421 18.3706C4.98165 18.4297 5.28995 18.3994 5.57013 18.2833C5.85031 18.1673 6.08978 17.9707 6.25827 17.7186C6.42675 17.4664 6.51668 17.17 6.51668 16.8667C6.51622 16.4602 6.35453 16.0704 6.06707 15.783C5.77962 15.4955 5.38987 15.3338 4.98335 15.3334ZM4.98335 17.6334C4.83171 17.6334 4.68349 17.5884 4.55741 17.5042C4.43133 17.4199 4.33307 17.3002 4.27504 17.1601C4.21701 17.02 4.20183 16.8659 4.23141 16.7171C4.26099 16.5684 4.33401 16.4318 4.44123 16.3246C4.54845 16.2174 4.68506 16.1444 4.83378 16.1148C4.9825 16.0852 5.13665 16.1004 5.27674 16.1584C5.41683 16.2164 5.53656 16.3147 5.62081 16.4408C5.70505 16.5669 5.75001 16.7151 5.75001 16.8667C5.74977 17.07 5.66892 17.2648 5.5252 17.4086C5.38147 17.5523 5.18661 17.6331 4.98335 17.6334Z" fill="#4F4F4F"/>
<path d="M18.0166 15.3334C17.7133 15.3334 17.4169 15.4233 17.1647 15.5918C16.9126 15.7603 16.7161 15.9997 16.6 16.2799C16.4839 16.5601 16.4536 16.8684 16.5127 17.1658C16.5719 17.4633 16.7179 17.7365 16.9324 17.9509C17.1468 18.1654 17.42 18.3114 17.7175 18.3706C18.0149 18.4297 18.3232 18.3994 18.6034 18.2833C18.8836 18.1673 19.1231 17.9707 19.2915 17.7186C19.46 17.4664 19.55 17.17 19.55 16.8667C19.5495 16.4602 19.3878 16.0704 19.1003 15.783C18.8129 15.4955 18.4231 15.3338 18.0166 15.3334ZM18.0166 17.6334C17.865 17.6334 17.7168 17.5884 17.5907 17.5042C17.4646 17.4199 17.3663 17.3002 17.3083 17.1601C17.2503 17.02 17.2351 16.8659 17.2647 16.7171C17.2943 16.5684 17.3673 16.4318 17.4745 16.3246C17.5817 16.2174 17.7183 16.1444 17.867 16.1148C18.0158 16.0852 18.1699 16.1004 18.31 16.1584C18.4501 16.2164 18.5698 16.3147 18.6541 16.4408C18.7383 16.5669 18.7833 16.7151 18.7833 16.8667C18.783 17.07 18.7022 17.2648 18.5585 17.4086C18.4147 17.5523 18.2199 17.6331 18.0166 17.6334Z" fill="#4F4F4F"/>
<path d="M7.28333 15.7167H15.7167V16.4833H7.28333V15.7167Z" fill="#4F4F4F"/>
<path d="M7.28333 17.25H15.7167V18.0167H7.28333V17.25Z" fill="#4F4F4F"/>
<path d="M22.2333 6.9H21.0833V2.68333C21.0825 1.97191 20.7996 1.28986 20.2965 0.786813C19.7935 0.283763 19.1114 0.000798999 18.4 0H4.6C3.88858 0.000798999 3.20653 0.283763 2.70348 0.786813C2.20043 1.28986 1.91747 1.97191 1.91667 2.68333V4.21667H11.1167V13.4167H8.06739L9.58333 11.7323V12.65H10.35V8.81667H9.58333V10.5862L7.03594 13.4167H2.68333V4.98333H1.91667V6.9H0.766667C0.563408 6.90024 0.368543 6.98109 0.224818 7.12482C0.0810919 7.26854 0.000240941 7.46341 0 7.66667V11.5C0.000240941 11.7033 0.0810919 11.8981 0.224818 12.0418C0.368543 12.1856 0.563408 12.2664 0.766667 12.2667H1.91667V18.7833C1.91697 19.0211 1.99082 19.2529 2.12808 19.4469C2.26535 19.641 2.4593 19.7879 2.68333 19.8674V22.2333C2.68357 22.4366 2.76443 22.6315 2.90815 22.7752C3.05188 22.9189 3.24674 22.9998 3.45 23H5.75C5.95326 22.9998 6.14812 22.9189 6.29185 22.7752C6.43557 22.6315 6.51643 22.4366 6.51667 22.2333V19.9333H19.55V22.2333H17.25V20.7H16.4833V22.2333C16.4836 22.4366 16.5644 22.6315 16.7082 22.7752C16.8519 22.9189 17.0467 22.9998 17.25 23H19.55C19.7533 22.9998 19.9481 22.9189 20.0918 22.7752C20.2356 22.6315 20.3164 22.4366 20.3167 22.2333V19.8674C20.5407 19.7879 20.7347 19.641 20.8719 19.4469C21.0092 19.2529 21.083 19.0211 21.0833 18.7833V12.2667H22.2333C22.4366 12.2664 22.6315 12.1856 22.7752 12.0418C22.9189 11.8981 22.9998 11.7033 23 11.5V7.66667C22.9998 7.46341 22.9189 7.26854 22.7752 7.12482C22.6315 6.98109 22.4366 6.90024 22.2333 6.9ZM2.68333 2.68333C2.6839 2.17518 2.88602 1.688 3.24534 1.32868C3.60466 0.969355 4.09184 0.767237 4.6 0.766667H18.4C18.9082 0.767237 19.3953 0.969355 19.7547 1.32868C20.114 1.688 20.3161 2.17518 20.3167 2.68333V3.45H2.68333V2.68333ZM11.8833 4.21667H20.3167V13.4167H15.9641L13.4167 10.5862V8.81667H12.65V12.65H13.4167V11.7323L14.9326 13.4167H11.8833V4.21667ZM0.766667 11.5V7.66667H1.91667V11.5H0.766667ZM5.75 22.2333H3.45V19.9333H5.75V22.2333ZM19.9333 19.1667H3.06667C2.96504 19.1666 2.8676 19.1261 2.79574 19.0543C2.72387 18.9824 2.68345 18.885 2.68333 18.7833V14.1833H6.34594L6.23175 14.3102L6.80158 14.8229L7.37739 14.1833H15.6226L16.1984 14.8231L16.7682 14.3104L16.6541 14.1833H20.3167V18.7833C20.3166 18.885 20.2761 18.9824 20.2043 19.0543C20.1324 19.1261 20.035 19.1666 19.9333 19.1667ZM22.2333 11.5H21.0833V7.66667H22.2333L22.2338 11.5H22.2333Z" fill="#4F4F4F"/>
<path d="M11.1166 1.53333H11.8833V2.29999H11.1166V1.53333Z" fill="#4F4F4F"/>
<path d="M12.65 1.53333H13.4167V2.29999H12.65V1.53333Z" fill="#4F4F4F"/>
<path d="M9.58331 1.53333H10.35V2.29999H9.58331V1.53333Z" fill="#4F4F4F"/>
<path d="M4.21667 1.53333H4.98334V2.29999H4.21667V1.53333Z" fill="#4F4F4F"/>
<path d="M18.0167 1.53333H18.7833V2.29999H18.0167V1.53333Z" fill="#4F4F4F"/>
</svg>
