<svg width="43" height="43" viewBox="0 0 43 43" fill="none" xmlns="http://www.w3.org/2000/svg">
<path d="M9.14063 28.125C8.58437 28.125 8.0406 28.29 7.57809 28.599C7.11557 28.908 6.75509 29.3473 6.54222 29.8612C6.32934 30.3751 6.27365 30.9406 6.38217 31.4862C6.49069 32.0318 6.75855 32.5329 7.15189 32.9262C7.54522 33.3196 8.04636 33.5875 8.59193 33.696C9.13751 33.8045 9.70301 33.7488 10.2169 33.5359C10.7308 33.3231 11.1701 32.9626 11.4791 32.5001C11.7882 32.0375 11.9531 31.4938 11.9531 30.9375C11.9523 30.1918 11.6557 29.477 11.1284 28.9497C10.6012 28.4224 9.88629 28.1258 9.14063 28.125ZM9.14063 32.3438C8.8625 32.3438 8.59061 32.2613 8.35936 32.1068C8.1281 31.9522 7.94786 31.7326 7.84142 31.4757C7.73498 31.2187 7.70714 30.9359 7.7614 30.6632C7.81566 30.3904 7.94959 30.1398 8.14626 29.9431C8.34293 29.7465 8.59349 29.6125 8.86628 29.5583C9.13907 29.504 9.42182 29.5319 9.67877 29.6383C9.93573 29.7447 10.1554 29.925 10.3099 30.1562C10.4644 30.3875 10.5469 30.6594 10.5469 30.9375C10.5464 31.3103 10.3981 31.6678 10.1345 31.9314C9.87088 32.195 9.51345 32.3433 9.14063 32.3438Z" fill="#005AEB"/>
<path d="M33.0469 28.125C32.4906 28.125 31.9469 28.29 31.4843 28.599C31.0218 28.908 30.6613 29.3473 30.4485 29.8612C30.2356 30.3751 30.1799 30.9406 30.2884 31.4862C30.3969 32.0318 30.6648 32.5329 31.0581 32.9262C31.4515 33.3196 31.9526 33.5875 32.4982 33.696C33.0438 33.8045 33.6093 33.7488 34.1232 33.5359C34.6371 33.3231 35.0764 32.9626 35.3854 32.5001C35.6944 32.0375 35.8594 31.4938 35.8594 30.9375C35.8586 30.1918 35.562 29.477 35.0347 28.9497C34.5074 28.4224 33.7925 28.1258 33.0469 28.125ZM33.0469 32.3438C32.7688 32.3438 32.4969 32.2613 32.2656 32.1068C32.0344 31.9522 31.8541 31.7326 31.7477 31.4757C31.6412 31.2187 31.6134 30.9359 31.6677 30.6632C31.7219 30.3904 31.8558 30.1398 32.0525 29.9431C32.2492 29.7465 32.4997 29.6125 32.7725 29.5583C33.0453 29.504 33.3281 29.5319 33.585 29.6383C33.842 29.7447 34.0616 29.925 34.2161 30.1562C34.3707 30.3875 34.4531 30.6594 34.4531 30.9375C34.4527 31.3103 34.3044 31.6678 34.0408 31.9314C33.7771 32.195 33.4197 32.3433 33.0469 32.3438Z" fill="#005AEB"/>
<path d="M13.3594 28.8281H28.8281V30.2344H13.3594V28.8281Z" fill="#005AEB"/>
<path d="M13.3594 31.6406H28.8281V33.0469H13.3594V31.6406Z" fill="#005AEB"/>
<path d="M40.7812 12.6562H38.6719V4.92188C38.6704 3.61696 38.1514 2.36592 37.2287 1.4432C36.306 0.520489 35.0549 0.00146555 33.75 0H8.4375C7.13259 0.00146555 5.88154 0.520489 4.95883 1.4432C4.03611 2.36592 3.51709 3.61696 3.51562 4.92188V7.73438H20.3906V24.6094H14.7975L17.5781 21.5198V23.2031H18.9844V16.1719H17.5781V19.4177L12.9056 24.6094H4.92188V9.14062H3.51562V12.6562H1.40625C1.03342 12.6567 0.675996 12.805 0.412369 13.0686C0.148742 13.3322 0.000441943 13.6897 0 14.0625V21.0938C0.000441943 21.4666 0.148742 21.824 0.412369 22.0876C0.675996 22.3513 1.03342 22.4996 1.40625 22.5H3.51562V34.4531C3.51619 34.8892 3.65164 35.3143 3.90342 35.6704C4.15519 36.0264 4.51094 36.2957 4.92188 36.4416V40.7812C4.92232 41.1541 5.07062 41.5115 5.33424 41.7751C5.59787 42.0388 5.9553 42.1871 6.32812 42.1875H10.5469C10.9197 42.1871 11.2771 42.0388 11.5408 41.7751C11.8044 41.5115 11.9527 41.1541 11.9531 40.7812V36.5625H35.8594V40.7812H31.6406V37.9688H30.2344V40.7812C30.2348 41.1541 30.3831 41.5115 30.6467 41.7751C30.9104 42.0388 31.2678 42.1871 31.6406 42.1875H35.8594C36.2322 42.1871 36.5896 42.0388 36.8533 41.7751C37.1169 41.5115 37.2652 41.1541 37.2656 40.7812V36.4416C37.6766 36.2957 38.0323 36.0264 38.2841 35.6704C38.5359 35.3143 38.6713 34.8892 38.6719 34.4531V22.5H40.7812C41.1541 22.4996 41.5115 22.3513 41.7751 22.0876C42.0388 21.824 42.1871 21.4666 42.1875 21.0938V14.0625C42.1871 13.6897 42.0388 13.3322 41.7751 13.0686C41.5115 12.805 41.1541 12.6567 40.7812 12.6562ZM4.92188 4.92188C4.92292 3.98979 5.29365 3.09619 5.95273 2.43711C6.61181 1.77803 7.50542 1.4073 8.4375 1.40625H33.75C34.6821 1.4073 35.5757 1.77803 36.2348 2.43711C36.8938 3.09619 37.2646 3.98979 37.2656 4.92188V6.32812H4.92188V4.92188ZM21.7969 7.73438H37.2656V24.6094H29.2819L24.6094 19.4177V16.1719H23.2031V23.2031H24.6094V21.5198L27.39 24.6094H21.7969V7.73438ZM1.40625 21.0938V14.0625H3.51562V21.0938H1.40625ZM10.5469 40.7812H6.32812V36.5625H10.5469V40.7812ZM36.5625 35.1562H5.625C5.43858 35.156 5.25986 35.0819 5.12805 34.9501C4.99623 34.8183 4.92208 34.6395 4.92188 34.4531V26.0156H11.64L11.4305 26.2484L12.4757 27.1888L13.5319 26.0156H28.6556L29.7118 27.1891L30.757 26.2487L30.5475 26.0156H37.2656V34.4531C37.2654 34.6395 37.1913 34.8183 37.0595 34.9501C36.9276 35.0819 36.7489 35.156 36.5625 35.1562ZM40.7812 21.0938H38.6719V14.0625H40.7812L40.7821 21.0938H40.7812Z" fill="#005AEB"/>
<path d="M20.3906 2.8125H21.7969V4.21875H20.3906V2.8125Z" fill="#005AEB"/>
<path d="M23.2031 2.8125H24.6094V4.21875H23.2031V2.8125Z" fill="#005AEB"/>
<path d="M17.5781 2.8125H18.9844V4.21875H17.5781V2.8125Z" fill="#005AEB"/>
<path d="M7.73438 2.8125H9.14062V4.21875H7.73438V2.8125Z" fill="#005AEB"/>
<path d="M33.0469 2.8125H34.4531V4.21875H33.0469V2.8125Z" fill="#005AEB"/>
</svg>
