<svg width="16" height="16" viewBox="0 0 16 16" fill="none" xmlns="http://www.w3.org/2000/svg">
<path d="M15.3044 15.2H6.2607C5.87664 15.2 5.56494 14.8748 5.56494 14.474C5.56494 14.0732 5.87664 13.7481 6.2607 13.7481H15.3044C15.6884 13.7481 16 14.0732 16 14.474C16 14.8748 15.6884 15.2 15.3044 15.2V15.2Z" fill="#005AEB"/>
<path d="M13.404 2.23801L12.4202 1.21136C11.8944 0.662466 10.9781 0.663264 10.4529 1.21136L9.01428 2.71273L11.9653 5.79243L13.404 4.29106C13.6669 4.01735 13.8116 3.65298 13.8116 3.26454C13.8116 2.8769 13.6669 2.51239 13.404 2.23801Z" fill="#005AEB"/>
<path d="M8.02973 3.74005L0.860083 11.2223C0.814225 11.2695 0.782253 11.3297 0.767604 11.3958L0.00930377 14.7535C-0.0184653 14.8755 0.0169466 15.0047 0.10191 15.0932C0.167256 15.1622 0.256296 15.2 0.347373 15.2C0.373869 15.2 0.401001 15.1971 0.427369 15.1906L3.64489 14.3992C3.70756 14.384 3.76527 14.3505 3.81112 14.3027L10.9808 6.82056L8.02973 3.74005Z" fill="#005AEB"/>
</svg>
