<svg width="20" height="20" viewBox="0 0 20 20" fill="none" xmlns="http://www.w3.org/2000/svg">
<path d="M16.6072 0H6.09638C5.32844 0 4.7036 0.633799 4.7036 1.41275V3.10845H3.39279C2.62484 3.10845 2 3.74217 2 4.5212V18.5873C2 19.3662 2.62484 20 3.39279 20H13.9035C14.6715 20 15.2963 19.3662 15.2963 18.5873V16.8916H16.6072C17.3752 16.8916 18 16.2578 18 15.4789V1.41275C18 0.633799 17.3752 0 16.6072 0ZM14.1025 18.5873C14.1025 18.6966 14.0114 18.7891 13.9035 18.7891H3.39279C3.28494 18.7891 3.19382 18.6966 3.19382 18.5873V4.5212C3.19382 4.41173 3.28494 4.31938 3.39279 4.31938H13.9035C14.0114 4.31938 14.1025 4.41173 14.1025 4.5212V18.5873ZM16.8062 15.4789C16.8062 15.5883 16.7151 15.6807 16.6072 15.6807H15.2963V4.5212C15.2963 3.74217 14.6715 3.10845 13.9035 3.10845H5.89741V1.41275C5.89741 1.30336 5.98846 1.21093 6.09638 1.21093H16.6072C16.7151 1.21093 16.8062 1.30336 16.8062 1.41275V15.4789Z" fill="#BE1E2D"/>
<path d="M12.0439 6.22583H5.25243C4.92269 6.22583 4.65552 6.49684 4.65552 6.83129C4.65552 7.16575 4.92269 7.43676 5.25243 7.43676H12.0439C12.3736 7.43676 12.6408 7.16575 12.6408 6.83129C12.6408 6.49692 12.3736 6.22583 12.0439 6.22583Z" fill="#BE1E2D"/>
<path d="M12.0439 8.95264H5.25243C4.92269 8.95264 4.65552 9.22364 4.65552 9.5581C4.65552 9.89256 4.92269 10.1636 5.25243 10.1636H12.0439C12.3736 10.1636 12.6408 9.89256 12.6408 9.5581C12.6408 9.22364 12.3736 8.95264 12.0439 8.95264Z" fill="#BE1E2D"/>
<path d="M12.0439 11.6794H5.25243C4.92269 11.6794 4.65552 11.9504 4.65552 12.2849C4.65552 12.6194 4.92269 12.8904 5.25243 12.8904H12.0439C12.3736 12.8904 12.6408 12.6194 12.6408 12.2849C12.6408 11.9504 12.3736 11.6794 12.0439 11.6794Z" fill="#BE1E2D"/>
<path d="M12.0439 14.4062H5.25243C4.92269 14.4062 4.65552 14.6773 4.65552 15.0117C4.65552 15.3462 4.92269 15.6172 5.25243 15.6172H12.0439C12.3736 15.6172 12.6408 15.3462 12.6408 15.0117C12.6408 14.6773 12.3736 14.4062 12.0439 14.4062Z" fill="#BE1E2D"/>
</svg>
