<svg width="41" height="40" viewBox="0 0 41 40" fill="none" xmlns="http://www.w3.org/2000/svg">
<path d="M39.6428 20C39.6428 30.7696 30.9124 39.5 20.1428 39.5C9.37327 39.5 0.642817 30.7696 0.642817 20C0.642817 9.23044 9.37327 0.499995 20.1428 0.499995C30.9124 0.499995 39.6428 9.23044 39.6428 20Z" stroke="#00243C" stroke-opacity="0.5"/>
<path d="M23.7705 20.7152L23.7789 20.7106L23.7872 20.7057C24.0354 20.5577 24.2096 20.2959 24.2246 19.9974C24.2407 19.6781 24.0705 19.3849 23.7689 19.2283L18.4818 16.2059C18.2314 16.0366 17.9153 16.0277 17.6619 16.1895C17.4106 16.3501 17.2899 16.6303 17.2899 16.909V22.8951C17.2899 23.1347 17.3854 23.4014 17.6098 23.573C17.8636 23.767 18.1886 23.768 18.4596 23.611L23.7705 20.7152ZM26.7782 12.2647C29.3285 12.2647 31.4076 14.3353 31.4076 16.8623V23.0354C31.4076 25.5624 29.3285 27.633 26.7782 27.633H13.5076C10.9573 27.633 8.87817 25.5624 8.87817 23.0354V16.8623C8.87817 14.3353 10.9573 12.2647 13.5076 12.2647H26.7782Z" fill="#EC1C24" stroke="#EC1C24"/>
</svg>
