<svg width="40" height="40" viewBox="0 0 40 40" fill="none" xmlns="http://www.w3.org/2000/svg">
<path d="M39.5 20C39.5 30.7696 30.7696 39.5 20 39.5C9.23044 39.5 0.499982 30.7696 0.499982 20C0.499982 9.23044 9.23044 0.499982 20 0.499982C30.7696 0.499982 39.5 9.23044 39.5 20Z" stroke="#00243C" stroke-opacity="0.5"/>
<path d="M18.233 20.0926V19.5926H18.187V19.4074H17.687H15.7941V16.3777H17.687H18.187V15.8777V12.4965C18.187 10.4074 19.8528 8.73529 21.9204 8.73529H25.6539V11.7649H23.531C22.6535 11.7649 21.9726 12.4551 21.9726 13.3302V15.8314V16.3314H22.4726H25.5463L25.3018 19.4074H22.4726H21.9726V19.9074V31.2647H18.233V20.0926Z" fill="#005AEB" stroke="#005AEB"/>
</svg>
