<svg width="22" height="23" viewBox="0 0 22 23" fill="none" xmlns="http://www.w3.org/2000/svg">
<path d="M22 11.65L19.8575 9.27663L20.5263 6.14998L17.4841 5.16589L16.5001 2.12376L13.3734 2.79254L11 0.649994L8.62663 2.7925L5.49999 2.12372L4.51589 5.16584L1.47377 6.14994L2.14255 9.27658L0 11.65L2.14255 14.0234L1.47377 17.15L4.51589 18.1341L5.49999 21.1762L8.62663 20.5074L11 22.65L13.3733 20.5074L16.5 21.1762L17.4841 18.1341L20.5262 17.15L19.8574 14.0234L22 11.65ZM16.4536 17.1036L15.6259 19.6623L12.9962 19.0998L11 20.9018L9.0038 19.0998L6.37405 19.6623L5.54631 17.1036L2.98763 16.2759L3.55014 13.6462L1.74808 11.65L3.55014 9.65379L2.98763 7.02404L5.54631 6.19631L6.37405 3.63762L9.0038 4.20013L11 2.39811L12.9962 4.20013L15.6259 3.63762L16.4536 6.19631L19.0123 7.02404L18.4498 9.65379L20.2518 11.65L18.4498 13.6462L19.0123 16.2759L16.4536 17.1036Z" fill="#2E2E2E"/>
<path d="M13.8125 12.515C12.7393 12.515 11.8661 13.3882 11.8661 14.4614C11.8661 15.5347 12.7393 16.4078 13.8125 16.4078C14.8858 16.4078 15.7589 15.5347 15.7589 14.4614C15.7589 13.3882 14.8858 12.515 13.8125 12.515ZM13.8125 15.1102C13.4548 15.1102 13.1637 14.8192 13.1637 14.4614C13.1637 14.1037 13.4548 13.8126 13.8125 13.8126C14.1703 13.8126 14.4613 14.1037 14.4613 14.4614C14.4613 14.8192 14.1703 15.1102 13.8125 15.1102Z" fill="#2E2E2E"/>
<path d="M8.1881 10.7849C9.26134 10.7849 10.1345 9.91173 10.1345 8.83849C10.1345 7.76524 9.26134 6.89209 8.1881 6.89209C7.11485 6.89209 6.2417 7.76524 6.2417 8.83849C6.2417 9.91173 7.11485 10.7849 8.1881 10.7849ZM8.1881 8.18969C8.54584 8.18969 8.83689 8.48074 8.83689 8.83849C8.83689 9.19623 8.54584 9.48728 8.1881 9.48728C7.83035 9.48728 7.5393 9.19623 7.5393 8.83849C7.5393 8.48074 7.83035 8.18969 8.1881 8.18969Z" fill="#2E2E2E"/>
<path d="M6.64667 15.0835L14.431 7.29908L15.3484 8.21645L7.56404 16.0008L6.64667 15.0835Z" fill="#2E2E2E"/>
</svg>
