<svg width="18" height="17" viewBox="0 0 18 17" fill="none" xmlns="http://www.w3.org/2000/svg">
<path fill-rule="evenodd" clip-rule="evenodd" d="M2.75806 1.55191C2.30649 1.55191 2.02018 1.90416 2.0551 2.24866C2.74487 9.21384 8.28629 14.7553 15.2515 15.445C15.596 15.4799 15.9482 15.1936 15.9482 14.7421V11.9807C15.9482 11.647 15.7348 11.3506 15.4175 11.2451L12.7329 10.3497C12.4544 10.2574 12.1471 10.3296 11.9392 10.5375L11.5093 10.9674C10.9957 11.481 10.1764 11.5795 9.55642 11.1551C8.08843 10.1511 7.23418 9.30229 6.3225 7.93051C5.91051 7.3098 6.01835 6.50442 6.52346 6.00009L6.96262 5.56094C7.17055 5.353 7.24271 5.04575 7.1496 4.7672L6.255 2.08262C6.14948 1.76528 5.85309 1.55191 5.51946 1.55191H2.75806ZM0.511075 2.40228C0.37607 1.04137 1.49568 0.00012207 2.75806 0.00012207H5.51946C6.52113 0.00012207 7.4103 0.641009 7.72687 1.59148L8.62225 4.27606C8.90079 5.11247 8.68354 6.03501 8.05973 6.65805L7.62755 7.09022C8.4112 8.26647 9.11571 8.97253 10.4177 9.86481L10.8421 9.4404C11.4651 8.81658 12.3876 8.59933 13.2241 8.87788L15.9086 9.77325C16.8591 10.0898 17.5 10.979 17.5 11.9807V14.7421C17.5 16.0044 16.4588 17.1241 15.0978 16.989C7.39711 16.2263 1.27378 10.103 0.511075 2.40228ZM11.2929 0.776014C11.2929 0.347722 11.6405 0.00012207 12.0688 0.00012207C15.0684 0.00012207 17.5 2.43177 17.5 5.43136C17.5 5.85966 17.1524 6.20726 16.7241 6.20726C16.2958 6.20726 15.9482 5.85966 15.9482 5.43136C15.9482 3.28913 14.211 1.55191 12.0688 1.55191C11.6405 1.55191 11.2929 1.20431 11.2929 0.776014ZM11.2929 3.87958C11.2929 3.45129 11.6405 3.10369 12.0688 3.10369C13.3544 3.10369 14.3964 4.14571 14.3964 5.43136C14.3964 5.85966 14.0488 6.20726 13.6205 6.20726C13.1922 6.20726 12.8447 5.85966 12.8447 5.43136C12.8447 5.00307 12.4971 4.65547 12.0688 4.65547C11.6405 4.65547 11.2929 4.30787 11.2929 3.87958Z" fill="url(#paint0_linear)"/>
<defs>
<linearGradient id="paint0_linear" x1="9" y1="0.00012207" x2="9" y2="17.0001" gradientUnits="userSpaceOnUse">
<stop stop-color="#23C0F5"/>
<stop offset="1" stop-color="#007ACE"/>
</linearGradient>
</defs>
</svg>
