<svg width="49" height="35" viewBox="0 0 49 35" fill="none" xmlns="http://www.w3.org/2000/svg">
<path d="M27.8063 2.78635C27.4136 3.29941 27.1954 3.92974 27.1954 4.57473C27.1954 4.79462 27.1954 9.99853 27.1954 10.1891C27.1663 10.6142 27.0063 11.01 26.7445 11.3472C26.599 11.4937 25.7408 12.2707 25.6681 12.3586L26.1481 12.3733C26.3081 12.2267 27.9663 10.7461 28.1263 10.5409C28.6063 10.0132 28.8827 9.32422 28.8827 8.60593C28.8827 8.37139 28.8827 3.43134 28.8827 3.21145C28.8681 2.66907 29.0718 2.1267 29.45 1.7309C29.6536 1.51102 30.2936 0.968641 30.41 0.836711L29.9009 0.822052C29.7991 0.953982 27.9808 2.61044 27.8063 2.78635Z" fill="#828282"/>
<path d="M23.7192 23.2061L25.741 24.9798H27.0938C28.3884 24.9798 29.6393 24.4668 30.5557 23.5433C31.3848 22.7077 31.6903 21.579 31.6903 20.5235V17.6064C31.6757 16.9468 31.3993 16.3164 30.9048 15.8767C30.8175 15.7887 30.2211 15.217 30.2211 15.217V17.4598C30.2211 17.4598 30.8757 18.1341 30.9921 18.2661C31.5884 18.9111 31.5884 20.0838 29.6829 21.9455C29.3484 22.2679 28.4029 23.1768 27.0938 23.1768L23.7192 23.2061Z" fill="#828282"/>
<path d="M29.3481 11.2296C29.1299 11.4642 28.9117 12.0505 28.9117 12.5782V13.6777H30.0172C30.4536 13.6777 31.0209 13.2819 31.1372 13.0766C31.1372 13.062 31.1372 11.9772 31.1372 11.9772C31.2972 12.2118 31.5009 12.4317 31.7336 12.6076C31.85 12.461 32.8682 11.2296 33.7118 11.215C35.1228 11.2003 34.8028 13.0034 34.2355 13.575C34.0464 13.7656 33.2173 14.5279 32.9555 14.7771C32.2864 15.4221 31.1372 15.1142 31.1372 13.4578C31.1372 13.4578 29.9154 14.6305 29.7263 14.7917C29.5372 14.953 28.9117 15.6273 28.9117 15.6273V18.5444C28.9117 19.937 28.4608 20.4061 28.0826 20.8312C27.9372 20.9925 26.3808 22.429 26.1626 22.5903L25.6535 22.6049C25.6535 22.6049 26.5699 21.7694 26.7444 21.5788C26.948 21.3589 27.1953 20.9192 27.1953 20.1862C27.1953 19.9957 27.1662 15.6126 27.1662 15.6126H20.0679C17.5951 15.6126 17.0715 12.8568 17.0569 12.1092C17.0569 11.8893 17.0569 9.69044 17.0569 9.33862C17.0569 8.8842 16.766 8.12193 16.3151 7.88739H17.0133C17.1006 7.91671 17.5369 8.09261 17.5369 9.79305C17.5369 9.79305 17.5078 11.7573 17.5078 11.8746C17.5078 12.7395 18.1915 13.7216 19.1661 13.7216L27.1953 13.707C27.1953 13.4871 27.4135 12.6662 27.8062 12.2264C28.0244 11.9772 29.7554 10.3941 29.9445 10.2328H30.4536C30.3809 10.3061 29.5372 11.0537 29.3626 11.2589L29.3481 11.2296ZM31.9809 12.8861C32.1845 13.1646 32.4173 13.4431 32.6645 13.6923C33.5373 14.3959 33.9446 13.6337 33.3627 12.8421C33.13 12.5196 32.2427 12.6076 31.9809 12.8861Z" fill="#828282"/>
<path d="M23.3699 18.1048C23.3699 18.5006 22.1335 19.5414 22.0608 19.6C21.9735 19.1749 21.6535 18.7205 20.7371 17.7823L22.0898 16.419C23.0062 17.3425 23.3699 17.5478 23.3699 18.1048Z" fill="#828282"/>
<path d="M25.7264 2.4343C26.0028 2.71282 26.5846 3.44576 26.2355 3.81224C25.93 4.12007 25.45 4.61848 25.45 4.61848C25.4209 4.44257 24.97 4.0028 24.97 4.0028C24.97 4.0028 24.97 5.3221 24.97 5.48335C24.9555 6.08437 24.7373 6.24562 24.7373 6.24562C24.7373 6.24562 25.8282 7.33038 25.8282 8.73763C25.8282 9.41194 25.8282 10.0423 25.8282 10.1742C25.8428 10.4381 25.7409 10.7166 25.5519 10.9071C25.45 11.0244 24.4464 12.0505 24.2864 12.1825C24.0536 12.3877 23.7627 12.505 23.4573 12.4903H19.6899C19.0935 12.4903 18.4826 12.0212 18.4826 11.5521C18.4826 11.4349 18.4971 10.1449 18.4971 10.1449C18.6862 10.3648 18.8899 10.6286 19.3553 10.6286C19.7335 10.6286 20.1117 10.3355 20.2136 10.2182C20.3154 10.1009 23.0645 7.22776 23.0645 7.22776C23.0645 7.22776 21.7845 6.02573 20.9408 5.45403C20.5336 5.17552 19.9808 5.52733 19.8935 5.8938C19.6317 7.0372 19.8935 8.76695 19.8935 8.76695L18.8608 7.72617C18.439 7.30106 18.4535 6.34823 18.9626 5.84983C19.0353 5.76187 19.8063 4.91165 20.7663 4.91165H22.2645C23.2682 4.91165 24.3736 5.92312 24.3736 5.92312C24.4609 5.82051 24.5191 5.70324 24.5336 5.57131C24.5336 5.04358 24.5191 3.65099 24.5191 3.65099C23.7627 2.88872 23.6609 2.09714 24.0245 1.73067C24.7082 1.0417 24.9555 0.807159 24.9555 0.807159C24.9555 0.807159 24.9264 1.64272 25.7264 2.4343ZM20.999 10.0569C20.6208 10.4527 20.5627 10.5407 20.2136 10.7606H24.4609C25.61 10.7606 25.3773 10.0423 25.1737 9.6758C24.7518 8.9282 23.4136 7.55026 23.4136 7.55026C23.4136 7.55026 21.0718 9.98364 20.999 10.0569Z" fill="#828282"/>
<path d="M16.1551 13.9565H15.4569C15.4569 13.9565 16.1987 14.3669 16.1987 15.437V18.8525C16.1987 21.066 18.0169 23.1183 20.2279 23.1183H22.0752C23.1807 23.1183 23.5734 22.8544 24.2425 22.2534C24.4898 22.0335 24.8098 21.667 24.9262 21.5351C25.3044 21.0953 25.7262 20.7435 25.7262 19.6001V18.4861C25.7262 17.5186 25.1735 17.1228 24.8971 16.8443C24.7225 16.6684 24.2571 16.2139 24.2571 16.2139V18.5007C24.2571 18.5007 24.7225 18.9991 24.9262 19.1604C25.8862 19.9226 25.1298 21.2419 24.228 21.2419C24.0534 21.2419 20.4315 21.2419 20.1697 21.2419C18.686 21.2713 16.6642 19.9373 16.6642 17.6798V15.8328C16.6787 13.9565 16.1551 13.9565 16.1551 13.9565Z" fill="#828282"/>
<path d="M20.6061 18.1194C20.6061 18.5152 19.3697 19.5559 19.297 19.6146C19.2097 19.1895 18.8897 18.735 17.9733 17.7969L19.3261 16.4336C20.2279 17.3424 20.6061 17.5477 20.6061 18.1194Z" fill="#828282"/>
<path d="M6.4241 33.2914H4.24223C3.55858 33.2914 3.61676 32.7197 3.54403 32.236V29.099C3.54403 29.099 4.02404 29.0843 4.56224 29.0843C5.15862 29.0843 5.915 28.9964 6.64229 29.4068C6.26409 28.6006 5.44953 28.1022 4.56224 28.1315H3.55858V27.12C3.55858 27.12 3.55858 26.2405 3.34039 25.9913H4.78043C6.01682 25.9913 6.97684 25.9766 7.9805 26.6363C7.9805 26.6363 7.7914 24.9798 5.39135 24.9798H0.707607C0.707607 24.9798 1.52217 25.6835 1.49308 27.1054L1.52217 32.8223C1.52217 34.2589 2.08946 34.3029 2.08946 34.3029H6.70047C7.74776 34.3029 8.11141 33.5553 8.11141 33.1448L8.12595 32.6025C8.12595 32.6025 7.7914 33.2914 6.4241 33.2914Z" fill="#828282"/>
<path d="M18.7008 32.8076V28.8057C18.7008 27.2518 17.4499 26.8414 16.5044 26.8414C15.268 26.8414 14.8898 27.8822 14.7298 28.2487C14.4534 27.2812 13.4789 26.8414 12.6934 26.8414C11.1952 26.8414 10.817 28.278 10.817 28.278C10.817 28.278 10.7879 26.8854 9.58059 26.8854H8.40238C8.40238 26.8854 9.08603 27.1639 9.08603 28.3659V32.8076C9.08603 34.2735 9.66786 34.3028 9.66786 34.3028H11.617C11.1515 33.951 10.8752 33.3939 10.8752 32.7929V28.8497C10.9043 28.6738 11.1952 28.0874 12.0243 28.0874C12.5043 28.0874 13.0279 28.5858 13.0134 29.1428V32.8076C13.0134 34.2881 13.5952 34.3028 13.5952 34.3028H15.5444C15.0789 33.9363 14.8025 33.3939 14.8025 32.7929V28.8497C14.9916 28.278 15.6025 27.9555 16.1844 28.146C16.6207 28.2926 16.9262 28.6884 16.9408 29.1575C16.9408 29.1575 16.9408 32.4997 16.9408 32.8076C16.9553 34.3028 17.5226 34.2881 17.5226 34.2881C18.5408 34.2881 19.4717 34.2881 19.4717 34.2881C18.9917 33.9363 18.7153 33.3939 18.7008 32.8076Z" fill="#828282"/>
<path d="M22.1043 32.8077C22.1043 33.3941 22.3807 33.9511 22.8461 34.3029C22.8461 34.3029 21.9152 34.3029 20.897 34.3029C20.897 34.3029 20.3006 34.3176 20.3006 32.8224V28.3514C20.3006 27.1787 19.6315 26.8708 19.6315 26.8708H20.8097C21.2315 26.8708 22.0897 26.8709 22.0897 28.5273V32.7784L22.1043 32.8077Z" fill="#828282"/>
<path d="M28.0972 27.4424C28.0972 27.4424 27.9081 26.9147 27.1081 26.9147C25.8863 26.9147 25.5953 28.3806 25.5953 28.3806C25.4935 27.2226 25.1881 26.8854 24.3299 26.8854H23.1516C23.1516 26.8854 23.8353 27.1639 23.8353 28.366V32.8076C23.8353 34.2735 24.4171 34.3028 24.4171 34.3028H26.3663C25.9008 33.951 25.6244 33.394 25.6244 32.8076V29.1575C25.6681 28.8497 25.8426 28.5712 26.1044 28.4099C26.759 27.9702 27.6172 28.1021 28.1263 28.7031L28.0972 27.4424Z" fill="#828282"/>
<path d="M37.1594 27.7062C37.5667 27.7062 37.9594 27.8089 38.3085 27.9994V26.8853H36.6794V25.1849C36.3303 25.7419 35.8794 26.2403 35.3703 26.6655C34.8175 27.1199 33.6539 27.6916 33.6539 27.6916L34.8903 27.7062V32.8662C34.8903 34.3027 35.4866 34.3028 35.4866 34.3028C36.5485 34.3028 37.4212 34.3028 37.4212 34.3028C36.9558 33.9656 36.6794 33.4232 36.6648 32.8515V27.7062C37.1885 27.7062 36.8394 27.7062 37.1594 27.7062Z" fill="#828282"/>
<path d="M43.0649 29.949C41.9739 31.0924 41.1157 30.9165 40.4321 31.7668C40.4321 31.7668 40.5484 32.9101 41.4066 33.3059C41.6976 33.4379 42.9049 33.8776 43.6758 32.529V33.731C43.6758 33.731 43.1812 34.3174 41.5957 34.3174C39.6902 34.3174 38.3811 32.8075 38.3811 30.7553C38.3811 28.7324 39.443 26.8707 41.4648 26.856C43.4285 26.8267 44.5049 28.4392 43.0649 29.949ZM41.8721 29.48C42.1921 28.8789 42.4539 27.3544 41.3485 27.4424C40.0684 27.545 40.3157 30.9605 40.3157 30.9605C40.7375 30.4914 41.3776 30.3888 41.8721 29.48Z" fill="#828282"/>
<path d="M21.2027 26.2846C21.6973 26.2699 22.0755 25.8595 22.0755 25.3758C22.0609 24.8773 21.6536 24.4962 21.1736 24.4962C20.6936 24.5109 20.3009 24.9067 20.3009 25.3904C20.3009 25.8888 20.7082 26.2846 21.2027 26.2846Z" fill="#828282"/>
<path d="M30.1192 33.4525C29.6829 33.4525 29.3629 32.9834 29.3629 32.5143C29.3629 30.6673 30.8611 30.4034 31.2684 29.9197V33.042C31.0793 33.1886 30.9047 33.4525 30.1192 33.4525ZM31.2684 29.2014C30.8174 29.993 27.2974 30.1689 27.8356 32.9101C28.0537 33.9949 28.7665 34.3174 29.6683 34.3174C30.5411 34.3174 31.0793 33.8629 31.2975 33.4232C31.4284 34.2441 31.8502 34.3027 31.8502 34.3027C32.8684 34.3027 33.7993 34.3027 33.7993 34.3027C33.3339 33.9509 33.0429 33.4085 33.0429 32.8221V28.6444C33.0429 27.6476 31.952 26.8706 30.7884 26.8706C30.1338 26.856 29.5083 27.0465 28.9701 27.413V28.703C28.9701 28.703 29.3774 27.6769 30.3811 27.6769C31.3702 27.6769 31.4429 28.1753 31.4429 28.4245C31.4575 28.6883 31.4138 28.9669 31.2684 29.2014Z" fill="#828282"/>
<path d="M47.3704 32.2799C47.385 32.8076 46.9195 33.4965 45.9304 33.4965C44.9122 33.4965 44.5049 32.4558 44.5049 32.4558V33.7751C45.0576 34.1269 45.6977 34.3028 46.3522 34.3028C47.6759 34.3028 49.0286 33.2913 48.9995 31.8694C48.985 31.4003 48.825 30.9459 48.5486 30.5794C48.0977 29.9784 47.2831 29.5533 46.6431 29.1575C46.2795 28.9376 46.0904 28.5272 46.0904 28.3952C46.0758 28.146 46.2068 27.6476 47.1813 27.6476C48.1413 27.6476 48.5632 28.6738 48.5632 28.6738V27.4278C48.025 27.0466 47.3704 26.8414 46.7013 26.8414C45.5377 26.8414 44.4758 27.6183 44.5049 28.6151C44.5194 29.4947 44.8831 30.0517 45.5958 30.5941C45.9158 30.8286 46.2504 31.0339 46.5995 31.2244C47.1522 31.5323 47.3559 31.9134 47.3704 32.2799Z" fill="#828282"/>
</svg>
