<svg width="32" height="32" viewBox="0 0 32 32" fill="none" xmlns="http://www.w3.org/2000/svg">
<path d="M26 32H6C2.686 32 0 29.314 0 26V6C0 2.686 2.686 0 6 0H26C29.314 0 32 2.686 32 6V26C32 29.314 29.314 32 26 32Z" fill="#2E2E2E"/>
<path d="M18.7269 10.657H20.1869V8.113C19.9359 8.078 19.0689 8 18.0599 8C15.9539 8 14.5119 9.325 14.5119 11.759V14H12.1879V16.844H14.5119V24L17.3609 24.001V16.845H19.5909L19.9449 14.001H17.3599V12.042C17.3609 11.22 17.5819 10.657 18.7269 10.657Z" fill="white"/>
</svg>
