<svg width="18" height="12" viewBox="0 0 18 12" fill="none" xmlns="http://www.w3.org/2000/svg">
<path d="M17.9996 0.000183105H0V12.0001H17.9996V0.000183105Z" fill="#F0F0F0"/>
<path d="M10.1248 0H7.87485V4.87488H0V7.12484H7.87485V11.9997H10.1248V7.12484H17.9996V4.87488H10.1248V0Z" fill="#D80027"/>
<path d="M13.8438 8.08685L17.9997 10.3957V8.08685H13.8438Z" fill="#0052B4"/>
<path d="M10.9563 8.08679L17.9996 11.9997V10.8933L12.948 8.08679H10.9563Z" fill="#0052B4"/>
<path d="M16.1235 11.9999L10.9563 9.12891V11.9999H16.1235Z" fill="#0052B4"/>
<path d="M10.9563 8.08676L17.9996 11.9997V10.8932L12.948 8.08676H10.9563Z" fill="#F0F0F0"/>
<path d="M10.9563 8.08676L17.9996 11.9997V10.8932L12.948 8.08676H10.9563Z" fill="#D80027"/>
<path d="M3.17599 8.08673L0 9.85119V8.08673H3.17599Z" fill="#0052B4"/>
<path d="M7.04338 8.58429V11.9997H0.896179L7.04338 8.58429Z" fill="#0052B4"/>
<path d="M5.05161 8.08676L0 10.8932V11.9997L7.04335 8.08676H5.05161Z" fill="#D80027"/>
<path d="M4.15591 3.913L0 1.60413V3.913H4.15591Z" fill="#0052B4"/>
<path d="M7.04335 3.91296L0 0V1.10649L5.05161 3.91296H7.04335Z" fill="#0052B4"/>
<path d="M1.8761 0L7.04333 2.87094V0H1.8761Z" fill="#0052B4"/>
<path d="M7.04335 3.91296L0 0V1.10649L5.05161 3.91296H7.04335Z" fill="#F0F0F0"/>
<path d="M7.04335 3.91296L0 0V1.10649L5.05161 3.91296H7.04335Z" fill="#D80027"/>
<path d="M14.8236 3.91308L17.9996 2.14862V3.91308H14.8236Z" fill="#0052B4"/>
<path d="M10.9563 3.41546V6.10352e-05H17.1035L10.9563 3.41546Z" fill="#0052B4"/>
<path d="M12.948 3.91296L17.9996 1.10649V0L10.9563 3.91296H12.948Z" fill="#D80027"/>
</svg>
