<svg width="24" height="16" viewBox="0 0 24 16" fill="none" xmlns="http://www.w3.org/2000/svg">
<path d="M24 0.000137329H0V16.0003H24V0.000137329Z" fill="#F0F0F0"/>
<path d="M13.5 0H10.5V6.49997H0V9.49997H10.5V15.9999H13.5V9.49997H24V6.49997H13.5V0Z" fill="#D80027"/>
<path d="M18.459 10.7826L24.0003 13.8611V10.7826H18.459Z" fill="#0052B4"/>
<path d="M14.6084 10.7826L23.9997 15.9999V14.5246L17.2641 10.7826H14.6084Z" fill="#0052B4"/>
<path d="M21.4982 15.9999L14.6084 12.1719V15.9999H21.4982Z" fill="#0052B4"/>
<path d="M14.6084 10.7826L23.9997 15.9999V14.5246L17.2641 10.7826H14.6084Z" fill="#F0F0F0"/>
<path d="M14.6084 10.7826L23.9997 15.9999V14.5246L17.2641 10.7826H14.6084Z" fill="#D80027"/>
<path d="M4.23473 10.7825L0 13.1351V10.7825H4.23473Z" fill="#0052B4"/>
<path d="M9.39174 11.4459V15.9999H1.19531L9.39174 11.4459Z" fill="#0052B4"/>
<path d="M6.73561 10.7826L0 14.5246V15.9999L9.39131 10.7826H6.73561Z" fill="#D80027"/>
<path d="M5.54133 5.21737L0 2.13881V5.21737H5.54133Z" fill="#0052B4"/>
<path d="M9.39131 5.21737L0 0V1.47534L6.73561 5.21737H9.39131Z" fill="#0052B4"/>
<path d="M2.50195 0L9.39174 3.828V0H2.50195Z" fill="#0052B4"/>
<path d="M9.39131 5.21737L0 0V1.47534L6.73561 5.21737H9.39131Z" fill="#F0F0F0"/>
<path d="M9.39131 5.21737L0 0V1.47534L6.73561 5.21737H9.39131Z" fill="#D80027"/>
<path d="M19.7656 5.21745L24.0004 2.86479V5.21745H19.7656Z" fill="#0052B4"/>
<path d="M14.6084 4.554V4.57764e-05H22.8048L14.6084 4.554Z" fill="#0052B4"/>
<path d="M17.2641 5.21737L23.9997 1.47534V0L14.6084 5.21737H17.2641Z" fill="#D80027"/>
</svg>
