<svg width="113" height="44" viewBox="0 0 113 44" fill="none" xmlns="http://www.w3.org/2000/svg">
<g filter="url(#filter0_d)">
<path d="M4 4C4 1.79086 5.79086 0 8 0H91C100.941 0 109 8.05888 109 18C109 27.9411 100.941 36 91 36H8C5.79086 36 4 34.2091 4 32V4Z" fill="#EC1C24"/>
</g>
<path d="M49.9375 0H91L60.2031 36H18L49.9375 0Z" fill="#FE3139" fill-opacity="0.5"/>
<path d="M49.9375 0H91L60.2031 36H18L49.9375 0Z" fill="#FE3139" fill-opacity="0.5"/>
<path d="M42.9375 0H46L14 36H11L42.9375 0Z" fill="#FE3139" fill-opacity="0.5"/>
<path d="M42.9375 0H46L14 36H11L42.9375 0Z" fill="#FE3139" fill-opacity="0.5"/>
<g clip-path="url(#clip0)">
<path d="M31.2201 18.1968C31.0597 16.1089 30.0876 14.8004 29.23 13.6458C28.4359 12.5769 27.75 11.6538 27.75 10.2922C27.75 10.1828 27.6888 10.0828 27.5916 10.0327C27.4942 9.98228 27.3771 9.99054 27.2886 10.0549C26.0006 10.9766 24.9259 12.5299 24.5505 14.0121C24.2899 15.0439 24.2554 16.204 24.2506 16.9701C23.0611 16.7161 22.7917 14.9369 22.7888 14.9175C22.7754 14.8252 22.7191 14.7449 22.637 14.701C22.5541 14.6577 22.4567 14.6546 22.3727 14.6962C22.3103 14.7264 20.8417 15.4726 20.7563 18.452C20.7503 18.5511 20.75 18.6505 20.75 18.7499C20.75 21.6444 23.1053 23.9996 26 23.9996C26.004 23.9998 26.0083 24.0004 26.0117 23.9996C26.0128 23.9996 26.0139 23.9996 26.0154 23.9996C28.903 23.9913 31.25 21.6393 31.25 18.7499C31.25 18.6044 31.2201 18.1968 31.2201 18.1968ZM26 23.4163C25.035 23.4163 24.25 22.5801 24.25 21.5522C24.25 21.5172 24.2497 21.4818 24.2523 21.4385C24.2639 21.0051 24.3463 20.7092 24.4366 20.5123C24.6058 20.8758 24.9082 21.2098 25.3996 21.2098C25.5608 21.2098 25.6913 21.0794 25.6913 20.9182C25.6913 20.503 25.6998 20.0239 25.8032 19.5915C25.8952 19.2082 26.1151 18.8003 26.3937 18.4734C26.5176 18.8977 26.7591 19.2412 26.995 19.5764C27.3325 20.056 27.6814 20.5519 27.7426 21.3975C27.7463 21.4477 27.7501 21.4981 27.7501 21.5522C27.75 22.58 26.965 23.4163 26 23.4163Z" fill="white"/>
</g>
<path d="M40.6865 16.1484H41.7393C42.2406 16.1484 42.612 16.0231 42.8535 15.7725C43.0951 15.5218 43.2158 15.1891 43.2158 14.7744C43.2158 14.3734 43.0951 14.0612 42.8535 13.8379C42.6165 13.6146 42.2884 13.5029 41.8691 13.5029C41.4909 13.5029 41.1742 13.6077 40.9189 13.8174C40.6637 14.0225 40.5361 14.2913 40.5361 14.624H38.5605C38.5605 14.1045 38.6995 13.6396 38.9775 13.2295C39.2601 12.8148 39.652 12.4912 40.1533 12.2588C40.6592 12.0264 41.2152 11.9102 41.8213 11.9102C42.874 11.9102 43.6989 12.1631 44.2959 12.6689C44.8929 13.1702 45.1914 13.863 45.1914 14.7471C45.1914 15.2028 45.0524 15.6221 44.7744 16.0049C44.4964 16.3877 44.1318 16.6816 43.6807 16.8867C44.2412 17.0872 44.6582 17.388 44.9316 17.7891C45.2096 18.1901 45.3486 18.6641 45.3486 19.2109C45.3486 20.0951 45.0251 20.8037 44.3779 21.3369C43.7354 21.8701 42.8831 22.1367 41.8213 22.1367C40.8278 22.1367 40.0143 21.8747 39.3809 21.3506C38.752 20.8265 38.4375 20.1338 38.4375 19.2725H40.4131C40.4131 19.6462 40.5521 19.9515 40.8301 20.1885C41.1126 20.4255 41.459 20.5439 41.8691 20.5439C42.3385 20.5439 42.7054 20.4209 42.9697 20.1748C43.2386 19.9242 43.373 19.5938 43.373 19.1836C43.373 18.1901 42.8262 17.6934 41.7324 17.6934H40.6865V16.1484ZM48.7256 16.1484H49.7783C50.2796 16.1484 50.651 16.0231 50.8926 15.7725C51.1341 15.5218 51.2549 15.1891 51.2549 14.7744C51.2549 14.3734 51.1341 14.0612 50.8926 13.8379C50.6556 13.6146 50.3275 13.5029 49.9082 13.5029C49.5299 13.5029 49.2132 13.6077 48.958 13.8174C48.7028 14.0225 48.5752 14.2913 48.5752 14.624H46.5996C46.5996 14.1045 46.7386 13.6396 47.0166 13.2295C47.2992 12.8148 47.6911 12.4912 48.1924 12.2588C48.6982 12.0264 49.2542 11.9102 49.8604 11.9102C50.9131 11.9102 51.738 12.1631 52.335 12.6689C52.932 13.1702 53.2305 13.863 53.2305 14.7471C53.2305 15.2028 53.0915 15.6221 52.8135 16.0049C52.5355 16.3877 52.1709 16.6816 51.7197 16.8867C52.2803 17.0872 52.6973 17.388 52.9707 17.7891C53.2487 18.1901 53.3877 18.6641 53.3877 19.2109C53.3877 20.0951 53.0641 20.8037 52.417 21.3369C51.7744 21.8701 50.9222 22.1367 49.8604 22.1367C48.8669 22.1367 48.0534 21.8747 47.4199 21.3506C46.791 20.8265 46.4766 20.1338 46.4766 19.2725H48.4521C48.4521 19.6462 48.5911 19.9515 48.8691 20.1885C49.1517 20.4255 49.498 20.5439 49.9082 20.5439C50.3776 20.5439 50.7445 20.4209 51.0088 20.1748C51.2777 19.9242 51.4121 19.5938 51.4121 19.1836C51.4121 18.1901 50.8652 17.6934 49.7715 17.6934H48.7256V16.1484ZM54.7275 13.9609C54.7275 13.3503 54.9258 12.8558 55.3223 12.4775C55.7188 12.0947 56.2383 11.9033 56.8809 11.9033C57.5326 11.9033 58.0566 12.0924 58.4531 12.4707C58.8496 12.8444 59.0479 13.3525 59.0479 13.9951V14.4873C59.0479 15.1025 58.8496 15.597 58.4531 15.9707C58.0566 16.3444 57.5371 16.5312 56.8945 16.5312C56.2474 16.5312 55.7233 16.3444 55.3223 15.9707C54.9258 15.5924 54.7275 15.0843 54.7275 14.4463V13.9609ZM56.04 14.4873C56.04 14.7607 56.1175 14.9818 56.2725 15.1504C56.432 15.3145 56.6393 15.3965 56.8945 15.3965C57.1497 15.3965 57.3525 15.3122 57.5029 15.1436C57.6533 14.9749 57.7285 14.7493 57.7285 14.4668V13.9609C57.7285 13.6875 57.6533 13.4665 57.5029 13.2979C57.3525 13.1292 57.1452 13.0449 56.8809 13.0449C56.6302 13.0449 56.4274 13.1292 56.2725 13.2979C56.1175 13.4619 56.04 13.6921 56.04 13.9883V14.4873ZM59.4854 19.5596C59.4854 18.9443 59.6859 18.4499 60.0869 18.0762C60.488 17.6979 61.0075 17.5088 61.6455 17.5088C62.2926 17.5088 62.8145 17.6956 63.2109 18.0693C63.612 18.4385 63.8125 18.9489 63.8125 19.6006V20.0928C63.8125 20.7035 63.6165 21.1979 63.2246 21.5762C62.8327 21.9499 62.3109 22.1367 61.6592 22.1367C61.0029 22.1367 60.4766 21.9476 60.0801 21.5693C59.6836 21.1911 59.4854 20.6898 59.4854 20.0654V19.5596ZM60.7979 20.0928C60.7979 20.3434 60.8799 20.5576 61.0439 20.7354C61.208 20.9131 61.4131 21.002 61.6592 21.002C62.2152 21.002 62.4932 20.6943 62.4932 20.0791V19.5596C62.4932 19.2861 62.4157 19.0674 62.2607 18.9033C62.1058 18.7347 61.9007 18.6504 61.6455 18.6504C61.3903 18.6504 61.1852 18.7347 61.0303 18.9033C60.8753 19.0674 60.7979 19.293 60.7979 19.5801V20.0928ZM57.2842 21.2549L56.3203 20.7354L61.1807 12.9561L62.1445 13.4756L57.2842 21.2549ZM76.9648 17.249C76.9648 18.2288 76.7917 19.0879 76.4453 19.8262C76.099 20.5645 75.6022 21.1341 74.9551 21.5352C74.3125 21.9362 73.5742 22.1367 72.7402 22.1367C71.9154 22.1367 71.1794 21.9385 70.5322 21.542C69.8851 21.1455 69.3838 20.5804 69.0283 19.8467C68.6729 19.1084 68.4928 18.2607 68.4883 17.3037V16.8115C68.4883 15.8317 68.6637 14.9704 69.0146 14.2275C69.3701 13.4801 69.8691 12.9082 70.5117 12.5117C71.1589 12.1107 71.8971 11.9102 72.7266 11.9102C73.556 11.9102 74.292 12.1107 74.9346 12.5117C75.5817 12.9082 76.0807 13.4801 76.4316 14.2275C76.7871 14.9704 76.9648 15.8294 76.9648 16.8047V17.249ZM74.8867 16.7979C74.8867 15.7542 74.6999 14.9613 74.3262 14.4189C73.9525 13.8766 73.4193 13.6055 72.7266 13.6055C72.0384 13.6055 71.5075 13.8743 71.1338 14.4121C70.7601 14.9453 70.571 15.7292 70.5664 16.7637V17.249C70.5664 18.2653 70.7533 19.0537 71.127 19.6143C71.5007 20.1748 72.0384 20.4551 72.7402 20.4551C73.4284 20.4551 73.957 20.1862 74.3262 19.6484C74.6953 19.1061 74.8822 18.3177 74.8867 17.2832V16.7979ZM84.4434 17.9326H80.5059V22H78.4551V12.0469H84.9355V13.708H80.5059V16.2783H84.4434V17.9326ZM92.1133 17.9326H88.1758V22H86.125V12.0469H92.6055V13.708H88.1758V16.2783H92.1133V17.9326Z" fill="white"/>
<defs>
<filter id="filter0_d" x="0" y="0" width="113" height="44" filterUnits="userSpaceOnUse" color-interpolation-filters="sRGB">
<feFlood flood-opacity="0" result="BackgroundImageFix"/>
<feColorMatrix in="SourceAlpha" type="matrix" values="0 0 0 0 0 0 0 0 0 0 0 0 0 0 0 0 0 0 127 0"/>
<feOffset dy="4"/>
<feGaussianBlur stdDeviation="2"/>
<feColorMatrix type="matrix" values="0 0 0 0 0 0 0 0 0 0 0 0 0 0 0 0 0 0 0.1 0"/>
<feBlend mode="normal" in2="BackgroundImageFix" result="effect1_dropShadow"/>
<feBlend mode="normal" in="SourceGraphic" in2="effect1_dropShadow" result="shape"/>
</filter>
<clipPath id="clip0">
<rect width="14" height="14" fill="white" transform="translate(19 10)"/>
</clipPath>
</defs>
</svg>
