<svg width="81" height="16" viewBox="0 0 81 16" fill="none" xmlns="http://www.w3.org/2000/svg">
<g clip-path="url(#clip0)">
<path d="M8.00004 5.88127C8.96567 4.85945 10.3249 4.25007 11.7499 4.25007H13.578C12.1155 3.05945 10.1187 2.37512 8.00004 2.37512C5.88136 2.37512 3.89391 3.05007 2.43146 4.25007H4.25015C5.5824 4.2501 7.02507 4.85945 8.00004 5.88127Z" fill="black"/>
<path d="M4.21889 8C3.44076 8 2.81268 8.62807 2.81268 9.40621C2.81268 10.1843 3.44076 10.8124 4.21889 10.8124C4.99703 10.8124 5.6251 10.1843 5.6251 9.40621C5.6251 8.62807 4.997 8 4.21889 8ZM4.21889 9.87494C3.95637 9.87494 3.75016 9.66873 3.75016 9.40621C3.75016 9.14368 3.95637 8.93747 4.21889 8.93747C4.48142 8.93747 4.68763 9.14368 4.68763 9.40621C4.68763 9.66873 4.48139 9.87494 4.21889 9.87494Z" fill="#EC1C24"/>
<path d="M15.5171 6.72501L15.9529 5.86257C16.0186 5.72198 16.0186 5.54386 15.9342 5.41262C15.8404 5.27203 15.6904 5.18762 15.531 5.18762H11.7811C10.1968 5.18762 8.70312 6.11572 8.00001 7.47505C7.26875 6.07822 5.76573 5.18762 4.21887 5.18762H0.468984C0.309645 5.18762 0.159587 5.27203 0.0658714 5.41262C-0.0185324 5.54386 -0.0185324 5.72201 0.0470907 5.86257L0.482984 6.72492C0.170525 7.50096 0.000217076 8.66055 0.000217076 9.40625C0.000217076 11.7311 1.89394 13.6249 4.21884 13.6249C5.30628 13.6249 6.31878 13.2124 7.09688 12.4718C7.09819 12.4707 7.09923 12.4692 7.10054 12.468L7.58068 13.3658C7.66033 13.5246 7.82236 13.6249 7.99998 13.6249C8.1776 13.6249 8.33963 13.5246 8.41928 13.3658L8.87127 12.4618C8.87149 12.462 8.90286 12.4623 8.90308 12.4624C9.69996 13.2311 10.7218 13.6249 11.7811 13.6249C14.106 13.6249 15.9997 11.7311 15.9997 9.40625C15.9998 8.65924 15.8292 7.50024 15.5171 6.72501ZM4.2189 11.7499C2.92519 11.7499 1.87522 10.7 1.87522 9.40625C1.87522 8.11254 2.92519 7.06257 4.2189 7.06257C5.51262 7.06257 6.56259 8.11254 6.56259 9.40625C6.56259 10.7 5.51262 11.7499 4.2189 11.7499ZM8.00004 12.1079L7.79052 11.6888C7.79155 11.6872 7.7928 11.6859 7.79383 11.6843V11.6749C7.8688 11.5624 7.93442 11.4499 8.00004 11.3374C8.06567 11.4499 8.13129 11.5624 8.21563 11.6749C8.21579 11.6752 8.21597 11.6754 8.21613 11.6757L8.00004 12.1079ZM11.7812 11.7499C10.4875 11.7499 9.4375 10.7 9.4375 9.40625C9.4375 8.11254 10.4875 7.06257 11.7812 7.06257C13.0749 7.06257 14.1249 8.11254 14.1249 9.40625C14.1249 10.7 13.0749 11.7499 11.7812 11.7499Z" fill="black"/>
<path d="M11.7811 8C11.003 8 10.3749 8.62807 10.3749 9.40621C10.3749 10.1843 11.003 10.8124 11.7811 10.8124C12.5593 10.8124 13.1874 10.1843 13.1874 9.40621C13.1874 8.62807 12.5592 8 11.7811 8ZM11.7811 9.87494C11.5186 9.87494 11.3124 9.66873 11.3124 9.40621C11.3124 9.14368 11.5186 8.93747 11.7811 8.93747C12.0437 8.93747 12.2499 9.14368 12.2499 9.40621C12.2499 9.66873 12.0436 9.87494 11.7811 9.87494Z" fill="#078171"/>
</g>
<g clip-path="url(#clip1)">
<path d="M27 5.25C25.482 5.25 24.25 6.482 24.25 8C24.25 9.518 25.482 10.75 27 10.75C28.518 10.75 29.75 9.518 29.75 8C29.75 6.482 28.518 5.25 27 5.25ZM27 2.5C23.964 2.5 21.5 4.964 21.5 8C21.5 11.036 23.964 13.5 27 13.5C30.036 13.5 32.5 11.036 32.5 8C32.5 4.964 30.036 2.5 27 2.5ZM27 12.4C24.569 12.4 22.6 10.431 22.6 8C22.6 5.569 24.569 3.6 27 3.6C29.431 3.6 31.4 5.569 31.4 8C31.4 10.431 29.431 12.4 27 12.4Z" fill="#078171"/>
</g>
<g clip-path="url(#clip2)">
<path d="M39 5.25C37.482 5.25 36.25 6.482 36.25 8C36.25 9.518 37.482 10.75 39 10.75C40.518 10.75 41.75 9.518 41.75 8C41.75 6.482 40.518 5.25 39 5.25ZM39 2.5C35.964 2.5 33.5 4.964 33.5 8C33.5 11.036 35.964 13.5 39 13.5C42.036 13.5 44.5 11.036 44.5 8C44.5 4.964 42.036 2.5 39 2.5ZM39 12.4C36.569 12.4 34.6 10.431 34.6 8C34.6 5.569 36.569 3.6 39 3.6C41.431 3.6 43.4 5.569 43.4 8C43.4 10.431 41.431 12.4 39 12.4Z" fill="#078171"/>
</g>
<g clip-path="url(#clip3)">
<path d="M51 5.25C49.482 5.25 48.25 6.482 48.25 8C48.25 9.518 49.482 10.75 51 10.75C52.518 10.75 53.75 9.518 53.75 8C53.75 6.482 52.518 5.25 51 5.25ZM51 2.5C47.964 2.5 45.5 4.964 45.5 8C45.5 11.036 47.964 13.5 51 13.5C54.036 13.5 56.5 11.036 56.5 8C56.5 4.964 54.036 2.5 51 2.5ZM51 12.4C48.569 12.4 46.6 10.431 46.6 8C46.6 5.569 48.569 3.6 51 3.6C53.431 3.6 55.4 5.569 55.4 8C55.4 10.431 53.431 12.4 51 12.4Z" fill="#078171"/>
</g>
<g clip-path="url(#clip4)">
<path d="M63 5.25C61.482 5.25 60.25 6.482 60.25 8C60.25 9.518 61.482 10.75 63 10.75C64.518 10.75 65.75 9.518 65.75 8C65.75 6.482 64.518 5.25 63 5.25ZM63 2.5C59.964 2.5 57.5 4.964 57.5 8C57.5 11.036 59.964 13.5 63 13.5C66.036 13.5 68.5 11.036 68.5 8C68.5 4.964 66.036 2.5 63 2.5ZM63 12.4C60.569 12.4 58.6 10.431 58.6 8C58.6 5.569 60.569 3.6 63 3.6C65.431 3.6 67.4 5.569 67.4 8C67.4 10.431 65.431 12.4 63 12.4Z" fill="#078171"/>
</g>
<g clip-path="url(#clip5)">
<path d="M75 5.25C73.482 5.25 72.25 6.482 72.25 8C72.25 9.518 73.482 10.75 75 10.75C76.518 10.75 77.75 9.518 77.75 8C77.75 6.482 76.518 5.25 75 5.25ZM75 2.5C71.964 2.5 69.5 4.964 69.5 8C69.5 11.036 71.964 13.5 75 13.5C78.036 13.5 80.5 11.036 80.5 8C80.5 4.964 78.036 2.5 75 2.5ZM75 12.4C72.569 12.4 70.6 10.431 70.6 8C70.6 5.569 72.569 3.6 75 3.6C77.431 3.6 79.4 5.569 79.4 8C79.4 10.431 77.431 12.4 75 12.4Z" fill="#078171"/>
</g>
<defs>
<clipPath id="clip0">
<rect width="16" height="16" fill="white"/>
</clipPath>
<clipPath id="clip1">
<rect width="12" height="12" fill="white" transform="translate(21 2)"/>
</clipPath>
<clipPath id="clip2">
<rect width="12" height="12" fill="white" transform="translate(33 2)"/>
</clipPath>
<clipPath id="clip3">
<rect width="12" height="12" fill="white" transform="translate(45 2)"/>
</clipPath>
<clipPath id="clip4">
<rect width="12" height="12" fill="white" transform="translate(57 2)"/>
</clipPath>
<clipPath id="clip5">
<rect width="12" height="12" fill="white" transform="translate(69 2)"/>
</clipPath>
</defs>
</svg>
