<svg width="24" height="24" viewBox="0 0 24 24" fill="none" xmlns="http://www.w3.org/2000/svg">
<path d="M22.2222 12.8889H4.88886V4.44446C4.88886 4.19879 4.69011 4 4.44445 4H1.77779C1.53212 4 1.33333 4.19879 1.33333 4.44446V19.5556C1.33333 19.8012 1.53212 20 1.77779 20H4.44445C4.69011 20 4.8889 19.8012 4.8889 19.5555V16.4444H19.1111V19.5555C19.1111 19.8012 19.3099 20 19.5555 20H22.2222C22.4679 20 22.6667 19.8012 22.6667 19.5555V13.3333C22.6666 13.0876 22.4678 12.8889 22.2222 12.8889Z" fill="#005AEB"/>
<path d="M8.44431 12C9.91707 12 11.111 10.8061 11.111 9.33335C11.111 7.86059 9.91707 6.66669 8.44431 6.66669C6.97155 6.66669 5.77765 7.86059 5.77765 9.33335C5.77765 10.8061 6.97155 12 8.44431 12Z" fill="#005AEB"/>
<path d="M12.4445 12H22.2223C22.468 12 22.6668 11.8012 22.6668 11.5556C22.6667 8.85981 20.4736 6.66669 17.7779 6.66669H12.4445C12.1989 6.66669 12.0001 6.86548 12.0001 7.11114V11.5556C12.0001 11.8012 12.1989 12 12.4445 12Z" fill="#005AEB"/>
</svg>
