<svg width="32" height="32" viewBox="0 0 32 32" fill="none" xmlns="http://www.w3.org/2000/svg">
<path d="M5.52119 32L3.36553 29.8443L6.59903 15.8325L0.67095 9.90445C-0.22365 9.00985 -0.22365 7.56555 0.67095 6.67095C1.56555 5.77635 3.00985 5.77635 3.90445 6.67095L9.83252 12.599L23.8443 9.36553L26 11.5212L14.6828 17.4493L20.6108 23.3773L24.3832 22.8384L26 24.4552L21.1498 27.1498L18.4552 32L16.8384 30.3832L17.3773 26.6108L11.4493 20.6828L5.52119 32Z" fill="#005AEB"/>
<path d="M29.1523 2.8066H32V3.96226H29.1523V7H27.8477V3.96226H25V2.8066H27.8477V0H29.1523V2.8066Z" fill="#005AEB"/>
</svg>
