<svg width="34" height="34" viewBox="0 0 34 34" fill="none" xmlns="http://www.w3.org/2000/svg">
<circle cx="17" cy="17" r="16" fill="white" stroke="#C8CACD"/>
<path d="M24.2825 14.9675L21.2825 11.9675C21.2125 11.8976 21.1295 11.8421 21.0381 11.8043C20.9468 11.7664 20.8488 11.7469 20.75 11.7469C20.5502 11.7469 20.3587 11.8263 20.2175 11.9675C20.0762 12.1087 19.9969 12.3003 19.9969 12.5C19.9969 12.6997 20.0762 12.8913 20.2175 13.0325L21.9425 14.75H13.25C13.051 14.75 12.8603 14.829 12.7196 14.9697C12.579 15.1103 12.5 15.3011 12.5 15.5C12.5 15.6989 12.579 15.8897 12.7196 16.0303C12.8603 16.171 13.051 16.25 13.25 16.25H23.75C23.898 16.2493 24.0426 16.2047 24.1653 16.122C24.2881 16.0392 24.3837 15.922 24.44 15.785C24.4974 15.6484 24.5131 15.4979 24.485 15.3524C24.457 15.2069 24.3865 15.073 24.2825 14.9675ZM20.75 17.75H10.25C10.1019 17.7508 9.95735 17.7953 9.83456 17.8781C9.71177 17.9608 9.61622 18.0781 9.55995 18.215C9.50252 18.3516 9.48683 18.5021 9.51486 18.6476C9.54289 18.7931 9.61338 18.9271 9.71745 19.0325L12.7175 22.0325C12.7872 22.1028 12.8701 22.1586 12.9615 22.1967C13.0529 22.2348 13.1509 22.2544 13.25 22.2544C13.349 22.2544 13.447 22.2348 13.5384 22.1967C13.6298 22.1586 13.7127 22.1028 13.7825 22.0325C13.8527 21.9628 13.9085 21.8798 13.9466 21.7885C13.9847 21.6971 14.0043 21.599 14.0043 21.5C14.0043 21.401 13.9847 21.303 13.9466 21.2116C13.9085 21.1202 13.8527 21.0372 13.7825 20.9675L12.0575 19.25H20.75C20.9489 19.25 21.1396 19.171 21.2803 19.0303C21.4209 18.8897 21.5 18.6989 21.5 18.5C21.5 18.3011 21.4209 18.1103 21.2803 17.9697C21.1396 17.829 20.9489 17.75 20.75 17.75Z" fill="#005AEB"/>
</svg>
