<svg width="8" height="12" viewBox="0 0 8 12" fill="none" xmlns="http://www.w3.org/2000/svg">
<path d="M6.71368 0H1.2838C0.840234 0 0.477539 0.360078 0.477539 0.803643V11.1963C0.477539 11.6425 0.840234 12.0026 1.2838 12H6.71366C7.15984 12 7.51992 11.6399 7.52253 11.1963V0.803643C7.52253 0.360078 7.15986 0 6.71368 0ZM7.00069 11.1989C7.00069 11.3555 6.87283 11.4807 6.71368 11.4807H1.2838C1.12724 11.4807 0.999382 11.3555 0.999382 11.1989V4.9576H7.00067V11.1989H7.00069ZM7.00069 4.43573H0.999407V0.803643C0.999407 0.647088 1.12727 0.521843 1.28382 0.521843H6.71368C6.87024 0.521843 6.9981 0.647088 7.00069 0.803643V4.43573V4.43573Z" fill="#2E2E2E"/>
<path d="M6.21796 2.08737C6.07445 2.08737 5.95703 2.20479 5.95703 2.34831V3.39202C5.95703 3.53554 6.07445 3.65295 6.21796 3.65295C6.36148 3.65295 6.4789 3.53554 6.4789 3.39202V2.34831C6.4789 2.20479 6.36148 2.08737 6.21796 2.08737Z" fill="#2E2E2E"/>
<path d="M6.21796 7.30595C6.36148 7.30595 6.4789 7.18853 6.4789 7.04502V5.7404C6.4789 5.59688 6.36148 5.47946 6.21796 5.47946C6.07445 5.47946 5.95703 5.59688 5.95703 5.7404V7.04502C5.95703 7.18853 6.07445 7.30595 6.21796 7.30595Z" fill="#2E2E2E"/>
</svg>
