<svg width="24" height="24" viewBox="0 0 24 24" fill="none" xmlns="http://www.w3.org/2000/svg">
<path d="M20.6965 2.56519H18.3762V1.6787C18.3762 1.41964 18.1659 1.20935 17.9069 1.20935C17.6478 1.20935 17.4375 1.41964 17.4375 1.6787V2.56519H9.51177V1.6787C9.51177 1.41964 9.30149 1.20935 9.04242 1.20935C8.78336 1.20935 8.57308 1.41964 8.57308 1.6787V2.56519H6.09631C4.68582 2.56682 3.54288 3.7096 3.54124 5.1201V12.9417C3.54124 13.2008 3.75153 13.4109 4.01059 13.4109C4.26966 13.4109 4.47978 13.2008 4.47978 12.9417V9.86529H22.3131V20.2419C22.3119 21.1342 21.5889 21.8572 20.6965 21.8582H6.09631C5.20395 21.8572 4.48092 21.1342 4.47978 20.2419V17.5303C4.47978 17.2713 4.26966 17.061 4.01059 17.061C3.75153 17.061 3.54124 17.2713 3.54124 17.5303V20.2419C3.54288 21.6523 4.68582 22.7953 6.09631 22.7969H20.6965C22.107 22.7953 23.25 21.6523 23.2516 20.2419V5.1201C23.25 3.7096 22.107 2.56682 20.6965 2.56519ZM4.47978 8.9266V5.1201C4.48092 4.22773 5.20395 3.5047 6.09631 3.50372H8.57308V4.778C7.86636 5.00867 7.43225 5.71881 7.54906 6.4531C7.66586 7.18722 8.299 7.72753 9.04242 7.72753C9.78584 7.72753 10.419 7.18722 10.5358 6.4531C10.6526 5.71881 10.2185 5.00867 9.51177 4.778V3.50372H17.4375V4.778C16.7308 5.00867 16.2967 5.71881 16.4135 6.4531C16.5303 7.18722 17.1634 7.72753 17.9069 7.72753C18.6503 7.72753 19.2834 7.18722 19.4002 6.4531C19.517 5.71881 19.0829 5.00867 18.3762 4.778V3.50372H20.6965C21.5889 3.5047 22.3119 4.22773 22.3131 5.1201V8.9266H4.47978ZM9.04242 5.64165C9.35924 5.64165 9.61602 5.89843 9.61602 6.21524C9.61602 6.53189 9.35924 6.78884 9.04242 6.78884C8.72577 6.78884 8.46883 6.53189 8.46883 6.21524C8.46932 5.89859 8.72594 5.64197 9.04242 5.64165ZM17.9069 5.64165C18.2237 5.64165 18.4805 5.89843 18.4805 6.21524C18.4805 6.53189 18.2237 6.78884 17.9069 6.78884C17.5902 6.78884 17.3333 6.53189 17.3333 6.21524C17.3338 5.89859 17.5904 5.64197 17.9069 5.64165Z" fill="#005AEB"/>
<path d="M8.81533 17.355C8.63212 17.5384 8.63212 17.8353 8.81533 18.0187C8.9987 18.202 9.29561 18.202 9.47897 18.0187L11.9298 15.5678C12.113 15.3846 12.113 15.0876 11.9298 14.9044L9.47897 12.4536C9.29561 12.2702 8.9987 12.2702 8.81533 12.4536C8.63212 12.6369 8.63212 12.9338 8.81533 13.1172L10.465 14.7668H1.22142C0.962352 14.7668 0.752068 14.977 0.752068 15.236C0.752068 15.4953 0.962352 15.7054 1.22142 15.7054H10.465L8.81533 17.355Z" fill="#005AEB"/>
</svg>
