<svg xmlns="http://www.w3.org/2000/svg" width="16" height="16" fill="#005aeb"  xmlns:v="https://vecta.io/nano"><path d="M11.319 4.148a.93.93 0 0 0 .938-.923v-.966a.93.93 0 0 0-.938-.925.93.93 0 0 0-.938.925v.967a.93.93 0 0 0 .938.923zm3.333-1.215h-1.889v.47a1.42 1.42 0 0 1-1.428 1.408c-.79 0-1.428-.632-1.428-1.408v-.47H6.096v.47c0 .776-.641 1.408-1.429 1.408a1.42 1.42 0 0 1-1.428-1.408v-.47L1.334 2.91v11.757h.953 11.428l.952-.003-.014-11.731zm-.938 10.797H2.287V6.22h11.428v7.511h-.001zM4.653 4.148a.93.93 0 0 0 .939-.923v-.966a.93.93 0 0 0-.939-.925.93.93 0 0 0-.937.925v.967a.93.93 0 0 0 .937.923zM7.6 7.228H6.099v1.306H7.6V7.228zm2.428 0H8.525v1.306h1.502V7.228zm2.249 0h-1.501v1.306h1.501V7.228zM7.6 9.396H6.099v1.305H7.6V9.396zm2.428 0H8.525v1.305h1.502V9.396zm2.249 0h-1.501v1.305h1.501V9.396zM7.6 11.607H6.099v1.305H7.6v-1.305zM5.216 9.396h-1.5v1.305h1.5V9.396zm0 2.211h-1.5v1.305h1.5v-1.305zm4.812 0H8.525v1.305h1.502v-1.305zm2.249 0h-1.501v1.305h1.501v-1.305z"/></svg>