<svg xmlns="http://www.w3.org/2000/svg" width="24" height="24" fill="none"  xmlns:v="https://vecta.io/nano"><g clip-path="url(#A)"><path d="M22.675 0H1.324C.593 0 0 .593 0 1.325v21.352C0 23.408.593 24 1.325 24h21.35c.732 0 1.325-.593 1.325-1.324V1.324C24 .593 23.407 0 22.675 0z" fill="#4267b2"/><path d="M16.57 24v-9.281h3.129l.469-3.633H16.57V8.772c0-1.049.291-1.764 1.796-1.764h1.907v-3.24c-.332-.044-1.47-.143-2.795-.143-2.766 0-4.658 1.688-4.658 4.788v2.674H9.703v3.633h3.117V24h3.75z" fill="#fff"/></g><defs><clipPath id="A"><path fill="#fff" d="M0 0h24v24H0z"/></clipPath></defs></svg>