<svg xmlns="http://www.w3.org/2000/svg" width="18" height="22" fill="none"  xmlns:v="https://vecta.io/nano"><path d="M10.937.991v6.134c0 .327-1.012 1.124-1.689 1.621v1.809c.348.12.6.448.6.837v9.601a.89.89 0 0 1-.888.889h-.623a.89.89 0 0 1-.889-.889v-9.601c0-.389.252-.716.6-.837v-1.79c-.719-.495-1.823-1.309-1.823-1.641V.991c0-.491.239-.889.769-.889h.317v6.399c0 .152.194.275.433.275s.432-.123.432-.275V.102h.801v6.399c0 .152.193.275.433.275s.432-.123.432-.275V.102h.132c.53 0 .96.398.96.889zM2.366.141S0 1.688 0 5.782v.81c0 4.04.888 5.82 1.484 6.85v7.901c0 .363.294.657.657.657h.46c.363 0 .657-.294.657-.657v-8.286c.011-.058.017-.117.017-.178V1.051c0-.502-.196-1.198-.909-.91zm15.625 4.016C17.991 1.861 16.832 0 15.403 0s-2.588 1.861-2.588 4.157c0 1.964.849 3.605 1.989 4.04v2.577c-.348.121-.601.447-.601.837v9.483a.89.89 0 0 0 .889.889h.622a.89.89 0 0 0 .889-.889v-9.484c0-.389-.251-.716-.6-.837V8.197c1.14-.435 1.988-2.077 1.988-4.04z" fill="#828282"/></svg>