<svg width="80" height="80" viewBox="0 0 80 80" fill="none" xmlns="http://www.w3.org/2000/svg">
<path d="M40 6.66663C21.5905 6.66663 6.66669 21.5905 6.66669 40C6.66669 58.4095 21.5905 73.3333 40 73.3333C58.4095 73.3333 73.3334 58.4095 73.3334 40C73.3138 21.5987 58.4014 6.6863 40 6.66663ZM58.3501 29.7785L34.5405 53.5882C33.6106 54.5177 32.1035 54.5177 31.1738 53.5882L21.65 44.0643C20.7041 43.1508 20.6779 41.6435 21.5914 40.6976C22.5049 39.7518 24.0121 39.7256 24.958 40.6391C24.9778 40.6583 24.9974 40.6777 25.0166 40.6976L32.8572 48.5382L54.9834 26.4119C55.9293 25.4984 57.4366 25.5246 58.3501 26.4704C59.2413 27.3931 59.2413 28.8558 58.3501 29.7785Z" fill="#008009"/>
</svg>
