<svg xmlns="http://www.w3.org/2000/svg" width="48" height="48" fill="#005aeb" xmlns:v="https://vecta.io/nano"><path d="M28 22.075V15.25c-.001-.994-.397-1.947-1.1-2.65a3.76 3.76 0 0 0-2.65-1.1h-3V7.75A.75.75 0 0 0 20.5 7h-9a.75.75 0 0 0-.75.75v3.75h-3c-.994.001-1.947.397-2.65 1.1S4.001 14.256 4 15.25v6.825c-.847.174-1.607.634-2.154 1.304S1.001 24.886 1 25.75v10.5a.75.75 0 0 0 .75.75h.75v3.75a.75.75 0 0 0 .75.75h4.5a.75.75 0 0 0 .75-.75V37h15v3.75a.75.75 0 0 0 .75.75h4.5a.75.75 0 0 0 .75-.75V37h.75a.75.75 0 0 0 .75-.75v-10.5a3.76 3.76 0 0 0-.846-2.371c-.546-.669-1.307-1.13-2.154-1.304zM12.25 8.5h7.5v3h-7.5v-3zM7.75 13h16.5a2.25 2.25 0 0 1 2.25 2.25V22h-21v-6.75A2.25 2.25 0 0 1 7.75 13zm-3 10.5h22.5a2.25 2.25 0 0 1 2.25 2.25v6.75h-27v-6.75a2.25 2.25 0 0 1 2.25-2.25zM7 40H4v-3h3v3zm21 0h-3v-3h3v3zM2.5 35.5V34h27v1.5h-27zM7 31a3 3 0 0 0 2.122-5.121A3 3 0 0 0 4 28a3 3 0 0 0 3 3zm0-4.5a1.5 1.5 0 0 1 1.061 2.561A1.5 1.5 0 0 1 5.5 28 1.5 1.5 0 0 1 7 26.5zM25 31a3 3 0 0 0 2.122-5.121A3 3 0 0 0 22 28a3 3 0 0 0 3 3zm0-4.5a1.5 1.5 0 0 1 1.061 2.561A1.5 1.5 0 0 1 23.5 28a1.5 1.5 0 0 1 1.5-1.5zm-12-.75h6v1.5h-6v-1.5zm0 3h6v1.5h-6v-1.5zM43.75 22h-1.5v-4.5H43a.75.75 0 0 0 .75-.75v-3A.75.75 0 0 0 43 13h-7.5a.75.75 0 0 0-.75.75v3a.75.75 0 0 0 .75.75h.75V22h-1.5a2.25 2.25 0 0 0-2.25 2.25v12a2.25 2.25 0 0 0 1.5 2.112v2.388a.75.75 0 0 0 .75.75h3a.75.75 0 0 0 .75-.75V38.5H40v2.25a.75.75 0 0 0 .75.75h3a.75.75 0 0 0 .75-.75v-2.388A2.25 2.25 0 0 0 46 36.25v-12A2.25 2.25 0 0 0 43.75 22zm-7.5-7.5h6V16h-6v-1.5zm1.5 3h3V22h-3v-4.5zM37 40h-1.5v-1.5H37V40zm4.5 0v-1.5H43V40h-1.5zm3-3.75a.75.75 0 0 1-.75.75h-9a.75.75 0 0 1-.75-.75v-12a.75.75 0 0 1 .75-.75h9a.75.75 0 0 1 .75.75v12zm-9-9.75H37V34h-1.5v-7.5zm3 0H40V34h-1.5v-7.5zm3 0H43V34h-1.5v-7.5z"/></svg>