<svg width="16" height="16" viewBox="0 0 16 16" fill="none" xmlns="http://www.w3.org/2000/svg">
<rect x="0.5" y="0.5" width="15" height="15" rx="7.5" stroke="#BE1E2D"/>
<path d="M5.79485 4.02759L5.27072 4C5.10519 4 4.93969 4.05519 4.82935 4.16553C4.58107 4.38622 4.16729 4.8 4.05694 5.35175C3.86385 6.17934 4.16729 7.17244 4.88454 8.16553C5.60179 9.15863 6.9811 10.7586 9.40866 11.4483C10.1811 11.669 10.788 11.531 11.2845 11.2276C11.6708 10.9793 11.919 10.5931 12.0018 10.1793L12.0845 9.79309C12.1121 9.68275 12.0569 9.54481 11.9466 9.48966L10.2087 8.68966C10.0983 8.63447 9.96038 8.66206 9.87763 8.77241L9.18797 9.65516C9.13279 9.71034 9.05004 9.73791 8.96729 9.71034C8.49832 9.54481 6.92591 8.88275 6.07072 7.22759C6.04313 7.14484 6.04313 7.06206 6.09832 7.00691L6.76038 6.26209C6.81557 6.17934 6.84313 6.069 6.81557 5.98622L6.01557 4.19313C5.98794 4.11034 5.90519 4.02759 5.79485 4.02759Z" fill="#BE1E2D"/>
</svg>
