<svg width="16" height="17" viewBox="0 0 16 17" fill="none" xmlns="http://www.w3.org/2000/svg">
<g clip-path="url(#clip0)">
<path d="M8.00001 6.38127C8.96564 5.35945 10.3249 4.75007 11.7499 4.75007H13.578C12.1155 3.55945 10.1187 2.87512 8.00001 2.87512C5.88133 2.87512 3.89388 3.55007 2.43143 4.75007H4.25012C5.58237 4.7501 7.02504 5.35945 8.00001 6.38127Z" fill="black"/>
<path d="M4.21886 8.5C3.44073 8.5 2.81265 9.12807 2.81265 9.90621C2.81265 10.6843 3.44073 11.3124 4.21886 11.3124C4.997 11.3124 5.62507 10.6843 5.62507 9.90621C5.62507 9.12807 4.99697 8.5 4.21886 8.5ZM4.21886 10.3749C3.95634 10.3749 3.75013 10.1687 3.75013 9.90621C3.75013 9.64368 3.95634 9.43747 4.21886 9.43747C4.48139 9.43747 4.6876 9.64368 4.6876 9.90621C4.6876 10.1687 4.48136 10.3749 4.21886 10.3749Z" fill="#EC1C24"/>
<path d="M15.5171 7.22501L15.9529 6.36257C16.0185 6.22198 16.0185 6.04386 15.9341 5.91262C15.8404 5.77203 15.6904 5.68762 15.531 5.68762H11.7811C10.1968 5.68762 8.70308 6.61572 7.99998 7.97505C7.26872 6.57822 5.7657 5.68762 4.21884 5.68762H0.468954C0.309615 5.68762 0.159557 5.77203 0.0658409 5.91262C-0.0185629 6.04386 -0.0185629 6.22201 0.0470602 6.36257L0.482954 7.22492C0.170494 8.00096 0.000186559 9.16055 0.000186559 9.90625C0.000186559 12.2311 1.89391 14.1249 4.21881 14.1249C5.30625 14.1249 6.31875 13.7124 7.09685 12.9718C7.09816 12.9707 7.0992 12.9692 7.10051 12.968L7.58065 13.8658C7.6603 14.0246 7.82233 14.1249 7.99995 14.1249C8.17757 14.1249 8.3396 14.0246 8.41925 13.8658L8.87124 12.9618C8.87146 12.962 8.90283 12.9623 8.90305 12.9624C9.69993 13.7311 10.7217 14.1249 11.7811 14.1249C14.106 14.1249 15.9997 12.2311 15.9997 9.90625C15.9998 9.15924 15.8292 8.00024 15.5171 7.22501ZM4.21887 12.2499C2.92516 12.2499 1.87519 11.2 1.87519 9.90625C1.87519 8.61254 2.92516 7.56257 4.21887 7.56257C5.51259 7.56257 6.56255 8.61254 6.56255 9.90625C6.56255 11.2 5.51259 12.2499 4.21887 12.2499ZM8.00001 12.6079L7.79049 12.1888C7.79152 12.1872 7.79277 12.1859 7.7938 12.1843V12.1749C7.86877 12.0624 7.93439 11.9499 8.00001 11.8374C8.06564 11.9499 8.13126 12.0624 8.2156 12.1749C8.21576 12.1752 8.21594 12.1754 8.2161 12.1757L8.00001 12.6079ZM11.7812 12.2499C10.4874 12.2499 9.43747 11.2 9.43747 9.90625C9.43747 8.61254 10.4874 7.56257 11.7812 7.56257C13.0749 7.56257 14.1248 8.61254 14.1248 9.90625C14.1248 11.2 13.0749 12.2499 11.7812 12.2499Z" fill="black"/>
<path d="M11.7811 8.5C11.003 8.5 10.3749 9.12807 10.3749 9.90621C10.3749 10.6843 11.003 11.3124 11.7811 11.3124C12.5593 11.3124 13.1874 10.6843 13.1874 9.90621C13.1874 9.12807 12.5592 8.5 11.7811 8.5ZM11.7811 10.3749C11.5186 10.3749 11.3124 10.1687 11.3124 9.90621C11.3124 9.64368 11.5186 9.43747 11.7811 9.43747C12.0437 9.43747 12.2499 9.64368 12.2499 9.90621C12.2499 10.1687 12.0436 10.3749 11.7811 10.3749Z" fill="#078171"/>
</g>
<defs>
<clipPath id="clip0">
<rect width="16" height="16" fill="white" transform="translate(0 0.5)"/>
</clipPath>
</defs>
</svg>
