<svg width="21" height="20" viewBox="0 0 21 20" fill="none" xmlns="http://www.w3.org/2000/svg">
<path d="M2.10081 7.54902H4.20164C4.07224 7.54902 3.95036 7.4794 3.87056 7.36078C3.79071 7.24217 3.76298 7.08725 3.7941 6.9402L4.05546 5.72158C4.19581 5.0657 4.69914 4.60784 5.27815 4.60784H7.9832C8.67817 4.60784 9.2437 5.26763 9.2437 6.07843V7.05881C9.2437 7.3294 9.05546 7.54902 8.82352 7.54902H11.3445C11.1126 7.54902 10.9244 7.3294 10.9244 7.05881V6.07843C10.9244 5.26763 11.4899 4.60784 12.1849 4.60784H14.8899C15.4689 4.60784 15.9722 5.0657 16.1126 5.72158L16.374 6.9402C16.4059 7.08629 16.3773 7.24217 16.2975 7.36078C16.2177 7.4794 16.0958 7.54902 15.9664 7.54902H18.0672C18.2992 7.54902 18.4874 7.3294 18.4874 7.05881V4.11763C18.4874 2.76666 17.5446 1.66666 16.3866 1.66666H3.7815C2.62352 1.66666 1.68066 2.76666 1.68066 4.11763V7.05881C1.68066 7.3294 1.86887 7.54902 2.10081 7.54902Z" fill="#2E2E2E"/>
<path d="M18.0673 8.52942H2.10083C0.942859 8.52942 0 9.62942 0 10.9804V17.8431C0 18.1137 0.188249 18.3333 0.420182 18.3333C0.652115 18.3333 0.840364 18.1137 0.840364 17.8431V16.3725H19.3278V17.8431C19.3278 18.1137 19.516 18.3333 19.748 18.3333C19.9799 18.3333 20.1681 18.1137 20.1681 17.8431V10.9804C20.1681 9.62942 19.2252 8.52942 18.0673 8.52942ZM19.3278 15.3922H0.840325V14.4118H19.3277V15.3922H19.3278Z" fill="#2E2E2E"/>
</svg>
