<svg width="25" height="25" viewBox="0 0 25 25" fill="none" xmlns="http://www.w3.org/2000/svg">
<path d="M22.7222 13.3889H5.38886V4.94446C5.38886 4.69879 5.19011 4.5 4.94445 4.5H2.27779C2.03212 4.5 1.83333 4.69879 1.83333 4.94446V20.0556C1.83333 20.3012 2.03212 20.5 2.27779 20.5H4.94445C5.19011 20.5 5.3889 20.3012 5.3889 20.0555V16.9444H19.6111V20.0555C19.6111 20.3012 19.8099 20.5 20.0555 20.5H22.7222C22.9679 20.5 23.1667 20.3012 23.1667 20.0555V13.8333C23.1666 13.5876 22.9678 13.3889 22.7222 13.3889Z" fill="#005AEB"/>
<path d="M8.94431 12.5001C10.4171 12.5001 11.611 11.3062 11.611 9.83341C11.611 8.36065 10.4171 7.16675 8.94431 7.16675C7.47155 7.16675 6.27765 8.36065 6.27765 9.83341C6.27765 11.3062 7.47155 12.5001 8.94431 12.5001Z" fill="#005AEB"/>
<path d="M12.9445 12.5001H22.7223C22.968 12.5001 23.1668 12.3013 23.1668 12.0556C23.1667 9.35987 20.9736 7.16675 18.2779 7.16675H12.9445C12.6989 7.16675 12.5001 7.36554 12.5001 7.61121V12.0557C12.5001 12.3013 12.6989 12.5001 12.9445 12.5001Z" fill="#005AEB"/>
</svg>
