<svg width="20" height="20" viewBox="0 0 20 20" fill="none" xmlns="http://www.w3.org/2000/svg">
<path d="M10.0001 0C4.48603 0 0 4.48597 0 10C0 15.514 4.48603 20 10.0001 20C15.5142 20 20.0001 15.514 20.0001 10C20.0001 4.48597 15.5142 0 10.0001 0Z" fill="#828282"/>
<path d="M13.7104 5.75724L10.4204 9.06714L7.18541 5.83215C6.90354 5.55028 6.44972 5.55028 6.16785 5.83215C5.88607 6.11393 5.88598 6.56785 6.16785 6.84972L9.40293 10.0648L6.24267 13.2251C5.9608 13.507 5.9608 13.9608 6.24267 14.2427C6.52445 14.5244 6.97827 14.5244 7.26014 14.2426L10.4154 11.0873L13.6406 14.3125C13.9223 14.5942 14.3763 14.5944 14.6582 14.3125C14.94 14.0306 14.9399 13.5766 14.6582 13.2949L11.4331 10.0698L14.728 6.7749C15.0099 6.49302 15.0097 6.03902 14.728 5.75733C14.446 5.47537 13.9897 5.47791 13.7104 5.75724Z" fill="white"/>
</svg>
