<svg width="18" height="12" viewBox="0 0 18 12" fill="none" xmlns="http://www.w3.org/2000/svg">
<path fill-rule="evenodd" clip-rule="evenodd" d="M0.23325 1.25187C0.6 0.511622 1.36425 0.00012207 2.25 0.00012207H15.75C16.6357 0.00012207 17.4 0.511622 17.7668 1.25187C17.916 1.55337 18 1.89312 18 2.25012V9.75012C18 10.9929 16.9928 12.0001 15.75 12.0001H2.25C1.00725 12.0001 0 10.9929 0 9.75012V2.25012C0 1.89312 0.084 1.55337 0.23325 1.25187ZM2.316 1.50012L8.64075 4.95012C8.865 5.07237 9.135 5.07237 9.35925 4.95012L15.684 1.50012H2.316ZM16.5 2.76387L10.0778 6.26637C9.40575 6.63312 8.59425 6.63312 7.92225 6.26637L1.5 2.76387V9.75012C1.5 10.1641 1.836 10.5001 2.25 10.5001H15.75C16.164 10.5001 16.5 10.1641 16.5 9.75012V2.76387Z" fill="url(#paint0_linear)"/>
<defs>
<linearGradient id="paint0_linear" x1="9" y1="0.00012207" x2="9" y2="12.0001" gradientUnits="userSpaceOnUse">
<stop stop-color="#23C0F5"/>
<stop offset="1" stop-color="#007ACE"/>
</linearGradient>
</defs>
</svg>
