<svg width="88" height="16" viewBox="0 0 88 16" fill="none" xmlns="http://www.w3.org/2000/svg">
<g clip-path="url(#clip0)">
<path d="M8.00002 4.33332C5.97602 4.33332 4.33335 5.97599 4.33335 7.99999C4.33335 10.024 5.97602 11.6667 8.00002 11.6667C10.024 11.6667 11.6667 10.024 11.6667 7.99999C11.6667 5.97599 10.024 4.33332 8.00002 4.33332ZM8.00002 0.666656C3.95202 0.666656 0.666687 3.95199 0.666687 7.99999C0.666687 12.048 3.95202 15.3333 8.00002 15.3333C12.048 15.3333 15.3334 12.048 15.3334 7.99999C15.3334 3.95199 12.048 0.666656 8.00002 0.666656ZM8.00002 13.8667C4.75869 13.8667 2.13335 11.2413 2.13335 7.99999C2.13335 4.75866 4.75869 2.13332 8.00002 2.13332C11.2414 2.13332 13.8667 4.75866 13.8667 7.99999C13.8667 11.2413 11.2414 13.8667 8.00002 13.8667Z" fill="#078171"/>
</g>
<g clip-path="url(#clip1)">
<path d="M26 4.33332C23.976 4.33332 22.3334 5.97599 22.3334 7.99999C22.3334 10.024 23.976 11.6667 26 11.6667C28.024 11.6667 29.6667 10.024 29.6667 7.99999C29.6667 5.97599 28.024 4.33332 26 4.33332ZM26 0.666656C21.952 0.666656 18.6667 3.95199 18.6667 7.99999C18.6667 12.048 21.952 15.3333 26 15.3333C30.048 15.3333 33.3334 12.048 33.3334 7.99999C33.3334 3.95199 30.048 0.666656 26 0.666656ZM26 13.8667C22.7587 13.8667 20.1334 11.2413 20.1334 7.99999C20.1334 4.75866 22.7587 2.13332 26 2.13332C29.2414 2.13332 31.8667 4.75866 31.8667 7.99999C31.8667 11.2413 29.2414 13.8667 26 13.8667Z" fill="#078171"/>
</g>
<g clip-path="url(#clip2)">
<path d="M44 4.33332C41.976 4.33332 40.3334 5.97599 40.3334 7.99999C40.3334 10.024 41.976 11.6667 44 11.6667C46.024 11.6667 47.6667 10.024 47.6667 7.99999C47.6667 5.97599 46.024 4.33332 44 4.33332ZM44 0.666656C39.952 0.666656 36.6667 3.95199 36.6667 7.99999C36.6667 12.048 39.952 15.3333 44 15.3333C48.048 15.3333 51.3334 12.048 51.3334 7.99999C51.3334 3.95199 48.048 0.666656 44 0.666656ZM44 13.8667C40.7587 13.8667 38.1334 11.2413 38.1334 7.99999C38.1334 4.75866 40.7587 2.13332 44 2.13332C47.2414 2.13332 49.8667 4.75866 49.8667 7.99999C49.8667 11.2413 47.2414 13.8667 44 13.8667Z" fill="#078171"/>
</g>
<g clip-path="url(#clip3)">
<path d="M62 4.33332C59.976 4.33332 58.3334 5.97599 58.3334 7.99999C58.3334 10.024 59.976 11.6667 62 11.6667C64.024 11.6667 65.6667 10.024 65.6667 7.99999C65.6667 5.97599 64.024 4.33332 62 4.33332ZM62 0.666656C57.952 0.666656 54.6667 3.95199 54.6667 7.99999C54.6667 12.048 57.952 15.3333 62 15.3333C66.048 15.3333 69.3334 12.048 69.3334 7.99999C69.3334 3.95199 66.048 0.666656 62 0.666656ZM62 13.8667C58.7587 13.8667 56.1334 11.2413 56.1334 7.99999C56.1334 4.75866 58.7587 2.13332 62 2.13332C65.2414 2.13332 67.8667 4.75866 67.8667 7.99999C67.8667 11.2413 65.2414 13.8667 62 13.8667Z" fill="#078171"/>
</g>
<g clip-path="url(#clip4)">
<path d="M80 4.33332C77.976 4.33332 76.3334 5.97599 76.3334 7.99999C76.3334 10.024 77.976 11.6667 80 11.6667C82.024 11.6667 83.6667 10.024 83.6667 7.99999C83.6667 5.97599 82.024 4.33332 80 4.33332ZM80 0.666656C75.952 0.666656 72.6667 3.95199 72.6667 7.99999C72.6667 12.048 75.952 15.3333 80 15.3333C84.048 15.3333 87.3334 12.048 87.3334 7.99999C87.3334 3.95199 84.048 0.666656 80 0.666656ZM80 13.8667C76.7587 13.8667 74.1334 11.2413 74.1334 7.99999C74.1334 4.75866 76.7587 2.13332 80 2.13332C83.2414 2.13332 85.8667 4.75866 85.8667 7.99999C85.8667 11.2413 83.2414 13.8667 80 13.8667Z" fill="#078171"/>
</g>
<defs>
<clipPath id="clip0">
<rect width="16" height="16" fill="white"/>
</clipPath>
<clipPath id="clip1">
<rect width="16" height="16" fill="white" transform="translate(18)"/>
</clipPath>
<clipPath id="clip2">
<rect width="16" height="16" fill="white" transform="translate(36)"/>
</clipPath>
<clipPath id="clip3">
<rect width="16" height="16" fill="white" transform="translate(54)"/>
</clipPath>
<clipPath id="clip4">
<rect width="16" height="16" fill="white" transform="translate(72)"/>
</clipPath>
</defs>
</svg>
