<svg width="38" height="38" viewBox="0 0 38 38" fill="none" xmlns="http://www.w3.org/2000/svg">
<rect width="38" height="38" rx="4" fill="white"/>
<path d="M21.9999 18.9999L22.707 19.707L23.4141 18.9999L22.707 18.2928L21.9999 18.9999ZM15.2928 24.2928C14.9022 24.6834 14.9022 25.3165 15.2928 25.707C15.6833 26.0976 16.3165 26.0976 16.707 25.707L15.2928 24.2928ZM16.707 12.2928C16.3165 11.9023 15.6833 11.9023 15.2928 12.2928C14.9022 12.6834 14.9022 13.3165 15.2928 13.707L16.707 12.2928ZM21.2928 18.2928L15.2928 24.2928L16.707 25.707L22.707 19.707L21.2928 18.2928ZM15.2928 13.707L21.2928 19.707L22.707 18.2928L16.707 12.2928L15.2928 13.707Z" fill="#0048BC"/>
</svg>
