<svg width="12" height="12" viewBox="0 0 12 12" fill="none" xmlns="http://www.w3.org/2000/svg">
<path d="M8.88806 0.11449C8.74524 0.0325057 8.56945 0.0334198 8.42721 0.116483L3.37432 3.07281H0.582578C0.328632 3.07281 0.122803 3.27864 0.122803 3.53258V8.46746C0.122803 8.72141 0.328632 8.92724 0.582578 8.92724H1.68602C1.93997 8.92724 2.1458 8.72141 2.1458 8.46746C2.1458 8.21351 1.93997 8.00768 1.68602 8.00768H1.04235V3.99236H3.50979C3.61615 3.99236 3.71869 3.95558 3.80037 3.8889L8.19947 1.3151V1.81611C8.19947 2.07005 8.4053 2.27588 8.65924 2.27588C8.91319 2.27588 9.11902 2.07005 9.11902 1.81611V0.513422C9.11902 0.348655 9.03089 0.196475 8.88806 0.11449Z" fill="#2E2E2E"/>
<path d="M8.65909 5.08047C8.40514 5.08047 8.19931 5.2863 8.19931 5.54025V10.7237L4.55209 8.79665C4.32756 8.67803 4.04926 8.76369 3.93079 8.98837C3.81217 9.2129 3.898 9.4912 4.12251 9.60967L8.44435 11.8931C8.51164 11.9288 8.58549 11.9464 8.65906 11.9464C8.74135 11.9464 8.8235 11.9242 8.89646 11.8804C9.03439 11.7971 9.11884 11.6479 9.11884 11.4866V5.54023C9.11886 5.28628 8.91303 5.08047 8.65909 5.08047Z" fill="#2E2E2E"/>
<path d="M11.8777 0.814251C11.7051 0.627899 11.4145 0.616391 11.228 0.788962L0.14753 11.0419C-0.0388224 11.2143 -0.0501662 11.5052 0.122241 11.6915C0.212967 11.7896 0.336179 11.8391 0.459859 11.8391C0.571586 11.8391 0.683617 11.7988 0.772047 11.717L11.8524 1.46406C12.0389 1.29149 12.0501 1.0006 11.8777 0.814251Z" fill="#2E2E2E"/>
<path d="M3.49444 3.14944C3.2405 3.14944 3.03467 3.35527 3.03467 3.60922V6.75101C3.03467 7.00495 3.2405 7.21078 3.49444 7.21078C3.74823 7.21078 3.95422 7.00495 3.95422 6.75101V3.60922C3.95422 3.35527 3.74839 3.14944 3.49444 3.14944Z" fill="#2E2E2E"/>
</svg>
