<svg xmlns="http://www.w3.org/2000/svg" width="12" height="12" fill="none"  xmlns:v="https://vecta.io/nano"><g clip-path="url(#A)"><path d="M6 1A5.51 5.51 0 0 0 .5 6.5 5.51 5.51 0 0 0 6 12a5.51 5.51 0 0 0 5.5-5.5A5.51 5.51 0 0 0 6 1zm.358 8.763l-1.045.174c-.223.019-.434-.109-.563-.293s-.16-.419-.083-.629l1.04-2.859H4.625c-.001-.596.446-1.034 1.017-1.202.273-.08.781-.19 1.045-.173.158.01.434.109.563.293s.16.419.083.629l-1.04 2.859h1.081c0 .595-.43 1.103-1.017 1.201zm.33-5.326A.69.69 0 0 1 6 3.75a.69.69 0 0 1 .688-.688.69.69 0 0 1 .688.688.69.69 0 0 1-.687.687z" fill="#005aeb"/></g><defs><clipPath id="A"><path fill="#fff" transform="translate(.5 1)" d="M0 0h11v11H0z"/></clipPath></defs></svg>