<svg width="23" height="17" viewBox="0 0 23 17" fill="none" xmlns="http://www.w3.org/2000/svg">
<path d="M10.7387 0.886089C10.687 0.890412 10.5087 0.907704 10.3398 0.927158C7.38356 1.24923 4.58921 2.84011 2.16087 5.58309C1.457 6.37853 0.628787 7.51982 0.145466 8.35633L0 8.60923L0.136081 8.84267C0.743752 9.88885 1.61655 11.0474 2.59023 12.0958C2.95858 12.4935 3.89003 13.3516 4.31001 13.6802C6.31368 15.2538 8.32908 16.1011 10.5674 16.3129C11.0249 16.3561 11.9681 16.3561 12.442 16.3129C15.8159 16.006 18.9434 14.1038 21.5453 10.7794C21.9841 10.2196 22.5519 9.38738 22.8545 8.85996L23 8.60706L22.8639 8.37362C22.0803 7.02483 20.8954 5.54418 19.6965 4.41586C17.4606 2.31053 15.051 1.14547 12.4373 0.903381C12.1135 0.875281 11.0272 0.862312 10.7387 0.886089ZM12.1229 3.6831C13.0333 3.76957 13.9788 4.11757 14.7507 4.65363C15.783 5.3691 16.5197 6.44986 16.7778 7.62573C16.8552 7.98238 16.8787 8.2115 16.8787 8.60923C16.8787 9.40899 16.6981 10.1223 16.318 10.8226C15.1847 12.9085 12.6344 13.9893 10.1873 13.4208C8.11792 12.9388 6.54596 11.3673 6.18933 9.42844C6.10017 8.94859 6.10017 8.26987 6.18933 7.78785C6.51076 6.03052 7.86922 4.53259 9.67112 3.94465C10.4993 3.67662 11.2267 3.59881 12.1229 3.6831Z" fill="#8A8A8A"/>
<path d="M11.0388 6.13206C10.464 6.23365 9.97831 6.46709 9.57711 6.83455C9.2721 7.11555 9.0539 7.43762 8.92251 7.80292C8.73481 8.32168 8.73481 8.89665 8.92251 9.41326C9.21344 10.213 9.93608 10.8269 10.8394 11.043C11.1233 11.1101 11.5902 11.1338 11.8787 11.0949C12.9838 10.9458 13.8543 10.2282 14.1499 9.22088C14.2062 9.02634 14.2109 8.97447 14.2109 8.60917C14.2109 8.24603 14.2062 8.18983 14.1499 8.00178C13.8754 7.068 13.1387 6.39793 12.1298 6.16448C11.8764 6.10612 11.2875 6.08883 11.0388 6.13206Z" fill="#8A8A8A"/>
</svg>
