<svg width="20" height="20" viewBox="0 0 20 20" fill="none" xmlns="http://www.w3.org/2000/svg">
<path d="M0 8.20084C0 12.7228 3.67889 16.4017 8.20084 16.4017C10.1811 16.4017 11.9998 15.6961 13.4186 14.5232L18.8954 20L20 18.8954L14.523 13.4186C15.696 11.9998 16.4017 10.1811 16.4017 8.20084C16.4017 3.67889 12.7228 0 8.20084 0C3.67889 0 0 3.67889 0 8.20084ZM14.8396 8.20084C14.8396 11.8614 11.8614 14.8396 8.20084 14.8396C4.54025 14.8396 1.56204 11.8614 1.56204 8.20084C1.56204 4.54025 4.54025 1.56204 8.20084 1.56204C11.8614 1.56204 14.8396 4.54025 14.8396 8.20084Z" fill="white"/>
</svg>
