<svg width="40" height="40" viewBox="0 0 40 40" fill="none" xmlns="http://www.w3.org/2000/svg">
<path d="M13.7501 32.5001C11.8602 32.5054 9.99415 32.0778 8.29513 31.25C7.67331 30.9476 7.07753 30.5943 6.51387 30.1938L6.34262 30.0688C4.7924 28.9245 3.52497 27.4403 2.63762 25.73C1.71979 23.9598 1.24376 21.9939 1.25006 20C1.25006 13.0964 6.84657 7.5 13.7501 7.5C20.6537 7.5 26.2502 13.0964 26.2502 20C26.2564 21.993 25.7808 23.958 24.8639 25.7275C23.9778 27.4368 22.7121 28.9205 21.1639 30.065C20.5798 30.4925 19.96 30.8689 19.3114 31.19L19.2114 31.24C17.5113 32.0721 15.6429 32.5032 13.7501 32.5001ZM13.7501 26.25C11.877 26.2463 10.1597 27.2925 9.30387 28.9588C12.1056 30.3465 15.3946 30.3465 18.1964 28.9588V28.9525C17.3395 27.2881 15.6221 26.2443 13.7501 26.25ZM13.7501 23.75C16.4578 23.7535 18.9544 25.2126 20.2864 27.57L20.3051 27.5538L20.3226 27.5388L20.3014 27.5575L20.2889 27.5675C23.4501 24.8364 24.5805 20.4279 23.1234 16.5126C21.6664 12.5973 17.929 10.0004 13.7514 10.0004C9.57376 10.0004 5.83637 12.5973 4.37931 16.5126C2.92226 20.4279 4.05263 24.8364 7.21387 27.5675C8.5467 25.2113 11.0431 23.7533 13.7501 23.75ZM13.7501 22.5C10.9887 22.5 8.75012 20.2614 8.75012 17.5C8.75012 14.7386 10.9887 12.5 13.7501 12.5C16.5115 12.5 18.7501 14.7386 18.7501 17.5C18.7501 18.8261 18.2233 20.0979 17.2857 21.0355C16.348 21.9732 15.0762 22.5 13.7501 22.5ZM13.7501 15C12.3694 15 11.2501 16.1193 11.2501 17.5C11.2501 18.8807 12.3694 20 13.7501 20C15.1308 20 16.2501 18.8807 16.2501 17.5C16.2501 16.1193 15.1308 15 13.7501 15Z" fill="#2E3A59"/>
<path d="M38.75 15H27.9662C27.6859 14.1325 27.3347 13.2969 26.9194 12.5H38.75V15Z" fill="#2E3A59"/>
<path d="M38.75 21.25H28.7052C28.7362 20.8349 28.7512 20.4179 28.7499 19.9999C28.7499 19.5794 28.7339 19.1625 28.7026 18.75H38.75V21.25Z" fill="#2E3A59"/>
<path d="M38.75 27.5H26.9194L26.9477 27.4457C27.3562 26.6574 27.6973 25.8392 27.9689 25H38.75V27.5Z" fill="#2E3A59"/>
</svg>
