<svg width="16" height="16" viewBox="0 0 16 16" fill="none" xmlns="http://www.w3.org/2000/svg">
<path d="M15.3044 15.2H6.2607C5.87664 15.2 5.56494 14.8748 5.56494 14.474C5.56494 14.0732 5.87664 13.748 6.2607 13.748H15.3044C15.6884 13.748 16 14.0732 16 14.474C16 14.8748 15.6884 15.2 15.3044 15.2Z" fill="#005AEB"/>
<path d="M13.4041 2.23783L12.4203 1.21117C11.8945 0.662283 10.9782 0.663081 10.453 1.21117L9.0144 2.71254L11.9654 5.79225L13.4041 4.29088C13.667 4.01717 13.8117 3.65279 13.8117 3.26436C13.8117 2.87672 13.667 2.51221 13.4041 2.23783Z" fill="#005AEB"/>
<path d="M8.02973 3.73975L0.860083 11.222C0.814225 11.2692 0.782253 11.3294 0.767604 11.3955L0.00930377 14.7532C-0.0184653 14.8752 0.0169466 15.0044 0.10191 15.0929C0.167256 15.1619 0.256296 15.1997 0.347373 15.1997C0.373869 15.1997 0.401001 15.1968 0.427369 15.1902L3.64489 14.3989C3.70756 14.3837 3.76527 14.3502 3.81112 14.3024L10.9808 6.82025L8.02973 3.73975Z" fill="#005AEB"/>
</svg>
