<svg xmlns="http://www.w3.org/2000/svg" width="24" height="24" fill="#828282"  xmlns:v="https://vecta.io/nano"><path d="M16.38 19.174a1.04 1.04 0 0 0-1.392-.073c-1.019.827-2.284 1.288-3.619 1.288a5.82 5.82 0 0 1-5.812-5.812c0-1.42.523-2.767 1.454-3.821.293-.332.285-.833-.019-1.154l-.593-.629a.83.83 0 0 0-.612-.262c-.231.002-.452.099-.61.269-.483.524-.903 1.106-1.232 1.737A8.37 8.37 0 0 0 3 14.577a8.38 8.38 0 0 0 8.37 8.37c1.333 0 2.66-.323 3.839-.934.509-.265.994-.584 1.439-.949.228-.186.366-.46.382-.754a1.04 1.04 0 0 0-.303-.789l-.347-.347zM8.761 5.086c1.126 0 2.043-.916 2.043-2.043S9.887 1 8.761 1s-2.043.917-2.043 2.043.917 2.043 2.043 2.043zm12.946 16.405l-1.283-7.023a1.66 1.66 0 0 0-.696-1.069 1.64 1.64 0 0 0-.927-.286 1.65 1.65 0 0 0-.323.032l-5.855 1.17a.33.33 0 0 1-.061.007.31.31 0 0 1-.304-.249l-.482-2.377 4.066-.694c.638-.109 1.068-.717.959-1.354a1.17 1.17 0 0 0-1.354-.96l-4.138.706-.531-2.617A1.28 1.28 0 0 0 9.29 5.749a1.27 1.27 0 0 0-.822.531c-.194.282-.267.621-.206.959l1.694 8.533a1.64 1.64 0 0 0 .702 1.051 1.65 1.65 0 0 0 .917.278 1.58 1.58 0 0 0 .324-.032l5.868-1.171a.31.31 0 0 1 .236.047c.068.046.116.119.131.201l1.06 5.805a1.28 1.28 0 0 0 1.487 1.028 1.27 1.27 0 0 0 1.029-1.488z"/></svg>