<svg width="20" height="20" viewBox="0 0 20 20" fill="none" xmlns="http://www.w3.org/2000/svg">
<path d="M10 0C4.47715 0 0 4.47715 0 10C0 15.5228 4.47715 20 10 20C15.5228 20 20 15.5228 20 10C19.9941 4.47962 15.5204 0.00590124 10 0ZM15.505 6.93358L8.36213 14.0765C8.08319 14.3553 7.63105 14.3553 7.35215 14.0765L4.49498 11.2193C4.21122 10.9452 4.20335 10.4931 4.47741 10.2093C4.75146 9.92554 5.20363 9.91768 5.4874 10.1917C5.49334 10.1975 5.4992 10.2033 5.50497 10.2093L7.85714 12.5615L14.495 5.92359C14.7788 5.64953 15.231 5.6574 15.505 5.94112C15.7724 6.21794 15.7724 6.65676 15.505 6.93358Z" fill="#008009"/>
</svg>
