<svg xmlns="http://www.w3.org/2000/svg" width="48" height="48" fill="none"  xmlns:v="https://vecta.io/nano"><path d="M30.522 1.146A19.14 19.14 0 0 0 24 0l-1.875 18.814L24 48s21.024-4.003 21.024-16.416V4.232c-4.83 0-10.336-1.577-14.502-3.087z" fill="#5f69e3"/><g fill="#4895ff"><path d="M17.478 1.146c-4.166 1.51-9.672 3.087-14.502 3.087v27.352C2.976 43.997 24 48 24 48V0a19.14 19.14 0 0 0-6.522 1.146z"/><path d="M29.564 3.79A16.28 16.28 0 0 0 24 2.813l-1.875 15.253L24 45.125c1.413-.318 5.437-1.325 9.376-3.253 2.713-1.327 4.844-2.819 6.334-4.434 1.684-1.824 2.502-3.739 2.502-5.854V6.901c-3.694-.361-7.935-1.403-12.648-3.112z"/></g><path d="M18.436 3.79C13.723 5.498 9.483 6.54 5.788 6.901v24.682c0 2.115.818 4.03 2.502 5.854 1.49 1.615 3.621 3.106 6.334 4.434 3.939 1.928 7.963 2.935 9.376 3.253V2.813a16.28 16.28 0 0 0-5.564.977z" fill="#96c8ef"/><path d="M37.824 9.528c-2.896-.574-6.049-1.475-9.37-2.678-1.433-.519-2.931-.783-4.455-.783l-1.875 12.747L24 41.783l.35-.09c1.954-.502 4.882-1.397 7.741-2.815 2.273-1.128 4.095-2.404 5.267-3.69 1.433-1.573 1.599-2.81 1.599-3.604V9.752l-1.133-.224z" fill="#e1ebf0"/><path d="M24 6.067a13.04 13.04 0 0 0-4.455.783c-3.32 1.203-6.473 2.105-9.37 2.678l-1.133.224v21.832c0 .794.166 2.031 1.599 3.604 1.172 1.286 2.994 2.562 5.267 3.69 2.859 1.418 5.788 2.314 7.741 2.815l.35.09V6.067z" fill="#fff5f5"/><path d="M30.431 27.415c1.098-1.098 1.098-2.879 0-3.977l-5.024-5.024V15.35c0-.777-.63-1.406-1.406-1.406l-.938 6.728L24 28.94l2.453 2.453.902-1.07-1.948-3.953v-3.978l5.024 5.024z" fill="#87a0af"/><path d="M24 13.944c-.777 0-1.406.63-1.406 1.406v3.063l-5.024 5.024c-1.098 1.098-1.098 2.879 0 3.977l5.024-5.024v3.978l-1.949 3.953.902 1.07L24 28.94V13.944z" fill="#b4d2d7"/></svg>