<svg width="19" height="16" viewBox="0 0 19 16" fill="none" xmlns="http://www.w3.org/2000/svg">
<path d="M17.5001 8.00004L18.2072 8.70715L18.9143 8.00004L18.2072 7.29293L17.5001 8.00004ZM10.1263 13.9596C9.73578 14.3501 9.73578 14.9833 10.1263 15.3738C10.5168 15.7643 11.15 15.7643 11.5405 15.3738L10.1263 13.9596ZM11.5405 0.626267C11.15 0.235743 10.5168 0.235743 10.1263 0.626267C9.73579 1.01679 9.73578 1.64996 10.1263 2.04048L11.5405 0.626267ZM1.66675 7.00004C1.11446 7.00004 0.666748 7.44776 0.666748 8.00004C0.666748 8.55232 1.11446 9.00004 1.66675 9.00004L1.66675 7.00004ZM16.793 7.29293L10.1263 13.9596L11.5405 15.3738L18.2072 8.70715L16.793 7.29293ZM10.1263 2.04048L16.793 8.70715L18.2072 7.29293L11.5405 0.626267L10.1263 2.04048ZM17.5001 7.00004L1.66675 7.00004L1.66675 9.00004L17.5001 9.00004L17.5001 7.00004Z" fill="#005AEB"/>
</svg>
