<svg width="20" height="20" viewBox="0 0 20 20" fill="none" xmlns="http://www.w3.org/2000/svg">
<path d="M8.96121 4.72791H11.5973V5.40818H8.96121V4.72791Z" fill="#008009"/>
<path d="M7.94073 3.0271H7.25123C7.19408 4.08528 6.86932 5.11165 6.30735 6.01009L5.83333 6.7686H6.40514L6.99532 5.94241C7.605 5.09211 7.93537 4.07337 7.94073 3.0271Z" fill="#008009"/>
<path d="M8.62094 2.68703V4.04758H11.6382C11.6977 3.80834 11.8165 3.58796 11.9837 3.40683C12.1509 3.22569 12.3611 3.08964 12.5948 3.01127C12.5303 2.63537 12.3351 2.29433 12.0437 2.04832C11.7523 1.8023 11.3833 1.66712 11.0019 1.66663H7.2604V2.3469H8.28081C8.37102 2.3469 8.45753 2.38273 8.52132 2.44652C8.58511 2.51031 8.62094 2.59682 8.62094 2.68703Z" fill="#008009"/>
<path d="M5.89988 1.66663H6.58015V2.3469H5.89988V1.66663Z" fill="#008009"/>
<path d="M8.62108 12.8911V16.9727H11.6827L11.6823 12.8911H8.62108Z" fill="#008009"/>
<path d="M12.9679 10.4965L11.6822 6.08838H8.95612C8.9045 7.8148 8.47874 9.50945 7.70824 11.0553L7.44094 11.5901C7.09942 12.2752 6.92121 13.03 6.92027 13.7955V17.653C6.92049 17.8334 6.99223 18.0063 7.11976 18.1338C7.24729 18.2613 7.42019 18.3331 7.60055 18.3333H12.7026C12.8829 18.3331 13.0559 18.2613 13.1834 18.1338C13.3109 18.0063 13.3826 17.8334 13.3829 17.653V13.4013C13.3829 12.4183 13.2432 11.4402 12.9679 10.4965ZM11.1082 7.46325C11.1946 7.43734 11.2878 7.4468 11.3672 7.48957C11.4466 7.53234 11.5058 7.60491 11.5317 7.69131L11.9399 9.05186C11.9531 9.09475 11.9577 9.13983 11.9535 9.18452C11.9492 9.2292 11.9361 9.2726 11.915 9.3122C11.8939 9.35181 11.8651 9.38684 11.8304 9.41528C11.7957 9.44372 11.7556 9.46501 11.7127 9.47792C11.6697 9.49082 11.6245 9.49509 11.5799 9.49048C11.5352 9.48586 11.4919 9.47246 11.4525 9.45103C11.4131 9.4296 11.3783 9.40058 11.3501 9.36564C11.3219 9.3307 11.3009 9.29052 11.2883 9.24744L10.8802 7.88689C10.8673 7.8441 10.863 7.7992 10.8675 7.75475C10.872 7.7103 10.8853 7.66718 10.9064 7.62784C10.9276 7.5885 10.9563 7.55371 10.9909 7.52547C11.0256 7.49723 11.0654 7.47609 11.1082 7.46325ZM12.3625 16.9727C12.3622 17.1531 12.2905 17.326 12.163 17.4535C12.0354 17.5811 11.8625 17.6528 11.6822 17.653H8.62095C8.4406 17.6528 8.26769 17.5811 8.14017 17.4535C8.01264 17.326 7.9409 17.1531 7.94068 16.9727V12.8911C7.9409 12.7107 8.01264 12.5378 8.14017 12.4103C8.26769 12.2828 8.4406 12.211 8.62095 12.2108H11.6822C11.8625 12.211 12.0354 12.2828 12.163 12.4103C12.2905 12.5378 12.3622 12.7107 12.3625 12.8911V16.9727ZM12.1201 10.836C12.0773 10.8488 12.0324 10.8531 11.988 10.8486C11.9435 10.8441 11.9004 10.8309 11.8611 10.8097C11.8217 10.7886 11.787 10.7598 11.7587 10.7252C11.7305 10.6906 11.7094 10.6507 11.6966 10.6079L11.5946 10.2678C11.5813 10.2249 11.5767 10.1798 11.581 10.1351C11.5852 10.0904 11.5983 10.047 11.6194 10.0074C11.6406 9.96781 11.6693 9.93277 11.704 9.90433C11.7388 9.87589 11.7788 9.8546 11.8218 9.8417C11.8648 9.82879 11.9099 9.82453 11.9545 9.82914C11.9992 9.83376 12.0425 9.84716 12.0819 9.86859C12.1214 9.89001 12.1562 9.91903 12.1844 9.95398C12.2125 9.98892 12.2335 10.0291 12.2461 10.0722L12.3481 10.4123C12.361 10.4551 12.3653 10.5 12.3608 10.5445C12.3563 10.5889 12.3431 10.632 12.3219 10.6714C12.3007 10.7107 12.272 10.7455 12.2374 10.7737C12.2027 10.802 12.1629 10.8231 12.1201 10.836Z" fill="#008009"/>
</svg>
