<svg xmlns="http://www.w3.org/2000/svg" xmlns:xlink="http://www.w3.org/1999/xlink" width="24" height="24" fill="none" xmlns:v="https://vecta.io/nano"><g fill="#2e2e2e"><path d="M17.6 19.6v-4.4c0-.68-.52-1.2-1.2-1.2h-.2c-.2 0-.36-.12-.4-.28l-1.4-4.88V8.8a2.02 2.02 0 0 0-1.84-1.2H5.04A2.02 2.02 0 0 0 3.2 8.8v.04l-1.4 4.88c-.08.16-.24.28-.4.28h-.2c-.68 0-1.2.52-1.2 1.2v4.4c0 .68.52 1.2 1.2 1.2v2c0 .68.52 1.2 1.2 1.2h.8c.68 0 1.2-.52 1.2-1.2v-2h8.8v2c0 .68.52 1.2 1.2 1.2h.8c.68 0 1.2-.52 1.2-1.2v-2c.68 0 1.2-.52 1.2-1.2zm-14 3.2c0 .24-.16.4-.4.4h-.8c-.24 0-.4-.16-.4-.4v-2h1.6v2h0zm12 0c0 .24-.16.4-.4.4h-.8c-.24 0-.4-.16-.4-.4v-2h1.6v2h0zm1.2-3.2c0 .24-.16.4-.4.4H16h-2.4H4 1.6h-.4c-.24 0-.4-.16-.4-.4v-4.4c0-.24.16-.4.4-.4h.2c.52 0 1-.36 1.16-.88l1.4-4.84c.2-.4.6-.68 1.08-.68h7.52c.44 0 .88.24 1.08.68l1.4 4.84c.16.52.64.88 1.16.88h.2c.24 0 .4.16.4.4v4.4h0z"/><use xlink:href="#B"/><use xlink:href="#B" x="10.4"/><path d="M9.6 17.6H8c-.24 0-.4.16-.4.4s.16.4.4.4h1.6c.24 0 .4-.16.4-.4s-.16-.4-.4-.4zm.8-1.6H7.2c-.24 0-.4.16-.4.4s.16.4.4.4h3.2c.24 0 .4-.16.4-.4s-.16-.4-.4-.4zm-5.44-2h7.72c.24 0 .48-.12.64-.32s.2-.48.12-.72l-.96-3.2c-.08-.32-.4-.56-.76-.56h-5.8c-.36 0-.64.2-.76.56l-.96 3.2c-.08.24-.04.52.12.72s.4.32.64.32zm.96-4h5.8l.96 3.2H4.96l.96-3.2zM23.6 0h-6.8c-.24 0-.4.16-.4.4v6.8c0 .24.16.4.4.4h2.8V20h-.8c-.24 0-.4.16-.4.4v1.2h-.8c-.24 0-.4.16-.4.4v1.6c0 .24.16.4.4.4h4.8c.24 0 .4-.16.4-.4V22c0-.24-.16-.4-.4-.4h-.8v-1.2c0-.24-.16-.4-.4-.4h-.8V7.6h3.2c.24 0 .4-.16.4-.4V.4c0-.24-.16-.4-.4-.4zM22 23.2h-4v-.8h.8 2.4.8v.8h0zm-1.2-1.6h-1.6v-.8h1.6v.8zm2.4-14.8h-6v-6h6v6zM19.6 6c.24 0 .4-.16.4-.4v-.8h.4c.88 0 1.6-.72 1.6-1.6s-.72-1.6-1.6-1.6h-.8c-.24 0-.4.16-.4.4v2.4 1.2c0 .24.16.4.4.4zm1.6-2.8c0 .44-.36.8-.8.8H20V2.4h.4c.44 0 .8.36.8.8z"/></g><defs ><path id="B" d="M3.6 15.6c-.88 0-1.6.72-1.6 1.6s.72 1.6 1.6 1.6 1.6-.72 1.6-1.6-.72-1.6-1.6-1.6zm0 2.4c-.44 0-.8-.36-.8-.8s.36-.8.8-.8.8.36.8.8-.36.8-.8.8z"/></defs></svg>