<svg width="16" height="16" viewBox="0 0 16 16" fill="none" xmlns="http://www.w3.org/2000/svg">
<path d="M8 1.33337C6.58551 1.33337 5.22896 1.89528 4.22876 2.89547C3.22857 3.89567 2.66666 5.25222 2.66666 6.66671C2.66666 10.2667 7.36666 14.3334 7.56666 14.5067C7.68742 14.61 7.8411 14.6668 8 14.6668C8.1589 14.6668 8.31258 14.61 8.43333 14.5067C8.66666 14.3334 13.3333 10.2667 13.3333 6.66671C13.3333 5.25222 12.7714 3.89567 11.7712 2.89547C10.771 1.89528 9.41448 1.33337 8 1.33337ZM8 13.1C6.58 11.7667 4 8.89337 4 6.66671C4 5.60584 4.42142 4.58843 5.17157 3.83828C5.92172 3.08813 6.93913 2.66671 8 2.66671C9.06086 2.66671 10.0783 3.08813 10.8284 3.83828C11.5786 4.58843 12 5.60584 12 6.66671C12 8.89337 9.42 11.7734 8 13.1ZM8 4.00004C7.47258 4.00004 6.95701 4.15644 6.51848 4.44946C6.07995 4.74247 5.73815 5.15895 5.53632 5.64622C5.33448 6.13349 5.28168 6.66967 5.38457 7.18695C5.48746 7.70423 5.74144 8.17939 6.11438 8.55233C6.48732 8.92527 6.96247 9.17924 7.47976 9.28214C7.99704 9.38503 8.53322 9.33222 9.02049 9.13039C9.50776 8.92855 9.92423 8.58676 10.2172 8.14823C10.5103 7.7097 10.6667 7.19412 10.6667 6.66671C10.6667 5.95946 10.3857 5.28119 9.88562 4.78109C9.38552 4.28099 8.70724 4.00004 8 4.00004ZM8 8.00004C7.73629 8.00004 7.4785 7.92184 7.25924 7.77533C7.03997 7.62883 6.86907 7.42059 6.76816 7.17695C6.66724 6.93332 6.64084 6.66523 6.69228 6.40659C6.74373 6.14795 6.87072 5.91037 7.05719 5.7239C7.24366 5.53743 7.48124 5.41044 7.73988 5.35899C7.99852 5.30755 8.26661 5.33395 8.51024 5.43487C8.75388 5.53578 8.96211 5.70668 9.10862 5.92595C9.25513 6.14521 9.33333 6.403 9.33333 6.66671C9.33333 7.02033 9.19285 7.35947 8.94281 7.60952C8.69276 7.85956 8.35362 8.00004 8 8.00004Z" fill="#005AEB"/>
</svg>
