<svg xmlns="http://www.w3.org/2000/svg" width="16" height="16" fill="none"  xmlns:v="https://vecta.io/nano"><path d="M8 1.333c-1.414 0-2.771.562-3.771 1.562S2.667 5.252 2.667 6.667c0 3.6 4.7 7.667 4.9 7.84.121.103.274.16.433.16s.313-.057.433-.16c.233-.173 4.9-4.24 4.9-7.84 0-1.414-.562-2.771-1.562-3.771S9.414 1.333 8 1.333zM8 13.1c-1.42-1.333-4-4.207-4-6.433a4 4 0 0 1 4-4 4 4 0 0 1 4 4c0 2.227-2.58 5.107-4 6.433zM8 4c-.527 0-1.043.156-1.482.449s-.78.71-.982 1.197-.255 1.023-.152 1.541.357.992.73 1.365.848.627 1.365.73 1.053.05 1.541-.152.904-.544 1.197-.982.449-.954.449-1.482c0-.707-.281-1.386-.781-1.886S8.707 4 8 4zm0 4c-.264 0-.521-.078-.741-.225s-.39-.355-.491-.598-.127-.512-.076-.77.178-.496.365-.683.424-.313.683-.365.527-.025.77.076.452.272.598.491.225.477.225.741c0 .354-.14.693-.391.943S8.354 8 8 8z" fill="#4f4f4f"/></svg>