<svg width="16" height="16" viewBox="0 0 16 16" fill="none" xmlns="http://www.w3.org/2000/svg">
<path d="M8 0C3.58881 0 0 3.58881 0 8C0 12.4112 3.58881 16 8 16C12.4112 16 16 12.4112 16 8C16 3.58881 12.4112 0 8 0ZM8 14.7335C4.28706 14.7335 1.2665 11.7127 1.2665 8C1.2665 4.28728 4.28706 1.2665 8 1.2665C11.7127 1.2665 14.7335 4.2875 14.7335 8.00022C14.7335 11.7129 11.7127 14.7335 8 14.7335Z" fill="#545454"/>
<path d="M7.99994 9.41956C5.75004 9.41956 3.64491 10.5478 2.07275 12.5961L3.0775 13.367C4.40457 11.6382 6.15275 10.6861 7.99994 10.6861C9.84713 10.6861 11.5953 11.6382 12.9222 13.367L13.9269 12.5961C12.3548 10.5478 10.2498 9.41956 7.99994 9.41956Z" fill="#545454"/>
<path d="M8.00003 2.87073C6.18431 2.87073 4.70715 4.35738 4.70715 6.1847C4.70715 8.01201 6.18431 9.4987 8.00003 9.4987C9.81575 9.4987 11.2929 8.01204 11.2929 6.18473C11.2929 4.35742 9.81575 2.87073 8.00003 2.87073ZM8.00003 8.2322C6.88278 8.2322 5.97365 7.31379 5.97365 6.1847C5.97365 5.0556 6.88278 4.1372 8.00003 4.1372C9.11728 4.1372 10.0264 5.05582 10.0264 6.1847C10.0264 7.31357 9.11728 8.2322 8.00003 8.2322Z" fill="#545454"/>
</svg>
