<svg width="22" height="22" viewBox="0 0 22 22" fill="none" xmlns="http://www.w3.org/2000/svg">
<path d="M14.8867 7.11334C13.8142 6.04084 12.4117 5.50001 11 5.50001V11L7.11334 14.8867C9.25834 17.0317 12.7417 17.0317 14.8958 14.8867C17.0408 12.7417 17.0408 9.25834 14.8867 7.11334ZM11 1.83334C5.94 1.83334 1.83334 5.94001 1.83334 11C1.83334 16.06 5.94 20.1667 11 20.1667C16.06 20.1667 20.1667 16.06 20.1667 11C20.1667 5.94001 16.06 1.83334 11 1.83334ZM11 18.3333C6.94834 18.3333 3.66667 15.0517 3.66667 11C3.66667 6.94834 6.94834 3.66668 11 3.66668C15.0517 3.66668 18.3333 6.94834 18.3333 11C18.3333 15.0517 15.0517 18.3333 11 18.3333Z" fill="#2E2E2E"/>
</svg>
