<svg width="16" height="16" viewBox="0 0 16 16" fill="none" xmlns="http://www.w3.org/2000/svg">
<g clip-path="url(#clip0)">
<path d="M9.29431 1.32735V5.41669C9.29431 5.63457 8.61963 6.16619 8.16833 6.4975V7.70348C8.40049 7.7838 8.56849 8.002 8.56849 8.26145V14.6621C8.56849 14.9893 8.30339 15.2547 7.97617 15.2547H7.5611C7.23388 15.2547 6.96862 14.9893 6.96862 14.6621V8.26145C6.96862 8.002 7.13646 7.7838 7.36878 7.70348V6.51036C6.88956 6.18031 6.1537 5.6374 6.1537 5.41669V1.32735C6.1537 0.999966 6.31276 0.734549 6.66665 0.734549H6.87811V5.00068C6.87811 5.10217 7.00736 5.18421 7.16674 5.18421C7.32611 5.18421 7.45506 5.10217 7.45506 5.00068V0.734549H7.98934V5.00068C7.98934 5.10217 8.11829 5.18421 8.27798 5.18421C8.43751 5.18421 8.5663 5.10217 8.5663 5.00068V0.734549H8.65414C9.00756 0.734549 9.29431 0.999966 9.29431 1.32735ZM3.58047 0.760589C3.58047 0.760589 2.00318 1.79167 2.00318 4.52114V5.06107C2.00318 7.75462 2.59503 8.94116 2.99222 9.62791V14.8953C2.99222 15.1372 3.1883 15.3333 3.43035 15.3333H3.73702C3.97875 15.3333 4.17515 15.1372 4.17515 14.8953V9.37097C4.18252 9.33254 4.18675 9.29285 4.18675 9.25222V1.36703C4.1866 1.03212 4.05577 0.568428 3.58047 0.760589ZM13.9972 3.43798C13.9972 1.90744 13.2246 0.666626 12.2716 0.666626C11.3185 0.666626 10.5461 1.90744 10.5461 3.43798C10.5461 4.74703 11.1119 5.84132 11.8718 6.13153V7.84984C11.6396 7.93031 11.4713 8.14804 11.4713 8.40797V14.7301C11.4713 15.0575 11.7367 15.3229 12.0641 15.3229H12.479C12.8062 15.3229 13.0715 15.0575 13.0715 14.7301V8.40765C13.0715 8.1482 12.904 7.93 12.6715 7.84968V6.13137C13.4313 5.84117 13.9972 4.74703 13.9972 3.43798Z" fill="#002D75"/>
</g>
<defs>
<clipPath id="clip0">
<rect width="14.6667" height="14.6667" fill="white" transform="translate(0.666666 0.666626)"/>
</clipPath>
</defs>
</svg>
