<svg width="24" height="24" viewBox="0 0 24 24" fill="none" xmlns="http://www.w3.org/2000/svg">
<path d="M23.949 18.5956C23.8811 18.391 23.4492 18.0897 22.6536 17.6923C22.438 17.5671 22.1309 17.3969 21.7335 17.1809C21.3358 16.965 20.9747 16.766 20.6511 16.5842C20.3267 16.4024 20.0229 16.2262 19.739 16.056C19.6936 16.0219 19.5516 15.9227 19.3129 15.7575C19.0741 15.5929 18.8726 15.4707 18.7075 15.391C18.5428 15.3117 18.3808 15.2719 18.2216 15.2719C17.9944 15.2719 17.7106 15.4339 17.3698 15.7575C17.029 16.0816 16.7163 16.4336 16.4324 16.8146C16.1484 17.1954 15.8472 17.5474 15.5293 17.8713C15.2109 18.1953 14.9494 18.3572 14.745 18.3572C14.6425 18.3572 14.5146 18.3286 14.3613 18.2722C14.2081 18.2154 14.0916 18.1667 14.0116 18.1275C13.9323 18.0875 13.7962 18.0082 13.6029 17.8885C13.4092 17.7691 13.3015 17.7037 13.2788 17.6923C11.722 16.8285 10.3868 15.8399 9.27298 14.7266C8.15953 13.6127 7.17069 12.2777 6.30705 10.7208C6.29571 10.6981 6.23021 10.5901 6.11098 10.397C5.99157 10.2037 5.91198 10.0675 5.87221 9.98779C5.83245 9.90832 5.78415 9.79179 5.72743 9.63841C5.67071 9.48504 5.64223 9.35728 5.64223 9.25489C5.64223 9.05047 5.80421 8.78898 6.12811 8.47077C6.45195 8.15274 6.80434 7.85148 7.1849 7.5676C7.56576 7.28372 7.91778 6.97112 8.24175 6.63034C8.56559 6.28939 8.72751 6.00545 8.72751 5.77822C8.72751 5.61924 8.68775 5.45715 8.60828 5.29243C8.52875 5.12736 8.40659 4.92592 8.24175 4.68718C8.07684 4.44855 7.97743 4.30664 7.94328 4.26097C7.773 3.97708 7.59705 3.67314 7.415 3.34926C7.23296 3.02544 7.03426 2.66448 6.81825 2.26681C6.60241 1.86932 6.43207 1.56239 6.30693 1.34651C5.90941 0.551225 5.60832 0.119224 5.40371 0.0512837C5.32412 0.0171941 5.20471 0 5.04577 0C4.73877 0 4.33826 0.0567166 3.84396 0.170508C3.34948 0.28412 2.96038 0.403285 2.67624 0.528479C2.10802 0.766987 1.50577 1.46012 0.869312 2.60765C0.289751 3.67559 0 4.73261 0 5.77793C0 6.08449 0.0198819 6.38276 0.0596458 6.67279C0.0994096 6.96252 0.170459 7.28927 0.272854 7.65297C0.37507 8.01656 0.457523 8.28665 0.519856 8.46253C0.582248 8.63853 0.698733 8.95381 0.869252 9.4085C1.03953 9.86307 1.14193 10.1413 1.17602 10.2436C1.57372 11.3573 2.04533 12.3515 2.59074 13.2265C3.48811 14.681 4.71273 16.1841 6.26388 17.7353C7.81509 19.2863 9.318 20.5108 10.7727 21.4085C11.6476 21.9538 12.6423 22.4253 13.7558 22.8233C13.8582 22.8572 14.1365 22.9593 14.5909 23.1302C15.0455 23.3006 15.3609 23.4171 15.5369 23.4796C15.713 23.5422 15.9832 23.6247 16.3465 23.727C16.7106 23.8294 17.037 23.9005 17.3268 23.9405C17.6167 23.9798 17.9151 24 18.2217 24C19.267 24 20.3242 23.7101 21.3924 23.1306C22.5398 22.4944 23.2328 21.8921 23.4715 21.3235C23.597 21.0397 23.7159 20.6505 23.8295 20.1561C23.9435 19.6618 24.0001 19.2614 24.0001 18.9545C24.0004 18.7949 23.9833 18.6758 23.949 18.5956Z" fill="url(#paint0_linear)"/>
<defs>
<linearGradient id="paint0_linear" x1="8.94072e-08" y1="12" x2="24.0001" y2="12" gradientUnits="userSpaceOnUse">
<stop stop-color="#BE1E2D"/>
<stop offset="1" stop-color="#EC1C24"/>
</linearGradient>
</defs>
</svg>
