<svg width="24" height="24" viewBox="0 0 24 24" fill="none" xmlns="http://www.w3.org/2000/svg">
<path d="M12 1.52588e-05C5.38322 1.52588e-05 0 5.38323 0 12C0 18.6168 5.38322 24 12 24C18.6168 24 24 18.6168 24 12C24 5.38323 18.6168 1.52588e-05 12 1.52588e-05ZM12 22.1003C6.43059 22.1003 1.89975 17.5691 1.89975 12C1.89975 6.43094 6.43059 1.89977 12 1.89977C17.5691 1.89977 22.1003 6.43126 22.1003 12.0003C22.1003 17.5694 17.5691 22.1003 12 22.1003Z" fill="#404041"/>
<path d="M11.9999 14.1293C8.62505 14.1293 5.46737 15.8217 3.10913 18.8942L4.61626 20.0505C6.60685 17.4574 9.22913 16.0291 11.9999 16.0291C14.7707 16.0291 17.3929 17.4574 19.3832 20.0505L20.8904 18.8942C18.5321 15.8217 15.3748 14.1293 11.9999 14.1293Z" fill="#404041"/>
<path d="M12 4.30608C9.27646 4.30608 7.06073 6.53606 7.06073 9.27703C7.06073 12.018 9.27646 14.248 12 14.248C14.7236 14.248 16.9394 12.018 16.9394 9.27708C16.9394 6.53611 14.7236 4.30608 12 4.30608ZM12 12.3483C10.3242 12.3483 8.96048 10.9707 8.96048 9.27703C8.96048 7.58339 10.3242 6.20578 12 6.20578C13.6759 6.20578 15.0396 7.58372 15.0396 9.27703C15.0396 10.9703 13.6759 12.3483 12 12.3483Z" fill="#404041"/>
</svg>
