<svg xmlns="http://www.w3.org/2000/svg" width="18" height="14" fill="#fff"  xmlns:v="https://vecta.io/nano"><path d="M.75 4.75h14.69l-1.345 1.345a.75.75 0 0 0 0 1.061c.147.147.338.22.53.22s.384-.073.53-.22L17.78 4.53a.75.75 0 0 0 0-1.061L15.155.845a.75.75 0 1 0-1.061 1.061L15.44 3.25H.75a.75.75 0 0 0 0 1.5zm16.5 4.5H2.561l1.345-1.345a.75.75 0 0 0-1.061-1.061L.22 9.47a.75.75 0 0 0 0 1.061l2.625 2.625c.146.147.338.22.53.22s.384-.073.53-.22a.75.75 0 0 0 0-1.061L2.561 10.75H17.25a.75.75 0 0 0 0-1.5z"/></svg>