<svg xmlns="http://www.w3.org/2000/svg" width="48" height="48" fill="none" xmlns:v="https://vecta.io/nano"><g clip-path="url(#A)" fill="#828282"><path d="M10.731 10.031a3.43 3.43 0 0 0 3.428-3.428 3.43 3.43 0 0 0-3.428-3.428 3.43 3.43 0 0 0-3.428 3.428 3.43 3.43 0 0 0 3.428 3.428zm6.713 4.458c-.767-2.233-2.054-3.365-3.825-3.365H7.843c-1.77 0-3.057 1.132-3.825 3.365L.101 25.414c-.314.858.128 1.808.985 2.122s1.808-.128 2.122-.986l2.883-7.979-1.922 11.177a.92.92 0 0 0 .902 1.095h1.262v11.999c0 1.096.889 1.985 1.985 1.985s1.985-.889 1.985-1.985v-12h.857v11.999c0 1.096.889 1.985 1.985 1.985s1.985-.889 1.985-1.985V30.842l1.424-.016V25.44l-1.149-6.681.892 2.637a1.65 1.65 0 0 0 .515.746 4.43 4.43 0 0 1 2.365-2.538l-1.732-5.115zm22.841-1.955c1.737 0 3.145-1.408 3.145-3.145s-1.408-3.145-3.145-3.145-3.145 1.408-3.145 3.145 1.408 3.145 3.145 3.145zm4.095 1.372h-8.19c-1.986 0-3.609 1.603-3.619 3.573v9.657l-2.216-.53v-3.16a2.82 2.82 0 0 0-2.822-2.792h-6.556c-1.549 0-2.815 1.25-2.822 2.786v8.7c0 .672.561 1.214 1.241 1.182.636-.03 1.126-.578 1.126-1.216l.002-8.714c.026-.379.573-.348.572.031v19.921a1.42 1.42 0 0 0 1.393 1.42c.796.015 1.447-.661 1.447-1.457V31.993h.613v11.35a1.42 1.42 0 0 0 1.393 1.42c.796.015 1.447-.661 1.447-1.457l.001-19.861c0-.381.599-.425.6.005v4.087c0 .547.375 1.023.908 1.151l4.081.977a1.51 1.51 0 0 0 1.112.487 1.52 1.52 0 0 0 1.517-1.517l.001-11.167c.019-.427.66-.408.659.02l-.032 25.517a1.82 1.82 0 0 0 1.887 1.82c.987-.035 1.755-.876 1.755-1.863V28.449h.786v14.512c0 .987.768 1.828 1.755 1.863a1.82 1.82 0 0 0 1.887-1.82l.001-25.544c0-.414.655-.481.66.034v11.141a1.52 1.52 0 0 0 1.573 1.517c.822-.029 1.462-.73 1.462-1.553V17.486c-.01-1.978-1.634-3.581-3.62-3.581zM24.254 19.73c1.669 0 3.022-1.353 3.022-3.022s-1.353-3.022-3.022-3.022-3.022 1.353-3.022 3.022 1.353 3.022 3.022 3.022z"/></g><defs><clipPath id="A"><path fill="#fff" d="M0 0h48v48H0z"/></clipPath></defs></svg>