<svg width="21" height="21" viewBox="0 0 21 21" fill="none" xmlns="http://www.w3.org/2000/svg">
<path d="M19.3195 4.92886C19.1411 3.33237 18.8568 2.08934 18.4072 1.60076C16.5531 -0.408161 3.56575 -0.555176 2.09118 1.60076C1.73047 2.12896 1.4775 3.36759 1.30772 4.9315C0.759929 4.99048 0.333333 5.4126 0.333333 5.92936V7.88502C0.333333 8.3199 0.634403 8.68656 1.05475 8.82961C0.955192 11.9099 1.03599 15.1236 1.18508 16.7218C1.18508 17.9556 2.0907 17.7509 2.0907 17.7509H2.93956V19.0828C2.93956 19.611 3.53449 20.0385 4.26744 20.0385C5.00136 20.0385 5.59629 19.611 5.59629 19.0828V17.7509H15.472V19.0828C15.472 19.611 16.0664 20.0385 16.8003 20.0385C17.5333 20.0385 18.1282 19.611 18.1282 19.0828V17.7509H18.4072C18.4072 17.7509 19.4729 17.8847 19.5412 17.3037C19.5412 15.7099 19.6509 12.1775 19.5605 8.84326C20.0073 8.71517 20.3333 8.33839 20.3333 7.88502V5.92936C20.3338 5.40028 19.8865 4.97111 19.3195 4.92886ZM5.26299 1.88731H15.2353V3.26811H5.26299V1.88731ZM5.40535 16.1782C4.62238 16.1782 3.98802 15.5972 3.98802 14.8806C3.98802 14.1644 4.62238 13.5839 5.40535 13.5839C6.18833 13.5839 6.82317 14.1644 6.82317 14.8806C6.82317 15.5972 6.18881 16.1782 5.40535 16.1782ZM15.182 16.1782C14.3995 16.1782 13.7637 15.5972 13.7637 14.8806C13.7637 14.1644 14.399 13.5839 15.182 13.5839C15.9649 13.5839 16.5993 14.1644 16.5993 14.8806C16.5998 15.5972 15.9649 16.1782 15.182 16.1782ZM16.984 10.5H3.51429V4.034H16.984V10.5Z" fill="#2E2E2E"/>
</svg>
