<svg width="16" height="16" viewBox="0 0 16 16" fill="none" xmlns="http://www.w3.org/2000/svg">
<path d="M8 11L7.29289 11.7071L8 12.4142L8.70711 11.7071L8 11ZM2.70711 4.29289C2.31658 3.90237 1.68342 3.90237 1.29289 4.29289C0.902369 4.68342 0.902369 5.31658 1.29289 5.70711L2.70711 4.29289ZM14.7071 5.70711C15.0976 5.31658 15.0976 4.68342 14.7071 4.2929C14.3166 3.90237 13.6834 3.90237 13.2929 4.2929L14.7071 5.70711ZM8.70711 10.2929L2.70711 4.29289L1.29289 5.70711L7.29289 11.7071L8.70711 10.2929ZM13.2929 4.2929L7.29289 10.2929L8.70711 11.7071L14.7071 5.70711L13.2929 4.2929Z" fill="#2E2E2E"/>
</svg>
