<svg width="9" height="14" viewBox="0 0 9 14" fill="none" xmlns="http://www.w3.org/2000/svg">
<path d="M6.99988 6.99994L7.70699 7.70705L8.41409 6.99994L7.70699 6.29283L6.99988 6.99994ZM0.292771 12.2928C-0.0977531 12.6834 -0.0977532 13.3165 0.292771 13.707C0.683295 14.0976 1.31646 14.0976 1.70698 13.707L0.292771 12.2928ZM1.70698 0.292832C1.31646 -0.0976921 0.683295 -0.0976921 0.292771 0.292832C-0.0977532 0.683357 -0.0977531 1.31652 0.292771 1.70705L1.70698 0.292832ZM6.29277 6.29283L0.292771 12.2928L1.70698 13.707L7.70699 7.70705L6.29277 6.29283ZM0.292771 1.70705L6.29277 7.70705L7.70699 6.29283L1.70698 0.292832L0.292771 1.70705Z" fill="#005AEB"/>
</svg>
