<svg width="12" height="12" viewBox="0 0 12 12" fill="none" xmlns="http://www.w3.org/2000/svg">
<path d="M11.1562 2.81259H6.70312V0.234375C6.70312 0.104953 6.5982 0 6.46875 0H0.84375C0.714305 0 0.609375 0.104953 0.609375 0.234375V11.7656C0.609375 11.895 0.714305 12 0.84375 12H6.46875H11.1562C11.2857 12 11.3906 11.895 11.3906 11.7656V3.04697C11.3906 2.91752 11.2857 2.81259 11.1562 2.81259ZM6.70312 3.28134H10.9219V9.18748H6.70312V3.28134ZM2.95312 11.5312V9.65623H4.35938V11.5312H2.95312ZM4.59375 9.18748H2.71875C2.5893 9.18748 2.48438 9.29243 2.48438 9.42185V11.5312H1.07812V0.46875H6.23438V11.5312H4.82812V9.42185C4.82812 9.29243 4.72317 9.18748 4.59375 9.18748ZM6.7031 11.5312V9.65623H10.9219V11.5312H6.7031Z" fill="#2E2E2E"/>
<path d="M3.42188 1.87506H3.89055C4.02 1.87506 4.12493 1.77013 4.12493 1.64069V1.17194C4.12493 1.04249 4.02 0.937561 3.89055 0.937561H3.42188C3.29243 0.937561 3.1875 1.04249 3.1875 1.17194V1.64069C3.1875 1.77013 3.29243 1.87506 3.42188 1.87506Z" fill="#2E2E2E"/>
<path d="M3.42188 3.51566H3.89055C4.02 3.51566 4.12493 3.41073 4.12493 3.28129V2.81253C4.12493 2.68309 4.02 2.57816 3.89055 2.57816H3.42188C3.29243 2.57816 3.1875 2.68309 3.1875 2.81253V3.28129C3.1875 3.41073 3.29243 3.51566 3.42188 3.51566Z" fill="#2E2E2E"/>
<path d="M3.42188 5.15628H3.89055C4.02 5.15628 4.12493 5.05135 4.12493 4.92191V4.45316C4.12493 4.32371 4.02 4.21878 3.89055 4.21878H3.42188C3.29243 4.21878 3.1875 4.32371 3.1875 4.45316V4.92191C3.1875 5.05135 3.29243 5.15628 3.42188 5.15628Z" fill="#2E2E2E"/>
<path d="M3.42188 6.79688H3.89055C4.02 6.79688 4.12493 6.69195 4.12493 6.5625V6.09375C4.12493 5.9643 4.02 5.85938 3.89055 5.85938H3.42188C3.29243 5.85938 3.1875 5.9643 3.1875 6.09375V6.5625C3.1875 6.69195 3.29243 6.79688 3.42188 6.79688Z" fill="#2E2E2E"/>
<path d="M3.42188 8.4375H3.89055C4.02 8.4375 4.12493 8.33257 4.12493 8.20312V7.73438C4.12493 7.60493 4.02 7.5 3.89055 7.5H3.42188C3.29243 7.5 3.1875 7.60493 3.1875 7.73438V8.20312C3.1875 8.33257 3.29243 8.4375 3.42188 8.4375Z" fill="#2E2E2E"/>
<path d="M1.78125 1.87506H2.24993C2.37937 1.87506 2.4843 1.77013 2.4843 1.64069V1.17194C2.4843 1.04249 2.37937 0.937561 2.24993 0.937561H1.78125C1.6518 0.937561 1.54688 1.04249 1.54688 1.17194V1.64069C1.54688 1.77013 1.6518 1.87506 1.78125 1.87506Z" fill="#2E2E2E"/>
<path d="M1.78125 3.51566H2.24993C2.37937 3.51566 2.4843 3.41073 2.4843 3.28129V2.81253C2.4843 2.68309 2.37937 2.57816 2.24993 2.57816H1.78125C1.6518 2.57816 1.54688 2.68309 1.54688 2.81253V3.28129C1.54688 3.41073 1.6518 3.51566 1.78125 3.51566Z" fill="#2E2E2E"/>
<path d="M1.78125 5.15628H2.24993C2.37937 5.15628 2.4843 5.05135 2.4843 4.92191V4.45316C2.4843 4.32371 2.37937 4.21878 2.24993 4.21878H1.78125C1.6518 4.21878 1.54688 4.32371 1.54688 4.45316V4.92191C1.54688 5.05135 1.6518 5.15628 1.78125 5.15628Z" fill="#2E2E2E"/>
<path d="M1.78125 6.79688H2.24993C2.37937 6.79688 2.4843 6.69195 2.4843 6.5625V6.09375C2.4843 5.9643 2.37937 5.85938 2.24993 5.85938H1.78125C1.6518 5.85938 1.54688 5.9643 1.54688 6.09375V6.5625C1.54688 6.69195 1.6518 6.79688 1.78125 6.79688Z" fill="#2E2E2E"/>
<path d="M1.78125 8.4375H2.24993C2.37937 8.4375 2.4843 8.33257 2.4843 8.20312V7.73438C2.4843 7.60493 2.37937 7.5 2.24993 7.5H1.78125C1.6518 7.5 1.54688 7.60493 1.54688 7.73438V8.20312C1.54688 8.33257 1.6518 8.4375 1.78125 8.4375Z" fill="#2E2E2E"/>
<path d="M5.53118 0.937561H5.0625C4.93305 0.937561 4.82812 1.04249 4.82812 1.17194V1.64069C4.82812 1.77013 4.93305 1.87506 5.0625 1.87506H5.53118C5.66062 1.87506 5.76555 1.77013 5.76555 1.64069V1.17194C5.76555 1.04249 5.66062 0.937561 5.53118 0.937561Z" fill="#2E2E2E"/>
<path d="M5.53118 2.57812H5.0625C4.93305 2.57812 4.82812 2.68305 4.82812 2.8125V3.28125C4.82812 3.4107 4.93305 3.51562 5.0625 3.51562H5.53118C5.66062 3.51562 5.76555 3.4107 5.76555 3.28125V2.8125C5.76555 2.68308 5.66062 2.57812 5.53118 2.57812Z" fill="#2E2E2E"/>
<path d="M5.53118 4.21875H5.0625C4.93305 4.21875 4.82812 4.32368 4.82812 4.45312V4.92188C4.82812 5.05132 4.93305 5.15625 5.0625 5.15625H5.53118C5.66062 5.15625 5.76555 5.05132 5.76555 4.92188V4.45312C5.76555 4.3237 5.66062 4.21875 5.53118 4.21875Z" fill="#2E2E2E"/>
<path d="M5.53118 5.85938H5.0625C4.93305 5.85938 4.82812 5.9643 4.82812 6.09375V6.5625C4.82812 6.69195 4.93305 6.79688 5.0625 6.79688H5.53118C5.66062 6.79688 5.76555 6.69195 5.76555 6.5625V6.09375C5.76555 5.96433 5.66062 5.85938 5.53118 5.85938Z" fill="#2E2E2E"/>
<path d="M5.53118 7.5H5.0625C4.93305 7.5 4.82812 7.60493 4.82812 7.73438V8.20312C4.82812 8.33257 4.93305 8.4375 5.0625 8.4375H5.53118C5.66062 8.4375 5.76555 8.33257 5.76555 8.20312V7.73438C5.76555 7.60493 5.66062 7.5 5.53118 7.5Z" fill="#2E2E2E"/>
<path d="M9.86712 4.21875H9.39844C9.26899 4.21875 9.16406 4.32368 9.16406 4.45312V4.92188C9.16406 5.05132 9.26899 5.15625 9.39844 5.15625H9.86712C9.99656 5.15625 10.1015 5.05132 10.1015 4.92188V4.45312C10.1015 4.3237 9.99654 4.21875 9.86712 4.21875Z" fill="#2E2E2E"/>
<path d="M9.86712 5.85938H9.39844C9.26899 5.85938 9.16406 5.9643 9.16406 6.09375V6.5625C9.16406 6.69195 9.26899 6.79688 9.39844 6.79688H9.86712C9.99656 6.79688 10.1015 6.69195 10.1015 6.5625V6.09375C10.1015 5.96433 9.99654 5.85938 9.86712 5.85938Z" fill="#2E2E2E"/>
<path d="M9.86712 7.5H9.39844C9.26899 7.5 9.16406 7.60493 9.16406 7.73438V8.20312C9.16406 8.33257 9.26899 8.4375 9.39844 8.4375H9.86712C9.99656 8.4375 10.1015 8.33257 10.1015 8.20312V7.73438C10.1015 7.60493 9.99654 7.5 9.86712 7.5Z" fill="#2E2E2E"/>
<path d="M8.22649 4.21875H7.75781C7.62837 4.21875 7.52344 4.32368 7.52344 4.45312V4.92188C7.52344 5.05132 7.62837 5.15625 7.75781 5.15625H8.22649C8.35594 5.15625 8.46087 5.05132 8.46087 4.92188V4.45312C8.46087 4.3237 8.35591 4.21875 8.22649 4.21875Z" fill="#2E2E2E"/>
<path d="M8.22649 5.85938H7.75781C7.62837 5.85938 7.52344 5.9643 7.52344 6.09375V6.5625C7.52344 6.69195 7.62837 6.79688 7.75781 6.79688H8.22649C8.35594 6.79688 8.46087 6.69195 8.46087 6.5625V6.09375C8.46087 5.96433 8.35591 5.85938 8.22649 5.85938Z" fill="#2E2E2E"/>
<path d="M8.22649 7.5H7.75781C7.62837 7.5 7.52344 7.60493 7.52344 7.73438V8.20312C7.52344 8.33257 7.62837 8.4375 7.75781 8.4375H8.22649C8.35594 8.4375 8.46087 8.33257 8.46087 8.20312V7.73438C8.46087 7.60493 8.35591 7.5 8.22649 7.5Z" fill="#2E2E2E"/>
</svg>
