<svg width="8" height="8" viewBox="0 0 8 8" fill="none" xmlns="http://www.w3.org/2000/svg">
<path d="M5.99999 3.99996L6.35354 4.35351L6.7071 3.99996L6.35354 3.64641L5.99999 3.99996ZM2.3131 6.97974C2.11784 7.175 2.11784 7.49158 2.3131 7.68685C2.50837 7.88211 2.82495 7.88211 3.02021 7.68685L2.3131 6.97974ZM3.02021 0.313073C2.82495 0.11781 2.50837 0.11781 2.3131 0.313073C2.11784 0.508335 2.11784 0.824917 2.3131 1.02018L3.02021 0.313073ZM5.64644 3.64641L2.3131 6.97974L3.02021 7.68685L6.35354 4.35351L5.64644 3.64641ZM2.3131 1.02018L5.64644 4.35351L6.35354 3.64641L3.02021 0.313073L2.3131 1.02018Z" fill="#828282"/>
</svg>
