<svg xmlns="http://www.w3.org/2000/svg" width="32" height="32" fill="none"  xmlns:v="https://vecta.io/nano"><path d="M20.348.764A12.76 12.76 0 0 0 16 0l-1.25 12.543L16 32s14.016-2.668 14.016-10.944V2.821c-3.22 0-6.891-1.051-9.668-2.058z" fill="#5f69e3"/><g fill="#4895ff"><path d="M11.652.764C8.875 1.77 5.204 2.821 1.984 2.821v18.235C1.984 29.332 16 32 16 32V0a12.76 12.76 0 0 0-4.348.764z"/><path d="M19.709 2.527c-1.193-.432-2.441-.651-3.709-.651l-1.25 10.169L16 30.083c.942-.212 3.625-.883 6.251-2.168 1.809-.885 3.229-1.88 4.223-2.956 1.122-1.216 1.668-2.493 1.668-3.903V4.601c-2.463-.241-5.29-.936-8.432-2.074z"/></g><path d="M12.291 2.526C9.149 3.665 6.322 4.36 3.859 4.601v16.455c0 1.41.546 2.686 1.668 3.903.993 1.076 2.414 2.071 4.223 2.956 2.626 1.285 5.309 1.956 6.251 2.168V1.875c-1.268 0-2.517.219-3.709.651z" fill="#96c8ef"/><path d="M25.216 6.352c-1.931-.382-4.033-.983-6.247-1.785A8.69 8.69 0 0 0 16 4.045l-1.25 8.498L16 27.855l.233-.06c1.302-.335 3.255-.931 5.161-1.877 1.516-.752 2.73-1.602 3.512-2.46.956-1.048 1.066-1.873 1.066-2.402V6.501l-.755-.15z" fill="#e1ebf0"/><path d="M16 4.045c-1.015 0-2.015.176-2.97.522-2.214.802-4.315 1.403-6.246 1.786l-.755.15v14.555c0 .529.111 1.354 1.066 2.402.782.857 1.996 1.708 3.512 2.46 1.906.946 3.858 1.543 5.161 1.877l.233.06V4.045z" fill="#fff5f5"/><path d="M20.287 18.277c.732-.732.732-1.919 0-2.652l-3.349-3.349v-2.042A.94.94 0 0 0 16 9.296l-.625 4.485.625 5.512 1.635 1.635.601-.714-1.299-2.636v-2.652l3.349 3.35z" fill="#87a0af"/><path d="M16 9.296a.94.94 0 0 0-.937.937v2.042l-3.35 3.349c-.732.732-.732 1.919 0 2.652l3.35-3.35v2.652l-1.299 2.636.601.714L16 19.294V9.296z" fill="#b4d2d7"/></svg>