<svg width="16" height="16" viewBox="0 0 16 16" fill="none" xmlns="http://www.w3.org/2000/svg">
<path d="M0 16L1.10344 12C0.386219 10.7586 0 9.37931 0 7.94481C0 3.58622 3.58622 0 7.97241 0C12.3586 0 16 3.58622 16 7.94481C16 12.3034 12.3586 16 7.97241 16C6.59309 16 5.26897 15.5586 4.08275 14.8966L0 16Z" fill="#BE1E2D"/>
<path d="M4.30344 13.4621L4.55172 13.6C5.57241 14.2345 6.75863 14.6207 8.00001 14.6207C11.6138 14.6207 14.6207 11.6138 14.6207 7.9448C14.6207 4.27583 11.6138 1.3793 7.97241 1.3793C4.33104 1.3793 1.37932 4.30343 1.37932 7.9448C1.37932 9.21377 1.73794 10.4551 2.40001 11.5034L2.56554 11.7517L1.93107 14.069L4.30344 13.4621Z" fill="white"/>
<path d="M5.84827 4.24827L5.32414 4.22067C5.15861 4.22067 4.99311 4.27586 4.88277 4.3862C4.63449 4.60689 4.22071 5.02067 4.11036 5.57242C3.91727 6.40002 4.22071 7.39311 4.93796 8.3862C5.65521 9.3793 7.03452 10.9793 9.46208 11.669C10.2345 11.8896 10.8414 11.7517 11.338 11.4483C11.7242 11.2 11.9724 10.8138 12.0552 10.4L12.138 10.0138C12.1656 9.90342 12.1104 9.76548 12 9.71033L10.2621 8.91033C10.1517 8.85514 10.0138 8.88273 9.93105 8.99308L9.24139 9.87583C9.18621 9.93102 9.10346 9.95858 9.02071 9.93102C8.55174 9.76549 6.97933 9.10342 6.12414 7.44827C6.09655 7.36552 6.09655 7.28274 6.15174 7.22758L6.8138 6.48277C6.86899 6.40002 6.89655 6.28967 6.86899 6.20689L6.06899 4.4138C6.04136 4.33102 5.95861 4.24827 5.84827 4.24827Z" fill="#BE1E2D"/>
</svg>
