<svg xmlns="http://www.w3.org/2000/svg" width="20" height="20" fill="none"  xmlns:v="https://vecta.io/nano"><path d="M10 0C4.486 0 0 4.486 0 10s4.486 10 10 10 10-4.486 10-10S15.514 0 10 0z" fill="#f53941"/><path d="M13.71 5.757l-3.29 3.31-3.235-3.235a.72.72 0 0 0-1.018 0 .72.72 0 0 0 0 1.018l3.235 3.215-3.16 3.16a.72.72 0 0 0 0 1.018.72.72 0 0 0 1.017 0l3.155-3.155 3.225 3.225a.72.72 0 0 0 1.018 0 .72.72 0 0 0 0-1.018l-3.225-3.225 3.295-3.295a.72.72 0 0 0 0-1.018.72.72 0 0 0-1.018 0z" fill="#fff"/></svg>