<svg xmlns="http://www.w3.org/2000/svg" width="18" height="18" fill="none" xmlns:v="https://vecta.io/nano"><g clip-path="url(#A)" fill="#27ae60"><path d="M17.904 6.269C15.53 3.894 12.367 2.586 9 2.586S2.471 3.894.096 6.269c-.128.128-.128.335 0 .464s.335.128.464 0C2.81 4.481 5.808 3.242 9 3.242a11.85 11.85 0 0 1 8.44 3.49c.064.064.148.096.232.096s.168-.032.232-.096c.128-.128.128-.335 0-.463zM2.023 8.195c-.128.128-.128.335 0 .464.064.064.148.096.232.096s.168-.032.232-.096c3.591-3.592 9.435-3.592 13.027 0 .128.128.335.128.464 0s.128-.335 0-.464a9.88 9.88 0 0 0-13.954 0zM9 8.034a7.09 7.09 0 0 0-5.05 2.089c-.128.128-.128.335 0 .463s.335.128.464 0A6.44 6.44 0 0 1 9 8.69a6.44 6.44 0 0 1 4.586 1.896c.064.064.148.096.232.096s.168-.032.232-.096c.128-.128.128-.335 0-.463A7.09 7.09 0 0 0 9 8.034zm0 3.084a2.15 2.15 0 0 0-2.148 2.148A2.15 2.15 0 0 0 9 15.414a2.15 2.15 0 0 0 2.148-2.148A2.15 2.15 0 0 0 9 11.118zm0 3.64c-.823 0-1.492-.669-1.492-1.492S8.177 11.774 9 11.774s1.492.669 1.492 1.492S9.823 14.758 9 14.758z"/></g><defs><clipPath id="A"><path fill="#fff" d="M0 0h18v18H0z"/></clipPath></defs></svg>