<svg width="31" height="30" viewBox="0 0 31 30" fill="none" xmlns="http://www.w3.org/2000/svg">
<ellipse cx="15.0008" cy="15.0001" rx="15.0008" ry="15" fill="url(#paint0_linear)"/>
<path d="M23.9628 19.9468C23.9119 19.7934 23.5879 19.5674 22.9911 19.2694C22.8295 19.1754 22.5991 19.0478 22.3011 18.8858C22.0027 18.7239 21.7319 18.5746 21.4892 18.4382C21.2459 18.3019 21.018 18.1698 20.8051 18.0422C20.771 18.0166 20.6645 17.9421 20.4855 17.8183C20.3063 17.6948 20.1553 17.6031 20.0314 17.5433C19.9079 17.4839 19.7863 17.454 19.667 17.454C19.4966 17.454 19.2837 17.5755 19.0281 17.8183C18.7724 18.0613 18.538 18.3253 18.325 18.6111C18.112 18.8967 17.886 19.1607 17.6476 19.4036C17.4088 19.6466 17.2127 19.768 17.0594 19.768C16.9825 19.768 16.8866 19.7466 16.7716 19.7042C16.6567 19.6617 16.5693 19.6252 16.5093 19.5958C16.4498 19.5657 16.3477 19.5062 16.2027 19.4165C16.0575 19.327 15.9767 19.2779 15.9597 19.2694C14.792 18.6215 13.7905 17.88 12.9551 17.0451C12.12 16.2096 11.3783 15.2084 10.7306 14.0407C10.722 14.0237 10.6729 13.9427 10.5835 13.7979C10.4939 13.6529 10.4342 13.5508 10.4044 13.491C10.3746 13.4314 10.3384 13.344 10.2958 13.2289C10.2533 13.1139 10.2319 13.0181 10.2319 12.9413C10.2319 12.788 10.3534 12.5919 10.5963 12.3532C10.8392 12.1147 11.1035 11.8887 11.389 11.6758C11.6746 11.4629 11.9387 11.2285 12.1817 10.9729C12.4246 10.7172 12.546 10.5042 12.546 10.3338C12.546 10.2146 12.5162 10.093 12.4566 9.96945C12.3969 9.84564 12.3053 9.69456 12.1817 9.5155C12.058 9.33653 11.9834 9.2301 11.9578 9.19585C11.8301 8.98294 11.6981 8.75498 11.5616 8.51207C11.425 8.2692 11.276 7.99849 11.114 7.70023C10.9521 7.40211 10.8243 7.17192 10.7305 7.01001C10.4323 6.41354 10.2065 6.08954 10.053 6.03858C9.99331 6.01302 9.90375 6.00012 9.78454 6.00012C9.55428 6.00012 9.25388 6.04266 8.88313 6.128C8.51225 6.21321 8.22041 6.30259 8.00729 6.39648C7.58111 6.57536 7.12939 7.09521 6.65202 7.95586C6.21733 8.75682 6 9.54958 6 10.3336C6 10.5635 6.01491 10.7872 6.04474 11.0047C6.07456 11.222 6.12785 11.4671 6.20465 11.7399C6.28132 12.0125 6.34316 12.2151 6.38991 12.347C6.43671 12.479 6.52408 12.7155 6.65198 13.0565C6.77969 13.3974 6.85649 13.6061 6.88206 13.6828C7.18035 14.5181 7.53409 15.2637 7.94317 15.92C8.61623 17.0109 9.53475 18.1382 10.6982 19.3016C11.8616 20.4649 12.9889 21.3832 14.08 22.0565C14.7362 22.4655 15.4822 22.8191 16.3175 23.1176C16.3942 23.143 16.603 23.2196 16.9438 23.3478C17.2848 23.4756 17.5213 23.5629 17.6533 23.6098C17.7854 23.6567 17.988 23.7186 18.2605 23.7954C18.5336 23.8722 18.7785 23.9255 18.9958 23.9555C19.2133 23.9849 19.437 24.0001 19.667 24.0001C20.4511 24.0001 21.244 23.7827 22.0452 23.3481C22.9058 22.871 23.4256 22.4192 23.6046 21.9928C23.6987 21.7799 23.7879 21.488 23.8731 21.1172C23.9586 20.7465 24.0011 20.4462 24.0011 20.216C24.0013 20.0963 23.9885 20.007 23.9628 19.9468Z" fill="white"/>
<defs>
<linearGradient id="paint0_linear" x1="1.11765e-07" y1="15.0001" x2="30.0017" y2="15.0001" gradientUnits="userSpaceOnUse">
<stop stop-color="#BE1E2D"/>
<stop offset="1" stop-color="#EC1C24"/>
</linearGradient>
</defs>
</svg>
