<svg xmlns="http://www.w3.org/2000/svg" width="10" height="11" fill="none"  xmlns:v="https://vecta.io/nano"><g clip-path="url(#A)"><path d="M8.542 4.25h-.625v-.833A2.92 2.92 0 0 0 5 .5a2.92 2.92 0 0 0-2.917 2.917v.833h-.625c-.115 0-.208.093-.208.208v5.208c0 .46.374.833.833.833h5.833c.46 0 .833-.374.833-.833V4.458c0-.115-.093-.208-.208-.208zM5.624 8.602c.006.059-.012.118-.052.162s-.096.069-.155.069h-.833c-.059 0-.116-.025-.155-.069s-.058-.103-.052-.162l.131-1.182c-.213-.155-.341-.401-.341-.67 0-.46.374-.833.833-.833s.833.374.833.833c0 .269-.128.515-.341.67l.131 1.182zM6.667 4.25H3.333v-.833A1.67 1.67 0 0 1 5 1.75a1.67 1.67 0 0 1 1.667 1.667v.833z" fill="#fff"/></g><defs><clipPath id="A"><path fill="#fff" transform="translate(0 .5)" d="M0 0h10v10H0z"/></clipPath></defs></svg>