<svg width="24" height="24" viewBox="0 0 24 24" fill="none" xmlns="http://www.w3.org/2000/svg">
<path d="M18.155 2H5.845C5.378 2 5 2.33839 5 2.75647V21.2435C5 21.6616 5.378 22 5.845 22H18.155C18.622 22 19 21.6616 19 21.2435V2.75647C19 2.33839 18.6214 2 18.155 2ZM9.84074 2.92239H14.1598C14.3147 2.92239 14.4415 3.03535 14.4415 3.17454C14.4415 3.31373 14.3147 3.4267 14.1598 3.4267H9.84074C9.68526 3.4267 9.55907 3.31373 9.55907 3.17454C9.55907 3.03535 9.68469 2.92239 9.84074 2.92239ZM12 21.1618C11.5854 21.1618 11.2491 20.8603 11.2491 20.4896C11.2491 20.1189 11.5854 19.8168 12 19.8168C12.4146 19.8168 12.7509 20.1189 12.7509 20.4891C12.7509 20.8592 12.4146 21.1618 12 21.1618ZM17.31 19.0604H6.69V4.09895H17.31V19.0604Z" fill="#DEF1FF"/>
</svg>
