<svg xmlns="http://www.w3.org/2000/svg" width="64" height="42" fill="none"  fill-rule="evenodd" xmlns:v="https://vecta.io/nano"><path d="M0 3a3 3 0 0 1 3-3h58a3 3 0 0 1 3 3v36a3 3 0 0 1-3 3H3a3 3 0 0 1-3-3V3z" fill="#f4f6f7"/><path d="M0 3a3 3 0 0 1 3-3h58a3 3 0 0 1 3 3v7H0V3z" fill="#4095db"/><path d="M0 32h64v7a3 3 0 0 1-3 3H3a3 3 0 0 1-3-3v-7z" fill="#f4b662"/><g fill="#dadada"><path d="M39.229 15.488c-.572-.233-1.473-.488-2.594-.488-2.863 0-4.878 1.578-4.894 3.837-.018 1.671 1.438 2.603 2.536 3.158 1.128.569 1.507.934 1.503 1.443-.008.779-.901 1.135-1.733 1.135-1.159 0-1.775-.176-2.727-.61l-.372-.185-.405 2.602c.675.324 1.927.605 3.226.62 3.042 0 5.019-1.558 5.042-3.971.01-1.325-.761-2.33-2.432-3.159-1.012-.539-1.633-.896-1.626-1.442.001-.483.525-1 1.659-1a4.92 4.92 0 0 1 2.167.447l.26.133.392-2.52zm-13.398 11.34l1.811-11.625h2.895l-1.811 11.625H25.83zm18.407-7.371l-1.154 3.249h2.404l-.67-3.356-.195-1.003-.267.768-.118.341zm2.419-4.242h-2.238c-.694 0-1.214.206-1.518.964l-4.3 10.654h3.041l.609-1.748 3.708.006.353 1.742H49l-2.343-11.617zm-23.255-.003l-2.834 7.926-.303-1.611c-.528-1.856-2.172-3.868-4.011-4.876l2.593 10.167 3.064-.002 4.56-11.603h-3.068z"/><path d="M17.938 15.205h-4.669l-.039.241c3.633.963 6.037 3.287 7.035 6.082l-1.015-5.342c-.175-.737-.684-.955-1.312-.981z"/></g><path d="M0 3a3 3 0 0 1 3-3h58a3 3 0 0 1 3 3v36a3 3 0 0 1-3 3H3a3 3 0 0 1-3-3V3z" fill="#e5e5e5" fill-opacity=".01"/></svg>