<svg xmlns="http://www.w3.org/2000/svg" width="16" height="16" fill="none"  xmlns:v="https://vecta.io/nano"><path d="M8 0a8.01 8.01 0 0 0-8 8 8.01 8.01 0 0 0 8 8 8.01 8.01 0 0 0 8-8 8.01 8.01 0 0 0-8-8z" fill="#fff"/><path d="M10.968 4.606L8.336 7.254 5.748 4.666c-.226-.226-.589-.226-.814 0s-.226.589 0 .814l2.588 2.572-2.528 2.528c-.225.226-.225.588 0 .814s.588.226.814 0L8.332 8.87l2.58 2.58c.225.225.588.226.814 0s.225-.589 0-.814l-2.58-2.58 2.636-2.636c.225-.226.225-.589 0-.814s-.591-.224-.814 0z" fill="#2e2e2e"/></svg>