<svg xmlns="http://www.w3.org/2000/svg" width="16" height="16" fill="none" xmlns:v="https://vecta.io/nano"><path d="M14.6 7.444h-.048l-1.101-5.549c-.073-.318-.367-.562-.709-.562H3.258a.73.73 0 0 0-.709.587l-1.1 5.524H1.4a.72.72 0 0 0-.733.733v2.689.489 1.222.489.244a.72.72 0 0 0 .733.733h1.662c.269 0 .513-.147.636-.416l.288-.562h8.018l.275.562a.72.72 0 0 0 .66.416H14.6a.72.72 0 0 0 .733-.733v-.244-.489-1.222-.489-2.689a.72.72 0 0 0-.733-.733zM3.013 2.018c.024-.122.122-.196.244-.196h9.485c.122 0 .22.098.244.196l1.076 5.427h-.455c-.148-1.231-1.404-2.2-2.919-2.2-1.199 0-2.235.607-2.689 1.471-.454-.863-1.49-1.471-2.689-1.471-1.514 0-2.77.969-2.919 2.2h-.455l1.076-5.427zm10.096 5.427h-4.84c.147-.953 1.173-1.711 2.42-1.711s2.273.758 2.42 1.711zm-5.378 0h-4.84c.147-.953 1.173-1.711 2.42-1.711s2.273.758 2.42 1.711zm-4.449 5.964c-.049.098-.122.147-.22.147H1.4a.23.23 0 0 1-.244-.244v-.244h2.298l-.171.342zm11.562-.098a.23.23 0 0 1-.244.245h-1.662c-.098 0-.171-.073-.22-.147l-.171-.342h2.298v.244h0zm0-.733h-3.08-7.529-3.08v-1.222h13.689v1.222zM1.156 10.867v-.733h.733a.23.23 0 0 0 .244-.244.23.23 0 0 0-.244-.244h-.733v-.489h.733a.23.23 0 0 0 .244-.244.23.23 0 0 0-.244-.244h-.733v-.489a.23.23 0 0 1 .244-.244h.978 5.378.489 5.378.978a.23.23 0 0 1 .244.244v.489h-.978a.23.23 0 0 0-.244.244.23.23 0 0 0 .244.244h.978v.489h-.978a.23.23 0 0 0-.244.244.23.23 0 0 0 .244.244h.978v.733H1.156h0z" fill="#4f4f4f"/></svg>