<svg xmlns="http://www.w3.org/2000/svg" width="16" height="16" fill="none" xmlns:v="https://vecta.io/nano"><g clip-path="url(#A)" fill="#000"><path d="M8 5.714H6.857V8H8c.63 0 1.143-.513 1.143-1.143S8.63 5.714 8 5.714zM14.857 0H1.143C.512 0 0 .512 0 1.143v13.714C0 15.488.512 16 1.143 16h13.714c.631 0 1.143-.512 1.143-1.143V1.143C16 .512 15.488 0 14.857 0zM8 10.286H6.857v2.286H4.571V3.429H8c1.891 0 3.429 1.538 3.429 3.429S9.891 10.286 8 10.286z"/></g><defs><clipPath id="A"><path fill="#fff" d="M0 0h16v16H0z"/></clipPath></defs></svg>