<svg xmlns="http://www.w3.org/2000/svg" width="20" height="19" fill="none"  xmlns:v="https://vecta.io/nano"><path d="M9.049.927c.299-.921 1.603-.921 1.902 0l1.519 4.674a1 1 0 0 0 .951.691h4.914c.969 0 1.371 1.24.588 1.809l-3.976 2.889a1 1 0 0 0-.363 1.118l1.519 4.674c.299.921-.755 1.687-1.539 1.118l-3.976-2.889a1 1 0 0 0-1.176 0l-3.976 2.889c-.784.569-1.838-.197-1.539-1.118l1.519-4.674a1 1 0 0 0-.363-1.118L1.077 8.101c-.784-.569-.381-1.809.588-1.809h4.914a1 1 0 0 0 .951-.691L9.049.927z" fill="#f2c94c"/></svg>