<svg width="100" height="100" viewBox="0 0 100 100" fill="none" xmlns="http://www.w3.org/2000/svg">
<g opacity="0.8">
<path d="M73.6252 45.6406C73.7915 45.6406 73.9571 45.6429 74.1234 45.6459L74.1661 45.6467C75.0992 45.6635 76.0246 45.7237 76.9409 45.8237V11.7989C76.9409 5.29327 71.6476 0 65.1421 0H13.9481C7.44171 0 2.14844 5.29327 2.14844 11.7989V79.6646C2.14844 86.171 7.44171 91.4642 13.9473 91.4642H48.127C45.1775 86.7241 43.6302 81.3103 43.6302 75.6523C43.6302 59.1034 57.0854 45.6406 73.6252 45.6406ZM44.4641 19.265H61.9492C63.5674 19.265 64.8788 20.5765 64.8788 22.1947C64.8788 23.8129 63.5674 25.1244 61.9492 25.1244H44.4641C42.8467 25.1244 41.5344 23.8129 41.5344 22.1947C41.5344 20.5765 42.8467 19.265 44.4641 19.265ZM44.4641 30.9845H61.9492C63.5674 30.9845 64.8788 32.296 64.8788 33.9142C64.8788 35.5324 63.5674 36.8439 61.9492 36.8439H44.4641C42.8467 36.8439 41.5344 35.5324 41.5344 33.9142C41.5344 32.296 42.8467 30.9845 44.4641 30.9845ZM34.6252 72.1985H17.1402C15.522 72.1985 14.2105 70.887 14.2105 69.2688C14.2105 67.6514 15.522 66.3391 17.1402 66.3391H34.6252C36.2427 66.3391 37.5549 67.6514 37.5549 69.2688C37.5549 70.887 36.2427 72.1985 34.6252 72.1985ZM34.6252 60.2829H17.1402C15.522 60.2829 14.2105 58.9714 14.2105 57.3532C14.2105 55.735 15.522 54.4235 17.1402 54.4235H34.6252C36.2427 54.4235 37.5549 55.735 37.5549 57.3532C37.5549 58.9714 36.2427 60.2829 34.6252 60.2829ZM34.6252 48.5634H17.1402C15.522 48.5634 14.2105 47.2519 14.2105 45.6337C14.2105 44.0155 15.522 42.704 17.1402 42.704H34.6252C36.2427 42.704 37.5549 44.0155 37.5549 45.6337C37.5549 47.2519 36.2427 48.5634 34.6252 48.5634ZM34.6252 36.8439H17.1402C15.522 36.8439 14.2105 35.5324 14.2105 33.9142C14.2105 32.296 15.522 30.9845 17.1402 30.9845H34.6252C36.2427 30.9845 37.5549 32.296 37.5549 33.9142C37.5549 35.5324 36.2427 36.8439 34.6252 36.8439ZM34.6252 25.1244H17.1402C15.522 25.1244 14.2105 23.8129 14.2105 22.1947C14.2105 20.5765 15.522 19.265 17.1402 19.265H34.6252C36.2427 19.265 37.5549 20.5765 37.5549 22.1947C37.5549 23.8129 36.2427 25.1244 34.6252 25.1244ZM41.5344 45.6337C41.5344 44.0155 42.8467 42.704 44.4641 42.704H52.8854C54.5036 42.704 55.8151 44.0155 55.8151 45.6337C55.8151 47.2519 54.5036 48.5634 52.8854 48.5634H44.4641C42.8467 48.5634 41.5344 47.2519 41.5344 45.6337Z" fill="white"/>
<path d="M90.9737 58.5824C86.4769 54.0063 80.4711 51.4229 74.0631 51.31L74.0212 51.3093C73.8892 51.307 73.7572 51.3047 73.6252 51.3047C60.2089 51.3047 49.2943 62.2269 49.2943 75.6524C49.2943 80.9846 50.9865 86.0482 54.187 90.297C58.8326 96.4638 65.9172 100 73.6252 100C87.0415 100 97.9561 89.0778 97.9561 75.6524C97.9561 69.2254 95.4766 63.1631 90.9737 58.5824ZM84.021 71.6942L74.7299 83.2764C74.1524 83.9959 73.3025 84.3735 72.4427 84.3735C71.8453 84.3735 71.2441 84.1912 70.7253 83.8158L63.7955 78.7949C62.4855 77.8458 62.1926 76.014 63.1424 74.7033C64.0915 73.3933 65.9233 73.1003 67.2333 74.0502L71.9048 77.4346L79.451 68.0276C80.4634 66.7657 82.3067 66.5635 83.5694 67.5759C84.8313 68.5883 85.0334 70.4323 84.021 71.6942Z" fill="white"/>
</g>
</svg>
