<svg xmlns="http://www.w3.org/2000/svg" width="64" height="42" fill="none"  xmlns:v="https://vecta.io/nano"><g fill-rule="evenodd"><path d="M0 3a3 3 0 0 1 3-3h58a3 3 0 0 1 3 3v36a3 3 0 0 1-3 3H3a3 3 0 0 1-3-3V3z" fill="#f4f6f7"/><path d="M0 3a3 3 0 0 1 3-3h58a3 3 0 0 1 3 3v36a3 3 0 0 1-3 3H3a3 3 0 0 1-3-3V3z" fill="#e5e5e5" fill-opacity=".01"/><path d="M40.453 11l-.598.03c-.771.088-1.497.475-2.018 1.072a3.39 3.39 0 0 0-.769 1.578c-.056.289-.063.58-.063.873v1.947.944.277c0 .074-.017.08.062.08H38.3h1.23 1.237l1.214.022c.397.038.801.155 1.122.408.451.357.635.971.48 1.537-.148.543-.592.907-1.099 1.058l-.17.043c-.033.007-.078.006-.108.02-.015.007-.053.016-.025.043.007.007.036.007.058.007h.021c.159.016.318.045.472.088.472.134.931.422 1.15.894.259.559.127 1.252-.291 1.685-.33.342-.79.516-1.245.574-.228.029-.458.023-.688.023h-1.237-1.237-1.23-.619-.155c-.035 0-.135-.018-.164 0-.017.011-.011.026-.011.054v1.188 2.097 2.119 1.254c0 .013-.008.068 0 .078s.093.001.113.001h.155.619 1.23 1.237 1.233c.735 0 1.434-.198 2.03-.661.808-.628 1.285-1.626 1.289-2.674v-.122-.059-.269-1.104-1.604-1.97-2.174-2.25-2.169-1.934-1.569-1.045-.383h-.013-1.179-1.233-1.237c-.244 0-.493-.009-.741-.01h-.053zm-1.902 7.812c-.01.023 0 .074 0 .099v.887.414c0 .035-.016.154.008.171s.111 0 .137 0h.148.286.568.559c.231-.004.454-.073.618-.243.186-.192.252-.475.196-.734-.026-.115-.075-.222-.149-.314-.141-.176-.35-.274-.571-.292-.105-.009-.212-.005-.317-.005h-.568-.579-.282c-.015 0-.025-.001-.033-.001s-.016.003-.023.019zm1.219 2.611H38.55v.049.887.524.191c0 .027-.011.085 0 .11.016.038.168.017.217.017h.309.61.613c.199 0 .39-.013.567-.123a.88.88 0 0 0 .398-.625c.042-.297-.053-.603-.266-.805-.172-.163-.386-.223-.614-.225h-.204-.409z" fill="url(#A)"/><path d="M21.717 11.045c-.46.077-.902.259-1.288.527-.89.619-1.422 1.667-1.426 2.769v.973 2.065 2.401 1.98.598.158c0 .061-.001.048.067.081l.227.107c.606.276 1.246.486 1.906.569.474.059.981.076 1.429-.119a1.48 1.48 0 0 0 .792-.816c.095-.24.122-.493.122-.749v-2.842-.64-.204c0-.02-.011-.084 0-.101s.125-.008.157-.008h.242.477 1.913v.059 2.805.988c-.001.384-.055.769-.208 1.122s-.396.648-.698.874c-.732.548-1.701.691-2.585.732-.633.029-1.268.004-1.897-.061-.651-.067-1.309-.166-1.942-.341v.227 1.56 2.276 2.056.654.184c0 .01-.007.058 0 .066.013.015.133 0 .157 0h.16.328.649 1.3 1.3c.551 0 1.117.039 1.656-.101.942-.245 1.743-.93 2.151-1.836.224-.498.297-1.027.297-1.569v-.893-1.505-1.95-2.219-2.341-2.288-2.061-1.684-1.132V11h-.323-1.351-1.351-1.347c-.06 0-.12 0-.18 0-.244 0-.488.004-.73.044z" fill="url(#B)"/><path d="M31.004 11.008c-.347.023-.69.104-1.011.24-.708.302-1.297.866-1.644 1.573-.227.463-.342.978-.344 1.496v.252 1.472 2.617l.066-.057.247-.187c.53-.362 1.148-.565 1.768-.685.505-.098 1.019-.139 1.532-.15a11.55 11.55 0 0 1 1.513.064c.512.057 1.021.147 1.525.258l.185.042c.033.008.16.018.177.045.013.019 0 .093 0 .115v.27 1.018l-.216-.109a6.21 6.21 0 0 0-1.725-.565c-.805-.132-1.717-.128-2.412.371-.671.481-.906 1.336-.834 2.148.071.791.493 1.468 1.204 1.784.703.312 1.518.27 2.254.12.604-.124 1.179-.35 1.729-.633v.101 1.186c0 .022.013.097 0 .116-.017.025-.146.036-.177.044l-.387.086c-.507.106-1.02.189-1.536.237-.505.047-1.015.056-1.521.036-.517-.02-1.034-.075-1.54-.191-.666-.153-1.33-.415-1.853-.88v.218 1.527 2.279 2.219V30.8c0 .016-.01.081 0 .093.022.027.201.005.244.005h.656 1.32 1.313l1.397-.009c.838-.062 1.632-.472 2.185-1.127.529-.628.79-1.422.79-2.25v-.743-1.42-1.917-2.238-2.37-2.345-2.125-1.744-1.177-.432h-.242-2.038-2.03c-.096 0-.192-.002-.288-.002l-.306.008z" fill="url(#C)"/></g><defs><linearGradient id="A" x1="44.909" y1="10.135" x2="37.267" y2="10.135" gradientUnits="userSpaceOnUse"><stop stop-color="#43c311"/><stop offset="1" stop-color="#288c00"/></linearGradient><linearGradient id="B" x1="19.021" y1="31.05" x2="27.101" y2="31.05" gradientUnits="userSpaceOnUse"><stop stop-color="#21469e"/><stop offset="1" stop-color="#1e81eb"/></linearGradient><linearGradient id="C" x1="35.909" y1="11" x2="28" y2="11" gradientUnits="userSpaceOnUse"><stop stop-color="#f42d3e"/><stop offset="1" stop-color="#9c0017"/></linearGradient></defs></svg>