<svg xmlns="http://www.w3.org/2000/svg" width="64" height="42" fill="none"  xmlns:v="https://vecta.io/nano"><g fill-rule="evenodd"><path d="M0 3a3 3 0 0 1 3-3h58a3 3 0 0 1 3 3v36a3 3 0 0 1-3 3H3a3 3 0 0 1-3-3V3z" fill="#f4f6f7"/><path d="M25 32c6.075 0 11-4.925 11-11s-4.925-11-11-11-11 4.925-11 11 4.925 11 11 11z" fill="#d8232a"/><path d="M32 29.486C33.902 31.056 36.341 32 39 32c6.075 0 11-4.925 11-11s-4.925-11-11-11c-2.659 0-5.098.944-7 2.514 2.443 2.018 4 5.07 4 8.486s-1.557 6.468-4 8.486z" fill="#ed9f2d"/><path d="M32 12.514c-2.443 2.018-4 5.07-4 8.486s1.557 6.468 4 8.486c2.443-2.018 4-5.07 4-8.486s-1.557-6.468-4-8.486z" fill="#d8232a"/></g><mask id="A" mask-type="alpha" maskUnits="userSpaceOnUse" x="28" y="12" width="8" height="18"><path fill-rule="evenodd" d="M32 12.514c-2.443 2.018-4 5.07-4 8.486s1.557 6.468 4 8.486c2.443-2.018 4-5.07 4-8.486s-1.557-6.468-4-8.486z" fill="#fff"/></mask><g mask="url(#A)"><path fill-rule="evenodd" d="M27 13h10v1H27v-1zm0 2h10v1H27v-1zm10 2H27v1h10v-1zm-10 2h10v1H27v-1zm10 2H27v1h10v-1zm-10 2h10v1H27v-1zm10 2H27v1h10v-1zm-10 2h10v1H27v-1zm10 2H27v1h10v-1z" fill="#ed9f2d"/></g><path fill-rule="evenodd" d="M0 3a3 3 0 0 1 3-3h58a3 3 0 0 1 3 3v36a3 3 0 0 1-3 3H3a3 3 0 0 1-3-3V3z" fill="#e5e5e5" fill-opacity=".01"/></svg>