<svg width="38" height="38" viewBox="0 0 38 38" fill="none" xmlns="http://www.w3.org/2000/svg">
<rect width="38" height="38" rx="4" fill="white"/>
<path d="M16.0001 18.9999L15.293 18.2928L14.5859 18.9999L15.293 19.707L16.0001 18.9999ZM22.7072 13.707C23.0978 13.3165 23.0978 12.6834 22.7072 12.2928C22.3167 11.9023 21.6835 11.9023 21.293 12.2928L22.7072 13.707ZM21.293 25.707C21.6835 26.0976 22.3167 26.0976 22.7072 25.707C23.0978 25.3165 23.0978 24.6834 22.7072 24.2928L21.293 25.707ZM16.7072 19.707L22.7072 13.707L21.293 12.2928L15.293 18.2928L16.7072 19.707ZM22.7072 24.2928L16.7072 18.2928L15.293 19.707L21.293 25.707L22.7072 24.2928Z" fill="#828282"/>
</svg>
