<svg xmlns="http://www.w3.org/2000/svg" width="20" height="20" fill="none"  xmlns:v="https://vecta.io/nano"><g clip-path="url(#A)" fill="#4f4f4f"><path d="M12.613 3.586a2.37 2.37 0 0 1 1.679.695l.015.017h2.728l.111-2.871-8.731.336L.692 9.486c-.923.924-.923 2.435 0 3.358l5.037 5.037c.923.924 2.434.923 3.358 0l7.723-7.723.098-2.535h-2.6c-.006.006-.01.012-.016.017-.463.464-1.071.695-1.679.695a2.37 2.37 0 0 1-1.679-.695c-.927-.927-.927-2.431 0-3.358a2.37 2.37 0 0 1 1.68-.695zm-3.444 10.52l-.368-.368a2.16 2.16 0 0 1-.275.157c-.24.112-.497.173-.754.173a1.6 1.6 0 0 1-1.138-.477l.839-.84a.4.4 0 0 0 .299.13.6.6 0 0 0 .253-.062c.099-.046.214-.123.333-.243.155-.155.274-.307.345-.436s.094-.227.094-.291c0-.041-.006-.073-.025-.115s-.053-.096-.12-.164c-.073-.073-.129-.106-.171-.125s-.077-.025-.125-.025c-.057 0-.138.014-.242.052a2.49 2.49 0 0 0-.361.175l-.927.527c-.236.108-.505.203-.82.205-.177 0-.367-.034-.545-.111a1.55 1.55 0 0 1-.487-.336 1.63 1.63 0 0 1-.338-.493 1.62 1.62 0 0 1-.14-.658 1.74 1.74 0 0 1 .161-.722 2.13 2.13 0 0 1 .167-.295l-.359-.359.839-.839.373.374.225-.129a1.84 1.84 0 0 1 .82-.204 1.53 1.53 0 0 1 .606.124 1.62 1.62 0 0 1 .502.343l-.839.84a.43.43 0 0 0-.132-.093c-.042-.018-.084-.027-.137-.027-.071 0-.166.018-.292.08a1.73 1.73 0 0 0-.443.335 1.2 1.2 0 0 0-.25.342c-.043.094-.054.167-.055.231a.43.43 0 0 0 .129.312c.053.053.09.074.115.085s.044.014.077.015c.043 0 .115-.012.215-.05a2.6 2.6 0 0 0 .353-.175l.943-.531a2.05 2.05 0 0 1 .84-.202 1.49 1.49 0 0 1 .597.123 1.75 1.75 0 0 1 .539.375 1.74 1.74 0 0 1 .365.521c.085.191.127.397.127.596a1.79 1.79 0 0 1-.244.869l-.107.173.375.375-.839.84zm4.467-8.739a1.18 1.18 0 0 0-.183-.246 1.18 1.18 0 0 0-1.679 0 1.19 1.19 0 0 0 0 1.679 1.18 1.18 0 0 0 1.679 0 1.16 1.16 0 0 0 .183-.246H20V5.367h-6.365z"/></g><defs><clipPath id="A"><path fill="#fff" d="M0 0h20v20H0z"/></clipPath></defs></svg>