<?xml version="1.0" encoding="utf-8"?>
<!-- Generator: Adobe Illustrator 16.0.0, SVG Export Plug-In . SVG Version: 6.00 Build 0)  -->
<!DOCTYPE svg PUBLIC "-//W3C//DTD SVG 1.1//EN" "http://www.w3.org/Graphics/SVG/1.1/DTD/svg11.dtd">
<svg version="1.1" id="Layer_1" xmlns="http://www.w3.org/2000/svg" xmlns:xlink="http://www.w3.org/1999/xlink" x="0px" y="0px"
	 width="25px" height="25px" viewBox="0 0 25 25" enable-background="new 0 0 25 25" xml:space="preserve">
<g>
	<path fill="#005AEB" d="M15.806,10.962c-0.232-1.642-0.803-3.923-2.185-5.833c-0.038-0.053-0.114-0.065-0.167-0.027
		c-1.979,1.437-3.117,3.521-3.735,5.079c-0.435,1.094-0.677,2.078-0.804,2.712c-0.014,0.065,0.032,0.127,0.099,0.135l6.843,0.79
		c0.066,0.008,0.126-0.044,0.127-0.111C15.991,13.072,15.966,12.093,15.806,10.962z"/>
	<path fill="#005AEB" d="M11.949,4.711C10.1,4.756,8.207,5.362,6.607,6.444c-1.773,1.2-2.952,2.812-3.38,4.6
		c-0.035,0.148,0.052,0.298,0.196,0.345l4.246,1.355c0.132-0.681,0.392-1.765,0.874-2.989C9.358,7.69,10.521,5.976,11.949,4.711z"/>
	<path fill="#005AEB" d="M13.318,3.525l0.853,0.098c0.072,0.009,0.146,0.018,0.218,0.028l0.149-1.11
		c0.046-0.342-0.193-0.656-0.535-0.702C13.66,1.793,13.347,2.033,13.3,2.375l-0.152,1.133C13.205,3.513,13.262,3.519,13.318,3.525z"
		/>
	<path fill="#005AEB" d="M12.042,20.711l0.354-2.588l0.05,0.008c0.029,0.004,0.06,0.006,0.088,0.006c0.416,0,0.76-0.414,0.572-0.896
		c-0.072-0.184-0.24-0.311-0.434-0.339l-0.107-0.015l0.295-2.158l-1.24-0.143l-0.291,2.124l-0.069-0.011
		c-0.195-0.027-0.395,0.049-0.514,0.207c-0.334,0.439-0.064,0.973,0.387,1.037l0.027,0.004l-0.361,2.638
		c-0.647-0.051-1.31-0.08-1.987-0.08c-3.327,0-5.804,0.456-6.649,0.636c-0.184,0.039-0.315,0.201-0.315,0.391v1.236
		c0,0.221,0.179,0.398,0.398,0.398h20.509c0.22,0,0.399-0.178,0.399-0.398v-0.176c0-0.216-0.172-0.394-0.387-0.399
		C19.817,22.118,16.26,21.229,12.042,20.711z"/>
	<path fill="#005AEB" d="M21.635,13.492c0.151-0.012,0.269-0.137,0.27-0.288c0.012-1.857-0.706-3.694-2.064-5.243
		c-1.263-1.441-2.96-2.468-4.769-2.91c0.991,1.599,1.666,3.564,1.975,5.769c0.179,1.275,0.198,2.356,0.185,3.029L21.635,13.492z"/>
</g>
</svg>
