<svg width="30" height="20" viewBox="0 0 30 20" fill="none" xmlns="http://www.w3.org/2000/svg">
<rect width="30" height="20" fill="#FF4B55"/>
<path d="M13.1529 10.7704C12.5009 10.7773 11.7687 10.5648 11.1271 9.84524C11.0829 9.79563 11.0891 9.71747 11.1394 9.67412L11.1396 9.67395C11.1883 9.63191 11.2604 9.63841 11.3035 9.68653C12.2814 10.7792 13.4934 10.5879 14.2176 10.3239C13.9501 10.336 13.6139 10.3155 13.3977 10.171C12.4945 9.56681 12.9036 8.92408 12.3037 8.14716C11.7076 7.37518 11.1713 7.39408 10.3267 7.52435C9.49056 7.65325 9.2242 7.02919 9.14129 6.68285C9.12646 6.62078 9.04138 6.61691 9.01959 6.67671C7.97744 9.54176 11.111 13.0869 14.3282 10.5379C14.0108 10.6568 13.6019 10.7658 13.1529 10.7704ZM10.8052 9.7982C10.7869 9.84935 10.7152 9.84733 10.6996 9.79522L10.5796 9.39283L10.1666 9.3781C10.1131 9.3762 10.0928 9.30614 10.1367 9.27502L10.4758 9.03456L10.3619 8.63027C10.3471 8.57798 10.4064 8.53666 10.449 8.56946L10.7786 8.82321L11.1212 8.58806C11.1656 8.55759 11.2225 8.60213 11.205 8.65358L11.0696 9.0509L11.3953 9.30984C11.4374 9.3434 11.4134 9.41221 11.3599 9.41113L10.9467 9.40291L10.8052 9.7982Z" fill="#F5F5F5"/>
<path d="M15.461 8.86691C15.9788 8.46357 16.6899 8.18681 17.6274 8.37104C17.692 8.38374 17.7331 8.45004 17.7185 8.51539L17.7184 8.51562C17.7042 8.57906 17.6426 8.61782 17.5798 8.60553C16.1533 8.32788 15.2961 9.22065 14.8723 9.8738C15.0792 9.70084 15.3603 9.51208 15.6185 9.49592C16.6974 9.42813 16.7487 10.1922 17.6868 10.4478C18.6187 10.7017 19.0368 10.3594 19.6359 9.73971C20.229 9.12627 20.81 9.46313 21.0805 9.68969C21.1289 9.7303 21.1992 9.68152 21.1814 9.62035C20.3268 6.69174 15.7297 5.76719 14.6577 9.77018C14.8415 9.48143 15.1045 9.14469 15.461 8.86691ZM17.9127 8.21233C17.8972 8.16022 17.9558 8.11801 17.999 8.1502L18.3321 8.39895L18.6713 8.15867C18.7152 8.12755 18.7727 8.17125 18.756 8.22294L18.6265 8.62229L18.9558 8.87628C18.9985 8.90919 18.9754 8.97841 18.922 8.97811L18.5087 8.97614L18.3731 9.3734C18.3556 9.42485 18.2838 9.4239 18.2675 9.37209L18.1416 8.97155L17.7284 8.96308C17.6749 8.96195 17.6536 8.89225 17.6971 8.86048L18.0326 8.61489L17.9127 8.21233Z" fill="#F5F5F5"/>
<path d="M13.7343 9.14302C13.48 8.53202 13.3945 7.76225 13.8043 6.88474C13.8326 6.82422 13.906 6.80031 13.9645 6.83114L13.9647 6.83125C14.0215 6.86113 14.0429 6.93148 14.0157 6.99027C13.3946 8.32627 14.0298 9.39409 14.5453 9.97498C14.4324 9.72779 14.3232 9.40375 14.3723 9.14523C14.5777 8.06542 15.3175 8.20583 15.7953 7.34561C16.2701 6.49093 16.0488 5.99345 15.6091 5.24824C15.1737 4.51049 15.6396 4.02236 15.9228 3.81262C15.9735 3.77505 15.9448 3.69355 15.8821 3.69582C12.8817 3.80534 10.8522 8.10304 14.3929 10.1605C14.1641 9.90707 13.9095 9.56377 13.7343 9.14302ZM13.7246 6.56391C13.6712 6.56618 13.6457 6.49785 13.6871 6.46345L14.0072 6.19742L13.8634 5.80314C13.8448 5.7521 13.9008 5.70632 13.9457 5.73577L14.2933 5.96328L14.6173 5.70232C14.6593 5.66852 14.7193 5.70852 14.7057 5.76123L14.6004 6.16785L14.9444 6.40079C14.989 6.43096 14.9702 6.50143 14.9168 6.50453L14.5042 6.52832L14.3928 6.93327C14.3784 6.98567 14.3067 6.98925 14.2873 6.93851L14.1375 6.54662L13.7246 6.56391Z" fill="#F5F5F5"/>
<path d="M16.072 10.5294C16.611 10.9029 17.0926 11.5029 17.2151 12.4665C17.2236 12.5329 17.1745 12.5934 17.109 12.5998H17.1086C17.045 12.606 16.9895 12.5587 16.9812 12.4942C16.7922 11.0289 15.6899 10.4812 14.9474 10.2769C15.1737 10.4225 15.4381 10.6348 15.5344 10.8791C15.9364 11.9 15.2398 12.1897 15.2958 13.1762C15.3516 14.1562 15.8024 14.4526 16.5687 14.8368C17.3273 15.2171 17.1956 15.8841 17.069 16.2166C17.0464 16.2762 17.1139 16.3287 17.1654 16.2923C19.6294 14.5468 19.0482 9.81556 14.9766 10.0371C15.3042 10.124 15.701 10.2723 16.072 10.5294ZM17.4529 12.6922C17.4967 12.6609 17.5544 12.7043 17.5379 12.756L17.4105 13.156L17.7412 13.4083C17.784 13.4409 17.7613 13.5102 17.7079 13.5103L17.2946 13.5105L17.1611 13.9085C17.1438 13.96 17.0719 13.9595 17.0554 13.9077L16.9274 13.5079L16.5142 13.5016C16.4607 13.5008 16.4391 13.4311 16.4823 13.3991L16.8165 13.1517L16.6947 12.7498C16.6789 12.6978 16.7372 12.6553 16.7805 12.6873L17.1151 12.9342L17.4529 12.6922Z" fill="#F5F5F5"/>
<path d="M14.7241 11.7184C14.5385 12.3545 14.1233 13.0039 13.2585 13.4158C13.1988 13.4443 13.1273 13.4152 13.1014 13.3536L13.1013 13.3533C13.0761 13.2935 13.1036 13.2254 13.1613 13.1977C14.4756 12.5686 14.653 11.3336 14.6183 10.5517C14.5508 10.8154 14.4326 11.1362 14.2331 11.3039C13.3998 12.0043 12.9165 11.4171 12.0101 11.7717C11.1096 12.1239 10.9693 12.6511 10.8428 13.5108C10.7177 14.3618 10.0531 14.437 9.70337 14.4156C9.64079 14.4118 9.61203 14.4933 9.66177 14.5321C12.0456 16.3893 16.298 14.3864 14.8516 10.5072C14.87 10.8508 14.8519 11.2804 14.7241 11.7184ZM13.1194 13.7149C13.1621 13.7478 13.1391 13.8169 13.0856 13.8168L12.6724 13.8149L12.5369 14.2122C12.5194 14.2637 12.4475 14.2627 12.4313 14.2109L12.3052 13.8104L11.892 13.802C11.8385 13.801 11.8171 13.7312 11.8606 13.6994L12.196 13.4537L12.0761 13.0513C12.0606 12.9992 12.1192 12.957 12.1623 12.9892L12.4956 13.2378L12.8347 12.9974C12.8786 12.9663 12.9362 13.01 12.9195 13.0617L12.7901 13.461L13.1194 13.7149Z" fill="#F5F5F5"/>
</svg>
