<svg xmlns="http://www.w3.org/2000/svg" width="14" height="14" fill="none"  xmlns:v="https://vecta.io/nano"><path d="M7 6.333c-.177 0-.346.07-.471.195s-.195.295-.195.471v2.667c0 .177.07.346.195.471s.295.195.471.195.346-.07.471-.195.195-.295.195-.471V7c0-.177-.07-.346-.195-.471S7.177 6.333 7 6.333zm.253-2.613c-.162-.067-.344-.067-.507 0-.082.032-.157.079-.22.14s-.106.139-.14.22a.56.56 0 0 0-.053.253c-.001.088.016.175.049.256s.082.155.144.217.139.106.22.14c.101.041.211.058.319.047s.213-.048.304-.109.165-.143.217-.239.079-.204.08-.313a.7.7 0 0 0-.193-.473c-.063-.061-.138-.108-.22-.14zM7 .333c-1.319 0-2.607.391-3.704 1.124S1.345 3.231.841 4.449.204 7.007.461 8.301s.892 2.481 1.825 3.413 2.12 1.567 3.413 1.825 2.634.125 3.852-.379 2.259-1.359 2.992-2.455S13.667 8.319 13.667 7c0-.875-.172-1.742-.507-2.551s-.826-1.544-1.445-2.163S10.36 1.176 9.551.841 7.875.333 7 .333zm0 12c-1.055 0-2.086-.313-2.963-.899s-1.561-1.419-1.964-2.394-.509-2.047-.304-3.081.714-1.985 1.46-2.731 1.696-1.254 2.731-1.46 2.107-.1 3.081.304 1.808 1.087 2.394 1.964.899 1.908.899 2.963c0 1.414-.562 2.771-1.562 3.771S8.414 12.333 7 12.333z" fill="#005aeb"/></svg>