<svg width="16" height="16" viewBox="0 0 16 16" fill="none" xmlns="http://www.w3.org/2000/svg">
<path d="M0.666667 5.6666H13.724L12.5287 6.86193C12.2683 7.12227 12.2683 7.54427 12.5287 7.80461C12.659 7.93494 12.8293 7.99994 13 7.99994C13.1707 7.99994 13.341 7.93494 13.4713 7.80461L15.8047 5.47126C16.065 5.21093 16.065 4.78893 15.8047 4.52859L13.4713 2.19525C13.211 1.93492 12.789 1.93492 12.5287 2.19525C12.2683 2.45558 12.2683 2.87759 12.5287 3.13792L13.724 4.33326H0.666667C0.298667 4.33326 0 4.63193 0 4.99993C0 5.36793 0.298667 5.6666 0.666667 5.6666Z" fill="#005AEB"/>
<path d="M15.3333 9.66663H2.27598L3.47131 8.4713C3.73165 8.21096 3.73165 7.78896 3.47131 7.52862C3.21131 7.26829 2.78865 7.26829 2.52865 7.52862L0.195311 9.86197C-0.0650224 10.1223 -0.0650224 10.5443 0.195311 10.8046L2.52865 13.138C2.65865 13.2683 2.82931 13.3333 2.99998 13.3333C3.17065 13.3333 3.34131 13.2683 3.47131 13.138C3.73165 12.8776 3.73165 12.4556 3.47131 12.1953L2.27598 11H15.3333C15.7013 11 16 10.7013 16 10.3333C16 9.9653 15.7013 9.66663 15.3333 9.66663Z" fill="#005AEB"/>
</svg>
