<svg width="32" height="32" viewBox="0 0 32 32" fill="none" xmlns="http://www.w3.org/2000/svg">
<g clip-path="url(#clip0)">
<path d="M28.8226 4.54007H25.7288V3.35833C25.7288 3.01277 25.4485 2.73267 25.1031 2.73267C24.7575 2.73267 24.4774 3.01277 24.4774 3.35833V4.54007H13.9096V3.35833C13.9096 3.01277 13.6295 2.73267 13.2839 2.73267C12.9385 2.73267 12.6584 3.01277 12.6584 3.35833V4.54007H9.35601C7.47536 4.54225 5.95139 6.06586 5.94922 7.94633V18.3739C5.94922 18.7195 6.22957 18.9996 6.57494 18.9996C6.92054 18.9996 7.20067 18.7195 7.20067 18.3739V14.2724H30.9778V28.1064C30.9765 29.296 30.0123 30.26 28.8226 30.2613H9.35601C8.16612 30.26 7.20197 29.296 7.20067 28.1064V24.4914C7.20067 24.146 6.92054 23.8657 6.57494 23.8657C6.22957 23.8657 5.94922 24.146 5.94922 24.4914V28.1064C5.95139 29.9869 7.47536 31.5105 9.35601 31.5127H28.8226C30.7033 31.5105 32.227 29.9869 32.2292 28.1064V7.94633C32.227 6.06586 30.7033 4.54225 28.8226 4.54007ZM7.20067 13.021V7.94633C7.20197 6.75676 8.16612 5.79271 9.35601 5.79141H12.6584V7.49008C11.716 7.7978 11.1373 8.74446 11.2928 9.7233C11.4487 10.7021 12.2928 11.4224 13.2839 11.4224C14.2752 11.4224 15.1193 10.7021 15.2753 9.7233C15.4308 8.74446 14.852 7.7978 13.9096 7.49008V5.79141H24.4774V7.49008C23.535 7.7978 22.9562 8.74446 23.1117 9.7233C23.2677 10.7021 24.1118 11.4224 25.1031 11.4224C26.0942 11.4224 26.9383 10.7021 27.0942 9.7233C27.25 8.74446 26.6712 7.7978 25.7288 7.49008V5.79141H28.8226C30.0123 5.79271 30.9765 6.75676 30.9778 7.94633V13.021H7.20067ZM13.2839 8.64159C13.7063 8.64159 14.0488 8.98389 14.0488 9.40622C14.0488 9.82855 13.7063 10.1709 13.2839 10.1709C12.8618 10.1709 12.5192 9.82855 12.5192 9.40622C12.5199 8.98433 12.862 8.64203 13.2839 8.64159ZM25.1031 8.64159C25.5252 8.64159 25.8678 8.98389 25.8678 9.40622C25.8678 9.82855 25.5252 10.1709 25.1031 10.1709C24.6807 10.1709 24.3382 9.82855 24.3382 9.40622C24.3388 8.98433 24.6809 8.64203 25.1031 8.64159Z" fill="#828282"/>
<path d="M2.13669 21.8051H14.4641C14.8098 21.8051 15.09 21.5249 15.09 21.1793C15.09 20.8338 14.8098 20.5534 14.4641 20.5534H2.13669L4.33669 18.3534C4.58121 18.1091 4.58121 17.7129 4.33669 17.4684C4.09218 17.2239 3.69625 17.2239 3.45173 17.4684L0.183388 20.7368C-0.0611292 20.9813 -0.0611292 21.3774 0.183388 21.6217L3.45173 24.8901C3.69625 25.1346 4.09218 25.1346 4.33669 24.8901C4.58121 24.6458 4.58121 24.2497 4.33669 24.0051L2.13669 21.8051Z" fill="#828282"/>
</g>
<defs>
<clipPath id="clip0">
<rect width="32" height="32" fill="white"/>
</clipPath>
</defs>
</svg>
