<svg xmlns="http://www.w3.org/2000/svg" width="48" height="48" fill="#005aeb" xmlns:v="https://vecta.io/nano"><path d="M46.144 26.925a3 3 0 0 0-4.079-1.097L28.5 33.733a3.76 3.76 0 0 0-1.105-2.64A3.75 3.75 0 0 0 24.75 30H9.76c-.061 0-.122.008-.181.022l-2.1.525a2.24 2.24 0 0 0-.717-1.455 2.25 2.25 0 0 0-1.511-.592h-1.5a2.25 2.25 0 0 0-2.25 2.25v13.5a2.25 2.25 0 0 0 2.25 2.25h1.5c.558-.002 1.096-.211 1.508-.588s.669-.893.721-1.449l2.093.515A.75.75 0 0 0 9.75 45h10.304a3.75 3.75 0 0 0 1.889-.51l23.113-13.468c.682-.404 1.179-1.06 1.382-1.826a3.02 3.02 0 0 0-.295-2.271zM6 44.25a.75.75 0 0 1-.75.75h-1.5a.75.75 0 0 1-.75-.75v-13.5a.75.75 0 0 1 .75-.75h1.5a.75.75 0 0 1 .75.75v13.5zm38.3-14.523L21.188 43.194a2.25 2.25 0 0 1-1.133.306H9.841L7.5 42.923V32.086l2.352-.586H24.75A2.25 2.25 0 0 1 27 33.75c0 .405-.111.802-.32 1.149a2.34 2.34 0 0 1-.334.44A2.26 2.26 0 0 1 24.75 36h-7.5v1.5h7.5a3.7 3.7 0 0 0 1.764-.434c.543-.289 1.004-.709 1.344-1.222l14.958-8.719a1.47 1.47 0 0 1 1.126-.149c.188.051.365.139.519.258a1.46 1.46 0 0 1 .379.438 1.52 1.52 0 0 1 .15 1.138c-.101.384-.349.714-.691.917zM10.5 26.25h27a2.25 2.25 0 1 0 0-4.5h-8.325c-.174-.846-.635-1.607-1.304-2.154a3.75 3.75 0 0 0-2.371-.846h-.75v-2.76l7.36-10.304a.75.75 0 0 0-.609-1.186H30V3h5.25V1.5h-6a.75.75 0 0 0-.75.75V4.5h-6.138a2.21 2.21 0 0 0 .138-.75 2.25 2.25 0 0 0-4.5 0c.003.256.049.51.138.75H16.5a.75.75 0 0 0-.609 1.186l7.36 10.304v2.76h-.75a3.76 3.76 0 0 0-2.371.846 3.75 3.75 0 0 0-1.304 2.154H10.5a2.25 2.25 0 1 0 0 4.5zM24 14.459l-3.625-5.074a3.48 3.48 0 0 0 1.622.365 3.69 3.69 0 0 0 2.453-.9c.423-.386.975-.599 1.547-.599a2.3 2.3 0 0 1 1.547.599l.306.221L24 14.459zM19.5 3.75a.75.75 0 0 1 1.28-.53.75.75 0 0 1-.53 1.28.75.75 0 0 1-.75-.75zM30.043 6l-1.318 1.846-.28-.2a3.78 3.78 0 0 0-2.447-.898c-.896 0-1.763.318-2.447.898a2.3 2.3 0 0 1-3.097.004c-.549-.466-1.22-.766-1.934-.863L17.957 6h12.085zM22.5 20.25h3a2.25 2.25 0 0 1 2.112 1.5h-7.224a2.25 2.25 0 0 1 2.112-1.5zm-12 3h27a.75.75 0 1 1 0 1.5h-27a.75.75 0 1 1 0-1.5z"/></svg>