<svg width="23" height="20" viewBox="0 0 23 20" fill="none" xmlns="http://www.w3.org/2000/svg">
<path d="M10.7387 1.88609C10.687 1.89041 10.5087 1.9077 10.3398 1.92716C7.38356 2.24923 4.58921 3.84011 2.16087 6.58309C1.457 7.37853 0.628787 8.51982 0.145466 9.35633L0 9.60923L0.136081 9.84267C0.743752 10.8889 1.61655 12.0474 2.59023 13.0958C2.95858 13.4935 3.89003 14.3516 4.31001 14.6802C6.31368 16.2538 8.32908 17.1011 10.5674 17.3129C11.0249 17.3561 11.9681 17.3561 12.442 17.3129C15.8159 17.006 18.9434 15.1038 21.5453 11.7794C21.9841 11.2196 22.5519 10.3874 22.8545 9.85996L23 9.60706L22.8639 9.37362C22.0803 8.02483 20.8954 6.54418 19.6965 5.41586C17.4606 3.31053 15.051 2.14547 12.4373 1.90338C12.1135 1.87528 11.0272 1.86231 10.7387 1.88609ZM12.1229 4.6831C13.0333 4.76957 13.9788 5.11757 14.7507 5.65363C15.783 6.3691 16.5197 7.44986 16.7778 8.62573C16.8552 8.98238 16.8787 9.2115 16.8787 9.60923C16.8787 10.409 16.6981 11.1223 16.318 11.8226C15.1847 13.9085 12.6344 14.9893 10.1873 14.4208C8.11792 13.9388 6.54596 12.3673 6.18933 10.4284C6.10017 9.94859 6.10017 9.26987 6.18933 8.78785C6.51076 7.03052 7.86922 5.53259 9.67112 4.94465C10.4993 4.67662 11.2267 4.59881 12.1229 4.6831Z" fill="#8A8A8A"/>
<path d="M11.0388 7.13207C10.464 7.23366 9.97831 7.46711 9.57711 7.83457C9.2721 8.11557 9.0539 8.43764 8.92251 8.80293C8.73481 9.3217 8.73481 9.89667 8.92251 10.4133C9.21344 11.213 9.93608 11.8269 10.8394 12.0431C11.1233 12.1101 11.5902 12.1338 11.8787 12.0949C12.9838 11.9458 13.8543 11.2282 14.1499 10.2209C14.2062 10.0264 14.2109 9.97448 14.2109 9.60918C14.2109 9.24605 14.2062 9.18985 14.1499 9.00179C13.8754 8.06801 13.1387 7.39794 12.1298 7.1645C11.8764 7.10613 11.2875 7.08884 11.0388 7.13207Z" fill="#8A8A8A"/>
<rect width="2.03169" height="24.5123" transform="matrix(0.696079 -0.717965 0.696079 0.717965 2.64844 1.45868)" fill="white"/>
<rect width="2.03169" height="24.2734" transform="matrix(0.696079 -0.717965 0.696079 0.717965 1.72461 2.57272)" fill="#8A8A8A"/>
</svg>
