<svg width="16" height="16" viewBox="0 0 16 16" fill="none" xmlns="http://www.w3.org/2000/svg">
<path d="M7.99992 1.33331C4.31802 1.33331 1.33325 4.31808 1.33325 7.99998C1.33325 11.6819 4.31802 14.6666 7.99992 14.6666C11.6818 14.6666 14.6666 11.6819 14.6666 7.99998C14.6627 4.31973 11.6802 1.33725 7.99992 1.33331ZM11.6699 5.9557L6.90801 10.7176C6.72204 10.9035 6.42062 10.9035 6.23468 10.7176L4.32991 8.81284C4.14073 8.63014 4.13549 8.32869 4.31819 8.13952C4.50089 7.95034 4.80234 7.9451 4.99152 8.1278C4.99548 8.13165 4.99938 8.13553 5.00323 8.13952L6.57135 9.70763L10.9966 5.28237C11.1858 5.09967 11.4872 5.10491 11.6699 5.29406C11.8482 5.4786 11.8482 5.77115 11.6699 5.9557Z" fill="#008009"/>
</svg>
