<svg width="24" height="24" viewBox="0 0 24 24" fill="none" xmlns="http://www.w3.org/2000/svg">
<path d="M2.49998 3.99994H21.5C22.8807 3.99994 24 5.11922 24 6.49992V17.4999C24 18.8806 22.8807 19.9999 21.5 19.9999H2.49998C1.11928 20 0 18.8807 0 17.4999V6.49997C0 5.11922 1.11928 3.99994 2.49998 3.99994Z" fill="#49CF8F"/>
<path d="M24 6.99994H0V10.9999H24V6.99994Z" fill="#4F4F4F"/>
<path d="M7.5 14.9999H3.50002C3.22388 14.9999 3 14.776 3 14.4999C3 14.2238 3.22388 13.9999 3.50002 13.9999H7.5C7.77614 13.9999 8.00002 14.2238 8.00002 14.4999C8.00002 14.776 7.77614 14.9999 7.5 14.9999Z" fill="#FAFAFA"/>
<path d="M10.5 17H3.50002C3.22388 17 3 16.7761 3 16.5C3 16.2238 3.22388 15.9999 3.50002 15.9999H10.5C10.7761 15.9999 11 16.2238 11 16.5C11 16.7761 10.7761 17 10.5 17Z" fill="#FAFAFA"/>
</svg>
