<svg width="21" height="22" viewBox="0 0 21 22" fill="none" xmlns="http://www.w3.org/2000/svg">
<path d="M15.1357 3.30294C15.8647 3.30294 16.5942 3.5815 17.1504 4.13728C17.1566 4.14345 17.1618 4.15094 17.1685 4.15711H20.4428L20.5754 0.711792L10.098 1.11552L0.830845 10.3831C-0.277193 11.4916 -0.277193 13.3048 0.830845 14.4129L6.87481 20.4568C7.98241 21.5653 9.79608 21.5649 10.9046 20.4568L20.1721 11.1888L20.2894 8.14631H17.1689C17.1618 8.15293 17.157 8.16042 17.1499 8.16703C16.5937 8.72325 15.8643 9.00136 15.1353 9.00136C14.4063 9.00136 13.6769 8.72281 13.1202 8.16703C12.0082 7.05458 12.0082 5.25017 13.1202 4.13728C13.6769 3.5815 14.4059 3.30294 15.1357 3.30294ZM11.0024 15.9268L10.5612 15.4856C10.4541 15.5562 10.3444 15.6214 10.2311 15.6738C9.94285 15.8087 9.63433 15.8814 9.32624 15.8814C8.81806 15.8845 8.32002 15.673 7.96081 15.3085L8.96748 14.3009C9.08692 14.4155 9.18873 14.4538 9.32624 14.4569C9.40955 14.4565 9.51048 14.438 9.62948 14.382C9.74848 14.3269 9.88599 14.2339 10.0297 14.0907C10.2157 13.9047 10.3585 13.7218 10.4435 13.5679C10.5308 13.4119 10.5568 13.2951 10.5564 13.2184C10.5559 13.1695 10.5489 13.1312 10.5268 13.0809C10.5044 13.0307 10.4638 12.9659 10.3832 12.8848C10.2959 12.7975 10.2289 12.7574 10.1778 12.7349C10.1258 12.7133 10.0857 12.7054 10.0284 12.705C9.9596 12.7045 9.86263 12.7217 9.7379 12.7675C9.61317 12.8125 9.46596 12.8857 9.30465 12.9769C8.98026 13.1576 8.61576 13.4102 8.19176 13.6089C7.90836 13.739 7.58618 13.8527 7.20801 13.8544C6.99557 13.8549 6.76771 13.8139 6.55395 13.7213C6.3393 13.6296 6.14185 13.4904 5.96996 13.3176C5.8082 13.1558 5.66804 12.9584 5.56491 12.7261C5.46222 12.4943 5.39743 12.2254 5.39743 11.9367C5.39698 11.656 5.45913 11.3585 5.59047 11.0707C5.64468 10.9508 5.71432 10.8327 5.79145 10.7172L5.36084 10.2861L6.36795 9.27903L6.81575 9.72727C6.90478 9.67042 6.99425 9.61753 7.08593 9.57213C7.40106 9.41522 7.73515 9.32708 8.07012 9.32708C8.32178 9.32663 8.57124 9.3782 8.79735 9.47561C9.02477 9.57345 9.22796 9.71625 9.39985 9.88771L8.39318 10.8953C8.33677 10.8393 8.28476 10.8058 8.23451 10.7837C8.18427 10.7626 8.13402 10.7516 8.06967 10.7511C7.98505 10.7516 7.87046 10.7727 7.71972 10.8477C7.56987 10.9221 7.3874 11.0504 7.18774 11.2501C7.02863 11.4096 6.93828 11.548 6.88715 11.66C6.83602 11.7728 6.82192 11.86 6.82148 11.9367C6.82148 12.0143 6.83823 12.0839 6.86644 12.1487C6.89508 12.2131 6.93651 12.2708 6.97662 12.3105C7.04053 12.374 7.08416 12.3986 7.11458 12.4119C7.14543 12.4246 7.16747 12.4291 7.20757 12.4299C7.25958 12.4304 7.34597 12.4158 7.46497 12.3704C7.58309 12.3259 7.72854 12.2523 7.88853 12.1606C8.2116 11.9773 8.58315 11.7221 9.02037 11.5229C9.31258 11.3924 9.64535 11.2813 10.0279 11.2805C10.2611 11.2796 10.5092 11.3259 10.7441 11.4281C10.979 11.5295 11.1968 11.6838 11.3907 11.8777C11.5767 12.0637 11.7274 12.2739 11.8292 12.5035C11.9315 12.7327 11.9817 12.9804 11.9813 13.2189C11.9809 13.6045 11.8588 13.9554 11.6882 14.2621C11.6481 14.3335 11.6049 14.4023 11.5595 14.4697L12.0091 14.9193L11.0024 15.9268Z" fill="#005AEB"/>
</svg>
