<svg width="16" height="14" viewBox="0 0 16 14" fill="none" xmlns="http://www.w3.org/2000/svg">
<path d="M14 6.99996L14.5304 7.53029L15.0607 6.99996L14.5304 6.46963L14 6.99996ZM8.13638 11.803C7.84348 12.0959 7.84348 12.5707 8.13638 12.8636C8.42927 13.1565 8.90414 13.1565 9.19704 12.8636L8.13638 11.803ZM9.19704 1.1363C8.90415 0.843403 8.42927 0.843403 8.13638 1.1363C7.84349 1.42919 7.84349 1.90406 8.13638 2.19696L9.19704 1.1363ZM1.33337 6.24996C0.91916 6.24996 0.583374 6.58575 0.583374 6.99996C0.583374 7.41417 0.91916 7.74996 1.33337 7.74996L1.33337 6.24996ZM13.4697 6.46963L8.13638 11.803L9.19704 12.8636L14.5304 7.53029L13.4697 6.46963ZM8.13638 2.19696L13.4697 7.53029L14.5304 6.46963L9.19704 1.1363L8.13638 2.19696ZM14 6.24996L1.33337 6.24996L1.33337 7.74996L14 7.74996V6.24996Z" fill="#2E2E2E"/>
</svg>
