<?xml version="1.0" encoding="utf-8"?>
<!-- Generator: Adobe Illustrator 16.0.0, SVG Export Plug-In . SVG Version: 6.00 Build 0)  -->
<!DOCTYPE svg PUBLIC "-//W3C//DTD SVG 1.1//EN" "http://www.w3.org/Graphics/SVG/1.1/DTD/svg11.dtd">
<svg version="1.1" id="Layer_1" xmlns="http://www.w3.org/2000/svg" xmlns:xlink="http://www.w3.org/1999/xlink" x="0px" y="0px"
	 width="25px" height="25px" viewBox="0 0 25 25" enable-background="new 0 0 25 25" xml:space="preserve">
<g>
	<path fill="#FFFFFF" d="M8.75,10c0,1.566,0.223,3.061,0.626,4.375h2.499V1.834C10.27,2.478,8.75,5.697,8.75,10z"/>
	<path fill="#FFFFFF" d="M19.189,14.375c0.809-1.149,1.436-2.523,1.436-4.375c0-3.423-2.131-6.524-5.133-7.72
		C16.717,3.974,17.5,6.867,17.5,10c0,1.544-0.205,3.033-0.574,4.375H19.189z"/>
	<path fill="#FFFFFF" d="M13.125,1.834v12.541h2.502c0.402-1.313,0.623-2.813,0.623-4.375C16.25,5.697,14.73,2.478,13.125,1.834z"/>
	<path fill="#FFFFFF" d="M6.805,15.625c0.167,0.191,0.334,0.378,0.499,0.562C8.415,17.428,9.375,18.498,9.375,20v1.291
		c0,1.035,0.841,1.875,1.875,1.875h2.5c1.034,0,1.875-0.84,1.875-1.875V20c0-1.502,0.96-2.572,2.072-3.813
		c0.164-0.184,0.331-0.37,0.498-0.562C17.969,15.625,6.679,15.625,6.805,15.625z M14.775,18.125c-0.167,0.387-0.27,0.809-0.332,1.25
		h-3.887c-0.063-0.441-0.165-0.863-0.332-1.25H14.775z"/>
	<path fill="#FFFFFF" d="M4.375,10c0,1.852,0.627,3.226,1.436,4.375h2.263C7.704,13.033,7.5,11.545,7.5,10
		c0-3.133,0.784-6.026,2.008-7.72C6.506,3.476,4.375,6.577,4.375,10z"/>
</g>
</svg>
