<svg width="5" height="8" viewBox="0 0 5 8" fill="none" xmlns="http://www.w3.org/2000/svg">
<path d="M4.86424 3.68784L1.07685 0.127804C0.989247 0.045398 0.872312 0 0.747627 0C0.622941 0 0.506006 0.045398 0.418408 0.127804L0.139492 0.389915C-0.0419999 0.560711 -0.0419999 0.838302 0.139492 1.00884L3.31986 3.99834L0.135964 6.99116C0.0483657 7.07357 0 7.18342 0 7.30056C0 7.41783 0.0483657 7.52768 0.135964 7.61015L0.414879 7.8722C0.502546 7.9546 0.619413 8 0.744098 8C0.868783 8 0.985719 7.9546 1.07332 7.8722L4.86424 4.30891C4.95205 4.22624 5.00028 4.11587 5 3.99854C5.00028 3.88075 4.95205 3.77044 4.86424 3.68784Z" fill="#404041"/>
</svg>
