<svg width="24" height="24" viewBox="0 0 24 24" fill="none" xmlns="http://www.w3.org/2000/svg">
<path d="M12 2C6.47715 2 2 6.47715 2 12C2 17.5228 6.47715 22 12 22C17.5228 22 22 17.5228 22 12C21.9941 6.47962 17.5204 2.0059 12 2ZM17.505 8.93358L10.3621 16.0765C10.0832 16.3553 9.63105 16.3553 9.35215 16.0765L6.49498 13.2193C6.21122 12.9452 6.20335 12.4931 6.47741 12.2093C6.75146 11.9255 7.20363 11.9177 7.4874 12.1917C7.49334 12.1975 7.4992 12.2033 7.50497 12.2093L9.85714 14.5615L16.495 7.92359C16.7788 7.64953 17.231 7.6574 17.505 7.94112C17.7724 8.21794 17.7724 8.65676 17.505 8.93358Z" fill="#2E2E2E"/>
</svg>
