<svg xmlns="http://www.w3.org/2000/svg" width="64" height="42" fill="none"  xmlns:v="https://vecta.io/nano"><g fill-rule="evenodd"><path d="M0 3a3 3 0 0 1 3-3h58a3 3 0 0 1 3 3v36a3 3 0 0 1-3 3H3a3 3 0 0 1-3-3V3z" fill="#f4f6f7"/><path d="M0 3a3 3 0 0 1 3-3h58a3 3 0 0 1 3 3v36a3 3 0 0 1-3 3H3a3 3 0 0 1-3-3V3z" fill="#e5e5e5" fill-opacity=".01"/><path d="M34.627 30.96c5.406.026 10.341-4.449 10.341-9.893 0-5.954-4.934-10.069-10.341-10.067h-4.653C24.503 10.998 20 15.115 20 21.067c0 5.445 4.503 9.92 9.974 9.894h4.653z" fill="url(#A)"/><path d="M29.993 11.832c-4.999.002-9.05 4.091-9.051 9.138s4.052 9.135 9.051 9.136 9.052-4.09 9.053-9.136-4.053-9.136-9.053-9.138zm-5.737 9.138a5.8 5.8 0 0 1 3.683-5.405v10.808c-2.152-.835-3.679-2.937-3.683-5.404zm7.791 5.406V15.564c2.153.834 3.682 2.938 3.686 5.405a5.8 5.8 0 0 1-3.686 5.406z" fill="#f4f6f7"/></g><defs><linearGradient id="A" x1="50.149" y1="27.141" x2="43.746" y2="6.215" gradientUnits="userSpaceOnUse"><stop stop-color="#009be0"/><stop offset="1" stop-color="#006ba8"/></linearGradient></defs></svg>