<svg width="12" height="12" viewBox="0 0 12 12" fill="none" xmlns="http://www.w3.org/2000/svg">
<path d="M11.6484 5.64844H11.102L11.3698 5.18452C11.4669 5.01638 11.4093 4.80134 11.2412 4.70429C11.073 4.60716 10.858 4.6648 10.7609 4.83296L10.2901 5.64844H6.84874L9.28216 3.21502L10.1917 3.45873C10.2222 3.46691 10.2528 3.47082 10.2829 3.47082C10.4381 3.47082 10.5802 3.36723 10.6223 3.21017C10.6725 3.02262 10.5613 2.82983 10.3737 2.77958L9.85627 2.64092L10.2095 2.28767C10.3468 2.1504 10.3468 1.92779 10.2095 1.79049C10.0722 1.65322 9.84963 1.65322 9.71234 1.79049L9.35906 2.14377L9.22041 1.62631C9.17013 1.43877 8.97743 1.32762 8.78981 1.37773C8.60227 1.42801 8.49098 1.62078 8.54126 1.80833L8.78496 2.71789L6.35156 5.15127V1.70989L7.16705 1.23908C7.33519 1.142 7.39282 0.927007 7.29572 0.758843C7.19862 0.590656 6.9836 0.53307 6.81548 0.630171L6.35156 0.898015V0.351593C6.35156 0.157437 6.19416 3.05176e-05 6 3.05176e-05C5.80584 3.05176e-05 5.64844 0.157437 5.64844 0.351593V2.50191C3.87436 2.67887 2.48438 4.18013 2.48438 6.00001C2.48438 7.81988 3.87436 9.32115 5.64844 9.4981V11.6484C5.64844 11.8426 5.80584 12 6 12C6.19416 12 6.35156 11.8426 6.35156 11.6484V11.102L6.81548 11.3699C6.87084 11.4018 6.93129 11.417 6.99094 11.417C7.11244 11.417 7.23061 11.354 7.29572 11.2412C7.39282 11.073 7.33519 10.858 7.16705 10.761L6.35156 10.2901V6.84875L8.78496 9.28215L8.54126 10.1917C8.49101 10.3793 8.60231 10.5721 8.78986 10.6223C8.82035 10.6305 8.85094 10.6344 8.88108 10.6344C9.03628 10.6344 9.17836 10.5308 9.22043 10.3737L9.35906 9.85627L9.71231 10.2095C9.78096 10.2782 9.87094 10.3125 9.96089 10.3125C10.0508 10.3125 10.1408 10.2782 10.2095 10.2095C10.3468 10.0722 10.3468 9.84964 10.2095 9.71234L9.8562 9.35907L10.3737 9.22041C10.5612 9.17014 10.6725 8.97737 10.6222 8.78982C10.572 8.60227 10.3793 8.49099 10.1917 8.54127L9.28209 8.78497L6.84874 6.35157H10.2901L10.7609 7.16705C10.826 7.27986 10.9442 7.34291 11.0657 7.34291C11.1254 7.34291 11.1858 7.32772 11.2412 7.29573C11.4093 7.19865 11.4669 6.98366 11.3698 6.81549L11.102 6.35157H11.6484C11.8426 6.35157 12 6.19416 12 6.00001C12 5.80585 11.8426 5.64844 11.6484 5.64844ZM3.1875 6.00001C3.1875 4.56823 4.26293 3.38298 5.64844 3.20944V8.79057C4.26293 8.61704 3.1875 7.43178 3.1875 6.00001Z" fill="#2E2E2E"/>
<path d="M1.82939 6C1.82939 5.80584 1.67198 5.64844 1.47783 5.64844H0.351562C0.157406 5.64844 0 5.80584 0 6C0 6.19416 0.157406 6.35156 0.351562 6.35156H1.47783C1.67198 6.35156 1.82939 6.19416 1.82939 6Z" fill="#2E2E2E"/>
<path d="M2.55365 3.05092C2.6223 3.11959 2.71227 3.1539 2.80223 3.1539C2.89218 3.1539 2.98218 3.11956 3.05081 3.05092C3.1881 2.91364 3.1881 2.69106 3.05081 2.55374L2.25445 1.75733C2.1172 1.62003 1.89459 1.62003 1.75727 1.75733C1.61997 1.8946 1.61997 2.11719 1.75727 2.25451L2.55365 3.05092Z" fill="#2E2E2E"/>
<path d="M2.55365 8.94908L1.75727 9.74546C1.61997 9.88273 1.61997 10.1053 1.75727 10.2426C1.82592 10.3113 1.91589 10.3456 2.00585 10.3456C2.0958 10.3456 2.1858 10.3113 2.25442 10.2426L3.05081 9.44626C3.1881 9.30899 3.1881 9.08638 3.05081 8.94908C2.91353 8.81181 2.69092 8.81181 2.55365 8.94908Z" fill="#2E2E2E"/>
<path d="M3.97933 1.93921C4.03462 2.07603 4.16634 2.1591 4.30537 2.1591C4.34924 2.1591 4.39384 2.15082 4.43702 2.13336C4.61701 2.06061 4.70397 1.85568 4.63117 1.67568L4.20906 0.631488C4.13631 0.451488 3.93136 0.364511 3.75138 0.437331C3.57138 0.510081 3.48443 0.715019 3.55723 0.895019L3.97933 1.93921Z" fill="#2E2E2E"/>
<path d="M2.13336 7.56306C2.06061 7.38306 1.85565 7.2961 1.67567 7.3689L0.631508 7.79101C0.451508 7.86376 0.364555 8.06869 0.437352 8.24869C0.492665 8.38552 0.62436 8.46858 0.763391 8.46858C0.807266 8.46858 0.851868 8.4603 0.89504 8.44284L1.9392 8.02074C2.1192 7.94799 2.20616 7.74308 2.13336 7.56306Z" fill="#2E2E2E"/>
<path d="M4.41842 9.85911C4.23871 9.78549 4.03344 9.87146 3.9598 10.0511L3.5327 11.0932C3.45906 11.2729 3.54503 11.4782 3.72468 11.5518C3.76832 11.5697 3.81346 11.5782 3.85787 11.5782C3.99629 11.5782 4.12757 11.4959 4.18332 11.3599L4.61042 10.3177C4.68404 10.1381 4.59809 9.93275 4.41842 9.85911Z" fill="#2E2E2E"/>
<path d="M0.640223 4.18338L1.68237 4.61046C1.72599 4.62834 1.77113 4.6368 1.81554 4.6368C1.95399 4.6368 2.08524 4.55449 2.141 4.41846C2.21464 4.23881 2.12867 4.03348 1.949 3.95986L0.906848 3.53278C0.727223 3.45917 0.521864 3.54511 0.448247 3.72478C0.374583 3.90443 0.460528 4.10977 0.640223 4.18338Z" fill="#2E2E2E"/>
</svg>
