<svg width="23" height="23" viewBox="0 0 23 23" fill="none" xmlns="http://www.w3.org/2000/svg">
<path d="M17.6334 11.1166H11.1166V17.6334C11.1166 18.4799 10.4298 19.1667 9.58333 19.1667C8.73683 19.1667 8.05008 18.4799 8.05008 17.6334V11.1166H1.53325C0.68675 11.1166 0 10.4298 0 9.58333C0 8.73683 0.68675 8.05008 1.53325 8.05008H8.05008V1.53325C8.05008 0.68675 8.73683 0 9.58333 0C10.4298 0 11.1166 0.68675 11.1166 1.53325V8.05008H17.6334C18.4799 8.05008 19.1667 8.73683 19.1667 9.58333C19.1667 10.4298 18.4799 11.1166 17.6334 11.1166Z" fill="#005AEB"/>
</svg>
