<svg width="18" height="17" viewBox="0 0 18 17" fill="none" xmlns="http://www.w3.org/2000/svg">
<path fill-rule="evenodd" clip-rule="evenodd" d="M2.75806 1.55178C2.30649 1.55178 2.02018 1.90404 2.0551 2.24853C2.74487 9.21371 8.28629 14.7551 15.2515 15.4449C15.596 15.4798 15.9482 15.1935 15.9482 14.7419V11.9805C15.9482 11.6469 15.7348 11.3505 15.4175 11.245L12.7329 10.3496C12.4544 10.2573 12.1471 10.3294 11.9392 10.5374L11.5093 10.9672C10.9957 11.4809 10.1764 11.5794 9.55642 11.155C8.08843 10.151 7.23418 9.30217 6.3225 7.93039C5.91051 7.30968 6.01835 6.5043 6.52346 5.99997L6.96262 5.56082C7.17055 5.35288 7.24271 5.04562 7.1496 4.76708L6.255 2.08249C6.14948 1.76515 5.85309 1.55178 5.51946 1.55178H2.75806ZM0.511075 2.40216C0.37607 1.04125 1.49568 0 2.75806 0H5.51946C6.52113 0 7.4103 0.640887 7.72687 1.59135L8.62225 4.27594C8.90079 5.11235 8.68354 6.03489 8.05973 6.65793L7.62755 7.0901C8.4112 8.26635 9.11571 8.97241 10.4177 9.86469L10.8421 9.44027C11.4651 8.81646 12.3876 8.59921 13.2241 8.87775L15.9086 9.77313C16.8591 10.0897 17.5 10.9789 17.5 11.9805V14.7419C17.5 16.0043 16.4588 17.1239 15.0978 16.9889C7.39711 16.2262 1.27378 10.1029 0.511075 2.40216ZM11.2929 0.775892C11.2929 0.3476 11.6405 0 12.0688 0C15.0684 0 17.5 2.43164 17.5 5.43124C17.5 5.85953 17.1524 6.20713 16.7241 6.20713C16.2958 6.20713 15.9482 5.85953 15.9482 5.43124C15.9482 3.28901 14.211 1.55178 12.0688 1.55178C11.6405 1.55178 11.2929 1.20418 11.2929 0.775892ZM11.2929 3.87946C11.2929 3.45117 11.6405 3.10357 12.0688 3.10357C13.3544 3.10357 14.3964 4.14559 14.3964 5.43124C14.3964 5.85953 14.0488 6.20713 13.6205 6.20713C13.1922 6.20713 12.8447 5.85953 12.8447 5.43124C12.8447 5.00295 12.4971 4.65535 12.0688 4.65535C11.6405 4.65535 11.2929 4.30775 11.2929 3.87946Z" fill="url(#paint0_linear)"/>
<defs>
<linearGradient id="paint0_linear" x1="9" y1="0" x2="9" y2="17" gradientUnits="userSpaceOnUse">
<stop stop-color="#23C0F5"/>
<stop offset="1" stop-color="#007ACE"/>
</linearGradient>
</defs>
</svg>
