<?xml version="1.0" encoding="utf-8"?>
<!-- Generator: Adobe Illustrator 16.0.0, SVG Export Plug-In . SVG Version: 6.00 Build 0)  -->
<!DOCTYPE svg PUBLIC "-//W3C//DTD SVG 1.1//EN" "http://www.w3.org/Graphics/SVG/1.1/DTD/svg11.dtd">
<svg version="1.1" id="Layer_1" xmlns="http://www.w3.org/2000/svg" xmlns:xlink="http://www.w3.org/1999/xlink" x="0px" y="0px"
	 width="48px" height="48px" viewBox="0 0 48 48" enable-background="new 0 0 48 48" xml:space="preserve">
<path fill="#4468B1" d="M7.2,0h33.6C44.776,0,48,3.224,48,7.2v33.6c0,3.977-3.224,7.2-7.2,7.2H7.2C3.224,48,0,44.776,0,40.8V7.2
	C0,3.224,3.224,0,7.2,0z"/>
<path fill="#FFFFFF" d="M26.18,40.8h-5.381c-0.898,0-1.63-0.731-1.63-1.63V27.033H16.03c-0.899,0-1.63-0.731-1.63-1.629v-5.201
	c0-0.899,0.731-1.629,1.63-1.629h3.139v-2.604c0-2.583,0.811-4.779,2.345-6.353C23.054,8.036,25.207,7.2,27.74,7.2l4.104,0.006
	c0.896,0.001,1.626,0.733,1.626,1.63v4.829c0,0.899-0.73,1.63-1.629,1.63l-2.763,0.001c-0.844,0-1.058,0.169-1.104,0.221
	c-0.074,0.086-0.165,0.329-0.165,0.999v2.058h3.824c0.288,0,0.567,0.071,0.806,0.205c0.519,0.289,0.84,0.835,0.84,1.425
	l-0.003,5.201c0,0.897-0.731,1.629-1.63,1.629H27.81V39.17C27.81,40.068,27.078,40.8,26.18,40.8z M21.139,38.83h4.701V26.151
	c0-0.6,0.487-1.087,1.088-1.087h4.379l0.002-4.521h-4.381c-0.601,0-1.088-0.488-1.088-1.088v-2.939c0-0.77,0.077-1.645,0.658-2.303
	c0.703-0.795,1.809-0.887,2.58-0.887l2.423-0.001V9.176L27.738,9.17c-4.07,0-6.6,2.605-6.6,6.799v3.486
	c0,0.6-0.488,1.088-1.088,1.088H16.37v4.521h3.681c0.6,0,1.088,0.487,1.088,1.087V38.83z M31.84,9.176L31.84,9.176L31.84,9.176z"/>
</svg>
