<svg xmlns="http://www.w3.org/2000/svg" width="16" height="16" fill="none" xmlns:v="https://vecta.io/nano"><path d="M10.86 9.527L8 12.393 5.14 9.527a.67.67 0 0 0-.947 0 .67.67 0 0 0 0 .947l3.333 3.333c.062.063.136.112.217.146s.168.051.256.051.175-.017.256-.051a.67.67 0 0 0 .217-.146l3.333-3.333a.67.67 0 0 0 .196-.473.67.67 0 0 0-.196-.473.67.67 0 0 0-.473-.196.67.67 0 0 0-.473.196zM5.14 6.473L8 3.607l2.86 2.867a.67.67 0 0 0 .217.146c.081.034.168.051.256.051s.175-.017.256-.051.155-.083.217-.146.112-.136.146-.217.051-.168.051-.256-.017-.175-.051-.256-.083-.155-.146-.217L8.473 2.193c-.062-.062-.136-.112-.217-.146S8.088 1.996 8 1.996s-.175.017-.256.051-.155.083-.217.146L4.193 5.527a.67.67 0 0 0 0 .947.67.67 0 0 0 .947 0z" fill="#005aeb"/></svg>