<svg width="24" height="24" viewBox="0 0 24 24" fill="none" xmlns="http://www.w3.org/2000/svg">
<path d="M12 0C5.37257 0 0 5.37257 0 12C0 18.6274 5.37257 24 12 24C18.6274 24 24 18.6274 24 12C23.9929 5.37554 18.6245 0.00708147 12 0ZM12 22.2857C6.31933 22.2857 1.71427 17.6806 1.71427 12C1.71427 6.31933 6.31933 1.71427 12 1.71427C17.6806 1.71427 22.2857 6.31933 22.2857 12C22.2796 17.6781 17.6781 22.2796 12 22.2857Z" fill="#219653"/>
<path d="M18.5849 7.10829C18.2527 6.78747 17.7261 6.78747 17.394 7.10829L9.42854 15.0737L6.60595 12.2511C6.27708 11.9106 5.73442 11.9012 5.39396 12.23C5.05345 12.5589 5.04406 13.1016 5.37292 13.442C5.3798 13.4492 5.38683 13.4562 5.39396 13.4631L8.82255 16.8917C9.15723 17.2263 9.69984 17.2263 10.0345 16.8917L18.606 8.32023C18.9348 7.97977 18.9254 7.43716 18.5849 7.10829Z" fill="#219653"/>
</svg>
