<svg xmlns="http://www.w3.org/2000/svg" width="48" height="48" fill="none" xmlns:v="https://vecta.io/nano"><path d="M45.75 21h-3.494a3.72 3.72 0 0 0 .919-1.257c.215-.479.325-.998.325-1.524V18h.75a2.25 2.25 0 0 0 2.25-2.25 2.25 2.25 0 0 0-2.25-2.25h-.75v-.75a3.75 3.75 0 0 0-2.231-3.422 4.5 4.5 0 0 0 1.181-4.955A4.5 4.5 0 0 0 38.25 1.49a4.5 4.5 0 0 0-4.199 2.883 4.5 4.5 0 0 0 1.181 4.955A3.75 3.75 0 0 0 33 12.75v.75h-.75A2.25 2.25 0 0 0 30 15.75 2.25 2.25 0 0 0 32.25 18h.138c-.089.24-.136.494-.138.75V21H27v-5.25a5.25 5.25 0 0 0-5.25-5.25 5.25 5.25 0 0 0-5.25 5.25v1.5a.75.75 0 0 0 .75.75h3a.75.75 0 0 0 .75-.75v-1.5a.75.75 0 0 1 .75-.75.75.75 0 0 1 .75.75V21H15v-5.25a5.25 5.25 0 0 0-5.25-5.25 5.25 5.25 0 0 0-5.25 5.25v1.5a.75.75 0 0 0 .75.75h3a.75.75 0 0 0 .75-.75v-1.5a.75.75 0 0 1 .75-.75.75.75 0 0 1 .75.75V21H2.25a.75.75 0 0 0-.75.75v24a.75.75 0 0 0 .75.75h43.5a.75.75 0 0 0 .75-.75v-24a.75.75 0 0 0-.75-.75zm-10.5 3.75a.75.75 0 0 1-.75.75.75.75 0 0 1-.75-.75V22.5h1.5v2.25zm1.5-2.25h1.5v2.25a.75.75 0 0 1-.75.75.75.75 0 0 1-.75-.75V22.5zm.75-7.5v1.5H36V15h1.5zm1.5 1.5V15h1.5v1.5H39zM37.5 18a.75.75 0 0 1 .75.75V21h-1.5v-2.25a.75.75 0 0 1 .75-.75zm4.5.219a2.24 2.24 0 0 1-1.414 2.089l-.836.334V18.75c-.002-.256-.049-.51-.138-.75H42v.219zm3-2.469a.75.75 0 0 1-.75.75H42V15h2.25a.75.75 0 0 1 .75.75zM38.25 9a3 3 0 0 1-2.894-2.25h5.787A3 3 0 0 1 38.25 9zm0-6a3 3 0 0 1 2.894 2.25h-5.787A3 3 0 0 1 38.25 3zm-3.75 9.75a2.25 2.25 0 0 1 2.25-2.25h3A2.25 2.25 0 0 1 42 12.75v.75h-7.5v-.75zm-3 3a.75.75 0 0 1 .75-.75h2.25v1.5h-2.25a.75.75 0 0 1-.75-.75zm2.25 3a.75.75 0 0 1 .75-.75.75.75 0 0 1 .75.75V21h-1.5v-2.25zm-1.5 3.75v2.25a2.24 2.24 0 0 0 1.331 2.058A2.24 2.24 0 0 0 36 26.415a2.24 2.24 0 0 0 2.419.393 2.24 2.24 0 0 0 1.331-2.058V22.5H45v5.757c-.129-.096-.252-.199-.368-.308-.27-.299-.599-.537-.967-.701S42.899 27 42.497 27s-.8.084-1.168.248-.697.402-.967.701a1.41 1.41 0 0 1-1.117.551 1.41 1.41 0 0 1-1.117-.551c-.27-.299-.599-.538-.966-.701S36.396 27 35.994 27s-.8.084-1.168.248-.697.402-.966.701a1.4 1.4 0 0 1-.493.405c-.193.096-.406.145-.621.145s-.428-.05-.622-.145a1.4 1.4 0 0 1-.493-.405 2.87 2.87 0 0 0-2.133-.949 2.87 2.87 0 0 0-1.167.248c-.367.164-.696.402-.966.701a4.17 4.17 0 0 1-.365.308V22.5h5.25zM45 29.905v8.1a4.17 4.17 0 0 1-.368-.308 2.88 2.88 0 0 0-.967-.701c-.368-.163-.766-.248-1.168-.248s-.8.084-1.168.248a2.88 2.88 0 0 0-.967.701c-.131.172-.301.31-.494.406s-.407.145-.623.145a1.41 1.41 0 0 1-.623-.145c-.194-.096-.363-.234-.494-.406-.27-.299-.599-.537-.966-.701a2.87 2.87 0 0 0-2.335 0c-.368.164-.697.402-.966.701a1.4 1.4 0 0 1-.493.406c-.193.096-.406.145-.621.145s-.428-.05-.622-.145-.362-.234-.493-.406a2.87 2.87 0 0 0-2.133-.949 2.87 2.87 0 0 0-2.133.949c-.116.109-.238.212-.365.308v-8.1c.526-.161 1.003-.455 1.383-.853.131-.171.3-.31.493-.406s.406-.145.622-.145.428.05.622.145.362.234.493.406a2.87 2.87 0 0 0 2.133.95 2.87 2.87 0 0 0 2.133-.95c.131-.171.3-.31.493-.406s.406-.145.622-.145.429.05.622.145.362.234.493.406c.27.299.599.537.967.701s.766.248 1.168.248.8-.084 1.168-.248.697-.402.967-.701a1.41 1.41 0 0 1 1.118-.551 1.41 1.41 0 0 1 1.118.551 3.22 3.22 0 0 0 1.385.853zM21.75 13.5a2.25 2.25 0 0 0-2.25 2.25v.75H18v-.75A3.75 3.75 0 0 1 21.75 12a3.75 3.75 0 0 1 3.75 3.75V39H24V15.75a2.25 2.25 0 0 0-2.25-2.25zM15 30h7.5v3H15v-3zm0-3h7.5v1.5H15V27zm0 7.5h7.5V36H15v-1.5zm7.5-12v3H15v-3h7.5zm-12.75-9a2.25 2.25 0 0 0-2.25 2.25v.75H6v-.75A3.75 3.75 0 0 1 9.75 12a3.75 3.75 0 0 1 3.75 3.75V39H12V15.75a2.25 2.25 0 0 0-2.25-2.25zm.75 24.431l-.22-.212c-.245-.303-.554-.547-.906-.715s-.736-.255-1.125-.255-.774.087-1.125.255a2.61 2.61 0 0 0-.906.715c-.368.368-.549.531-.968.531s-.6-.163-.968-.53c-.346-.393-.788-.689-1.282-.86V29.57l.218.21c.248.3.558.542.909.709a2.67 2.67 0 0 0 1.123.26c.388-.005.769-.095 1.119-.262s.659-.409.906-.707c.367-.368.548-.531.97-.531s.6.163.97.531c.347.392.789.689 1.284.86v7.291zm0-15.431v6.431l-.22-.212c-.245-.303-.554-.547-.906-.715s-.736-.255-1.125-.255-.774.087-1.125.255a2.61 2.61 0 0 0-.906.715c-.368.368-.549.531-.968.531s-.6-.163-.968-.53c-.346-.393-.788-.689-1.282-.86V22.5h7.5zM3 45v-6.43l.218.21c.248.3.558.542.909.709a2.67 2.67 0 0 0 1.123.26c.388-.005.769-.095 1.119-.262s.659-.409.906-.707c.367-.368.548-.531.97-.531s.6.163.97.531c.347.392.789.688 1.284.859v.109a.75.75 0 0 0 .75.75h3a.75.75 0 0 0 .75-.75V37.5h7.5v2.25a.75.75 0 0 0 .75.75h3a.75.75 0 0 0 .75-.75v-.096c.526-.161 1.003-.455 1.383-.853.131-.171.3-.31.493-.406s.406-.145.622-.145.428.05.622.145.362.234.493.406a2.87 2.87 0 0 0 2.133.95 2.87 2.87 0 0 0 2.133-.95c.131-.171.3-.31.493-.406s.406-.145.622-.145.429.05.622.145.362.234.493.406c.27.299.599.537.967.701s.766.248 1.168.248.8-.084 1.168-.248.697-.402.967-.701a1.41 1.41 0 0 1 1.118-.551 1.41 1.41 0 0 1 1.118.551 3.22 3.22 0 0 0 1.385.853V45H3z" fill="#005aeb"/></svg>