<svg width="16" height="16" viewBox="0 0 16 16" fill="none" xmlns="http://www.w3.org/2000/svg">
<g clip-path="url(#clip0)">
<path d="M8.15234 1C6.1169 1 4.46094 2.65596 4.46094 4.69141C4.46094 6.72685 6.1169 8.38281 8.15234 8.38281C10.1878 8.38281 11.8437 6.72685 11.8437 4.69141C11.8437 2.65596 10.1878 1 8.15234 1ZM8.15234 7.5625C6.56922 7.5625 5.28125 6.27453 5.28125 4.69141C5.28125 3.10828 6.56922 1.82031 8.15234 1.82031C9.73546 1.82031 11.0234 3.10828 11.0234 4.69141C11.0234 6.27453 9.73546 7.5625 8.15234 7.5625Z" fill="black"/>
<path d="M12.7452 10.7944C11.7345 9.76824 10.3948 9.20312 8.97266 9.20312H7.33203C5.90994 9.20312 4.57015 9.76824 3.55952 10.7944C2.55385 11.8155 2 13.1634 2 14.5898C2 14.8164 2.18364 15 2.41016 15H13.8945C14.121 15 14.3047 14.8164 14.3047 14.5898C14.3047 13.1634 13.7508 11.8155 12.7452 10.7944ZM2.83836 14.1797C3.04385 11.8531 4.98077 10.0234 7.33203 10.0234H8.97266C11.3239 10.0234 13.2608 11.8531 13.4663 14.1797H2.83836Z" fill="black"/>
</g>
<defs>
<clipPath id="clip0">
<rect width="16" height="16" fill="white"/>
</clipPath>
</defs>
</svg>
