<svg width="12" height="12" viewBox="0 0 12 12" fill="none" xmlns="http://www.w3.org/2000/svg">
<g clip-path="url(#clip0)">
<path d="M5.62381 1C2.78128 1 0.468628 3.46734 0.468628 6.50001C0.468628 9.53268 2.78128 12 5.62381 12C8.46634 12 10.779 9.53268 10.779 6.50001C10.779 3.46734 8.46632 1 5.62381 1ZM5.95914 9.7633C5.71422 9.80686 5.22688 9.91566 4.97941 9.93752C4.76993 9.95603 4.57225 9.8281 4.45175 9.64445C4.33093 9.46083 4.30198 9.22584 4.37371 9.01503L5.34817 6.15627H4.335C4.33414 5.56058 4.75294 5.12258 5.28858 4.95449C5.5442 4.87425 6.02044 4.76445 6.26819 4.78128C6.41662 4.79135 6.67535 4.8907 6.79585 5.07434C6.91667 5.25797 6.94562 5.49295 6.87389 5.70377L5.89943 8.56253H6.91228C6.91248 9.15752 6.5093 9.66548 5.95914 9.7633ZM6.26819 4.43751C5.91229 4.43751 5.62379 4.12967 5.62379 3.75001C5.62379 3.3703 5.91229 3.0625 6.26819 3.0625C6.62409 3.0625 6.9126 3.3703 6.9126 3.75001C6.9126 4.12969 6.62411 4.43751 6.26819 4.43751Z" fill="#005AEB"/>
</g>
<defs>
<clipPath id="clip0">
<rect width="10.3103" height="11" fill="white" transform="translate(0.468628 1)"/>
</clipPath>
</defs>
</svg>
