<svg width="12" height="12" viewBox="0 0 12 12" fill="none" xmlns="http://www.w3.org/2000/svg">
<g clip-path="url(#clip0)">
<path d="M12 7.38144C12 6.74878 11.4853 6.23406 10.8526 6.23406H1.41004V1.54463C1.41004 1.08087 1.78735 0.703582 2.25111 0.703582H3.02193C3.15214 0.703582 3.27635 0.759476 3.36273 0.856897L3.71527 1.2546C3.69418 1.35708 3.68307 1.46319 3.68307 1.57182V2.03296C3.54663 2.08126 3.44871 2.21107 3.44871 2.36405C3.44871 2.55819 3.60611 2.71558 3.80024 2.71558H6.70849C6.90263 2.71558 7.06002 2.55819 7.06002 2.36405C7.06002 2.21107 6.96211 2.08126 6.82567 2.03296V1.57182C6.82567 0.705386 6.1208 0.000518799 5.25437 0.000518799C4.76923 0.000518799 4.33483 0.221609 4.04636 0.568242L3.88883 0.390555C3.6691 0.142655 3.35314 0.000518799 3.02191 0.000518799H2.25111C1.39968 0.000518799 0.706977 0.6932 0.706977 1.54463V6.28093C0.706977 6.29455 0.707938 6.30791 0.709438 6.32113C0.293435 6.49357 0 6.9038 0 7.38144C0 7.85814 0.292287 8.26775 0.706977 8.44079V9.07613C0.706977 10.3344 1.73066 11.3581 2.98893 11.3581H3.18984V11.6479C3.18984 11.8421 3.34724 11.9995 3.54138 11.9995C3.73552 11.9995 3.89291 11.8421 3.89291 11.6479V11.3581H8.10707V11.6479C8.10707 11.8421 8.26446 11.9995 8.4586 11.9995C8.65274 11.9995 8.81013 11.8421 8.81013 11.6479V11.3581H9.01104C10.2693 11.3581 11.293 10.3344 11.293 9.07613V8.44079C11.7077 8.26775 12 7.85812 12 7.38144ZM5.25434 0.703559C5.73311 0.703559 6.12258 1.09306 6.12258 1.57179V2.0125H4.38611V1.57182C4.38611 1.09306 4.77558 0.703559 5.25434 0.703559ZM9.01107 10.655H2.98893C2.11833 10.655 1.41004 9.94673 1.41004 9.07613V8.52882H10.59V9.07613C10.59 9.94673 9.88167 10.655 9.01107 10.655ZM10.8526 7.82575H1.14738C0.902382 7.82575 0.703063 7.62643 0.703063 7.38144C0.703063 7.13645 0.902382 6.93713 1.14738 6.93713H10.8526C11.0976 6.93713 11.2969 7.13645 11.2969 7.38144C11.2969 7.62643 11.0976 7.82575 10.8526 7.82575Z" fill="#2E2E2E"/>
<path d="M6.9571 5.11364C6.92715 4.96934 6.81022 4.85685 6.66413 4.83464C6.51913 4.81261 6.37144 4.88734 6.30256 5.01661C6.23359 5.14603 6.25323 5.30954 6.35201 5.4183C6.45063 5.52685 6.6114 5.56327 6.7469 5.50689C6.89895 5.44363 6.99077 5.27591 6.9571 5.11364Z" fill="#2E2E2E"/>
<path d="M5.55083 5.11367C5.52088 4.96935 5.40399 4.85688 5.25787 4.83467C5.11292 4.81264 4.96518 4.8874 4.89631 5.01664C4.82734 5.14605 4.84698 5.30956 4.94576 5.41833C5.0444 5.52693 5.20509 5.56344 5.34064 5.50691C5.49267 5.44354 5.58456 5.27607 5.55083 5.11367Z" fill="#2E2E2E"/>
<path d="M4.14483 5.11364C4.11488 4.96937 3.99792 4.85683 3.85187 4.83464C3.70689 4.81261 3.55918 4.88734 3.4903 5.01661C3.42133 5.14602 3.44097 5.30953 3.53975 5.4183C3.63832 5.52683 3.79914 5.56327 3.93464 5.50688C4.08667 5.44366 4.17851 5.27586 4.14483 5.11364Z" fill="#2E2E2E"/>
<path d="M6.96224 3.7415C6.94705 3.59524 6.84065 3.47122 6.69786 3.43531C6.5558 3.39957 6.40129 3.45865 6.32013 3.58096C6.23916 3.70297 6.24228 3.86765 6.33007 3.98539C6.41793 4.10322 6.57375 4.15509 6.71452 4.11222C6.87267 4.06413 6.97902 3.90648 6.96224 3.7415Z" fill="#2E2E2E"/>
<path d="M5.5562 3.74149C5.54101 3.59523 5.43461 3.47124 5.29182 3.43531C5.14962 3.39955 4.99544 3.45877 4.91409 3.58096C4.83273 3.70318 4.83676 3.86732 4.92403 3.98536C5.01123 4.10331 5.16818 4.15517 5.30851 4.11247C5.46658 4.06438 5.57295 3.90622 5.5562 3.74149Z" fill="#2E2E2E"/>
<path d="M4.14993 3.7415C4.13476 3.59528 4.0283 3.47122 3.88555 3.43531C3.74349 3.39957 3.58898 3.45865 3.50782 3.58096C3.42662 3.70334 3.43037 3.86718 3.51776 3.98537C3.60496 4.10332 3.76191 4.15518 3.90224 4.11248C4.06029 4.06441 4.16666 3.90613 4.14993 3.7415Z" fill="#2E2E2E"/>
</g>
<defs>
<clipPath id="clip0">
<rect width="12" height="12" fill="white"/>
</clipPath>
</defs>
</svg>
