<svg xmlns="http://www.w3.org/2000/svg" width="12" height="13" fill="none"  xmlns:v="https://vecta.io/nano"><path d="M6 6a.5.5 0 0 0-.5.5v2A.5.5 0 0 0 6 9a.5.5 0 0 0 .5-.5v-2A.5.5 0 0 0 6 6zm.19-1.96a.5.5 0 0 0-.38 0 .5.5 0 0 0-.165.105c-.044.049-.08.104-.105.165a.42.42 0 0 0-.04.19.5.5 0 0 0 .145.355c.049.044.104.08.165.105a.5.5 0 0 0 .467-.046A.5.5 0 0 0 6.5 4.5c-.002-.132-.054-.259-.145-.355a.5.5 0 0 0-.165-.105zM6 1.5a5 5 0 0 0-4.619 3.087 5 5 0 0 0 1.084 5.449 5 5 0 0 0 5.449 1.084A5 5 0 0 0 11 6.5a5 5 0 0 0-1.464-3.536A5 5 0 0 0 6 1.5zm0 9a4 4 0 0 1-3.696-2.469 4 4 0 0 1 .867-4.359 4 4 0 0 1 4.359-.867A4 4 0 0 1 10 6.5a4 4 0 0 1-4 4z" fill="#828282"/></svg>