<svg width="12" height="12" viewBox="0 0 12 12" fill="none" xmlns="http://www.w3.org/2000/svg">
<g clip-path="url(#clip0)">
<path d="M7.11072 8.17733L7.03298 8.49488C6.79979 8.5875 6.61455 8.65696 6.47562 8.70492C6.3367 8.75289 6.17627 8.77769 5.99269 8.77769C5.71153 8.77769 5.49156 8.70823 5.33444 8.57096C5.17732 8.43369 5.09959 8.25837 5.09959 8.04668C5.09959 7.96398 5.10455 7.87963 5.11778 7.79529C5.12936 7.70928 5.14921 7.6117 5.17402 7.5042L5.4651 6.47383C5.49156 6.3746 5.51306 6.28198 5.53126 6.19267C5.54945 6.10501 5.55772 6.02397 5.55772 5.9512C5.55772 5.81889 5.53126 5.72793 5.47668 5.67666C5.4221 5.62539 5.31956 5.59892 5.16575 5.59892C5.09132 5.59892 5.01359 5.6105 4.9342 5.63366C4.85482 5.65681 4.78701 5.67997 4.73077 5.70147L4.80851 5.38392C4.9987 5.30619 5.18063 5.24003 5.35594 5.18545C5.5296 5.13088 5.69499 5.10276 5.85046 5.10276C6.12996 5.10276 6.34662 5.17057 6.49878 5.30619C6.65094 5.44181 6.72702 5.61712 6.72702 5.83378C6.72702 5.87843 6.72205 5.95782 6.71213 6.07028C6.70221 6.18275 6.68236 6.28694 6.65424 6.38121L6.36481 7.40662C6.34166 7.48932 6.32016 7.58359 6.30031 7.68944C6.28047 7.79529 6.2722 7.87467 6.2722 7.92925C6.2722 8.06487 6.30197 8.15914 6.36316 8.20876C6.42435 8.25837 6.5302 8.28318 6.68071 8.28318C6.75182 8.28318 6.83121 8.26995 6.92052 8.2468C7.00487 8.21868 7.07102 8.19718 7.11072 8.17733ZM7.18349 3.87061C7.18349 4.04923 7.11568 4.20139 6.98006 4.32709C6.84444 4.45278 6.68236 4.51563 6.49216 4.51563C6.30197 4.51563 6.13823 4.45278 6.00096 4.32709C5.86534 4.20139 5.79588 4.04923 5.79588 3.87061C5.79588 3.69199 5.86369 3.53984 6.00096 3.41249C6.13658 3.28514 6.30031 3.22229 6.49216 3.22229C6.68236 3.22229 6.84444 3.28514 6.98006 3.41249C7.11733 3.53984 7.18349 3.69199 7.18349 3.87061Z" fill="#008009"/>
<path d="M5.9992 11.2502C8.89929 11.2502 11.2503 8.89923 11.2503 5.99914C11.2503 3.09904 8.89929 0.748047 5.9992 0.748047C3.0991 0.748047 0.748108 3.09904 0.748108 5.99914C0.748108 8.89923 3.0991 11.2502 5.9992 11.2502Z" stroke="#008009" stroke-miterlimit="10" stroke-linecap="round" stroke-linejoin="round"/>
</g>
<defs>
<clipPath id="clip0">
<rect width="11" height="11" fill="white" transform="translate(0.5 0.5)"/>
</clipPath>
</defs>
</svg>
