<svg width="22" height="18" viewBox="0 0 22 18" fill="none" xmlns="http://www.w3.org/2000/svg">
<path d="M20 9L20.7071 9.70711L21.4142 9L20.7071 8.29289L20 9ZM11.2929 16.2929C10.9024 16.6834 10.9024 17.3166 11.2929 17.7071C11.6834 18.0976 12.3166 18.0976 12.7071 17.7071L11.2929 16.2929ZM12.7071 0.292893C12.3166 -0.097631 11.6834 -0.0976311 11.2929 0.292893C10.9024 0.683417 10.9024 1.31658 11.2929 1.70711L12.7071 0.292893ZM1 8C0.447715 8 2.7721e-08 8.44772 0 9C-2.7721e-08 9.55228 0.447715 10 1 10L1 8ZM19.2929 8.29289L11.2929 16.2929L12.7071 17.7071L20.7071 9.70711L19.2929 8.29289ZM11.2929 1.70711L19.2929 9.70711L20.7071 8.29289L12.7071 0.292893L11.2929 1.70711ZM20 8L1 8L1 10L20 10L20 8Z" fill="#2E2E2E"/>
</svg>
