<svg xmlns="http://www.w3.org/2000/svg" width="18" height="14" fill="#fff"  xmlns:v="https://vecta.io/nano"><path d="M.75 4.278h14.69l-1.345 1.395a.8.8 0 0 0 0 1.1c.147.152.338.228.53.228a.73.73 0 0 0 .53-.228L17.78 4.05a.8.8 0 0 0 0-1.1L15.155.228a.73.73 0 0 0-1.061 0 .8.8 0 0 0 0 1.1l1.345 1.395H.75c-.414 0-.75.348-.75.778s.336.778.75.778zm16.5 5.444H2.56l1.345-1.395a.8.8 0 0 0 0-1.1.73.73 0 0 0-1.06 0L.22 9.95a.8.8 0 0 0 0 1.1l2.625 2.722a.73.73 0 0 0 1.06 0 .8.8 0 0 0 0-1.1L2.56 11.278h14.69c.414 0 .75-.348.75-.778s-.336-.778-.75-.778z"/></svg>