<svg width="16" height="17" viewBox="0 0 16 17" fill="none" xmlns="http://www.w3.org/2000/svg">
<path d="M14 8.49999L14.7071 9.2071L15.4142 8.49999L14.7071 7.79288L14 8.49999ZM7.95954 13.1262C7.56902 13.5167 7.56902 14.1499 7.95954 14.5404C8.35006 14.931 8.98323 14.931 9.37375 14.5404L7.95954 13.1262ZM9.37375 2.45955C8.98323 2.06903 8.35007 2.06903 7.95954 2.45955C7.56902 2.85007 7.56902 3.48324 7.95954 3.87376L9.37375 2.45955ZM1.33331 7.49999C0.781028 7.49999 0.333313 7.9477 0.333313 8.49999C0.333313 9.05227 0.781028 9.49999 1.33331 9.49999L1.33331 7.49999ZM13.2929 7.79288L7.95954 13.1262L9.37375 14.5404L14.7071 9.2071L13.2929 7.79288ZM7.95954 3.87376L13.2929 9.2071L14.7071 7.79288L9.37375 2.45955L7.95954 3.87376ZM14 7.49999L1.33331 7.49999L1.33331 9.49999L14 9.49999V7.49999Z" fill="#005AEB"/>
</svg>
