<svg width="14" height="18" viewBox="0 0 14 18" fill="none" xmlns="http://www.w3.org/2000/svg">
<path fill-rule="evenodd" clip-rule="evenodd" d="M7.00002 1.51867C4.06443 1.51867 1.68468 3.89538 1.68468 6.834C1.68468 8.98291 2.6422 11.0711 3.82828 12.81C4.98019 14.5109 6.30143 15.8169 7.00002 16.4548C7.6986 15.8169 9.01984 14.5109 10.1718 12.81C11.3578 11.0711 12.3154 8.98291 12.3154 6.834C12.3154 3.89538 9.9356 1.51867 7.00002 1.51867ZM0.166016 6.834C0.166016 3.06011 3.22537 0 7.00002 0C10.7747 0 13.834 3.06011 13.834 6.834C13.834 9.41574 12.6943 11.8 11.4284 13.668C10.1558 15.536 8.70548 16.9559 7.97196 17.6241C7.41689 18.1253 6.58314 18.1253 6.02807 17.6241C5.29455 16.9559 3.84423 15.536 2.57158 13.668C1.30578 11.8 0.166016 9.41574 0.166016 6.834ZM7.00002 5.31533C6.16171 5.31533 5.48135 5.99873 5.48135 6.834C5.48135 7.66927 6.16171 8.35267 7.00002 8.35267C7.83832 8.35267 8.51868 7.66927 8.51868 6.834C8.51868 5.99873 7.83832 5.31533 7.00002 5.31533ZM3.96268 6.834C3.96268 5.15587 5.32265 3.79667 7.00002 3.79667C8.67738 3.79667 10.0374 5.15587 10.0374 6.834C10.0374 8.51213 8.67738 9.87134 7.00002 9.87134C5.32265 9.87134 3.96268 8.51213 3.96268 6.834Z" fill="url(#paint0_linear)"/>
<defs>
<linearGradient id="paint0_linear" x1="7.00002" y1="0" x2="7.00002" y2="18" gradientUnits="userSpaceOnUse">
<stop stop-color="#23C0F5"/>
<stop offset="1" stop-color="#007ACE"/>
</linearGradient>
</defs>
</svg>
