<svg width="19" height="16" viewBox="0 0 19 16" fill="none" xmlns="http://www.w3.org/2000/svg">
<path d="M1.5 8.00004L0.792893 7.29293L0.0857864 8.00004L0.792893 8.70715L1.5 8.00004ZM8.87377 2.04048C9.2643 1.64996 9.2643 1.01679 8.87377 0.626267C8.48325 0.235743 7.85009 0.235743 7.45956 0.626267L8.87377 2.04048ZM7.45956 15.3738C7.85008 15.7643 8.48325 15.7643 8.87377 15.3738C9.2643 14.9833 9.2643 14.3501 8.87377 13.9596L7.45956 15.3738ZM17.3333 9.00004C17.8856 9.00004 18.3333 8.55233 18.3333 8.00004C18.3333 7.44776 17.8856 7.00004 17.3333 7.00004L17.3333 9.00004ZM2.20711 8.70715L8.87377 2.04048L7.45956 0.626267L0.792893 7.29293L2.20711 8.70715ZM8.87377 13.9596L2.20711 7.29293L0.792893 8.70715L7.45956 15.3738L8.87377 13.9596ZM1.5 9.00004L17.3333 9.00004L17.3333 7.00004L1.5 7.00004L1.5 9.00004Z" fill="#005AEB"/>
</svg>
