<?xml version="1.0" encoding="utf-8"?>
<!-- Generator: Adobe Illustrator 16.0.0, SVG Export Plug-In . SVG Version: 6.00 Build 0)  -->
<!DOCTYPE svg PUBLIC "-//W3C//DTD SVG 1.1//EN" "http://www.w3.org/Graphics/SVG/1.1/DTD/svg11.dtd">
<svg version="1.1" id="Layer_1" xmlns="http://www.w3.org/2000/svg" xmlns:xlink="http://www.w3.org/1999/xlink" x="0px" y="0px"
	 width="76.242px" height="14.473px" viewBox="0 1.527 76.242 14.473" enable-background="new 0 1.527 76.242 14.473"
	 xml:space="preserve">
<path fill="#F2C94C" d="M7.608,1.527l1.796,5.528h5.813l-4.702,3.417L12.311,16l-4.702-3.417L2.906,16l1.796-5.528L0,7.055h5.813
	L7.608,1.527z"/>
<path fill="#F2C94C" d="M22.983,1.527l1.796,5.528h5.813l-4.702,3.417L27.686,16l-4.702-3.417L18.281,16l1.796-5.528l-4.702-3.417
	h5.813L22.983,1.527z"/>
<path fill="#F2C94C" d="M38.2,1.527l1.796,5.528h5.813l-4.702,3.417L42.902,16L38.2,12.583L33.498,16l1.796-5.528l-4.702-3.417
	h5.813L38.2,1.527z"/>
<path fill="#F2C94C" d="M53.417,1.527l1.796,5.528h5.813l-4.702,3.417L58.119,16l-4.702-3.417L48.715,16l1.796-5.528l-4.702-3.417
	h5.813L53.417,1.527z"/>
<path fill="#F2C94C" d="M68.634,1.527l1.796,5.528h5.813l-4.702,3.417L73.336,16l-4.702-3.417L63.932,16l1.796-5.528l-4.702-3.417
	h5.813L68.634,1.527z"/>
</svg>
