<svg width="14" height="18" viewBox="0 0 14 18" fill="none" xmlns="http://www.w3.org/2000/svg">
<path fill-rule="evenodd" clip-rule="evenodd" d="M7.00002 1.51879C4.06443 1.51879 1.68468 3.8955 1.68468 6.83412C1.68468 8.98304 2.6422 11.0712 3.82828 12.8101C4.98019 14.511 6.30143 15.817 7.00002 16.4549C7.6986 15.817 9.01984 14.511 10.1718 12.8101C11.3578 11.0712 12.3154 8.98304 12.3154 6.83412C12.3154 3.8955 9.9356 1.51879 7.00002 1.51879ZM0.166016 6.83412C0.166016 3.06024 3.22537 0.00012207 7.00002 0.00012207C10.7747 0.00012207 13.834 3.06024 13.834 6.83412C13.834 9.41586 12.6943 11.8002 11.4284 13.6681C10.1558 15.5361 8.70548 16.956 7.97196 17.6243C7.41689 18.1254 6.58314 18.1254 6.02807 17.6243C5.29455 16.956 3.84423 15.5361 2.57158 13.6681C1.30578 11.8002 0.166016 9.41586 0.166016 6.83412ZM7.00002 5.31546C6.16171 5.31546 5.48135 5.99886 5.48135 6.83412C5.48135 7.66939 6.16171 8.35279 7.00002 8.35279C7.83832 8.35279 8.51868 7.66939 8.51868 6.83412C8.51868 5.99886 7.83832 5.31546 7.00002 5.31546ZM3.96268 6.83412C3.96268 5.156 5.32265 3.79679 7.00002 3.79679C8.67738 3.79679 10.0374 5.156 10.0374 6.83412C10.0374 8.51225 8.67738 9.87146 7.00002 9.87146C5.32265 9.87146 3.96268 8.51225 3.96268 6.83412Z" fill="url(#paint0_linear)"/>
<defs>
<linearGradient id="paint0_linear" x1="7.00002" y1="0.00012207" x2="7.00002" y2="18.0001" gradientUnits="userSpaceOnUse">
<stop stop-color="#23C0F5"/>
<stop offset="1" stop-color="#007ACE"/>
</linearGradient>
</defs>
</svg>
