<svg xmlns="http://www.w3.org/2000/svg" width="16" height="16" fill="none"  xmlns:v="https://vecta.io/nano"><g clip-path="url(#A)" fill="#008009"><path d="M4.555 11.623l-.541-1.679-1.171 5.233 2.241-1.418L6.502 16l.894-4.001-.881-.797-1.959.421zm6.89 0l-1.959-.421-.882.797L9.498 16l1.417-2.241 2.241 1.418-1.171-5.232-.541 1.678zM3.472 6.869l-.344 1.6 1.557.502.502 1.557 1.6-.344L8 11.281l1.213-1.097 1.6.344.502-1.557 1.557-.502-.344-1.6 1.097-1.213-1.097-1.213.344-1.6-1.557-.502-.502-1.557-1.599.344L8 0 6.787 1.129 5.188.785l-.502 1.557-1.557.502.344 1.6-1.097 1.213L3.473 6.87zm4.997-.744h-.937a1.41 1.41 0 0 1-1.406-1.406 1.41 1.41 0 0 1 1.406-1.406v-.937h.938v.938A1.41 1.41 0 0 1 9.876 4.72h-.937a.47.47 0 0 0-.469-.469h-.937a.47.47 0 0 0-.469.469.47.47 0 0 0 .469.469h.938a1.41 1.41 0 0 1 1.406 1.406A1.41 1.41 0 0 1 8.469 8v.938h-.937V8a1.41 1.41 0 0 1-1.406-1.406h.938a.47.47 0 0 0 .469.469h.938a.47.47 0 0 0 .469-.469.47.47 0 0 0-.469-.469z"/></g><defs><clipPath id="A"><path fill="#fff" d="M0 0h16v16H0z"/></clipPath></defs></svg>