<svg xmlns="http://www.w3.org/2000/svg" width="24" height="24" fill="none"  xmlns:v="https://vecta.io/nano"><path d="M12.19 7.542h0l.009.004a.5.5 0 0 1 .157.097.55.55 0 0 1 .144.359.5.5 0 0 1-.223.409.5.5 0 0 1-.466.047.65.65 0 0 1-.175-.109.5.5 0 0 1-.136-.346v-.008-.008c-.001-.053.01-.106.032-.154l.005-.01.004-.01a.65.65 0 0 1 .107-.173.5.5 0 0 1 .153-.094h0l.009-.004a.5.5 0 0 1 .38 0zm-.543 4.104a.5.5 0 0 1 .707 0A.5.5 0 0 1 12.5 12v4a.5.5 0 0 1-.5.5.5.5 0 0 1-.5-.5v-4a.5.5 0 0 1 .146-.354zM6.722 4.101a9.5 9.5 0 0 1 8.913-.878 9.5 9.5 0 0 1 5.141 5.141 9.5 9.5 0 0 1-.878 8.913 9.5 9.5 0 0 1-9.752 4.04 9.5 9.5 0 0 1-7.464-7.464 9.5 9.5 0 0 1 4.04-9.752zm.556 14.966A8.5 8.5 0 0 0 18.01 18.01a8.5 8.5 0 0 0 1.057-10.733 8.5 8.5 0 0 0-8.726-3.614 8.5 8.5 0 0 0-6.678 6.678 8.5 8.5 0 0 0 3.614 8.726z" stroke="#008009"/></svg>