<svg width="16" height="16" viewBox="0 0 16 16" fill="none" xmlns="http://www.w3.org/2000/svg">
<path d="M10.86 9.52667L8.00004 12.3933L5.14004 9.52667C5.01451 9.40114 4.84424 9.33061 4.66671 9.33061C4.48917 9.33061 4.31891 9.40114 4.19338 9.52667C4.06784 9.65221 3.99731 9.82247 3.99731 10C3.99731 10.1775 4.06784 10.3478 4.19338 10.4733L7.52671 13.8067C7.58868 13.8692 7.66242 13.9188 7.74366 13.9526C7.8249 13.9864 7.91203 14.0039 8.00004 14.0039C8.08805 14.0039 8.17519 13.9864 8.25643 13.9526C8.33767 13.9188 8.4114 13.8692 8.47338 13.8067L11.8067 10.4733C11.8689 10.4112 11.9182 10.3374 11.9518 10.2562C11.9855 10.175 12.0028 10.0879 12.0028 10C12.0028 9.9121 11.9855 9.82505 11.9518 9.74384C11.9182 9.66262 11.8689 9.58883 11.8067 9.52667C11.7445 9.46451 11.6708 9.41521 11.5895 9.38156C11.5083 9.34792 11.4213 9.33061 11.3334 9.33061C11.2455 9.33061 11.1584 9.34792 11.0772 9.38156C10.996 9.41521 10.9222 9.46451 10.86 9.52667ZM5.14004 6.47334L8.00004 3.60667L10.86 6.47334C10.922 6.53582 10.9958 6.58542 11.077 6.61927C11.1582 6.65311 11.2454 6.67054 11.3334 6.67054C11.4214 6.67054 11.5085 6.65311 11.5898 6.61927C11.671 6.58542 11.7447 6.53582 11.8067 6.47334C11.8692 6.41136 11.9188 6.33763 11.9526 6.25639C11.9865 6.17515 12.0039 6.08801 12.0039 6C12.0039 5.912 11.9865 5.82486 11.9526 5.74362C11.9188 5.66238 11.8692 5.58865 11.8067 5.52667L8.47338 2.19334C8.4114 2.13085 8.33767 2.08126 8.25643 2.04741C8.17519 2.01357 8.08805 1.99614 8.00004 1.99614C7.91203 1.99614 7.8249 2.01357 7.74366 2.04741C7.66242 2.08126 7.58868 2.13085 7.52671 2.19334L4.19338 5.52667C4.06784 5.65221 3.99731 5.82247 3.99731 6C3.99731 6.17754 4.06784 6.3478 4.19338 6.47334C4.31891 6.59887 4.48917 6.6694 4.66671 6.6694C4.84424 6.6694 5.01451 6.59887 5.14004 6.47334Z" fill="#4F4F4F"/>
</svg>
