<svg width="17" height="16" viewBox="0 0 17 16" fill="none" xmlns="http://www.w3.org/2000/svg">
<path d="M11.36 9.52663L8.50003 12.3933L5.64003 9.52663C5.51449 9.40109 5.34423 9.33056 5.16669 9.33056C4.98916 9.33056 4.8189 9.40109 4.69336 9.52663C4.56782 9.65216 4.4973 9.82242 4.4973 9.99996C4.4973 10.1775 4.56782 10.3478 4.69336 10.4733L8.02669 13.8066C8.08867 13.8691 8.1624 13.9187 8.24364 13.9526C8.32488 13.9864 8.41202 14.0038 8.50003 14.0038C8.58804 14.0038 8.67517 13.9864 8.75641 13.9526C8.83765 13.9187 8.91139 13.8691 8.97336 13.8066L12.3067 10.4733C12.3689 10.4111 12.4182 10.3373 12.4518 10.2561C12.4854 10.1749 12.5028 10.0879 12.5028 9.99996C12.5028 9.91205 12.4854 9.82501 12.4518 9.74379C12.4182 9.66258 12.3689 9.58878 12.3067 9.52663C12.2445 9.46447 12.1707 9.41516 12.0895 9.38152C12.0083 9.34788 11.9213 9.33056 11.8334 9.33056C11.7455 9.33056 11.6584 9.34788 11.5772 9.38152C11.496 9.41516 11.4222 9.46447 11.36 9.52663ZM5.64003 6.47329L8.50003 3.60663L11.36 6.47329C11.422 6.53578 11.4957 6.58537 11.577 6.61922C11.6582 6.65307 11.7454 6.67049 11.8334 6.67049C11.9214 6.67049 12.0085 6.65307 12.0897 6.61922C12.171 6.58537 12.2447 6.53578 12.3067 6.47329C12.3692 6.41132 12.4188 6.33758 12.4526 6.25634C12.4865 6.1751 12.5039 6.08797 12.5039 5.99996C12.5039 5.91195 12.4865 5.82481 12.4526 5.74357C12.4188 5.66234 12.3692 5.5886 12.3067 5.52663L8.97336 2.19329C8.91139 2.13081 8.83765 2.08121 8.75641 2.04737C8.67517 2.01352 8.58804 1.99609 8.50003 1.99609C8.41202 1.99609 8.32488 2.01352 8.24364 2.04737C8.1624 2.08121 8.08867 2.13081 8.02669 2.19329L4.69336 5.52663C4.56782 5.65216 4.4973 5.82242 4.4973 5.99996C4.4973 6.17749 4.56782 6.34776 4.69336 6.47329C4.8189 6.59883 4.98916 6.66935 5.16669 6.66935C5.34423 6.66935 5.51449 6.59883 5.64003 6.47329Z" fill="#005AEB"/>
</svg>
