<svg xmlns="http://www.w3.org/2000/svg" width="12" height="12" fill="none"  xmlns:v="https://vecta.io/nano"><g clip-path="url(#A)"><path d="M7.111 8.177l-.078.318-.557.21c-.139.048-.299.073-.483.073-.281 0-.501-.069-.658-.207s-.235-.313-.235-.524a1.62 1.62 0 0 1 .018-.251 3.28 3.28 0 0 1 .056-.291l.291-1.03.066-.281c.018-.088.026-.169.026-.241 0-.132-.026-.223-.081-.275s-.157-.078-.311-.078a.83.83 0 0 0-.232.035l-.203.068.078-.318.547-.198c.174-.055.339-.083.495-.083.28 0 .496.068.648.203s.228.311.228.528c0 .045-.005.124-.015.237s-.03.217-.058.311l-.289 1.025-.064.283c-.02.106-.028.185-.028.24 0 .136.03.23.091.28s.167.074.318.074c.071 0 .151-.013.24-.036l.19-.069zm.073-4.307a.6.6 0 0 1-.203.456.69.69 0 0 1-.488.189.7.7 0 0 1-.491-.189.6.6 0 0 1-.205-.456.6.6 0 0 1 .205-.458.69.69 0 0 1 .491-.19c.19 0 .352.063.488.19a.6.6 0 0 1 .203.458z" fill="#2e2e2e"/><path d="M5.999 11.25a5.25 5.25 0 1 0 0-10.502 5.25 5.25 0 1 0 0 10.502z" stroke="#2e2e2e" stroke-miterlimit="10" stroke-linejoin="round"/></g><defs><clipPath id="A"><path fill="#fff" transform="translate(.5 .5)" d="M0 0h11v11H0z"/></clipPath></defs></svg>