<svg xmlns="http://www.w3.org/2000/svg" width="20" height="21" fill="none"  xmlns:v="https://vecta.io/nano"><g clip-path="url(#A)" fill="#005AEB"><path d="M13.588 2.011h-3.001V.5H9.415v1.511H6.414v1.672h7.174V2.011zm1.751 17.317V4.855H4.663v14.473H2.004V20.5h15.993v-1.172h-2.659zM9.344 6.325h1.313v1.172H9.344V6.325zm0 2.641h1.313v1.172H9.344V8.966zm0 2.641h1.313v1.172H9.344v-1.172zM6.047 6.325H7.36v1.172H6.047V6.325zm0 2.641H7.36v1.172H6.047V8.966zm0 2.641H7.36v1.172H6.047v-1.172zm7.837 7.72h-1.172v-3.769h-2.125v3.769H9.415v-3.769H7.29v3.769H6.118v-4.941h7.766v4.941zm.071-6.549h-1.313v-1.172h1.313v1.172zm0-2.641h-1.313V8.966h1.313v1.172zm0-2.641h-1.313V6.325h1.313v1.172z"/></g><defs><clipPath id="A"><path fill="#fff" transform="translate(0 .5)" d="M0 0h20v20H0z"/></clipPath></defs></svg>