<svg width="41" height="12" viewBox="0 0 41 12" fill="none" xmlns="http://www.w3.org/2000/svg">
<path d="M8.15183 0.906539H6.35115V0H5.64803V0.906539H3.84735V1.91002H8.15183V0.906539Z" fill="#008009"/>
<path d="M9.20247 11.2969V2.61316H2.79715V11.2969H1.20187V12H10.7977V11.2969H9.20247ZM5.6058 3.4949H6.39382V4.19803H5.6058V3.4949ZM5.6058 5.07975H6.39382V5.78287H5.6058V5.07975ZM5.6058 6.66461H6.39382V7.36774H5.6058V6.66461ZM3.62761 3.4949H4.41562V4.19803H3.62761V3.4949ZM3.62761 5.07975H4.41562V5.78287H3.62761V5.07975ZM3.62761 6.66461H4.41562V7.36774H3.62761V6.66461ZM8.32959 11.2969H7.62647V9.03553H6.35137V11.2969H5.64825V9.03553H4.37315V11.2969H3.67003V8.3324H8.32959V11.2969ZM8.37204 7.36774H7.58402V6.66461H8.37204V7.36774ZM8.37204 5.78287H7.58402V5.07975H8.37204V5.78287ZM8.37204 4.19803H7.58402V3.4949H8.37204V4.19803Z" fill="#008009"/>
<path d="M21.0195 5.30664H23.2461V6.60742H21.0195V9.14453H19.6367V6.60742H17.3984V5.30664H19.6367V2.93359H21.0195V5.30664Z" fill="#008009"/>
<g clip-path="url(#clip0)">
<path d="M36.7677 10.6673L37.4748 9.96015L36.4142 5.36396L38.3587 3.41942C38.6522 3.12597 38.6522 2.65221 38.3587 2.35876C38.0653 2.06531 37.5915 2.06531 37.2981 2.35876L35.3535 4.3033L30.7573 3.24264L30.0502 3.94975L33.7625 5.89429L31.818 7.83883L30.5806 7.66206L30.0502 8.19239L31.6412 9.07627L32.5251 10.6673L33.0554 10.1369L32.8786 8.89949L34.8232 6.95495L36.7677 10.6673Z" fill="#008009"/>
</g>
<defs>
<clipPath id="clip0">
<rect width="12" height="12" fill="white" transform="translate(29)"/>
</clipPath>
</defs>
</svg>
