<svg width="88" height="16" viewBox="0 0 88 16" fill="none" xmlns="http://www.w3.org/2000/svg">
<path d="M8.00002 0.666656C3.95202 0.666656 0.666687 3.95199 0.666687 7.99999C0.666687 12.048 3.95202 15.3333 8.00002 15.3333C12.048 15.3333 15.3334 12.048 15.3334 7.99999C15.3334 3.95199 12.048 0.666656 8.00002 0.666656ZM8.00002 13.8667C4.75869 13.8667 2.13335 11.2413 2.13335 7.99999C2.13335 4.75866 4.75869 2.13332 8.00002 2.13332C11.2414 2.13332 13.8667 4.75866 13.8667 7.99999C13.8667 11.2413 11.2414 13.8667 8.00002 13.8667Z" fill="#078171"/>
<path d="M26 0.666656C21.952 0.666656 18.6667 3.95199 18.6667 7.99999C18.6667 12.048 21.952 15.3333 26 15.3333C30.048 15.3333 33.3334 12.048 33.3334 7.99999C33.3334 3.95199 30.048 0.666656 26 0.666656ZM26 13.8667C22.7587 13.8667 20.1334 11.2413 20.1334 7.99999C20.1334 4.75866 22.7587 2.13332 26 2.13332C29.2414 2.13332 31.8667 4.75866 31.8667 7.99999C31.8667 11.2413 29.2414 13.8667 26 13.8667Z" fill="#078171"/>
<path d="M44 0.666656C39.952 0.666656 36.6667 3.95199 36.6667 7.99999C36.6667 12.048 39.952 15.3333 44 15.3333C48.048 15.3333 51.3334 12.048 51.3334 7.99999C51.3334 3.95199 48.048 0.666656 44 0.666656ZM44 13.8667C40.7587 13.8667 38.1334 11.2413 38.1334 7.99999C38.1334 4.75866 40.7587 2.13332 44 2.13332C47.2414 2.13332 49.8667 4.75866 49.8667 7.99999C49.8667 11.2413 47.2414 13.8667 44 13.8667Z" fill="#078171"/>
<path d="M62 0.666656C57.952 0.666656 54.6667 3.95199 54.6667 7.99999C54.6667 12.048 57.952 15.3333 62 15.3333C66.048 15.3333 69.3334 12.048 69.3334 7.99999C69.3334 3.95199 66.048 0.666656 62 0.666656ZM62 13.8667C58.7587 13.8667 56.1334 11.2413 56.1334 7.99999C56.1334 4.75866 58.7587 2.13332 62 2.13332C65.2414 2.13332 67.8667 4.75866 67.8667 7.99999C67.8667 11.2413 65.2414 13.8667 62 13.8667Z" fill="#078171"/>
<path d="M80 0.666656C75.952 0.666656 72.6667 3.95199 72.6667 7.99999C72.6667 12.048 75.952 15.3333 80 15.3333C84.048 15.3333 87.3334 12.048 87.3334 7.99999C87.3334 3.95199 84.048 0.666656 80 0.666656ZM80 13.8667C76.7587 13.8667 74.1334 11.2413 74.1334 7.99999C74.1334 4.75866 76.7587 2.13332 80 2.13332C83.2414 2.13332 85.8667 4.75866 85.8667 7.99999C85.8667 11.2413 83.2414 13.8667 80 13.8667Z" fill="#078171"/>
</svg>
