<svg width="24" height="24" viewBox="0 0 24 24" fill="none" xmlns="http://www.w3.org/2000/svg">
<path d="M8.375 9.49998C8.375 11.0656 8.59754 12.5612 9.00075 13.875H11.5V1.33331C9.89492 1.97702 8.375 5.19723 8.375 9.49998Z" fill="#828282"/>
<path d="M18.8141 13.875C19.6224 12.7254 20.2499 11.3516 20.2499 9.49997C20.2499 6.07713 18.1192 2.97484 15.1169 1.78009C16.341 3.47342 17.1249 6.36663 17.1249 9.49997C17.1249 11.0433 16.9202 12.5336 16.5503 13.875H18.8141Z" fill="#828282"/>
<path d="M12.75 1.33331V13.875H15.2515C15.654 12.5617 15.875 11.0626 15.875 9.49998C15.875 5.19723 14.3551 1.97702 12.75 1.33331Z" fill="#828282"/>
<path d="M6.43025 15.125C6.59696 15.316 6.76413 15.503 6.92854 15.6865C8.03996 16.9274 9.00004 17.9985 9.00004 19.5V20.7917C9.00004 21.8256 9.84113 22.6667 10.875 22.6667H13.375C14.409 22.6667 15.25 21.8256 15.25 20.7917V19.5C15.25 17.9985 16.2101 16.9274 17.3216 15.6865C17.486 15.503 17.6532 15.316 17.8199 15.125C17.5931 15.125 6.30392 15.125 6.43025 15.125ZM14.4005 17.625C14.2332 18.0116 14.1315 18.4332 14.0687 18.875H10.1814C10.1186 18.4332 10.017 18.0116 9.84967 17.625H14.4005Z" fill="#828282"/>
<path d="M4 9.49998C4 11.3517 4.62746 12.7254 5.43579 13.875H7.69858C7.32871 12.5337 7.125 11.0449 7.125 9.49998C7.125 6.36665 7.90883 3.47353 9.13283 1.78015C6.13067 2.97503 4 6.07719 4 9.49998Z" fill="#828282"/>
</svg>
