<svg xmlns="http://www.w3.org/2000/svg" width="16" height="16" fill="#4f4f4f" xmlns:v="https://vecta.io/nano"><path d="M14.405 7.193c-.049-.367-.342-.66-.733-.66h-.636l.318-.636c.049-.073.049-.171 0-.244s-.147-.122-.22-.122h-.009c-.135-2.215-1.929-4.001-4.147-4.124v-.251h.489a.23.23 0 0 0 .244-.244c0-.122-.098-.244-.244-.244H8a.23.23 0 0 0-.244.244c0 .122.098.244.244.244h.489v.251c-2.218.123-4.012 1.909-4.147 4.124h-.009c-.098 0-.171.049-.22.122-.024.073-.049.171 0 .244l.318.636h-.636c-.391 0-.709.293-.733.66l-.177 1.784h-.791l-.45-2.249a.23.23 0 0 0-.083-.143.26.26 0 0 0-.21-.053h-.44a.23.23 0 0 0-.244.244.23.23 0 0 0 .244.244h.284l.45 2.249c.008.041.025.077.048.106.035.046.087.076.151.086l.021.003.024.001h.049.899l-.459 4.62c0 .073.024.147.073.195.024.049.098.073.171.073h.528c-.025.076-.039.158-.039.244a.72.72 0 0 0 .733.733.72.72 0 0 0 .733-.733c0-.086-.014-.168-.039-.244h8.39a.77.77 0 0 0-.039.244.72.72 0 0 0 .733.733.72.72 0 0 0 .733-.733c0-.086-.014-.168-.039-.244h.528c.073 0 .147-.025.171-.073.049-.049.073-.122.073-.195l-.684-6.893zM8.733 1.889c2.07 0 3.775 1.601 3.909 3.642H4.824c.158-2.042 1.84-3.642 3.909-3.642zM4.724 6.044h8.018l-.245.489H4.969l-.244-.489zm-.88 8.8A.23.23 0 0 1 3.6 14.6a.23.23 0 0 1 .244-.244.23.23 0 0 1 .244.244.23.23 0 0 1-.244.245zm10.022-.245a.23.23 0 0 1-.244.244.23.23 0 0 1-.244-.244.23.23 0 0 1 .244-.244.23.23 0 0 1 .244.244zm-.516-.733l-.461-3.691c-.024-.147-.122-.244-.269-.22s-.244.147-.22.269l.455 3.642h-1.691l-.231-3.691c-.025-.122-.147-.22-.269-.22-.122.024-.22.122-.22.269l.228 3.642H8.978V10.2a.23.23 0 0 0-.244-.244.23.23 0 0 0-.244.244v3.667H6.795l.228-3.642a.22.22 0 0 0-.22-.269.22.22 0 0 0-.269.22l-.231 3.691H4.611l.455-3.642c0-.122-.098-.244-.22-.269-.122 0-.244.098-.269.22l-.461 3.691H2.891l.456-4.572a.29.29 0 0 0 .009-.072l.196-1.98c.024-.122.122-.22.244-.22h1.027 7.822 1.027c.122 0 .244.098.244.22l.66 6.624H13.35h0z"/><path d="M8.733 2.378a3.41 3.41 0 0 0-3.251 2.371c-.049.147.024.269.147.318h.073c.122 0 .22-.073.244-.171.391-1.222 1.516-2.029 2.787-2.029a.23.23 0 0 0 .244-.244.23.23 0 0 0-.244-.244z"/></svg>