<svg xmlns="http://www.w3.org/2000/svg" width="16" height="16" fill="none" xmlns:v="https://vecta.io/nano"><path d="M14.418 7.068L8.255.905c-.318-.318-.856-.318-1.174 0L.943 7.068c-.342.318-.367.831-.073 1.174.147.171.367.293.611.293h.024c.22 0 .44-.098.587-.245l.196-.196V14.6a.72.72 0 0 0 .734.734h9.293a.72.72 0 0 0 .734-.734V8.095l.196.196c.171.171.391.245.636.245s.465-.098.611-.293c.269-.342.245-.856-.073-1.174zm-1.858.538V14.6a.23.23 0 0 1-.245.245H3.022a.23.23 0 0 1-.245-.245V7.606l4.646-4.646c.122-.147.342-.147.489 0l4.646 4.646zm1.565.318c-.073.073-.171.122-.269.122-.098.024-.196-.024-.269-.098L8.255 2.617c-.318-.318-.856-.318-1.174 0l-4.72 4.72-.611.611c-.073.073-.171.098-.269.098s-.196-.049-.269-.122c-.122-.147-.098-.367.049-.514l6.163-6.163c.073-.073.147-.098.245-.098s.171.024.245.098l6.163 6.163c.147.147.171.367.049.514z" fill="#4f4f4f"/></svg>