<svg width="12" height="12" viewBox="0 0 12 12" fill="none" xmlns="http://www.w3.org/2000/svg">
<path d="M10.5 6L11.0303 6.53033L11.5607 6L11.0303 5.46967L10.5 6ZM5.96967 9.46967C5.67678 9.76256 5.67678 10.2374 5.96967 10.5303C6.26256 10.8232 6.73744 10.8232 7.03033 10.5303L5.96967 9.46967ZM7.03033 1.46967C6.73744 1.17678 6.26256 1.17678 5.96967 1.46967C5.67678 1.76256 5.67678 2.23744 5.96967 2.53033L7.03033 1.46967ZM1 5.25C0.585786 5.25 0.25 5.58579 0.25 6C0.25 6.41421 0.585786 6.75 1 6.75L1 5.25ZM9.96967 5.46967L5.96967 9.46967L7.03033 10.5303L11.0303 6.53033L9.96967 5.46967ZM5.96967 2.53033L9.96967 6.53033L11.0303 5.46967L7.03033 1.46967L5.96967 2.53033ZM10.5 5.25L1 5.25L1 6.75L10.5 6.75L10.5 5.25Z" fill="#005AEB"/>
</svg>
