<?xml version="1.0" encoding="utf-8"?>
<!-- Generator: Adobe Illustrator 16.0.0, SVG Export Plug-In . SVG Version: 6.00 Build 0)  -->
<!DOCTYPE svg PUBLIC "-//W3C//DTD SVG 1.1//EN" "http://www.w3.org/Graphics/SVG/1.1/DTD/svg11.dtd">
<svg version="1.1" id="Layer_1" xmlns="http://www.w3.org/2000/svg" xmlns:xlink="http://www.w3.org/1999/xlink" x="0px" y="0px"
	 width="48px" height="48px" viewBox="0 0 48 48" enable-background="new 0 0 48 48" xml:space="preserve">
<path fill="#2867B2" d="M7.2,0h33.6C44.776,0,48,3.224,48,7.2v33.6c0,3.977-3.224,7.2-7.2,7.2H7.2C3.224,48,0,44.776,0,40.8V7.2
	C0,3.224,3.224,0,7.2,0z"/>
<path fill="#FFFFFF" d="M16.448,17.15h-5.664c-0.635,0-1.151,0.517-1.151,1.151v21.348c0,0.634,0.517,1.15,1.151,1.15h5.664
	c0.635,0,1.151-0.517,1.151-1.15V18.302C17.6,17.667,17.083,17.15,16.448,17.15z M15.628,38.829h-4.023V19.122h4.023V38.829z"/>
<path fill="#FFFFFF" d="M13.617,7.2C11.402,7.2,9.6,9.002,9.6,11.216c0,2.215,1.802,4.017,4.017,4.017
	c2.214,0,4.016-1.802,4.016-4.017C17.633,9.002,15.831,7.2,13.617,7.2z M13.617,13.261c-1.128,0-2.045-0.917-2.045-2.045
	c0-1.127,0.917-2.044,2.045-2.044c1.127,0,2.044,0.917,2.044,2.044C15.661,12.343,14.744,13.261,13.617,13.261z"/>
<path fill="#FFFFFF" d="M35.918,19.653c-1.354-1.13-3.075-1.734-4.845-1.702c-1.099,0.02-2.173,0.286-3.146,0.766V18.25
	c0-0.607-0.493-1.1-1.101-1.1H21.06c-0.607,0-1.1,0.493-1.1,1.1v21.451c0,0.606,0.493,1.099,1.1,1.099h5.882
	c0.544,0,0.985-0.44,0.985-0.985V27.025c0-1.094,0.856-2.021,1.951-2.054c1.137-0.034,2.072,0.881,2.072,2.011v12.852
	c0,0.533,0.433,0.966,0.966,0.966h5.651c0.533,0,0.966-0.433,0.966-0.966v-12.46C39.533,24.384,38.215,21.57,35.918,19.653z
	 M37.561,38.829h-3.639V26.982c0-2.196-1.787-3.983-3.982-3.983c-2.196,0-3.984,1.787-3.984,3.983v11.847h-4.023V19.122h4.023v1.433
	h0.002c0,0.232,0.08,0.466,0.246,0.653c0.361,0.408,0.984,0.446,1.393,0.085c0.97-0.86,2.219-1.347,3.514-1.371
	c1.298-0.024,2.557,0.418,3.545,1.244c1.848,1.542,2.906,3.804,2.906,6.208V38.829z"/>
</svg>
