<?xml version="1.0" encoding="utf-8"?>
<!-- Generator: Adobe Illustrator 16.0.0, SVG Export Plug-In . SVG Version: 6.00 Build 0)  -->
<!DOCTYPE svg PUBLIC "-//W3C//DTD SVG 1.1//EN" "http://www.w3.org/Graphics/SVG/1.1/DTD/svg11.dtd">
<svg version="1.1" id="Layer_1" xmlns="http://www.w3.org/2000/svg" xmlns:xlink="http://www.w3.org/1999/xlink" x="0px" y="0px"
	 width="12px" height="12px" viewBox="0 0 12 12" enable-background="new 0 0 12 12" xml:space="preserve">
<g>
	<path fill="#2E2E2E" d="M8.3,5.988l0.707,0.707l0.707-0.707L9.007,5.281L8.3,5.988z M2.592,10.28
		c-0.397,0.384-0.408,1.017-0.024,1.414s1.017,0.408,1.414,0.024c0.009-0.008,0.017-0.016,0.024-0.024L2.592,10.28z M4.006,0.281
		c-0.397-0.384-1.03-0.373-1.414,0.024c-0.374,0.388-0.374,1.002,0,1.39L4.006,0.281z M7.593,5.281l-5.001,5l1.414,1.414l5.001-5
		L7.593,5.281z M2.592,1.695l5.001,5l1.414-1.414l-5.001-5L2.592,1.695z"/>
</g>
</svg>
