<svg width="31" height="31" viewBox="0 0 31 31" fill="none" xmlns="http://www.w3.org/2000/svg">
<ellipse cx="15.0008" cy="15.5" rx="15.0008" ry="15" fill="url(#paint0_linear)"/>
<path d="M23.9628 20.4467C23.9119 20.2933 23.5879 20.0673 22.9911 19.7693C22.8295 19.6753 22.5991 19.5477 22.3011 19.3857C22.0027 19.2237 21.7319 19.0745 21.4892 18.9381C21.2459 18.8018 21.018 18.6697 20.8051 18.542C20.771 18.5165 20.6645 18.442 20.4855 18.3181C20.3063 18.1947 20.1553 18.103 20.0314 18.0432C19.9079 17.9838 19.7863 17.9539 19.667 17.9539C19.4966 17.9539 19.2837 18.0754 19.0281 18.3181C18.7724 18.5612 18.538 18.8252 18.325 19.111C18.112 19.3966 17.886 19.6606 17.6476 19.9035C17.4088 20.1465 17.2127 20.2679 17.0594 20.2679C16.9825 20.2679 16.8866 20.2464 16.7716 20.2041C16.6567 20.1615 16.5693 20.125 16.5093 20.0956C16.4498 20.0656 16.3477 20.0061 16.2027 19.9163C16.0575 19.8268 15.9767 19.7778 15.9597 19.7693C14.792 19.1214 13.7905 18.3799 12.9551 17.545C12.12 16.7095 11.3783 15.7083 10.7306 14.5406C10.722 14.5235 10.6729 14.4425 10.5835 14.2977C10.4939 14.1528 10.4342 14.0507 10.4044 13.9908C10.3746 13.9312 10.3384 13.8438 10.2958 13.7288C10.2533 13.6138 10.2319 13.518 10.2319 13.4412C10.2319 13.2879 10.3534 13.0917 10.5963 12.8531C10.8392 12.6146 11.1035 12.3886 11.389 12.1757C11.6746 11.9628 11.9387 11.7283 12.1817 11.4728C12.4246 11.217 12.546 11.0041 12.546 10.8337C12.546 10.7144 12.5162 10.5929 12.4566 10.4693C12.3969 10.3455 12.3053 10.1944 12.1817 10.0154C12.058 9.83641 11.9834 9.72998 11.9578 9.69572C11.8301 9.48281 11.6981 9.25486 11.5616 9.01195C11.425 8.76908 11.276 8.49836 11.114 8.20011C10.9521 7.90199 10.8243 7.67179 10.7305 7.50988C10.4323 6.91342 10.2065 6.58942 10.053 6.53846C9.99331 6.5129 9.90375 6.5 9.78454 6.5C9.55428 6.5 9.25388 6.54254 8.88313 6.62788C8.51225 6.71309 8.22041 6.80246 8.00729 6.89636C7.58111 7.07524 7.12939 7.59509 6.65202 8.45574C6.21733 9.25669 6 10.0495 6 10.8334C6 11.0634 6.01491 11.2871 6.04474 11.5046C6.07456 11.7219 6.12785 11.967 6.20465 12.2397C6.28132 12.5124 6.34316 12.715 6.38991 12.8469C6.43671 12.9789 6.52408 13.2154 6.65198 13.5564C6.77969 13.8973 6.85649 14.106 6.88206 14.1827C7.18035 15.018 7.53409 15.7636 7.94317 16.4199C8.61623 17.5107 9.53475 18.6381 10.6982 19.8015C11.8616 20.9647 12.9889 21.8831 14.08 22.5564C14.7362 22.9653 15.4822 23.319 16.3175 23.6175C16.3942 23.6429 16.603 23.7195 16.9438 23.8477C17.2848 23.9754 17.5213 24.0628 17.6533 24.1097C17.7854 24.1566 17.988 24.2185 18.2605 24.2953C18.5336 24.3721 18.7785 24.4254 18.9958 24.4554C19.2133 24.4848 19.437 24.5 19.667 24.5C20.4511 24.5 21.244 24.2826 22.0452 23.848C22.9058 23.3708 23.4256 22.9191 23.6046 22.4926C23.6987 22.2798 23.7879 21.9879 23.8731 21.617C23.9586 21.2464 24.0011 20.9461 24.0011 20.7159C24.0013 20.5962 23.9885 20.5069 23.9628 20.4467Z" fill="white"/>
<defs>
<linearGradient id="paint0_linear" x1="1.11765e-07" y1="15.5" x2="30.0017" y2="15.5" gradientUnits="userSpaceOnUse">
<stop stop-color="#BE1E2D"/>
<stop offset="1" stop-color="#EC1C24"/>
</linearGradient>
</defs>
</svg>
