<svg width="16" height="16" viewBox="0 0 16 16" fill="none" xmlns="http://www.w3.org/2000/svg">
<path d="M12.0824 10.6052L10.0553 9.92944C10.0068 9.91315 9.95595 9.9048 9.90478 9.90466H6.09522C6.04405 9.90477 5.99324 9.91315 5.94475 9.92944L3.91757 10.6052C2.37333 11.1182 1.33177 12.5632 1.33325 14.1905C1.33325 14.4535 1.54645 14.6667 1.80946 14.6667H14.1905C14.4535 14.6667 14.6667 14.4535 14.6667 14.1905C14.6682 12.5632 13.6267 11.1182 12.0824 10.6052Z" fill="#2E2E2E"/>
<path d="M8 1.33331C6.42202 1.33331 5.14282 2.61251 5.14282 4.19049V6.09528C5.14438 7.67262 6.42266 8.95089 8 8.95246C9.57734 8.95089 10.8556 7.67262 10.8572 6.09528V4.19049C10.8572 2.61251 9.57798 1.33331 8 1.33331Z" fill="#2E2E2E"/>
</svg>
