<svg xmlns="http://www.w3.org/2000/svg" width="64" height="42" fill="none"  xmlns:v="https://vecta.io/nano"><g fill-rule="evenodd"><path d="M0 3a3 3 0 0 1 3-3h58a3 3 0 0 1 3 3v36a3 3 0 0 1-3 3H3a3 3 0 0 1-3-3V3z" fill="url(#B)"/><path d="M0 3a3 3 0 0 1 3-3h58a3 3 0 0 1 3 3v36a3 3 0 0 1-3 3H3a3 3 0 0 1-3-3V3z" fill="#e5e5e5" fill-opacity=".01"/><path d="M12.779 22.783c-.45.409-1.036.588-1.962.588h-.385V18.48h.385c.926 0 1.489.167 1.962.598.496.444.794 1.133.794 1.841s-.298 1.419-.794 1.863zm-1.675-5.555H9v7.395h2.093c1.113 0 1.917-.264 2.622-.854a3.72 3.72 0 0 0 1.334-2.839c0-2.183-1.621-3.703-3.945-3.703zm4.606 7.394h1.434v-7.395H15.71v7.395zm4.939-4.557c-.86-.32-1.113-.531-1.113-.931 0-.466.45-.82 1.068-.82.429 0 .783.178 1.156.599l.75-.988c-.617-.543-1.354-.82-2.16-.82-1.3 0-2.292.909-2.292 2.119 0 1.019.462 1.541 1.808 2.028.561.199.847.332.991.421.287.188.43.455.43.765 0 .599-.473 1.043-1.113 1.043-.684 0-1.235-.344-1.564-.987l-.926.897c.66.976 1.454 1.408 2.545 1.408 1.49 0 2.535-.997 2.535-2.428 0-1.175-.483-1.707-2.114-2.307zm2.566.865c0 2.174 1.696 3.859 3.879 3.859.617 0 1.146-.122 1.797-.431V22.66c-.573.577-1.081.81-1.731.81-1.444 0-2.469-1.053-2.469-2.551 0-1.42 1.057-2.54 2.402-2.54.684 0 1.201.245 1.797.832v-1.697c-.629-.321-1.147-.454-1.764-.454-2.172 0-3.913 1.72-3.913 3.87zm17.044 1.265l-1.96-4.967h-1.566l3.119 7.585h.771l3.175-7.585h-1.554l-1.985 4.967zm4.187 2.427h4.066V23.37h-2.633v-1.996h2.536v-1.252h-2.536V18.48h2.633v-1.253h-4.066v7.395zm6.866-3.99h-.419v-2.24h.442c.893 0 1.378.376 1.378 1.096 0 .744-.485 1.144-1.401 1.144zm2.876-1.221c0-1.384-.948-2.183-2.601-2.183h-2.126v7.395h1.432v-2.971h.187l1.984 2.971h1.763l-2.314-3.115c1.08-.221 1.674-.964 1.674-2.097z" fill="#212d34"/></g><g filter="url(#A)"><path fill-rule="evenodd" d="M37.179 20.95c0 2.173-1.75 3.934-3.91 3.934s-3.91-1.761-3.91-3.934 1.75-3.934 3.91-3.934 3.91 1.761 3.91 3.934z" fill="url(#C)"/></g><defs><filter id="A" x="29.36" y="17.016" width="7.82" height="7.868" filterUnits="userSpaceOnUse" color-interpolation-filters="sRGB"><feFlood flood-opacity="0"/><feBlend in="SourceGraphic" result="B"/><feColorMatrix in="SourceAlpha" values="0 0 0 0 0 0 0 0 0 0 0 0 0 0 0 0 0 0 127 0" result="C"/><feOffset dx="1" dy="1"/><feComposite in2="C" operator="arithmetic" k2="-1" k3="1"/><feColorMatrix values="0 0 0 0 0.314068 0 0 0 0 0.00146228 0 0 0 0 0.00146228 0 0 0 0.5 0"/><feBlend in2="B"/></filter><linearGradient id="B" x1="-32" y1="21" x2="6.531" y2="79.714" gradientUnits="userSpaceOnUse"><stop stop-color="#edf1f3"/><stop offset="1" stop-color="#d3dadf"/></linearGradient><linearGradient id="C" x1="38.059" y1="21.702" x2="33.419" y2="16.215" gradientUnits="userSpaceOnUse"><stop stop-color="#ffa700"/><stop offset="1" stop-color="#e75a10"/></linearGradient></defs></svg>