<svg width="12" height="12" viewBox="0 0 12 12" fill="none" xmlns="http://www.w3.org/2000/svg">
<path d="M10.8133 5.30074L6.19136 0.678819C5.95293 0.440394 5.54941 0.440394 5.31099 0.678819L0.707397 5.30074C0.450616 5.53917 0.432282 5.92433 0.652374 6.18111C0.762419 6.30949 0.927488 6.4012 1.11089 6.4012H1.12922C1.29429 6.4012 1.45936 6.32785 1.56941 6.2178L1.71614 6.07107V10.9498C1.71614 11.2616 1.95457 11.5 2.26637 11.5H9.23595C9.54775 11.5 9.78618 11.2616 9.78618 10.9498V6.07107L9.93291 6.2178C10.0613 6.34618 10.2264 6.4012 10.4098 6.4012C10.5932 6.4012 10.7583 6.32785 10.8683 6.18111C11.07 5.92433 11.0517 5.53917 10.8133 5.30074ZM9.41935 5.70424V10.9497C9.41935 11.0598 9.34599 11.1332 9.23595 11.1332H2.26637C2.15633 11.1332 2.08297 11.0598 2.08297 10.9497V5.70424L5.56775 2.21946C5.65946 2.10941 5.82453 2.10941 5.93457 2.21946L9.41935 5.70424ZM10.5932 5.94269C10.5382 5.99771 10.4648 6.0344 10.3914 6.0344C10.3181 6.05273 10.2447 6.01606 10.1897 5.96104L6.19136 1.96268C5.95293 1.72425 5.54941 1.72425 5.31099 1.96268L1.77117 5.5025L1.31265 5.96102C1.25763 6.01604 1.18427 6.03438 1.11089 6.03438C1.03753 6.03438 0.964156 5.99769 0.909133 5.94266C0.817421 5.83262 0.835776 5.66755 0.945822 5.5575L5.56775 0.935578C5.62277 0.880555 5.67779 0.862222 5.75115 0.862222C5.82451 0.862222 5.87953 0.880555 5.93455 0.935578L10.5565 5.5575C10.6665 5.66757 10.6849 5.83264 10.5932 5.94269Z" fill="#2E2E2E"/>
</svg>
