<svg width="25" height="15" viewBox="0 0 25 15" fill="none" xmlns="http://www.w3.org/2000/svg">
<path d="M20.789 4.07606C21.3284 4.07606 21.7653 3.64908 21.7653 3.11749V2.11422C21.7653 1.58216 21.3289 1.15375 20.789 1.15375C20.2491 1.15375 19.8131 1.58168 19.8131 2.11422V3.11796C19.8136 3.64908 20.2496 4.07606 20.789 4.07606Z" fill="#2E2E2E"/>
<path d="M24.2572 2.81505H22.2919V3.30337C22.2919 4.10931 21.6264 4.76596 20.8057 4.76596C19.984 4.76596 19.3199 4.10931 19.3199 3.30337V2.81505H15.3541V3.30337C15.3541 4.10931 14.6876 4.76596 13.8674 4.76596C13.0471 4.76596 12.3811 4.10979 12.3811 3.30337V2.81505L10.3979 2.7908V15.0002H11.3898H23.2818L24.2722 14.9974L24.2572 2.81505ZM23.2809 14.0279H11.3898V6.22806H23.2818V14.0279H23.2809Z" fill="#2E2E2E"/>
<path d="M13.852 4.07606C14.3914 4.07606 14.8289 3.64908 14.8289 3.11749V2.11422C14.8289 1.58168 14.3914 1.15375 13.852 1.15375C13.3126 1.15375 12.8766 1.58168 12.8766 2.11422V3.11796C12.8766 3.64908 13.3121 4.07606 13.852 4.07606Z" fill="#2E2E2E"/>
<path d="M22.1915 7.3847H12.4795V8.76936H22.1915V7.3847Z" fill="#2E2E2E"/>
<path d="M22.1915 9.46161H12.4795V10.8463H22.1915V9.46161Z" fill="#2E2E2E"/>
<path d="M22.1915 11.5386H12.4795V12.9233H22.1915V11.5386Z" fill="#2E2E2E"/>
<path d="M9.90794 6.31983C9.74666 5.18321 9.3518 3.60411 8.39288 2.2813C8.36598 2.24419 8.31349 2.2358 8.27636 2.26274C6.90442 3.25697 6.11458 4.70005 5.68532 5.77904C5.38412 6.53613 5.21589 7.21748 5.12766 7.65653C5.11856 7.70177 5.15029 7.74505 5.1962 7.75035L9.94298 8.29733C9.98955 8.30269 10.0306 8.26691 10.0312 8.22014C10.0366 7.7806 10.019 7.10277 9.90794 6.31983Z" fill="#2E2E2E"/>
<path d="M7.2324 1.99219C5.94923 2.02331 4.63628 2.44288 3.52643 3.19199C2.29607 4.0225 1.4788 5.13858 1.18192 6.37671C1.15732 6.47934 1.21749 6.58339 1.31822 6.61548L4.2637 7.55381C4.3549 7.08228 4.53488 6.33225 4.8701 5.48408C5.43502 4.05478 6.24106 2.86773 7.2324 1.99219Z" fill="#2E2E2E"/>
<path d="M8.18308 1.17099L8.77458 1.23916C8.8249 1.24495 8.87517 1.25146 8.92538 1.25843L9.02894 0.489845C9.06081 0.253289 8.89451 0.0357217 8.65745 0.00391203C8.42017 -0.0279264 8.20239 0.138066 8.17055 0.37465L8.06488 1.15886C8.10432 1.16269 8.14376 1.16646 8.18308 1.17099Z" fill="#2E2E2E"/>
<path d="M7.29695 13.0692L7.54281 11.2779L7.57748 11.2829C7.59824 11.2858 7.61886 11.2873 7.63924 11.2873C7.92708 11.2873 8.16564 11.0006 8.03546 10.6663C7.98612 10.5396 7.86934 10.4513 7.73454 10.4321L7.66037 10.4215L7.86536 8.92812L7.00475 8.82895L6.80294 10.2993L6.75467 10.2925C6.61877 10.2731 6.48109 10.3263 6.39808 10.4354C6.16651 10.7397 6.35333 11.1084 6.66655 11.153L6.68538 11.1557L6.43466 12.9823C5.98549 12.947 5.52622 12.9268 5.05643 12.9268C2.74784 12.9268 1.0302 13.2427 0.44369 13.367C0.315706 13.3941 0.224243 13.5067 0.224243 13.6373V14.4933C0.224243 14.6459 0.348185 14.7696 0.501085 14.7696H14.7282C14.8811 14.7696 15.005 14.6459 15.005 14.4933V14.3714C15.005 14.2221 14.8862 14.099 14.7367 14.0952C12.6916 14.0438 10.2233 13.4273 7.29695 13.0692Z" fill="#2E2E2E"/>
<path d="M13.9525 8.0716C14.057 8.06313 14.1387 7.97674 14.1393 7.87212C14.1474 6.58591 13.6494 5.3145 12.7074 4.24222C11.8308 3.24451 10.6537 2.53355 9.39923 2.22778C10.0869 3.33516 10.5554 4.69531 10.7692 6.22162C10.8929 7.10451 10.9066 7.85316 10.897 8.31922L13.9525 8.0716Z" fill="#2E2E2E"/>
</svg>
