<svg width="22" height="22" viewBox="0 0 22 22" fill="none" xmlns="http://www.w3.org/2000/svg">
<path d="M21.6653 20.0385L16.2419 14.5927C17.6363 12.9923 18.4004 10.9787 18.4004 8.88243C18.4004 3.9847 14.273 -6.10352e-05 9.20006 -6.10352e-05C4.12709 -6.10352e-05 -0.000244141 3.9847 -0.000244141 8.88243C-0.000244141 13.7802 4.12709 17.7649 9.20006 17.7649C11.1045 17.7649 12.9194 17.2103 14.471 16.1576L19.9356 21.6446C20.164 21.8737 20.4712 21.9999 20.8004 21.9999C21.112 21.9999 21.4077 21.8852 21.6321 21.6767C22.1089 21.2337 22.1241 20.4992 21.6653 20.0385ZM9.20006 2.31711C12.9498 2.31711 16.0003 5.26224 16.0003 8.88243C16.0003 12.5026 12.9498 15.4478 9.20006 15.4478C5.45033 15.4478 2.39983 12.5026 2.39983 8.88243C2.39983 5.26224 5.45033 2.31711 9.20006 2.31711Z" fill="#828282"/>
</svg>
