<svg width="36" height="36" viewBox="0 0 36 36" fill="none" xmlns="http://www.w3.org/2000/svg">
<circle cx="18" cy="18" r="18" fill="#00243C"/>
<path d="M17.7647 12.5L17.7647 22.293L16.71 21.3965C16.4803 21.2013 16.108 21.2013 15.8783 21.3965C15.7633 21.4943 15.7059 21.622 15.7059 21.75C15.7059 21.878 15.7633 22.0058 15.8783 22.1035L17.9371 23.8535C18.1668 24.0488 18.5392 24.0488 18.7689 23.8535L20.8277 22.1035C21.0574 21.9083 21.0574 21.5918 20.8277 21.3965C20.598 21.2013 20.2257 21.2013 19.9959 21.3965L18.9412 22.293L18.9412 12.5C18.9412 12.224 18.6777 12 18.353 12C18.0283 12 17.7647 12.224 17.7647 12.5Z" fill="white"/>
<path d="M14.2353 23.5001L14.2353 13.7071L15.29 14.6036C15.5198 14.7988 15.8921 14.7988 16.1218 14.6036C16.3515 14.4086 16.3515 14.0916 16.1218 13.8966L14.063 12.1466C13.8333 11.9513 13.4609 11.9513 13.2312 12.1466L11.1724 13.8966C11.0574 13.9941 11 14.1221 11 14.2501C11 14.3781 11.0574 14.5061 11.1724 14.6036C11.4021 14.7988 11.7744 14.7988 12.0041 14.6036L13.0588 13.7071L13.0588 23.5001C13.0588 23.7761 13.3224 24.0001 13.6471 24.0001C13.9718 24.0001 14.2353 23.7761 14.2353 23.5001Z" fill="white"/>
</svg>
