<svg width="16" height="16" viewBox="0 0 16 16" fill="none" xmlns="http://www.w3.org/2000/svg">
<path d="M13 14C13.5523 14 14 13.5523 14 13C14 12.4477 13.5523 12 13 12C12.4477 12 12 12.4477 12 13C12 13.5523 12.4477 14 13 14Z" fill="#002D75"/>
<path d="M11.3333 3.94671L6 1.33337V13.3334H4.66667V12.18C3.47333 12.4134 2.66667 12.84 2.66667 13.3334C2.66667 14.0667 4.46 14.6667 6.66667 14.6667C8.87333 14.6667 10.6667 14.0667 10.6667 13.3334C10.6667 12.6734 9.22667 12.1267 7.33333 12.02V5.98671L11.3333 3.94671Z" fill="#002D75"/>
</svg>
