<svg xmlns="http://www.w3.org/2000/svg" width="48" height="48" fill="#005aeb" xmlns:v="https://vecta.io/nano"><path d="M42.75 1.5H5.25c-.994.001-1.947.397-2.65 1.1S1.501 4.256 1.5 5.25v27c.001.864.3 1.702.847 2.371A3.76 3.76 0 0 0 4.5 35.925v8.325a2.25 2.25 0 0 0 2.25 2.25h22.5a2.25 2.25 0 1 0 0-4.5h-.885l-1.2-6H33v8.25a2.25 2.25 0 0 0 2.25 2.25h9a2.25 2.25 0 0 0 2.25-2.25v-39c-.001-.994-.397-1.947-1.1-2.65a3.76 3.76 0 0 0-2.65-1.1zM5.25 3h37.5A2.25 2.25 0 0 1 45 5.25v18.888a2.21 2.21 0 0 0-.75-.138h-9A2.25 2.25 0 0 0 33 26.25v2.25h-9v-6.75a2.25 2.25 0 0 0-2.25-2.25h-15a2.25 2.25 0 0 0-2.25 2.25v6.75H3V5.25A2.25 2.25 0 0 1 5.25 3zM3 32.25V30h1.5v4.362A2.25 2.25 0 0 1 3 32.25zM6.75 45a.75.75 0 0 1-.75-.75v-22.5a.75.75 0 0 1 .75-.75h15a.75.75 0 0 1 .75.75v22.5a.75.75 0 0 1-.75.75h-15zM30 44.25a.75.75 0 0 1-.75.75h-5.388a2.21 2.21 0 0 0 .138-.75v-.75h5.25a.75.75 0 0 1 .75.75zM26.835 42H24v-6h1.635l1.2 6zM24 34.5V30h9v4.5h-9zM34.5 30H45v10.5H34.5V30zm9.75 15h-9a.75.75 0 0 1-.75-.75V42H45v2.25a.75.75 0 0 1-.75.75zM45 28.5H34.5v-2.25a.75.75 0 0 1 .75-.75h9a.75.75 0 0 1 .75.75v2.25zm-8.25-24h1.5V6h-1.5V4.5z"/><path d="M42 8.25h1.5v-3a.75.75 0 0 0-.75-.75h-3V6H42v2.25zM24 6a9.71 9.71 0 0 1 6.895 2.857l1.059-1.063a11.25 11.25 0 0 0-15.909 0l1.059 1.063A9.71 9.71 0 0 1 24 6zm-5.833 3.917l1.06 1.061a6.75 6.75 0 0 1 9.545 0l1.06-1.061c-.766-.766-1.675-1.374-2.676-1.789A8.24 8.24 0 0 0 24 7.5c-1.083 0-2.156.213-3.157.628s-1.91 1.023-2.676 1.789zm2.121 2.125l1.065 1.056a3.74 3.74 0 0 1 5.295 0l1.065-1.056a5.24 5.24 0 0 0-7.425 0zM24 13.5a2.25 2.25 0 0 0-1.591 3.841 2.25 2.25 0 0 0 3.841-1.591A2.25 2.25 0 0 0 24 13.5zm0 3a.75.75 0 0 1-.53-1.28.75.75 0 0 1 1.28.53.75.75 0 0 1-.75.75zm-9.75 6h1.5V24h-1.5v-1.5zm6 0h-3V24h2.25v2.25H21v-3a.75.75 0 0 0-.75-.75z"/></svg>