<svg width="24" height="24" viewBox="0 0 24 24" fill="none" xmlns="http://www.w3.org/2000/svg">
<path d="M6 12L5.29289 11.2929L4.58579 12L5.29289 12.7071L6 12ZM16.7071 2.70711C17.0976 2.31658 17.0976 1.68342 16.7071 1.29289C16.3166 0.902369 15.6834 0.902369 15.2929 1.29289L16.7071 2.70711ZM15.2929 22.7071C15.6834 23.0976 16.3166 23.0976 16.7071 22.7071C17.0976 22.3166 17.0976 21.6834 16.7071 21.2929L15.2929 22.7071ZM6.70711 12.7071L16.7071 2.70711L15.2929 1.29289L5.29289 11.2929L6.70711 12.7071ZM16.7071 21.2929L6.70711 11.2929L5.29289 12.7071L15.2929 22.7071L16.7071 21.2929Z" fill="white"/>
</svg>
