<svg xmlns="http://www.w3.org/2000/svg" width="32" height="32" fill="#fff"  xmlns:v="https://vecta.io/nano"><path d="M5.236 14.333a.55.55 0 0 1 .934.387.55.55 0 0 1-.547.547.55.55 0 0 1-.387-.934zM3.412 3.13a2.49 2.49 0 0 1 1.584-1.077c.654-.136 1.323-.008 1.882.359a2.49 2.49 0 0 1 1.077 1.584l.058.281a3.17 3.17 0 0 1 2.995-2.147 3.17 3.17 0 0 1 3.164 3.164v.476c0 .91-.387 1.732-1.004 2.309a3.51 3.51 0 0 1 .656.337 3.46 3.46 0 0 1 1.499 2.207l.446 2.223 1.025 1.031h4.269a1.77 1.77 0 0 1 1.77 1.769 1.76 1.76 0 0 1-.134.676h.443a2.26 2.26 0 0 1 2.186 1.689l.646 2.477c.076.292-.099.591-.391.667a.55.55 0 0 1-.138.018c-.243 0-.465-.163-.529-.409l-.645-2.477c-.134-.513-.597-.871-1.127-.871H15.13c-.146 0-.286-.058-.389-.162l-2.769-2.797c-.212-.215-.211-.561.004-.773s.561-.211.773.004l2.608 2.635h5.705c.373 0 .676-.303.676-.676s-.303-.676-.676-.676h-4.496a.55.55 0 0 1-.388-.161l-3.13-3.148a.55.55 0 0 1 .002-.774c.214-.214.56-.212.773.002l.547.55-.12-.599a2.37 2.37 0 0 0-2.822-1.853 2.37 2.37 0 0 0-1.853 2.822l1.373 6.628a1.65 1.65 0 0 0 1.607 1.308h7.775a2.52 2.52 0 0 1 2.489 2.242.5.5 0 0 1 .027.077l1.675 6.429a.55.55 0 0 0 .533.412h1.27c.172 0 .33-.078.435-.214s.14-.309.097-.475l-.913-3.505c-.076-.292.099-.591.391-.667s.591.099.667.391l.913 3.505c.129.497.024 1.014-.29 1.42s-.788.639-1.301.639h-1.27c-.748 0-1.402-.506-1.591-1.23l-1.269-4.869-.077.083c-.479.488-1.145.769-1.826.769h-2.662l1.87 4.49a.55.55 0 0 1-.05.514c-.101.152-.272.243-.455.243h-8.436c-.183 0-.354-.091-.455-.243a.55.55 0 0 1-.05-.514l1.87-4.49h-2.74c-1.181 0-2.211-.839-2.451-1.995l-1.197-5.777c-.061-.296.129-.585.425-.646s.585.129.646.425l1.197 5.777c.135.651.715 1.123 1.38 1.123h11.109c.389 0 .77-.161 1.045-.441.267-.272.41-.626.403-.996a1.42 1.42 0 0 0-1.409-1.382h-7.775c-1.29 0-2.416-.917-2.677-2.179L6.884 4.218a1.4 1.4 0 0 0-.606-.892 1.4 1.4 0 0 0-1.06-.202 1.4 1.4 0 0 0-.892.606 1.4 1.4 0 0 0-.202 1.06l1.625 7.841c.061.296-.129.585-.425.646s-.585-.129-.646-.425l-1.625-7.84c-.136-.655-.008-1.323.359-1.882zm9.696 21.623l-1.73 4.153h6.796l-1.73-4.153h-3.336zM11.009 7.84c1.141 0 2.07-.929 2.07-2.07v-.476c0-1.142-.929-2.07-2.07-2.07s-2.07.929-2.07 2.07v.476c0 1.141.929 2.07 2.07 2.07zM9.061 9.332c.181-.259.392-.49.63-.687a3.17 3.17 0 0 1-.901-.623l.271 1.31zm16.488 12.801a.55.55 0 0 1 .773 0 .55.55 0 0 1 0 .773.55.55 0 0 1-.773 0 .55.55 0 0 1 0-.773z"/></svg>