<svg width="30" height="20" viewBox="0 0 30 20" fill="none" xmlns="http://www.w3.org/2000/svg">
<path d="M30 0.000175476H0V20.0004H30V0.000175476Z" fill="#0052B4"/>
<path d="M13.0896 9.99996C13.1056 9.98215 13.1215 9.96428 13.1373 9.94629C13.1215 9.96434 13.1053 9.98203 13.0892 9.99996H13.0896Z" fill="#F0F0F0"/>
<path d="M11.0869 12.4566L11.729 13.7992L13.179 13.4641L12.5296 14.8032L13.6956 15.7279L12.2439 16.0551L12.248 17.5433L11.0869 16.6122L9.92595 17.5433L9.92999 16.0551L8.47827 15.7279L9.64429 14.8032L8.99489 13.4641L10.4449 13.7992L11.0869 12.4566Z" fill="#F0F0F0"/>
<path d="M22.6802 14.1244L22.9865 14.7648L23.6781 14.605L23.3683 15.2436L23.9245 15.6847L23.232 15.8408L23.2339 16.5506L22.6802 16.1065L22.1265 16.5506L22.1284 15.8408L21.436 15.6847L21.9921 15.2436L21.6824 14.605L22.374 14.7648L22.6802 14.1244Z" fill="#F0F0F0"/>
<path d="M19.8312 7.33113L20.1375 7.97156L20.8291 7.81166L20.5193 8.45039L21.0754 8.89148L20.383 9.04752L20.3849 9.75738L19.8312 9.31324L19.2774 9.75738L19.2794 9.04752L18.5869 8.89148L19.143 8.45039L18.8334 7.81166L19.5249 7.97156L19.8312 7.33113Z" fill="#F0F0F0"/>
<path d="M22.6802 3.4493L22.9865 4.08973L23.6781 3.92976L23.3683 4.56855L23.9245 5.00959L23.232 5.16568L23.2339 5.87549L22.6802 5.43135L22.1265 5.87549L22.1284 5.16568L21.436 5.00959L21.9921 4.56855L21.6824 3.92976L22.374 4.08973L22.6802 3.4493Z" fill="#F0F0F0"/>
<path d="M25.1688 6.3607L25.4751 7.00107L26.1666 6.84123L25.857 7.4799L26.4131 7.92094L25.7206 8.07703L25.7226 8.78684L25.1688 8.34281L24.6151 8.78684L24.617 8.07703L23.9246 7.92094L24.4807 7.4799L24.1709 6.84123L24.8625 7.00107L25.1688 6.3607Z" fill="#F0F0F0"/>
<path d="M23.3894 9.75739L23.6302 10.4987H24.4097L23.7791 10.9569L24.02 11.6982L23.3894 11.2401L22.7586 11.6982L22.9995 10.9569L22.3689 10.4987H23.1484L23.3894 9.75739Z" fill="#F0F0F0"/>
<path d="M15 0.000175476V1.79039L12.3535 3.26103H15V6.7391H11.5369L15 8.66303V9.99996H13.4367L9.13043 7.60781V9.99996H5.86957V7.15389L0.746719 9.99996H0V8.20974L2.6465 6.7391H0V3.26103H3.46307L0 1.33646V0.000175476H1.56328L5.86957 2.39238V0.000175476H9.13043V2.84625L14.2533 0.000175476H15Z" fill="#F0F0F0"/>
<path d="M8.4375 0H6.5625V4.06242H0V5.93742H6.5625V9.99996H8.4375V5.93742H15V4.06242H8.4375V0Z" fill="#D80027"/>
<path d="M9.13043 6.7391L15 9.99996V9.07787L10.7902 6.7391H9.13043Z" fill="#0052B4"/>
<path d="M9.13043 6.7391L15 9.99996V9.07787L10.7902 6.7391H9.13043Z" fill="#F0F0F0"/>
<path d="M9.13043 6.7391L15 9.99996V9.07787L10.7902 6.7391H9.13043Z" fill="#D80027"/>
<path d="M4.20973 6.7391L0 9.07787V9.99996L5.86957 6.7391H4.20973Z" fill="#D80027"/>
<path d="M5.86957 3.26086L0 0V0.92209L4.20979 3.26086H5.86957Z" fill="#0052B4"/>
<path d="M5.86957 3.26086L0 0V0.92209L4.20979 3.26086H5.86957Z" fill="#F0F0F0"/>
<path d="M5.86957 3.26086L0 0V0.92209L4.20979 3.26086H5.86957Z" fill="#D80027"/>
<path d="M10.7903 3.26086L15 0.92209V0L9.13043 3.26086H10.7903Z" fill="#D80027"/>
</svg>
