<svg width="26" height="20" viewBox="0 0 26 20" fill="none" xmlns="http://www.w3.org/2000/svg">
<path d="M24.9497 8.95105H1.05026C0.470234 8.95105 0 9.4207 0 9.99999C0 10.5793 0.470234 11.0489 1.05026 11.0489H24.9497C25.5298 11.0489 26 10.5793 26 9.99999C26 9.4207 25.5298 8.95105 24.9497 8.95105Z" fill="white"/>
<path d="M5.3696 12.8302C3.80513 11.2677 3.80512 8.7323 5.36958 7.16979L10.7554 1.79064C11.1656 1.38099 11.1656 0.716843 10.7554 0.307197C10.3453 -0.102399 9.68031 -0.102399 9.27015 0.307197L0.307864 9.25825C-0.102296 9.6679 -0.102296 10.332 0.307864 10.7417L9.27015 19.6928C9.4752 19.8976 9.74404 20 10.0128 20C10.2816 20 10.5504 19.8976 10.7555 19.6928C11.1657 19.2831 11.1657 18.619 10.7555 18.2093L5.3696 12.8302Z" fill="white"/>
</svg>
