<svg width="24" height="24" viewBox="0 0 24 24" fill="none" xmlns="http://www.w3.org/2000/svg">
<path d="M22.2221 12.8889H4.88879V4.44446C4.88879 4.19879 4.69004 4 4.44437 4H1.77771C1.53204 4 1.33325 4.19879 1.33325 4.44446V19.5556C1.33325 19.8012 1.53204 20 1.77771 20H4.44437C4.69004 20 4.88883 19.8012 4.88883 19.5555V16.4444H19.111V19.5555C19.111 19.8012 19.3098 20 19.5555 20H22.2221C22.4678 20 22.6666 19.8012 22.6666 19.5555V13.3333C22.6665 13.0876 22.4678 12.8889 22.2221 12.8889Z" fill="#828282"/>
<path d="M8.44425 12C9.91701 12 11.1109 10.8061 11.1109 9.33335C11.1109 7.86059 9.91701 6.66669 8.44425 6.66669C6.97149 6.66669 5.77759 7.86059 5.77759 9.33335C5.77759 10.8061 6.97149 12 8.44425 12Z" fill="#828282"/>
<path d="M12.4445 12H22.2222C22.4679 12 22.6667 11.8012 22.6667 11.5556C22.6666 8.85981 20.4735 6.66669 17.7778 6.66669H12.4445C12.1988 6.66669 12 6.86548 12 7.11114V11.5556C12 11.8012 12.1988 12 12.4445 12Z" fill="#828282"/>
</svg>
