<svg xmlns="http://www.w3.org/2000/svg" width="12" height="12" fill="none"  xmlns:v="https://vecta.io/nano"><g clip-path="url(#A)"><path d="M6.11 1C3.267 1 .955 3.467.955 6.5S3.267 12 6.11 12s5.155-2.467 5.155-5.5S8.952 1 6.11 1zm.335 8.763l-.98.174c-.209.019-.407-.109-.528-.293s-.15-.419-.078-.629l.974-2.859H4.821c-.001-.596.418-1.034.954-1.202.256-.08.732-.19.98-.173.148.01.407.109.528.293s.15.419.078.629l-.974 2.859h1.013c0 .595-.403 1.103-.953 1.201zm.309-5.326c-.356 0-.644-.308-.644-.687s.289-.688.644-.688.644.308.644.688-.288.687-.644.687z" fill="#008009"/></g><defs><clipPath id="A"><path fill="#fff" transform="translate(.955 1)" d="M0 0h10.31v11H0z"/></clipPath></defs></svg>