<svg xmlns="http://www.w3.org/2000/svg" width="16" height="16" fill="none" xmlns:v="https://vecta.io/nano"><g clip-path="url(#A)" fill="#000"><path d="M7.527.937H6.59v.937h2.812V.937h-.937V0h-.937v.937zM6.121 2.812H9.87v.937H6.121v-.937zm-.469 1.875h4.687v.937H5.652v-.937zm-.469 1.874h5.624v.937H5.183v-.937zm-.468 1.875h6.561v.937H4.715v-.937zm-.469 1.875h7.499v.937H4.246v-.937zm3.281 1.875h.937v3.812h-.937v-3.812zm-5.156 3.811h4.218v-3.812H3.777v2.875H2.371v.937zm11.248-.937h-1.406v-2.875H9.401v3.812h4.218v-.937z"/></g><defs><clipPath id="A"><path fill="#fff" d="M0 0h16v16H0z"/></clipPath></defs></svg>