<svg xmlns="http://www.w3.org/2000/svg" width="16" height="16" fill="none"  xmlns:v="https://vecta.io/nano"><g clip-path="url(#A)" stroke="#005aeb" stroke-width="2" stroke-linecap="round" stroke-linejoin="round"><path d="M6.6 2.827a6.08 6.08 0 0 1 1.4-.16C12.667 2.667 15.333 8 15.333 8c-.405.757-.887 1.47-1.44 2.127m-4.48-.713a2 2 0 0 1-1.428.636 2 2 0 0 1-1.449-.586 2 2 0 0 1-.585-1.449 2 2 0 0 1 .636-1.428m5.373 5.373c-1.14.869-2.527 1.35-3.96 1.373C3.333 13.333.667 8 .667 8A12.3 12.3 0 0 1 4.04 4.04l7.92 7.92z"/><path d="M.667.667l14.667 14.667"/></g><defs><clipPath id="A"><path fill="#fff" d="M0 0h16v16H0z"/></clipPath></defs></svg>