<svg width="12" height="10" viewBox="0 0 12 10" fill="none" xmlns="http://www.w3.org/2000/svg">
<path d="M5.9999 6.49998C5.70323 6.49998 5.41322 6.58795 5.16654 6.75278C4.91987 6.9176 4.72761 7.15187 4.61408 7.42596C4.50055 7.70004 4.47084 8.00165 4.52872 8.29262C4.5866 8.58359 4.72946 8.85086 4.93924 9.06064C5.14902 9.27042 5.41629 9.41328 5.70726 9.47116C5.99823 9.52904 6.29983 9.49933 6.57392 9.3858C6.84801 9.27227 7.08228 9.08001 7.2471 8.83334C7.41192 8.58666 7.4999 8.29665 7.4999 7.99998C7.4999 7.60216 7.34186 7.22063 7.06056 6.93932C6.77925 6.65802 6.39772 6.49998 5.9999 6.49998ZM5.9999 8.49998C5.90101 8.49998 5.80434 8.47066 5.72211 8.41572C5.63989 8.36078 5.5758 8.28269 5.53796 8.19132C5.50011 8.09996 5.49021 7.99943 5.5095 7.90244C5.5288 7.80544 5.57642 7.71635 5.64634 7.64643C5.71627 7.5765 5.80536 7.52888 5.90235 7.50959C5.99934 7.4903 6.09988 7.5002 6.19124 7.53804C6.2826 7.57588 6.36069 7.63997 6.41563 7.7222C6.47057 7.80442 6.4999 7.90109 6.4999 7.99998C6.4999 8.13259 6.44722 8.25977 6.35345 8.35353C6.25968 8.4473 6.13251 8.49998 5.9999 8.49998ZM5.9999 4.49998C5.07227 4.50318 4.18317 4.87139 3.5249 5.52498C3.43177 5.61866 3.3795 5.74539 3.3795 5.87748C3.3795 6.00957 3.43177 6.1363 3.5249 6.22998C3.61858 6.32311 3.7453 6.37538 3.8774 6.37538C4.00949 6.37538 4.13622 6.32311 4.2299 6.22998C4.46213 5.99716 4.738 5.81245 5.04173 5.68642C5.34546 5.56039 5.67106 5.49551 5.9999 5.49551C6.32873 5.49551 6.65434 5.56039 6.95807 5.68642C7.26179 5.81245 7.53767 5.99716 7.7699 6.22998C7.86221 6.32419 7.98801 6.3781 8.1199 6.37998C8.22134 6.38582 8.32216 6.36061 8.40892 6.30771C8.49568 6.25481 8.56427 6.17673 8.60554 6.08388C8.64681 5.99102 8.6588 5.88779 8.63993 5.78794C8.62106 5.6881 8.57221 5.59637 8.4999 5.52498C8.17091 5.19833 7.7808 4.93969 7.35185 4.76382C6.9229 4.58795 6.4635 4.4983 5.9999 4.49998ZM5.9999 2.49998C4.54189 2.50386 3.14419 3.08234 2.1099 4.10998C2.06328 4.1566 2.0263 4.21195 2.00107 4.27286C1.97584 4.33377 1.96285 4.39905 1.96285 4.46498C1.96285 4.59813 2.01575 4.72583 2.1099 4.81998C2.20405 4.91413 2.33175 4.96703 2.4649 4.96703C2.59805 4.96703 2.72575 4.91413 2.8199 4.81998C3.66365 3.97728 4.80739 3.50394 5.9999 3.50394C7.1924 3.50394 8.33615 3.97728 9.1799 4.81998C9.22662 4.86632 9.28203 4.90298 9.34294 4.92787C9.40386 4.95275 9.46909 4.96536 9.5349 4.96498C9.6007 4.96536 9.66593 4.95275 9.72685 4.92787C9.78777 4.90298 9.84318 4.86632 9.8899 4.81998C9.93676 4.7735 9.97396 4.7182 9.99934 4.65727C10.0247 4.59634 10.0378 4.53099 10.0378 4.46498C10.0378 4.39898 10.0247 4.33362 9.99934 4.27269C9.97396 4.21176 9.93676 4.15646 9.8899 4.10998C8.85561 3.08234 7.4579 2.50386 5.9999 2.49998ZM11.3049 2.69498C10.6084 1.99803 9.78139 1.44516 8.87113 1.06795C7.96088 0.690734 6.98522 0.496582 5.9999 0.496582C5.01458 0.496582 4.03892 0.690734 3.12866 1.06795C2.21841 1.44516 1.3914 1.99803 0.694897 2.69498C0.600745 2.78913 0.547852 2.91683 0.547852 3.04998C0.547852 3.18313 0.600745 3.31083 0.694897 3.40498C0.789049 3.49913 0.916746 3.55203 1.0499 3.55203C1.18305 3.55203 1.31075 3.49913 1.4049 3.40498C2.62379 2.18673 4.27658 1.50237 5.9999 1.50237C7.72322 1.50237 9.37601 2.18673 10.5949 3.40498C10.6414 3.45185 10.6967 3.48904 10.7576 3.51443C10.8185 3.53981 10.8839 3.55288 10.9499 3.55288C11.0159 3.55288 11.0813 3.53981 11.1422 3.51443C11.2031 3.48904 11.2584 3.45185 11.3049 3.40498C11.3518 3.3585 11.389 3.3032 11.4143 3.24227C11.4397 3.18134 11.4528 3.11599 11.4528 3.04998C11.4528 2.98398 11.4397 2.91862 11.4143 2.85769C11.389 2.79676 11.3518 2.74146 11.3049 2.69498V2.69498Z" fill="black"/>
</svg>
