<?xml version="1.0" encoding="utf-8"?>
<!-- Generator: Adobe Illustrator 16.0.0, SVG Export Plug-In . SVG Version: 6.00 Build 0)  -->
<!DOCTYPE svg PUBLIC "-//W3C//DTD SVG 1.1//EN" "http://www.w3.org/Graphics/SVG/1.1/DTD/svg11.dtd">
<svg version="1.1" id="Layer_1" xmlns="http://www.w3.org/2000/svg" xmlns:xlink="http://www.w3.org/1999/xlink" x="0px" y="0px"
	 width="25px" height="15px" viewBox="0 0 25 15" enable-background="new 0 0 25 15" xml:space="preserve">
<path fill="#005AEB" d="M20.789,4.076c0.539,0,0.977-0.427,0.977-0.958V2.114c0-0.532-0.437-0.96-0.977-0.96
	s-0.977,0.428-0.977,0.96v1.004C19.813,3.649,20.25,4.076,20.789,4.076z"/>
<path fill="#005AEB" d="M24.258,2.815h-1.966v0.488c0,0.806-0.665,1.463-1.486,1.463S19.32,4.109,19.32,3.303V2.815h-3.967v0.488
	c0,0.806-0.666,1.463-1.486,1.463s-1.486-0.656-1.486-1.463V2.815l-1.983-0.024V15h0.992h11.892l0.99-0.002L24.258,2.815z
	 M23.281,14.027H11.39V6.228h11.892V14.027L23.281,14.027z"/>
<path fill="#005AEB" d="M13.852,4.076c0.54,0,0.978-0.427,0.978-0.958V2.114c0-0.533-0.438-0.96-0.978-0.96
	c-0.539,0-0.975,0.428-0.975,0.96v1.004C12.876,3.649,13.313,4.076,13.852,4.076z"/>
<path fill="#005AEB" d="M22.191,7.385h-9.712V8.77h9.712V7.385z"/>
<path fill="#005AEB" d="M22.191,9.461h-9.712v1.385h9.712V9.461z"/>
<path fill="#005AEB" d="M22.191,11.539h-9.712v1.385h9.712V11.539z"/>
<path fill="#005AEB" d="M9.908,6.32C9.747,5.183,9.352,3.604,8.393,2.281c-0.027-0.037-0.08-0.045-0.117-0.019
	C6.904,3.257,6.115,4.7,5.686,5.779c-0.301,0.757-0.47,1.438-0.558,1.877C5.119,7.702,5.15,7.745,5.196,7.75l4.747,0.546
	c0.047,0.006,0.088-0.029,0.088-0.076C10.037,7.781,10.019,7.103,9.908,6.32z"/>
<path fill="#005AEB" d="M7.232,1.992c-1.283,0.031-2.596,0.451-3.706,1.2c-1.23,0.831-2.047,1.947-2.344,3.185
	C1.157,6.479,1.217,6.583,1.318,6.615l2.945,0.938c0.091-0.472,0.271-1.222,0.606-2.07C5.435,4.055,6.241,2.868,7.232,1.992z"/>
<path fill="#005AEB" d="M8.183,1.171l0.591,0.068c0.05,0.006,0.101,0.012,0.151,0.019L9.029,0.49
	c0.032-0.236-0.134-0.454-0.372-0.486C8.42-0.028,8.202,0.138,8.17,0.375L8.065,1.159C8.104,1.163,8.144,1.167,8.183,1.171z"/>
<path fill="#005AEB" d="M7.297,13.069l0.246-1.792l0.035,0.006c0.021,0.002,0.041,0.004,0.062,0.004
	c0.288,0,0.526-0.287,0.396-0.621c-0.049-0.127-0.167-0.215-0.301-0.234l-0.074-0.01l0.205-1.494l-0.86-0.099l-0.202,1.47
	l-0.048-0.006c-0.136-0.02-0.274,0.033-0.357,0.143c-0.231,0.305-0.044,0.673,0.269,0.717l0.019,0.004l-0.251,1.826
	c-0.449-0.035-0.908-0.056-1.378-0.056c-2.309,0-4.026,0.315-4.613,0.44c-0.128,0.027-0.22,0.14-0.22,0.27v0.856
	c0,0.153,0.124,0.276,0.277,0.276h14.228c0.152,0,0.276-0.123,0.276-0.276v-0.122c0-0.148-0.118-0.271-0.269-0.275
	C12.691,14.044,10.223,13.428,7.297,13.069z"/>
<path fill="#005AEB" d="M13.953,8.072c0.104-0.01,0.186-0.096,0.186-0.2c0.009-1.286-0.489-2.558-1.431-3.63
	c-0.877-0.998-2.054-1.708-3.308-2.015c0.688,1.107,1.156,2.468,1.37,3.994c0.124,0.883,0.138,1.631,0.128,2.098L13.953,8.072z"/>
</svg>
