<svg width="16" height="16" viewBox="0 0 16 16" fill="none" xmlns="http://www.w3.org/2000/svg">
<path d="M12.6667 1.33337H3.33334C2.8029 1.33337 2.2942 1.54409 1.91912 1.91916C1.54405 2.29423 1.33334 2.80294 1.33334 3.33337V4.11337C1.33324 4.38867 1.38998 4.66102 1.5 4.91337V4.95337C1.59419 5.16735 1.7276 5.36181 1.89334 5.52671L6 9.60671V14C5.99978 14.1133 6.02843 14.2248 6.08325 14.324C6.13807 14.4231 6.21726 14.5067 6.31334 14.5667C6.41943 14.6325 6.54185 14.6671 6.66667 14.6667C6.77103 14.6661 6.87379 14.641 6.96667 14.5934L9.63334 13.26C9.74328 13.2046 9.83573 13.1199 9.90045 13.0152C9.96517 12.9104 9.99963 12.7898 10 12.6667V9.60671L14.08 5.52671C14.2457 5.36181 14.3791 5.16735 14.4733 4.95337V4.91337C14.5925 4.66299 14.6584 4.39056 14.6667 4.11337V3.33337C14.6667 2.80294 14.456 2.29423 14.0809 1.91916C13.7058 1.54409 13.1971 1.33337 12.6667 1.33337ZM8.86 8.86004C8.79822 8.92233 8.74933 8.99621 8.71616 9.07744C8.68298 9.15866 8.66616 9.24564 8.66667 9.33337V12.2534L7.33334 12.92V9.33337C7.33384 9.24564 7.31703 9.15866 7.28385 9.07744C7.25067 8.99621 7.20179 8.92233 7.14 8.86004L3.60667 5.33337H12.3933L8.86 8.86004ZM13.3333 4.00004H2.66667V3.33337C2.66667 3.15656 2.73691 2.98699 2.86193 2.86197C2.98696 2.73695 3.15653 2.66671 3.33334 2.66671H12.6667C12.8435 2.66671 13.0131 2.73695 13.1381 2.86197C13.2631 2.98699 13.3333 3.15656 13.3333 3.33337V4.00004Z" fill="#005AEB"/>
</svg>
