<svg width="24" height="24" viewBox="0 0 24 24" fill="none" xmlns="http://www.w3.org/2000/svg">
<path d="M11.7891 2C8.88129 2 6.51562 4.36566 6.51562 7.27344C6.51562 10.1812 8.88129 12.5469 11.7891 12.5469C14.6968 12.5469 17.0625 10.1812 17.0625 7.27344C17.0625 4.36566 14.6968 2 11.7891 2ZM11.7891 11.375C9.52746 11.375 7.6875 9.53504 7.6875 7.27344C7.6875 5.01184 9.52746 3.17188 11.7891 3.17188C14.0507 3.17188 15.8906 5.01184 15.8906 7.27344C15.8906 9.53504 14.0507 11.375 11.7891 11.375Z" fill="#2E2E2E"/>
<path d="M18.3502 15.992C16.9065 14.5261 14.9925 13.7188 12.9609 13.7188H10.6172C8.58563 13.7188 6.67164 14.5261 5.22789 15.992C3.79121 17.4507 3 19.3763 3 21.4141C3 21.7377 3.26234 22 3.58594 22H19.9922C20.3158 22 20.5781 21.7377 20.5781 21.4141C20.5781 19.3763 19.7869 17.4507 18.3502 15.992ZM4.19766 20.8281C4.49121 17.5045 7.25824 14.8906 10.6172 14.8906H12.9609C16.3199 14.8906 19.0869 17.5045 19.3805 20.8281H4.19766Z" fill="#2E2E2E"/>
</svg>
