<svg width="16" height="16" viewBox="0 0 16 16" fill="none" xmlns="http://www.w3.org/2000/svg">
<rect width="16" height="16" fill="#F5F5F5"/>
<path d="M7.99999 13.3333C8.36818 13.3333 8.66666 13.0349 8.66666 12.6667C8.66666 12.2985 8.36818 12 7.99999 12C7.63181 12 7.33333 12.2985 7.33333 12.6667C7.33333 13.0349 7.63181 13.3333 7.99999 13.3333Z" stroke="#A3A3A3" stroke-linecap="round" stroke-linejoin="round"/>
<path d="M7.99999 8.66671C8.36818 8.66671 8.66666 8.36823 8.66666 8.00004C8.66666 7.63185 8.36818 7.33337 7.99999 7.33337C7.63181 7.33337 7.33333 7.63185 7.33333 8.00004C7.33333 8.36823 7.63181 8.66671 7.99999 8.66671Z" stroke="#A3A3A3" stroke-linecap="round" stroke-linejoin="round"/>
<path d="M7.99999 3.99996C8.36818 3.99996 8.66666 3.70148 8.66666 3.33329C8.66666 2.9651 8.36818 2.66663 7.99999 2.66663C7.63181 2.66663 7.33333 2.9651 7.33333 3.33329C7.33333 3.70148 7.63181 3.99996 7.99999 3.99996Z" stroke="#A3A3A3" stroke-linecap="round" stroke-linejoin="round"/>
</svg>
