<?xml version="1.0" encoding="utf-8"?>
<!-- Generator: Adobe Illustrator 16.0.0, SVG Export Plug-In . SVG Version: 6.00 Build 0)  -->
<!DOCTYPE svg PUBLIC "-//W3C//DTD SVG 1.1//EN" "http://www.w3.org/Graphics/SVG/1.1/DTD/svg11.dtd">
<svg version="1.1" id="Layer_1" xmlns="http://www.w3.org/2000/svg" xmlns:xlink="http://www.w3.org/1999/xlink" x="0px" y="0px"
	 width="22px" height="22px" viewBox="0 0 22 22" enable-background="new 0 0 22 22" xml:space="preserve">
<path fill="#005AEB" d="M14.887,7.113C13.814,6.041,12.412,5.5,11,5.5V11l-3.887,3.887c2.145,2.145,5.629,2.145,7.783,0
	C17.041,12.742,17.041,9.258,14.887,7.113z M11,1.833C5.94,1.833,1.833,5.94,1.833,11c0,5.061,4.106,9.166,9.167,9.166
	c5.061,0,9.166-4.105,9.166-9.166C20.166,5.94,16.061,1.833,11,1.833z M11,18.334c-4.052,0-7.333-3.282-7.333-7.334
	S6.948,3.667,11,3.667S18.334,6.948,18.334,11S15.052,18.334,11,18.334z"/>
</svg>
