<svg xmlns="http://www.w3.org/2000/svg" width="24" height="24" fill="none"  xmlns:v="https://vecta.io/nano"><g clip-path="url(#A)"><path d="M12 2C5.935 2 1 6.935 1 13s4.935 11 11 11 11-4.935 11-11S18.065 2 12 2zm.716 17.527c-.523.087-1.562.305-2.091.348-.447.037-.869-.219-1.126-.586s-.32-.837-.167-1.259l2.079-5.718H9.25c-.002-1.191.892-2.067 2.035-2.404.545-.16 1.562-.38 2.09-.346.317.02.869.219 1.126.586s.32.837.167 1.259l-2.079 5.718h2.161c.001 1.19-.86 2.206-2.034 2.401zm.659-10.652C12.616 8.875 12 8.259 12 7.5s.616-1.375 1.375-1.375 1.375.616 1.375 1.375-.616 1.375-1.375 1.375z" fill="#005aeb"/></g><defs><clipPath id="A"><path fill="#fff" transform="translate(1 2)" d="M0 0h22v22H0z"/></clipPath></defs></svg>