<svg width="24" height="24" viewBox="0 0 24 24" fill="none" xmlns="http://www.w3.org/2000/svg">
<path d="M20.5938 12.3438C20.5938 12.2526 20.5575 12.1651 20.4931 12.1007C20.4286 12.0362 20.3412 12 20.25 12H3.75C3.65883 12 3.5714 12.0362 3.50693 12.1007C3.44247 12.1651 3.40625 12.2526 3.40625 12.3438V13.375H20.5938V12.3438Z" fill="#DEF1FF"/>
<path d="M6.15625 7.1875H6.84375V11.3125H6.15625V7.1875Z" fill="#DEF1FF"/>
<path d="M4.09375 16.125C4.2836 16.125 4.4375 15.9711 4.4375 15.7812C4.4375 15.5914 4.2836 15.4375 4.09375 15.4375C3.9039 15.4375 3.75 15.5914 3.75 15.7812C3.75 15.9711 3.9039 16.125 4.09375 16.125Z" fill="#DEF1FF"/>
<path d="M16.8125 19.9062V21.625H7.1875V19.9062C7.1875 19.8151 7.22372 19.7276 7.28818 19.6632C7.35265 19.5987 7.44008 19.5625 7.53125 19.5625H16.4688C16.5599 19.5625 16.6474 19.5987 16.7118 19.6632C16.7763 19.7276 16.8125 19.8151 16.8125 19.9062Z" fill="#DEF1FF"/>
<path d="M6.84375 16.125C7.0336 16.125 7.1875 15.9711 7.1875 15.7812C7.1875 15.5914 7.0336 15.4375 6.84375 15.4375C6.6539 15.4375 6.5 15.5914 6.5 15.7812C6.5 15.9711 6.6539 16.125 6.84375 16.125Z" fill="#DEF1FF"/>
<path d="M7.53125 6.84375V11.3125H16.4688V6.84375C16.4688 6.75258 16.505 6.66515 16.5694 6.60068C16.6339 6.53622 16.7213 6.5 16.8125 6.5H17.1562V2.71875C17.1562 2.62758 17.12 2.54015 17.0556 2.47568C16.9911 2.41122 16.9037 2.375 16.8125 2.375H7.1875C7.09633 2.375 7.0089 2.41122 6.94443 2.47568C6.87997 2.54015 6.84375 2.62758 6.84375 2.71875V6.5H7.1875C7.27867 6.5 7.3661 6.53622 7.43057 6.60068C7.49503 6.66515 7.53125 6.75258 7.53125 6.84375Z" fill="#DEF1FF"/>
<path d="M17.5 15.4375H20.25V16.125H17.5V15.4375Z" fill="#DEF1FF"/>
<path d="M21.2812 14.0625H2.71875C2.62758 14.0625 2.54015 14.0987 2.47568 14.1632C2.41122 14.2276 2.375 14.3151 2.375 14.4062V21.2812C2.375 21.3724 2.41122 21.4599 2.47568 21.5243C2.54015 21.5888 2.62758 21.625 2.71875 21.625H6.5V19.9062C6.50082 19.633 6.60973 19.3712 6.80295 19.1779C6.99617 18.9847 7.258 18.8758 7.53125 18.875H16.4688C16.742 18.8758 17.0038 18.9847 17.1971 19.1779C17.3903 19.3712 17.4992 19.633 17.5 19.9062V21.625H21.2812C21.3724 21.625 21.4599 21.5888 21.5243 21.5243C21.5888 21.4599 21.625 21.3724 21.625 21.2812V14.4062C21.625 14.3151 21.5888 14.2276 21.5243 14.1632C21.4599 14.0987 21.3724 14.0625 21.2812 14.0625ZM4.09375 16.8125C3.88979 16.8125 3.69041 16.752 3.52082 16.6387C3.35123 16.5254 3.21905 16.3643 3.141 16.1759C3.06295 15.9875 3.04252 15.7801 3.08232 15.5801C3.12211 15.38 3.22032 15.1963 3.36455 15.052C3.50877 14.9078 3.69252 14.8096 3.89256 14.7698C4.09261 14.73 4.29996 14.7504 4.48839 14.8285C4.67683 14.9066 4.83789 15.0387 4.9512 15.2083C5.06452 15.3779 5.125 15.5773 5.125 15.7812C5.125 16.0548 5.01635 16.3171 4.82295 16.5105C4.62956 16.7039 4.36725 16.8125 4.09375 16.8125ZM6.84375 16.8125C6.63979 16.8125 6.44041 16.752 6.27082 16.6387C6.10123 16.5254 5.96905 16.3643 5.891 16.1759C5.81295 15.9875 5.79252 15.7801 5.83231 15.5801C5.87211 15.38 5.97032 15.1963 6.11455 15.052C6.25877 14.9078 6.44252 14.8096 6.64256 14.7698C6.84261 14.73 7.04996 14.7504 7.23839 14.8285C7.42683 14.9066 7.58789 15.0387 7.7012 15.2083C7.81452 15.3779 7.875 15.5773 7.875 15.7812C7.875 16.0548 7.76635 16.3171 7.57295 16.5105C7.37956 16.7039 7.11725 16.8125 6.84375 16.8125ZM15.0938 16.8125H8.90625V16.125H15.0938V16.8125ZM15.0938 15.4375H8.90625V14.75H15.0938V15.4375ZM20.9375 16.4688C20.9375 16.5599 20.9013 16.6474 20.8368 16.7118C20.7724 16.7763 20.6849 16.8125 20.5938 16.8125H17.1562C17.0651 16.8125 16.9776 16.7763 16.9132 16.7118C16.8487 16.6474 16.8125 16.5599 16.8125 16.4688V15.0938C16.8125 15.0026 16.8487 14.9151 16.9132 14.8507C16.9776 14.7862 17.0651 14.75 17.1562 14.75H20.5938C20.6849 14.75 20.7724 14.7862 20.8368 14.8507C20.9013 14.9151 20.9375 15.0026 20.9375 15.0938V16.4688Z" fill="#DEF1FF"/>
<path d="M17.1562 7.1875H17.8438V11.3125H17.1562V7.1875Z" fill="#DEF1FF"/>
</svg>
