<svg width="10" height="11" viewBox="0 0 10 11" fill="none" xmlns="http://www.w3.org/2000/svg">
<g clip-path="url(#clip0)">
<path d="M8.54166 4.25H7.91666V3.41666C7.91666 1.8084 6.60828 0.5 5 0.5C3.39172 0.5 2.08334 1.8084 2.08334 3.41666V4.25H1.45834C1.34318 4.25 1.25 4.34318 1.25 4.45834V9.66668C1.25 10.1263 1.62373 10.5 2.08334 10.5H7.91668C8.37627 10.5 8.75 10.1263 8.75 9.66666V4.45834C8.75 4.34318 8.65682 4.25 8.54166 4.25ZM5.62379 8.60201C5.63029 8.6608 5.61139 8.7198 5.57191 8.76396C5.53244 8.80811 5.47588 8.83334 5.41668 8.83334H4.58334C4.52414 8.83334 4.46758 8.80811 4.42811 8.76396C4.38863 8.71982 4.36971 8.66082 4.37623 8.60201L4.50766 7.42018C4.29424 7.26494 4.16668 7.01937 4.16668 6.75C4.16668 6.29041 4.54041 5.91666 5.00002 5.91666C5.45963 5.91666 5.83336 6.29039 5.83336 6.75C5.83336 7.01937 5.7058 7.26494 5.49238 7.42018L5.62379 8.60201ZM6.66666 4.25H3.33334V3.41666C3.33334 2.49768 4.08102 1.75 5 1.75C5.91898 1.75 6.66666 2.49768 6.66666 3.41666V4.25Z" fill="white"/>
</g>
<defs>
<clipPath id="clip0">
<rect width="10" height="10" fill="white" transform="translate(0 0.5)"/>
</clipPath>
</defs>
</svg>
