<svg xmlns="http://www.w3.org/2000/svg" width="23" height="17" fill="#005AEB"  xmlns:v="https://vecta.io/nano"><path d="M10.739.886l-.399.041c-2.956.322-5.751 1.913-8.179 4.656C1.457 6.379.629 7.52.145 8.356L0 8.609l.136.233c.608 1.046 1.48 2.205 2.454 3.253a21.26 21.26 0 0 0 1.72 1.584c2.004 1.574 4.019 2.421 6.257 2.633.458.043 1.401.043 1.875 0 3.374-.307 6.501-2.209 9.103-5.533.439-.56 1.007-1.392 1.309-1.919L23 8.607l-.136-.233c-.784-1.349-1.969-2.829-3.167-3.958-2.236-2.105-4.645-3.27-7.259-3.512a18.64 18.64 0 0 0-1.699-.017zm1.384 2.797c.91.086 1.856.434 2.628.971 1.032.715 1.769 1.796 2.027 2.972a4.05 4.05 0 0 1 .101.984c0 .8-.181 1.513-.561 2.213-1.133 2.086-3.684 3.167-6.131 2.598-2.069-.482-3.641-2.053-3.998-3.992a5.08 5.08 0 0 1 0-1.641c.321-1.757 1.68-3.255 3.482-3.843a5.74 5.74 0 0 1 2.452-.262zm-1.084 2.449c-.575.102-1.06.335-1.462.702a2.42 2.42 0 0 0-.655.968 2.37 2.37 0 0 0 0 1.61c.291.8 1.014 1.414 1.917 1.63a3.42 3.42 0 0 0 1.039.052c1.105-.149 1.976-.867 2.271-1.874.056-.195.061-.246.061-.612s-.005-.419-.061-.607c-.274-.934-1.011-1.604-2.02-1.837a3.92 3.92 0 0 0-1.091-.032z"/></svg>