<svg xmlns="http://www.w3.org/2000/svg" width="24" height="24" fill="none"  xmlns:v="https://vecta.io/nano"><path d="M5.625 12c0-1.189.328-2.303.897-3.257V4.698H2.476A11.91 11.91 0 0 0 0 12a11.91 11.91 0 0 0 2.476 7.302h4.046v-4.046c-.569-.954-.897-2.068-.897-3.257z" fill="#fbbd00"/><path d="M12 18.375l-2.812 2.813L12 24a11.91 11.91 0 0 0 7.302-2.476v-4.041h-4.041c-.962.571-2.081.892-3.261.892z" fill="#0f9d58"/><path d="M6.522 15.257l-4.046 4.046c.318.413.664.808 1.039 1.183A11.92 11.92 0 0 0 12 24v-5.625c-2.326 0-4.365-1.253-5.478-3.118z" fill="#31aa52"/><path d="M24 12c0-.73-.066-1.461-.197-2.174l-.105-.577H12v5.625h5.693c-.553 1.1-1.403 1.997-2.432 2.608l4.041 4.041c.413-.318.808-.664 1.183-1.039A11.92 11.92 0 0 0 24 12z" fill="#3c79e6"/><path d="M16.508 7.492l.497.497 3.978-3.977-.497-.497A11.92 11.92 0 0 0 12 0L9.188 2.813 12 5.625c1.703 0 3.304.663 4.508 1.867z" fill="#cf2d48"/><path d="M12 5.625V0a11.92 11.92 0 0 0-8.485 3.515 12.18 12.18 0 0 0-1.039 1.183l4.046 4.046C7.635 6.878 9.674 5.625 12 5.625z" fill="#eb4132"/></svg>