<svg xmlns="http://www.w3.org/2000/svg" width="64" height="42" fill="none"  xmlns:v="https://vecta.io/nano"><g fill-rule="evenodd"><path d="M0 3a3 3 0 0 1 3-3h58a3 3 0 0 1 3 3v36a3 3 0 0 1-3 3H3a3 3 0 0 1-3-3V3z" fill="url(#B)"/><path d="M0 3a3 3 0 0 1 3-3h58a3 3 0 0 1 3 3v36a3 3 0 0 1-3 3H3a3 3 0 0 1-3-3V3z" fill="#e5e5e5" fill-opacity=".01"/></g><mask id="A" maskUnits="userSpaceOnUse" x="7" y="15" width="51" height="12" fill="#000"><path fill="#fff" d="M7 15h51v12H7z"/><path fill-rule="evenodd" d="M14.657 21.908l1.334-2.936h.029l1.291 2.936h-2.653zM14.872 17L11 25h2.266l.803-1.782h3.829L18.672 25h2.337l-3.829-8h-2.309zm7.027 0v8h2.108v-5.613h.029L26.545 25h1.735l2.51-5.669h.029V25h2.108v-8h-3.169l-2.266 5.501h-.029L25.068 17h-3.169zm13.007 0v8h7.773v-1.479h-5.521V21.56h4.962v-1.367h-4.962v-1.714h5.406V17h-7.658zm11.802 3.81L43.137 25h2.524l2.28-2.767L50.179 25h2.682l-3.571-4.179L52.574 17h-2.467l-2.079 2.555L46.02 17h-2.61l3.298 3.81z"/></mask><path fill-rule="evenodd" d="M14.657 21.908l1.334-2.936h.029l1.291 2.936h-2.653zM14.872 17L11 25h2.266l.803-1.782h3.829L18.672 25h2.337l-3.829-8h-2.309zm7.027 0v8h2.108v-5.613h.029L26.545 25h1.735l2.51-5.669h.029V25h2.108v-8h-3.169l-2.266 5.501h-.029L25.068 17h-3.169zm13.007 0v8h7.773v-1.479h-5.521V21.56h4.962v-1.367h-4.962v-1.714h5.406V17h-7.658zm11.802 3.81L43.137 25h2.524l2.28-2.767L50.179 25h2.682l-3.571-4.179L52.574 17h-2.467l-2.079 2.555L46.02 17h-2.61l3.298 3.81z" fill="#1793c0" fill-opacity=".01"/><path d="M14.657 21.908l-1.821-.827-1.284 2.827h3.105v-2zm1.334-2.936v-2h-1.288l-.533 1.173 1.821.827zm.029 0l1.831-.805-.525-1.195h-1.305v2zm1.291 2.936v2h3.064l-1.233-2.805-1.831.805zM14.872 17v-2h-1.254l-.546 1.129 1.8.871zM11 25l-1.8-.871L7.81 27H11v-2zm2.266 0v2h1.292l.531-1.178L13.266 25zm.803-1.782v-2h-1.292l-.531 1.178 1.823.822zm3.829 0l1.834-.797-.523-1.203h-1.311v2zM18.672 25l-1.834.797.523 1.203h1.311v-2zm2.337 0v2h3.175l-1.37-2.863L21.01 25zm-3.829-8l1.804-.863L18.441 15h-1.26v2zm4.718 0v-2h-2v2h2zm0 8h-2v2h2v-2zm2.108 0v2h2v-2h-2zm0-5.613v-2h-2v2h2zm.029 0l1.826-.816-.529-1.184h-1.297v2zM26.545 25l-1.826.816.529 1.184h1.297v-2zm1.735 0v2h1.302l.527-1.19L28.281 25zm2.51-5.669v-2h-1.302l-.527 1.191 1.829.809zm.029 0h2v-2h-2v2zm0 5.669h-2v2h2v-2zm2.108 0v2h2v-2h-2zm0-8h2v-2h-2v2zm-3.169 0v-2h-1.339l-.51 1.238 1.849.762zm-2.266 5.501v2h1.339l.51-1.238-1.849-.762zm-.029 0l-1.834.798.523 1.202h1.311v-2zM25.068 17l1.834-.798L26.379 15h-1.311v2zm9.838 0v-2h-2v2h2zm0 8h-2v2h2v-2zm7.773 0v2h2v-2h-2zm0-1.479h2v-2h-2v2zm-5.521 0h-2v2h2v-2zm0-1.961v-2h-2v2h2zm4.962 0v2h2v-2h-2zm0-1.367h2v-2h-2v2zm-4.962 0h-2v2h2v-2zm0-1.714v-2h-2v2h2zm5.406 0v2h2v-2h-2zm0-1.479h2v-2h-2v2zm4.145 3.81l1.522 1.297 1.114-1.308L48.22 19.5l-1.512 1.309zM43.137 25l-1.522-1.297L38.806 27h4.332v-2zm2.524 0v2h.944l.6-.728L45.661 25zm2.28-2.767l1.555-1.257-1.541-1.906-1.558 1.891 1.544 1.272zM50.179 25l-1.555 1.257.6.743h.955v-2zm2.682 0v2H57.2l-2.819-3.299L52.86 25zm-3.571-4.179l-1.517-1.304-1.117 1.3 1.113 1.303 1.521-1.299zM52.574 17l1.517 1.304L56.93 15h-4.356v2zm-2.467 0v-2h-.951l-.6.737L50.107 17zm-2.079 2.555l-1.572 1.236L48 22.756l1.578-1.939-1.551-1.263zM46.02 17l1.572-1.236-.601-.764h-.972v2zm-2.61 0v-2h-4.377l2.865 3.309L43.41 17zm-26.932 5.735l1.334-2.936-3.642-1.655-1.334 2.936 3.642 1.654zm-.487-1.763h.029v-4h-.029v4zm-1.802-1.195l1.291 2.936 3.662-1.61-1.291-2.936-3.662 1.61zm3.121.131h-2.653v4h2.653v-4zm-4.238-3.779l-3.872 8 3.6 1.743 3.872-8-3.6-1.743zM11 27h2.266v-4H11v4zm4.089-1.178l.803-1.781-3.647-1.644-.803 1.782 3.647 1.644zm-1.02-.603h3.829v-4h-3.829v4zm1.995-1.203l.774 1.782 3.668-1.595-.774-1.782-3.668 1.595zM18.672 27h2.337v-4h-2.337v4zm4.142-2.863l-3.829-8-3.608 1.727 3.829 8 3.608-1.727zM17.181 15h-2.309v4h2.309v-4zm2.718 2v8h4v-8h-4zm2 10h2.108v-4h-2.108v4zm4.108-2v-5.613h-4V25h4zm-2-3.613h.029v-4h-.029v4zm-1.797-1.184l2.51 5.613 3.652-1.633-2.51-5.613-3.652 1.633zM26.545 27h1.735v-4h-1.735v4zm3.564-1.19l2.51-5.669-3.658-1.619-2.51 5.669 3.658 1.619zm.681-4.479h.029v-4h-.029v4zm-1.971-2V25h4v-5.669h-4zm2 7.669h2.108v-4h-2.108v4zm4.108-2v-8h-4v8h4zm-2-10h-3.169v4h3.169v-4zm-5.019 1.238l-2.266 5.501 3.699 1.523 2.266-5.501-3.699-1.523zm-.416 4.263h-.029v4h.029v-4zm1.805 1.202l-2.395-5.501-3.668 1.597 2.395 5.501 3.668-1.597zM25.068 15h-3.169v4h3.169v-4zm7.838 2v8h4v-8h-4zm2 10h7.773v-4h-7.773v4zm9.773-2v-1.479h-4V25h4zm-2-3.479h-5.521v4h5.521v-4zm-3.521 2V21.56h-4v1.961h4zm-2 .039h4.962v-4h-4.962v4zm6.962-2v-1.367h-4v1.367h4zm-2-3.367h-4.962v4h4.962v-4zm-2.962 2v-1.714h-4v1.714h4zm-2 .286h5.406v-4h-5.406v4zm7.406-2V17h-4v1.479h4zm-2-3.479h-7.658v4h7.658v-4zm2.622 4.512l-3.571 4.191 3.044 2.594 3.571-4.19-3.044-2.594zM43.137 27h2.524v-4h-2.524v4zm4.068-.728l2.28-2.767-3.087-2.544-2.28 2.768 3.087 2.544zm-.819-2.782l2.237 2.768 3.111-2.515-2.237-2.767-3.111 2.515zM50.179 27h2.682v-4h-2.682v4zm4.202-3.299l-3.571-4.179-3.041 2.598 3.571 4.179 3.041-2.598zm-3.575-1.576l3.284-3.821-3.033-2.607-3.284 3.821 3.033 2.607zM52.574 15h-2.467v4h2.467v-4zm-4.018.737l-2.079 2.555 3.102 2.525 2.079-2.555-3.102-2.525zm1.044 2.581l-2.008-2.555-3.145 2.472 2.008 2.555 3.145-2.472zM46.02 15h-2.61v4h2.61v-4zm-4.122 3.309l3.298 3.81L48.22 19.5l-3.298-3.809-3.024 2.618z" fill="#fff" mask="url(#A)"/><defs><radialGradient id="B" cx="0" cy="0" r="1" gradientUnits="userSpaceOnUse" gradientTransform="translate(21.4922 7.96094) rotate(90) scale(42 64)"><stop stop-color="#71c8f2"/><stop offset="1" stop-color="#0071bd"/></radialGradient></defs></svg>