<svg width="16" height="16" viewBox="0 0 16 16" fill="none" xmlns="http://www.w3.org/2000/svg">
<path d="M5.00012 7.99994L4.29301 7.29283L3.58591 7.99994L4.29301 8.70704L5.00012 7.99994ZM11.7072 2.70705C12.0978 2.31652 12.0978 1.68336 11.7072 1.29283C11.3167 0.902308 10.6835 0.902308 10.293 1.29283L11.7072 2.70705ZM10.293 14.707C10.6835 15.0976 11.3167 15.0976 11.7072 14.707C12.0978 14.3165 12.0978 13.6834 11.7072 13.2928L10.293 14.707ZM5.70723 8.70705L11.7072 2.70705L10.293 1.29283L4.29301 7.29283L5.70723 8.70705ZM11.7072 13.2928L5.70723 7.29283L4.29301 8.70704L10.293 14.707L11.7072 13.2928Z" fill="#828282"/>
</svg>
