<svg width="16" height="16" viewBox="0 0 16 16" fill="none" xmlns="http://www.w3.org/2000/svg">
<path d="M10.9999 7.99994L11.707 8.70705L12.4141 7.99994L11.707 7.29283L10.9999 7.99994ZM4.29277 13.2928C3.90225 13.6834 3.90225 14.3165 4.29277 14.707C4.6833 15.0976 5.31646 15.0976 5.70698 14.707L4.29277 13.2928ZM5.70698 1.29283C5.31646 0.902308 4.6833 0.902308 4.29277 1.29283C3.90225 1.68336 3.90225 2.31652 4.29277 2.70705L5.70698 1.29283ZM10.2928 7.29283L4.29277 13.2928L5.70698 14.707L11.707 8.70705L10.2928 7.29283ZM4.29277 2.70705L10.2928 8.70705L11.707 7.29283L5.70698 1.29283L4.29277 2.70705Z" fill="#005AEB"/>
</svg>
