<svg width="16" height="16" viewBox="0 0 16 16" fill="none" xmlns="http://www.w3.org/2000/svg">
<g clip-path="url(#clip0)">
<path d="M15.1787 3.0951C15.1366 2.99697 15.0403 2.93322 14.9337 2.93322H11.3016L11.9389 1.28333L14.4768 0.521982C14.6179 0.479856 14.6979 0.331043 14.6558 0.189979C14.6137 0.0489156 14.4651 -0.0305538 14.3238 0.0110403L11.6571 0.811047C11.576 0.835578 11.5112 0.896641 11.4827 0.97611L10.728 2.93319H5.04823C4.91651 1.88252 4.01941 1.06652 2.93356 1.06652C1.75727 1.06652 0.800198 2.02359 0.800198 3.19988C0.800198 4.37617 1.75727 5.33324 2.93356 5.33324C3.32715 5.33324 3.70156 5.22149 4.03438 5.01858L5.42933 6.48019L5.75521 6.31965C5.9888 6.23006 6.18533 6.10524 6.36293 5.93884C6.77012 5.52602 7.31012 5.3023 7.83682 5.33643C8.30641 5.36524 8.72642 5.59055 9.01923 5.97056C9.21764 6.27084 9.50617 6.36309 9.71552 6.39028C10.1523 6.44815 10.6406 6.27668 11.0222 5.93481C11.4558 5.51455 12.0681 5.29133 12.6566 5.34521L13.2547 5.34493L15.1265 3.3841C15.2003 3.30685 15.2208 3.19325 15.1787 3.0951ZM2.66687 2.93325C2.55993 2.93325 2.46368 2.99697 2.42152 3.09513C2.37965 3.19325 2.40018 3.30688 2.47405 3.38419L3.6586 4.62526C3.43512 4.7402 3.189 4.79992 2.93353 4.79992C2.05111 4.79992 1.33351 4.08232 1.33351 3.19991C1.33351 2.31778 2.05111 1.5999 2.93353 1.5999C3.725 1.5999 4.38394 2.1775 4.51113 2.93325H2.66687Z" fill="#002D75"/>
<path d="M11.3855 6.3249C10.8821 6.7761 10.2351 6.99503 9.64659 6.91932C9.19431 6.86038 8.81752 6.63319 8.58524 6.27984C8.39912 6.03984 8.11777 5.88812 7.80389 5.8689C7.43083 5.84543 7.04123 6.0105 6.73482 6.32062C6.49882 6.54222 6.2431 6.70381 5.96735 6.8081L5.81429 6.88357L7.33723 8.4793C7.70258 8.86196 7.9263 9.3473 7.98389 9.86678H9.61619C9.67378 9.3473 9.89753 8.86196 10.2628 8.4793L12.7461 5.87768H12.6322C12.1738 5.83609 11.7168 6.00437 11.3855 6.3249Z" fill="#002D75"/>
<path d="M12.0996 15.4859L10.9441 15.0235C10.1278 14.6971 9.60038 13.9182 9.60038 13.0392V10.4H8.00037V13.0392C8.00037 13.9182 7.47318 14.6971 6.65689 15.0238L5.50141 15.4859C5.38275 15.5334 5.31447 15.6582 5.33847 15.7838C5.36275 15.9094 5.4726 16.0001 5.60035 16.0001H12.0004C12.1284 16.0001 12.2383 15.9094 12.2623 15.7838C12.2865 15.6582 12.2182 15.5334 12.0996 15.4859Z" fill="#002D75"/>
</g>
<defs>
<clipPath id="clip0">
<rect width="16" height="16" fill="white"/>
</clipPath>
</defs>
</svg>
