<svg width="32" height="32" viewBox="0 0 32 32" fill="none" xmlns="http://www.w3.org/2000/svg">
<path d="M27.5951 3.42034H24.5014V2.23835C24.5014 1.89293 24.221 1.61255 23.8756 1.61255C23.5302 1.61255 23.2498 1.89293 23.2498 2.23835V3.42034H12.6821V2.23835C12.6821 1.89293 12.4018 1.61255 12.0563 1.61255C11.7109 1.61255 11.4305 1.89293 11.4305 2.23835V3.42034H8.12819C6.24754 3.42251 4.72361 4.94622 4.72144 6.82688V17.2557C4.72144 17.6012 5.00182 17.8813 5.34723 17.8813C5.69265 17.8813 5.97281 17.6012 5.97281 17.2557V13.1538H29.7505V26.9892C29.749 28.179 28.785 29.1431 27.5951 29.1444H8.12819C6.93837 29.1431 5.97434 28.179 5.97281 26.9892V23.3739C5.97281 23.0284 5.69265 22.7481 5.34723 22.7481C5.00182 22.7481 4.72144 23.0284 4.72144 23.3739V26.9892C4.72361 28.8699 6.24754 30.3938 8.12819 30.396H27.5951C29.4758 30.3938 30.9997 28.8699 31.0019 26.9892V6.82688C30.9997 4.94622 29.4758 3.42251 27.5951 3.42034ZM5.97281 11.9022V6.82688C5.97434 5.63706 6.93837 4.67302 8.12819 4.67171H11.4305V6.37074C10.4883 6.67831 9.90944 7.62517 10.0652 8.60421C10.2209 9.58304 11.0651 10.3035 12.0563 10.3035C13.0476 10.3035 13.8918 9.58304 14.0475 8.60421C14.2032 7.62517 13.6244 6.67831 12.6821 6.37074V4.67171H23.2498V6.37074C22.3075 6.67831 21.7287 7.62517 21.8844 8.60421C22.0402 9.58304 22.8844 10.3035 23.8756 10.3035C24.8668 10.3035 25.711 9.58304 25.8667 8.60421C26.0225 7.62517 25.4437 6.67831 24.5014 6.37074V4.67171H27.5951C28.785 4.67302 29.749 5.63706 29.7505 6.82688V11.9022H5.97281ZM12.0563 7.52228C12.4788 7.52228 12.8211 7.86465 12.8211 8.28707C12.8211 8.70927 12.4788 9.05186 12.0563 9.05186C11.6341 9.05186 11.2915 8.70927 11.2915 8.28707C11.2922 7.86487 11.6344 7.52271 12.0563 7.52228ZM23.8756 7.52228C24.298 7.52228 24.6404 7.86465 24.6404 8.28707C24.6404 8.70927 24.298 9.05186 23.8756 9.05186C23.4534 9.05186 23.1108 8.70927 23.1108 8.28707C23.1114 7.86487 23.4536 7.52271 23.8756 7.52228Z" fill="#828282"/>
<path d="M11.7535 23.14C11.5092 23.3844 11.5092 23.7803 11.7535 24.0248C11.9979 24.2693 12.3938 24.2693 12.6383 24.0248L15.9061 20.7571C16.1504 20.5128 16.1504 20.1167 15.9061 19.8724L12.6383 16.6047C12.3938 16.3602 11.9979 16.3602 11.7535 16.6047C11.5092 16.8492 11.5092 17.2451 11.7535 17.4895L13.953 19.6891H1.62824C1.28282 19.6891 1.00244 19.9692 1.00244 20.3146C1.00244 20.6603 1.28282 20.9404 1.62824 20.9404H13.953L11.7535 23.14Z" fill="#828282"/>
</svg>
