<svg width="32" height="32" viewBox="0 0 32 32" fill="none" xmlns="http://www.w3.org/2000/svg">
<path d="M15.8968 8.13623C13.9235 8.13623 12.3174 9.74238 12.3174 11.7157C12.3174 13.689 13.9235 15.2951 15.8968 15.2951C17.8701 15.2951 19.4763 13.689 19.4763 11.7157C19.4763 9.74238 17.8701 8.13623 15.8968 8.13623ZM15.8968 14.2724C14.487 14.2724 13.3401 13.1255 13.3401 11.7157C13.3401 10.3059 14.487 9.15893 15.8968 9.15893C17.3066 9.15893 18.4536 10.3059 18.4536 11.7157C18.4536 13.1255 17.3066 14.2724 15.8968 14.2724Z" fill="#0048BC"/>
<path d="M22.7403 4.87225C20.8882 3.02014 18.4255 2 15.8064 2C13.1867 2 10.7246 3.02014 8.87248 4.87225C5.4449 8.29932 5.01895 14.7474 7.95001 18.6542L15.8064 30L23.651 18.67C26.5938 14.7474 26.1679 8.29932 22.7403 4.87225ZM22.8216 18.0722L15.8064 28.2031L8.77993 18.0564C6.12142 14.5117 6.50237 8.68846 9.59604 5.5953C11.2549 3.93648 13.4603 3.0227 15.8064 3.0227C18.1525 3.0227 20.3579 3.93648 22.0173 5.5953C25.1109 8.68846 25.4919 14.5117 22.8216 18.0722Z" fill="#0048BC"/>
</svg>
