<?xml version="1.0" encoding="utf-8"?>
<!-- Generator: Adobe Illustrator 16.0.0, SVG Export Plug-In . SVG Version: 6.00 Build 0)  -->
<!DOCTYPE svg PUBLIC "-//W3C//DTD SVG 1.1//EN" "http://www.w3.org/Graphics/SVG/1.1/DTD/svg11.dtd">
<svg version="1.1" id="Layer_1" xmlns:v="https://vecta.io/nano"
	 xmlns="http://www.w3.org/2000/svg" xmlns:xlink="http://www.w3.org/1999/xlink" x="0px" y="0px" width="24px" height="24px"
	 viewBox="0 0 24 24" enable-background="new 0 0 24 24" xml:space="preserve">
<path fill="#F2C94C" d="M11.049,3.761c0.299-0.921,1.604-0.921,1.902,0l1.52,4.674c0.133,0.412,0.518,0.691,0.95,0.691h4.914
	c0.97,0,1.371,1.24,0.588,1.809l-3.976,2.889c-0.351,0.255-0.497,0.706-0.363,1.118l1.52,4.674c0.299,0.921-0.756,1.687-1.539,1.118
	l-3.977-2.89c-0.351-0.255-0.825-0.255-1.176,0l-3.976,2.89c-0.784,0.568-1.838-0.197-1.539-1.118l1.519-4.674
	c0.134-0.412-0.013-0.863-0.363-1.118l-3.976-2.889c-0.784-0.569-0.381-1.809,0.588-1.809h4.914c0.433,0,0.817-0.279,0.951-0.691
	L11.049,3.761z"/>
</svg>
