<svg width="32" height="32" viewBox="0 0 32 32" fill="none" xmlns="http://www.w3.org/2000/svg">
<path d="M26 32H6C2.686 32 0 29.314 0 26V6C0 2.686 2.686 0 6 0H26C29.314 0 32 2.686 32 6V26C32 29.314 29.314 32 26 32Z" fill="#2E2E2E"/>
<path d="M16.003 11.892C13.734 11.892 11.898 13.731 11.898 15.997C11.898 18.265 13.737 20.102 16.003 20.102C18.272 20.102 20.108 18.263 20.108 15.997C20.108 13.728 18.269 11.892 16.003 11.892ZM16.003 18.662C14.531 18.662 13.338 17.469 13.338 15.997C13.338 14.525 14.531 13.332 16.003 13.332C17.475 13.332 18.668 14.524 18.668 15.997C18.668 17.469 17.475 18.662 16.003 18.662Z" fill="white"/>
<path d="M19.299 8.05001C17.827 7.98101 14.181 7.98401 12.707 8.05001C11.412 8.11101 10.27 8.42401 9.34998 9.34401C7.81098 10.883 8.00798 12.956 8.00798 15.997C8.00798 19.109 7.83498 21.135 9.34998 22.65C10.894 24.194 12.998 23.992 16.003 23.992C19.686 23.992 23.716 24.345 23.95 19.293C24.019 17.82 24.016 14.175 23.95 12.702C23.818 9.89301 22.31 8.19001 19.299 8.05001ZM21.628 21.632C20.619 22.641 19.22 22.551 15.982 22.551C12.649 22.551 11.312 22.6 10.336 21.622C9.21198 20.504 9.41598 18.708 9.41598 15.987C9.41598 9.33701 9.79698 9.42201 15.972 9.42201L16.002 9.44201C22.624 9.44201 22.556 9.87101 22.556 15.997C22.557 19.291 22.62 20.636 21.628 21.632Z" fill="white"/>
<path d="M20.2711 12.689C20.8007 12.689 21.2301 12.2597 21.2301 11.73C21.2301 11.2004 20.8007 10.771 20.2711 10.771C19.7414 10.771 19.3121 11.2004 19.3121 11.73C19.3121 12.2597 19.7414 12.689 20.2711 12.689Z" fill="white"/>
</svg>
