<svg width="48" height="49" viewBox="0 0 48 49" fill="none" xmlns="http://www.w3.org/2000/svg">
<path d="M36.3138 5.32079L24.3111 0.066803C24.107 -0.0222677 23.875 -0.0222677 23.6709 0.066803L11.6682 5.32079C11.3767 5.448 11.1883 5.73574 11.1881 6.05376V18.6166C11.1924 21.4399 12.5491 24.0902 14.8369 25.7446L23.1324 31.7276C23.6447 32.0984 24.3373 32.0984 24.8496 31.7276L33.1451 25.7454C35.4329 24.091 36.7896 21.4407 36.7939 18.6174V6.05376C36.7937 5.73574 36.6053 5.448 36.3138 5.32079ZM35.1935 18.6174C35.1899 20.9266 34.0801 23.0944 32.2089 24.4475L23.991 30.3745L15.7731 24.4475C13.9019 23.0944 12.7921 20.9266 12.7885 18.6174V6.57708L23.991 1.67357L35.1935 6.57708V18.6174Z" fill="#005AEB"/>
<path d="M23.6715 3.56033L14.8695 7.41401C14.578 7.54121 14.3896 7.82895 14.3894 8.14697V18.6173C14.3919 20.4127 15.2548 22.098 16.7099 23.1496L23.5235 28.0643C23.803 28.2659 24.1802 28.2659 24.4597 28.0643L31.2732 23.1496C32.7284 22.098 33.5913 20.4127 33.5938 18.6173V8.14697C33.5936 7.82895 33.4051 7.54121 33.1136 7.41401L24.3117 3.56033C24.1076 3.47126 23.8756 3.47126 23.6715 3.56033ZM31.9934 8.66949V18.6173C31.9909 19.8985 31.3751 21.1009 30.337 21.8517L23.9916 26.4287L17.6461 21.8517C16.608 21.1009 15.9922 19.8985 15.9898 18.6173V8.66949L23.9916 5.1671L31.9934 8.66949Z" fill="#005AEB"/>
<path d="M6.61555 26.5655L4.88476 22.5214C4.51669 21.6877 3.73178 21.1136 2.82569 21.0155C1.91959 20.9173 1.02998 21.3101 0.491957 22.0457C-0.0460674 22.7813 -0.150766 23.7481 0.217301 24.5819L3.35321 31.4803C3.77628 32.4141 4.36482 33.2637 5.0904 33.988L10.0219 38.9203C9.74418 39.2147 9.58909 39.6039 9.58822 40.0086V46.41C9.58822 47.2939 10.3047 48.0104 11.1886 48.0104H19.9906C20.8744 48.0104 21.5909 47.2939 21.5909 46.41V40.0086C21.5909 39.1247 20.8744 38.4082 19.9906 38.4082V36.9191C20.0151 35.024 19.3968 33.1765 18.2366 31.6779C17.5563 30.7832 16.6293 30.1071 15.5696 29.7327C13.8843 29.0246 12.3343 28.0299 10.9885 26.7928C9.73933 25.7639 7.96467 25.6717 6.61555 26.5655ZM19.9906 46.41H11.1886V40.0086H19.9906V46.41ZM16.9875 32.6773C17.9202 33.8925 18.4145 35.3874 18.3902 36.9191V38.4082H11.7735L6.22186 32.8566C5.63223 32.2678 5.15378 31.5773 4.80954 30.8185L1.67363 23.9201C1.5398 23.6257 1.56471 23.2835 1.73976 23.0115C1.9148 22.7396 2.21601 22.5752 2.53943 22.575C2.92003 22.5747 3.264 22.8018 3.41322 23.152L5.20323 27.3265C5.67855 28.4403 6.36369 29.4522 7.22129 30.3072L10.8765 33.9632C11.0774 34.1712 11.3749 34.2547 11.6547 34.1814C11.9345 34.1082 12.1529 33.8897 12.2262 33.6099C12.2994 33.3302 12.216 33.0327 12.008 32.8318L8.35274 29.1757C7.98519 28.8091 7.65471 28.407 7.36612 27.9755C8.13456 27.3841 9.2096 27.4021 9.95791 28.0187C11.4537 29.3914 13.1825 30.4862 15.0631 31.2514C15.8292 31.53 16.4979 32.0254 16.9875 32.6773Z" fill="#005AEB"/>
<path d="M17.5904 42.4092H16.7902C16.3482 42.4092 15.99 42.7675 15.99 43.2094C15.99 43.6513 16.3482 44.0096 16.7902 44.0096H17.5904C18.0323 44.0096 18.3905 43.6513 18.3905 43.2094C18.3905 42.7675 18.0323 42.4092 17.5904 42.4092Z" fill="#005AEB"/>
<path d="M44.6298 31.4802L47.7658 24.5819C48.1513 23.7453 48.056 22.7658 47.5162 22.0194C46.9764 21.2729 46.0762 20.8754 45.1609 20.9794C44.2456 21.0835 43.4576 21.6729 43.0991 22.5214L41.3723 26.5503C40.0185 25.6609 38.2429 25.7583 36.9945 26.7904C35.6487 28.0275 34.0988 29.0221 32.4135 29.7302C31.3538 30.1046 30.4267 30.7808 29.7465 31.6755C28.5857 33.1747 27.9674 35.0231 27.9925 36.919V38.4082C27.1086 38.4082 26.3921 39.1247 26.3921 40.0085V46.41C26.3921 47.2938 27.1086 48.0103 27.9925 48.0103H36.7945C37.6783 48.0103 38.3948 47.2938 38.3948 46.41V40.0085C38.394 39.6038 38.2389 39.2147 37.9611 38.9203L42.8926 33.988C43.6182 33.2637 44.2068 32.4141 44.6298 31.4802ZM36.7945 46.41H27.9925V40.0085H36.7945V46.41ZM36.2095 38.4082H29.5928V36.919C29.5687 35.3876 30.063 33.8931 30.9955 32.6781C31.4841 32.0266 32.1512 31.531 32.916 31.2514C34.7968 30.4864 36.526 29.3916 38.0219 28.0186C38.7694 27.3974 39.8475 27.3764 40.6185 27.9682C40.3291 28.403 39.997 28.8077 39.6271 29.1765L35.9719 32.8325C35.6686 33.1465 35.673 33.6456 35.9816 33.9542C36.2903 34.2629 36.7894 34.2672 37.1033 33.964L40.7586 30.308C41.6162 29.453 42.3013 28.4411 42.7766 27.3273L44.5666 23.1519C44.7163 22.8023 45.0601 22.5756 45.4404 22.5758C45.7638 22.5759 46.0651 22.7403 46.2401 23.0123C46.4151 23.2842 46.4401 23.6265 46.3062 23.9209L43.1703 30.8193C42.8261 31.5781 42.3476 32.2685 41.758 32.8573L36.2095 38.4082Z" fill="#005AEB"/>
<path d="M31.1937 42.4092H30.3936C29.9516 42.4092 29.5934 42.7675 29.5934 43.2094C29.5934 43.6513 29.9516 44.0096 30.3936 44.0096H31.1937C31.6357 44.0096 31.9939 43.6513 31.9939 43.2094C31.9939 42.7675 31.6357 42.4092 31.1937 42.4092Z" fill="#005AEB"/>
<path d="M19.6707 16.9634C19.3172 16.6982 18.8156 16.7699 18.5505 17.1234C18.2853 17.477 18.357 17.9785 18.7105 18.2437L21.9112 20.6442C22.0497 20.7481 22.2182 20.8043 22.3913 20.8043C22.4366 20.8041 22.4819 20.8004 22.5266 20.7931C22.7433 20.7559 22.9351 20.6311 23.0571 20.4482L29.4585 10.846C29.6172 10.6082 29.6369 10.3037 29.5103 10.0474C29.3836 9.79107 29.1298 9.62178 28.8445 9.6033C28.5592 9.58482 28.2857 9.71996 28.127 9.95781L22.1945 18.8566L19.6707 16.9634Z" fill="#005AEB"/>
</svg>
