<svg width="26" height="26" viewBox="0 0 26 26" fill="none" xmlns="http://www.w3.org/2000/svg">
<path d="M19.4134 2.77125L13.162 0.0347932C13.0557 -0.0115977 12.9349 -0.0115977 12.8286 0.0347932L6.57717 2.77125C6.42537 2.8375 6.3272 2.98736 6.32712 3.153V9.69615C6.32938 11.1666 7.03599 12.547 8.22755 13.4087L12.5481 16.5248C12.8149 16.7179 13.1756 16.7179 13.4425 16.5248L17.763 13.4091C18.9546 12.5474 19.6612 11.167 19.6635 9.69656V3.153C19.6634 2.98736 19.5652 2.8375 19.4134 2.77125ZM18.8299 9.69656C18.828 10.8993 18.25 12.0283 17.2754 12.7331L12.9953 15.82L8.71516 12.7331C7.74054 12.0283 7.16255 10.8993 7.16064 9.69656V3.42556L12.9953 0.871649L18.8299 3.42556V9.69656Z" fill="#4F4F4F"/>
<path d="M12.8289 1.85437L8.24453 3.86149C8.09273 3.92775 7.99456 4.07761 7.99448 4.24325V9.69657C7.99576 10.6316 8.44519 11.5094 9.20308 12.0571L12.7518 14.6168C12.8974 14.7219 13.0938 14.7219 13.2394 14.6168L16.7881 12.0571C17.546 11.5094 17.9955 10.6316 17.9967 9.69657V4.24325C17.9967 4.07761 17.8985 3.92775 17.7467 3.86149L13.1623 1.85437C13.056 1.80798 12.9352 1.80798 12.8289 1.85437ZM17.1632 4.51539V9.69657C17.1619 10.3638 16.8412 10.9901 16.3005 11.3811L12.9956 13.765L9.69069 11.3811C9.15001 10.9901 8.82927 10.3638 8.828 9.69657V4.51539L12.9956 2.69123L17.1632 4.51539Z" fill="#4F4F4F"/>
<path d="M3.9456 13.8363L3.04414 11.73C2.85244 11.2957 2.44363 10.9967 1.97171 10.9456C1.49979 10.8945 1.03645 11.099 0.756228 11.4822C0.476007 11.8653 0.421476 12.3689 0.613178 12.8031L2.24646 16.396C2.46681 16.8824 2.77334 17.3249 3.15125 17.7021L5.71975 20.2711C5.5751 20.4244 5.49432 20.6271 5.49387 20.8379V24.1719C5.49387 24.6323 5.86705 25.0055 6.32739 25.0055H10.9118C11.3721 25.0055 11.7453 24.6323 11.7453 24.1719V20.8379C11.7453 20.3775 11.3721 20.0043 10.9118 20.0043V19.2287C10.9245 18.2417 10.6025 17.2795 9.99822 16.499C9.64393 16.033 9.16109 15.6808 8.60915 15.4858C7.73139 15.117 6.92414 14.599 6.2232 13.9546C5.57257 13.4188 4.64827 13.3707 3.9456 13.8363ZM10.9118 24.1719H6.32739V20.8379H10.9118V24.1719ZM9.34766 17.0195C9.83344 17.6524 10.0909 18.431 10.0782 19.2287V20.0043H6.63204L3.74055 17.1128C3.43345 16.8062 3.18426 16.4466 3.00497 16.0514L1.37168 12.4585C1.30198 12.3051 1.31495 12.1269 1.40612 11.9852C1.49729 11.8436 1.65417 11.7579 1.82262 11.7579C2.02085 11.7577 2.2 11.876 2.27772 12.0584L3.21002 14.2326C3.45758 14.8127 3.81442 15.3398 4.26109 15.785L6.16485 17.6892C6.26949 17.7976 6.42444 17.841 6.57015 17.8029C6.71587 17.7647 6.82966 17.6509 6.8678 17.5052C6.90594 17.3595 6.86249 17.2046 6.75415 17.0999L4.85039 15.1957C4.65895 15.0048 4.48683 14.7954 4.33652 14.5706C4.73675 14.2626 5.29667 14.272 5.68641 14.5931C6.46548 15.3081 7.36591 15.8783 8.34534 16.2768C8.7444 16.4219 9.09264 16.68 9.34766 17.0195Z" fill="#4F4F4F"/>
<path d="M9.66168 22.0881H9.24492C9.01475 22.0881 8.82816 22.2747 8.82816 22.5049C8.82816 22.7351 9.01475 22.9216 9.24492 22.9216H9.66168C9.89185 22.9216 10.0784 22.7351 10.0784 22.5049C10.0784 22.2747 9.89185 22.0881 9.66168 22.0881Z" fill="#4F4F4F"/>
<path d="M23.7447 16.396L25.378 12.8031C25.5788 12.3674 25.5292 11.8573 25.248 11.4685C24.9669 11.0797 24.498 10.8727 24.0213 10.9269C23.5446 10.981 23.1342 11.288 22.9475 11.73L22.0481 13.8284C21.343 13.3651 20.4182 13.4158 19.768 13.9534C19.0671 14.5977 18.2598 15.1158 17.382 15.4846C16.8301 15.6796 16.3473 16.0317 15.993 16.4977C15.3884 17.2786 15.0664 18.2413 15.0794 19.2287V20.0043C14.6191 20.0043 14.2459 20.3775 14.2459 20.8378V24.1719C14.2459 24.6323 14.6191 25.0055 15.0794 25.0055H19.6638C20.1242 25.0055 20.4973 24.6323 20.4973 24.1719V20.8378C20.4969 20.6271 20.4161 20.4244 20.2714 20.2711L22.8399 17.7021C23.2179 17.3249 23.5244 16.8824 23.7447 16.396ZM19.6638 24.1719H15.0794V20.8378H19.6638V24.1719ZM19.3592 20.0043H15.913V19.2287C15.9004 18.4311 16.1578 17.6527 16.6435 17.0199C16.898 16.6806 17.2455 16.4225 17.6438 16.2768C18.6234 15.8784 19.524 15.3082 20.3031 14.5931C20.6924 14.2695 21.2539 14.2586 21.6555 14.5669C21.5048 14.7933 21.3318 15.0041 21.1391 15.1962L19.2354 17.1003C19.0774 17.2639 19.0797 17.5238 19.2405 17.6846C19.4012 17.8453 19.6612 17.8476 19.8247 17.6896L21.7284 15.7855C22.1751 15.3402 22.532 14.8131 22.7795 14.233L23.7118 12.0584C23.7898 11.8763 23.9688 11.7582 24.1669 11.7583C24.3354 11.7584 24.4922 11.844 24.5834 11.9856C24.6746 12.1273 24.6876 12.3055 24.6179 12.4589L22.9846 16.0518C22.8053 16.447 22.5561 16.8066 22.249 17.1133L19.3592 20.0043Z" fill="#4F4F4F"/>
<path d="M16.7468 22.0881H16.33C16.0998 22.0881 15.9132 22.2747 15.9132 22.5049C15.9132 22.7351 16.0998 22.9216 16.33 22.9216H16.7468C16.9769 22.9216 17.1635 22.7351 17.1635 22.5049C17.1635 22.2747 16.9769 22.0881 16.7468 22.0881Z" fill="#4F4F4F"/>
<path d="M10.7452 8.83511C10.561 8.69701 10.2998 8.73432 10.1617 8.91846C10.0236 9.1026 10.0609 9.36382 10.245 9.50192L11.9121 10.7522C11.9842 10.8063 12.072 10.8356 12.1621 10.8356C12.1857 10.8355 12.2093 10.8335 12.2326 10.8297C12.3454 10.8104 12.4454 10.7454 12.5089 10.6501L15.843 5.64897C15.9256 5.52509 15.9359 5.36654 15.8699 5.23303C15.804 5.09953 15.6718 5.01135 15.5232 5.00173C15.3746 4.9921 15.2321 5.06249 15.1495 5.18637L12.0596 9.82116L10.7452 8.83511Z" fill="#4F4F4F"/>
</svg>
