<svg width="12" height="12" viewBox="0 0 12 12" fill="none" xmlns="http://www.w3.org/2000/svg">
<path d="M9.90408 0L6.31952 0.274148L0 6.5937L5.40633 12L11.7259 5.68048L12 2.09592L9.90408 0ZM2.59324 7.16332L6.04823 3.70833L6.60162 4.26171L3.14663 7.7167L2.59324 7.16332ZM4.8367 9.40678L4.28332 8.8534L7.73831 5.39841L8.29169 5.95179L4.8367 9.40678ZM9.60413 3.61109C9.26857 3.94664 8.72449 3.94664 8.38891 3.61109C8.05336 3.27551 8.05336 2.73145 8.38891 2.39587C8.72447 2.06032 9.26855 2.06032 9.60413 2.39587C9.9397 2.73145 9.9397 3.27551 9.60413 3.61109Z" fill="#333333"/>
</svg>
