<svg width="26" height="18" viewBox="0 0 26 18" fill="none" xmlns="http://www.w3.org/2000/svg">
<path d="M24.9497 7.6723H1.05026C0.470234 7.6723 0 8.07486 0 8.5714C0 9.06798 0.470234 9.47049 1.05026 9.47049H24.9497C25.5298 9.47049 26 9.06798 26 8.5714C26 8.07486 25.5298 7.6723 24.9497 7.6723Z" fill="white"/>
<path d="M6.08537 11.6101C4.22041 10.0135 4.22041 7.12931 6.08536 5.53278L10.7554 1.53483C11.1656 1.18371 11.1656 0.614437 10.7554 0.263312C10.3453 -0.0877705 9.68031 -0.0877705 9.27015 0.263312L0.307864 7.93565C-0.102296 8.28677 -0.102296 8.85604 0.307864 9.20717L9.27015 16.8795C9.4752 17.0551 9.74404 17.1429 10.0128 17.1429C10.2816 17.1429 10.5504 17.0551 10.7555 16.8795C11.1657 16.5284 11.1657 15.9591 10.7555 15.608L6.08537 11.6101Z" fill="white"/>
</svg>
