<svg width="32" height="32" viewBox="0 0 32 32" fill="none" xmlns="http://www.w3.org/2000/svg">
<path d="M26 32H6C2.686 32 0 29.314 0 26V6C0 2.686 2.686 0 6 0H26C29.314 0 32 2.686 32 6V26C32 29.314 29.314 32 26 32Z" fill="#2E2E2E"/>
<path d="M23.996 24L24 23.999V18.131C24 15.26 23.382 13.049 20.026 13.049C18.413 13.049 17.33 13.934 16.888 14.774H16.842V13.317H13.66V23.999H16.974V18.71C16.974 17.317 17.238 15.971 18.963 15.971C20.662 15.971 20.688 17.56 20.688 18.8V24H23.996Z" fill="white"/>
<path d="M8.26391 13.318H11.5809V24H8.26391V13.318Z" fill="white"/>
<path d="M9.921 8C8.861 8 8 8.861 8 9.921C8 10.982 8.861 11.86 9.921 11.86C10.981 11.86 11.842 10.982 11.842 9.921C11.842 8.861 10.981 8 9.921 8Z" fill="white"/>
</svg>
