<svg width="130" height="36" viewBox="0 0 130 36" fill="none" xmlns="http://www.w3.org/2000/svg">
<path d="M7.14625 32.7574C6.93257 32.7574 6.7189 32.7337 6.52896 32.6864C6.33903 32.639 6.17284 32.5444 6.00665 32.4024C5.8642 32.2603 5.74549 32.0947 5.65052 31.858C5.55556 31.6213 5.50807 31.3373 5.50807 30.9586V24.4024H9.16429V21.1361H5.50807V16.9231H4.32099C4.05983 18.4379 3.56125 19.6686 2.849 20.6154C2.11301 21.5621 1.16334 22.2722 0 22.7692V24.4024H1.89934V30.7219C1.89934 31.6213 1.97056 32.4024 2.13675 33.0651C2.30294 33.7278 2.54036 34.2722 2.89649 34.7219C3.25261 35.1479 3.7037 35.4793 4.29725 35.6923C4.89079 35.9053 5.60304 36 6.45774 36C6.93257 36 7.43115 35.9527 7.90598 35.8343C8.38082 35.716 8.80817 35.5503 9.18803 35.3136V32.142C8.90313 32.3787 8.57075 32.5444 8.16714 32.639C7.76353 32.71 7.43115 32.7574 7.14625 32.7574Z" fill="white"/>
<path d="M20.5129 21.3965C20.4654 21.3728 20.4179 21.3491 20.3704 21.3255C19.7531 20.9941 19.1359 20.8047 18.4948 20.8047C17.8538 20.8047 17.2603 20.9704 16.738 21.3018C16.2156 21.6332 15.7408 22.1065 15.2897 22.7219V21.1834H11.7047V35.6213H15.3134V27.4556C15.3134 24.4971 19.2071 24.0237 20.5129 24.9231V21.3965Z" fill="white"/>
<path d="M32.7611 24.6154C32.5 23.8343 32.0489 23.1243 31.4317 22.4852C30.9569 21.9882 30.3159 21.5858 29.5325 21.2544C28.7491 20.9467 27.847 20.7811 26.8499 20.7811C25.7816 20.7811 24.737 20.9704 23.7399 21.3728C23.5738 21.4438 23.4313 21.5148 23.2651 21.5858V25.1598C23.7874 24.7101 24.286 24.4024 24.8082 24.213C25.3543 24.0237 25.8528 23.929 26.3513 23.929C27.3959 23.929 28.1793 24.1894 28.7253 24.6864C29.2713 25.1834 29.5562 25.8698 29.5562 26.6982H27.4671C26.5175 26.6982 25.6154 26.7929 24.8082 27.0059C23.9773 27.1953 23.2651 27.503 22.6479 27.929C22.0307 28.3314 21.5321 28.8521 21.176 29.4438C20.8199 30.0592 20.63 30.7692 20.63 31.574C20.63 32.213 20.7487 32.8047 20.9624 33.3491C21.176 33.8935 21.5084 34.3432 21.9357 34.7456C22.363 35.1479 22.8378 35.432 23.4076 35.645C23.9773 35.858 24.6183 35.9527 25.3068 35.9527C26.0665 35.9527 26.7787 35.858 27.4909 35.6923C28.2031 35.5266 28.8678 35.2189 29.5087 34.7929V35.574H33.1172V27.574C33.141 26.3905 33.0223 25.3965 32.7611 24.6154ZM29.5325 32C28.9865 32.3077 28.4642 32.568 27.9419 32.7337C27.4196 32.8994 26.8974 32.9941 26.3513 32.9941C25.7341 32.9941 25.2356 32.8284 24.832 32.5207C24.4284 32.213 24.2385 31.787 24.2385 31.2899C24.2385 30.9349 24.3334 30.6509 24.5234 30.3905C24.7133 30.1302 24.9744 29.9408 25.3068 29.7752C25.6391 29.6095 26.019 29.5148 26.47 29.4438C26.9211 29.3728 27.3722 29.3491 27.8944 29.3491H29.5562V32H29.5325Z" fill="white"/>
<path d="M41.2362 30.8639L37.9601 21.1834H34.0193L39.4557 35.6213H43.0167L48.4532 21.1834H44.5361L41.2362 30.8639Z" fill="white"/>
<path d="M62.3172 22.9112C61.605 22.2485 60.7741 21.7278 59.8483 21.3491C58.9224 20.9704 57.9253 20.7811 56.9283 20.7811C55.86 20.7811 54.8629 20.9704 53.9133 21.3728C52.9874 21.7751 52.1565 22.3195 51.4681 23.0059C50.7559 23.6923 50.2098 24.497 49.8063 25.4201C49.4027 26.3432 49.2128 27.3373 49.2128 28.3787C49.2128 29.4201 49.4027 30.4142 49.8063 31.3373C50.2098 32.2604 50.7559 33.0651 51.4443 33.7515C52.1328 34.4379 52.9637 34.9822 53.8895 35.3846C54.8391 35.787 55.8362 35.9763 56.9283 35.9763C57.9966 35.9763 59.0174 35.8106 59.967 35.503C60.9166 35.1953 61.9136 34.6746 62.9107 33.9172L60.6317 31.645C60.2044 32.0237 59.6583 32.3314 58.9936 32.5444C58.3527 32.7811 57.6879 32.8757 57.047 32.8757C56.5009 32.8757 56.0261 32.8047 55.5751 32.6391C55.124 32.4734 54.7442 32.2604 54.3881 32C54.032 31.716 53.7471 31.4083 53.5097 31.0296C53.2723 30.6509 53.0824 30.2485 52.9399 29.8462H64.5013C64.525 29.5858 64.5725 29.3254 64.5963 29.0651C64.62 28.8047 64.6437 28.568 64.6437 28.3314C64.6437 27.2189 64.4301 26.2012 64.0265 25.2781C63.5992 24.3787 63.0294 23.5976 62.3172 22.9112ZM52.9399 26.9586C53.2248 26.0355 53.7234 25.3018 54.4356 24.7574C55.1478 24.1893 55.9549 23.929 56.857 23.929C57.7829 23.929 58.59 24.213 59.326 24.7574C60.0619 25.3254 60.5605 26.0592 60.8453 26.9586H52.9399Z" fill="white"/>
<path d="M71.3387 32.6154C71.1013 32.3787 70.9826 31.9763 70.9826 31.3846V14.8876H67.3026V32.0237C67.3026 32.7337 67.4213 33.3491 67.635 33.8698C67.8487 34.3669 68.1336 34.7929 68.5134 35.1006C68.8696 35.4083 69.3207 35.645 69.7955 35.787C70.2941 35.929 70.7926 36 71.3387 36C71.7186 36 72.0984 35.9527 72.4546 35.8817C72.8107 35.787 73.1431 35.6923 73.428 35.5503V32.6154C73.0481 32.8757 72.6445 32.9941 72.2171 32.9941C71.861 32.9467 71.5761 32.8521 71.3387 32.6154Z" fill="white"/>
<path d="M87.3631 22.2248C86.8408 21.7515 86.2473 21.3964 85.5588 21.1597C84.8941 20.9231 84.1819 20.8047 83.446 20.8047C83.1136 20.8047 82.7575 20.8284 82.4014 20.8994C82.0453 20.9704 81.6892 21.0651 81.3569 21.1834C81.0245 21.3018 80.6921 21.4674 80.3598 21.6568C80.0512 21.8461 79.7663 22.0355 79.5526 22.2485L79.5289 21.1834H75.9204V35.6213H79.5289V25.0887C79.9562 24.6627 80.4547 24.3787 80.977 24.1657C81.523 23.9763 82.0691 23.8816 82.6151 23.8816C82.9949 23.8816 83.351 23.9526 83.6834 24.071C84.0157 24.1893 84.3244 24.3787 84.6092 24.639C84.8704 24.8994 85.084 25.2308 85.2502 25.6095C85.4164 26.0118 85.4876 26.4615 85.4876 26.9586V35.5739H89.0961V26.7929C89.0961 25.7515 88.9299 24.8284 88.6213 24.071C88.3127 23.3373 87.8854 22.6982 87.3631 22.2248Z" fill="white"/>
<path d="M104.883 22.9112C104.171 22.2485 103.34 21.7278 102.414 21.3491C101.488 20.9704 100.491 20.7811 99.4941 20.7811C98.4258 20.7811 97.4287 20.9704 96.4791 21.3728C95.5532 21.7751 94.7223 22.3195 94.0339 23.0059C93.3217 23.6923 92.7756 24.497 92.3721 25.4201C91.9685 26.3432 91.7786 27.3373 91.7786 28.3787C91.7786 29.4201 91.9685 30.4142 92.3721 31.3373C92.7756 32.2604 93.3217 33.0651 94.0101 33.7515C94.6986 34.4379 95.5295 34.9822 96.4553 35.3846C97.4049 35.787 98.402 35.9763 99.4941 35.9763C100.562 35.9763 101.583 35.8106 102.533 35.503C103.482 35.1953 104.479 34.6746 105.477 33.9172L103.197 31.645C102.77 32.0237 102.224 32.3314 101.559 32.5444C100.918 32.7811 100.254 32.8757 99.6128 32.8757C99.0667 32.8757 98.5919 32.8047 98.1409 32.6391C97.6898 32.4734 97.31 32.2604 96.9539 32C96.5978 31.716 96.3129 31.4083 96.0755 31.0296C95.8381 30.6509 95.6482 30.2485 95.5057 29.8462H107.067C107.091 29.5858 107.138 29.3254 107.162 29.0651C107.186 28.8047 107.21 28.568 107.21 28.3314C107.21 27.2189 106.996 26.2012 106.592 25.2781C106.165 24.3787 105.595 23.5976 104.883 22.9112ZM95.5057 26.9586C95.7906 26.0355 96.2892 25.3018 97.0014 24.7574C97.7136 24.1893 98.5207 23.929 99.4228 23.929C100.349 23.929 101.156 24.213 101.892 24.7574C102.628 25.3254 103.126 26.0592 103.411 26.9586H95.5057Z" fill="white"/>
<path d="M117.798 19.8107C117.68 19.5503 117.395 19.432 117.134 19.5503C115.662 20.2367 114.474 21.0651 113.525 21.9882C113.501 22.0119 113.477 22.0355 113.454 22.0592V21.2545C113.454 20.5681 112.599 20.2367 112.124 20.7101L109.987 22.8639C109.892 22.9586 109.845 23.0769 109.845 23.219V35.1006C109.845 35.361 110.059 35.5977 110.343 35.5977H112.955C113.216 35.5977 113.454 35.3846 113.454 35.1006V28.2604C113.454 28.213 113.454 28.1657 113.477 28.142C113.596 27.6213 113.786 27.0769 114.071 26.5089C114.451 25.7515 114.973 24.9941 115.733 24.2604C116.421 23.6213 117.276 22.9823 118.416 22.4616C118.653 22.3432 118.772 22.0592 118.677 21.8225L117.798 19.8107Z" fill="white"/>
<path d="M114.379 5.60947L109.583 19.8817L130 0L114.379 5.60947Z" fill="#BE1E2D"/>
<path d="M114.379 5.60947L130 0L103.435 0.781065L114.379 5.60947Z" fill="#EC1C24"/>
</svg>
