<svg width="100" height="28" viewBox="0 0 100 28" fill="none" xmlns="http://www.w3.org/2000/svg">
<g clip-path="url(#clip0)">
<path d="M5.48856 25.4946C5.3219 25.4946 5.1634 25.4748 5.01634 25.4369C4.86928 25.3973 4.73693 25.3265 4.62092 25.2226C4.5049 25.1188 4.41176 24.977 4.3415 24.7957C4.27124 24.6144 4.23529 24.382 4.23529 24.0968V18.987H7.04739V16.4585H4.23693V13.175H3.3317C3.12582 14.3536 2.74346 15.3129 2.18627 16.0514C1.62745 16.7898 0.898693 17.3469 0 17.7228V18.9854H1.46405V23.9007C1.46405 24.5995 1.52451 25.2094 1.64706 25.727C1.76961 26.2446 1.96405 26.6731 2.23366 27.0094C2.50327 27.3473 2.86275 27.5962 3.31209 27.7577C3.76144 27.9193 4.31373 28 4.96895 28C5.3415 28 5.71405 27.9555 6.0866 27.8649C6.45915 27.7742 6.78595 27.639 7.06863 27.4561V24.9885C6.84967 25.1699 6.5866 25.3001 6.27941 25.3776C5.97059 25.455 5.70752 25.4946 5.48856 25.4946Z" fill="#414141"/>
<path d="M15.7843 16.9398C15.75 16.92 15.7173 16.8969 15.683 16.8772C15.214 16.6118 14.7353 16.4783 14.2484 16.4783C13.7484 16.4783 13.2957 16.6085 12.8905 16.8673C12.4853 17.1261 12.116 17.4953 11.7827 17.9749V16.77H9.0098V28H11.7827V21.6655C11.7827 19.3546 14.7761 19.0035 15.7843 19.6974V16.9398Z" fill="#414141"/>
<path d="M25.201 19.1602C25.0033 18.5519 24.6618 18.0014 24.1781 17.5085C23.8088 17.1195 23.3219 16.8031 22.7206 16.5575C22.1193 16.3119 21.433 16.1882 20.6634 16.1882C19.8415 16.1882 19.0425 16.3432 18.2647 16.6547C18.1405 16.7042 18.0229 16.7635 17.9036 16.8195V19.6019C18.2974 19.2525 18.6896 19.0052 19.0833 18.8684C19.4935 18.7266 19.8922 18.6541 20.2778 18.6541C21.0735 18.6541 21.683 18.8486 22.1079 19.2376C22.5311 19.6266 22.7435 20.1508 22.7435 20.8118H21.1454C20.4134 20.8118 19.7304 20.8892 19.0948 21.0442C18.4592 21.1991 17.9036 21.4365 17.4281 21.753C16.9526 22.0711 16.5768 22.465 16.3007 22.9381C16.0245 23.4112 15.8873 23.965 15.8873 24.5996C15.8873 25.1056 15.9739 25.5639 16.1471 25.9793C16.3203 26.3946 16.567 26.754 16.8889 27.0573C17.2092 27.3622 17.5882 27.5946 18.0245 27.7561C18.4608 27.9177 18.9494 27.9984 19.4886 27.9984C20.067 27.9984 20.6275 27.9342 21.1732 27.8039C21.719 27.6754 22.2353 27.4413 22.7239 27.1051V27.7067H25.4967V21.4892C25.4967 20.5464 25.3987 19.77 25.201 19.1602ZM22.7239 24.9111C22.3121 25.1567 21.9052 25.3447 21.5016 25.4749C21.0964 25.6051 20.6896 25.6694 20.2778 25.6694C19.8023 25.6694 19.4134 25.5457 19.1128 25.3001C18.8105 25.0546 18.6601 24.7364 18.6601 24.3474C18.6601 24.0754 18.7337 23.843 18.8824 23.6485C19.0294 23.454 19.2288 23.2958 19.4788 23.1722C19.7288 23.0485 20.0245 22.9612 20.3644 22.9101C20.7043 22.859 21.067 22.8326 21.4526 22.8326H22.7239V24.9111Z" fill="#414141"/>
<path d="M31.7255 24.2897L29.2026 16.7502H26.1602L30.3579 28H33.0932L37.2729 16.7502H34.2484L31.7255 24.2897Z" fill="#414141"/>
<path d="M47.9281 17.8381C47.3758 17.3206 46.7402 16.9151 46.0212 16.6233C45.3023 16.3316 44.5506 16.1865 43.768 16.1865C42.9461 16.1865 42.1748 16.3415 41.4575 16.653C40.7385 16.9645 40.1095 17.3849 39.5702 17.9156C39.031 18.4464 38.6078 19.0711 38.299 19.7898C37.9902 20.5084 37.8366 21.2765 37.8366 22.0925C37.8366 22.9084 37.9902 23.6765 38.299 24.3952C38.6078 25.1138 39.0278 25.7385 39.5604 26.2709C40.0931 26.8017 40.7222 27.222 41.4477 27.5336C42.1732 27.8451 42.9526 28 43.7876 28C44.6095 28 45.3889 27.8797 46.1274 27.6407C46.866 27.4017 47.6209 26.9896 48.3905 26.4061L46.6372 24.6375C46.3039 24.9358 45.8856 25.1715 45.3856 25.3462C44.8856 25.521 44.384 25.6083 43.884 25.6083C43.4722 25.6083 43.098 25.5473 42.7565 25.4237C42.4167 25.3001 42.1111 25.132 41.8415 24.9193C41.5719 24.705 41.3431 24.4529 41.1585 24.1611C40.9722 23.8693 40.8284 23.5628 40.7255 23.238H49.6242C49.6503 23.0303 49.6732 22.8309 49.6912 22.6364C49.7108 22.4419 49.7206 22.254 49.7206 22.0727C49.7206 21.2057 49.5604 20.4112 49.2386 19.6925C48.9167 18.9755 48.4804 18.3574 47.9281 17.8381ZM40.7238 20.9864C40.9428 20.2744 41.3268 19.7007 41.8791 19.2672C42.4314 18.8337 43.0539 18.6161 43.7467 18.6161C44.4526 18.6161 45.085 18.8337 45.6438 19.2672C46.2026 19.7007 46.5899 20.2744 46.8088 20.9864H40.7238Z" fill="#414141"/>
<path d="M54.8677 25.3874C54.6814 25.2127 54.5882 24.8913 54.5882 24.4265V11.5828H51.7565V24.9111C51.7565 25.4682 51.8399 25.9446 52.0065 26.3385C52.1732 26.7341 52.3987 27.0539 52.6814 27.3011C52.9641 27.5467 53.2941 27.7248 53.6732 27.8352C54.0523 27.9456 54.4461 28 54.8578 28C55.1536 28 55.4379 27.9671 55.7157 27.9028C55.9918 27.8385 56.2386 27.7544 56.4575 27.6506V25.3578C56.1618 25.5523 55.8546 25.6495 55.5327 25.6495C55.2745 25.6495 55.0523 25.5622 54.8677 25.3874Z" fill="#414141"/>
<path d="M67.2042 17.5859C66.8006 17.2101 66.3382 16.9316 65.817 16.7502C65.2974 16.5689 64.7549 16.4783 64.1895 16.4783C63.933 16.4783 63.6667 16.5046 63.3905 16.5557C63.1144 16.6068 62.8448 16.6827 62.5817 16.7799C62.3186 16.8772 62.0654 16.9975 61.8203 17.1392C61.5768 17.2827 61.3709 17.4376 61.2043 17.6057L61.1846 16.77H58.4118V28H61.1846V19.8211C61.5196 19.498 61.8938 19.2606 62.3056 19.1123C62.719 18.9639 63.1373 18.8898 63.5637 18.8898C63.8464 18.8898 64.1209 18.9376 64.3856 19.0348C64.6503 19.1321 64.8856 19.2804 65.0915 19.4815C65.2974 19.6826 65.4624 19.9348 65.585 20.2397C65.7075 20.5447 65.7696 20.8974 65.7696 21.2996V28.0033H68.5425V21.1644C68.5425 20.3485 68.4199 19.643 68.1765 19.0464C67.933 18.448 67.6095 17.9618 67.2042 17.5859Z" fill="#414141"/>
<path d="M80.6732 17.8381C80.1209 17.3206 79.4853 16.9151 78.7663 16.6233C78.0474 16.3316 77.2957 16.1865 76.5131 16.1865C75.6912 16.1865 74.9199 16.3415 74.2026 16.653C73.4837 16.9645 72.8546 17.3849 72.3154 17.9156C71.7761 18.4464 71.3529 19.0711 71.0441 19.7898C70.7353 20.5084 70.5817 21.2765 70.5817 22.0925C70.5817 22.9084 70.7353 23.6765 71.0441 24.3952C71.3529 25.1138 71.7729 25.7385 72.3056 26.2709C72.8382 26.8017 73.4673 27.222 74.1928 27.5336C74.9183 27.8451 75.6977 28 76.5327 28C77.3546 28 78.134 27.8797 78.8725 27.6407C79.6111 27.4017 80.366 26.9896 81.1356 26.4061L79.3823 24.6375C79.049 24.9358 78.6307 25.1715 78.1307 25.3462C77.6307 25.521 77.1291 25.6083 76.6291 25.6083C76.2173 25.6083 75.8431 25.5473 75.5016 25.4237C75.1618 25.3001 74.8562 25.132 74.5866 24.9193C74.317 24.705 74.0882 24.4529 73.9036 24.1611C73.7173 23.8693 73.5735 23.5628 73.4706 23.238H82.3693C82.3954 23.0303 82.4183 22.8309 82.4363 22.6364C82.4559 22.4419 82.4657 22.254 82.4657 22.0727C82.4657 21.2057 82.3055 20.4112 81.9837 19.6925C81.6618 18.9755 81.2255 18.3574 80.6732 17.8381ZM73.4706 20.9864C73.6895 20.2744 74.0735 19.7007 74.6258 19.2672C75.1781 18.8337 75.8007 18.6161 76.4935 18.6161C77.1993 18.6161 77.8317 18.8337 78.3905 19.2672C78.9493 19.7007 79.3366 20.2744 79.5556 20.9864H73.4706Z" fill="#414141"/>
<path d="M90.6144 15.7067C90.531 15.5105 90.3023 15.4182 90.1111 15.5089C88.9804 16.0396 88.0621 16.6907 87.335 17.3979C87.3137 17.4176 87.2958 17.4391 87.2761 17.4588L87.2712 16.8374C87.2663 16.3017 86.6226 16.038 86.2484 16.4204L84.6095 18.1017C84.5392 18.1726 84.5016 18.2698 84.5016 18.3687V27.6191C84.5016 27.8301 84.6716 27.9998 84.8791 27.9998H86.8971C87.1062 27.9998 87.2745 27.8284 87.2745 27.6191V22.2884C87.2745 22.2554 87.2778 22.2241 87.2859 22.1912C87.3856 21.7939 87.5294 21.3604 87.7451 20.922C88.031 20.3368 88.4346 19.7352 89.0212 19.1665C89.5425 18.6605 90.2091 18.1775 91.0817 17.7605C91.268 17.6715 91.3546 17.4539 91.2729 17.2643L90.6144 15.7067Z" fill="#414141"/>
<path d="M87.9788 4.36475L84.299 15.4645L100 0L87.9788 4.36475Z" fill="#B40000"/>
<path d="M87.9787 4.36475L100 0L79.5555 0.60823L87.9787 4.36475Z" fill="#E60000"/>
<path d="M92.2712 14.7575C92.2712 14.1015 92.4967 13.5493 92.9461 13.1009C93.3954 12.6509 93.9428 12.4268 94.5866 12.4268C95.2288 12.4268 95.7745 12.6509 96.2255 13.1009C96.6765 13.5509 96.902 14.1031 96.902 14.7575C96.902 15.4152 96.6765 15.969 96.2255 16.4206C95.7745 16.8723 95.2271 17.0981 94.5866 17.0981C93.9428 17.0981 93.3954 16.8723 92.9461 16.4206C92.4967 15.9706 92.2712 15.4152 92.2712 14.7575ZM92.549 14.7575C92.549 15.3377 92.7484 15.8289 93.1454 16.2294C93.5441 16.63 94.0245 16.8311 94.5866 16.8311C95.1471 16.8311 95.6275 16.6316 96.0245 16.2294C96.4232 15.8289 96.6209 15.3377 96.6209 14.7575C96.6209 14.1806 96.4216 13.6943 96.0245 13.2954C95.6258 12.8965 95.1471 12.6971 94.5866 12.6971C94.0229 12.6971 93.5425 12.8965 93.1454 13.2954C92.7484 13.6943 92.549 14.1822 92.549 14.7575ZM94.0588 14.9355V16.0465H93.7386V13.3943H94.5801C94.9003 13.3943 95.1454 13.4603 95.317 13.5905C95.4886 13.7223 95.5752 13.9135 95.5752 14.1674C95.5752 14.3091 95.536 14.4311 95.4559 14.5333C95.3758 14.6372 95.2631 14.7196 95.1144 14.7822C95.2614 14.835 95.3693 14.9157 95.4346 15.0262C95.5 15.1366 95.5327 15.2701 95.5327 15.4251V15.5998C95.5327 15.6822 95.5376 15.7597 95.5458 15.8272C95.5539 15.8965 95.5686 15.9525 95.5882 15.9954V16.0448H95.2549C95.2337 16.002 95.2206 15.9377 95.2157 15.8536C95.2108 15.7695 95.2092 15.6838 95.2092 15.5965V15.4283C95.2092 15.2536 95.1683 15.1284 95.085 15.0509C95.0016 14.9734 94.8644 14.9355 94.6699 14.9355H94.0588ZM94.0588 14.652H94.6487C94.8203 14.652 94.9641 14.6091 95.0801 14.5251C95.1961 14.441 95.2549 14.324 95.2549 14.174C95.2549 13.9976 95.2042 13.8707 95.1046 13.7932C95.0049 13.7157 94.8301 13.6778 94.5801 13.6778H94.0588V14.652Z" fill="black"/>
</g>
<defs>
<clipPath id="clip0">
<rect width="100" height="28" fill="white"/>
</clipPath>
</defs>
</svg>
