<svg width="164" height="46" viewBox="0 0 164 46" fill="none" xmlns="http://www.w3.org/2000/svg">
<g clip-path="url(#clip0)">
<path d="M9.00124 41.4476C8.72791 41.4476 8.46797 41.4154 8.2268 41.3538C7.98562 41.2895 7.76856 41.1742 7.5783 41.0054C7.38804 40.8366 7.23529 40.6061 7.12006 40.3113C7.00484 40.0166 6.94588 39.6387 6.94588 39.1751V30.8679H11.5577V26.7572H6.94856V21.4192H5.46399C5.12634 23.3352 4.49928 24.8948 3.58549 26.0953C2.66902 27.2959 1.47386 28.2016 0 28.8126V30.8653H2.40105V38.8562C2.40105 39.9925 2.5002 40.984 2.70118 41.8254C2.90216 42.6668 3.22105 43.3636 3.6632 43.9102C4.10536 44.4596 4.6949 44.8642 5.43183 45.1268C6.16876 45.3895 7.07451 45.5208 8.14908 45.5208C8.76007 45.5208 9.37105 45.4484 9.98203 45.301C10.593 45.1536 11.129 44.9339 11.5925 44.6364V40.6249C11.2335 40.9196 10.802 41.1313 10.2982 41.2573C9.79176 41.3832 9.36033 41.4476 9.00124 41.4476Z" fill="#414141"/>
<path d="M25.8864 27.5396C25.8302 27.5075 25.7766 27.47 25.7203 27.4378C24.9512 27.0064 24.166 26.7893 23.3675 26.7893C22.5475 26.7893 21.8052 27.001 21.1406 27.4217C20.476 27.8424 19.8704 28.4427 19.3238 29.2225V27.2636H14.7762V45.5207H19.3238V35.2224C19.3238 31.4655 24.233 30.8947 25.8864 32.0228V27.5396Z" fill="#414141"/>
<path d="M41.3296 31.1493C41.0054 30.1605 40.4453 29.2655 39.6521 28.4642C39.0465 27.8318 38.2479 27.3173 37.2618 26.918C36.2756 26.5187 35.1501 26.3177 33.888 26.3177C32.5401 26.3177 31.2297 26.5696 29.9541 27.0761C29.7505 27.1565 29.5575 27.253 29.3619 27.3441V31.8675C30.0077 31.2994 30.6509 30.8974 31.2967 30.675C31.9693 30.4445 32.6232 30.3266 33.2556 30.3266C34.5606 30.3266 35.5601 30.6428 36.2569 31.2753C36.9509 31.9077 37.2993 32.7598 37.2993 33.8344H34.6785C33.478 33.8344 32.3579 33.9604 31.3154 34.2123C30.273 34.4642 29.3619 34.85 28.5821 35.3645C27.8023 35.8817 27.186 36.5222 26.7331 37.2913C26.2802 38.0604 26.0551 38.9608 26.0551 39.9925C26.0551 40.8151 26.1971 41.5601 26.4812 42.2354C26.7652 42.9107 27.1699 43.4949 27.6978 43.9879C28.223 44.4837 28.8447 44.8615 29.5602 45.1242C30.2757 45.3868 31.0769 45.5181 31.9613 45.5181C32.9099 45.5181 33.829 45.4136 34.7241 45.2019C35.6191 44.9928 36.4659 44.6123 37.2671 44.0657V45.0438H41.8147V34.9358C41.8147 33.403 41.6539 32.1408 41.3296 31.1493ZM37.2671 40.4989C36.5918 40.8982 35.9246 41.2037 35.2627 41.4154C34.5981 41.6271 33.9309 41.7316 33.2556 41.7316C32.4758 41.7316 31.838 41.5306 31.3449 41.1313C30.8492 40.7321 30.6026 40.2149 30.6026 39.5825C30.6026 39.1403 30.7232 38.7625 30.9671 38.4462C31.2083 38.13 31.5352 37.8728 31.9452 37.6718C32.3552 37.4708 32.8402 37.3288 33.3976 37.2457C33.955 37.1627 34.5499 37.1198 35.1823 37.1198H37.2671V40.4989Z" fill="#414141"/>
<path d="M52.03 39.4887L47.8925 27.2316H42.9028L49.7871 45.5208H54.273L61.1277 27.2316H56.1675L52.03 39.4887Z" fill="#414141"/>
<path d="M78.6019 29.0002C77.6961 28.1587 76.6537 27.4995 75.4746 27.0252C74.2955 26.5509 73.0629 26.3151 71.7793 26.3151C70.4314 26.3151 69.1665 26.567 67.9901 27.0734C66.811 27.5799 65.7793 28.2632 64.895 29.1261C64.0107 29.989 63.3167 31.0046 62.8102 32.173C62.3037 33.3413 62.0518 34.5901 62.0518 35.9166C62.0518 37.243 62.3037 38.4918 62.8102 39.6602C63.3167 40.8285 64.0053 41.8441 64.8789 42.7097C65.7525 43.5726 66.7842 44.2559 67.974 44.7624C69.1638 45.2689 70.4421 45.5207 71.8114 45.5207C73.1593 45.5207 74.4376 45.3251 75.6488 44.9366C76.86 44.548 78.0981 43.8781 79.3602 42.9294L76.4849 40.0541C75.9382 40.5391 75.2522 40.9223 74.4322 41.2064C73.6122 41.4904 72.7895 41.6324 71.9695 41.6324C71.2942 41.6324 70.6806 41.5333 70.1205 41.3323C69.5631 41.1313 69.062 40.858 68.6199 40.5123C68.1777 40.1639 67.8025 39.754 67.4997 39.2796C67.1942 38.8053 66.9584 38.3069 66.7896 37.779H81.3834C81.4263 37.4413 81.4638 37.1171 81.4933 36.8009C81.5255 36.4847 81.5415 36.1792 81.5415 35.8844C81.5415 34.4749 81.2789 33.1832 80.751 32.0149C80.2231 30.8492 79.5076 29.8443 78.6019 29.0002ZM66.7869 34.1185C67.146 32.9608 67.7757 32.0283 68.6815 31.3235C69.5872 30.6187 70.6082 30.265 71.7444 30.265C72.9021 30.265 73.9391 30.6187 74.8556 31.3235C75.7721 32.0283 76.4072 32.9608 76.7663 34.1185H66.7869Z" fill="#414141"/>
<path d="M89.9828 41.2734C89.6773 40.9893 89.5245 40.4668 89.5245 39.7111V18.8306H84.8806V40.4989C84.8806 41.4047 85.0172 42.1791 85.2906 42.8196C85.5639 43.4627 85.9337 43.9826 86.3973 44.3846C86.8609 44.7838 87.4022 45.0732 88.0239 45.2528C88.6456 45.4323 89.2914 45.5208 89.9667 45.5208C90.4517 45.5208 90.918 45.4672 91.3736 45.3627C91.8264 45.2582 92.2311 45.1215 92.5901 44.9527V41.2251C92.1051 41.5414 91.6013 41.6995 91.0734 41.6995C90.65 41.6995 90.2856 41.5574 89.9828 41.2734Z" fill="#414141"/>
<path d="M110.215 28.5901C109.553 27.9791 108.795 27.5262 107.94 27.2315C107.088 26.9367 106.198 26.7893 105.271 26.7893C104.85 26.7893 104.413 26.8322 103.96 26.9153C103.508 26.9983 103.065 27.1216 102.634 27.2797C102.203 27.4378 101.787 27.6334 101.385 27.8639C100.986 28.097 100.648 28.3489 100.375 28.6222L100.343 27.2636H95.7953V45.5207H100.343V32.2238C100.892 31.6986 101.506 31.3127 102.181 31.0715C102.859 30.8304 103.545 30.7098 104.245 30.7098C104.708 30.7098 105.158 30.7875 105.592 30.9456C106.027 31.1037 106.412 31.3449 106.75 31.6718C107.088 31.9987 107.358 32.4087 107.559 32.9045C107.76 33.4002 107.862 33.9737 107.862 34.6275V45.526H112.41V34.4078C112.41 33.0813 112.209 31.9344 111.809 30.9643C111.41 29.9916 110.88 29.2011 110.215 28.5901Z" fill="#414141"/>
<path d="M132.304 29.0002C131.398 28.1587 130.356 27.4995 129.177 27.0252C127.998 26.5509 126.765 26.3151 125.481 26.3151C124.134 26.3151 122.869 26.567 121.692 27.0734C120.513 27.5799 119.482 28.2632 118.597 29.1261C117.713 29.989 117.019 31.0046 116.512 32.173C116.006 33.3413 115.754 34.5901 115.754 35.9166C115.754 37.243 116.006 38.4918 116.512 39.6602C117.019 40.8285 117.708 41.8441 118.581 42.7097C119.455 43.5726 120.486 44.2559 121.676 44.7624C122.866 45.2689 124.144 45.5207 125.514 45.5207C126.862 45.5207 128.14 45.3251 129.351 44.9366C130.562 44.548 131.8 43.8781 133.062 42.9294L130.187 40.0541C129.64 40.5391 128.954 40.9223 128.134 41.2064C127.314 41.4904 126.492 41.6324 125.672 41.6324C124.996 41.6324 124.383 41.5333 123.823 41.3323C123.265 41.1313 122.764 40.858 122.322 40.5123C121.88 40.1639 121.505 39.754 121.202 39.2796C120.896 38.8053 120.661 38.3069 120.492 37.779H135.086C135.129 37.4413 135.166 37.1171 135.196 36.8009C135.228 36.4847 135.244 36.1792 135.244 35.8844C135.244 34.4749 134.981 33.1832 134.453 32.0149C133.925 30.8492 133.21 29.8443 132.304 29.0002ZM120.492 34.1185C120.851 32.9608 121.481 32.0283 122.386 31.3235C123.292 30.6187 124.313 30.265 125.449 30.265C126.607 30.265 127.644 30.6187 128.56 31.3235C129.477 32.0283 130.112 32.9608 130.471 34.1185H120.492Z" fill="#414141"/>
<path d="M148.608 25.5352C148.471 25.2163 148.096 25.0663 147.782 25.2136C145.928 26.0765 144.422 27.135 143.229 28.2846C143.195 28.3168 143.165 28.3516 143.133 28.3838L143.125 27.3735C143.117 26.5026 142.061 26.0738 141.447 26.6955L138.76 29.4289C138.644 29.5441 138.583 29.7022 138.583 29.863V44.9017C138.583 45.2447 138.862 45.5207 139.202 45.5207H142.511C142.854 45.5207 143.13 45.242 143.13 44.9017V36.2354C143.13 36.1818 143.136 36.1309 143.149 36.0773C143.313 35.4315 143.548 34.7267 143.902 34.0139C144.371 33.0626 145.033 32.0845 145.995 31.16C146.85 30.3373 147.943 29.5521 149.374 28.8742C149.68 28.7295 149.822 28.3757 149.688 28.0676L148.608 25.5352Z" fill="#414141"/>
<path d="M144.285 7.09595L138.251 25.1413L164 0L144.285 7.09595Z" fill="#B40000"/>
<path d="M144.285 7.09595L164 0L130.471 0.988823L144.285 7.09595Z" fill="#E60000"/>
<path d="M151.325 23.9917C151.325 22.9251 151.695 22.0274 152.431 21.2985C153.168 20.567 154.066 20.2025 155.122 20.2025C156.175 20.2025 157.07 20.567 157.81 21.2985C158.549 22.0301 158.919 22.9278 158.919 23.9917C158.919 25.0609 158.549 25.9613 157.81 26.6955C157.07 27.4298 156.172 27.7969 155.122 27.7969C154.066 27.7969 153.168 27.4298 152.431 26.6955C151.695 25.964 151.325 25.0609 151.325 23.9917ZM151.78 23.9917C151.78 24.9349 152.107 25.7335 152.758 26.3847C153.412 27.0358 154.2 27.3628 155.122 27.3628C156.041 27.3628 156.829 27.0385 157.48 26.3847C158.134 25.7335 158.458 24.9349 158.458 23.9917C158.458 23.0538 158.131 22.2632 157.48 21.6147C156.826 20.9662 156.041 20.642 155.122 20.642C154.197 20.642 153.41 20.9662 152.758 21.6147C152.107 22.2632 151.78 23.0564 151.78 23.9917ZM154.256 24.2811V26.0872H153.731V21.7755H155.111C155.636 21.7755 156.038 21.8827 156.32 22.0944C156.601 22.3088 156.743 22.6196 156.743 23.0323C156.743 23.2628 156.679 23.4611 156.548 23.6272C156.416 23.796 156.231 23.93 155.987 24.0319C156.229 24.1176 156.406 24.2489 156.513 24.4285C156.62 24.608 156.673 24.8251 156.673 25.077V25.361C156.673 25.495 156.682 25.6209 156.695 25.7308C156.708 25.8434 156.732 25.9345 156.765 26.0041V26.0845H156.218C156.183 26.0149 156.162 25.9104 156.154 25.7737C156.146 25.637 156.143 25.4977 156.143 25.3557V25.0823C156.143 24.7983 156.076 24.5946 155.939 24.4687C155.803 24.3427 155.577 24.2811 155.259 24.2811H154.256ZM154.256 23.8202H155.224C155.505 23.8202 155.741 23.7505 155.931 23.6138C156.121 23.4772 156.218 23.2869 156.218 23.043C156.218 22.7563 156.135 22.55 155.971 22.424C155.808 22.2981 155.521 22.2364 155.111 22.2364H154.256V23.8202Z" fill="black"/>
</g>
<defs>
<clipPath id="clip0">
<rect width="164" height="45.5207" fill="white"/>
</clipPath>
</defs>
</svg>
