<svg width="60" height="28" viewBox="0 0 60 28" fill="none" xmlns="http://www.w3.org/2000/svg">
<rect width="60" height="28" rx="4" fill="white"/>
<path d="M23.2052 23.542C23.2052 23.1473 23.4576 22.8219 23.8737 22.8219C24.2693 22.8219 24.5422 23.1335 24.5422 23.542C24.5422 23.9505 24.2761 24.2621 23.8737 24.2621C23.4644 24.2621 23.2052 23.9367 23.2052 23.542ZM24.9992 23.542V22.4203H24.5217V22.6903C24.3648 22.4895 24.1397 22.3649 23.8259 22.3649C23.2052 22.3649 22.7209 22.8565 22.7209 23.542C22.7209 24.2275 23.2052 24.7191 23.8259 24.7191C24.1397 24.7191 24.3716 24.5945 24.5217 24.3937V24.6637H24.9992V23.542ZM41.2198 23.542C41.2198 23.1473 41.4722 22.8219 41.8883 22.8219C42.2839 22.8219 42.5567 23.1335 42.5567 23.542C42.5567 23.9505 42.2907 24.2621 41.8883 24.2621C41.479 24.2621 41.2198 23.9367 41.2198 23.542ZM43.0069 23.542V21.5201H42.5294V22.6903C42.3794 22.4895 42.1475 22.3649 41.8337 22.3649C41.213 22.3649 40.7287 22.8565 40.7287 23.542C40.7287 24.2275 41.213 24.7191 41.8337 24.7191C42.1475 24.7191 42.3794 24.5945 42.5294 24.3937V24.6637H43.0069V23.542ZM30.954 22.8011C31.261 22.8011 31.4656 22.995 31.5133 23.3481H30.3674C30.422 23.0227 30.613 22.8011 30.954 22.8011ZM30.9677 22.3649C30.3196 22.3649 29.8695 22.8427 29.8695 23.542C29.8695 24.2552 30.3401 24.7191 31.0018 24.7191C31.336 24.7191 31.6361 24.636 31.909 24.4075L31.6702 24.0474C31.4861 24.1998 31.2473 24.2829 31.029 24.2829C30.7221 24.2829 30.4356 24.1375 30.3674 23.7359H32.0045C32.0113 23.6735 32.0113 23.6112 32.0113 23.5489C32.0113 22.8427 31.5816 22.3649 30.9677 22.3649ZM36.7656 23.542C36.7656 23.1473 37.018 22.8219 37.4341 22.8219C37.8297 22.8219 38.0957 23.1335 38.0957 23.542C38.0957 23.9505 37.8297 24.2621 37.4341 24.2621C37.018 24.2621 36.7656 23.9367 36.7656 23.542ZM38.5527 23.542V22.4203H38.0753V22.6903C37.9252 22.4895 37.6933 22.3649 37.3795 22.3649C36.7588 22.3649 36.2745 22.8565 36.2745 23.542C36.2745 24.2275 36.7588 24.7191 37.3795 24.7191C37.6933 24.7191 37.9252 24.5945 38.0753 24.3937V24.6637H38.5527V23.542ZM34.0508 23.542C34.0508 24.2206 34.5146 24.7191 35.2308 24.7191C35.5651 24.7191 35.7834 24.6429 36.0289 24.4491L35.797 24.0544C35.6128 24.1859 35.4287 24.2552 35.2172 24.2552C34.8352 24.2482 34.5487 23.9713 34.5487 23.5351C34.5487 23.1058 34.8284 22.8219 35.2172 22.815C35.4218 22.815 35.6128 22.8842 35.797 23.0158L36.0289 22.6211C35.7902 22.4272 35.5651 22.351 35.2308 22.351C34.5215 22.3649 34.0508 22.8634 34.0508 23.542ZM40.2444 22.3649C39.9647 22.3649 39.7874 22.4964 39.6646 22.6903V22.4203H39.1871V24.6637H39.6646V23.4035C39.6646 23.0365 39.8215 22.8288 40.1352 22.8288C40.2307 22.8288 40.333 22.8427 40.4354 22.8842L40.5854 22.4272C40.4763 22.3857 40.3399 22.3649 40.2444 22.3649ZM27.3729 22.6003C27.141 22.448 26.8204 22.3649 26.4725 22.3649C25.9132 22.3649 25.5517 22.6349 25.5517 23.0781C25.5517 23.4451 25.8177 23.6666 26.3157 23.7428L26.5407 23.7774C26.8068 23.819 26.9296 23.8882 26.9296 24.0128C26.9296 24.1859 26.7522 24.2829 26.4248 24.2829C26.0906 24.2829 25.8518 24.1721 25.6881 24.0474L25.463 24.4283C25.729 24.6291 26.0564 24.7191 26.418 24.7191C27.0523 24.7191 27.4275 24.4144 27.4275 23.9851C27.4275 23.5905 27.1342 23.3827 26.6567 23.3135L26.4316 23.2789C26.2202 23.2512 26.0564 23.2096 26.0564 23.0573C26.0564 22.8911 26.2133 22.7942 26.4794 22.7942C26.759 22.7942 27.0319 22.898 27.1683 22.9881L27.3729 22.6003ZM33.5665 22.3649C33.2868 22.3649 33.1095 22.4964 32.9799 22.6903V22.4203H32.5024V24.6637H32.9799V23.4035C32.9799 23.0365 33.1368 22.8288 33.4505 22.8288C33.546 22.8288 33.6483 22.8427 33.7507 22.8842L33.9007 22.4272C33.8052 22.3857 33.662 22.3649 33.5665 22.3649ZM29.467 22.4203H28.6826V21.7417H28.1983V22.4203H27.7481V22.8634H28.1983V23.8882C28.1983 24.4075 28.3961 24.7191 28.9691 24.7191C29.1737 24.7191 29.4193 24.6568 29.5693 24.546L29.4329 24.1305C29.2897 24.2136 29.1328 24.2552 29.01 24.2552C28.7713 24.2552 28.6894 24.1028 28.6894 23.8813V22.8703H29.467V22.4203ZM22.2912 24.6637V23.2581C22.2912 22.7249 21.957 22.3718 21.4249 22.3649C21.1452 22.358 20.8519 22.448 20.6473 22.7596C20.4972 22.5103 20.2517 22.3649 19.9174 22.3649C19.6787 22.3649 19.4536 22.4341 19.2694 22.6972V22.4203H18.7851V24.6637H19.2694V23.4243C19.2694 23.0365 19.4809 22.8288 19.8083 22.8288C20.1289 22.8288 20.2858 23.0435 20.2858 23.4174V24.6637H20.7701V23.4243C20.7701 23.0365 20.9952 22.8288 21.309 22.8288C21.6364 22.8288 21.7933 23.0435 21.7933 23.4174V24.6637H22.2912Z" fill="#010103"/>
<path d="M34.4875 5.33826H27.2094V18.6118H34.4875V5.33826Z" fill="#FE460C"/>
<path d="M27.6732 11.9719C27.6732 9.2784 28.9146 6.88265 30.8518 5.33165C29.433 4.20301 27.6527 3.53137 25.7087 3.53137C21.1181 3.53137 17.3938 7.31195 17.3938 11.9719C17.3938 16.6388 21.1181 20.4124 25.7087 20.4124C27.6459 20.4124 29.433 19.7408 30.845 18.6052C28.9146 17.068 27.6732 14.6723 27.6732 11.9719Z" fill="#FD090E"/>
<path d="M44.3099 11.9719C44.3099 16.6388 40.5856 20.4124 35.995 20.4124C34.0578 20.4124 32.2707 19.7408 30.8519 18.6052C32.7891 17.0611 34.0305 14.6585 34.0305 11.965C34.0305 9.27148 32.7891 6.87573 30.8519 5.32472C32.2638 4.20301 34.051 3.53137 35.9882 3.53137C40.5856 3.53137 44.3099 7.31195 44.3099 11.9719Z" fill="#FF8E13"/>
</svg>
