<svg width="46" height="46" viewBox="0 0 46 46" fill="none" xmlns="http://www.w3.org/2000/svg">
<path d="M45.1438 25.9249C44.7458 25.2412 44.0938 24.7424 43.3298 24.5371C42.5658 24.3317 41.7517 24.4364 41.0645 24.8284L27.5 32.7334C27.4947 31.742 27.0973 30.793 26.3947 30.0935C25.6922 29.394 24.7414 29.0009 23.75 28.9999H8.75975C8.69855 28.9999 8.63759 29.0075 8.57825 29.0224L6.47825 29.5474C6.42906 28.9897 6.17325 28.4706 5.761 28.0918C5.34876 27.713 4.80985 27.5019 4.25 27.4999H2.75C2.15326 27.4999 1.58097 27.737 1.15901 28.1589C0.737053 28.5809 0.5 29.1532 0.5 29.7499V43.2499C0.5 43.8466 0.737053 44.4189 1.15901 44.8409C1.58097 45.2629 2.15326 45.4999 2.75 45.4999H4.25C4.80875 45.4981 5.34677 45.2881 5.75895 44.9109C6.17113 44.5337 6.42787 44.0163 6.479 43.4599L8.57 43.9782C8.62892 43.9925 8.68935 43.9998 8.75 43.9999H19.055C19.717 43.9984 20.367 43.8236 20.9405 43.4929L44.0563 30.0222C44.7385 29.6181 45.2347 28.9623 45.4381 28.196C45.6415 27.4297 45.5358 26.6141 45.1438 25.9249ZM5 43.2499C5 43.4488 4.92098 43.6396 4.78033 43.7802C4.63968 43.9209 4.44891 43.9999 4.25 43.9999H2.75C2.55109 43.9999 2.36032 43.9209 2.21967 43.7802C2.07902 43.6396 2 43.4488 2 43.2499V29.7499C2 29.551 2.07902 29.3602 2.21967 29.2196C2.36032 29.0789 2.55109 28.9999 2.75 28.9999H4.25C4.44891 28.9999 4.63968 29.0789 4.78033 29.2196C4.92098 29.3602 5 29.551 5 29.7499V43.2499ZM43.2995 28.7269L20.1898 42.1947C19.8445 42.3934 19.4534 42.4986 19.055 42.4999H8.8415L6.5 41.9202V31.0857L8.852 30.4999H23.75C24.1478 30.4988 24.5387 30.6034 24.8827 30.8031C25.2267 31.0028 25.5115 31.2903 25.7078 31.6362C25.9042 31.9821 26.005 32.374 26.0001 32.7717C25.9952 33.1695 25.8846 33.5587 25.6798 33.8997C25.5863 34.0587 25.4743 34.206 25.346 34.3384C24.9224 34.7613 24.3485 34.9991 23.75 34.9999H16.25V36.4999H23.75C24.3648 36.5042 24.971 36.355 25.5135 36.0658C26.0561 35.7766 26.518 35.3567 26.8573 34.8439L41.8153 26.1252C41.9838 26.027 42.1701 25.9633 42.3635 25.9376C42.5568 25.9119 42.7534 25.9249 42.9417 25.9756C43.13 26.0264 43.3064 26.114 43.4606 26.2334C43.6149 26.3528 43.7439 26.5016 43.8403 26.6712C44.0374 27.0164 44.0912 27.4251 43.9901 27.8096C43.8889 28.194 43.641 28.5234 43.2995 28.7269Z" fill="#005AEB"/>
<path d="M5.07886 22.5853C5.14116 22.7099 5.23696 22.8148 5.35553 22.888C5.4741 22.9613 5.61073 23.0001 5.75011 23H40.2501C40.3901 23.0008 40.5275 22.9623 40.6468 22.889C40.7661 22.8157 40.8625 22.7105 40.9251 22.5853L42.4251 19.5853C42.4824 19.4706 42.5094 19.3432 42.5034 19.2151C42.4974 19.0871 42.4588 18.9627 42.3911 18.8539C42.3234 18.745 42.2289 18.6554 42.1167 18.5934C42.0045 18.5315 41.8783 18.4993 41.7501 18.5H40.2119C40.0296 14.7204 38.4934 11.1326 35.884 8.39223C33.2746 5.65187 29.7663 3.94197 26.0001 3.575V3.5C26.0001 2.70435 25.684 1.94129 25.1214 1.37868C24.5588 0.816071 23.7958 0.5 23.0001 0.5C22.2045 0.5 21.4414 0.816071 20.8788 1.37868C20.3162 1.94129 20.0001 2.70435 20.0001 3.5V3.575C16.234 3.94197 12.7256 5.65187 10.1162 8.39223C7.5068 11.1326 5.97061 14.7204 5.78836 18.5H4.25011C4.12225 18.4999 3.9965 18.5326 3.8848 18.5948C3.7731 18.657 3.67916 18.7467 3.61191 18.8555C3.54465 18.9642 3.50631 19.0883 3.50052 19.2161C3.49474 19.3438 3.5217 19.4709 3.57886 19.5853L5.07886 22.5853ZM23.0001 2C23.3979 2 23.7795 2.15804 24.0608 2.43934C24.3421 2.72064 24.5001 3.10218 24.5001 3.5H21.5001C21.5001 3.10218 21.6581 2.72064 21.9394 2.43934C22.2208 2.15804 22.6023 2 23.0001 2ZM21.5001 5H24.5001C28.146 5.00601 31.6511 6.40874 34.2945 8.91976C36.9379 11.4308 38.5187 14.8592 38.7119 18.5H7.28686C7.48003 14.8589 9.06106 11.4303 11.7048 8.91924C14.3485 6.40819 17.8539 5.00562 21.5001 5ZM40.5366 20L39.7866 21.5H6.21361L5.46361 20H40.5366Z" fill="#005AEB"/>
<path d="M24.5 6.5V8C26.9944 7.99962 29.4181 8.82823 31.3902 10.3556C33.3623 11.8829 34.7709 14.0223 35.3945 16.4375L36.8465 16.0625C36.1398 13.3254 34.5435 10.9008 32.3086 9.16982C30.0737 7.43885 27.3269 6.4997 24.5 6.5Z" fill="#005AEB"/>
<path d="M23 6.5H21.5V8H23V6.5Z" fill="#005AEB"/>
<path d="M0.799862 8H2.29986C2.29414 7.69951 2.40486 7.40845 2.60886 7.18775C2.99086 6.70824 3.19887 6.11332 3.19887 5.50025C3.19887 4.88718 2.99086 4.29226 2.60886 3.81275C2.40454 3.59104 2.29383 3.29894 2.29986 2.9975C2.29394 2.69765 2.40473 2.40722 2.60886 2.1875C2.99727 1.71149 3.20641 1.11433 3.19986 0.5H1.69986C1.70512 0.79996 1.59443 1.09038 1.39086 1.31075C1.00189 1.78615 0.792664 2.38329 0.799862 2.9975C0.792966 3.61234 1.00213 4.21009 1.39086 4.6865C1.58987 4.91041 1.69979 5.19956 1.69979 5.49912C1.69979 5.79869 1.58987 6.08784 1.39086 6.31175C1.0019 6.78774 0.792695 7.38534 0.799862 8Z" fill="#005AEB"/>
<path d="M5.29986 8H6.79986C6.79414 7.69951 6.90486 7.40845 7.10886 7.18775C7.49086 6.70824 7.69887 6.11332 7.69887 5.50025C7.69887 4.88718 7.49086 4.29226 7.10886 3.81275C6.90454 3.59104 6.79383 3.29894 6.79986 2.9975C6.79394 2.69765 6.90473 2.40722 7.10886 2.1875C7.49727 1.71149 7.70641 1.11433 7.69986 0.5H6.19986C6.20512 0.79996 6.09443 1.09038 5.89086 1.31075C5.50189 1.78615 5.29266 2.38329 5.29986 2.9975C5.29297 3.61234 5.50213 4.21009 5.89086 4.6865C6.08987 4.91041 6.19979 5.19956 6.19979 5.49912C6.19979 5.79869 6.08987 6.08784 5.89086 6.31175C5.5019 6.78774 5.2927 7.38534 5.29986 8Z" fill="#005AEB"/>
<path d="M38.2999 8H39.7999C39.7941 7.69951 39.9049 7.40845 40.1089 7.18775C40.4909 6.70824 40.6989 6.11332 40.6989 5.50025C40.6989 4.88718 40.4909 4.29226 40.1089 3.81275C39.9045 3.59104 39.7938 3.29894 39.7999 2.9975C39.7939 2.69765 39.9047 2.40722 40.1089 2.1875C40.4973 1.71149 40.7064 1.11433 40.6999 0.5H39.1999C39.2051 0.79996 39.0944 1.09038 38.8909 1.31075C38.5019 1.78615 38.2927 2.38329 38.2999 2.9975C38.293 3.61234 38.5021 4.21009 38.8909 4.6865C39.0899 4.91041 39.1998 5.19956 39.1998 5.49912C39.1998 5.79869 39.0899 6.08784 38.8909 6.31175C38.5019 6.78774 38.2927 7.38534 38.2999 8Z" fill="#005AEB"/>
<path d="M42.7999 8H44.2999C44.2941 7.69951 44.4049 7.40845 44.6089 7.18775C44.9909 6.70824 45.1989 6.11332 45.1989 5.50025C45.1989 4.88718 44.9909 4.29226 44.6089 3.81275C44.4045 3.59104 44.2938 3.29894 44.2999 2.9975C44.2939 2.69765 44.4047 2.40722 44.6089 2.1875C44.9973 1.71149 45.2064 1.11433 45.1999 0.5H43.6999C43.7051 0.79996 43.5944 1.09038 43.3909 1.31075C43.0019 1.78615 42.7927 2.38329 42.7999 2.9975C42.793 3.61234 43.0021 4.21009 43.3909 4.6865C43.5899 4.91041 43.6998 5.19956 43.6998 5.49912C43.6998 5.79869 43.5899 6.08784 43.3909 6.31175C43.0019 6.78774 42.7927 7.38534 42.7999 8Z" fill="#005AEB"/>
</svg>
