<svg width="26" height="25" viewBox="0 0 26 25" fill="none" xmlns="http://www.w3.org/2000/svg">
<path d="M24.5332 14.0234C24.3259 13.6673 23.9864 13.4075 23.5884 13.3005C23.1905 13.1936 22.7665 13.2481 22.4086 13.4523L15.3438 17.5695C15.341 17.0531 15.134 16.5588 14.7681 16.1945C14.4022 15.8302 13.907 15.6254 13.3906 15.6249H5.5832C5.55133 15.6249 5.51958 15.6289 5.48867 15.6366L4.39492 15.9101C4.3693 15.6196 4.23607 15.3492 4.02136 15.1519C3.80665 14.9546 3.52596 14.8447 3.23438 14.8437H2.45313C2.14232 14.8437 1.84425 14.9671 1.62448 15.1869C1.40472 15.4067 1.28125 15.7047 1.28125 16.0155V23.0468C1.28125 23.3576 1.40472 23.6557 1.62448 23.8754C1.84425 24.0952 2.14232 24.2187 2.45313 24.2187H3.23438C3.52539 24.2178 3.80561 24.1084 4.02029 23.9119C4.23496 23.7154 4.36868 23.446 4.39531 23.1562L5.48438 23.4261C5.51506 23.4336 5.54654 23.4374 5.57813 23.4374H10.9453C11.2901 23.4366 11.6287 23.3456 11.9273 23.1734L23.9668 16.1573C24.3221 15.9469 24.5806 15.6054 24.6865 15.2062C24.7925 14.8071 24.7374 14.3823 24.5332 14.0234ZM3.625 23.0468C3.625 23.1504 3.58385 23.2498 3.51059 23.323C3.43733 23.3963 3.33798 23.4374 3.23438 23.4374H2.45313C2.34952 23.4374 2.25017 23.3963 2.17691 23.323C2.10366 23.2498 2.0625 23.1504 2.0625 23.0468V16.0155C2.0625 15.9119 2.10366 15.8126 2.17691 15.7393C2.25017 15.6661 2.34952 15.6249 2.45313 15.6249H3.23438C3.33798 15.6249 3.43733 15.6661 3.51059 15.7393C3.58385 15.8126 3.625 15.9119 3.625 16.0155V23.0468ZM23.5727 15.4827L11.5363 22.4972C11.3565 22.6007 11.1528 22.6555 10.9453 22.6562H5.62578L4.40625 22.3542V16.7113L5.63125 16.4062H13.3906C13.5978 16.4056 13.8014 16.4601 13.9806 16.5641C14.1597 16.6681 14.3081 16.8178 14.4103 16.998C14.5126 17.1781 14.5651 17.3823 14.5626 17.5894C14.56 17.7966 14.5024 17.9993 14.3957 18.1769C14.3471 18.2597 14.2887 18.3364 14.2219 18.4054C14.0012 18.6256 13.7024 18.7495 13.3906 18.7499H9.48438V19.5312H13.3906C13.7108 19.5334 14.0265 19.4557 14.3091 19.3051C14.5917 19.1545 14.8323 18.9357 15.009 18.6687L22.7996 14.1277C22.8874 14.0765 22.9844 14.0433 23.0852 14.03C23.1859 14.0166 23.2882 14.0233 23.3863 14.0498C23.4844 14.0762 23.5762 14.1219 23.6566 14.184C23.7369 14.2462 23.8041 14.3237 23.8543 14.412C23.957 14.5918 23.985 14.8047 23.9323 15.005C23.8797 15.2052 23.7505 15.3767 23.5727 15.4827Z" fill="#4F4F4F"/>
<path d="M3.66608 12.284C3.69852 12.3489 3.74842 12.4035 3.81018 12.4417C3.87193 12.4798 3.94309 12.5 4.01569 12.5H21.9844C22.0574 12.5004 22.1289 12.4804 22.1911 12.4422C22.2532 12.404 22.3034 12.3492 22.336 12.284L23.1172 10.7215C23.1471 10.6618 23.1611 10.5954 23.158 10.5287C23.1549 10.462 23.1348 10.3972 23.0995 10.3406C23.0643 10.2839 23.0151 10.2372 22.9566 10.2049C22.8982 10.1726 22.8324 10.1559 22.7657 10.1562H21.9645C21.8696 8.18771 21.0695 6.31906 19.7104 4.89179C18.3514 3.46452 16.5241 2.57394 14.5626 2.38281V2.34375C14.5626 1.92935 14.3979 1.53192 14.1049 1.2389C13.8119 0.94587 13.4145 0.78125 13.0001 0.78125C12.5857 0.78125 12.1882 0.94587 11.8952 1.2389C11.6022 1.53192 11.4376 1.92935 11.4376 2.34375V2.38281C9.47602 2.57394 7.64876 3.46452 6.28969 4.89179C4.93063 6.31906 4.13053 8.18771 4.03561 10.1562H3.23444C3.16784 10.1562 3.10235 10.1732 3.04417 10.2056C2.986 10.238 2.93707 10.2848 2.90204 10.3414C2.86701 10.398 2.84704 10.4627 2.84403 10.5292C2.84102 10.5957 2.85506 10.6619 2.88483 10.7215L3.66608 12.284ZM13.0001 1.5625C13.2073 1.5625 13.406 1.64481 13.5525 1.79132C13.699 1.93784 13.7813 2.13655 13.7813 2.34375H12.2188C12.2188 2.13655 12.3011 1.93784 12.4476 1.79132C12.5941 1.64481 12.7929 1.5625 13.0001 1.5625ZM12.2188 3.125H13.7813C15.6802 3.12813 17.5058 3.85872 18.8825 5.16654C20.2593 6.47436 21.0827 8.26 21.1833 10.1562H4.81608C4.91669 8.25986 5.74014 6.47411 7.11708 5.16627C8.49402 3.85843 10.3198 3.12793 12.2188 3.125ZM22.1337 10.9375L21.743 11.7188H4.25709L3.86647 10.9375H22.1337Z" fill="#4F4F4F"/>
<path d="M13.7812 3.90625V4.6875C15.0804 4.6873 16.3428 5.11887 17.3699 5.91436C18.397 6.70984 19.1307 7.82413 19.4555 9.08203L20.2117 8.88672C19.8436 7.46115 19.0122 6.19833 17.8482 5.29678C16.6842 4.39524 15.2536 3.90609 13.7812 3.90625Z" fill="#4F4F4F"/>
<path d="M13 3.90625H12.2188V4.6875H13V3.90625Z" fill="#4F4F4F"/>
<path d="M1.43747 4.6875H2.21872C2.21574 4.531 2.27341 4.3794 2.37966 4.26445C2.57862 4.01471 2.68695 3.70485 2.68695 3.38555C2.68695 3.06624 2.57862 2.75638 2.37966 2.50664C2.27324 2.39117 2.21558 2.23903 2.21872 2.08203C2.21564 1.92586 2.27334 1.77459 2.37966 1.66016C2.58195 1.41224 2.69088 1.10121 2.68747 0.78125H1.90622C1.90896 0.937479 1.85131 1.08874 1.74528 1.20352C1.54269 1.45112 1.43372 1.76213 1.43747 2.08203C1.43388 2.40226 1.54282 2.71359 1.74528 2.96172C1.84893 3.07834 1.90619 3.22894 1.90619 3.38496C1.90619 3.54098 1.84893 3.69158 1.74528 3.8082C1.5427 4.05611 1.43374 4.36737 1.43747 4.6875Z" fill="#4F4F4F"/>
<path d="M3.78122 4.6875H4.56247C4.55949 4.531 4.61716 4.3794 4.72341 4.26445C4.92237 4.01471 5.0307 3.70485 5.0307 3.38555C5.0307 3.06624 4.92237 2.75638 4.72341 2.50664C4.61699 2.39117 4.55933 2.23903 4.56247 2.08203C4.55939 1.92586 4.61709 1.77459 4.72341 1.66016C4.9257 1.41224 5.03463 1.10121 5.03122 0.78125H4.24997C4.25271 0.937479 4.19506 1.08874 4.08903 1.20352C3.88644 1.45112 3.77747 1.76213 3.78122 2.08203C3.77763 2.40226 3.88657 2.71359 4.08903 2.96172C4.19268 3.07834 4.24994 3.22894 4.24994 3.38496C4.24994 3.54098 4.19268 3.69158 4.08903 3.8082C3.88645 4.05611 3.77749 4.36737 3.78122 4.6875Z" fill="#4F4F4F"/>
<path d="M20.9687 4.6875H21.75C21.747 4.531 21.8047 4.3794 21.9109 4.26445C22.1099 4.01471 22.2182 3.70485 22.2182 3.38555C22.2182 3.06624 22.1099 2.75638 21.9109 2.50664C21.8045 2.39117 21.7468 2.23903 21.75 2.08203C21.7469 1.92586 21.8046 1.77459 21.9109 1.66016C22.1132 1.41224 22.2221 1.10121 22.2187 0.78125H21.4375C21.4402 0.937479 21.3826 1.08874 21.2765 1.20352C21.0739 1.45112 20.965 1.76213 20.9687 2.08203C20.9651 2.40226 21.0741 2.71359 21.2765 2.96172C21.3802 3.07834 21.4374 3.22894 21.4374 3.38496C21.4374 3.54098 21.3802 3.69158 21.2765 3.8082C21.0739 4.05611 20.965 4.36737 20.9687 4.6875Z" fill="#4F4F4F"/>
<path d="M23.3125 4.6875H24.0937C24.0907 4.531 24.1484 4.3794 24.2547 4.26445C24.4536 4.01471 24.562 3.70485 24.562 3.38555C24.562 3.06624 24.4536 2.75638 24.2547 2.50664C24.1482 2.39117 24.0906 2.23903 24.0937 2.08203C24.0906 1.92586 24.1483 1.77459 24.2547 1.66016C24.457 1.41224 24.5659 1.10121 24.5625 0.78125H23.7812C23.784 0.937479 23.7263 1.08874 23.6203 1.20352C23.4177 1.45112 23.3087 1.76213 23.3125 2.08203C23.3089 2.40226 23.4178 2.71359 23.6203 2.96172C23.7239 3.07834 23.7812 3.22894 23.7812 3.38496C23.7812 3.54098 23.7239 3.69158 23.6203 3.8082C23.4177 4.05611 23.3087 4.36737 23.3125 4.6875Z" fill="#4F4F4F"/>
</svg>
