<svg width="13" height="8" viewBox="0 0 13 8" fill="none" xmlns="http://www.w3.org/2000/svg">
<path d="M6.86096 2L7.56807 1.29289L6.86096 0.585786L6.15386 1.29289L6.86096 2ZM11.1539 7.70711C11.5444 8.09763 12.1775 8.09763 12.5681 7.70711C12.9586 7.31658 12.9586 6.68342 12.5681 6.29289L11.1539 7.70711ZM1.15386 6.29289C0.763331 6.68342 0.763331 7.31658 1.15386 7.70711C1.54438 8.09763 2.17754 8.09763 2.56807 7.70711L1.15386 6.29289ZM6.15386 2.70711L11.1539 7.70711L12.5681 6.29289L7.56807 1.29289L6.15386 2.70711ZM2.56807 7.70711L7.56807 2.70711L6.15386 1.29289L1.15386 6.29289L2.56807 7.70711Z" fill="#005AEB"/>
</svg>
