<svg width="22" height="23" viewBox="0 0 22 23" fill="none" xmlns="http://www.w3.org/2000/svg">
<mask id="path-1-inside-1" fill="white">
<path d="M21.7743 18.8528L20.3837 16.5792L20.6647 16.2548C20.6658 16.2535 20.6669 16.2522 20.668 16.2509C21.1243 15.7072 21.3762 15.1318 21.3963 14.5874C21.4188 13.9928 21.3434 13.216 20.8561 12.8902C20.6837 12.7726 20.4776 12.725 20.2591 12.7232C20.1837 11.1727 19.7213 9.66417 18.9124 8.34009C18.8197 8.18815 18.6213 8.14028 18.4694 8.23305C18.3176 8.32582 18.2697 8.52417 18.3624 8.67606C19.1268 9.92735 19.5586 11.3558 19.6184 12.8225C19.4288 12.8772 19.245 12.9484 19.08 13.022C18.582 13.2456 18.143 13.6942 17.8105 14.3193C17.8097 14.3207 17.809 14.3221 17.8083 14.3235L17.6123 14.7057L14.9854 14.2629C14.3879 14.1508 13.8391 14.4408 13.6049 14.7862L13.3216 15.2053C13.1717 15.4283 13.1286 15.6404 13.1938 15.836C13.2983 16.1499 13.6409 16.2694 13.7507 16.3076L15.187 16.8237L16.3188 17.227L15.8153 18.2085L14.4975 17.9171C14.0012 17.8115 13.5386 18.0567 13.3377 18.3539L13.183 18.5835C13.0521 18.7771 13.0152 18.964 13.0734 19.139C13.1604 19.4006 13.4241 19.506 13.5353 19.5454L14.8567 20.1978C14.8128 20.436 14.8403 20.6673 14.9311 20.8629C13.7577 21.4649 12.4526 21.7902 11.1263 21.8099C11.1818 21.0533 11.0407 20.1199 10.4907 19.4296C10.0668 18.8976 9.46065 18.5953 8.73791 18.5555C8.06962 18.5185 7.76652 18.4962 7.58476 18.3558C7.38268 18.1996 7.20827 17.8126 6.89167 17.1101L6.85502 17.0288C6.4934 16.2272 5.66857 15.7294 4.70212 15.7294C4.70173 15.7294 4.7013 15.7294 4.70091 15.7294C4.01354 15.7297 3.39432 15.9725 2.98508 16.3777C2.58874 15.3873 2.37024 14.3072 2.37024 13.1769C2.37024 13.159 2.37072 13.1412 2.37084 13.1233C2.83358 13.3052 3.26567 13.3963 3.66588 13.3963C4.38303 13.3963 4.998 13.1045 5.5043 12.5216C5.62105 12.3873 5.60674 12.1837 5.47237 12.067C5.33801 11.9503 5.13451 11.9646 5.01772 12.099C4.6072 12.5716 3.89353 13.1068 2.4023 12.4372C2.55475 10.6614 3.25321 8.9722 4.40941 7.60429H8.46059C8.66641 7.60429 8.86832 7.56528 9.06082 7.48836C9.93911 7.18951 10.5284 6.3664 10.5284 5.4369C10.5284 5.1283 10.4632 4.83474 10.3467 4.56872C10.564 4.55226 10.7818 4.54302 10.9983 4.54302C12.1389 4.54302 13.2538 4.76968 14.2852 5.1952C14.6421 5.74447 14.8072 6.15874 14.7886 6.45909C14.7731 6.70895 14.6234 6.8911 14.4339 7.12167C14.0817 7.55011 13.6 8.1362 13.9107 9.41057C14.0451 10.3622 13.347 11.0335 12.584 11.2058C11.9728 11.3439 11.1589 11.1772 10.8773 10.2531C10.5649 9.22774 9.54207 8.4983 8.38999 8.47918C8.37401 8.47892 8.35824 8.47879 8.34234 8.47879C7.22498 8.47879 6.33544 9.13535 5.95728 10.2433C5.86034 10.5287 5.77367 10.7588 5.68438 10.9675C5.61443 11.1311 5.6904 11.3205 5.85402 11.3905C6.0176 11.4604 6.20701 11.3845 6.27705 11.2209C6.37287 10.9967 6.46521 10.752 6.56739 10.4511C6.98333 9.23276 7.97496 9.11735 8.37934 9.12367C9.25526 9.13819 10.0289 9.6799 10.2608 10.441C10.5756 11.4738 11.3915 11.8938 12.1988 11.8938C12.3768 11.8938 12.5544 11.8733 12.726 11.8346C13.783 11.5959 14.7476 10.649 14.5461 9.30113C14.5446 9.29107 14.5427 9.2811 14.5402 9.27126C14.2995 8.30021 14.6066 7.9266 14.9318 7.53099C15.3504 7.02172 15.6282 6.55671 15.276 5.68036C16.1041 6.15362 16.8575 6.76528 17.4991 7.50018C17.5628 7.57318 17.6521 7.61048 17.742 7.61048C17.8172 7.61048 17.8927 7.58431 17.9538 7.53099C18.0879 7.41394 18.1017 7.21035 17.9846 7.07629C17.0598 6.01702 15.9193 5.1952 14.6578 4.65268C14.636 4.64026 14.6131 4.63025 14.5893 4.62325C13.4646 4.15029 12.2457 3.89854 10.9984 3.89854C10.6482 3.89854 10.2948 3.9189 9.94525 3.95878C9.54959 3.53438 8.98653 3.26831 8.36228 3.26831C8.32258 3.26831 8.28275 3.26943 8.24291 3.27167C8.115 2.64802 7.7938 2.07864 7.31861 1.64272C6.75671 1.12727 6.02689 0.843414 5.26359 0.843414C4.36842 0.843414 3.53925 1.22566 2.96059 1.89868C2.9202 1.89598 2.87916 1.8946 2.83783 1.8946C1.90326 1.8946 1.13756 2.63117 1.09089 3.55418C0.421824 3.93772 0 4.65517 0 5.43699C0 6.36632 0.589145 7.18934 1.46713 7.48832C1.65851 7.56532 1.86012 7.60438 2.06654 7.60438H3.58566C2.49829 9.05156 1.85793 10.7861 1.74445 12.5952C1.74273 12.6094 1.74187 12.6236 1.74204 12.6377C1.73164 12.8168 1.7258 12.9966 1.7258 13.177C1.7258 15.6557 2.69019 17.986 4.44129 19.7385C6.19262 21.4913 8.52122 22.4566 10.9983 22.4566C12.549 22.4566 14.0779 22.0668 15.4318 21.3283C15.5275 21.363 15.6323 21.3827 15.7422 21.3827C15.93 21.3827 16.1322 21.3258 16.3275 21.1928L17.4174 22.1692C17.4924 22.2542 17.6764 22.4473 17.9353 22.4473C17.9459 22.4473 17.9566 22.447 17.9673 22.4463C18.1513 22.4351 18.3106 22.3315 18.4409 22.1383L18.5956 21.9086C18.7971 21.6106 18.852 21.0889 18.5676 20.6691L17.8119 19.5482L18.5285 18.721L19.3253 19.622L20.3363 20.7588C20.4117 20.8458 20.6357 21.1042 20.949 21.1041C20.9603 21.1041 20.9717 21.1038 20.9832 21.1031C21.1897 21.0907 21.3709 20.9712 21.5221 20.7479L21.8055 20.3286C22.038 19.9827 22.1016 19.3652 21.7743 18.8528ZM1.70169 6.88796C1.69516 6.88525 1.68854 6.8828 1.68184 6.88057C1.06141 6.67256 0.644531 6.09244 0.644531 5.43699C0.644531 4.8365 0.998465 4.29002 1.54627 4.04476C1.66994 3.98941 1.74578 3.86266 1.73602 3.72756C1.73413 3.70109 1.73319 3.67282 1.73319 3.64352C1.73319 3.03456 2.22875 2.53918 2.83787 2.53918C2.9086 2.53918 2.97627 2.54519 3.03897 2.55701C3.15889 2.57961 3.28135 2.53256 3.35522 2.43536C3.81296 1.83329 4.50858 1.48799 5.26367 1.48799C6.50964 1.48799 7.53565 2.42269 7.65029 3.66212C7.65875 3.75382 7.70606 3.83752 7.78023 3.89209C7.85439 3.94666 7.9484 3.96686 8.03847 3.94761C8.14636 3.92458 8.25533 3.91289 8.36237 3.91289C9.20137 3.91289 9.88402 4.59661 9.88402 5.43699C9.88402 6.09244 9.46714 6.67256 8.84671 6.88057C8.84031 6.88272 8.83395 6.88504 8.82772 6.88761C8.70986 6.93557 8.58641 6.95989 8.46081 6.95989H2.06654C1.94086 6.95985 1.81809 6.93565 1.70169 6.88796ZM15.4042 16.2168L13.9658 15.7001C13.8854 15.6721 13.8411 15.6475 13.8182 15.6321C13.8249 15.6169 13.8364 15.5949 13.8561 15.5657L14.1387 15.1475C14.212 15.0394 14.4972 14.8263 14.8684 14.8968C14.8706 14.8972 14.8728 14.8976 14.875 14.898L17.3036 15.3073L16.6156 16.6485L15.4042 16.2168ZM13.7661 18.9434C13.7514 18.9382 13.7386 18.9334 13.7276 18.9289L13.8721 18.7144C13.9149 18.651 14.1109 18.4937 14.3609 18.547L15.5113 18.8014L15.1017 19.6001L13.8031 18.9589C13.7911 18.9529 13.7787 18.9477 13.7661 18.9434ZM3.27998 17.0329C3.5353 16.6343 4.08448 16.3743 4.70134 16.374H4.70229C5.42262 16.374 6.00776 16.7179 6.2676 17.2939L6.30416 17.375C6.67511 18.1981 6.86134 18.6112 7.19074 18.8658C7.53866 19.1347 7.95201 19.1576 8.70251 19.1992C9.24413 19.229 9.67618 19.4417 9.98667 19.8314C10.4306 20.3885 10.5354 21.1667 10.4815 21.7962C7.32768 21.6086 4.62477 19.7182 3.27998 17.0329ZM15.6079 20.7011C15.4909 20.6249 15.424 20.4304 15.5354 20.1666L16.2683 18.7378C16.2719 18.7314 16.2751 18.7248 16.2784 18.7181L17.0551 17.204C17.0562 17.2021 17.0571 17.2001 17.058 17.1982L18.3805 14.62C18.645 14.1234 18.9781 13.7742 19.3432 13.6103C19.5774 13.5059 19.7969 13.4337 19.9839 13.3962C19.9977 13.3947 20.011 13.392 20.0242 13.3887C20.2362 13.3511 20.4025 13.3606 20.4934 13.423C20.4947 13.4239 20.496 13.4248 20.4973 13.4256C20.6739 13.543 20.7739 13.9895 20.7522 14.5634C20.7375 14.9628 20.5382 15.4024 20.1759 15.8347L19.7486 16.3279C19.7446 16.3322 19.7408 16.3367 19.7371 16.3413L18.2937 18.0076C18.2844 18.0172 18.2756 18.0271 18.2678 18.0375L17.2402 19.2238C17.2316 19.2285 17.2231 19.2335 17.2149 19.2391C17.1571 19.278 17.1163 19.3324 17.0936 19.3931L16.0922 20.5491C15.9247 20.7288 15.7393 20.7869 15.6079 20.7011ZM18.0336 21.03C18.1779 21.2431 18.1047 21.484 18.0614 21.5481L17.918 21.761C17.9097 21.7525 17.9005 21.7425 17.8903 21.7308C17.8816 21.7207 17.8722 21.7112 17.8622 21.7023L16.7833 20.7358L17.3748 20.0529L18.0336 21.03ZM21.2711 19.9683L20.9882 20.3868C20.9681 20.4164 20.9519 20.4355 20.9402 20.4476C20.9172 20.4318 20.8776 20.3992 20.8206 20.3335L19.8076 19.1943L18.9543 18.2294L19.9409 17.0904L21.2263 19.1919C21.2275 19.194 21.2288 19.196 21.23 19.198C21.4343 19.5161 21.3434 19.8607 21.2711 19.9683Z"/>
</mask>
<path d="M21.7743 18.8528L20.3837 16.5792L20.6647 16.2548C20.6658 16.2535 20.6669 16.2522 20.668 16.2509C21.1243 15.7072 21.3762 15.1318 21.3963 14.5874C21.4188 13.9928 21.3434 13.216 20.8561 12.8902C20.6837 12.7726 20.4776 12.725 20.2591 12.7232C20.1837 11.1727 19.7213 9.66417 18.9124 8.34009C18.8197 8.18815 18.6213 8.14028 18.4694 8.23305C18.3176 8.32582 18.2697 8.52417 18.3624 8.67606C19.1268 9.92735 19.5586 11.3558 19.6184 12.8225C19.4288 12.8772 19.245 12.9484 19.08 13.022C18.582 13.2456 18.143 13.6942 17.8105 14.3193C17.8097 14.3207 17.809 14.3221 17.8083 14.3235L17.6123 14.7057L14.9854 14.2629C14.3879 14.1508 13.8391 14.4408 13.6049 14.7862L13.3216 15.2053C13.1717 15.4283 13.1286 15.6404 13.1938 15.836C13.2983 16.1499 13.6409 16.2694 13.7507 16.3076L15.187 16.8237L16.3188 17.227L15.8153 18.2085L14.4975 17.9171C14.0012 17.8115 13.5386 18.0567 13.3377 18.3539L13.183 18.5835C13.0521 18.7771 13.0152 18.964 13.0734 19.139C13.1604 19.4006 13.4241 19.506 13.5353 19.5454L14.8567 20.1978C14.8128 20.436 14.8403 20.6673 14.9311 20.8629C13.7577 21.4649 12.4526 21.7902 11.1263 21.8099C11.1818 21.0533 11.0407 20.1199 10.4907 19.4296C10.0668 18.8976 9.46065 18.5953 8.73791 18.5555C8.06962 18.5185 7.76652 18.4962 7.58476 18.3558C7.38268 18.1996 7.20827 17.8126 6.89167 17.1101L6.85502 17.0288C6.4934 16.2272 5.66857 15.7294 4.70212 15.7294C4.70173 15.7294 4.7013 15.7294 4.70091 15.7294C4.01354 15.7297 3.39432 15.9725 2.98508 16.3777C2.58874 15.3873 2.37024 14.3072 2.37024 13.1769C2.37024 13.159 2.37072 13.1412 2.37084 13.1233C2.83358 13.3052 3.26567 13.3963 3.66588 13.3963C4.38303 13.3963 4.998 13.1045 5.5043 12.5216C5.62105 12.3873 5.60674 12.1837 5.47237 12.067C5.33801 11.9503 5.13451 11.9646 5.01772 12.099C4.6072 12.5716 3.89353 13.1068 2.4023 12.4372C2.55475 10.6614 3.25321 8.9722 4.40941 7.60429H8.46059C8.66641 7.60429 8.86832 7.56528 9.06082 7.48836C9.93911 7.18951 10.5284 6.3664 10.5284 5.4369C10.5284 5.1283 10.4632 4.83474 10.3467 4.56872C10.564 4.55226 10.7818 4.54302 10.9983 4.54302C12.1389 4.54302 13.2538 4.76968 14.2852 5.1952C14.6421 5.74447 14.8072 6.15874 14.7886 6.45909C14.7731 6.70895 14.6234 6.8911 14.4339 7.12167C14.0817 7.55011 13.6 8.1362 13.9107 9.41057C14.0451 10.3622 13.347 11.0335 12.584 11.2058C11.9728 11.3439 11.1589 11.1772 10.8773 10.2531C10.5649 9.22774 9.54207 8.4983 8.38999 8.47918C8.37401 8.47892 8.35824 8.47879 8.34234 8.47879C7.22498 8.47879 6.33544 9.13535 5.95728 10.2433C5.86034 10.5287 5.77367 10.7588 5.68438 10.9675C5.61443 11.1311 5.6904 11.3205 5.85402 11.3905C6.0176 11.4604 6.20701 11.3845 6.27705 11.2209C6.37287 10.9967 6.46521 10.752 6.56739 10.4511C6.98333 9.23276 7.97496 9.11735 8.37934 9.12367C9.25526 9.13819 10.0289 9.6799 10.2608 10.441C10.5756 11.4738 11.3915 11.8938 12.1988 11.8938C12.3768 11.8938 12.5544 11.8733 12.726 11.8346C13.783 11.5959 14.7476 10.649 14.5461 9.30113C14.5446 9.29107 14.5427 9.2811 14.5402 9.27126C14.2995 8.30021 14.6066 7.9266 14.9318 7.53099C15.3504 7.02172 15.6282 6.55671 15.276 5.68036C16.1041 6.15362 16.8575 6.76528 17.4991 7.50018C17.5628 7.57318 17.6521 7.61048 17.742 7.61048C17.8172 7.61048 17.8927 7.58431 17.9538 7.53099C18.0879 7.41394 18.1017 7.21035 17.9846 7.07629C17.0598 6.01702 15.9193 5.1952 14.6578 4.65268C14.636 4.64026 14.6131 4.63025 14.5893 4.62325C13.4646 4.15029 12.2457 3.89854 10.9984 3.89854C10.6482 3.89854 10.2948 3.9189 9.94525 3.95878C9.54959 3.53438 8.98653 3.26831 8.36228 3.26831C8.32258 3.26831 8.28275 3.26943 8.24291 3.27167C8.115 2.64802 7.7938 2.07864 7.31861 1.64272C6.75671 1.12727 6.02689 0.843414 5.26359 0.843414C4.36842 0.843414 3.53925 1.22566 2.96059 1.89868C2.9202 1.89598 2.87916 1.8946 2.83783 1.8946C1.90326 1.8946 1.13756 2.63117 1.09089 3.55418C0.421824 3.93772 0 4.65517 0 5.43699C0 6.36632 0.589145 7.18934 1.46713 7.48832C1.65851 7.56532 1.86012 7.60438 2.06654 7.60438H3.58566C2.49829 9.05156 1.85793 10.7861 1.74445 12.5952C1.74273 12.6094 1.74187 12.6236 1.74204 12.6377C1.73164 12.8168 1.7258 12.9966 1.7258 13.177C1.7258 15.6557 2.69019 17.986 4.44129 19.7385C6.19262 21.4913 8.52122 22.4566 10.9983 22.4566C12.549 22.4566 14.0779 22.0668 15.4318 21.3283C15.5275 21.363 15.6323 21.3827 15.7422 21.3827C15.93 21.3827 16.1322 21.3258 16.3275 21.1928L17.4174 22.1692C17.4924 22.2542 17.6764 22.4473 17.9353 22.4473C17.9459 22.4473 17.9566 22.447 17.9673 22.4463C18.1513 22.4351 18.3106 22.3315 18.4409 22.1383L18.5956 21.9086C18.7971 21.6106 18.852 21.0889 18.5676 20.6691L17.8119 19.5482L18.5285 18.721L19.3253 19.622L20.3363 20.7588C20.4117 20.8458 20.6357 21.1042 20.949 21.1041C20.9603 21.1041 20.9717 21.1038 20.9832 21.1031C21.1897 21.0907 21.3709 20.9712 21.5221 20.7479L21.8055 20.3286C22.038 19.9827 22.1016 19.3652 21.7743 18.8528ZM1.70169 6.88796C1.69516 6.88525 1.68854 6.8828 1.68184 6.88057C1.06141 6.67256 0.644531 6.09244 0.644531 5.43699C0.644531 4.8365 0.998465 4.29002 1.54627 4.04476C1.66994 3.98941 1.74578 3.86266 1.73602 3.72756C1.73413 3.70109 1.73319 3.67282 1.73319 3.64352C1.73319 3.03456 2.22875 2.53918 2.83787 2.53918C2.9086 2.53918 2.97627 2.54519 3.03897 2.55701C3.15889 2.57961 3.28135 2.53256 3.35522 2.43536C3.81296 1.83329 4.50858 1.48799 5.26367 1.48799C6.50964 1.48799 7.53565 2.42269 7.65029 3.66212C7.65875 3.75382 7.70606 3.83752 7.78023 3.89209C7.85439 3.94666 7.9484 3.96686 8.03847 3.94761C8.14636 3.92458 8.25533 3.91289 8.36237 3.91289C9.20137 3.91289 9.88402 4.59661 9.88402 5.43699C9.88402 6.09244 9.46714 6.67256 8.84671 6.88057C8.84031 6.88272 8.83395 6.88504 8.82772 6.88761C8.70986 6.93557 8.58641 6.95989 8.46081 6.95989H2.06654C1.94086 6.95985 1.81809 6.93565 1.70169 6.88796ZM15.4042 16.2168L13.9658 15.7001C13.8854 15.6721 13.8411 15.6475 13.8182 15.6321C13.8249 15.6169 13.8364 15.5949 13.8561 15.5657L14.1387 15.1475C14.212 15.0394 14.4972 14.8263 14.8684 14.8968C14.8706 14.8972 14.8728 14.8976 14.875 14.898L17.3036 15.3073L16.6156 16.6485L15.4042 16.2168ZM13.7661 18.9434C13.7514 18.9382 13.7386 18.9334 13.7276 18.9289L13.8721 18.7144C13.9149 18.651 14.1109 18.4937 14.3609 18.547L15.5113 18.8014L15.1017 19.6001L13.8031 18.9589C13.7911 18.9529 13.7787 18.9477 13.7661 18.9434ZM3.27998 17.0329C3.5353 16.6343 4.08448 16.3743 4.70134 16.374H4.70229C5.42262 16.374 6.00776 16.7179 6.2676 17.2939L6.30416 17.375C6.67511 18.1981 6.86134 18.6112 7.19074 18.8658C7.53866 19.1347 7.95201 19.1576 8.70251 19.1992C9.24413 19.229 9.67618 19.4417 9.98667 19.8314C10.4306 20.3885 10.5354 21.1667 10.4815 21.7962C7.32768 21.6086 4.62477 19.7182 3.27998 17.0329ZM15.6079 20.7011C15.4909 20.6249 15.424 20.4304 15.5354 20.1666L16.2683 18.7378C16.2719 18.7314 16.2751 18.7248 16.2784 18.7181L17.0551 17.204C17.0562 17.2021 17.0571 17.2001 17.058 17.1982L18.3805 14.62C18.645 14.1234 18.9781 13.7742 19.3432 13.6103C19.5774 13.5059 19.7969 13.4337 19.9839 13.3962C19.9977 13.3947 20.011 13.392 20.0242 13.3887C20.2362 13.3511 20.4025 13.3606 20.4934 13.423C20.4947 13.4239 20.496 13.4248 20.4973 13.4256C20.6739 13.543 20.7739 13.9895 20.7522 14.5634C20.7375 14.9628 20.5382 15.4024 20.1759 15.8347L19.7486 16.3279C19.7446 16.3322 19.7408 16.3367 19.7371 16.3413L18.2937 18.0076C18.2844 18.0172 18.2756 18.0271 18.2678 18.0375L17.2402 19.2238C17.2316 19.2285 17.2231 19.2335 17.2149 19.2391C17.1571 19.278 17.1163 19.3324 17.0936 19.3931L16.0922 20.5491C15.9247 20.7288 15.7393 20.7869 15.6079 20.7011ZM18.0336 21.03C18.1779 21.2431 18.1047 21.484 18.0614 21.5481L17.918 21.761C17.9097 21.7525 17.9005 21.7425 17.8903 21.7308C17.8816 21.7207 17.8722 21.7112 17.8622 21.7023L16.7833 20.7358L17.3748 20.0529L18.0336 21.03ZM21.2711 19.9683L20.9882 20.3868C20.9681 20.4164 20.9519 20.4355 20.9402 20.4476C20.9172 20.4318 20.8776 20.3992 20.8206 20.3335L19.8076 19.1943L18.9543 18.2294L19.9409 17.0904L21.2263 19.1919C21.2275 19.194 21.2288 19.196 21.23 19.198C21.4343 19.5161 21.3434 19.8607 21.2711 19.9683Z" fill="#2E2E2E" stroke="#2E2E2E" stroke-width="4" mask="url(#path-1-inside-1)"/>
</svg>
