<svg width="60" height="28" viewBox="0 0 60 28" fill="none" xmlns="http://www.w3.org/2000/svg">
<rect width="60" height="28" rx="4" fill="white"/>
<path d="M23.1801 13.1922C23.0301 14.2224 22.2574 14.2224 21.5077 14.2224H21.081L21.3809 12.3024C21.4039 12.1853 21.4962 12.1034 21.6115 12.1034H21.8076C22.3151 12.1034 22.7995 12.1034 23.0417 12.396C23.1916 12.5717 23.2377 12.8292 23.1801 13.1922ZM22.8571 10.5111H20.043C19.8469 10.5111 19.6854 10.6516 19.6508 10.8506L18.509 18.1796C18.4859 18.3201 18.6013 18.4489 18.7397 18.4489H20.0891C20.2852 18.4489 20.4466 18.3084 20.4812 18.1094L20.7926 16.1308C20.8272 15.9318 20.9887 15.7913 21.1732 15.7913H22.0613C23.9182 15.7913 24.9908 14.8781 25.2676 13.0751C25.3945 12.2907 25.2676 11.6702 24.9101 11.2253C24.5064 10.7687 23.7914 10.5111 22.8571 10.5111Z" fill="#253B80"/>
<path d="M29.3969 15.8139C29.27 16.5983 28.6587 17.1252 27.8744 17.1252C27.4823 17.1252 27.1709 16.9964 26.9633 16.7505C26.7672 16.5164 26.6865 16.1651 26.7557 15.7905C26.8826 15.0178 27.4938 14.4675 28.2666 14.4675C28.6472 14.4675 28.9586 14.5963 29.1662 14.8422C29.3738 15.0997 29.4545 15.4393 29.3969 15.8139ZM31.2768 13.1563H29.9274C29.8121 13.1563 29.7083 13.2382 29.6967 13.3553L29.6391 13.7416L29.5468 13.6011C29.2585 13.168 28.6011 13.0275 27.9552 13.0275C26.4674 13.0275 25.1871 14.1748 24.9449 15.7788C24.8181 16.5749 25.0026 17.3476 25.4524 17.8862C25.8676 18.3779 26.4558 18.5769 27.1478 18.5769C28.3473 18.5769 29.0163 17.7925 29.0163 17.7925L28.9586 18.1671C28.9355 18.3076 29.0509 18.4481 29.1893 18.4481H30.4003C30.5964 18.4481 30.7578 18.3076 30.7924 18.1086L31.519 13.4255C31.5306 13.285 31.4152 13.1563 31.2768 13.1563Z" fill="#253B80"/>
<path d="M38.4503 13.1573H37.1009C36.974 13.1573 36.8472 13.2276 36.778 13.333L34.9095 16.1194L34.1137 13.4383C34.0676 13.2744 33.9061 13.1573 33.7331 13.1573H32.4068C32.2453 13.1573 32.13 13.3213 32.1876 13.4735L33.6754 17.9224L32.2684 19.9361C32.153 20.1 32.2684 20.3108 32.4644 20.3108H33.8139C33.9407 20.3108 34.0676 20.2522 34.1368 20.1351L38.6464 13.532C38.7502 13.3681 38.6464 13.1573 38.4503 13.1573Z" fill="#253B80"/>
<path d="M43.26 13.1922C43.1101 14.2224 42.3373 14.2224 41.5876 14.2224H41.1609L41.4608 12.3024C41.4838 12.1853 41.5761 12.1034 41.6914 12.1034H41.8875C42.395 12.1034 42.8794 12.1034 43.1216 12.396C43.2715 12.5717 43.3177 12.8292 43.26 13.1922ZM42.9371 10.5111H40.1229C39.9268 10.5111 39.7653 10.6516 39.7423 10.8506L38.6005 18.1796C38.5774 18.3201 38.6927 18.4489 38.8311 18.4489H40.2728C40.4112 18.4489 40.5266 18.3553 40.5381 18.2148L40.861 16.1425C40.8956 15.9435 41.0571 15.803 41.2416 15.803H42.1297C43.9866 15.803 45.0592 14.8898 45.336 13.0868C45.4629 12.3024 45.336 11.6819 44.9785 11.237C44.5979 10.7687 43.8828 10.5111 42.9371 10.5111Z" fill="#179BD7"/>
<path d="M49.4766 15.8139C49.3497 16.5983 48.7385 17.1252 47.9542 17.1252C47.5621 17.1252 47.2507 16.9964 47.043 16.7505C46.847 16.5164 46.7662 16.1651 46.8354 15.7905C46.9623 15.0178 47.5851 14.4792 48.3463 14.4792C48.7269 14.4792 49.0383 14.608 49.2459 14.8539C49.4535 15.0997 49.5343 15.4393 49.4766 15.8139ZM51.3566 13.1563H50.0072C49.8918 13.1563 49.788 13.2382 49.7765 13.3553L49.7188 13.7416L49.6266 13.6011C49.3382 13.168 48.6808 13.0275 48.0349 13.0275C46.5471 13.0275 45.2669 14.1748 45.0247 15.7788C44.8978 16.5749 45.0824 17.3476 45.5322 17.8862C45.9474 18.3779 46.5356 18.5769 47.2276 18.5769C48.4271 18.5769 49.096 17.7925 49.096 17.7925L49.0383 18.1671C49.0153 18.3076 49.1306 18.4481 49.269 18.4481H50.48C50.6761 18.4481 50.8376 18.3076 50.8606 18.1086L51.5872 13.4255C51.6103 13.285 51.5065 13.1563 51.3566 13.1563Z" fill="#179BD7"/>
<path d="M52.9482 10.7099L51.7948 18.1794C51.7717 18.3199 51.8871 18.4487 52.0255 18.4487H53.1904C53.3864 18.4487 53.5479 18.3082 53.5825 18.1091L54.7243 10.7801C54.7474 10.6396 54.6321 10.4991 54.4936 10.4991H53.1904C53.0635 10.5109 52.9597 10.5928 52.9482 10.7099Z" fill="#179BD7"/>
<path d="M8.26567 19.8778L8.4848 18.4846L8.0004 18.4729H5.71676L7.30838 8.22865C7.30838 8.19353 7.33145 8.17011 7.35452 8.1467C7.37759 8.12328 7.41219 8.11157 7.43525 8.11157H11.299C12.5792 8.12328 13.4673 8.39256 13.9286 8.9194C14.1478 9.16526 14.2862 9.43454 14.3554 9.71553C14.4246 10.0199 14.4246 10.3829 14.3554 10.816V10.8512V11.1322L14.5745 11.2609C14.759 11.3546 14.8974 11.4717 15.0128 11.6005C15.1973 11.8112 15.3126 12.0922 15.3703 12.4083C15.428 12.7361 15.4049 13.1342 15.3242 13.5791C15.2204 14.0942 15.0704 14.5391 14.8513 14.9137C14.6552 15.2533 14.4015 15.5343 14.1016 15.745C13.8133 15.9557 13.4788 16.1079 13.0867 16.2133C12.7176 16.307 12.2909 16.3655 11.818 16.3655H11.5066C11.2874 16.3655 11.0798 16.4475 10.9184 16.5879C10.7569 16.7284 10.6416 16.9275 10.607 17.1382L10.5839 17.267L10.2033 19.7139L10.1918 19.8076C10.1918 19.831 10.1802 19.8544 10.1687 19.8544C10.1572 19.8661 10.1456 19.8661 10.1341 19.8661H8.26567V19.8778Z" fill="#253B80"/>
<path d="M14.7694 10.8973C14.7579 10.9676 14.7463 11.0495 14.7348 11.1315C14.2158 13.7774 12.4742 14.6906 10.2483 14.6906H9.11799C8.84119 14.6906 8.62205 14.8897 8.57592 15.1589L7.99924 18.8937L7.83777 19.9474C7.81471 20.123 7.94158 20.2869 8.12611 20.2869H10.1214C10.3636 20.2869 10.5597 20.1113 10.5943 19.8771L10.6174 19.7718L10.998 17.3366L11.021 17.2078C11.0556 16.9736 11.2632 16.798 11.4939 16.798H11.7938C13.7429 16.798 15.2654 15.9902 15.7152 13.6721C15.8997 12.7003 15.8074 11.8925 15.3115 11.3188C15.1731 11.1549 14.9885 11.0144 14.7694 10.8973Z" fill="#179BD7"/>
<path d="M14.2391 10.6748C14.1583 10.6513 14.0776 10.6279 13.9969 10.6162C13.9161 10.5928 13.8238 10.5811 13.7431 10.5694C13.4432 10.5226 13.0972 10.4991 12.7397 10.4991H9.71792C9.64872 10.4991 9.56798 10.5109 9.51032 10.546C9.37192 10.6162 9.26811 10.745 9.24505 10.9089L8.59917 15.0534L8.5761 15.1705C8.62224 14.9012 8.85291 14.7022 9.11818 14.7022H10.2485C12.4744 14.7022 14.216 13.789 14.7235 11.1314C14.735 11.0494 14.7465 10.9792 14.7581 10.8972C14.6312 10.827 14.4928 10.7684 14.3429 10.7216C14.3083 10.6982 14.2737 10.6865 14.2391 10.6748Z" fill="#222D65"/>
<path d="M9.2334 10.9088C9.25647 10.7449 9.36027 10.6161 9.49867 10.5459C9.56787 10.5108 9.63708 10.4991 9.70628 10.4991H12.7281C13.0856 10.4991 13.4201 10.5225 13.7315 10.5693C13.8237 10.581 13.9045 10.6044 13.9852 10.6161C14.0659 10.6395 14.1467 10.6513 14.2274 10.6747C14.262 10.6864 14.3081 10.6981 14.3427 10.7098C14.4927 10.7566 14.6311 10.8152 14.758 10.8854C14.9079 9.90196 14.758 9.23462 14.2389 8.63753C13.6623 7.97019 12.6243 7.68921 11.2979 7.68921H7.43418C7.15737 7.68921 6.9267 7.88824 6.8921 8.15752L5.27741 18.5188C5.24281 18.7179 5.40428 18.9052 5.60035 18.9052H7.98778L8.58753 15.0533L9.2334 10.9088Z" fill="#253B80"/>
</svg>
