<svg width="28" height="28" viewBox="0 0 28 28" fill="none" xmlns="http://www.w3.org/2000/svg">
<path d="M14 9.15527e-05C6.26851 9.15527e-05 0 6.2686 0 14.0001C0 21.7316 6.26851 28.0001 14 28.0001C21.7315 28.0001 28 21.7316 28 14.0001C28 6.2686 21.7315 9.15527e-05 14 9.15527e-05ZM14 26.2501C7.24502 26.2501 1.75003 20.7533 1.75003 14.0001C1.75003 7.24512 7.24502 1.75012 14 1.75012C20.7533 1.75012 26.25 7.24512 26.25 14.0001C26.25 20.7533 20.7532 26.2501 14 26.2501Z" fill="#CC1F26"/>
<path d="M11.2122 9.4291L10.8045 9.14035L10.7905 9.12984L10.7642 9.11932L10.4667 8.97759L10.4755 8.99857C10.1937 8.88305 9.898 8.80084 9.576 8.80084C8.1515 8.80084 6.99823 9.99959 6.99823 11.4783C6.99823 12.9571 8.15321 14.1558 9.576 14.1558C10.0327 14.1558 10.4545 14.0228 10.8272 13.8058C10.6995 15.2373 9.97845 17.3251 7.33598 19.4531C6.96673 19.7523 6.89846 20.3053 7.18549 20.6886C7.35349 20.9126 7.60374 21.0298 7.85576 21.0298C8.03774 21.0298 8.21977 20.9686 8.37549 20.8443C11.6182 18.2281 12.4285 15.5401 12.537 13.7446C12.7225 11.4485 12.026 10.241 11.389 9.61108L11.2122 9.4291Z" fill="#CC1F26"/>
<path d="M19.6963 9.4291L19.2885 9.14035L19.2745 9.12984L19.2483 9.11932L18.9508 8.97759L18.9595 8.99857C18.6778 8.88305 18.3803 8.80084 18.06 8.80084C16.6355 8.80084 15.4823 9.99959 15.4823 11.4783C15.4823 12.9571 16.632 14.1558 18.06 14.1558C18.5168 14.1558 18.9386 14.0228 19.3113 13.8058C19.1835 15.2373 18.4625 17.3251 15.82 19.4531C15.449 19.7523 15.3825 20.3053 15.6695 20.6886C15.8375 20.9126 16.0878 21.0298 16.3398 21.0298C16.5218 21.0298 16.7038 20.9686 16.8595 20.8443C20.1023 18.2281 20.9125 15.5401 21.021 13.7446C21.2065 11.4485 20.5083 10.241 19.8731 9.61108L19.6963 9.4291Z" fill="#CC1F26"/>
</svg>
