<svg xmlns="http://www.w3.org/2000/svg" width="101" height="101" fill="none"  xmlns:v="https://vecta.io/nano"><g filter="url(#A)"><path d="M12 5h36l45 45v36L12 5z" fill="#ff672e"/></g><path d="M39.124 15.492l-.974-.974-1.937 1.937-.874-.873 5.027-5.027 1.768 1.768c.58.58.898 1.158.953 1.733s-.163 1.109-.656 1.602c-.336.336-.7.536-1.091.601s-.786.013-1.198-.155l-.967 3.225-.045.045-.936-.936.929-2.945zm-.273-1.675l.898.898c.295.295.599.451.911.47s.602-.105.86-.363c.269-.269.401-.555.394-.856s-.157-.603-.456-.912l-.922-.922-1.685 1.685zm2.396 7.81c-.532-.532-.797-1.13-.794-1.795s.289-1.276.846-1.833l.104-.104c.373-.373.777-.634 1.212-.784s.871-.176 1.295-.079.795.305 1.115.625c.509.509.739 1.063.691 1.664s-.366 1.201-.96 1.795l-.338.338-2.441-2.441c-.283.334-.425.68-.425 1.039a1.32 1.32 0 0 0 .414.953c.384.384.853.542 1.405.473l.021.884a2.15 2.15 0 0 1-1.122-.079c-.37-.127-.711-.345-1.022-.656zm3.1-3.301c-.23-.23-.497-.336-.801-.318s-.616.155-.942.404l1.598 1.599.062-.062c.262-.299.399-.586.411-.86s-.096-.531-.328-.763zm1.257 6.318c.209.21.444.322.704.338s.485-.061.673-.231l.791.791c-.242.223-.532.368-.87.435s-.679.039-1.029-.076a2.33 2.33 0 0 1-.929-.577c-.523-.523-.768-1.106-.736-1.751s.346-1.265.943-1.861l.086-.086c.569-.569 1.175-.871 1.82-.908s1.233.204 1.757.729c.444.444.676.936.694 1.474s-.169 1.026-.577 1.46l-.791-.791a1.08 1.08 0 0 0 .307-.749c.002-.274-.102-.517-.314-.729-.272-.272-.58-.382-.925-.331s-.716.272-1.119.67l-.135.135c-.405.405-.635.78-.691 1.126s.062.656.338.932zm3.311.708a3.1 3.1 0 0 1 1.205-.77c.44-.15.869-.172 1.288-.066s.802.326 1.143.666c.504.504.75 1.075.739 1.713s-.269 1.241-.78 1.802l-.193.2c-.368.368-.769.626-1.202.773a2.2 2.2 0 0 1-1.281.066 2.44 2.44 0 0 1-1.15-.673c-.527-.527-.774-1.124-.742-1.792s.348-1.294.932-1.878l.041-.041zm.767.912c-.384.384-.607.765-.666 1.143s.055.704.338.987.613.393.991.328.783-.306 1.208-.732c.378-.378.595-.758.653-1.143a1.09 1.09 0 0 0-.328-.991c-.274-.274-.601-.382-.98-.325s-.783.299-1.215.732zm6.039 2.227l-.366.414c.569-.044 1.081.162 1.536.618.5.499.65 1.032.452 1.599.654-.11 1.227.081 1.719.573.412.412.604.832.577 1.26s-.258.87-.697 1.319l-2.455 2.455-.839-.839 2.431-2.431c.237-.237.359-.463.366-.677s-.109-.441-.349-.68a.99.99 0 0 0-.625-.314 1.14 1.14 0 0 0-.652.148l-2.558 2.565-.839-.839 2.458-2.458c.428-.451.424-.895-.014-1.333-.336-.336-.711-.437-1.126-.304l-2.707 2.707-.839-.839 3.736-3.736.791.791zm6.153 6.153l-.366.414c.569-.044 1.081.162 1.537.618.499.499.65 1.032.452 1.599.654-.11 1.227.081 1.719.573.412.412.604.832.577 1.26s-.258.87-.698 1.319l-2.455 2.455-.839-.839 2.431-2.431c.237-.237.359-.463.366-.677s-.109-.441-.349-.68c-.191-.191-.399-.296-.625-.314s-.438.031-.653.148l-2.558 2.565-.839-.839 2.458-2.458c.428-.451.424-.895-.014-1.333-.336-.336-.711-.437-1.126-.304l-2.707 2.707-.839-.839 3.736-3.736.791.791zm3.204 10.814c-.532-.532-.796-1.13-.794-1.795s.289-1.276.846-1.833l.104-.104c.373-.373.777-.634 1.212-.784s.871-.176 1.295-.079.795.305 1.115.625c.509.509.739 1.063.691 1.664s-.366 1.202-.96 1.795l-.338.338-2.441-2.441c-.283.334-.425.68-.425 1.039a1.32 1.32 0 0 0 .414.953c.384.384.853.542 1.405.473l.021.884a2.15 2.15 0 0 1-1.122-.079c-.371-.127-.711-.345-1.022-.656zm3.101-3.301c-.23-.23-.497-.336-.801-.318s-.616.155-.943.404l1.599 1.599.062-.062c.262-.299.399-.586.411-.86s-.095-.531-.328-.763zm3.636 2.427l-.407.456c.61-.057 1.139.138 1.588.587.778.778.729 1.619-.148 2.524l-2.469 2.469-.839-.839 2.42-2.42c.237-.237.36-.464.37-.68s-.096-.441-.328-.673a1.14 1.14 0 0 0-1.215-.297l-2.658 2.659-.839-.839 3.736-3.736.791.791zm1.16 4.841c.576-.575 1.171-.903 1.785-.984a1.81 1.81 0 0 1 1.599.549c.396.396.578.854.546 1.374l1.913-1.913.839.839-5.303 5.303-.76-.76.345-.428c-.555.053-1.041-.13-1.461-.549a1.81 1.81 0 0 1-.535-1.592c.083-.621.427-1.235 1.032-1.84zm.766.911c-.38.38-.604.749-.673 1.108s.038.673.307.943c.343.343.747.441 1.212.293l1.595-1.595a1.1 1.1 0 0 0-.297-1.195 1.01 1.01 0 0 0-.953-.304c-.361.067-.758.316-1.191.749zm3.063 6.847c-.532-.532-.796-1.13-.794-1.795s.289-1.276.846-1.833l.104-.104c.373-.373.777-.634 1.212-.784s.871-.176 1.295-.079.795.305 1.115.625c.509.509.739 1.063.691 1.664s-.366 1.202-.96 1.795l-.338.338-2.441-2.441c-.283.334-.425.68-.425 1.039a1.32 1.32 0 0 0 .414.953c.384.384.853.542 1.405.473l.021.884a2.15 2.15 0 0 1-1.122-.079c-.371-.127-.711-.345-1.022-.656zm3.101-3.301c-.23-.23-.497-.336-.801-.318s-.616.155-.943.404l1.599 1.599.062-.062c.262-.299.399-.586.411-.86s-.096-.531-.328-.763zm.86 3.332c.575-.575 1.17-.904 1.785-.984a1.81 1.81 0 0 1 1.599.549c.396.396.578.854.546 1.374l1.913-1.913.839.839-5.303 5.303-.76-.76.345-.428c-.555.053-1.042-.13-1.46-.549a1.81 1.81 0 0 1-.535-1.592c.083-.621.427-1.235 1.032-1.84zm.766.912c-.38.38-.604.749-.673 1.108s.038.673.307.942c.343.343.747.441 1.212.294l1.595-1.595a1.1 1.1 0 0 0-.297-1.195 1.01 1.01 0 0 0-.953-.304c-.361.067-.758.316-1.191.749z" fill="#fff"/><path d="M7 10l5-5 5 5H7zm81 82l5-6-5-5v11z" fill="#c73700"/><defs><filter id="A" x="0" y="0" width="101" height="101" filterUnits="userSpaceOnUse" color-interpolation-filters="sRGB"><feFlood flood-opacity="0" result="A"/><feColorMatrix in="SourceAlpha" values="0 0 0 0 0 0 0 0 0 0 0 0 0 0 0 0 0 0 127 0"/><feOffset dx="-2" dy="5"/><feGaussianBlur stdDeviation="5"/><feColorMatrix values="0 0 0 0 0.145833 0 0 0 0 0.140972 0 0 0 0 0.140972 0 0 0 0.15 0"/><feBlend in2="A"/><feBlend in="SourceGraphic"/></filter></defs></svg>