<svg width="19" height="21" viewBox="0 0 19 21" fill="none" xmlns="http://www.w3.org/2000/svg">
<path d="M8.0515 5.18424C8.15599 5.18424 8.25449 5.13491 8.31692 5.05113C8.37951 4.96734 8.39892 4.85914 8.36916 4.75886C8.13172 3.94805 7.72139 3.19839 7.16613 2.56177C6.71876 2.08577 6.05287 1.88198 5.41577 2.02609C5.32779 2.05973 5.2584 2.12928 5.22476 2.21727C5.20648 2.26676 5.1929 2.31787 5.18432 2.36995C5.17413 2.43173 5.16863 2.49417 5.16766 2.55676V2.5621C5.17171 3.09034 5.38456 3.59562 5.75996 3.96746C6.39657 4.52223 7.14575 4.93241 7.95607 5.16968C7.98713 5.1789 8.01915 5.18392 8.0515 5.18424ZM6.22965 3.49841C6.09816 3.36676 5.99497 3.20938 5.92623 3.03632V3.03309C5.91167 2.99637 5.89906 2.95949 5.88822 2.92407C5.88256 2.90483 5.87851 2.88671 5.87366 2.86779C5.86865 2.84886 5.86428 2.83463 5.86105 2.81813C5.85765 2.80147 5.857 2.79484 5.85474 2.78304C5.84503 2.73354 5.83824 2.68356 5.83452 2.63326C6.16124 2.65801 6.46806 2.79905 6.69967 3.03082C7.02898 3.40315 7.29439 3.8274 7.48509 4.28658C7.02542 4.09524 6.60053 3.82885 6.22804 3.49841H6.22965Z" fill="#2E2E2E"/>
<path d="M18.2185 5.41277H13.1054C13.3265 5.26171 13.5341 5.09172 13.7258 4.90491C14.9107 3.71643 14.9495 1.91448 14.1926 1.15753C13.4356 0.400585 11.6343 0.438756 10.4446 1.62496C9.95806 2.1545 9.56276 2.76103 9.27486 3.41996C8.98697 2.76055 8.59135 2.15369 8.10435 1.62399C6.91587 0.43908 5.11408 0.400262 4.35697 1.15721C3.5997 1.91416 3.63884 3.71611 4.82392 4.90491C5.01574 5.09172 5.22342 5.26171 5.44436 5.41277H0.331245C0.148316 5.41277 0 5.56109 0 5.74402V9.05647C0 9.2394 0.148316 9.38772 0.331245 9.38772H0.993735V18.9938C0.994868 19.908 1.7358 20.6489 2.64996 20.6501H15.8998C16.8141 20.6489 17.555 19.908 17.556 18.9938V9.38772H18.2185C18.4014 9.38772 18.5497 9.2394 18.5497 9.05647V5.74402C18.5497 5.56109 18.4014 5.41277 18.2185 5.41277ZM10.9133 2.09304C11.8653 1.14395 13.2538 1.15494 13.7245 1.62561C14.1952 2.09628 14.2065 3.48417 13.2574 4.4365C12.8228 4.83827 12.3266 5.16773 11.7877 5.41277H9.80829C9.80829 5.40582 9.80829 5.39822 9.80829 5.39126C9.80829 5.31573 9.80262 5.23922 9.79535 5.16224C9.7926 5.13684 9.78969 5.11161 9.78677 5.08573C9.77917 5.02217 9.76979 4.95877 9.75847 4.89569C9.75491 4.87353 9.75119 4.85121 9.74731 4.82937C9.73146 4.74689 9.71415 4.66569 9.69426 4.58725C9.69167 4.57593 9.6886 4.56606 9.68601 4.55409C9.66838 4.48551 9.65026 4.42162 9.63166 4.35547C9.62908 4.34641 9.62665 4.33655 9.62406 4.32749C9.89546 3.50197 10.3344 2.74114 10.9133 2.09304ZM10.5998 8.72522H7.94988V6.07526H10.5998V8.72522ZM5.29264 4.43683C4.34339 3.4845 4.35455 2.0966 4.82538 1.62561C5.29604 1.15462 6.68394 1.14362 7.63562 2.09207C8.23827 2.76718 8.69001 3.56327 8.9606 4.42696C8.99796 4.54325 9.02675 4.65485 9.05393 4.76322C9.06153 4.79428 9.06784 4.82436 9.07447 4.85493C9.09242 4.9358 9.10682 5.01295 9.11765 5.08686C9.12121 5.11193 9.1259 5.13781 9.12881 5.16224C9.13933 5.24488 9.14499 5.32818 9.14579 5.41148H6.76206C6.22346 5.16693 5.7274 4.83794 5.29264 4.43683ZM0.66249 6.07526H7.28739V8.72522H0.66249V6.07526ZM1.65623 18.9938V9.38772H7.94988V19.9876H2.64996C2.10117 19.9876 1.65623 19.5426 1.65623 18.9938ZM8.61237 19.9876V9.38772H9.93736V19.9876H8.61237ZM16.8935 18.9938C16.8935 19.5426 16.4487 19.9876 15.8998 19.9876H10.5998V9.38772H16.8935V18.9938ZM17.8872 8.72522H11.2623V6.07526H17.8872V8.72522Z" fill="#2E2E2E"/>
<path d="M10.4956 5.18522C10.5275 5.18522 10.5592 5.1807 10.5898 5.17164C11.4011 4.93453 12.1511 4.52354 12.7875 3.96715C13.2588 3.51638 13.462 2.85325 13.3242 2.21583C13.2908 2.12816 13.2215 2.05894 13.1338 2.02546C12.4964 1.88765 11.8332 2.0908 11.3825 2.56211C10.8262 3.19856 10.4153 3.94855 10.178 4.75985C10.1484 4.86013 10.1676 4.96849 10.2302 5.05211C10.2928 5.13589 10.3912 5.18522 10.4956 5.18522ZM11.8509 3.03051C12.0828 2.7989 12.3899 2.65802 12.7167 2.63295C12.6919 2.95983 12.5509 3.26714 12.3193 3.49908C11.9466 3.83065 11.5211 4.09752 11.0604 4.28886C11.2519 3.82822 11.5191 3.403 11.8509 3.03051Z" fill="#2E2E2E"/>
</svg>
