<svg width="60" height="60" viewBox="0 0 60 60" fill="none" xmlns="http://www.w3.org/2000/svg">
<circle cx="31" cy="29" r="21" fill="#DEF1FF"/>
<g clip-path="url(#clip0)">
<path d="M53.9289 19.1244L53.7243 20.7743C52.6858 21.5832 51.4989 22.1771 50.232 22.5218L49.0939 21.3743L47.2343 20.6243L47.9781 19.1244L47.2343 16.4995L45.3746 14.9995L43.1431 15.7495L42.0273 17.6244L41.6554 19.1244L40.1342 19.5069C39.721 19.0472 39.3523 18.5487 39.0333 18.0182L40.9115 16.1245L43.1431 13.4996L43.515 10.4997L41.6554 9.37469L40.9115 7.12476L40.097 6.03354C41.0365 4.95993 42.1922 4.10059 43.487 3.51282C44.7819 2.92505 46.1862 2.62234 47.6062 2.62489C47.9565 2.62463 48.3067 2.64341 48.655 2.68114L47.9781 4.49984L46.4904 6.37478L44.6308 7.12476V8.62471L45.3746 9.74968L47.2343 11.2496L49.8377 10.8746L50.5816 12.3746V15.3745L51.6973 17.9994L53.9289 19.1244Z" fill="#78B9EB"/>
<path d="M55.7884 4.12491C55.7121 4.79958 55.472 5.44486 55.0892 6.0036C54.5931 6.81181 54.0361 7.5803 53.423 8.30228C53.0659 8.72977 52.813 8.99976 52.813 8.99976C52.813 8.99976 52.5601 8.72977 52.2031 8.30228C51.3365 7.26356 49.8376 5.30237 49.8376 4.12491C49.8376 3.32928 50.1511 2.56624 50.7091 2.00365C51.2671 1.44106 52.0239 1.125 52.813 1.125C53.6022 1.125 54.359 1.44106 54.917 2.00365C55.475 2.56624 55.7884 3.32928 55.7884 4.12491ZM53.9288 4.12491C53.9288 3.90241 53.8634 3.68491 53.7408 3.49991C53.6182 3.31491 53.4439 3.17072 53.24 3.08558C53.0361 3.00043 52.8118 2.97815 52.5954 3.02156C52.3789 3.06497 52.1801 3.17211 52.0241 3.32944C51.868 3.48677 51.7618 3.68722 51.7187 3.90544C51.6757 4.12366 51.6978 4.34985 51.7822 4.55541C51.8667 4.76097 52.0097 4.93667 52.1932 5.06028C52.3766 5.1839 52.5924 5.24987 52.813 5.24987C53.109 5.24987 53.3928 5.13135 53.602 4.92038C53.8113 4.70941 53.9288 4.42327 53.9288 4.12491Z" fill="#78B9EB"/>
<path d="M54.3008 4.12496C54.3008 3.82829 54.2136 3.53829 54.0501 3.29163C53.8866 3.04496 53.6543 2.85271 53.3825 2.73918C53.1106 2.62565 52.8115 2.59595 52.5229 2.65382C52.2343 2.7117 51.9692 2.85455 51.7612 3.06433C51.5531 3.2741 51.4114 3.54137 51.354 3.83233C51.2966 4.12329 51.3261 4.42488 51.4387 4.69896C51.5513 4.97304 51.742 5.2073 51.9866 5.37212C52.2313 5.53694 52.5189 5.62491 52.8131 5.62491C53.2077 5.62491 53.5861 5.46688 53.8651 5.18558C54.1441 4.90429 54.3008 4.52277 54.3008 4.12496ZM52.0693 4.12496C52.0693 3.97662 52.1129 3.83162 52.1947 3.70829C52.2764 3.58496 52.3926 3.48883 52.5285 3.43207C52.6644 3.3753 52.814 3.36045 52.9583 3.38939C53.1026 3.41833 53.2351 3.48976 53.3391 3.59464C53.4432 3.69953 53.514 3.83316 53.5427 3.97864C53.5714 4.12412 53.5567 4.27492 53.5004 4.41196C53.4441 4.549 53.3487 4.66613 53.2264 4.74854C53.1041 4.83095 52.9603 4.87493 52.8131 4.87493C52.6159 4.87493 52.4267 4.79592 52.2872 4.65527C52.1477 4.51462 52.0693 4.32386 52.0693 4.12496Z" fill="#005AEB"/>
<path d="M55.543 5.96235C55.8903 5.40781 56.1019 4.77804 56.1604 4.1249C56.1603 3.37509 55.9125 2.64667 55.4562 2.05461C54.9998 1.46256 54.3609 1.04058 53.6403 0.855285C52.9197 0.66999 52.1584 0.73193 51.4765 1.03133C50.7947 1.33073 50.2312 1.85053 49.8749 2.5087C47.4613 1.96381 44.9341 2.30214 42.7451 3.46319C40.5561 4.62425 38.8481 6.53236 37.9262 8.84645C37.0043 11.1605 36.9287 13.7298 37.7129 16.0949C38.4971 18.46 40.0901 20.4668 42.2069 21.7567C44.3238 23.0465 46.8266 23.5352 49.2681 23.1356C51.7095 22.7359 53.9304 21.4738 55.5337 19.5749C57.137 17.676 58.0183 15.2641 58.02 12.7704C58.0217 10.2766 57.1438 7.86345 55.543 5.96235ZM52.8131 1.49998C53.5033 1.50078 54.1651 1.77759 54.6532 2.26968C55.1412 2.76178 55.4158 3.42898 55.4166 4.1249C55.4166 5.23862 53.7318 7.39105 52.8131 8.44102C51.8944 7.39105 50.2096 5.23862 50.2096 4.1249C50.2104 3.42898 50.485 2.76178 50.973 2.26968C51.4611 1.77759 52.1229 1.50078 52.8131 1.49998ZM53.5644 8.71476C54.0442 8.83851 54.3008 9.056 54.3008 9.18725C54.3008 9.38599 53.7355 9.74973 52.8131 9.74973C51.8907 9.74973 51.3254 9.38599 51.3254 9.18725C51.3254 9.056 51.582 8.83851 52.0618 8.71476C52.2961 8.98851 52.4747 9.1835 52.5416 9.25475C52.5762 9.29256 52.6182 9.32274 52.6649 9.34338C52.7116 9.36403 52.7621 9.37468 52.8131 9.37468C52.8641 9.37468 52.9146 9.36403 52.9613 9.34338C53.008 9.32274 53.05 9.29256 53.0846 9.25475C53.1516 9.1835 53.3301 8.98851 53.5644 8.71476ZM37.9361 12.7496C37.9334 10.5241 38.6913 8.36551 40.0821 6.63733L40.5768 7.30106L41.302 9.49474C41.3323 9.57897 41.39 9.65036 41.4657 9.69723L43.117 10.6947L42.786 13.3421L40.6475 15.8583L39.1114 17.407C38.3387 15.9784 37.9345 14.3769 37.9361 12.7496ZM47.6062 22.4993C45.0782 22.5006 42.6511 21.5 40.8483 19.7132L41.7446 19.4882C41.8103 19.4718 41.8703 19.4376 41.9181 19.3894C41.966 19.3411 41.9999 19.2807 42.0161 19.2144L42.3732 17.7707L43.3923 16.0608L45.3002 15.4196L46.9107 16.717L47.5801 19.0869L46.9032 20.4557C46.8797 20.5024 46.8662 20.5536 46.8636 20.6059C46.8611 20.6583 46.8695 20.7106 46.8883 20.7594C46.9069 20.8074 46.9349 20.8511 46.9707 20.8879C47.0065 20.9246 47.0493 20.9536 47.0966 20.9731L48.8856 21.6931L49.4955 22.3118C48.8735 22.4373 48.2406 22.5001 47.6062 22.4993ZM53.3747 20.5682C52.4604 21.2553 51.433 21.7745 50.3398 22.1019L49.3579 21.1081C49.3212 21.073 49.2783 21.045 49.2315 21.0256L47.7475 20.4294L48.3091 19.2932C48.3526 19.2101 48.362 19.1131 48.3351 19.0232L47.5913 16.3983C47.5704 16.3226 47.5261 16.2556 47.4648 16.207L45.6052 14.7071C45.5565 14.6686 45.4992 14.6426 45.4382 14.6315C45.3773 14.6204 45.3146 14.6245 45.2556 14.6433L43.0241 15.3933C42.9405 15.4238 42.8697 15.482 42.8232 15.5583L41.7074 17.4333C41.6878 17.4642 41.674 17.4985 41.6665 17.5345L41.3504 18.8132L40.2681 19.0869C39.9932 18.7655 39.7397 18.426 39.5094 18.0707L41.1942 16.3683L43.4257 13.7434C43.4741 13.6878 43.5041 13.6183 43.5113 13.5446L43.8832 10.5447C43.8919 10.4726 43.8797 10.3995 43.848 10.3342C43.8163 10.269 43.7665 10.2145 43.7047 10.1772L41.9641 9.1235L41.2649 7.00482C41.2508 6.96756 41.232 6.93228 41.2091 6.89982L40.5805 6.05985C41.4827 5.09368 42.5714 4.32382 43.7796 3.79759C44.9878 3.27137 46.29 2.99992 47.6062 2.99994C47.781 2.99994 47.9558 3.00744 48.1343 3.01494L47.6508 4.3124L46.2598 6.0636L44.4932 6.77607C44.424 6.80386 44.3646 6.85196 44.3228 6.91414C44.2811 6.97632 44.2588 7.04971 44.2588 7.12481V8.62477C44.2587 8.69839 44.2807 8.77033 44.3221 8.83101L45.0659 9.95598C45.0847 9.9906 45.1115 10.0202 45.144 10.0422L47.0036 11.5422C47.0429 11.5741 47.0882 11.5976 47.1369 11.6111C47.1855 11.6247 47.2364 11.628 47.2863 11.6209L49.6257 11.2834L50.2096 12.4647V15.3746C50.2098 15.4248 50.2199 15.4745 50.2394 15.5208L51.3552 18.1457C51.3884 18.2279 51.4507 18.2947 51.53 18.3332L53.5272 19.3419L53.3747 20.5682ZM54.2115 19.8594L54.2971 19.1694C54.3068 19.0931 54.2926 19.0156 54.2566 18.9477C54.2206 18.8799 54.1646 18.825 54.0962 18.7907L51.9837 17.7257L50.9535 15.2958V12.3747C50.9531 12.316 50.9391 12.2582 50.9126 12.2059L50.1687 10.706C50.134 10.6359 50.0784 10.5787 50.0096 10.5423C49.9409 10.506 49.8625 10.4924 49.7856 10.5035L47.3421 10.8559L45.6536 9.49474L45.0027 8.51227V7.37981L46.628 6.72358C46.6877 6.6983 46.7401 6.65833 46.7805 6.60733L48.2682 4.73239C48.2936 4.70233 48.3138 4.66808 48.3277 4.63114L48.9005 3.08994C49.1311 3.11994 49.3654 3.16493 49.5922 3.21368C49.5102 3.51042 49.4677 3.81685 49.4658 4.1249C49.4658 5.27237 50.6448 6.96357 51.5523 8.09603C50.9498 8.33228 50.5816 8.72601 50.5816 9.18725C50.5816 9.93723 51.5411 10.4997 52.8131 10.4997C54.0851 10.4997 55.0446 9.93723 55.0446 9.18725C55.0446 8.72601 54.6764 8.33228 54.0739 8.09603C54.4161 7.6723 54.788 7.16981 55.1302 6.64483C56.6643 8.55571 57.4227 10.9821 57.2522 13.4345C57.0817 15.887 55.9951 18.183 54.2115 19.8594Z" fill="#005AEB"/>
</g>
<g clip-path="url(#clip1)">
<path d="M14.6659 39.9992C17.9801 39.9992 20.6667 37.3129 20.6667 33.999C20.6667 30.6854 17.9801 27.9988 14.6659 27.9988C11.3517 27.9988 8.66517 30.6854 8.66517 33.999C8.66517 37.3129 11.3517 39.9992 14.6659 39.9992ZM27.7877 31.6191C24.9973 32.3567 22.7571 34.4352 21.813 37.1622C20.8685 39.8895 21.3438 42.9078 23.0804 45.2129L22.7737 45.4528C20.2887 48.9191 17.5803 52.2193 14.6659 55.333C14.6659 55.333 1.33093 41.3661 1.33093 33.999C1.32865 27.0965 6.59558 21.3333 13.4711 20.7147C20.3466 20.0959 26.5577 24.8269 27.7877 31.6191Z" fill="#78B9EB"/>
<path d="M39.3356 39.9992C39.3447 37.2221 38.1122 34.586 35.9752 32.8115C33.8382 31.0373 31.0201 30.3104 28.2916 30.8297C26.6827 23.9011 20.1314 19.2818 13.0642 20.0923C5.99687 20.9032 0.662232 26.8862 0.664185 33.999C0.664185 40.386 9.95016 51.1558 13.139 54.6664H9.33192V55.9997H19.9999V54.6664H16.1869C18.629 51.9749 20.9216 49.1515 23.0543 46.2087C24.3575 47.6717 26.0882 48.6873 28.0009 49.1115V49.9995C27.6327 49.9995 27.3341 50.2981 27.3341 50.6662V57.3331C27.3341 58.8061 28.5283 59.9999 30.0011 59.9999C31.474 59.9999 32.6681 58.8061 32.6681 57.3331V50.6662C32.6681 50.2981 32.3696 49.9995 32.0014 49.9995V49.1115C36.2799 48.1684 39.3291 44.3802 39.3356 39.9992ZM14.6659 54.3558C12.2942 51.7812 1.99768 40.2408 1.99768 33.999C1.99703 27.5574 6.83357 22.1422 13.2351 21.4176C19.6366 20.6929 25.5615 24.89 27.0008 31.1692C24.2661 32.0921 22.1141 34.2311 21.1742 36.9601C20.2346 39.689 20.6136 42.6992 22.2004 45.1101C19.8781 48.3416 17.3622 51.429 14.6659 54.3558ZM22.0002 39.9992C22.0002 35.5808 25.5823 31.999 30.0011 31.999C34.42 31.999 38.0021 35.5808 38.0021 39.9992C38.0021 44.4177 34.42 47.9995 30.0011 47.9995C25.5843 47.9949 22.005 44.4157 22.0002 39.9992ZM31.3346 57.3331C31.3346 58.0695 30.7376 58.6665 30.0011 58.6665C29.2647 58.6665 28.6676 58.0695 28.6676 57.3331V51.3329H31.3346V57.3331ZM30.6679 49.9995H29.3344V49.299C29.5558 49.315 29.7759 49.3329 30.0011 49.3329C30.2264 49.3329 30.4465 49.315 30.6679 49.299V49.9995Z" fill="#005AEB"/>
<path d="M30.001 45.3327C27.0553 45.3327 24.667 42.9449 24.667 39.9992C24.667 37.0538 27.0553 34.6657 30.001 34.6657V33.3323C26.3186 33.3323 23.3335 36.3174 23.3335 39.9992C23.3335 43.6812 26.3186 46.666 30.001 46.666V45.3327Z" fill="#005AEB"/>
<path d="M14.6658 27.3322C10.9834 27.3322 7.99829 30.3173 7.99829 33.999C7.99829 37.6811 10.9834 40.6659 14.6658 40.6659C18.3482 40.6659 21.3333 37.6811 21.3333 33.999C21.3294 30.3189 18.3466 27.3364 14.6658 27.3322ZM14.6658 39.3325C11.7201 39.3325 9.33179 36.9448 9.33179 33.999C9.33179 31.0536 11.7201 28.6655 14.6658 28.6655C17.6118 28.6655 19.9998 31.0536 19.9998 33.999C19.9965 36.9435 17.6105 39.3293 14.6658 39.3325Z" fill="#005AEB"/>
</g>
<defs>
<clipPath id="clip0">
<rect width="23.8032" height="23.9993" fill="white" transform="translate(35.7046)"/>
</clipPath>
<clipPath id="clip1">
<rect width="40.0024" height="39.9988" fill="white" transform="translate(0 20.0012)"/>
</clipPath>
</defs>
</svg>
