<svg width="21" height="22" viewBox="0 0 21 22" fill="none" xmlns="http://www.w3.org/2000/svg">
<g clip-path="url(#clip0)">
<path d="M11.48 21.15H9.52C8.85763 21.15 8.2985 20.6539 8.21975 19.995L8.01062 18.3535C7.59325 18.2179 7.19075 18.0507 6.80838 17.8556L5.50113 18.8715C4.97088 19.2819 4.2245 19.2346 3.76425 18.7612L2.38613 17.3831C1.91625 16.9272 1.869 16.1809 2.27938 15.6515L3.29525 14.3434C3.09925 13.961 2.93213 13.5585 2.79737 13.1411L1.15237 12.932C0.496125 12.8515 0 12.2924 0 11.63V9.66999C0 9.00762 0.496125 8.44849 1.155 8.36974L2.7965 8.16062C2.93213 7.74324 3.09925 7.34074 3.29438 6.95837L2.27938 5.65112C1.86812 5.12087 1.91625 4.37362 2.3905 3.91337L3.76863 2.53524C4.2245 2.06537 4.97175 2.01899 5.50025 2.42849L6.8075 3.44524C7.18988 3.25012 7.59237 3.08299 8.01062 2.94737L8.21975 1.30237C8.2985 0.646119 8.85763 0.149994 9.52 0.149994H11.48C12.1424 0.149994 12.7015 0.646119 12.7802 1.30499L12.9894 2.94649C13.4076 3.08212 13.8101 3.24924 14.1925 3.44437L15.4998 2.42849C16.0309 2.01812 16.7764 2.06537 17.2366 2.53962L18.6147 3.91774C19.0846 4.37362 19.1319 5.11999 18.7215 5.64937L17.7056 6.95749C17.9016 7.33987 18.0688 7.74237 18.2035 8.15974L19.8485 8.36887C20.5039 8.44849 21 9.00762 21 9.66999V11.63C21 12.2924 20.5039 12.8515 19.845 12.9302L18.2035 13.1394C18.0679 13.5567 17.9008 13.9592 17.7056 14.3416L18.7215 15.6489C19.1327 16.1791 19.0846 16.9255 18.6104 17.3857L17.2323 18.7639C16.7764 19.2337 16.0291 19.2819 15.5006 18.8706L14.1925 17.8547C13.8101 18.0507 13.4076 18.2179 12.9902 18.3526L12.7811 19.9976C12.7015 20.6539 12.1424 21.15 11.48 21.15ZM6.76375 16.8975C6.83638 16.8975 6.91075 16.9159 6.97725 16.9526C7.45937 17.2221 7.98175 17.4391 8.5295 17.5966C8.6975 17.6447 8.82088 17.7882 8.84275 17.9615L9.08775 19.8865C9.114 20.1061 9.30387 20.275 9.52 20.275H11.48C11.6961 20.275 11.886 20.1061 11.9114 19.8909L12.1573 17.9624C12.1791 17.7891 12.3025 17.6456 12.4705 17.5975C13.0182 17.44 13.5406 17.223 14.0227 16.9535C14.1759 16.8677 14.3666 16.8826 14.504 16.9902L16.0352 18.1802C16.2111 18.3167 16.4579 18.3054 16.6084 18.1505L17.9953 16.7636C18.1536 16.6096 18.1659 16.3629 18.0294 16.1861L16.8394 14.6549C16.7318 14.5166 16.7169 14.3267 16.8026 14.1736C17.0721 13.6915 17.2891 13.1691 17.4466 12.6214C17.4947 12.4534 17.6383 12.33 17.8115 12.3081L19.7365 12.0631C19.9561 12.036 20.125 11.8461 20.125 11.63V9.66999C20.125 9.45387 19.9561 9.26399 19.7409 9.23862L17.8124 8.99274C17.6391 8.97087 17.4956 8.84749 17.4475 8.67949C17.29 8.13174 17.073 7.60937 16.8035 7.12724C16.7178 6.97412 16.7318 6.78424 16.8403 6.64599L18.0303 5.11474C18.1676 4.93799 18.1554 4.69124 18.0014 4.54249L16.6145 3.15562C16.4614 2.99637 16.2137 2.98412 16.037 3.12149L14.5057 4.31149C14.3666 4.41912 14.1768 4.43399 14.0236 4.34824C13.5433 4.07874 13.0209 3.86262 12.4714 3.70424C12.3034 3.65612 12.18 3.51262 12.1581 3.33937L11.9131 1.41437C11.886 1.19387 11.6961 1.02499 11.48 1.02499H9.52C9.30387 1.02499 9.114 1.19387 9.08862 1.40912L8.84275 3.33762C8.82088 3.51087 8.6975 3.65437 8.5295 3.70337C7.98 3.86087 7.45762 4.07787 6.97725 4.34649C6.82412 4.43312 6.63425 4.41737 6.49512 4.31062L4.96387 3.12062C4.78712 2.98324 4.54125 2.99549 4.39162 3.14949L3.00475 4.53724C2.84637 4.69124 2.83413 4.93799 2.97062 5.11474L4.16062 6.64599C4.26825 6.78424 4.28312 6.97412 4.19737 7.12724C3.927 7.60937 3.71087 8.13174 3.55337 8.67949C3.50525 8.84749 3.36175 8.97087 3.1885 8.99274L1.2635 9.23774C1.04387 9.26399 0.875 9.45387 0.875 9.66999V11.63C0.875 11.8461 1.04387 12.036 1.25912 12.0614L3.18762 12.3072C3.36087 12.3291 3.50437 12.4525 3.5525 12.6205C3.71 13.1682 3.927 13.6906 4.1965 14.1727C4.28225 14.3259 4.26825 14.5157 4.15975 14.654L2.96975 16.1852C2.83238 16.362 2.84462 16.6087 2.99863 16.7575L4.3855 18.1444C4.53863 18.3027 4.7845 18.315 4.963 18.1785L6.49425 16.9885C6.57387 16.929 6.66838 16.8975 6.76375 16.8975Z" fill="#2E2E2E"/>
<path d="M10.5004 15.025C8.08805 15.025 6.12543 13.0624 6.12543 10.65C6.12543 8.23762 8.08805 6.27499 10.5004 6.27499C12.9128 6.27499 14.8754 8.23762 14.8754 10.65C14.8754 13.0624 12.9128 15.025 10.5004 15.025ZM10.5004 7.14999C8.57018 7.14999 7.00043 8.71974 7.00043 10.65C7.00043 12.5802 8.57018 14.15 10.5004 14.15C12.4307 14.15 14.0004 12.5802 14.0004 10.65C14.0004 8.71974 12.4307 7.14999 10.5004 7.14999Z" fill="#2E2E2E"/>
</g>
<defs>
<clipPath id="clip0">
<rect width="21" height="21" fill="white" transform="translate(0 0.149994)"/>
</clipPath>
</defs>
</svg>
