<svg width="48" height="30" viewBox="0 0 48 30" fill="none" xmlns="http://www.w3.org/2000/svg">
<path d="M14.988 27.2444L14.0539 29.4735H14.4997L15.0517 28.0723L15.1154 27.8813L15.1791 28.0723L15.4126 28.688H14.7969L14.9243 29.0064H15.54L15.731 29.4735H16.1981L15.2852 27.2444H14.988Z" fill="#C8CACD"/>
<path d="M17.9389 29.0277C17.8753 29.0914 17.7691 29.1126 17.5993 29.1126H17.2808V28.4757H17.5993C17.7691 28.4757 17.8753 28.4969 17.9389 28.5606C18.0026 28.6031 18.0239 28.688 18.0239 28.7941C18.0239 28.9003 18.0026 28.9852 17.9389 29.0277ZM17.2596 27.6053H17.578C17.7267 27.6053 17.8116 27.6265 17.8753 27.669C17.9389 27.7114 17.9602 27.7751 17.9602 27.8813C17.9602 27.9874 17.9389 28.0511 17.8753 28.1148C17.8116 28.1573 17.7054 28.1785 17.578 28.1785H17.2596V27.6053ZM17.9602 28.3059C18.1088 28.2634 18.2149 28.2209 18.2998 28.136C18.3848 28.0511 18.4272 27.945 18.4272 27.7964C18.4272 27.4355 18.13 27.2444 17.5568 27.2444H16.8138V29.4735H17.578C17.8753 29.4735 18.1088 29.4098 18.2574 29.3037C18.406 29.1975 18.4697 29.0277 18.4697 28.8366C18.4697 28.6668 18.4272 28.5394 18.3423 28.4545C18.2574 28.3695 18.13 28.3271 17.9602 28.3059Z" fill="#C8CACD"/>
<path d="M20.72 28.4969C20.72 28.7305 20.6775 28.9003 20.5926 29.0064C20.5077 29.1126 20.3803 29.1763 20.1893 29.1763C19.9982 29.1763 19.8708 29.1126 19.7859 29.0064C19.701 28.9003 19.6585 28.7305 19.6585 28.4969V27.2444H19.2127V28.4969C19.2127 28.8578 19.2976 29.1126 19.4675 29.2824C19.6373 29.4523 19.8708 29.5372 20.1893 29.5372C20.4865 29.5372 20.7412 29.4523 20.9111 29.2824C21.1021 29.1126 21.1871 28.8578 21.1871 28.4969V27.2444H20.7412V28.4969H20.72Z" fill="#C8CACD"/>
<path d="M24.4352 28.9427C24.3291 29.0489 24.1168 29.1126 23.8196 29.1126H23.6073V27.6265H23.8196C24.1168 27.6265 24.3078 27.6902 24.414 27.8176C24.5201 27.945 24.5838 28.136 24.5838 28.3908C24.6051 28.6243 24.5626 28.8154 24.4352 28.9427ZM24.7537 27.4991C24.5414 27.3293 24.2442 27.2444 23.8408 27.2444H23.1827V29.4735H23.8408C24.0106 29.4735 24.1805 29.4523 24.3291 29.4098C24.4777 29.3673 24.6051 29.3037 24.7112 29.2187C24.8174 29.1338 24.9235 29.0064 24.9872 28.8791C25.0509 28.7305 25.0933 28.5606 25.0933 28.3696C25.0721 27.9662 24.966 27.6902 24.7537 27.4991Z" fill="#C8CACD"/>
<path d="M26.2609 27.2444H25.8151V29.4735H26.2609V27.2444Z" fill="#C8CACD"/>
<path d="M27.2375 28.136H26.2822L26.5157 28.5182H27.2375V29.4735H27.6833V27.2444H27.2375V28.136Z" fill="#C8CACD"/>
<path d="M29.2331 27.2444L28.299 29.4735H28.7448L29.2756 28.0723L29.3393 27.8813L29.4242 28.0723L29.6577 28.688H29.042L29.1694 29.0064H29.7851L29.9549 29.4735H30.4432L29.5303 27.2444H29.2331Z" fill="#C8CACD"/>
<path d="M32.184 29.0277C32.1203 29.0914 32.0142 29.1126 31.8443 29.1126H31.5259V28.4757H31.8443C32.0142 28.4757 32.1203 28.4969 32.184 28.5606C32.2477 28.6031 32.2902 28.688 32.2902 28.7941C32.2689 28.9003 32.2477 28.9852 32.184 29.0277ZM31.5047 27.6053H31.8231C31.9717 27.6053 32.0566 27.6265 32.1203 27.669C32.184 27.7114 32.2052 27.7751 32.2052 27.8813C32.2052 27.9874 32.184 28.0511 32.1203 28.1148C32.0566 28.1573 31.9717 28.1785 31.8231 28.1785H31.5047V27.6053ZM32.2052 28.3059C32.3538 28.2634 32.46 28.2209 32.5449 28.136C32.6298 28.0511 32.6723 27.945 32.6723 27.7964C32.6723 27.4355 32.3751 27.2444 31.8019 27.2444H31.0588V29.4735H31.8231C32.1203 29.4735 32.3538 29.4098 32.5024 29.3037C32.6511 29.1975 32.7147 29.0277 32.7147 28.8366C32.7147 28.6668 32.6723 28.5394 32.5874 28.4545C32.5024 28.3695 32.3751 28.3271 32.2052 28.3059Z" fill="#C8CACD"/>
<path d="M33.9248 27.2444H33.479V29.4735H33.9248V27.2444Z" fill="#C8CACD"/>
<path d="M26.8978 2.25749L26.8341 2.21503L26.2609 1.62061L25.6028 2.25749L26.2609 2.89438L26.8978 2.25749Z" fill="#C8CACD"/>
<path d="M28.1716 2.25749L28.1291 2.1938L27.5347 1.62061L26.8978 2.25749L27.5347 2.89438L28.1716 2.25749Z" fill="#C8CACD"/>
<path d="M19.4463 2.12994C19.4675 2.27855 19.5737 2.32101 19.6586 2.36347C19.7647 2.42716 19.9133 2.49084 19.9133 2.68191V7.58593H25.3481V7.69208C25.3481 7.71331 25.3481 7.75577 25.3481 7.81946C25.3481 8.20159 25.4755 8.47758 25.7302 8.58372C25.7302 8.58372 25.8576 8.64741 26.0274 8.64741C26.1548 8.64741 26.3034 8.60495 26.4096 8.52003L26.4945 8.45635L26.4096 8.39266C26.261 8.26528 26.1973 7.92561 26.1973 7.64962V7.58593H28.2353V3.08527C28.2353 3.08527 27.9593 3.6797 26.9828 4.4015C26.9828 4.4015 27.0252 4.59257 27.1951 4.69872C27.4498 4.84732 27.4286 4.9747 27.4286 4.9747V6.77921H26.2185C26.2185 6.75798 26.2185 6.71552 26.2185 6.67306V6.58815C26.2185 6.14233 26.0699 5.08085 24.8598 5.08085C24.8386 5.08085 24.8174 5.08085 24.7961 5.08085C24.414 5.08085 24.0956 5.10208 23.7983 5.10208H23.7347C23.0129 5.10208 22.6307 5.01716 22.5458 4.84732L22.5033 4.7624L22.4397 4.80486C22.3123 4.88978 22.2274 5.05962 22.2274 5.25068C22.2274 5.5479 22.3972 5.86634 22.6732 5.88757C22.8642 5.88757 23.119 5.9088 23.3738 5.9088C23.8408 5.9088 24.3079 5.9088 24.3079 5.9088C25.3269 5.9088 25.3269 6.33339 25.3481 6.54569V6.77921H20.7413V0.79248C20.7413 0.79248 20.1893 1.51428 19.4463 2.06625V2.08748C19.4463 2.08748 19.4463 2.10871 19.4463 2.12994Z" fill="#C8CACD"/>
<path d="M16.3043 8.2652C16.3043 8.2652 16.2194 8.98701 17.7055 8.98701C18.9155 8.98701 18.958 8.22274 18.958 8.22274C18.958 8.22274 18.958 5.44167 18.958 5.42044C18.958 5.25061 18.9155 4.7411 18.406 4.7411H14.1601V4.44389C14.1601 4.3802 14.2238 4.33774 14.2663 4.31651C14.521 4.1679 14.5635 4.01929 14.4786 3.97684C13.9691 3.67962 13.4808 3.06396 13.4808 3.06396V5.52659H17.7267C17.7267 5.52659 17.7479 5.52659 17.7691 5.52659C17.8965 5.52659 18.0876 5.56905 18.0876 5.84504V7.79815C18.0876 7.81938 18.0876 8.22274 17.663 8.22274C16.9836 8.22274 17.0261 7.88307 17.0261 7.88307V6.77913H13.5232V7.62832H16.3043V8.2652Z" fill="#C8CACD"/>
<path d="M34.0098 2.66066C34.031 2.44836 34.1371 2.38467 34.2433 2.34222C34.3494 2.29976 34.4344 2.23607 34.4556 2.08746V2.02377C34.4556 1.93885 34.3919 1.91762 34.3282 1.8964C34.2645 1.85394 34.1159 1.76902 33.8612 1.55672C33.4153 1.17459 33.3092 1.00475 33.3092 1.00475L33.1606 0.75V7.58591H34.0098C34.0098 7.58591 34.0098 2.80927 34.0098 2.66066Z" fill="#C8CACD"/>
<path d="M31.1438 8.47755L30.5706 9.05075L29.9974 8.47755L30.5706 7.90436L31.1438 8.47755ZM29.1694 8.47755L30.5706 9.8787L31.9505 8.47755L31.0801 7.60714L32.1203 6.50321V0.75C32.1203 0.75 31.7382 1.62041 31.0588 2.06623V2.10869C31.0801 2.23607 31.1438 2.29976 31.2287 2.34222C31.3136 2.4059 31.4197 2.46959 31.4197 2.68189C31.4197 2.85172 31.4197 6.1423 31.4197 6.1423L30.5706 7.03394L29.7001 6.1423C29.7001 6.07862 29.6789 2.8305 29.7001 2.68189C29.7001 2.46959 29.8063 2.4059 29.8912 2.34222C29.9761 2.29976 30.0398 2.23607 30.061 2.10869V2.045C29.4454 1.62041 28.9996 0.75 28.9996 0.75V6.58812L30.0398 7.60714L29.1694 8.47755Z" fill="#C8CACD"/>
<path d="M26.728 11.5133L26.9403 11.6407C27.004 11.6832 27.004 11.7044 27.004 11.7256V13.5089H23.0765L22.1849 14.6341V11.7256V11.6619C22.1849 11.6619 22.2061 11.6407 22.2273 11.6407L22.4184 11.5346H22.4396V11.3647H20.4865V11.5346L20.6776 11.6619C20.6988 11.6832 20.72 11.6832 20.72 11.6832V17.033V17.0967C20.72 17.1179 20.6988 17.1179 20.6776 17.1392L20.4865 17.2665V17.4364H22.4396V17.2665L22.2273 17.1392C22.1849 17.1179 22.1849 17.1179 22.1849 17.1179V14.6341L22.3972 14.6978L22.6732 14.5492C22.7156 14.5279 22.7581 14.5067 22.8005 14.4855C22.8218 14.4855 22.843 14.4642 22.9067 14.4642H27.004V16.3537L28.4476 14.7615V11.6619C28.4476 11.6407 28.4688 11.6195 28.4688 11.6195L28.6811 11.5133V11.3435H26.7068V11.5133H26.728Z" fill="#C8CACD"/>
<path d="M47.8726 13.7C47.6391 12.9782 47.1083 12.3837 46.3016 11.9167C45.5798 11.5133 44.5396 11.301 43.1384 11.301H37.7886V11.4709L38.0221 11.6195V12.2564H43.1172C44.1574 12.2564 44.9005 12.3837 45.3675 12.6597C46.0893 13.0843 46.4502 13.6363 46.4502 14.3581C46.4502 14.719 46.3441 15.0374 46.1742 15.3346C45.9832 15.6106 45.7072 15.8654 45.3251 16.0564C44.8368 16.3112 44.0725 16.4386 43.096 16.4386H40.4423V12.7234H38.9774V17.0118V17.0755C38.9774 17.0967 38.9562 17.0967 38.935 17.1179L38.7651 17.2241L38.7439 17.2453V17.4151H43.096C43.9451 17.4151 44.6033 17.3727 45.0491 17.2665C45.686 17.1392 46.2379 16.9056 46.7262 16.5872C47.2145 16.2687 47.5542 15.8866 47.7665 15.462C47.9151 15.1648 48 14.8251 48 14.4642C47.9788 14.1882 47.9575 13.9335 47.8726 13.7Z" fill="#C8CACD"/>
<path d="M31.4197 12.4475L26.6855 17.394H28.8722V17.1817H28.7873C28.7448 17.1817 28.7236 17.1817 28.6811 17.1817C28.6387 17.1817 28.6174 17.1605 28.5962 17.1605L32.2689 13.3392L31.4197 12.4475Z" fill="#C8CACD"/>
<path d="M36.2601 17.2031V17.4154H38.4467L32.6723 11.3225L31.8231 12.2142L32.7572 13.2119L33.7338 14.1885H32.0991L31.2075 15.1226L31.3985 15.25L31.6108 15.1438C31.632 15.1438 31.6533 15.1226 31.6745 15.1226C31.6957 15.1226 31.7382 15.1226 31.8231 15.1226H34.6254L36.5573 17.1819C36.5573 17.1819 36.5361 17.2243 36.3662 17.2243H36.2601V17.2031Z" fill="#C8CACD"/>
<path d="M19.5736 11.6197L19.7435 11.4923V11.3225H17.7903V11.4923L17.9814 11.6197C18.0239 11.641 18.0451 11.6834 18.0451 11.7046V16.9908V17.0545C18.0239 17.0757 18.0026 17.0969 18.0026 17.0969L17.8116 17.2243V17.3942H19.7435V17.2243L19.5736 17.0969C19.5312 17.0969 19.5312 17.0757 19.5099 17.0757V11.7259V11.6622L19.5736 11.6197Z" fill="#C8CACD"/>
<path d="M9.9142 16.2265H9.82928H9.61698L9.36223 16.3751C9.29854 16.4176 9.25608 16.4388 9.25608 16.4388L4.90402 16.4601C3.90624 16.4601 3.14197 16.3327 2.65369 16.0779C1.91066 15.6958 1.52853 15.1226 1.52853 14.3796C1.52853 14.0399 1.63467 13.7214 1.82574 13.4242C2.20787 12.8723 2.73861 12.4901 3.5241 12.3415C3.7364 12.2991 3.92747 12.2991 4.05484 12.2991H6.30517C6.43255 12.2991 6.41132 12.3203 6.43255 12.3415L6.41132 12.4901H6.60239L7.55772 11.3225H4.84034C4.22468 11.3225 3.7364 11.3437 3.39673 11.3862C3.22689 11.4074 3.05705 11.4287 2.88722 11.4711C2.4414 11.5773 2.01681 11.7471 1.61345 11.9594C0.955329 12.3415 0.488279 12.8086 0.212295 13.3605C0.0849182 13.7002 0 14.0611 0 14.4433C0 15.4198 0.530739 16.2053 1.57099 16.7785C2.03804 17.0333 2.56877 17.2243 3.14197 17.3092C3.56656 17.3729 4.16099 17.4154 4.90402 17.4154H8.95887L9.9142 16.2265Z" fill="#C8CACD"/>
<path d="M7.68506 14.7828L8.64039 13.594H2.27153L1.63464 14.5493H7.36662C7.47277 14.5706 7.51523 14.5918 7.51523 14.613L7.494 14.7828H7.68506Z" fill="#C8CACD"/>
<path d="M8.19462 11.3225L7.30298 12.4264L7.49404 12.4901H7.51527L7.79126 12.3415C7.87618 12.2991 7.93986 12.2566 8.02478 12.2566H11.5489V16.9696L11.5277 17.0333C11.5064 17.0969 11.4852 17.0969 11.464 17.0969L11.2729 17.2243V17.3942H13.226V17.2243L13.0137 17.0969L12.9713 17.0545C12.9713 17.0333 12.9713 17.0333 12.9713 17.012V12.2991H16.092C16.2194 12.3203 16.2194 12.3415 16.2194 12.3415V12.5114H16.3892L17.3658 11.3437H8.19462V11.3225Z" fill="#C8CACD"/>
<path d="M10.36 20.3872L8.8739 24.1024H9.57448L10.4661 21.7671L10.551 21.4487L10.6572 21.7671L11.0605 22.8074H10.0628L10.2751 23.3381H11.2516L11.5488 24.1024H12.3131L10.8482 20.3872H10.36Z" fill="#C8CACD"/>
<path d="M14.8607 20.3872H14.1389V24.1236H14.8607V20.3872Z" fill="#C8CACD"/>
<path d="M18.2786 22.383H17.8116V20.9606H18.2786C18.5122 20.9606 18.6608 21.0243 18.7457 21.1305C18.8306 21.2579 18.8943 21.4277 18.8943 21.64C18.8943 22.1283 18.7032 22.383 18.2786 22.383ZM18.8731 22.7864C19.1066 22.7015 19.2977 22.5316 19.425 22.3193C19.5524 22.107 19.6161 21.8523 19.6161 21.5551C19.6161 21.1517 19.51 20.8545 19.2764 20.6634C19.0429 20.4724 18.7032 20.3662 18.2786 20.3662H17.0898V24.1026H17.8116V22.8713H18.2149L19.0641 24.1026H19.8709L18.8731 22.7864Z" fill="#C8CACD"/>
<path d="M25.5603 20.3872L24.881 23.0409H24.8597L23.9893 20.3872H23.2675L23.4586 20.9604L22.8005 23.0409H22.7792L22.0999 20.3872H21.3356L22.4396 24.1024H23.034L23.777 21.8096L24.5413 24.1024H25.1569L26.2821 20.3872H25.5603Z" fill="#C8CACD"/>
<path d="M28.9571 20.3872L27.4711 24.1024H28.1716L29.0633 21.7671L29.1694 21.4487L29.2544 21.7671L29.6577 22.8074H28.6812L28.8722 23.3381H29.8488L30.146 24.1024H30.9103L29.4454 20.3872H28.9571Z" fill="#C8CACD"/>
<path d="M33.5639 21.937L32.7572 20.3872H31.9504L33.1605 22.5739V24.1024H33.9036V22.5739L35.1136 20.3872H34.3918L33.5639 21.937Z" fill="#C8CACD"/>
<path d="M38.1283 21.8944L38.0009 21.852C37.7674 21.7883 37.6188 21.7246 37.5338 21.6609C37.4489 21.5972 37.4065 21.4911 37.4065 21.3425C37.4065 21.1939 37.4489 21.0665 37.5551 21.0028C37.64 20.9391 37.8098 20.8967 38.0221 20.8967C38.2132 20.8967 38.4043 20.9391 38.5953 21.0028C38.7652 21.0877 38.9138 21.1726 39.0199 21.2576V20.4933C38.7864 20.3235 38.4679 20.2598 38.0646 20.2598C37.64 20.2598 37.3003 20.3659 37.088 20.557C36.8545 20.7693 36.7484 21.0453 36.7484 21.4062C36.7484 21.9581 37.0668 22.319 37.6825 22.4676L37.8098 22.5101C38.0434 22.5526 38.192 22.6162 38.2769 22.7012C38.3618 22.7861 38.4043 22.871 38.4043 23.0196C38.4043 23.3593 38.1707 23.5503 37.7249 23.5503C37.364 23.5503 37.0456 23.423 36.7484 23.1682V23.9325C36.9819 24.1023 37.3003 24.1872 37.7037 24.1872C38.1707 24.1872 38.5104 24.0811 38.7439 23.8476C38.9775 23.614 39.1048 23.3168 39.1048 22.9347C39.1048 22.6375 39.0199 22.4039 38.8713 22.2553C38.7015 22.1067 38.4679 21.9794 38.1283 21.8944Z" fill="#C8CACD"/>
</svg>
