<svg width="40" height="40" viewBox="0 0 40 40" fill="none" xmlns="http://www.w3.org/2000/svg">
<g style="mix-blend-mode:luminosity">
<path fill-rule="evenodd" clip-rule="evenodd" d="M34.9458 25.3136C34.0123 25.8277 33.3195 26.6628 32.8673 27.7968C32.3386 25.9481 33.0423 24.5588 34.9749 23.6727C36.5539 22.9507 37.4946 22.3746 38.1218 21.7547C38.4755 21.4046 39.296 20.4675 39.2486 19.3334C39.2194 18.6552 38.8839 18.0499 38.2604 17.5248C37.5165 16.9085 36.5137 16.3069 35.2521 15.625C35.985 15.264 37.4691 14.367 37.9213 12.8792C38.2385 11.8218 37.9796 10.6914 37.1446 9.51721L36.9914 9.30207L36.7435 9.38229C36.656 9.40782 34.6978 10.0569 33.9685 11.8218C33.5857 12.7552 33.6294 13.8127 34.0852 14.9723C32.6412 14.0753 32.4188 13.3861 32.5646 12.1499C32.6303 11.5884 33.035 10.8336 33.4252 10.1043L33.6294 9.71777C34.4389 8.16803 34.9494 6.77873 33.0059 5.41132C31.591 4.41584 29.7532 4.72579 26.7668 5.48425C26.92 4.78048 27.0585 3.46777 26.3657 2.3082C25.7203 1.23614 24.5279 0.568845 22.8177 0.324533L22.5442 0.288069L22.4348 0.539673C22.4093 0.601663 21.7602 2.12223 22.5078 3.66832C22.9636 4.61275 23.8314 5.34204 25.0858 5.85254C24.0721 5.96922 23.2261 5.78326 22.5698 5.29463C21.1549 4.24081 20.783 2.02742 20.721 0.353705L20.7028 0H19.3317L19.3171 0.346412C19.2551 2.02013 18.8868 4.23352 17.472 5.28734C16.812 5.77961 15.966 5.96558 14.9523 5.84889C16.2067 5.34204 17.0746 4.61275 17.534 3.66467C18.2815 2.12223 17.6325 0.601663 17.6069 0.536027L17.4939 0.284422L17.2241 0.320887C15.5139 0.565198 14.3142 1.2325 13.6724 2.3082C12.9796 3.46412 13.1182 4.78048 13.275 5.4806C9.95307 4.63098 8.06786 4.33926 6.58376 5.77232C5.18352 7.13244 5.61745 8.28107 6.32851 9.63754L6.61293 10.1736C6.9958 10.8773 7.38962 11.6103 7.46984 12.1609C7.64852 13.3241 7.4589 14.0315 5.94563 14.9759C6.40508 13.8164 6.44884 12.7625 6.06232 11.8218C5.33667 10.0569 3.37489 9.40782 3.29102 9.38229L3.03577 9.30207L2.88627 9.51721C2.05852 10.6914 1.79963 11.8254 2.12051 12.8792C2.57632 14.367 4.04948 15.2604 4.78241 15.625C3.69213 16.2048 2.57996 16.7992 1.83244 17.4774C1.16514 18.0827 0.818733 18.7427 0.800501 19.4392C0.778622 20.2013 1.15421 20.9816 1.91267 21.7547C2.57267 22.4256 3.5718 23.0346 5.06319 23.6763C7.04321 24.526 7.73239 25.8751 7.17083 27.7859C6.71868 26.6591 6.0222 25.8204 5.09601 25.3099C3.29467 24.3218 1.29642 24.8906 1.21255 24.9161L0.913541 25.0036L0.953651 25.3099C1.13233 26.6409 1.69388 27.64 2.62737 28.2854C4.03125 29.2481 5.86176 29.1278 6.6968 29.0074L6.66398 29.084C6.1316 30.3019 5.52993 31.6803 5.87999 32.9128C6.15712 33.89 6.91194 34.6339 8.00951 35.0022C9.54831 35.52 11.3898 35.4215 13.7928 34.6922C15.2003 34.2656 16.4036 34.2875 17.3116 34.7396C17.2934 34.736 17.2751 34.736 17.2569 34.7324C17.3225 34.7615 17.3809 34.7907 17.4429 34.8235C15.7764 34.7141 14.4236 35.0605 13.4172 35.8627C11.9987 36.9931 11.8128 38.6049 11.8055 38.6705L11.7726 39.006L12.1008 39.0826C13.7381 39.4764 15.131 39.3086 16.2322 38.583C17.658 37.6422 18.1539 36.0669 18.2888 35.5163C18.3727 35.6257 18.4383 35.7278 18.4821 35.8081C18.4821 35.8044 18.4857 35.7971 18.4894 35.7898C19.0181 36.5993 19.2989 37.7443 19.2989 39.1701V39.5311H20.7465V39.1701C20.7465 37.8573 20.9836 36.7853 21.4321 35.9904C21.4321 35.9904 21.5269 35.6987 21.8295 35.3668C21.8988 35.7096 22.3364 37.5365 23.9189 38.5793C25.0238 39.305 26.4131 39.4727 28.054 39.0789L28.3822 39.0023L28.3457 38.6669C28.3384 38.5976 28.1561 36.9895 26.734 35.8591C25.6911 35.0277 24.2726 34.6886 22.5224 34.8344C22.6172 34.7834 22.7229 34.7323 22.8359 34.6886C23.7293 34.2875 24.8889 34.2802 26.2417 34.6886C28.7067 35.4361 30.5299 35.5382 31.9922 35.0131C33.4361 34.4953 33.9649 33.5837 34.1545 32.9091C34.5009 31.6766 33.8992 30.2946 33.3705 29.0804L33.3377 29.0038C34.1691 29.1241 36.0069 29.2481 37.4181 28.2818C38.3516 27.64 38.9168 26.6373 39.0954 25.3063L39.1355 25L38.8365 24.9125C38.749 24.8906 36.7435 24.3181 34.9458 25.3136ZM3.03577 27.6874C2.47057 27.2973 2.0804 26.7211 1.86162 25.9955L5.94928 28.3547C5.11424 28.3948 3.94373 28.3146 3.03577 27.6874ZM2.39035 25.4631C3.04306 25.4266 3.92915 25.4923 4.7496 25.9481C5.43513 26.3273 5.96022 26.9363 6.33944 27.7421L2.39035 25.4631ZM36.9258 10.5564C37.1883 11.0524 37.3269 11.5337 37.3269 11.9931C37.3269 12.2229 37.2941 12.4489 37.2284 12.6641C36.9331 13.645 36.0361 14.3342 35.3688 14.7316L36.9258 10.5564ZM34.6322 12.1025C34.9677 11.2784 35.6605 10.7424 36.1965 10.4325L34.6796 14.5019C34.5118 14.0352 34.4243 13.5903 34.4243 13.1746C34.4243 12.7917 34.4936 12.438 34.6322 12.1025ZM25.7385 2.67284C26.063 3.21616 26.1615 3.81782 26.1615 4.34291C26.1615 4.57628 26.1433 4.78778 26.1177 4.97375L23.5762 1.23614C24.5862 1.51327 25.3228 1.98731 25.7385 2.67284ZM23.1605 3.35837C22.9417 2.91351 22.8724 2.4577 22.8724 2.06389C22.8724 1.87062 22.8906 1.69924 22.9125 1.54609L25.3739 5.16701C24.2909 4.72943 23.5361 4.13142 23.1605 3.35837ZM17.1657 2.06389C17.1657 2.4577 17.0964 2.91351 16.8777 3.35837C16.5021 4.13142 15.7473 4.72943 14.6643 5.16336L17.1256 1.54244C17.1511 1.69924 17.1657 1.87062 17.1657 2.06389ZM14.296 2.67649C14.7117 1.98366 15.4483 1.51327 16.462 1.2325L13.9167 4.97375C13.8912 4.78413 13.8693 4.57264 13.8693 4.33926C13.8693 3.81418 13.9714 3.21616 14.296 2.67649ZM2.81334 12.6641C2.7477 12.4453 2.71488 12.2192 2.71488 11.9859C2.71488 11.53 2.85345 11.0524 3.11234 10.5564L4.66937 14.728C3.99843 14.3342 3.1087 13.645 2.81334 12.6641ZM3.83069 10.4288C4.37401 10.7424 5.05954 11.2784 5.39866 12.0989C5.53358 12.4344 5.60286 12.7881 5.60286 13.1709C5.60286 13.5866 5.519 14.0279 5.35126 14.4982L3.83069 10.4288ZM13.9022 36.4571C14.5986 35.9065 15.5212 35.6257 16.637 35.5929L12.8301 37.8792C13.0197 37.4344 13.3443 36.8983 13.9022 36.4571ZM15.802 37.9449C15.1164 38.3934 14.2741 38.5721 13.3041 38.4918L17.2715 36.1071C17.0199 36.6978 16.5677 37.4417 15.802 37.9449ZM26.2417 36.4571C26.7996 36.8983 27.1242 37.4344 27.3138 37.8756L23.5032 35.5929C24.6191 35.6257 25.5453 35.9065 26.2417 36.4571ZM26.8434 38.4918C25.8734 38.5684 25.0311 38.3934 24.3456 37.9449C23.5798 37.4417 23.1277 36.6978 22.8761 36.1107L26.8434 38.4918ZM33.4544 32.7159C33.2465 33.4561 32.6704 33.9994 31.7442 34.3349C30.4388 34.8053 28.7541 34.6995 26.4496 33.9994C24.5717 33.4342 22.9818 33.5837 21.8478 34.4261C20.7174 35.2647 20.1011 36.7853 20.0355 38.8164C20.0209 38.8164 20.0209 38.8164 20.0063 38.8164C19.937 36.7853 19.3208 35.2684 18.1904 34.4297C17.0527 33.5874 15.4628 33.4379 13.5813 34.0031C11.3278 34.6886 9.62854 34.787 8.23559 34.3203C7.62664 34.1125 6.83901 33.6712 6.57282 32.7195C6.29569 31.7386 6.84265 30.4842 7.32398 29.3794L7.69228 28.5006C8.644 25.9809 7.83084 24.0847 5.34761 23.0127C3.94738 22.411 3.01754 21.8531 2.42681 21.2478C1.81056 20.6206 1.50791 20.0226 1.51885 19.4647C1.53344 18.9724 1.80327 18.4838 2.31742 18.0171C3.01389 17.3789 4.12606 16.7919 5.19446 16.223L5.6138 16.0006C7.83449 14.8082 8.45803 13.8528 8.18454 12.0551C8.08244 11.3769 7.67769 10.6257 7.24741 9.8308L6.97028 9.30572C6.26652 7.97477 6.06961 7.28924 7.08332 6.2974C8.30123 5.1196 9.84732 5.34568 13.5229 6.2974V6.30105H13.5302C13.6323 6.32658 13.7308 6.3521 13.8365 6.37763C15.4993 6.81155 16.8667 6.64017 17.9023 5.87077C19.4338 4.73308 19.9042 2.55251 20.0172 0.776692C20.1303 2.55251 20.6043 4.73673 22.1322 5.87442C23.1678 6.64382 24.5352 6.8152 26.1907 6.38127C26.2964 6.3521 26.3985 6.32658 26.497 6.3047H26.5116V6.30105C29.6256 5.49519 31.3504 5.13784 32.5792 6.00933C33.9248 6.95376 33.8555 7.71952 32.9803 9.38959C32.9803 9.38594 32.7798 9.77246 32.7798 9.77246C32.3568 10.5601 31.9192 11.3733 31.8354 12.0734C31.6202 13.9112 32.2219 14.8301 34.4134 16.0079C35.6751 16.6825 36.9513 17.3972 37.7864 18.09C38.2495 18.4765 38.4974 18.9068 38.5156 19.3735C38.5521 20.245 37.8301 21.0327 37.604 21.2515C37.0425 21.8094 36.16 22.3381 34.665 23.0273C31.5619 24.4457 31.6786 26.7904 32.3276 28.5079L32.6959 29.3867C33.1845 30.4806 33.7279 31.735 33.4544 32.7159ZM35.2849 25.9517C36.109 25.4959 36.9987 25.4303 37.6514 25.4667L33.6914 27.7458C34.0779 26.9399 34.5994 26.3273 35.2849 25.9517ZM37.0024 27.6874C36.0944 28.3146 34.9239 28.3948 34.0925 28.3511L38.1838 25.9918C37.9541 26.7211 37.5676 27.2973 37.0024 27.6874ZM28.2363 4.34656C28.8307 4.34656 29.3084 3.86523 29.3084 3.2745C29.3084 2.68378 28.827 2.20245 28.2363 2.20245C27.6456 2.20245 27.1643 2.68378 27.1643 3.2745C27.1606 3.86523 27.642 4.34656 28.2363 4.34656ZM28.2363 2.92445C28.4259 2.92445 28.5864 3.08124 28.5864 3.2745C28.5864 3.46777 28.4259 3.62456 28.2363 3.62456C28.0431 3.62456 27.8863 3.46777 27.8863 3.2745C27.8863 3.08124 28.0431 2.92445 28.2363 2.92445ZM11.7544 4.34656C12.3451 4.34656 12.8265 3.86523 12.8265 3.2745C12.8265 2.68378 12.3488 2.20245 11.7544 2.20245C11.16 2.20245 10.6824 2.68378 10.6824 3.2745C10.6787 3.86523 11.16 4.34656 11.7544 4.34656ZM11.7544 2.92445C11.9477 2.92445 12.1045 3.08124 12.1045 3.2745C12.1045 3.46777 11.9477 3.62456 11.7544 3.62456C11.5611 3.62456 11.4044 3.46777 11.4044 3.2745C11.4007 3.08124 11.5611 2.92445 11.7544 2.92445ZM1.82515 16.5001C2.41587 16.5001 2.8972 16.0188 2.8972 15.4281C2.8972 14.8374 2.41952 14.356 1.82515 14.356C1.23078 14.3524 0.749451 14.8337 0.749451 15.4244C0.749451 16.0152 1.23078 16.5001 1.82515 16.5001ZM1.82515 15.078C2.01841 15.078 2.17156 15.2312 2.17156 15.4281C2.17156 15.6214 2.01841 15.7745 1.82515 15.7745C1.63189 15.7745 1.47509 15.6214 1.47509 15.4281C1.47509 15.2312 1.63189 15.078 1.82515 15.078ZM4.27921 29.3867C3.68848 29.3867 3.2108 29.868 3.2108 30.4587C3.2108 31.0494 3.69213 31.5308 4.27921 31.5308C4.87358 31.5308 5.35491 31.0494 5.35491 30.4587C5.35491 29.868 4.86993 29.3867 4.27921 29.3867ZM4.27921 30.8051C4.08594 30.8051 3.93279 30.6483 3.93279 30.4551C3.93279 30.2618 4.08594 30.105 4.27921 30.105C4.47611 30.105 4.63291 30.2618 4.63291 30.4551C4.63291 30.652 4.47611 30.8051 4.27921 30.8051ZM35.4927 29.3867C34.902 29.3867 34.4207 29.868 34.4207 30.4587C34.4207 31.0494 34.9057 31.5308 35.4927 31.5308C36.0835 31.5308 36.5648 31.0494 36.5648 30.4587C36.5648 29.868 36.0835 29.3867 35.4927 29.3867ZM35.4927 30.8051C35.2995 30.8051 35.1427 30.6483 35.1427 30.4551C35.1427 30.2618 35.2995 30.105 35.4927 30.105C35.686 30.105 35.8428 30.2618 35.8428 30.4551C35.8392 30.652 35.6824 30.8051 35.4927 30.8051ZM36.8784 15.4244C36.8784 16.0152 37.3597 16.4965 37.9504 16.4965C38.5412 16.4965 39.0261 16.0152 39.0261 15.4244C39.0261 14.8337 38.5412 14.3524 37.9504 14.3524C37.3561 14.3524 36.8784 14.8337 36.8784 15.4244ZM38.3005 15.4244C38.3005 15.6177 38.1437 15.7709 37.9504 15.7709C37.7572 15.7709 37.6004 15.6177 37.6004 15.4244C37.6004 15.2312 37.7572 15.0744 37.9504 15.0744C38.1437 15.078 38.3005 15.2312 38.3005 15.4244ZM12.1336 36.6941C12.1336 36.1034 11.6523 35.6221 11.0579 35.6221C10.4672 35.6221 9.98589 36.1034 9.98589 36.6941C9.98589 37.2849 10.4672 37.7662 11.0579 37.7662C11.6487 37.7625 12.1336 37.2849 12.1336 36.6941ZM11.0579 37.0406C10.8647 37.0406 10.7115 36.8838 10.7115 36.6905C10.7115 36.5009 10.8683 36.3404 11.0579 36.3404C11.2512 36.3404 11.408 36.4972 11.408 36.6905C11.408 36.8874 11.2512 37.0406 11.0579 37.0406ZM29.0823 35.6184C28.4916 35.6184 28.0102 36.0998 28.0102 36.6905C28.0102 37.2812 28.4916 37.7625 29.0823 37.7625C29.673 37.7625 30.1544 37.2812 30.1544 36.6905C30.158 36.0998 29.6767 35.6184 29.0823 35.6184ZM29.0823 37.0406C28.889 37.0406 28.7322 36.8838 28.7322 36.6905C28.7322 36.5009 28.889 36.3404 29.0823 36.3404C29.2756 36.3404 29.4324 36.4972 29.4324 36.6905C29.4324 36.8874 29.2756 37.0406 29.0823 37.0406Z" fill="#828282"/>
<path d="M20.3746 20.4274C20.3856 20.4383 20.3929 20.4529 20.4001 20.4748C20.4038 20.4894 20.4074 20.504 20.4074 20.5149C20.4074 20.5732 20.36 20.6024 20.2616 20.6024C20.2069 20.6061 20.0501 20.6024 19.7875 20.5842C19.525 20.5659 19.339 20.555 19.2406 20.555C19.0692 20.555 18.8139 20.5696 18.4712 20.5951C18.3436 20.6061 18.2524 20.6097 18.1977 20.6024C18.1065 20.6024 18.0628 20.5696 18.0628 20.5076C18.0628 20.4821 18.0701 20.4602 18.0883 20.4456C18.1029 20.4237 18.2196 20.3326 18.4311 20.1648C18.5952 20.0372 18.679 19.9205 18.679 19.8221V12.8391C18.38 12.9668 18.0373 13.0616 17.6507 13.1199C17.2642 13.1783 16.8813 13.2074 16.5021 13.2074C16.0755 13.2074 15.5795 13.1454 15.0144 13.0251C14.4492 12.9011 13.9532 12.7443 13.5266 12.5547V19.8257C13.5266 19.9278 13.6068 20.0409 13.7709 20.1612C13.9861 20.3253 14.0991 20.4128 14.11 20.4274C14.121 20.4383 14.1283 20.4529 14.1356 20.4748C14.1392 20.4894 14.1429 20.504 14.1429 20.5149C14.1429 20.5732 14.0954 20.6024 13.997 20.6024C13.9423 20.6061 13.7855 20.6024 13.5193 20.5842C13.2531 20.5659 13.0708 20.555 12.9687 20.555C12.7973 20.555 12.5421 20.5696 12.1993 20.5951C12.0717 20.6061 11.9805 20.6097 11.9258 20.6024C11.8347 20.6024 11.7909 20.5696 11.7909 20.5076C11.7909 20.4821 11.7982 20.4602 11.8164 20.4456C11.831 20.4237 11.9477 20.3326 12.1592 20.1648C12.3233 20.0372 12.4071 19.9205 12.4071 19.8221V12.4927C12.3306 12.4818 12.2686 12.4781 12.2139 12.4781C11.8638 12.4781 11.5429 12.562 11.2549 12.7261C10.9121 12.923 10.7407 13.1819 10.7407 13.5028C10.7407 13.6559 10.7735 13.7836 10.8465 13.8784C10.8902 13.9367 10.9559 13.9914 11.047 14.0461C11.1382 14.0972 11.2585 14.1263 11.4153 14.1263C11.4846 14.1263 11.532 14.1227 11.5612 14.1117C11.6268 14.0972 11.656 14.1154 11.656 14.1664C11.656 14.1993 11.6341 14.2321 11.594 14.2685C11.5028 14.3488 11.4044 14.4108 11.2986 14.4618C11.1382 14.5347 10.9741 14.5748 10.81 14.5748C10.5438 14.5748 10.3177 14.5019 10.1318 14.3597C9.90204 14.1847 9.789 13.9367 9.789 13.6158C9.789 13.2585 9.88381 12.9522 10.0771 12.6969C10.2412 12.4818 10.4818 12.2922 10.7954 12.1281C10.9595 12.0369 11.1637 11.964 11.4044 11.9129C11.7034 11.8437 12.0389 11.8072 12.4108 11.8072V10.1918C12.4108 10.0897 12.3306 9.97668 12.1701 9.84906C12.0534 9.7579 11.9368 9.66673 11.8164 9.56828C11.8018 9.5464 11.7982 9.51358 11.8055 9.47347C11.8128 9.42972 11.8529 9.41148 11.9295 9.41148C11.9842 9.40419 12.1446 9.41148 12.4108 9.42972C12.677 9.44795 12.8666 9.45889 12.9723 9.45889C13.1875 9.45889 13.4063 9.45159 13.6287 9.43336C13.8511 9.41878 13.9751 9.40784 14.0006 9.40784C14.0954 9.40784 14.1465 9.43701 14.1465 9.49535C14.1465 9.52817 14.1356 9.55734 14.1137 9.58287C14.1027 9.59745 13.9933 9.68861 13.7819 9.84541C13.6141 9.97304 13.5302 10.0897 13.5302 10.1882V11.902C13.9496 12.0989 14.4637 12.2776 15.0654 12.4344C15.6671 12.5912 16.2067 12.6714 16.6808 12.6714C17.06 12.6714 17.3517 12.6532 17.5596 12.6167C17.8841 12.5584 18.2597 12.4344 18.679 12.2411V10.1918C18.679 10.0897 18.5988 9.97668 18.4384 9.84906C18.3217 9.7579 18.205 9.66673 18.0883 9.56828C18.0737 9.5464 18.0664 9.51358 18.0774 9.47347C18.0847 9.42972 18.1248 9.41148 18.2013 9.41148C18.256 9.40419 18.4165 9.41148 18.6827 9.42972C18.9489 9.44795 19.1348 9.45889 19.2442 9.45889C19.4557 9.45889 19.6745 9.45159 19.8969 9.43336C20.1194 9.41878 20.2433 9.40784 20.2689 9.40784C20.3637 9.40784 20.4147 9.43701 20.4147 9.49535C20.4147 9.52817 20.4038 9.55734 20.3819 9.58287C20.371 9.59745 20.2616 9.68861 20.0537 9.84541C19.8896 9.97304 19.8058 10.0897 19.8058 10.1882V19.8294C19.8058 19.9315 19.886 20.0445 20.0464 20.1648C20.2506 20.3216 20.3637 20.4128 20.3746 20.4274Z" fill="#828282"/>
<path d="M30.2164 17.0143C30.2164 18.1338 29.746 19.0636 28.8089 19.8075C27.9228 20.5076 26.8726 20.854 25.6583 20.854C24.5498 20.854 23.6127 20.5878 22.8506 20.0555C22.001 19.4574 21.578 18.6479 21.578 17.6233C21.578 16.9049 21.8733 16.285 22.4604 15.7709C23.0511 15.2567 23.7585 14.9978 24.5863 14.9978C25.3922 14.9978 26.0449 15.151 26.5481 15.4609C27.1096 15.8074 27.3868 16.2996 27.3868 16.9341C27.3868 17.3972 27.1971 17.7837 26.8216 18.09C26.446 18.3963 26.0084 18.5495 25.5125 18.5495C25.0603 18.5495 24.6774 18.4656 24.3675 18.2942C23.9992 18.09 23.8169 17.802 23.8169 17.43C23.8169 17.2039 23.9117 17.018 24.0977 16.8685C24.2399 16.7518 24.3711 16.6862 24.4805 16.6679C24.5936 16.6533 24.6519 16.6424 24.6629 16.6424C24.7066 16.6424 24.7249 16.657 24.7249 16.6898C24.7139 16.7226 24.703 16.7554 24.692 16.7846C24.6847 16.7955 24.6774 16.8284 24.6592 16.8794C24.6264 16.9852 24.6118 17.1018 24.6118 17.2331C24.6118 17.3972 24.6957 17.5394 24.8634 17.6598C25.0312 17.7801 25.2135 17.8384 25.4104 17.8384C25.7422 17.8384 26.0157 17.7363 26.2345 17.5358C26.4533 17.3316 26.5627 17.0836 26.5627 16.7846C26.5627 16.3361 26.3402 15.986 25.899 15.7381C25.5161 15.5193 25.053 15.4099 24.517 15.4099C23.8278 15.4099 23.2335 15.6141 22.7339 16.0189C22.2052 16.4455 21.9426 16.9779 21.9426 17.6196C21.9426 18.451 22.3401 19.1183 23.135 19.6179C23.8461 20.0664 24.6884 20.2888 25.6729 20.2888C26.6684 20.2888 27.5253 19.9789 28.24 19.3626C28.9802 18.7245 29.3522 17.9296 29.3522 16.9779C29.3522 16.4601 29.2282 16.0079 28.9839 15.6177C28.7724 15.275 28.4442 14.9468 27.9994 14.6332C27.6967 14.4144 27.2336 14.1446 26.6137 13.8273C25.8261 13.4554 25.0384 13.0762 24.2545 12.7006C23.4595 12.2375 23.0621 11.6905 23.0621 11.0597C23.0621 10.4362 23.3793 9.95117 24.0138 9.60476C24.5644 9.30575 25.2317 9.15625 26.023 9.15625C26.6246 9.15625 27.1023 9.22189 27.456 9.3568C27.941 9.53913 28.1853 9.83813 28.1853 10.2611C28.1853 10.4325 28.116 10.5857 27.9811 10.7206C27.8462 10.8555 27.7259 10.9284 27.6201 10.9394C27.5144 10.9503 27.4414 10.9539 27.3904 10.9539C27.2737 10.9539 27.1753 10.9357 27.095 10.8992C27.0367 10.8555 27.0075 10.83 27.0075 10.819C27.0075 10.7935 27.0258 10.7607 27.0622 10.7242C27.1388 10.6513 27.1898 10.5711 27.2227 10.4872C27.2555 10.4033 27.2701 10.3195 27.2701 10.2283C27.2701 9.96576 27.1279 9.76885 26.8398 9.63758C26.6101 9.53183 26.322 9.48078 25.9756 9.48078C25.414 9.48078 24.9473 9.5683 24.5753 9.74333C24.1232 9.95482 23.8971 10.2648 23.8971 10.6622C23.8971 10.9539 24.0612 11.2238 24.3857 11.4717C24.6155 11.6431 25.0166 11.851 25.5854 12.1026C26.435 12.4709 26.9273 12.6897 27.0659 12.7589C27.7806 13.1053 28.3239 13.4226 28.6995 13.7107C29.2027 14.0935 29.571 14.5311 29.8116 15.0161C30.0778 15.5667 30.2164 16.2303 30.2164 17.0143Z" fill="#828282"/>
<path d="M26.3256 31.6474C26.3256 31.8772 26.2016 32.0595 25.9573 32.1908C25.7421 32.3074 25.4942 32.3658 25.2061 32.3658C24.5461 32.3658 23.9444 32.198 23.4084 31.8626C22.9234 31.5599 22.5041 31.1296 22.154 30.5754C21.9717 30.2837 21.8186 29.9117 21.6909 29.4632C21.6545 29.3283 21.5633 28.9345 21.4175 28.2708C21.3154 27.8004 21.2096 27.4285 21.0966 27.1514C20.9325 27.1988 20.7647 27.2389 20.597 27.2681C20.4293 27.2972 20.2652 27.3118 20.1047 27.3118C19.7401 27.3118 19.452 27.2535 19.2296 27.1368C18.9671 26.9982 18.8358 26.7904 18.8358 26.5132C18.8358 26.2689 18.9634 26.072 19.2187 25.9298C19.4374 25.8058 19.7 25.7438 20.0026 25.7438C20.2871 25.7438 20.5605 25.8022 20.8231 25.9152C21.0893 26.0283 21.3008 26.2033 21.4612 26.433C21.9863 26.1668 22.4348 25.7475 22.8031 25.175C23.2079 24.5515 23.4084 23.8878 23.4084 23.184C23.4084 22.1485 23.0547 21.2842 22.3437 20.5914C21.6326 19.8986 20.7246 19.5522 19.6161 19.5522C19.0254 19.5522 18.5696 19.5777 18.256 19.6251C17.771 19.698 17.2897 19.8585 16.8157 20.0955C16.4802 20.2669 16.1848 20.4747 15.9369 20.7263C15.6379 21.029 15.4883 21.3207 15.4883 21.5978C15.4847 21.6635 15.4811 21.7036 15.4811 21.7255C15.4811 21.875 15.5139 22.0062 15.5795 22.1193C15.6451 22.2323 15.7436 22.287 15.8712 22.287C15.9843 22.287 16.0718 22.2578 16.1338 22.1995C16.1994 22.1412 16.2468 22.0318 16.2869 21.8713C16.3015 21.8093 16.327 21.7765 16.3598 21.7765C16.3927 21.7765 16.4145 21.7984 16.4328 21.8422C16.5166 21.9443 16.5604 22.0865 16.5604 22.2761C16.5604 22.4912 16.4802 22.6699 16.3197 22.8194C16.1593 22.9689 15.966 23.0455 15.7436 23.0455C15.4811 23.0455 15.2696 22.9434 15.1091 22.7428C14.945 22.5386 14.8648 22.2943 14.8648 22.0062C14.8648 21.5431 15.0325 21.1092 15.368 20.7118C15.6306 20.3982 15.9879 20.1101 16.4474 19.8475C17.0381 19.5121 17.647 19.2787 18.2706 19.1511C18.7665 19.049 19.3864 18.9979 20.1266 18.9979C21.3846 18.9979 22.4567 19.3553 23.3355 20.07C24.2471 20.8102 24.7029 21.7328 24.7029 22.8376C24.7029 23.7602 24.4039 24.6098 23.8059 25.3828C23.2735 26.0757 22.6062 26.5898 21.8076 26.918C22.0009 27.1623 22.1796 27.4577 22.351 27.7968C22.5223 28.1396 22.6901 28.5334 22.8615 28.9819C23.124 29.6601 23.3063 30.1086 23.4121 30.3347C23.6564 30.8525 23.9043 31.2463 24.1559 31.5198C24.4659 31.8553 24.8014 32.023 25.1624 32.023C25.2973 32.023 25.4213 31.9938 25.5379 31.9355C25.6546 31.8772 25.7203 31.7896 25.7385 31.673C25.7385 31.5781 25.7312 31.5052 25.7203 31.4615C25.7057 31.4177 25.6838 31.3739 25.6473 31.3338C25.6145 31.2937 25.5963 31.2646 25.5963 31.2427C25.5963 31.2172 25.6182 31.1953 25.6619 31.177C25.7786 31.1552 25.9172 31.1916 26.0776 31.2828C26.2453 31.3594 26.3256 31.487 26.3256 31.6474ZM18.8795 30.2873C18.8905 30.2982 18.8978 30.3165 18.9051 30.342C18.9087 30.3602 18.9124 30.3748 18.9124 30.3858C18.9124 30.4478 18.865 30.4769 18.7665 30.4769C18.7118 30.4842 18.555 30.4769 18.2888 30.4587C18.0226 30.4405 17.8403 30.4149 17.7382 30.3821C17.5668 30.3821 17.3079 30.3967 16.9688 30.4222C16.8412 30.4332 16.75 30.4368 16.6953 30.4295C16.6042 30.4295 16.5604 30.3967 16.5604 30.3347C16.5604 30.3092 16.5677 30.2873 16.5859 30.2691C16.6005 30.2472 16.7172 30.156 16.9287 29.9883C17.0928 29.8607 17.1767 29.744 17.1767 29.6455V22.1886C17.1767 22.0245 17.1292 21.9041 17.0308 21.8276C17.0199 21.8166 16.936 21.7765 16.7755 21.7072C16.7208 21.6854 16.6953 21.6598 16.6953 21.627C16.6953 21.6015 16.7281 21.5577 16.7938 21.4994C16.9469 21.4155 17.0891 21.3353 17.2095 21.266C17.3006 21.2186 17.4355 21.1384 17.6106 21.0253C17.7856 20.9123 18.0263 20.7373 18.3326 20.4966C18.4821 20.3799 18.5732 20.3143 18.6061 20.2961C18.6608 20.2815 18.6972 20.2851 18.7191 20.3106C18.741 20.3362 18.741 20.3726 18.7191 20.4237C18.5842 20.668 18.4784 20.8795 18.4055 21.0618C18.3326 21.2405 18.2961 21.4119 18.2961 21.5796V29.6492C18.2961 29.7513 18.3763 29.8607 18.5404 29.9847C18.7556 30.1706 18.8686 30.2727 18.8795 30.2873ZM20.8924 26.6846C20.8267 26.5242 20.7101 26.3929 20.5314 26.2908C20.3563 26.1887 20.1704 26.1377 19.9808 26.1377C19.8313 26.1377 19.7 26.1705 19.5797 26.2325C19.463 26.2945 19.4046 26.3856 19.4046 26.5059C19.4046 26.6482 19.4848 26.7539 19.6453 26.8195C19.7693 26.8669 19.9261 26.8925 20.123 26.8925C20.2433 26.8925 20.3782 26.8742 20.5241 26.8378C20.6736 26.8013 20.7976 26.7503 20.8924 26.6846Z" fill="#828282"/>
</g>
</svg>
