<svg width="28" height="25" viewBox="0 0 28 25" fill="none" xmlns="http://www.w3.org/2000/svg">
<path d="M27.1003 12.7716H26.5839C26.1512 12.7716 25.7993 12.4196 25.7993 11.987C25.7993 11.5543 26.1512 11.2024 26.5838 11.2024H27.1003C27.3211 11.2024 27.4999 11.0235 27.4999 10.8027V8.40488C27.4999 8.18408 27.3211 8.0052 27.1003 8.0052H26.5838C26.1512 8.0052 25.7992 7.65325 25.7992 7.22062V7.07528L26.3855 6.53828C26.5444 6.39268 26.5593 6.14726 26.4191 5.98352L24.8589 4.16264C24.79 4.08212 24.6918 4.03234 24.5861 4.02421C24.4802 4.01536 24.3758 4.05027 24.2954 4.11919L23.9032 4.45527C23.5747 4.73671 23.0783 4.69843 22.7969 4.36994C22.6605 4.21084 22.5943 4.00808 22.6104 3.79909C22.6265 3.59016 22.723 3.39999 22.8822 3.26362L23.2744 2.92755C23.4421 2.78395 23.4615 2.53161 23.3179 2.36402L21.7577 0.543202C21.6141 0.375664 21.3618 0.3561 21.1941 0.499749L20.8019 0.835774C20.6427 0.972145 20.4401 1.03849 20.2311 1.02224C20.0222 1.00616 19.832 0.909655 19.6956 0.750449L19.1724 0.139729C19.1034 0.0592037 19.0053 0.00942221 18.8996 0.00130108C18.7936 -0.00682005 18.6893 0.0272465 18.6089 0.0962762L11.6992 6.01669H10.5583C10.3375 6.01669 10.1586 6.19556 10.1586 6.41636C10.1586 6.63716 10.3375 6.81604 10.5583 6.81604H24.9999V7.22062C24.9999 8.09401 25.7105 8.80455 26.5839 8.80455H26.7006V10.403H26.5839C25.7105 10.403 24.9999 11.1136 24.9999 11.987C24.9999 12.8604 25.7105 13.5709 26.5839 13.5709H26.7006V15.1694H26.5839C25.7105 15.1694 24.9999 15.8799 24.9999 16.7533V17.6594H22.2364C22.0156 17.6594 21.8368 17.8383 21.8368 18.0591C21.8368 18.2799 22.0156 18.4587 22.2364 18.4587H25.3996C25.6204 18.4587 25.7993 18.2799 25.7993 18.0591V16.7533C25.7993 16.3207 26.1512 15.9688 26.5839 15.9688H27.1003C27.3211 15.9688 27.5 15.7899 27.5 15.5691V13.1712C27.5 12.9504 27.3211 12.7716 27.1003 12.7716ZM12.9278 6.01669L18.8254 0.963444L19.0886 1.27068C19.3638 1.59199 19.7478 1.78684 20.1696 1.81933C20.5914 1.85176 21.0007 1.71818 21.322 1.44291L21.4107 1.36692L22.4508 2.58071L22.3621 2.65675C21.6989 3.22497 21.6216 4.22687 22.1899 4.89012C22.7583 5.55331 23.7602 5.63056 24.4233 5.0623L24.512 4.98625L25.3949 6.01669H12.9278Z" fill="#4F4F4F"/>
<path d="M18.7286 17.6594H3.0001V17.2549C3.0001 16.3815 2.28955 15.671 1.41616 15.671H1.29935V14.0725H1.41616C2.28955 14.0725 3.0001 13.3619 3.0001 12.4885C3.0001 11.6151 2.28955 10.9046 1.41616 10.9046H1.29935V9.3061H1.41616C2.28955 9.3061 3.0001 8.59555 3.0001 7.72216V6.81607H7.56127C7.78207 6.81607 7.96095 6.6372 7.96095 6.4164C7.96095 6.1956 7.78207 6.01672 7.56127 6.01672H2.60042C2.37962 6.01672 2.20074 6.1956 2.20074 6.4164V7.72216C2.20074 8.15474 1.84879 8.50675 1.41616 8.50675H0.899676C0.678876 8.50675 0.5 8.68562 0.5 8.90642V11.3043C0.5 11.5251 0.678876 11.7039 0.899676 11.7039H1.41616C1.84874 11.7039 2.20074 12.0559 2.20074 12.4885C2.20074 12.9212 1.84879 13.2731 1.41616 13.2731H0.899676C0.678876 13.2731 0.5 13.452 0.5 13.6728V16.0706C0.5 16.2914 0.678876 16.4703 0.899676 16.4703H1.41616C1.84874 16.4703 2.20074 16.8223 2.20074 17.2549V17.471L1.63606 17.9188C1.5509 17.9863 1.49695 18.0856 1.48651 18.1936C1.47612 18.3017 1.51018 18.4095 1.5809 18.492L3.141 20.3129C3.20998 20.3934 3.30812 20.4432 3.4138 20.4513C3.51948 20.4601 3.6241 20.4253 3.70452 20.3563L4.09677 20.0202C4.25592 19.8838 4.45863 19.8172 4.66756 19.8338C4.8765 19.8499 5.06666 19.9464 5.20303 20.1056C5.48453 20.4341 5.44624 20.9304 5.11771 21.2119L4.72552 21.5479C4.55788 21.6915 4.53842 21.9438 4.68207 22.1114L6.24217 23.9323C6.38576 24.1 6.6381 24.1195 6.80569 23.9758L7.19793 23.6397C7.35703 23.5034 7.56038 23.437 7.76873 23.4533C7.97766 23.4694 8.16783 23.5659 8.3042 23.7251L8.82743 24.3357C8.90648 24.428 9.01849 24.4754 9.13113 24.4754C9.22315 24.4754 9.3156 24.4438 9.39095 24.3792L16.2884 18.4693C16.2923 18.4659 16.2956 18.4624 16.2993 18.4589H18.7284C18.9492 18.4589 19.128 18.2801 19.128 18.0593C19.128 17.8385 18.9494 17.6594 18.7286 17.6594ZM9.17458 23.512L8.91138 23.2048C8.63616 22.8835 8.25225 22.6887 7.83038 22.6562C7.40855 22.6234 6.99933 22.7573 6.67802 23.0326L6.58927 23.1086L5.54918 21.8947L5.63788 21.8188C5.95914 21.5435 6.15405 21.1596 6.18653 20.7377C6.21902 20.3159 6.08539 19.9066 5.81011 19.5853C5.53489 19.264 5.15098 19.0692 4.72911 19.0367C4.30739 19.0047 3.89806 19.1379 3.57675 19.4131L3.48805 19.4892L2.60506 18.4587H15.0722L9.17458 23.512Z" fill="#4F4F4F"/>
<path d="M23.065 7.89026H11.68C11.4592 7.89026 11.2803 8.06914 11.2803 8.28994C11.2803 8.51074 11.4592 8.68961 11.68 8.68961H22.6653V15.7856H5.33463V8.68961H8.62538C8.84618 8.68961 9.02505 8.51074 9.02505 8.28994C9.02505 8.06914 8.84618 7.89026 8.62538 7.89026H4.93495C4.71415 7.89026 4.53528 8.06919 4.53528 8.28994V16.1853C4.53528 16.4061 4.71415 16.5849 4.93495 16.5849H23.065C23.2858 16.5849 23.4647 16.4061 23.4647 16.1853V8.28994C23.4646 8.06914 23.2858 7.89026 23.065 7.89026Z" fill="#4F4F4F"/>
<path d="M8.76241 10.4883H6.55525C6.40913 10.4883 6.34131 10.6449 6.34131 10.7909C6.34131 10.9579 6.41957 11.0988 6.55525 11.0988H7.32233V14.0886C7.32233 14.2295 7.48934 14.3026 7.66147 14.3026C7.82848 14.3026 8.00066 14.2295 8.00066 14.0886V11.0988H8.76246C8.89815 11.0988 8.97641 10.9527 8.97641 10.7909C8.97635 10.6449 8.90854 10.4883 8.76241 10.4883Z" fill="#4F4F4F"/>
<path d="M9.6856 10.4883C9.51342 10.4883 9.34647 10.5509 9.34647 10.697V14.0886C9.34647 14.2295 9.51342 14.3026 9.6856 14.3026C9.85261 14.3026 10.0247 14.2295 10.0247 14.0886V10.697C10.0247 10.5509 9.85261 10.4883 9.6856 10.4883Z" fill="#4F4F4F"/>
<path d="M12.7177 12.9669C12.5403 12.9669 12.3942 13.0191 12.3837 13.1808C12.3681 13.4 12.3263 13.7391 11.8515 13.7391C11.4915 13.7391 11.2932 13.546 11.2932 13.139V11.6832C11.2932 11.2762 11.4914 11.0831 11.8411 11.0831C12.3367 11.0831 12.3733 11.438 12.3838 11.5997C12.3889 11.7563 12.5299 11.8137 12.7229 11.8137C12.9525 11.8137 13.0621 11.7511 13.0621 11.4797C13.0621 10.8744 12.5455 10.4883 11.8201 10.4883C11.1627 10.4883 10.6148 10.8118 10.6148 11.6832V13.139C10.6148 14.0104 11.1575 14.3339 11.815 14.3339C12.5455 14.3339 13.0621 13.9321 13.0621 13.3007C13.0621 13.0346 12.9525 12.9669 12.7177 12.9669Z" fill="#4F4F4F"/>
<path d="M16.0671 13.8695L14.9295 12.1372L15.8635 10.9683C15.9 10.9214 15.9052 10.8744 15.9052 10.8379C15.9052 10.6657 15.6861 10.4883 15.5139 10.4883C15.4409 10.4883 15.3782 10.5143 15.3261 10.5874L14.199 12.1215V10.697C14.199 10.5509 14.0269 10.4883 13.8599 10.4883C13.6877 10.4883 13.5207 10.5509 13.5207 10.697H13.5208V14.0886C13.5208 14.2295 13.6877 14.3026 13.8599 14.3026C14.0269 14.3026 14.199 14.2295 14.199 14.0886V13.066L14.4809 12.7112L15.4618 14.1983C15.5192 14.2921 15.6079 14.3287 15.6966 14.3287C15.8949 14.3287 16.1036 14.1566 16.1036 13.9895C16.1036 13.9478 16.0931 13.9061 16.0671 13.8695Z" fill="#4F4F4F"/>
<path d="M18.5555 13.7078H17.0788V12.659H17.872C18.0181 12.659 18.0859 12.5181 18.0859 12.3981C18.0859 12.2572 18.0077 12.1267 17.872 12.1267H17.0788V11.0831H18.5555C18.6912 11.0831 18.7695 10.9422 18.7695 10.7805C18.7695 10.6396 18.7016 10.4883 18.5555 10.4883H16.6979C16.5466 10.4883 16.4005 10.5613 16.4005 10.7022V14.0887C16.4005 14.2296 16.5466 14.3026 16.6979 14.3026H18.5555C18.7016 14.3026 18.7695 14.1513 18.7695 14.0104C18.7695 13.8487 18.6912 13.7078 18.5555 13.7078Z" fill="#4F4F4F"/>
<path d="M21.3372 10.4883H19.1301C18.9839 10.4883 18.9161 10.6449 18.9161 10.7909C18.9161 10.9579 18.9944 11.0988 19.1301 11.0988H19.8971V14.0886C19.8971 14.2295 20.0641 14.3026 20.2363 14.3026C20.4033 14.3026 20.5755 14.2295 20.5755 14.0886V11.0988H21.3373C21.4729 11.0988 21.5512 10.9527 21.5512 10.7909C21.5511 10.6449 21.4833 10.4883 21.3372 10.4883Z" fill="#4F4F4F"/>
</svg>
