<svg width="48" height="44" viewBox="0 0 48 44" fill="none" xmlns="http://www.w3.org/2000/svg">
<path d="M47.2895 22.7048H46.3714C45.6023 22.7048 44.9766 22.0791 44.9766 21.31C44.9766 20.5408 45.6022 19.9151 46.3713 19.9151H47.2894C47.682 19.9151 48 19.5971 48 19.2046V14.9418C48 14.5492 47.682 14.2312 47.2894 14.2312H46.3713C45.6022 14.2312 44.9765 13.6055 44.9765 12.8364V12.578L46.0187 11.6234C46.3013 11.3645 46.3277 10.9282 46.0785 10.6371L43.3049 7.40003C43.1822 7.25687 43.0078 7.16837 42.8199 7.15393C42.6316 7.13818 42.4459 7.20025 42.303 7.32278L41.6058 7.92025C41.0218 8.42059 40.1394 8.35253 39.639 7.76856C39.3966 7.48572 39.2789 7.12525 39.3075 6.75371C39.3361 6.38227 39.5077 6.04421 39.7907 5.80177L40.4879 5.2043C40.786 4.94902 40.8206 4.50042 40.5652 4.20249L37.7915 0.965474C37.5363 0.667629 37.0877 0.632848 36.7897 0.888224L36.0924 1.4856C35.8094 1.72804 35.4491 1.84598 35.0776 1.8171C34.7062 1.78851 34.3681 1.61695 34.1257 1.33391L33.1955 0.248191C33.0729 0.105034 32.8984 0.0165336 32.7105 0.00209602C32.522 -0.0123415 32.3366 0.0482212 32.1937 0.17094L19.9098 10.6961H17.8816C17.489 10.6961 17.171 11.0141 17.171 11.4066C17.171 11.7992 17.489 12.1172 17.8816 12.1172H43.5556V12.8364C43.5556 14.3891 44.8187 15.6523 46.3714 15.6523H46.579V18.4941H46.3714C44.8187 18.4941 43.5556 19.7573 43.5556 21.31C43.5556 22.8626 44.8187 24.1258 46.3714 24.1258H46.579V26.9676H46.3714C44.8187 26.9676 43.5556 28.2307 43.5556 29.7834V31.3942H38.6427C38.2501 31.3942 37.9321 31.7122 37.9321 32.1047C37.9321 32.4973 38.2501 32.8153 38.6427 32.8153H44.2661C44.6586 32.8153 44.9766 32.4973 44.9766 32.1047V29.7834C44.9766 29.0144 45.6023 28.3887 46.3714 28.3887H47.2895C47.6821 28.3887 48.0001 28.0707 48.0001 27.6781V23.4153C48.0001 23.0228 47.6821 22.7048 47.2895 22.7048ZM22.0939 10.6961L32.5786 1.71257L33.0465 2.25876C33.5358 2.82998 34.2184 3.17639 34.9683 3.23414C35.7181 3.2918 36.4457 3.05433 37.0169 2.56495L37.1747 2.42985L39.0238 4.58771L38.8661 4.72289C37.6871 5.73305 37.5496 7.51422 38.56 8.69331C39.5703 9.87232 41.3515 10.0097 42.5304 8.99941L42.6881 8.86422L44.2577 10.6961H22.0939Z" fill="#005AEB"/>
<path d="M32.4063 31.3941H4.44461V30.675C4.44461 29.1223 3.18142 27.8591 1.62872 27.8591H1.42107V25.0173H1.62872C3.18142 25.0173 4.44461 23.7542 4.44461 22.2015C4.44461 20.6488 3.18142 19.3856 1.62872 19.3856H1.42107V16.5438H1.62872C3.18142 16.5438 4.44461 15.2806 4.44461 13.7279V12.1171H12.5534C12.9459 12.1171 13.2639 11.7991 13.2639 11.4066C13.2639 11.014 12.9459 10.696 12.5534 10.696H3.73408C3.34154 10.696 3.02354 11.014 3.02354 11.4066V13.7279C3.02354 14.497 2.39785 15.1227 1.62872 15.1227H0.710534C0.318001 15.1227 0 15.4407 0 15.8333V20.0961C0 20.4886 0.318001 20.8066 0.710534 20.8066H1.62872C2.39776 20.8066 3.02354 21.4323 3.02354 22.2015C3.02354 22.9706 2.39785 23.5963 1.62872 23.5963H0.710534C0.318001 23.5963 0 23.9143 0 24.3068V28.5696C0 28.9622 0.318001 29.2802 0.710534 29.2802H1.62872C2.39776 29.2802 3.02354 29.9059 3.02354 30.675V31.0592L2.01966 31.8553C1.86826 31.9753 1.77235 32.1517 1.75379 32.3438C1.73532 32.536 1.79588 32.7277 1.9216 32.8743L4.69511 36.1114C4.81774 36.2545 4.99221 36.343 5.18008 36.3575C5.36796 36.3731 5.55396 36.3113 5.69693 36.1886L6.39424 35.5912C6.67718 35.3486 7.03756 35.2301 7.409 35.2597C7.78043 35.2883 8.1185 35.4598 8.36094 35.7429C8.86137 36.3269 8.79331 37.2092 8.20925 37.7096L7.51203 38.307C7.21399 38.5623 7.1794 39.0109 7.43478 39.3088L10.2083 42.5459C10.4636 42.844 10.9122 42.8788 11.2101 42.6232L11.9074 42.0258C12.1903 41.7834 12.5518 41.6653 12.9222 41.6943C13.2936 41.7229 13.6317 41.8945 13.8741 42.1775L14.8043 43.2631C14.9448 43.4271 15.144 43.5114 15.3442 43.5114C15.5078 43.5114 15.6722 43.4552 15.8061 43.3404L28.0683 32.8339C28.0751 32.828 28.081 32.8216 28.0877 32.8155H32.4059C32.7985 32.8155 33.1165 32.4975 33.1165 32.105C33.1165 31.7124 32.7988 31.3941 32.4063 31.3941ZM15.4215 41.7987L14.9536 41.2527C14.4643 40.6814 13.7818 40.335 13.0318 40.2773C12.2819 40.2191 11.5544 40.4571 10.9831 40.9465L10.8254 41.0816L8.97631 38.9236L9.134 38.7885C9.70513 38.2991 10.0516 37.6166 10.1094 36.8666C10.1671 36.1167 9.92957 35.3891 9.44019 34.818C8.95091 34.2468 8.2684 33.9004 7.5184 33.8426C6.76868 33.7857 6.04099 34.0225 5.46977 34.5118L5.31208 34.647L3.74233 32.8151H25.906L15.4215 41.7987Z" fill="#005AEB"/>
<path d="M40.1153 14.027H19.8754C19.4828 14.027 19.1648 14.345 19.1648 14.7376C19.1648 15.1301 19.4828 15.4481 19.8754 15.4481H39.4048V28.0632H8.59477V15.4481H14.445C14.8375 15.4481 15.1555 15.1301 15.1555 14.7376C15.1555 14.345 14.8375 14.027 14.445 14.027H7.88424C7.49171 14.027 7.17371 14.3451 7.17371 14.7376V28.7737C7.17371 29.1662 7.49171 29.4842 7.88424 29.4842H40.1154C40.5079 29.4842 40.826 29.1662 40.826 28.7737V14.7376C40.8259 14.345 40.5079 14.027 40.1153 14.027Z" fill="#005AEB"/>
<path d="M14.6886 18.6458H10.7647C10.505 18.6458 10.3844 18.9241 10.3844 19.1838C10.3844 19.4806 10.5235 19.7311 10.7647 19.7311H12.1284V25.0464C12.1284 25.2969 12.4253 25.4267 12.7313 25.4267C13.0283 25.4267 13.3343 25.2969 13.3343 25.0464V19.7311H14.6887C14.9299 19.7311 15.069 19.4713 15.069 19.1838C15.0689 18.9241 14.9484 18.6458 14.6886 18.6458Z" fill="#005AEB"/>
<path d="M16.3298 18.6458C16.0237 18.6458 15.7269 18.757 15.7269 19.0167V25.0464C15.7269 25.2969 16.0237 25.4267 16.3298 25.4267C16.6267 25.4267 16.9327 25.2969 16.9327 25.0464V19.0167C16.9327 18.757 16.6267 18.6458 16.3298 18.6458Z" fill="#005AEB"/>
<path d="M21.7202 23.0518C21.4048 23.0518 21.145 23.1446 21.1265 23.4322C21.0986 23.8218 21.0245 24.4247 20.1804 24.4247C19.5403 24.4247 19.1878 24.0815 19.1878 23.3579V20.7698C19.1878 20.0463 19.5402 19.703 20.1618 19.703C21.0429 19.703 21.1079 20.3338 21.1266 20.6213C21.1358 20.8997 21.3864 21.0017 21.7295 21.0017C22.1376 21.0017 22.3325 20.8904 22.3325 20.408C22.3325 19.3318 21.414 18.6454 20.1246 18.6454C18.9558 18.6454 17.9818 19.2205 17.9818 20.7697V23.3578C17.9818 24.9069 18.9466 25.4821 20.1154 25.4821C21.414 25.4821 22.3325 24.7678 22.3325 23.6453C22.3325 23.1723 22.1376 23.0518 21.7202 23.0518Z" fill="#005AEB"/>
<path d="M27.6747 24.6568L25.6524 21.5771L27.3128 19.4992C27.3777 19.4157 27.3869 19.3322 27.3869 19.2673C27.3869 18.9611 26.9973 18.6458 26.6912 18.6458C26.5615 18.6458 26.4501 18.6921 26.3574 18.822L24.3536 21.5492V19.0167C24.3536 18.757 24.0476 18.6458 23.7507 18.6458C23.4446 18.6458 23.1478 18.757 23.1478 19.0167H23.1479V25.0464C23.1479 25.2969 23.4447 25.4267 23.7508 25.4267C24.0477 25.4267 24.3537 25.2969 24.3537 25.0464V23.2283L24.8547 22.5975L26.5987 25.2413C26.7007 25.4082 26.8584 25.4731 27.0161 25.4731C27.3686 25.4731 27.7395 25.1671 27.7395 24.8702C27.7395 24.7961 27.721 24.7218 27.6747 24.6568Z" fill="#005AEB"/>
<path d="M32.0987 24.3692H29.4734V22.5046H30.8835C31.1433 22.5046 31.2638 22.2541 31.2638 22.0407C31.2638 21.7902 31.1247 21.5583 30.8835 21.5583H29.4734V19.7031H32.0987C32.3399 19.7031 32.479 19.4526 32.479 19.165C32.479 18.9146 32.3584 18.6456 32.0987 18.6456H28.7963C28.5273 18.6456 28.2676 18.7754 28.2676 19.0259V25.0463C28.2676 25.2968 28.5273 25.4266 28.7963 25.4266H32.0987C32.3585 25.4266 32.479 25.1577 32.479 24.9072C32.479 24.6197 32.3399 24.3692 32.0987 24.3692Z" fill="#005AEB"/>
<path d="M37.0438 18.6458H33.12C32.8602 18.6458 32.7396 18.9241 32.7396 19.1838C32.7396 19.4806 32.8788 19.7311 33.12 19.7311H34.4837V25.0464C34.4837 25.2969 34.7806 25.4267 35.0866 25.4267C35.3835 25.4267 35.6896 25.2969 35.6896 25.0464V19.7311H37.0439C37.2851 19.7311 37.4242 19.4713 37.4242 19.1838C37.4241 18.9241 37.3036 18.6458 37.0438 18.6458Z" fill="#005AEB"/>
</svg>
