<svg width="25" height="25" viewBox="0 0 25 25" fill="none" xmlns="http://www.w3.org/2000/svg">
<path d="M21.2588 15.4832C20.5587 15.3712 18.3703 15.0209 17.6758 14.9098V14.0463C19.4416 13.2758 20.6055 11.5193 20.6055 9.57036V7.56841H23.0469C23.3165 7.56841 23.5352 7.34976 23.5352 7.08013V6.52056C23.5352 5.34824 22.5814 4.39453 21.4092 4.39453H20.5812C20.3354 1.93052 18.2503 0 15.7227 0C13.195 0 11.11 1.93052 10.8642 4.39453H10.0361C8.86387 4.39453 7.91016 5.34824 7.91016 6.52051V7.08008C7.91016 7.34971 8.12876 7.56836 8.39844 7.56836H10.8398V9.57031C10.8398 11.5194 12.0039 13.2759 13.7695 14.0463V14.9098C13.022 15.0294 10.9387 15.3628 10.1865 15.4832C8.03442 15.8277 6.44531 17.6861 6.44531 19.8706V24.5117C6.44531 24.7813 6.66392 25 6.93359 25H24.5117C24.7813 25 25 24.7813 25 24.5117V19.8706C25 17.6911 23.4159 15.8285 21.2588 15.4832ZM15.7227 0.976562C17.7111 0.976562 19.3561 2.47041 19.5973 4.39453H11.848C12.0892 2.47041 13.7342 0.976562 15.7227 0.976562ZM11.8164 9.57031V7.56836H13.5743C13.8439 7.56836 14.0625 7.34971 14.0625 7.08008C14.0625 6.81045 13.8439 6.5918 13.5743 6.5918C13.0709 6.5918 9.48101 6.5918 8.88672 6.5918V6.52051C8.88672 5.88672 9.40234 5.37109 10.0361 5.37109H21.4092C22.043 5.37109 22.5586 5.88672 22.5586 6.52051V6.5918C22.0876 6.5918 18.4828 6.5918 17.9688 6.5918C17.6992 6.5918 17.4805 6.81045 17.4805 7.08008C17.4805 7.34971 17.6992 7.56836 17.9688 7.56836H19.6289V9.57031C19.6289 11.7049 17.901 13.4766 15.7227 13.4766C13.5444 13.4766 11.8164 11.705 11.8164 9.57031ZM14.335 15.8083C14.5719 15.7704 14.7461 15.5661 14.7461 15.3262V14.3547C15.0656 14.4196 15.392 14.4531 15.7227 14.4531C16.0533 14.4531 16.3797 14.4196 16.6992 14.3547V15.3262C16.6992 15.5661 16.8734 15.7704 17.1104 15.8083L18.7309 16.0676L15.7227 20.0788L12.7144 16.0676L14.335 15.8083ZM16.748 24.0234H14.7461V21.7773H16.748V24.0234ZM7.42188 19.8706C7.42188 18.1579 8.64951 16.7182 10.3408 16.4475L11.6245 16.242L15.0435 20.8008H14.2578C13.9882 20.8008 13.7695 21.0194 13.7695 21.2891V24.0234H10.3516V21.2891C10.3516 21.0194 10.133 20.8008 9.86328 20.8008C9.5936 20.8008 9.375 21.0194 9.375 21.2891V24.0234H7.42188V19.8706ZM24.0234 24.0234H22.0703V21.2891C22.0703 21.0194 21.8517 20.8008 21.582 20.8008C21.3124 20.8008 21.0938 21.0194 21.0938 21.2891V24.0234H17.7246V21.2891C17.7246 21.0194 17.506 20.8008 17.2363 20.8008H16.4019L19.8208 16.242L21.1044 16.4475C22.7958 16.7183 24.0234 18.1579 24.0234 19.8706V24.0234Z" fill="#4F4F4F"/>
<path d="M17.4139 10.5472C17.5489 10.3138 17.4691 10.0151 17.2356 9.88011C17.0022 9.7451 16.7035 9.82498 16.5685 10.0584C16.3943 10.3598 16.0704 10.547 15.7232 10.547C15.3759 10.547 15.052 10.3598 14.8778 10.0584C14.7429 9.82508 14.4443 9.74505 14.2107 9.88011C13.9773 10.0151 13.8974 10.3138 14.0324 10.5472C14.3805 11.1494 15.0284 11.5235 15.7232 11.5235C16.4179 11.5235 17.0658 11.1494 17.4139 10.5472Z" fill="#4F4F4F"/>
<path d="M0.488281 24.0234C0.218604 24.0234 0 24.2421 0 24.5117C0 24.7813 0.218604 25 0.488281 25H3.41797C3.68765 25 3.90625 24.7813 3.90625 24.5117C3.90625 24.2421 3.68765 24.0234 3.41797 24.0234H2.44141V16.0533L9.45869 13.2463C9.64409 13.1722 9.76562 12.9926 9.76562 12.793C9.76562 12.5933 9.64409 12.4137 9.45869 12.3396L2.44141 9.53267V6.93359C2.44141 6.66396 2.2228 6.44531 1.95312 6.44531C1.68345 6.44531 1.46484 6.66396 1.46484 6.93359V24.0234H0.488281ZM7.9626 12.793L2.44141 15.0014V10.5845L7.9626 12.793Z" fill="#4F4F4F"/>
<path d="M15.7715 7.56836C16.0412 7.56836 16.2598 7.34975 16.2598 7.08008C16.2598 6.81041 16.0412 6.5918 15.7715 6.5918C15.5018 6.5918 15.2832 6.81041 15.2832 7.08008C15.2832 7.34975 15.5018 7.56836 15.7715 7.56836Z" fill="#4F4F4F"/>
</svg>
