<svg width="48" height="48" viewBox="0 0 48 48" fill="none" xmlns="http://www.w3.org/2000/svg">
<path d="M40.8169 29.7278C39.4728 29.5127 35.2709 28.8402 33.9375 28.6268V26.9689C37.3278 25.4895 39.5625 22.1171 39.5625 18.3751V14.5313H44.25C44.7677 14.5313 45.1875 14.1115 45.1875 13.5938V12.5195C45.1875 10.2686 43.3564 8.4375 41.1056 8.4375H39.5158C39.0439 3.70659 35.0406 0 30.1875 0C25.3344 0 21.3311 3.70659 20.8593 8.4375H19.2694C17.0186 8.4375 15.1875 10.2686 15.1875 12.5194V13.5938C15.1875 14.1114 15.6072 14.5312 16.125 14.5312H20.8125V18.375C20.8125 22.1172 23.0474 25.4897 26.4375 26.9689V28.6268C25.0022 28.8565 21.0023 29.4967 19.5581 29.7278C15.4261 30.3893 12.375 33.9573 12.375 38.1516V47.0625C12.375 47.5802 12.7947 48 13.3125 48H47.0625C47.5802 48 48 47.5802 48 47.0625V38.1516C48 33.9669 44.9586 30.3908 40.8169 29.7278ZM30.1875 1.875C34.0054 1.875 37.1637 4.74319 37.6268 8.4375H22.7482C23.2113 4.74319 26.3696 1.875 30.1875 1.875ZM22.6875 18.375V14.5312H26.0626C26.5803 14.5312 27.0001 14.1114 27.0001 13.5938C27.0001 13.0761 26.5803 12.6562 26.0626 12.6562C25.0962 12.6562 18.2035 12.6562 17.0625 12.6562V12.5194C17.0625 11.3025 18.0525 10.3125 19.2694 10.3125H41.1056C42.3225 10.3125 43.3125 11.3025 43.3125 12.5194V12.6562C42.4082 12.6562 35.487 12.6562 34.5001 12.6562C33.9824 12.6562 33.5626 13.0761 33.5626 13.5938C33.5626 14.1114 33.9824 14.5312 34.5001 14.5312H37.6875V18.375C37.6875 22.4734 34.37 25.875 30.1875 25.875C26.0053 25.875 22.6875 22.4737 22.6875 18.375ZM27.5231 30.3519C27.978 30.2792 28.3125 29.8868 28.3125 29.4263V27.561C28.926 27.6856 29.5527 27.75 30.1875 27.75C30.8223 27.75 31.4491 27.6856 32.0625 27.561V29.4263C32.0625 29.8868 32.397 30.2792 32.8519 30.3519L35.9633 30.8498L30.1875 38.5512L24.4117 30.8498L27.5231 30.3519ZM32.1562 46.125H28.3125V41.8125H32.1562V46.125ZM14.25 38.1516C14.25 34.8631 16.6071 32.099 19.8544 31.5791L22.3191 31.1847L28.8834 39.9375H27.375C26.8573 39.9375 26.4375 40.3573 26.4375 40.875V46.125H19.875V40.875C19.875 40.3573 19.4553 39.9375 18.9375 39.9375C18.4197 39.9375 18 40.3573 18 40.875V46.125H14.25V38.1516ZM46.125 46.125H42.375V40.875C42.375 40.3573 41.9552 39.9375 41.4375 39.9375C40.9198 39.9375 40.5 40.3573 40.5 40.875V46.125H34.0312V40.875C34.0312 40.3573 33.6114 39.9375 33.0938 39.9375H31.4916L38.0559 31.1847L40.5205 31.5791C43.7679 32.0991 46.125 34.8631 46.125 38.1516V46.125Z" fill="#005AEB"/>
<path d="M33.4348 20.2505C33.694 19.8023 33.5406 19.2288 33.0924 18.9697C32.6442 18.7105 32.0707 18.8638 31.8116 19.3121C31.4771 19.8906 30.8552 20.25 30.1885 20.25C29.5219 20.25 28.8999 19.8906 28.5654 19.3121C28.3064 18.864 27.7331 18.7104 27.2846 18.9697C26.8364 19.2288 26.683 19.8023 26.9422 20.2505C27.6107 21.4067 28.8545 22.125 30.1885 22.125C31.5225 22.125 32.7664 21.4067 33.4348 20.2505Z" fill="#005AEB"/>
<path d="M0.9375 46.125C0.419719 46.125 0 46.5448 0 47.0625C0 47.5802 0.419719 48 0.9375 48H6.5625C7.08028 48 7.5 47.5802 7.5 47.0625C7.5 46.5448 7.08028 46.125 6.5625 46.125H4.6875V30.8223L18.1607 25.433C18.5167 25.2906 18.75 24.9458 18.75 24.5625C18.75 24.1792 18.5167 23.8343 18.1607 23.692L4.6875 18.3027V13.3125C4.6875 12.7948 4.26778 12.375 3.75 12.375C3.23222 12.375 2.8125 12.7948 2.8125 13.3125V46.125H0.9375ZM15.2882 24.5625L4.6875 28.8027V20.3223L15.2882 24.5625Z" fill="#005AEB"/>
<path d="M30.2812 14.5312C30.799 14.5312 31.2188 14.1115 31.2188 13.5938C31.2188 13.076 30.799 12.6562 30.2812 12.6562C29.7635 12.6562 29.3438 13.076 29.3438 13.5938C29.3438 14.1115 29.7635 14.5312 30.2812 14.5312Z" fill="#005AEB"/>
</svg>
