<svg width="32" height="32" viewBox="0 0 32 32" fill="none" xmlns="http://www.w3.org/2000/svg">
<path d="M26 32H6C2.686 32 0 29.314 0 26V6C0 2.686 2.686 0 6 0H26C29.314 0 32 2.686 32 6V26C32 29.314 29.314 32 26 32Z" fill="#2E2E2E"/>
<path d="M22.356 12.742C23.007 12.28 23.554 11.703 24 11.039V11.038C23.405 11.299 22.771 11.472 22.11 11.556C22.79 11.15 23.309 10.512 23.553 9.743C22.919 10.121 22.219 10.388 21.473 10.537C20.871 9.897 20.013 9.5 19.077 9.5C17.261 9.5 15.799 10.974 15.799 12.781C15.799 13.041 15.821 13.291 15.875 13.529C13.148 13.396 10.735 12.089 9.114 10.098C8.831 10.589 8.665 11.151 8.665 11.756C8.665 12.892 9.25 13.899 10.122 14.482C9.595 14.472 9.078 14.319 8.64 14.078V14.114C8.64 15.708 9.777 17.032 11.268 17.337C11.001 17.41 10.71 17.445 10.408 17.445C10.198 17.445 9.986 17.433 9.787 17.389C10.212 18.688 11.418 19.643 12.852 19.674C11.736 20.547 10.319 21.073 8.785 21.073C8.516 21.073 8.258 21.061 8 21.028C9.453 21.965 11.175 22.5 13.032 22.5C18.82 22.5 22.593 17.671 22.356 12.742Z" fill="white"/>
</svg>
