<svg width="20" height="20" viewBox="0 0 20 20" fill="none" xmlns="http://www.w3.org/2000/svg">
<path d="M16.5916 12.925H12.8166C12.5956 12.925 12.3837 13.0128 12.2274 13.1691C12.0711 13.3254 11.9833 13.5373 11.9833 13.7583C11.9833 13.9794 12.0711 14.1913 12.2274 14.3476C12.3837 14.5039 12.5956 14.5917 12.8166 14.5917H14.8166C13.8974 15.5523 12.712 16.2161 11.4126 16.4978C10.1132 16.7796 8.7593 16.6663 7.52477 16.1727C6.29025 15.6791 5.23152 14.8276 4.48462 13.7276C3.73772 12.6277 3.33677 11.3296 3.33329 10C3.33329 9.77899 3.2455 9.56703 3.08922 9.41075C2.93293 9.25447 2.72097 9.16667 2.49996 9.16667C2.27895 9.16667 2.06698 9.25447 1.9107 9.41075C1.75442 9.56703 1.66663 9.77899 1.66663 10C1.67103 11.6273 2.15181 13.2178 3.04963 14.575C3.94745 15.9323 5.22301 16.997 6.71891 17.6377C8.21481 18.2784 9.86557 18.4671 11.4675 18.1805C13.0694 17.894 14.5523 17.1446 15.7333 16.025V17.5C15.7333 17.721 15.8211 17.933 15.9774 18.0893C16.1337 18.2455 16.3456 18.3333 16.5666 18.3333C16.7876 18.3333 16.9996 18.2455 17.1559 18.0893C17.3122 17.933 17.4 17.721 17.4 17.5V13.75C17.3979 13.5347 17.3126 13.3285 17.1619 13.1748C17.0112 13.021 16.8068 12.9315 16.5916 12.925ZM9.99996 1.66667C7.86361 1.67277 5.8112 2.4991 4.26663 3.97501V2.50001C4.26663 2.27899 4.17883 2.06703 4.02255 1.91075C3.86627 1.75447 3.65431 1.66667 3.43329 1.66667C3.21228 1.66667 3.00032 1.75447 2.84404 1.91075C2.68776 2.06703 2.59996 2.27899 2.59996 2.50001V6.25001C2.59996 6.47102 2.68776 6.68298 2.84404 6.83926C3.00032 6.99554 3.21228 7.08334 3.43329 7.08334H7.18329C7.40431 7.08334 7.61627 6.99554 7.77255 6.83926C7.92883 6.68298 8.01663 6.47102 8.01663 6.25001C8.01663 6.02899 7.92883 5.81703 7.77255 5.66075C7.61627 5.50447 7.40431 5.41667 7.18329 5.41667H5.18329C6.10201 4.45656 7.2867 3.79292 8.58529 3.51093C9.88388 3.22894 11.2371 3.34146 12.4713 3.83406C13.7055 4.32666 14.7643 5.17685 15.5118 6.27551C16.2594 7.37417 16.6615 8.67116 16.6666 10C16.6666 10.221 16.7544 10.433 16.9107 10.5893C17.067 10.7455 17.2789 10.8333 17.5 10.8333C17.721 10.8333 17.9329 10.7455 18.0892 10.5893C18.2455 10.433 18.3333 10.221 18.3333 10C18.3333 8.90566 18.1177 7.82202 17.699 6.81098C17.2802 5.79993 16.6663 4.88127 15.8925 4.10745C15.1187 3.33363 14.2 2.7198 13.189 2.30101C12.1779 1.88222 11.0943 1.66667 9.99996 1.66667Z" fill="#828282"/>
</svg>
