<svg width="24" height="25" viewBox="0 0 24 25" fill="none" xmlns="http://www.w3.org/2000/svg">
<path d="M11.7891 2.64999C8.88129 2.64999 6.51562 5.01566 6.51562 7.92343C6.51562 10.8312 8.88129 13.1969 11.7891 13.1969C14.6968 13.1969 17.0625 10.8312 17.0625 7.92343C17.0625 5.01566 14.6968 2.64999 11.7891 2.64999ZM11.7891 12.025C9.52746 12.025 7.6875 10.185 7.6875 7.92343C7.6875 5.66183 9.52746 3.82187 11.7891 3.82187C14.0507 3.82187 15.8906 5.66183 15.8906 7.92343C15.8906 10.185 14.0507 12.025 11.7891 12.025Z" fill="#2E2E2E"/>
<path d="M18.3502 16.642C16.9065 15.176 14.9925 14.3687 12.9609 14.3687H10.6172C8.58563 14.3687 6.67164 15.176 5.22789 16.642C3.79121 18.1007 3 20.0263 3 22.0641C3 22.3877 3.26234 22.65 3.58594 22.65H19.9922C20.3158 22.65 20.5781 22.3877 20.5781 22.0641C20.5781 20.0263 19.7869 18.1007 18.3502 16.642ZM4.19766 21.4781C4.49121 18.1544 7.25824 15.5406 10.6172 15.5406H12.9609C16.3199 15.5406 19.0869 18.1544 19.3805 21.4781H4.19766Z" fill="#2E2E2E"/>
</svg>
