<svg width="60" height="28" viewBox="0 0 60 28" fill="none" xmlns="http://www.w3.org/2000/svg">
<rect width="60" height="28" rx="4" fill="white"/>
<path d="M25.4211 8.46235L20.2495 20.9838H16.887L14.3469 11.0037C14.2007 10.3916 14.0545 10.169 13.5976 9.90928C12.8118 9.48262 11.5509 9.07451 10.4362 8.83336L10.5093 8.46235H15.9367C16.6312 8.46235 17.2525 8.92611 17.3987 9.74232L18.751 16.9769L22.0769 8.46235H25.4211ZM38.6335 16.9027C38.6517 13.6008 34.138 13.4153 34.1562 11.9498C34.1745 11.5046 34.5948 11.0223 35.5086 10.8924C35.9654 10.8368 37.2263 10.7811 38.6517 11.449L39.2182 8.79626C38.4507 8.518 37.4639 8.23975 36.2395 8.23975C33.0781 8.23975 30.8669 9.94638 30.8486 12.3765C30.8303 14.1758 32.4385 15.1776 33.6446 15.7897C34.8872 16.4019 35.3075 16.7914 35.3075 17.348C35.2893 18.1827 34.3207 18.5537 33.407 18.5723C31.7989 18.5908 30.8669 18.1271 30.1359 17.7746L29.5511 20.5201C30.3004 20.8725 31.6709 21.1693 33.0963 21.1879C36.4405 21.1879 38.6152 19.4998 38.6335 16.9027ZM46.9666 20.9838H49.9087L47.332 8.46235H44.6092C43.9878 8.46235 43.4762 8.81481 43.2569 9.37132L38.469 20.9653H41.8132L42.4711 19.0917H46.5645L46.9666 20.9838ZM43.4031 16.5503L45.0843 11.8571L46.0528 16.5503H43.4031ZM29.9714 8.46235L27.3399 20.9838H24.1602L26.7917 8.46235H29.9714Z" fill="url(#paint0_linear)"/>
<defs>
<linearGradient id="paint0_linear" x1="10.4362" y1="14.7099" x2="49.9087" y2="14.7099" gradientUnits="userSpaceOnUse">
<stop stop-color="#0A0141"/>
<stop offset="1" stop-color="#0F218B"/>
</linearGradient>
</defs>
</svg>
